<svg xmlns="http://www.w3.org/2000/svg" width="670" height="117" viewBox="0 0 670 117" fill="none">
  <path d="M240.929 18.0222L239.029 18.1326C205.672 20.071 172.34 22.008 139.288 26.2776C120.252 28.7365 56.5802 30.4867 48.744 56.4504C38.9658 88.8486 121.925 100.458 127.924 101.334C201.336 112.059 284.605 114.583 356.81 114.934C437.537 115.326 517.881 114.22 597.044 101.136C615.673 98.0574 634.266 93.7362 651.523 86.4214C658.379 83.5153 676.465 69.4925 663.554 57.8953C650.86 46.4923 602.775 33.5361 593.106 31.2098C552.887 21.5335 489.675 11.6894 450.154 7.79457C298.441 -7.15708 149.293 9.80159 0 24.8693" stroke="#C0B7EE" stroke-width="3" stroke-linecap="round"/>
</svg>
