<svg xmlns="http://www.w3.org/2000/svg" width="362" height="75" viewBox="0 0 362 75" fill="none">
  <path d="M131.104 12.0617L130.086 12.131C112.211 13.349 94.3501 14.5661 76.6388 17.2487C66.4383 18.7937 32.319 19.8934 28.1199 36.2069C22.8802 56.5633 67.3347 63.8577 70.5493 64.4083C109.888 71.147 154.509 72.7329 193.2 72.9531C236.458 73.1993 279.511 72.5044 321.932 64.2838C331.914 62.3493 341.877 59.6342 351.125 55.0382C354.799 53.2122 364.49 44.4014 357.572 37.1147C350.769 29.9499 325.003 21.8094 319.821 20.3477C298.27 14.2679 264.397 8.08265 243.22 5.63548C161.922 -3.75892 82.0002 6.89652 2 16.3639" stroke="#C0B7EE" stroke-width="3" stroke-linecap="round"/>
</svg>
