<svg xmlns="http://www.w3.org/2000/svg" width="670" height="117" viewBox="0 0 670 117" fill="none">
  <path d="M240.929 17.5613L239.029 17.6717C205.672 19.6101 172.34 21.5471 139.288 25.8166C120.252 28.2756 56.5802 30.0258 48.744 55.9895C38.9658 88.3877 121.925 99.9971 127.924 100.874C201.336 111.598 284.605 114.122 356.81 114.473C437.537 114.865 517.881 113.759 597.044 100.675C615.673 97.5964 634.266 93.2752 651.523 85.9605C658.379 83.0544 676.465 69.0316 663.554 57.4343C650.86 46.0313 602.775 33.0752 593.106 30.7489C552.887 21.0725 489.675 11.2284 450.154 7.33364C298.441 -7.61801 149.293 9.34065 0 24.4084" stroke="#E9FD88" stroke-width="3" stroke-linecap="round"/>
</svg>
