<svg width="45" height="48" viewBox="0 0 45 48" fill="none" xmlns="http://www.w3.org/2000/svg">
<path d="M0.166992 47.9966V5.32992C0.166992 3.86325 0.689214 2.60769 1.73366 1.56325C2.7781 0.518804 4.03366 -0.00341797 5.50033 -0.00341797H21.5003C22.967 -0.00341797 24.2225 0.518804 25.267 1.56325C26.3114 2.60769 26.8337 3.86325 26.8337 5.32992V23.9966H29.5003C30.967 23.9966 32.2225 24.5188 33.267 25.5632C34.3114 26.6077 34.8337 27.8632 34.8337 29.3299V41.3299C34.8337 42.0855 35.0892 42.7188 35.6003 43.2299C36.1114 43.741 36.7448 43.9966 37.5003 43.9966C38.2559 43.9966 38.8892 43.741 39.4003 43.2299C39.9114 42.7188 40.167 42.0855 40.167 41.3299V22.1299C39.767 22.3521 39.3448 22.4966 38.9003 22.5632C38.4559 22.6299 37.9892 22.6632 37.5003 22.6632C35.6337 22.6632 34.0559 22.0188 32.767 20.7299C31.4781 19.441 30.8337 17.8632 30.8337 15.9966C30.8337 14.5744 31.2225 13.2966 32.0003 12.1632C32.7781 11.0299 33.8114 10.2188 35.1003 9.72992L29.5003 4.12992L32.3003 1.32992L42.167 10.9299C42.8337 11.5966 43.3337 12.3744 43.667 13.2632C44.0003 14.1521 44.167 15.0632 44.167 15.9966V41.3299C44.167 43.1966 43.5225 44.7744 42.2337 46.0632C40.9448 47.3521 39.367 47.9966 37.5003 47.9966C35.6337 47.9966 34.0559 47.3521 32.767 46.0632C31.4781 44.7744 30.8337 43.1966 30.8337 41.3299V27.9966H26.8337V47.9966H0.166992ZM5.50033 18.6632H21.5003V5.32992H5.50033V18.6632ZM37.5003 18.6632C38.2559 18.6632 38.8892 18.4077 39.4003 17.8966C39.9114 17.3855 40.167 16.7521 40.167 15.9966C40.167 15.241 39.9114 14.6077 39.4003 14.0966C38.8892 13.5855 38.2559 13.3299 37.5003 13.3299C36.7448 13.3299 36.1114 13.5855 35.6003 14.0966C35.0892 14.6077 34.8337 15.241 34.8337 15.9966C34.8337 16.7521 35.0892 17.3855 35.6003 17.8966C36.1114 18.4077 36.7448 18.6632 37.5003 18.6632ZM5.50033 42.6632H21.5003V23.9966H5.50033V42.6632Z" fill="#E9FD88"/>
</svg>
