<svg width="49" height="48" viewBox="0 0 49 48" fill="none" xmlns="http://www.w3.org/2000/svg">
<path d="M48.9277 10.6566C48.9277 11.1366 48.8877 11.7966 48.8277 12.6166C48.7577 13.4366 48.6577 14.3766 48.5277 15.4466L44.8577 42.2766C44.6377 43.9566 43.8677 45.3366 42.5577 46.4066C41.2477 47.4666 39.7477 47.9966 38.0577 47.9966C37.0377 47.9966 36.0877 47.7766 35.2277 47.3366C34.3577 46.8866 33.6377 46.2666 33.0577 45.4666L25.9277 35.0866C25.8377 34.9066 25.6877 34.7866 25.4877 34.7166C25.2877 34.6566 25.0777 34.6166 24.8577 34.6166C24.6777 34.6166 24.3277 34.8166 23.7877 35.2166L16.8577 45.2666C16.2377 46.1566 15.4677 46.8366 14.5577 47.2966C13.6477 47.7666 12.6777 47.9966 11.6577 47.9966C9.96773 47.9966 8.47773 47.4566 7.18773 46.3666C5.90773 45.2766 5.14773 43.8966 4.92773 42.2066L1.32773 15.4466C1.18773 14.3766 1.08773 13.4366 1.02773 12.6166C0.957734 11.7966 0.927734 11.1366 0.927734 10.6566C0.927734 7.72658 1.96773 5.21658 4.05773 3.12658C6.14773 1.04658 8.65773 -0.00341797 11.5877 -0.00341797C13.1877 -0.00341797 14.4677 0.206582 15.4277 0.636582C16.3777 1.05658 17.3077 1.50658 18.1877 1.99658C19.0777 2.48658 20.0277 2.93658 21.0277 3.36658C22.0277 3.78658 23.3277 3.99658 24.9277 3.99658C26.5277 3.99658 27.8277 3.78658 28.8277 3.36658C29.8277 2.93658 30.7677 2.48658 31.6577 1.99658C32.5477 1.50658 33.4777 1.05658 34.4577 0.636582C35.4377 0.206582 36.7077 -0.00341797 38.2577 -0.00341797C41.1877 -0.00341797 43.7077 1.04658 45.7877 3.12658C47.8677 5.20658 48.9277 7.72658 48.9277 10.6566Z" fill="#C0B7EE"/>
</svg>
