<svg xmlns="http://www.w3.org/2000/svg" width="65" height="64" viewBox="0 0 65 64" fill="none">
  <path d="M11.167 55.9966V13.3299C11.167 11.8632 11.6892 10.6077 12.7337 9.56325C13.7781 8.5188 15.0337 7.99658 16.5003 7.99658H32.5003C33.967 7.99658 35.2225 8.5188 36.267 9.56325C37.3114 10.6077 37.8337 11.8632 37.8337 13.3299V31.9966H40.5003C41.967 31.9966 43.2225 32.5188 44.267 33.5632C45.3114 34.6077 45.8337 35.8632 45.8337 37.3299V49.3299C45.8337 50.0855 46.0892 50.7188 46.6003 51.2299C47.1114 51.741 47.7448 51.9966 48.5003 51.9966C49.2559 51.9966 49.8892 51.741 50.4003 51.2299C50.9114 50.7188 51.167 50.0855 51.167 49.3299V30.1299C50.767 30.3521 50.3448 30.4966 49.9003 30.5632C49.4559 30.6299 48.9892 30.6632 48.5003 30.6632C46.6337 30.6632 45.0559 30.0188 43.767 28.7299C42.4781 27.441 41.8337 25.8632 41.8337 23.9966C41.8337 22.5744 42.2225 21.2966 43.0003 20.1632C43.7781 19.0299 44.8114 18.2188 46.1003 17.7299L40.5003 12.1299L43.3003 9.32992L53.167 18.9299C53.8337 19.5966 54.3337 20.3744 54.667 21.2632C55.0003 22.1521 55.167 23.0632 55.167 23.9966V49.3299C55.167 51.1966 54.5225 52.7744 53.2337 54.0632C51.9448 55.3521 50.367 55.9966 48.5003 55.9966C46.6337 55.9966 45.0559 55.3521 43.767 54.0632C42.4781 52.7744 41.8337 51.1966 41.8337 49.3299V35.9966H37.8337V55.9966H11.167ZM16.5003 26.6632H32.5003V13.3299H16.5003V26.6632ZM48.5003 26.6632C49.2559 26.6632 49.8892 26.4077 50.4003 25.8966C50.9114 25.3855 51.167 24.7521 51.167 23.9966C51.167 23.241 50.9114 22.6077 50.4003 22.0966C49.8892 21.5855 49.2559 21.3299 48.5003 21.3299C47.7448 21.3299 47.1114 21.5855 46.6003 22.0966C46.0892 22.6077 45.8337 23.241 45.8337 23.9966C45.8337 24.7521 46.0892 25.3855 46.6003 25.8966C47.1114 26.4077 47.7448 26.6632 48.5003 26.6632ZM16.5003 50.6632H32.5003V31.9966H16.5003V50.6632Z" fill="#E9FD88"/>
  <path d="M16.5003 26.6632H32.5003V13.3299H16.5003V26.6632Z" fill="#E9FD88"/>
  <path d="M16.5003 50.6632H32.5003V31.9966H16.5003V50.6632Z" fill="#E9FD88"/>
</svg>
