<svg width="49" height="49" viewBox="0 0 49 49" fill="none" xmlns="http://www.w3.org/2000/svg">
<path d="M38.2611 0.66333C41.1944 0.66333 43.7055 1.70633 45.7944 3.79232C47.8833 5.87831 48.9277 8.38594 48.9277 11.3152C48.9277 11.8034 48.8944 12.4581 48.8277 13.2791C48.7611 14.1002 48.6611 15.0434 48.5277 16.1085L44.8611 42.938C44.6388 44.6245 43.8722 46.0004 42.5611 47.0656C41.25 48.1307 39.75 48.6633 38.0611 48.6633C37.0388 48.6633 36.0944 48.4414 35.2277 47.9976C34.3611 47.5538 33.6388 46.9324 33.0611 46.1335L25.9277 35.7479C25.8388 35.5704 25.6944 35.4484 25.4944 35.3818C25.2944 35.3152 25.0833 35.2819 24.8611 35.2819C24.6833 35.2819 24.3277 35.4816 23.7944 35.8811L16.8611 45.9338C16.2388 46.8214 15.4722 47.4983 14.5611 47.9643C13.65 48.4303 12.6833 48.6633 11.6611 48.6633C9.97218 48.6633 8.48329 48.1196 7.1944 47.0323C5.90551 45.9449 5.14996 44.5579 4.92773 42.8714L1.32773 16.1085C1.1944 15.0434 1.0944 14.1002 1.02773 13.2791C0.961068 12.4581 0.927734 11.8034 0.927734 11.3152C0.927734 8.38594 1.97218 5.87831 4.06107 3.79232C6.14996 1.70633 8.66107 0.66333 11.5944 0.66333C13.1944 0.66333 14.4722 0.874148 15.4277 1.29579C16.3833 1.71742 17.3055 2.17235 18.1944 2.66056C19.0833 3.14877 20.0277 3.60369 21.0277 4.02533C22.0277 4.44696 23.3277 4.65778 24.9277 4.65778C26.5277 4.65778 27.8277 4.44696 28.8277 4.02533C29.8277 3.60369 30.7722 3.14877 31.6611 2.66056C32.55 2.17235 33.4833 1.71742 34.4611 1.29579C35.4388 0.874148 36.7055 0.66333 38.2611 0.66333ZM38.2611 5.98927C37.2388 5.98927 36.3388 6.20008 35.5611 6.62172C34.7833 7.04336 33.9277 7.49828 32.9944 7.98649C32.0611 8.4747 30.9722 8.92963 29.7277 9.35126C28.4833 9.7729 26.8833 9.98372 24.9277 9.98372C22.9722 9.98372 21.3722 9.7729 20.1277 9.35126C18.8833 8.92963 17.7944 8.4747 16.8611 7.98649C15.9277 7.49828 15.0722 7.04336 14.2944 6.62172C13.5166 6.20008 12.6166 5.98927 11.5944 5.98927C10.1277 5.98927 8.87218 6.51076 7.82773 7.55376C6.78329 8.59676 6.26107 9.85057 6.26107 11.3152C6.26107 11.6703 6.28329 12.1807 6.32773 12.8464C6.37218 13.5122 6.46107 14.2889 6.5944 15.1765L10.2611 42.1391C10.3055 42.4941 10.4611 42.7715 10.7277 42.9712C10.9944 43.171 11.3055 43.2708 11.6611 43.2708C11.8833 43.2708 12.0833 43.2264 12.2611 43.1377C12.4388 43.0489 12.5722 42.9158 12.6611 42.7382L19.3944 32.8852C20.0166 31.9976 20.8166 31.2875 21.7944 30.7549C22.7722 30.2223 23.8166 29.956 24.9277 29.956C26.0388 29.956 27.0833 30.2223 28.0611 30.7549C29.0388 31.2875 29.8388 31.9976 30.4611 32.8852L37.3277 42.938C37.4166 43.0711 37.5277 43.171 37.6611 43.2375C37.7944 43.3041 37.95 43.3374 38.1277 43.3374C38.4833 43.3374 38.8055 43.2375 39.0944 43.0378C39.3833 42.8381 39.55 42.5607 39.5944 42.2056L43.2611 15.1765C43.3944 14.2889 43.4833 13.5122 43.5277 12.8464C43.5722 12.1807 43.5944 11.6703 43.5944 11.3152C43.5944 9.85057 43.0722 8.59676 42.0277 7.55376C40.9833 6.51076 39.7277 5.98927 38.2611 5.98927Z" fill="#C0B7EE"/>
</svg>
