<?xml version="1.0" encoding="utf-8"?>
<!-- Generator: Adobe Illustrator 27.5.0, SVG Export Plug-In . SVG Version: 6.00 Build 0)  -->
<svg version="1.1" id="Layer_1" xmlns="http://www.w3.org/2000/svg" xmlns:xlink="http://www.w3.org/1999/xlink" x="0px" y="0px"
	 viewBox="0 0 396 36" style="enable-background:new 0 0 396 36;" xml:space="preserve">
<style type="text/css">
	.st0{fill:#222121;}
	.st1{fill:#E9FD88;}
	.st2{fill:#005BAA;}
</style>
<path class="st0" d="M28.4,35.2h-9.6c-0.7-0.2-1.3-1.8-1.3-1.9c-0.2-1-0.3-2.3-0.3-3.4l0-2.4c0-2.2-0.4-4.3-1.2-5.1
	c-0.7-0.7-2.1-1.1-4.1-1.1H9v13.9H0V0.4h13.8c1.1,0,2.3,0.1,3.4,0.3c1.8,0.4,3.5,1.2,5.1,2.7c1.6,1.6,2.5,3.8,2.9,6.1
	c0.1,0.6,0.1,0.5,0.1,1.1c0,3-0.5,5.5-2.6,6.8c-0.1,0,1.5,0.6,2.4,2.3c0.6,1.2,0.8,3.3,0.8,5c0,1,0.1,1.8,0.2,2.8
	C26.5,30,27,34.2,28.4,35.2z M16.8,11.3c0-1.1-0.4-2.2-1.3-2.9c-0.9-0.9-2.6-1.2-4.7-1.2H9v8.1h1.8c0.7,0,2.3-0.2,2.3-0.2
	c0.9-0.2,1.7-0.2,2.3-0.8C16.3,13.5,16.8,12.7,16.8,11.3z"/>
<path class="st0" d="M56.8,24.5H39.3c0,1.3,0.5,2.9,1.5,3.9c0.5,0.5,1.6,1.2,3.5,1.2c0.2,0,1.7-0.1,2.7-0.6c0.5-0.3,1.1-0.8,1.5-1.6
	h8c-0.4,1.3-1.1,3.1-2.8,4.8c-1.7,1.7-4.5,3.2-9.6,3.2c-3.1,0-6.8-0.7-9.7-3.6c-1.5-1.5-3.5-4.4-3.5-8.9c0-3.9,1.5-7.1,3.5-9.1
	c1.9-1.9,5-3.4,9.6-3.4c2.7,0,6.2,0.6,9,3.2c3.3,3.1,3.7,7.2,3.7,9.9V24.5z M49.1,19.7c-0.2-0.9-0.7-1.9-1.4-2.5
	c-1.1-1.1-2.6-1.3-3.5-1.3c-1.4,0-2.5,0.4-3.4,1.3c-0.6,0.6-1.1,1.5-1.3,2.5H49.1z"/>
<path class="st0" d="M80.1,33.9c-2.5,1.7-5.2,1.7-7.4,1.7c-4.5,0-7.5-1.9-9.2-3.5c-2.2-2.1-3.6-5.3-3.6-8.7c0-3.4,1.4-6.7,3.8-9
	c2.2-2.1,5.4-3.5,9.4-3.5c1.5,0,4.2,0.5,5.9,1.7L77,18.2c-0.8-0.4-1.1-0.7-2.9-0.7c-2,0-3.6,0.8-4.4,1.6c-1.1,1.1-1.6,2.7-1.6,4
	c0,1.3,0.5,2.8,1.5,3.9c0.8,0.8,2.5,1.8,4.6,1.8c1.2,0,2-0.1,3.6-1L80.1,33.9z"/>
<path class="st0" d="M110.6,23.1c0,3.1-1,6.1-3.6,8.6c-3.1,3-6.7,3.9-10.4,3.9c-3.4,0-7.2-0.7-10.4-3.9c-2.6-2.5-3.6-5.5-3.6-8.6
	c0-4.2,1.9-6.9,3.6-8.6c1.9-1.9,5.3-3.9,10.4-3.9c5.2,0,8.5,2,10.4,3.9C108.7,16.2,110.6,18.9,110.6,23.1z M102.6,23.1
	c0-1.4-0.6-3.1-1.8-4.3c-1.1-1-2.7-1.7-4.2-1.7c-1.5,0-3.2,0.7-4.2,1.7c-1.2,1.1-1.8,2.8-1.8,4.3c0,1.6,0.8,3.1,1.8,4.2
	c1.1,1.1,2.6,1.8,4.2,1.8c1.5,0,3.1-0.6,4.2-1.8C101.9,26.2,102.6,24.6,102.6,23.1z"/>
<path class="st0" d="M141.7,11.5l-12.2,23.3h-5.7l-12.1-23.3h9.3l5.6,12.6l5.7-12.6H141.7z"/>
<path class="st0" d="M168.8,24.5h-17.5c0,1.3,0.5,2.9,1.5,3.9c0.5,0.5,1.6,1.2,3.5,1.2c0.2,0,1.7-0.1,2.7-0.6
	c0.5-0.3,1.1-0.8,1.5-1.6h8c-0.4,1.3-1.1,3.1-2.8,4.8c-1.7,1.7-4.5,3.2-9.6,3.2c-3.1,0-6.8-0.7-9.7-3.6c-1.5-1.5-3.5-4.4-3.5-8.9
	c0-3.9,1.5-7.1,3.5-9.1c1.9-1.9,5-3.4,9.6-3.4c2.7,0,6.2,0.6,9,3.2c3.3,3.1,3.7,7.2,3.7,9.9V24.5z M161.1,19.7
	c-0.2-0.9-0.7-1.9-1.4-2.5c-1.1-1.1-2.6-1.3-3.5-1.3c-1.4,0-2.5,0.4-3.4,1.3c-0.6,0.6-1.1,1.5-1.3,2.5H161.1z"/>
<path class="st0" d="M191.1,11.5l-1.1,7.3c-0.7-0.3-1.9-0.6-3.5-0.6c-1.1,0.1-2.2,0.1-3.4,1.2c-1.8,1.6-1.9,4.1-1.9,5.3v10H173V11.5
	h8.4l0.1,3.5c0.8-1.5,1.9-2.3,3.1-3c1.3-0.7,2.5-0.9,4.1-0.9C188.9,11.1,190,11.1,191.1,11.5z"/>
<path class="st0" d="M240.6,0.4v20c0,3.7-0.2,7.5-3.9,11.3c-2.9,3-6.6,4.3-11.5,4.3c-5.5,0-9.4-1.9-11.5-4.2
	c-3-3.3-3.4-7.7-3.4-11.4v-20h9V21c0,1.5,0.1,3.7,1.8,5.4c1,1,2.7,1.7,4.3,1.7c1.6,0,3.2-0.6,4.2-1.5c2.1-1.8,2-4.4,2-6.3V0.4H240.6
	z"/>
<path class="st0" d="M260.8,22.2l10.8,12.6h-10.3l-5.8-7.5l-1.6,1.6v5.9h-8.4V0h8.4v19.9l7.9-8.4h10L260.8,22.2z"/>
<path class="st0" d="M293,11.5l-1.1,7.3c-0.7-0.3-1.9-0.6-3.5-0.6c-1.1,0.1-2.2,0.1-3.4,1.2c-1.8,1.6-1.9,4.1-1.9,5.3v10h-8.4V11.5
	h8.4l0.1,3.5c0.8-1.5,1.9-2.3,3.1-3c1.3-0.7,2.5-0.9,4.1-0.9C290.8,11.1,291.9,11.1,293,11.5z"/>
<path class="st0" d="M322.7,11.5v23.3h-8.4l-0.4-2c-1.8,2.1-4.6,2.8-6.8,2.8c-2.5,0-5.6-0.7-8.4-3.7c-2.2-2.4-3.3-5.1-3.3-8.6
	c0-4.4,1.7-7.5,3.6-9.3c2-2,5.1-3.3,8.4-3.3c3.8,0,5.8,1.8,6.7,2.7l0.3-1.9L322.7,11.5L322.7,11.5z M314.8,23.1
	c0-1.2-0.3-2.8-1.7-4.1c-0.8-0.8-2.1-1.6-4.1-1.6c-1.1,0-2.6,0.4-3.9,1.6c-1.2,1.2-1.8,2.8-1.8,4.1c0,1.5,0.6,3,1.7,4.1
	c1,0.9,2.5,1.7,4.1,1.7c1.5,0,2.9-0.6,4.1-1.7C313.9,26.4,314.8,25.1,314.8,23.1z"/>
<path class="st0" d="M327.9,9.4V4.6h8.4v4.8H327.9z M327.9,34.8V11.5h8.4v23.3H327.9z"/>
<path class="st0" d="M366.3,20v14.8h-8.4V23c0-1.4,0.1-3.4-1-4.5c-0.8-0.8-1.8-1-2.7-1c-1.3,0-2.4,0.5-3.1,1.1
	c-0.8,0.8-1.4,2.3-1.4,3.7v12.5h-8.4V11.5h8.4l0.2,2.6c2-2.6,5.1-3.1,7.2-3.1c2.4,0,5,0.6,6.9,2.5C366,15.4,366.3,17.4,366.3,20z"/>
<path class="st0" d="M396,24.5h-17.5c0,1.3,0.5,2.9,1.5,3.9c0.5,0.5,1.6,1.2,3.5,1.2c0.2,0,1.7-0.1,2.7-0.6c0.5-0.3,1.1-0.8,1.5-1.6
	h8c-0.4,1.3-1.1,3.1-2.8,4.8c-1.7,1.7-4.5,3.2-9.6,3.2c-3.1,0-6.8-0.7-9.7-3.6c-1.5-1.5-3.5-4.4-3.5-8.9c0-3.9,1.5-7.1,3.5-9.1
	c1.9-1.9,5-3.4,9.6-3.4c2.7,0,6.2,0.6,9,3.2c3.3,3.1,3.7,7.2,3.7,9.9V24.5z M388.3,19.7c-0.2-0.9-0.7-1.9-1.4-2.5
	c-1.1-1.1-2.6-1.3-3.5-1.3c-1.4,0-2.5,0.4-3.4,1.3c-0.6,0.6-1.1,1.5-1.3,2.5H388.3z"/>
<path class="st1" d="M240.6,0.4h-9v4.8h9V0.4z"/>
<path class="st2" d="M9,30.4H0v4.8h9V30.4z"/>
</svg>
