<svg xmlns="http://www.w3.org/2000/svg" width="176" height="42" viewBox="0 0 176 42" fill="none">
  <path d="M75.1651 1.19922L57.4396 18.104V1.28591H48.4082V40.1126H57.4396V29.3738L63.8813 23.3488L75.5351 40.1126H87.3848L71.0085 16.7061L86.5904 1.19922H75.1651Z" fill="#222121"/>
  <path d="M121.391 1.19922L103.654 18.104V1.28591H94.623V40.1126H103.654V29.3738L110.096 23.3488L121.75 40.1126H133.6L117.223 16.7061L132.805 1.19922H121.391Z" fill="#222121"/>
  <path d="M40.432 11.4616C39.8171 8.96216 38.5265 6.67822 36.7004 4.85765C34.8742 3.03709 32.5821 1.74945 30.073 1.1345C23.979 -0.382725 17.6037 -0.382725 11.5096 1.1345C9.00054 1.74945 6.7085 3.03709 4.88231 4.85765C3.05613 6.67822 1.76557 8.96216 1.15072 11.4616C-0.383572 17.5255 -0.383572 23.8737 1.15072 29.9376C1.76646 32.4383 3.05865 34.7232 4.88687 36.5439C6.7151 38.3646 9.00942 39.6514 11.5205 40.2646C17.6145 41.7819 23.9899 41.7819 30.0839 40.2646C32.593 39.6497 34.8851 38.362 36.7112 36.5415C38.5374 34.7209 39.828 32.437 40.4428 29.9376C41.9736 23.8728 41.9698 17.5246 40.432 11.4616ZM31.6508 27.7703C31.4239 28.6766 30.9537 29.5044 30.2904 30.1649C29.6272 30.8254 28.796 31.2938 27.8859 31.5197C23.243 32.6826 18.3832 32.6826 13.7403 31.5197C12.8302 31.2938 11.999 30.8254 11.3358 30.1649C10.6725 29.5044 10.2023 28.6766 9.9754 27.7703C8.80039 23.1291 8.80039 18.27 9.9754 13.6288C10.1987 12.7278 10.6624 11.9037 11.3175 11.2437C11.9726 10.5836 12.7947 10.1123 13.6968 9.87945C18.3397 8.71658 23.1995 8.71658 27.8424 9.87945C28.7525 10.1054 29.5837 10.5737 30.2469 11.2342C30.9102 11.8947 31.3804 12.7225 31.6073 13.6288C32.7966 18.2665 32.8115 23.1255 31.6508 27.7703Z" fill="#222121"/>
  <path d="M174.85 11.4616C174.235 8.96216 172.945 6.67822 171.118 4.85765C169.292 3.03709 167 1.74945 164.491 1.1345C158.397 -0.382725 152.022 -0.382725 145.928 1.1345C143.419 1.74945 141.126 3.03709 139.3 4.85765C137.474 6.67822 136.184 8.96216 135.569 11.4616C134.034 17.5255 134.034 23.8737 135.569 29.9376C136.184 32.437 137.474 34.7209 139.3 36.5415C141.126 38.362 143.419 39.6497 145.928 40.2646C152.022 41.7819 158.397 41.7819 164.491 40.2646C167 39.6497 169.292 38.362 171.118 36.5415C172.945 34.7209 174.235 32.437 174.85 29.9376C176.384 23.8737 176.384 17.5255 174.85 11.4616ZM166.036 27.7703C165.809 28.6766 165.339 29.5044 164.676 30.1649C164.013 30.8254 163.181 31.2938 162.271 31.5197C157.628 32.6826 152.769 32.6826 148.126 31.5197C147.216 31.2938 146.384 30.8254 145.721 30.1649C145.058 29.5044 144.588 28.6766 144.361 27.7703C143.186 23.1291 143.186 18.27 144.361 13.6288C144.588 12.7225 145.058 11.8947 145.721 11.2342C146.384 10.5737 147.216 10.1054 148.126 9.87945C152.769 8.71658 157.628 8.71658 162.271 9.87945C163.181 10.1054 164.013 10.5737 164.676 11.2342C165.339 11.8947 165.809 12.7225 166.036 13.6288C167.211 18.27 167.211 23.1291 166.036 27.7703Z" fill="#222121"/>
</svg>
