<svg width="197" height="43" viewBox="0 0 197 43" fill="none" xmlns="http://www.w3.org/2000/svg">
  <g clip-path="url(#clip0_3205_18052)">
  <path d="M4.31988 26.5728C3.33988 26.3848 2.56488 26.1869 1.99988 25.9841L0.879883 18.8465H1.08488C1.69488 21.1465 2.69488 22.9273 4.07988 24.1886C5.46988 25.4499 7.18988 26.0831 9.24488 26.0831C10.7549 26.0831 11.9199 25.7418 12.7349 25.0592C13.5499 24.3766 13.9549 23.4466 13.9549 22.2595C13.9549 21.008 13.4499 19.905 12.4499 18.9404C11.4449 17.9808 9.72488 17.0064 7.28488 16.027C4.66488 14.9784 2.79988 13.9 1.67988 12.7921C0.564883 11.6841 0.00488281 10.4326 0.00488281 9.02288C0.00488281 7.75166 0.394883 6.57936 1.17488 5.50598C1.95488 4.43261 3.04988 3.58183 4.45988 2.94374C5.86988 2.30565 7.48988 1.98908 9.31988 1.98908C11.1499 1.98908 12.8299 2.2463 14.4999 2.76072L15.1049 0.55957H15.2749V8.19683H15.1049C14.7449 6.38645 13.9999 4.97672 12.8699 3.95776C11.7399 2.94374 10.2749 2.43426 8.46988 2.43426C6.79988 2.43426 5.47488 2.82008 4.48988 3.59172C3.50988 4.36336 3.01488 5.40706 3.01488 6.7228C3.01488 8.03855 3.50988 9.08719 4.50488 10.0567C5.49988 11.0262 7.13488 11.9709 9.41488 12.886C11.8099 13.8259 13.5499 14.8448 14.6499 15.9528C15.7449 17.0608 16.2949 18.3617 16.2949 19.8555C16.2949 21.107 15.9499 22.2644 15.2599 23.323C14.5699 24.3864 13.5549 25.2372 12.2099 25.8852C10.8649 26.5332 9.26988 26.8547 7.41988 26.8547C6.33488 26.8547 5.30488 26.7607 4.31988 26.5678V26.5728Z" fill="white"/>
  <path d="M20.1848 18.5842V3.33936L18.0498 2.6716V2.50342H26.0748V2.6716L23.7698 3.33936V18.1143C23.7698 20.1028 24.3798 21.5966 25.5998 22.6056C26.8198 23.6098 28.7498 24.1143 31.3898 24.1143C34.0298 24.1143 36.0498 23.6296 37.1798 22.6551C38.3098 21.6856 38.8748 20.1374 38.8748 18.0154V13.3262C38.8748 10.6699 38.7048 8.62213 38.3648 7.19262C38.0248 5.7631 37.5348 4.74909 36.8898 4.14563C36.2448 3.54216 35.3498 3.09699 34.1998 2.80515L33.6898 2.6716V2.50342H41.4448V2.6716L39.2798 3.33936V18.0451C39.2798 20.9931 38.4848 23.1992 36.8898 24.6634C35.2998 26.1275 32.8648 26.8596 29.5898 26.8596C23.3148 26.8596 20.1748 24.0995 20.1748 18.5842H20.1848Z" fill="white"/>
  <path d="M42.7051 26.1868L45.0401 25.5191V3.33936L42.7051 2.6716V2.50342H53.1351C55.6651 2.50342 57.5601 2.9486 58.8251 3.8439C60.0901 4.7392 60.7201 5.92139 60.7201 7.39542C60.7201 8.71117 60.2751 9.79443 59.3801 10.6452C58.4901 11.496 57.3851 12.0846 56.0801 12.421V12.4902C57.9101 12.7573 59.4501 13.4795 60.7051 14.6518C61.9601 15.8241 62.5851 17.3921 62.5851 19.3608C62.5851 20.7211 62.2501 21.928 61.5851 22.9816C60.9201 24.0302 59.9301 24.8563 58.6201 25.4597C57.3101 26.0632 55.7301 26.3649 53.8801 26.3649H42.7051V26.1967V26.1868ZM52.6951 13.2569C54.0951 13.2569 55.2201 12.8068 56.0651 11.9016C56.9101 10.9964 57.3351 9.67572 57.3351 7.92963C57.3351 6.18355 56.9101 4.93705 56.0651 4.111C55.2201 3.28495 54.0701 2.86945 52.6251 2.86945H48.5951V13.2569H52.6951ZM53.0701 25.989C54.8751 25.989 56.3051 25.4597 57.3551 24.3962C58.4051 23.3377 58.9301 21.8241 58.9301 19.8554C58.9301 17.8868 58.3751 16.3039 57.2701 15.2305C56.1651 14.1572 54.6751 13.623 52.8001 13.623H48.6001V25.984H53.0701V25.989Z" fill="white"/>
  <path d="M68.5095 3.80933L67.4245 13.4598C67.1295 16.205 66.9845 18.2628 66.9845 19.623C66.9845 21.2306 67.1295 22.4672 67.4245 23.3229C67.7195 24.1836 68.1445 24.8069 68.7095 25.1976C69.2745 25.5884 70.0645 25.8852 71.0795 26.088L71.6545 26.1869V26.3551H63.3545V26.1869L65.5195 25.5191L68.1295 3.47298L65.5895 2.66671V2.49854H71.6845L79.9145 21.7945L88.1895 2.49854H93.6395V2.66671L91.1695 3.33448L93.6745 25.5142L95.8395 26.182V26.3501H87.5445V26.182L90.0845 25.5142L87.7495 4.50678L78.5695 27.2207H78.4995L68.5095 3.80933Z" fill="white"/>
  <path d="M95.7744 26.1868L97.4694 25.519L107.324 1.8999H107.394L117.924 25.519L119.584 26.1868V26.355H111.594V26.1868L114.034 25.519L110.139 16.6402H101.674C100.544 19.524 99.9794 21.6559 99.9794 23.0409C99.9794 23.9807 100.219 24.6682 100.709 25.1035C101.194 25.5388 101.969 25.8702 103.029 26.0928L103.604 26.1917V26.3599H95.7794V26.1917L95.7744 26.1868ZM109.964 16.2346L105.764 6.61878L102.244 15.1959L101.839 16.2346H109.969H109.964Z" fill="white"/>
  <path d="M137.31 26.1522C136.915 25.8851 136.525 25.4449 136.14 24.8266C135.755 24.2132 135.27 23.313 134.685 22.1308L130.89 14.2561H125.64V25.5141L128.01 26.1819V26.3501H119.71V26.1819L122.05 25.5141V3.33936L119.71 2.6716V2.50342H129.365C132.32 2.50342 134.51 2.97333 135.935 3.9082C137.36 4.84307 138.07 6.10935 138.07 7.69221C138.07 9.05742 137.59 10.1704 136.63 11.0409C135.67 11.9115 134.42 12.5249 132.885 12.8859V12.9206L138.675 22.2693C139.375 23.407 139.975 24.1687 140.47 24.5496C140.965 24.9305 141.51 25.1184 142.095 25.1184C142.525 25.1184 143.02 25.0195 143.585 24.8167V25.0492L142.095 25.618C141.235 25.9544 140.57 26.1918 140.095 26.3402C139.62 26.4886 139.145 26.5578 138.675 26.5578C138.155 26.5578 137.7 26.4243 137.305 26.1572L137.31 26.1522ZM129.265 13.8554C130.8 13.8554 132.06 13.3509 133.04 12.3468C134.02 11.3427 134.515 10.0121 134.515 8.35997C134.515 6.70787 134.025 5.35255 133.04 4.35832C132.06 3.36409 130.79 2.86945 129.23 2.86945H125.64V13.8604H129.265V13.8554Z" fill="white"/>
  <path d="M143.425 26.1868L145.76 25.5191V3.33936L143.425 2.6716V2.50342H151.69V2.6716L149.355 3.33936V25.5191L151.69 26.1868V26.355H143.425V26.1868Z" fill="white"/>
  <path d="M155.715 3.8737L155.75 11.4467C155.775 15.29 156.01 18.2084 156.46 20.2068C156.91 22.2051 157.56 23.6099 158.41 24.4112C159.255 25.2175 160.425 25.7764 161.915 26.088L162.39 26.187V26.3552H152.975V26.187L155.315 25.5192V3.6709L152.975 2.66678V2.4986H159.205L174.615 21.3593V14.3898C174.615 11.4615 174.42 9.18615 174.025 7.55383C173.63 5.92152 173.08 4.769 172.38 4.0864C171.68 3.40379 170.765 2.96356 169.635 2.76076L169.095 2.66183V2.49365H177.36V2.66183L175.025 3.3296V27.0922H174.89L155.715 3.8737Z" fill="white"/>
  <path d="M178.645 26.1869L180.985 25.5192V3.33945L178.645 2.67169V2.50351H193.345L193.72 0.55957H193.89L194.84 7.92973H194.67L194.5 7.36089C194.05 6.19848 193.545 5.29823 192.995 4.66509C192.445 4.03195 191.665 3.57194 190.66 3.28999C189.655 3.01299 188.285 2.86955 186.545 2.86955H184.545V13.4549H186.915C188.27 13.4351 189.285 13.1235 189.96 12.5348C190.64 11.9413 191.1 11.0113 191.35 9.73517H191.52V18.0451H191.35C191.1 16.5958 190.64 15.5324 189.96 14.8646C189.285 14.1968 188.27 13.8506 186.915 13.8259H184.545V25.9891H186.645C188.745 25.9693 190.43 25.7566 191.705 25.351C192.98 24.9454 193.98 24.3518 194.7 23.5604C195.425 22.769 196.03 21.6907 196.53 20.3254L196.835 19.4895H197.005L195.715 26.3601H178.645V26.1919V26.1869Z" fill="white"/>
  <path d="M4.26512 37.0637L3.73012 37.3852C3.61512 37.2319 3.45012 37.1082 3.23012 37.0044C3.01012 36.9054 2.77512 36.856 2.52012 36.856C1.98512 36.856 1.55012 37.0093 1.21512 37.311C0.880117 37.6128 0.715117 37.9986 0.715117 38.4636C0.715117 38.9285 0.880117 39.3044 1.21012 39.6062C1.54012 39.9079 1.97012 40.0612 2.51012 40.0612C3.05012 40.0612 3.48012 39.8881 3.78512 39.5419L4.30012 39.8634C3.85512 40.3234 3.26012 40.5509 2.51012 40.5509C1.76012 40.5509 1.15012 40.3531 0.690117 39.9574C0.225117 39.5617 -0.00488281 39.0621 -0.00488281 38.4586C-0.00488281 37.8551 0.225117 37.3506 0.690117 36.9549C1.15012 36.5592 1.76012 36.3613 2.51012 36.3613C2.84512 36.3613 3.17012 36.4207 3.49012 36.5394C3.81012 36.6581 4.06512 36.8263 4.26012 37.0489L4.26512 37.0637Z" fill="white"/>
  <path d="M14.3798 37.3504C14.3798 37.0091 14.3648 36.7173 14.3398 36.4749H14.9948C15.0198 36.7569 15.0348 36.9844 15.0348 37.1575H15.0548C15.1898 36.925 15.3898 36.7371 15.6648 36.5936C15.9348 36.4502 16.2348 36.376 16.5648 36.376C16.7448 36.376 16.8948 36.3908 17.0148 36.4205L16.9248 36.9646C16.8198 36.93 16.6548 36.9151 16.4448 36.9151C16.0498 36.9151 15.7198 37.0437 15.4598 37.296C15.1998 37.5483 15.0698 37.9242 15.0698 38.4238V40.4667H14.3848V37.3603L14.3798 37.3504Z" fill="white"/>
  <path d="M31.1151 38.3496C31.1151 38.4634 31.1151 38.5524 31.1051 38.6216H27.2051C27.2201 39.0223 27.3901 39.3636 27.7201 39.6456C28.0501 39.9275 28.4501 40.066 28.9251 40.066C29.2551 40.066 29.5501 40.0017 29.8201 39.8681C30.0901 39.7346 30.2951 39.5714 30.4351 39.3784L30.9501 39.7198C30.4251 40.2787 29.7551 40.5606 28.9301 40.5606C28.2351 40.5606 27.6501 40.3628 27.1901 39.9671C26.7251 39.5714 26.4951 39.0718 26.4951 38.4683C26.4951 37.8648 26.7251 37.3752 27.1801 36.9745C27.6351 36.5738 28.2001 36.376 28.8701 36.376C29.5801 36.376 30.1351 36.5639 30.5301 36.9349C30.9251 37.3059 31.1251 37.7808 31.1251 38.3496H31.1151ZM27.2151 38.1616H30.4251C30.4051 37.7758 30.2601 37.4642 29.9851 37.2218C29.7151 36.9794 29.3401 36.8607 28.8651 36.8607C28.4201 36.8607 28.0451 36.9893 27.7351 37.2465C27.4251 37.5038 27.2501 37.8104 27.2151 38.1616Z" fill="white"/>
  <path d="M44.5055 38.0186V37.89C44.5055 37.2025 44.0855 36.8612 43.2505 36.8612C42.6855 36.8612 42.2205 37.0194 41.8505 37.3311L41.4705 36.9502C41.9205 36.5693 42.5355 36.3813 43.3205 36.3813C43.8555 36.3813 44.2955 36.505 44.6355 36.7573C44.9755 37.0046 45.1505 37.3657 45.1505 37.8306V39.5718C45.1505 39.9279 45.1755 40.2247 45.2305 40.4671H44.6155C44.5705 40.2396 44.5455 40.0269 44.5455 39.8191H44.5255C44.1155 40.3187 43.5455 40.566 42.8155 40.566C42.3955 40.566 42.0155 40.4671 41.6855 40.2643C41.3555 40.0615 41.1855 39.7597 41.1855 39.3591C41.1855 39.1612 41.2255 38.9881 41.3055 38.8348C41.3855 38.6864 41.5055 38.5627 41.6655 38.4638C41.8255 38.3649 42.0005 38.2907 42.1905 38.2313C42.3805 38.1719 42.6105 38.1274 42.8855 38.0928C43.1605 38.0631 43.4155 38.0433 43.6555 38.0334C43.8955 38.0236 44.1755 38.0186 44.5055 38.0186ZM44.5055 38.4687H44.3055C43.9855 38.4687 43.6955 38.4786 43.4455 38.4984C43.1955 38.5182 42.9405 38.5578 42.6905 38.6122C42.4405 38.6666 42.2405 38.7556 42.1005 38.8743C41.9605 38.9931 41.8905 39.1414 41.8905 39.3245C41.8905 39.5866 41.9955 39.7746 42.2105 39.8982C42.4255 40.0219 42.6855 40.0813 42.9955 40.0813C43.4605 40.0813 43.8255 39.9527 44.0955 39.7004C44.3655 39.4481 44.5005 39.1316 44.5005 38.7655V38.4687H44.5055Z" fill="white"/>
  <path d="M57.94 36.475V36.9597H56.615V39.2796C56.615 39.5566 56.675 39.7495 56.795 39.8534C56.915 39.9572 57.09 40.0116 57.32 40.0116C57.515 40.0116 57.71 39.9671 57.915 39.883L57.945 40.3826C57.695 40.4618 57.43 40.5013 57.14 40.5013C56.82 40.5013 56.535 40.4222 56.295 40.2639C56.055 40.1056 55.935 39.8286 55.935 39.4379V36.9548H54.96V36.47H55.935V35.3472H56.62V36.47H57.945L57.94 36.475Z" fill="white"/>
  <path d="M68.7047 34.6548C68.7997 34.734 68.8496 34.8329 68.8496 34.9417C68.8496 35.0506 68.7997 35.1495 68.7047 35.2286C68.6097 35.3078 68.4947 35.3473 68.3697 35.3473C68.2447 35.3473 68.1297 35.3078 68.0347 35.2286C67.9397 35.1495 67.8896 35.0506 67.8896 34.9417C67.8896 34.8329 67.9397 34.734 68.0347 34.6548C68.1297 34.5757 68.2447 34.5361 68.3697 34.5361C68.4947 34.5361 68.6097 34.5757 68.7047 34.6548ZM68.7047 36.4751V40.457H68.0196V36.4751H68.7047Z" fill="white"/>
  <path d="M83.3848 36.4751L81.4748 40.457H80.7198L78.7998 36.4751H79.5648L81.0948 39.8436H81.1148L82.6548 36.4751H83.3898H83.3848Z" fill="white"/>
  <path d="M97.745 38.3496C97.745 38.4634 97.745 38.5524 97.735 38.6216H93.835C93.85 39.0223 94.02 39.3636 94.35 39.6456C94.68 39.9275 95.08 40.066 95.555 40.066C95.885 40.066 96.18 40.0017 96.45 39.8681C96.72 39.7346 96.925 39.5714 97.065 39.3784L97.58 39.7198C97.055 40.2787 96.385 40.5606 95.56 40.5606C94.865 40.5606 94.28 40.3628 93.82 39.9671C93.355 39.5714 93.125 39.0718 93.125 38.4683C93.125 37.8648 93.355 37.3752 93.81 36.9745C94.265 36.5738 94.83 36.376 95.5 36.376C96.21 36.376 96.765 36.5639 97.16 36.9349C97.555 37.3059 97.755 37.7808 97.755 38.3496H97.745ZM93.845 38.1616H97.055C97.035 37.7758 96.89 37.4642 96.615 37.2218C96.345 36.9794 95.97 36.8607 95.495 36.8607C95.05 36.8607 94.675 36.9893 94.365 37.2465C94.055 37.5038 93.88 37.8104 93.845 38.1616Z" fill="white"/>
  <path d="M122.72 38.0186V37.89C122.72 37.2025 122.3 36.8612 121.465 36.8612C120.9 36.8612 120.435 37.0194 120.065 37.3311L119.685 36.9502C120.135 36.5693 120.75 36.3813 121.535 36.3813C122.07 36.3813 122.51 36.505 122.855 36.7573C123.195 37.0046 123.365 37.3657 123.365 37.8306V39.5718C123.365 39.9279 123.39 40.2247 123.445 40.4671H122.83C122.785 40.2396 122.76 40.0269 122.76 39.8191H122.74C122.33 40.3187 121.76 40.566 121.03 40.566C120.605 40.566 120.23 40.4671 119.9 40.2643C119.57 40.0615 119.4 39.7597 119.4 39.3591C119.4 39.1612 119.44 38.9881 119.52 38.8348C119.6 38.6864 119.72 38.5627 119.88 38.4638C120.04 38.3649 120.215 38.2907 120.405 38.2313C120.59 38.1719 120.825 38.1274 121.1 38.0928C121.375 38.0631 121.63 38.0433 121.87 38.0334C122.105 38.0236 122.39 38.0186 122.72 38.0186ZM122.72 38.4687H122.52C122.2 38.4687 121.91 38.4786 121.66 38.4984C121.41 38.5182 121.16 38.5578 120.905 38.6122C120.65 38.6666 120.46 38.7556 120.315 38.8743C120.17 38.9931 120.105 39.1414 120.105 39.3245C120.105 39.5866 120.215 39.7746 120.425 39.8982C120.64 40.0219 120.9 40.0813 121.21 40.0813C121.67 40.0813 122.04 39.9527 122.31 39.7004C122.58 39.4481 122.715 39.1316 122.715 38.7655V38.4687H122.72Z" fill="white"/>
  <path d="M133.89 41.6983L134.385 41.2581C134.58 41.4658 134.84 41.6439 135.17 41.7824C135.5 41.9209 135.84 41.9902 136.185 41.9902C136.82 41.9902 137.29 41.8467 137.585 41.5549C137.88 41.268 138.03 40.8871 138.03 40.4221V39.6752H138.01C137.835 39.9127 137.585 40.1056 137.25 40.2441C136.92 40.3875 136.58 40.4568 136.23 40.4568C135.505 40.4568 134.92 40.2688 134.47 39.8879C134.02 39.5071 133.795 39.0223 133.795 38.4337C133.795 37.8451 134.02 37.3653 134.475 36.9695C134.925 36.5738 135.51 36.376 136.23 36.376C136.585 36.376 136.925 36.4452 137.25 36.5837C137.575 36.7222 137.83 36.9151 138.01 37.1674H138.03V36.4799H138.715V40.4271C138.715 40.6695 138.675 40.9019 138.6 41.1245C138.52 41.3471 138.395 41.5648 138.22 41.7824C138.045 42 137.78 42.1732 137.43 42.3067C137.08 42.4353 136.655 42.4996 136.16 42.4996C135.73 42.4996 135.315 42.4304 134.92 42.2869C134.52 42.1435 134.18 41.9506 133.9 41.6983H133.89ZM134.99 37.3108C134.67 37.6126 134.51 37.9786 134.51 38.4139C134.51 38.8492 134.67 39.2202 134.99 39.5169C135.31 39.8137 135.74 39.9621 136.29 39.9621C136.84 39.9621 137.255 39.8187 137.59 39.5318C137.93 39.2449 138.1 38.8739 138.1 38.4139C138.1 37.9885 137.925 37.6225 137.58 37.3158C137.235 37.0091 136.805 36.8558 136.29 36.8558C135.74 36.8558 135.305 37.0042 134.99 37.3059V37.3108Z" fill="white"/>
  <path d="M153.785 38.3496C153.785 38.4634 153.785 38.5524 153.775 38.6216H149.875C149.885 39.0223 150.06 39.3636 150.385 39.6456C150.71 39.9275 151.115 40.066 151.59 40.066C151.92 40.066 152.215 40.0017 152.485 39.8681C152.755 39.7346 152.96 39.5714 153.1 39.3784L153.615 39.7198C153.09 40.2787 152.42 40.5606 151.595 40.5606C150.9 40.5606 150.315 40.3628 149.855 39.9671C149.395 39.5714 149.16 39.0718 149.16 38.4683C149.16 37.8648 149.39 37.3752 149.845 36.9745C150.3 36.5738 150.865 36.376 151.535 36.376C152.245 36.376 152.8 36.5639 153.195 36.9349C153.59 37.3059 153.79 37.7808 153.79 38.3496H153.785ZM149.885 38.1616H153.095C153.075 37.7758 152.93 37.4642 152.655 37.2218C152.385 36.9794 152.01 36.8607 151.535 36.8607C151.09 36.8607 150.715 36.9893 150.405 37.2465C150.095 37.5038 149.92 37.8104 149.89 38.1616H149.885Z" fill="white"/>
  <path d="M164.226 36.475H164.881C164.906 36.7569 164.921 36.9845 164.921 37.1576H164.941C165.066 36.93 165.286 36.7421 165.591 36.5937C165.896 36.4453 166.216 36.3711 166.551 36.3711C167.136 36.3711 167.576 36.5195 167.886 36.8113C168.191 37.1081 168.341 37.5038 168.341 38.0084V40.4519H167.656V38.2507C167.656 37.8006 167.561 37.4593 167.371 37.2169C167.181 36.9746 166.851 36.8558 166.381 36.8558C165.986 36.8558 165.651 36.9894 165.371 37.2614C165.091 37.5335 164.956 37.9144 164.956 38.414V40.4568H164.271V37.3505C164.271 37.0092 164.256 36.7173 164.231 36.475H164.226Z" fill="white"/>
  <path d="M183.04 37.0637L182.506 37.3852C182.391 37.2319 182.226 37.1082 182.006 37.0044C181.786 36.9054 181.551 36.856 181.296 36.856C180.761 36.856 180.325 37.0093 179.995 37.311C179.66 37.6128 179.495 37.9986 179.495 38.4636C179.495 38.9285 179.661 39.3044 179.991 39.6062C180.321 39.9079 180.751 40.0612 181.286 40.0612C181.821 40.0612 182.256 39.8881 182.566 39.5419L183.076 39.8634C182.631 40.3234 182.036 40.5509 181.286 40.5509C180.536 40.5509 179.925 40.3531 179.465 39.9574C179.005 39.5617 178.771 39.0621 178.771 38.4586C178.771 37.8551 179 37.3506 179.465 36.9549C179.93 36.5592 180.536 36.3613 181.286 36.3613C181.621 36.3613 181.951 36.4207 182.266 36.5394C182.586 36.6581 182.841 36.8263 183.036 37.0489L183.04 37.0637Z" fill="white"/>
  <path d="M193.18 36.4751L194.78 39.8337H194.8L196.26 36.4751H197.005L194.66 41.4858C194.505 41.8222 194.315 42.0744 194.09 42.2426C193.865 42.4108 193.56 42.4998 193.18 42.4998C192.97 42.4998 192.765 42.485 192.565 42.4504L192.635 41.9211C192.795 41.9656 192.965 41.9903 193.14 41.9903C193.36 41.9903 193.54 41.931 193.68 41.8172C193.815 41.6985 193.94 41.5254 194.045 41.288L194.43 40.452L192.42 36.48H193.185L193.18 36.4751Z" fill="white"/>
  </g>
  <defs>
  <clipPath id="clip0_3205_18052">
  <rect width="197" height="42" fill="white" transform="translate(0 0.5)"/>
  </clipPath>
  </defs>
  </svg>
