<svg xmlns="http://www.w3.org/2000/svg" width="159" height="55" viewBox="0 0 159 55" fill="none">
  <path d="M149.48 54.6993L152.224 51.2732C151.624 51.1886 151.124 50.9489 150.724 50.5542C150.238 50.0748 149.995 49.4263 149.995 48.6085C149.995 47.6639 150.367 46.8955 151.11 46.3033C151.767 45.7958 152.725 45.542 153.982 45.542H157.669V54.6993H155.054V51.4847H154.754L152.482 54.6993H149.48ZM155.054 49.6236V47.5722H153.918C153.518 47.5722 153.225 47.6568 153.039 47.826C152.81 48.0375 152.696 48.3054 152.696 48.6297C152.696 48.968 152.81 49.2218 153.039 49.391C153.239 49.5461 153.532 49.6236 153.918 49.6236H155.054Z" fill="#222121"/>
  <path d="M141.544 45.5414H144.16V54.6987H141.544V45.5414ZM141.737 42.771C141.437 42.4608 141.287 42.0942 141.287 41.6713C141.287 41.2483 141.437 40.8888 141.737 40.5927C142.052 40.2825 142.423 40.1274 142.852 40.1274C143.281 40.1274 143.645 40.2825 143.945 40.5927C144.26 40.8888 144.417 41.2483 144.417 41.6713C144.417 42.0942 144.26 42.4608 143.945 42.771C143.645 43.0671 143.281 43.2151 142.852 43.2151C142.423 43.2151 142.052 43.0671 141.737 42.771Z" fill="#222121"/>
  <path d="M130.613 54.6993V45.542H136.53V47.7414H133.229V54.6993H130.613Z" fill="#222121"/>
  <path d="M115.879 46.5357C116.823 45.6756 118.073 45.2456 119.631 45.2456C121.188 45.2456 122.439 45.6756 123.382 46.5357C124.425 47.4662 124.947 48.6646 124.947 50.1309C124.947 51.5831 124.425 52.7744 123.382 53.705C122.439 54.565 121.188 54.995 119.631 54.995C118.073 54.995 116.823 54.565 115.879 53.705C114.836 52.7744 114.314 51.5831 114.314 50.1309C114.314 48.6646 114.836 47.4662 115.879 46.5357ZM117.766 51.9497C118.266 52.4572 118.888 52.711 119.631 52.711C120.374 52.711 120.996 52.4572 121.496 51.9497C121.996 51.4421 122.246 50.8358 122.246 50.1309C122.246 49.4118 121.996 48.7985 121.496 48.291C120.996 47.7834 120.374 47.5296 119.631 47.5296C118.888 47.5296 118.266 47.7834 117.766 48.291C117.266 48.7985 117.015 49.4118 117.015 50.1309C117.015 50.8358 117.266 51.4421 117.766 51.9497Z" fill="#222121"/>
  <path d="M108.655 45.542V54.6993H106.04V47.7414H103.51V51.104C103.51 52.2883 103.217 53.1907 102.631 53.811C102.045 54.4596 101.209 54.7839 100.123 54.7839C99.8375 54.7839 99.5802 54.7557 99.3516 54.6993V52.4998C99.5231 52.528 99.6588 52.5421 99.7589 52.5421C100.23 52.5421 100.588 52.3941 100.831 52.098C101.045 51.8442 101.152 51.4565 101.152 50.9348V45.542H108.655Z" fill="#222121"/>
  <path d="M85.6879 46.5357C86.6311 45.6756 87.8816 45.2456 89.4393 45.2456C90.9971 45.2456 92.2476 45.6756 93.1908 46.5357C94.234 47.4662 94.7557 48.6646 94.7557 50.1309C94.7557 51.5831 94.234 52.7744 93.1908 53.705C92.2476 54.565 90.9971 54.995 89.4393 54.995C87.8816 54.995 86.6311 54.565 85.6879 53.705C84.6447 52.7744 84.123 51.5831 84.123 50.1309C84.123 48.6646 84.6447 47.4662 85.6879 46.5357ZM87.5744 51.9497C88.0745 52.4572 88.6962 52.711 89.4393 52.711C90.1825 52.711 90.8042 52.4572 91.3043 51.9497C91.8045 51.4421 92.0546 50.8358 92.0546 50.1309C92.0546 49.4118 91.8045 48.7985 91.3043 48.291C90.8042 47.7834 90.1825 47.5296 89.4393 47.5296C88.6962 47.5296 88.0745 47.7834 87.5744 48.291C87.0742 48.7985 86.8241 49.4118 86.8241 50.1309C86.8241 50.8358 87.0742 51.4421 87.5744 51.9497Z" fill="#222121"/>
  <path d="M79.5785 47.7414H77.0061V54.6993H74.3908V47.7414H71.8184V45.542H79.5785V47.7414Z" fill="#222121"/>
  <path d="M64.1804 46.726V45.5417H66.7957V54.699H64.1804V53.5146C63.4801 54.5016 62.5298 54.995 61.3293 54.995C59.9288 54.995 58.7855 54.5227 57.8994 53.5781C57.0277 52.6335 56.5918 51.4773 56.5918 50.1097C56.5918 48.728 57.0205 47.5719 57.878 46.6414C58.7355 45.7109 59.843 45.2456 61.2007 45.2456C62.5441 45.2456 63.5373 45.7391 64.1804 46.726ZM63.7088 48.2698C63.2229 47.7764 62.6084 47.5296 61.8652 47.5296C61.1221 47.5296 60.5076 47.7764 60.0217 48.2698C59.5358 48.7633 59.2928 49.3766 59.2928 50.1097C59.2928 50.8429 59.5358 51.4632 60.0217 51.9708C60.5076 52.4643 61.1221 52.711 61.8652 52.711C62.6084 52.711 63.2229 52.4643 63.7088 51.9708C64.1947 51.4632 64.4376 50.8429 64.4376 50.1097C64.4376 49.3766 64.1947 48.7633 63.7088 48.2698Z" fill="#222121"/>
  <path d="M39.5801 54.6991L41.2736 45.2881H43.2029L45.7539 50.8078L48.3048 45.2881H50.2341L51.9276 54.6991H49.3124L48.5406 49.7293L46.1397 54.8895H45.368L42.9671 49.7293L42.1954 54.6991H39.5801Z" fill="#222121"/>
  <path d="M25.8305 46.5357C26.7737 45.6756 28.0242 45.2456 29.5819 45.2456C31.1397 45.2456 32.3901 45.6756 33.3334 46.5357C34.3766 47.4662 34.8982 48.6646 34.8982 50.1309C34.8982 51.5831 34.3766 52.7744 33.3334 53.705C32.3901 54.565 31.1397 54.995 29.5819 54.995C28.0242 54.995 26.7737 54.565 25.8305 53.705C24.7873 52.7744 24.2656 51.5831 24.2656 50.1309C24.2656 48.6646 24.7873 47.4662 25.8305 46.5357ZM27.7169 51.9497C28.2171 52.4572 28.8388 52.711 29.5819 52.711C30.3251 52.711 30.9467 52.4572 31.4469 51.9497C31.9471 51.4421 32.1972 50.8358 32.1972 50.1309C32.1972 49.4118 31.9471 48.7985 31.4469 48.291C30.9467 47.7834 30.3251 47.5296 29.5819 47.5296C28.8388 47.5296 28.2171 47.7834 27.7169 48.291C27.2167 48.7985 26.9667 49.4118 26.9667 50.1309C26.9667 50.8358 27.2167 51.4421 27.7169 51.9497Z" fill="#222121"/>
  <path d="M19.721 47.7413H17.1486V54.6991H14.5333V47.7413H11.9609V45.5419H19.721V47.7413Z" fill="#222121"/>
  <path d="M7.45998 45.7956V48.3334C6.87404 47.7976 6.15949 47.5298 5.31631 47.5298C4.48742 47.5298 3.84432 47.7835 3.387 48.2911C2.92969 48.7846 2.70103 49.3908 2.70103 50.1099C2.70103 50.8571 2.95112 51.4775 3.45131 51.9709C3.96579 52.4644 4.61604 52.7111 5.40205 52.7111C6.17378 52.7111 6.85975 52.4432 7.45998 51.9075V54.4241C6.68826 54.8048 5.88795 54.9952 5.05907 54.9952C3.61566 54.9952 2.42235 54.551 1.47913 53.6628C0.493045 52.7464 0 51.5762 0 50.1522C0 48.6013 0.535918 47.3606 1.60775 46.43C2.5081 45.6405 3.62281 45.2457 4.95188 45.2457C5.85223 45.2457 6.68826 45.429 7.45998 45.7956Z" fill="#222121"/>
  <path d="M25.8222 38.8128C25.679 38.5402 25.5258 38.2774 25.3726 38.0212C25.2294 37.7682 25.1061 37.5514 25.0096 37.3905C24.7531 36.9667 24.4933 36.5265 24.2469 36.0732C23.9904 35.6232 23.7506 35.1896 23.5042 34.7658C22.9113 33.7409 22.3118 32.716 21.7223 31.701C21.1229 30.6958 20.55 29.6972 19.9871 28.7282L20.0171 28.7577C19.8839 28.5146 19.7507 28.2781 19.6075 28.0515C19.4743 27.815 19.351 27.6014 19.2345 27.4011C18.9014 26.8262 18.575 26.2711 18.2719 25.7159C17.9655 25.1608 17.6525 24.6155 17.3361 24.0603C17.2595 23.9092 17.1829 23.7778 17.1063 23.6563C17.0297 23.5446 16.963 23.4198 16.8864 23.2884C16.8098 23.1767 16.7432 23.0617 16.6766 22.9402C16.61 22.8285 16.5434 22.7036 16.4668 22.6018C17.5625 22.2339 18.535 21.774 19.3743 21.2386C20.2036 20.6933 20.9863 20.0264 21.719 19.2151C22.6049 18.2 23.2744 17.0602 23.7107 15.8021C24.1503 14.5308 24.3701 13.1479 24.3701 11.6434C24.3701 9.95821 24.1037 8.45373 23.5774 7.14634C23.0446 5.82909 22.2319 4.66295 21.1562 3.63806C18.9813 1.61456 16.0338 0.609375 12.3236 0.609375H0.513672V40.1136H6.23548V23.8599H10.7949L20.1037 40.1136H26.5782C26.4916 39.9822 26.3784 39.8049 26.2452 39.5585C26.1219 39.322 25.9787 39.069 25.8255 38.8063L25.8222 38.8128ZM11.0148 18.5055H6.23548V6.03275H11.5177C13.8357 6.03275 15.5909 6.54848 16.7899 7.57666C17.9922 8.60155 18.5917 10.0305 18.5917 11.8766C18.5917 12.8654 18.4118 13.7753 18.0488 14.6228C17.6858 15.4703 17.2195 16.1733 16.6666 16.7481C15.9706 17.2934 15.1413 17.727 14.1787 18.0358C13.2062 18.3446 12.1571 18.5055 11.0114 18.5055H11.0148Z" fill="#222121"/>
  <path d="M35.5421 0.615723H29.8203V40.12H35.5421V0.615723Z" fill="#222121"/>
  <path d="M66.2478 38.8783C65.7616 38.3593 65.2553 37.8238 64.7324 37.2523C64.2162 36.6873 63.7033 36.142 63.2171 35.6164C62.7208 35.0908 62.3212 34.6572 62.0247 34.309C61.5385 33.79 61.0622 33.2742 60.576 32.7585C60.0897 32.2329 59.6035 31.7041 59.1172 31.1686C58.6409 30.643 58.1547 30.1043 57.6684 29.5689C57.1822 29.0433 56.7159 28.5144 56.2463 27.9987C54.9574 26.6256 53.6918 25.2427 52.4329 23.8696C51.1739 22.4965 49.935 21.1431 48.7027 19.816L66.2978 0.615723H58.7242C57.8383 1.58477 56.8824 2.62937 55.8833 3.72981C54.8708 4.83026 53.8517 5.95041 52.8026 7.07713C51.7634 8.20714 50.7243 9.33386 49.6952 10.4639C48.6561 11.5939 47.6536 12.6845 46.6911 13.7291C46.4813 13.9754 46.2614 14.2087 46.0316 14.4616C45.7918 14.7047 45.582 14.951 45.3722 15.1876V0.615723H39.6504V40.12H45.3722V24.4674L59.5069 40.12H67.4501C67.1271 39.8112 66.7241 39.3973 66.2478 38.8783Z" fill="#222121"/>
  <path d="M98.9206 5.5926C97.282 3.69392 95.3436 2.29127 93.1321 1.36821C90.9107 0.455004 88.4395 -0.00488281 85.7218 -0.00488281C82.7943 -0.00488281 80.1232 0.494423 77.7119 1.4996C75.3006 2.49821 73.219 3.92715 71.4639 5.77984C69.8253 7.66866 68.5563 9.8794 67.6504 12.3924C66.7445 14.9119 66.2949 17.6975 66.2949 20.7623C66.2949 23.8271 66.7146 26.3598 67.5539 28.7085C68.3931 31.0703 69.6621 33.2055 71.3606 35.114C74.7644 38.8654 79.3139 40.7378 84.9991 40.7378C90.6842 40.7378 95.327 38.8457 98.8373 35.0648C102.281 31.274 104.006 26.1857 104.006 19.7998C104.006 13.979 102.308 9.22899 98.9239 5.55975V5.58931L98.9206 5.5926ZM97.242 26.5963C96.6325 28.4884 95.7366 30.1046 94.5609 31.4415V31.412C93.3886 32.6635 91.9964 33.6227 90.3945 34.3092C88.7925 34.9859 86.9707 35.3243 84.9391 35.3243C83.0407 35.3243 81.3055 34.9761 79.7502 34.2797C78.1948 33.5833 76.8326 32.6142 75.6503 31.3824C74.478 30.029 73.5887 28.4293 72.9793 26.6028C72.3798 24.7764 72.0734 22.7365 72.0734 20.4798C72.0734 18.2231 72.3864 16.1141 73.0259 14.2812C73.6553 12.4482 74.5912 10.8484 75.8202 9.48521C77.0491 8.2238 78.4613 7.22848 80.0433 6.50251C81.6252 5.77984 83.3638 5.41193 85.2422 5.41193C87.2738 5.41193 89.0656 5.73056 90.611 6.37112C92.1663 7.02153 93.5185 7.97087 94.6942 9.23884C95.8865 10.5462 96.7624 12.1066 97.3253 13.933C97.8881 15.7659 98.1645 17.8551 98.1645 20.1973C98.1645 22.5394 97.8581 24.7042 97.2387 26.593L97.242 26.5963Z" fill="#222121"/>
  <path d="M144.049 0.615967H139.443L124.326 40.1202H130.504C130.801 39.2727 131.124 38.3694 131.497 37.4102C131.86 36.4608 132.219 35.4819 132.592 34.4833C132.966 33.4946 133.335 32.5157 133.718 31.5499C134.091 30.5809 134.444 29.6578 134.777 28.7742H148.606L152.822 40.1169H159L144.049 0.615967ZM136.822 23.3606C136.899 23.1438 136.945 22.9763 136.985 22.8613C137.025 22.7595 137.062 22.6544 137.092 22.5788C137.112 22.4934 137.149 22.4015 137.189 22.2963C137.225 22.1945 137.285 22.0434 137.352 21.8463C137.675 20.9988 137.981 20.1546 138.294 19.2972C138.601 18.4399 138.904 17.5759 139.23 16.6923C139.317 16.4755 139.41 16.2423 139.487 16.0057C139.573 15.7594 139.666 15.536 139.753 15.3192C140.259 13.9757 140.766 12.5927 141.258 11.1802C141.315 11.0291 141.382 10.8714 141.458 10.7006C141.535 10.5232 141.602 10.3623 141.658 10.221L146.571 23.3606H136.826H136.822Z" fill="#222121"/>
  <path d="M129.336 0.615723H102.355V6.03253H113.026V40.12H118.748V6.03253H129.336V0.615723Z" fill="#222121"/>
</svg>
