<svg xmlns="http://www.w3.org/2000/svg" width="65" height="64" viewBox="0 0 65 64" fill="none">
  <path d="M46.2611 5.66333C49.1944 5.66333 51.7055 6.70633 53.7944 8.79232C55.8833 10.8783 56.9277 13.3859 56.9277 16.3152C56.9277 16.8034 56.8944 17.4581 56.8277 18.2791C56.7611 19.1002 56.6611 20.0434 56.5277 21.1085L52.8611 47.938C52.6388 49.6245 51.8722 51.0004 50.5611 52.0656C49.25 53.1307 47.75 53.6633 46.0611 53.6633C45.0388 53.6633 44.0944 53.4414 43.2277 52.9976C42.3611 52.5538 41.6388 51.9324 41.0611 51.1335L33.9277 40.7479C33.8388 40.5704 33.6944 40.4484 33.4944 40.3818C33.2944 40.3152 33.0833 40.2819 32.8611 40.2819C32.6833 40.2819 32.3277 40.4816 31.7944 40.8811L24.8611 50.9338C24.2388 51.8214 23.4722 52.4983 22.5611 52.9643C21.65 53.4303 20.6833 53.6633 19.6611 53.6633C17.9722 53.6633 16.4833 53.1196 15.1944 52.0323C13.9055 50.9449 13.15 49.5579 12.9277 47.8714L9.32773 21.1085C9.1944 20.0434 9.0944 19.1002 9.02773 18.2791C8.96107 17.4581 8.92773 16.8034 8.92773 16.3152C8.92773 13.3859 9.97218 10.8783 12.0611 8.79232C14.15 6.70633 16.6611 5.66333 19.5944 5.66333C21.1944 5.66333 22.4722 5.87415 23.4277 6.29579C24.3833 6.71742 25.3055 7.17235 26.1944 7.66056C27.0833 8.14877 28.0277 8.60369 29.0277 9.02533C30.0277 9.44696 31.3277 9.65778 32.9277 9.65778C34.5277 9.65778 35.8277 9.44696 36.8277 9.02533C37.8277 8.60369 38.7722 8.14877 39.6611 7.66056C40.55 7.17235 41.4833 6.71742 42.4611 6.29579C43.4388 5.87415 44.7055 5.66333 46.2611 5.66333ZM46.2611 10.9893C45.2388 10.9893 44.3388 11.2001 43.5611 11.6217C42.7833 12.0434 41.9277 12.4983 40.9944 12.9865C40.0611 13.4747 38.9722 13.9296 37.7277 14.3513C36.4833 14.7729 34.8833 14.9837 32.9277 14.9837C30.9722 14.9837 29.3722 14.7729 28.1277 14.3513C26.8833 13.9296 25.7944 13.4747 24.8611 12.9865C23.9277 12.4983 23.0722 12.0434 22.2944 11.6217C21.5166 11.2001 20.6166 10.9893 19.5944 10.9893C18.1277 10.9893 16.8722 11.5108 15.8277 12.5538C14.7833 13.5968 14.2611 14.8506 14.2611 16.3152C14.2611 16.6703 14.2833 17.1807 14.3277 17.8464C14.3722 18.5122 14.4611 19.2889 14.5944 20.1765L18.2611 47.1391C18.3055 47.4941 18.4611 47.7715 18.7277 47.9712C18.9944 48.171 19.3055 48.2708 19.6611 48.2708C19.8833 48.2708 20.0833 48.2264 20.2611 48.1377C20.4388 48.0489 20.5722 47.9158 20.6611 47.7382L27.3944 37.8852C28.0166 36.9976 28.8166 36.2875 29.7944 35.7549C30.7722 35.2223 31.8166 34.956 32.9277 34.956C34.0388 34.956 35.0833 35.2223 36.0611 35.7549C37.0388 36.2875 37.8388 36.9976 38.4611 37.8852L45.3277 47.938C45.4166 48.0711 45.5277 48.171 45.6611 48.2375C45.7944 48.3041 45.95 48.3374 46.1277 48.3374C46.4833 48.3374 46.8055 48.2375 47.0944 48.0378C47.3833 47.8381 47.55 47.5607 47.5944 47.2056L51.2611 20.1765C51.3944 19.2889 51.4833 18.5122 51.5277 17.8464C51.5722 17.1807 51.5944 16.6703 51.5944 16.3152C51.5944 14.8506 51.0722 13.5968 50.0277 12.5538C48.9833 11.5108 47.7277 10.9893 46.2611 10.9893Z" fill="#C0B7EE"/>
  <path d="M46.2611 10.9893C45.2388 10.9893 44.3388 11.2001 43.5611 11.6217C42.7833 12.0434 41.9277 12.4983 40.9944 12.9865C40.0611 13.4747 38.9722 13.9296 37.7277 14.3513C36.4833 14.7729 34.8833 14.9837 32.9277 14.9837C30.9722 14.9837 29.3722 14.7729 28.1277 14.3513C26.8833 13.9296 25.7944 13.4747 24.8611 12.9865C23.9277 12.4983 23.0722 12.0434 22.2944 11.6217C21.5166 11.2001 20.6166 10.9893 19.5944 10.9893C18.1277 10.9893 16.8722 11.5108 15.8277 12.5538C14.7833 13.5968 14.2611 14.8506 14.2611 16.3152C14.2611 16.6703 14.2833 17.1807 14.3277 17.8464C14.3722 18.5122 14.4611 19.2889 14.5944 20.1765L18.2611 47.1391C18.3055 47.4941 18.4611 47.7715 18.7277 47.9712C18.9944 48.171 19.3055 48.2708 19.6611 48.2708C19.8833 48.2708 20.0833 48.2264 20.2611 48.1377C20.4388 48.0489 20.5722 47.9158 20.6611 47.7382L27.3944 37.8852C28.0166 36.9976 28.8166 36.2875 29.7944 35.7549C30.7722 35.2223 31.8166 34.956 32.9277 34.956C34.0388 34.956 35.0833 35.2223 36.0611 35.7549C37.0388 36.2875 37.8388 36.9976 38.4611 37.8852L45.3277 47.938C45.4166 48.0711 45.5277 48.171 45.6611 48.2375C45.7944 48.3041 45.95 48.3374 46.1277 48.3374C46.4833 48.3374 46.8055 48.2375 47.0944 48.0378C47.3833 47.8381 47.55 47.5607 47.5944 47.2056L51.2611 20.1765C51.3944 19.2889 51.4833 18.5122 51.5277 17.8464C51.5722 17.1807 51.5944 16.6703 51.5944 16.3152C51.5944 14.8506 51.0722 13.5968 50.0277 12.5538C48.9833 11.5108 47.7277 10.9893 46.2611 10.9893Z" fill="#C0B7EE"/>
</svg>
