<svg width="45" height="48" viewBox="0 0 45 48" fill="none" xmlns="http://www.w3.org/2000/svg">
<path d="M0.349609 47.9966V5.29658C0.349609 3.79658 0.849609 2.59658 1.94961 1.49658C2.94961 0.496582 4.14961 -0.00341797 5.64961 -0.00341797H21.6496C23.1496 -0.00341797 24.3496 0.496582 25.4496 1.59658C26.4496 2.59658 27.0496 3.89658 27.0496 5.39658V23.9966H29.7496C31.2496 23.9966 32.4496 24.4966 33.5496 25.5966C34.5496 26.5966 35.1496 27.8966 35.1496 29.3966V41.3966C35.1496 42.1966 35.4496 42.7966 35.9496 43.2966C36.4496 43.7966 37.0496 44.0966 37.8496 44.0966C38.6496 44.0966 39.2496 43.7966 39.7496 43.2966C40.2496 42.7966 40.5496 42.1966 40.5496 41.3966V22.0966C40.1496 22.2966 39.7496 22.4966 39.2496 22.4966C38.8496 22.5966 38.3496 22.5966 37.8496 22.5966C35.9496 22.5966 34.4496 21.9966 33.1496 20.6966C31.8496 19.3966 31.2496 17.7966 31.2496 15.9966C31.2496 14.5966 31.6496 13.2966 32.4496 12.1966C33.2496 11.0966 34.2496 10.2966 35.5496 9.79658L29.9496 4.19658L32.7496 1.39658L42.6496 10.9966C43.3496 11.6966 43.8496 12.3966 44.1496 13.2966C44.4496 14.1966 44.6496 15.0966 44.6496 15.9966V41.2966C44.6496 43.1966 44.0496 44.6966 42.7496 45.9966C41.4496 47.2966 39.8496 47.8966 38.0496 47.8966C36.1496 47.8966 34.6496 47.2966 33.3496 45.9966C32.0496 44.6966 31.4496 43.0966 31.4496 41.2966V27.9966H27.4496V47.9966H0.349609ZM37.6496 18.6966C38.4496 18.6966 39.0496 18.3966 39.5496 17.8966C40.0496 17.3966 40.3496 16.7966 40.3496 15.9966C40.3496 15.1966 40.0496 14.5966 39.5496 14.0966C39.0496 13.5966 38.4496 13.2966 37.6496 13.2966C36.8496 13.2966 36.2496 13.5966 35.7496 14.0966C35.2496 14.5966 34.9496 15.1966 34.9496 15.9966C34.9496 16.7966 35.2496 17.3966 35.7496 17.8966C36.2496 18.3966 36.8496 18.6966 37.6496 18.6966Z" fill="#E9FD88"/>
</svg>
