<svg width="60" height="60" viewBox="0 0 60 60" fill="none" xmlns="http://www.w3.org/2000/svg">
<path d="M8.81212 51.5575C8.49884 50.9555 8.02032 50.4775 7.39376 50.1396C6.7672 49.8012 5.99999 49.6281 5.08474 49.6281C4.13655 49.6281 3.36147 49.8342 2.7595 50.2385C2.15753 50.6422 1.62147 51.2196 1.1513 51.9617L2.4054 52.877C2.74327 52.3163 3.10573 51.8875 3.50999 51.5988C3.91376 51.3101 4.4336 51.1699 5.08474 51.1699C5.6454 51.1699 6.14065 51.2693 6.56901 51.4753C6.9895 51.6814 7.3195 51.9701 7.54228 52.3576C7.72376 52.6709 7.81425 53.0339 7.83097 53.4544H5.96704C4.86245 53.4544 3.93884 53.5532 3.19671 53.7593C2.44622 53.9653 1.8772 54.3037 1.4813 54.7734C1.0854 55.2435 0.887695 55.8622 0.887695 56.6289C0.887695 57.4537 1.15966 58.1299 1.71245 58.6493C2.26474 59.1686 3.12245 59.4327 4.27671 59.4327C5.44769 59.4327 6.3713 58.9542 7.03917 57.9976C7.35245 57.5526 7.59147 56.9919 7.75671 56.3319H7.78966V59.1853H9.28229V53.4544H9.27392C9.2572 52.7452 9.1013 52.1103 8.81212 51.5575ZM6.29704 57.2968C5.78556 57.6927 5.15114 57.8904 4.38393 57.8904C3.74065 57.8904 3.24589 57.7586 2.89966 57.5029C2.56179 57.2476 2.38819 56.9009 2.38819 56.4721C2.38819 55.8539 2.67687 55.4004 3.26261 55.1201C3.8395 54.8398 4.74688 54.6996 5.96753 54.6996H7.73163C7.67063 55.0573 7.57409 55.4081 7.44343 55.7467C7.1877 56.3816 6.80852 56.9009 6.29704 57.2968ZM16.6372 58.1216H15.5405L13.2811 49.8096H11.6651L14.2131 59.177H17.9813L20.3567 49.8096H18.7402L16.6372 58.1216ZM30.4662 51.5575C30.1524 50.9555 29.6744 50.4775 29.0479 50.1396C28.4208 49.8012 27.6541 49.6281 26.7388 49.6281C25.7906 49.6281 25.0156 49.8342 24.4136 50.2385C23.8116 50.6422 23.2756 51.2196 22.8054 51.9617L24.059 52.877C24.3969 52.3163 24.7598 51.8875 25.1641 51.5988C25.5679 51.3101 26.0872 51.1699 26.7305 51.1699C27.2911 51.1699 27.7859 51.2693 28.2147 51.4753C28.6352 51.6814 28.9652 51.9701 29.188 52.3576C29.3695 52.6709 29.46 53.0339 29.4767 53.4544H27.6128C26.5082 53.4544 25.5846 53.5532 24.8424 53.7593C24.092 53.9653 23.5229 54.3037 23.127 54.7734C22.7311 55.2435 22.5334 55.8622 22.5334 56.6289C22.5334 57.4537 22.8054 58.1299 23.3582 58.6493C23.9105 59.1686 24.7682 59.4327 25.9224 59.4327C27.0934 59.4327 28.017 58.9542 28.6849 57.9976C28.9982 57.5526 29.2372 56.9919 29.4025 56.3319H29.4354V59.1853H30.928V53.4544H30.9197C30.9113 52.7452 30.7544 52.1103 30.4662 51.5575ZM27.9511 57.2968C27.4397 57.6927 26.8052 57.8904 26.038 57.8904C25.3947 57.8904 24.9 57.7586 24.5538 57.5029C24.2154 57.2476 24.0423 56.9009 24.0423 56.4721C24.0423 55.8539 24.331 55.4004 24.9167 55.1201C25.4936 54.8398 26.401 54.6996 27.6216 54.6996H29.3774C29.3162 55.0574 29.2195 55.4081 29.0887 55.7467C28.8418 56.3816 28.4621 56.9009 27.9511 57.2968ZM35.5288 44.8124H34.0033V59.177H35.5288V44.8124ZM45.4574 50.2134C44.7482 49.7767 43.948 49.5622 43.0574 49.5622C42.1588 49.5622 41.3592 49.785 40.6416 50.2134C39.9324 50.6491 39.3562 51.271 38.9759 52.0114C38.5716 52.7698 38.3739 53.5945 38.3739 54.4768C38.3739 55.3837 38.5716 56.2247 38.9759 56.9835C39.3797 57.7424 39.9324 58.3444 40.6416 58.7894C41.3508 59.2345 42.1588 59.4573 43.0574 59.4573C43.9402 59.4573 44.7398 59.2345 45.4574 58.7894C46.1665 58.3444 46.7188 57.7424 47.1147 56.9835C47.5106 56.2247 47.7084 55.3921 47.7084 54.4768C47.7084 53.5945 47.5106 52.7698 47.1147 52.0114C46.7449 51.2664 46.1698 50.6426 45.4574 50.2134ZM45.779 56.2911C45.5065 56.8188 45.1357 57.2226 44.6656 57.5029C44.1954 57.7832 43.6593 57.9234 43.0574 57.9234C42.4475 57.9234 41.9031 57.7832 41.4251 57.5029C40.9465 57.2226 40.5757 56.8188 40.3116 56.2911C40.048 55.7634 39.9157 55.1693 39.9157 54.493C39.9157 53.8252 40.048 53.2316 40.3116 52.7039C40.5757 52.1762 40.9465 51.7803 41.4251 51.4999C41.9031 51.2196 42.4475 51.0794 43.0574 51.0794C43.6593 51.0794 44.1954 51.2196 44.6656 51.4999C45.1357 51.7803 45.5065 52.1845 45.779 52.7039C46.051 53.2232 46.1828 53.8173 46.1828 54.493C46.1828 55.1614 46.051 55.7634 45.779 56.2911ZM58.6013 51.434C58.3043 50.7908 57.8838 50.3206 57.3231 50.0157C56.7625 49.7108 56.0862 49.5539 55.2865 49.5539C54.4947 49.5539 53.8431 49.7353 53.3321 50.0983C52.8206 50.4608 52.4247 51.0219 52.1611 51.7886C52.1194 51.9132 52.0836 52.0398 52.0539 52.1678V49.8096H50.5121V59.1853H52.0539V54.6745C52.0539 53.8748 52.1941 53.207 52.4661 52.6709C52.7385 52.1349 53.1093 51.7473 53.5628 51.4837C54.0233 51.2246 54.5437 51.0908 55.0721 51.0957C55.8388 51.0957 56.4325 51.3268 56.8697 51.7886C57.2985 52.2504 57.5129 52.9429 57.5129 53.8832V59.177H59.038V53.8832C59.0464 52.8853 58.8979 52.0689 58.6013 51.434ZM30.6639 0.523541L30.6221 0.440918H29.278L16.3323 28.3286L16.3161 29.2109L16.3239 29.2935L24.842 39.8486L24.9329 39.9637H26.549L27.6625 29.6152H43.0244L43.6593 28.5101L30.6639 0.523541ZM26.0788 29.6147L25.2049 37.7949L18.6 29.6147H26.0788ZM28.6682 5.48682L26.2524 28.0478H18.1957L28.6682 5.48682ZM41.7054 28.0478H27.8272L30.4328 3.74682L41.7054 28.0478Z" fill="#1D1D1B"/>
</svg>
