<svg width="451" height="545" viewBox="0 0 451 545" fill="none" xmlns="http://www.w3.org/2000/svg">
<path d="M352.676 57.6238C273.149 45.9909 147.087 24.4039 67.2105 10.9644C33.9331 5.36537 5.56128 33.8741 10.9197 67.1912L52.1567 323.59C53.2413 330.333 52.9327 337.228 51.2497 343.848L20.2931 465.62C11.0761 501.877 43.48 535.043 79.9408 526.671L411.302 450.589C434.015 445.374 450.113 425.16 450.113 401.857V216.138C450.113 208.402 448.318 200.771 444.869 193.846L390.678 85.0488C383.284 70.204 369.086 60.0241 352.676 57.6238Z" fill="#C0B7EE"/>
<path d="M67.3453 140V128H70.0493V137.792L69.2813 137.248L76.7053 128H79.6013L69.7933 140H67.3453ZM73.0733 134.128L75.0253 132.384L79.7773 140H76.6733L73.0733 134.128ZM81.2107 130.8L82.5387 131.056L83.8827 130.8V140H81.2107V130.8ZM82.5387 129.856C82.0587 129.856 81.664 129.734 81.3547 129.488C81.056 129.232 80.9067 128.896 80.9067 128.48C80.9067 128.054 81.056 127.718 81.3547 127.472C81.664 127.216 82.0587 127.088 82.5387 127.088C83.0293 127.088 83.424 127.216 83.7227 127.472C84.0213 127.718 84.1707 128.054 84.1707 128.48C84.1707 128.896 84.0213 129.232 83.7227 129.488C83.424 129.734 83.0293 129.856 82.5387 129.856ZM87.9462 130.896H97.3542V140H94.6822V131.696L95.9142 132.912H89.2742L90.4262 131.92C90.4795 132.571 90.5222 133.174 90.5542 133.728C90.5968 134.272 90.6182 134.763 90.6182 135.2C90.6182 136.95 90.3568 138.219 89.8342 139.008C89.3222 139.798 88.4902 140.192 87.3382 140.192C87.0182 140.192 86.7088 140.155 86.4102 140.08C86.1222 140.016 85.8395 139.904 85.5622 139.744V137.808C85.7542 137.883 85.9408 137.942 86.1222 137.984C86.3142 138.016 86.4902 138.032 86.6502 138.032C87.1942 138.032 87.5835 137.787 87.8182 137.296C88.0635 136.795 88.1862 135.974 88.1862 134.832C88.1862 134.32 88.1648 133.734 88.1222 133.072C88.0902 132.411 88.0315 131.686 87.9462 130.896ZM99.8425 140V130.896H102.499V139.312L101.635 138.08H105.187C105.677 138.08 106.056 137.963 106.323 137.728C106.589 137.483 106.723 137.152 106.723 136.736C106.723 136.299 106.589 135.963 106.323 135.728C106.056 135.483 105.677 135.36 105.187 135.36H101.651V133.52H105.587C106.365 133.52 107.037 133.659 107.603 133.936C108.179 134.203 108.627 134.582 108.947 135.072C109.267 135.552 109.427 136.118 109.427 136.768C109.427 137.408 109.267 137.974 108.947 138.464C108.627 138.955 108.184 139.334 107.619 139.6C107.053 139.867 106.387 140 105.619 140H99.8425ZM111.213 140V130.896H113.885V137.84L113.101 137.568L118.525 130.896H121.437L113.613 140H111.213ZM118.653 140L115.933 135.536L117.901 134.016L121.709 140H118.653ZM123.099 130.8L124.427 131.056L125.771 130.8V140H123.099V130.8ZM124.427 129.856C123.947 129.856 123.553 129.734 123.243 129.488C122.945 129.232 122.795 128.896 122.795 128.48C122.795 128.054 122.945 127.718 123.243 127.472C123.553 127.216 123.947 127.088 124.427 127.088C124.918 127.088 125.313 127.216 125.611 127.472C125.91 127.718 126.059 128.054 126.059 128.48C126.059 128.896 125.91 129.232 125.611 129.488C125.313 129.734 124.918 129.856 124.427 129.856ZM138.715 136.288C138.608 137.067 138.304 137.755 137.803 138.352C137.312 138.95 136.678 139.414 135.899 139.744C135.12 140.075 134.251 140.24 133.291 140.24C132.203 140.24 131.243 140.043 130.411 139.648C129.59 139.243 128.944 138.678 128.475 137.952C128.016 137.227 127.787 136.395 127.787 135.456C127.787 134.507 128.016 133.675 128.475 132.96C128.944 132.235 129.59 131.67 130.411 131.264C131.243 130.859 132.203 130.656 133.291 130.656C134.251 130.656 135.12 130.827 135.899 131.168C136.678 131.499 137.312 131.963 137.803 132.56C138.304 133.147 138.608 133.835 138.715 134.624H136.043C135.904 134.006 135.584 133.531 135.083 133.2C134.592 132.859 133.995 132.688 133.291 132.688C132.726 132.688 132.23 132.8 131.803 133.024C131.387 133.238 131.067 133.552 130.843 133.968C130.619 134.374 130.507 134.87 130.507 135.456C130.507 136.032 130.619 136.528 130.843 136.944C131.067 137.35 131.387 137.664 131.803 137.888C132.23 138.102 132.726 138.208 133.291 138.208C134.006 138.208 134.608 138.032 135.099 137.68C135.6 137.328 135.915 136.864 136.043 136.288H138.715ZM143.126 131.824H145.798V140H143.126V131.824ZM139.51 130.896H149.414V132.944H139.51V130.896ZM151.118 140V130.896H153.774V139.312L152.91 138.08H156.462C156.952 138.08 157.331 137.963 157.598 137.728C157.864 137.483 157.998 137.152 157.998 136.736C157.998 136.299 157.864 135.963 157.598 135.728C157.331 135.483 156.952 135.36 156.462 135.36H152.926V133.52H156.862C157.64 133.52 158.312 133.659 158.878 133.936C159.454 134.203 159.902 134.582 160.222 135.072C160.542 135.552 160.702 136.118 160.702 136.768C160.702 137.408 160.542 137.974 160.222 138.464C159.902 138.955 159.459 139.334 158.894 139.6C158.328 139.867 157.662 140 156.894 140H151.118ZM67.1213 150.896H69.7933V153.792L69.6813 154.144V156.336L69.7933 156.992V162.64H67.1213V150.896ZM68.8653 155.456C69.0466 154.486 69.3613 153.643 69.8093 152.928C70.2679 152.203 70.8386 151.643 71.5213 151.248C72.2146 150.854 72.9826 150.656 73.8253 150.656C74.7213 150.656 75.5053 150.859 76.1773 151.264C76.8599 151.659 77.3933 152.219 77.7773 152.944C78.1613 153.659 78.3533 154.496 78.3533 155.456C78.3533 156.406 78.1613 157.243 77.7773 157.968C77.3933 158.683 76.8599 159.243 76.1773 159.648C75.5053 160.043 74.7213 160.24 73.8253 160.24C72.9719 160.24 72.2039 160.043 71.5213 159.648C70.8493 159.254 70.2839 158.699 69.8253 157.984C69.3666 157.259 69.0466 156.416 68.8653 155.456ZM75.6493 155.456C75.6493 154.923 75.5373 154.454 75.3133 154.048C75.0999 153.632 74.8013 153.312 74.4173 153.088C74.0333 152.854 73.5906 152.736 73.0893 152.736C72.5879 152.736 72.1133 152.854 71.6653 153.088C71.2173 153.312 70.8226 153.632 70.4813 154.048C70.1506 154.454 69.8893 154.923 69.6973 155.456C69.8893 155.99 70.1506 156.459 70.4813 156.864C70.8226 157.27 71.2173 157.59 71.6653 157.824C72.1133 158.048 72.5879 158.16 73.0893 158.16C73.5906 158.16 74.0333 158.048 74.4173 157.824C74.8013 157.59 75.0999 157.27 75.3133 156.864C75.5373 156.459 75.6493 155.99 75.6493 155.456ZM85.5342 160.24C84.4568 160.24 83.4915 160.043 82.6382 159.648C81.7955 159.243 81.1288 158.678 80.6382 157.952C80.1582 157.227 79.9182 156.384 79.9182 155.424C79.9182 154.475 80.1475 153.643 80.6062 152.928C81.0755 152.214 81.7155 151.659 82.5262 151.264C83.3368 150.859 84.2595 150.656 85.2942 150.656C86.3502 150.656 87.2568 150.891 88.0142 151.36C88.7715 151.819 89.3528 152.47 89.7582 153.312C90.1742 154.155 90.3822 155.147 90.3822 156.288H82.0622V154.512H88.9422L87.9022 155.152C87.8595 154.619 87.7262 154.166 87.5022 153.792C87.2888 153.419 86.9955 153.131 86.6222 152.928C86.2488 152.726 85.8115 152.624 85.3102 152.624C84.7662 152.624 84.2915 152.736 83.8862 152.96C83.4915 153.174 83.1822 153.478 82.9582 153.872C82.7448 154.256 82.6382 154.71 82.6382 155.232C82.6382 155.862 82.7768 156.4 83.0542 156.848C83.3315 157.296 83.7368 157.638 84.2702 157.872C84.8035 158.107 85.4488 158.224 86.2062 158.224C86.8888 158.224 87.5768 158.128 88.2702 157.936C88.9635 157.734 89.5875 157.451 90.1422 157.088V158.88C89.5448 159.307 88.8462 159.643 88.0462 159.888C87.2568 160.123 86.4195 160.24 85.5342 160.24ZM100.761 160L100.377 156.672L100.809 155.456L100.377 154.256L100.761 150.896H103.529L103.001 155.456L103.529 160H100.761ZM101.465 155.456C101.294 156.416 100.98 157.259 100.521 157.984C100.073 158.699 99.5024 159.254 98.809 159.648C98.1264 160.043 97.3584 160.24 96.505 160.24C95.6197 160.24 94.8357 160.043 94.153 159.648C93.4704 159.243 92.937 158.683 92.553 157.968C92.1797 157.243 91.993 156.406 91.993 155.456C91.993 154.496 92.1797 153.659 92.553 152.944C92.937 152.219 93.4704 151.659 94.153 151.264C94.8357 150.859 95.6197 150.656 96.505 150.656C97.3584 150.656 98.1264 150.854 98.809 151.248C99.5024 151.643 100.078 152.203 100.537 152.928C100.996 153.643 101.305 154.486 101.465 155.456ZM94.697 155.456C94.697 155.99 94.8037 156.459 95.017 156.864C95.241 157.27 95.545 157.59 95.929 157.824C96.313 158.048 96.7557 158.16 97.257 158.16C97.7584 158.16 98.2277 158.048 98.665 157.824C99.113 157.59 99.5077 157.27 99.849 156.864C100.19 156.459 100.457 155.99 100.649 155.456C100.457 154.923 100.19 154.454 99.849 154.048C99.5077 153.632 99.113 153.312 98.665 153.088C98.2277 152.854 97.7584 152.736 97.257 152.736C96.7557 152.736 96.313 152.854 95.929 153.088C95.545 153.312 95.241 153.632 95.017 154.048C94.8037 154.454 94.697 154.923 94.697 155.456ZM107.364 150.896H116.772V160H114.1V151.696L115.332 152.912H108.692L109.844 151.92C109.897 152.571 109.94 153.174 109.972 153.728C110.014 154.272 110.036 154.763 110.036 155.2C110.036 156.95 109.774 158.219 109.252 159.008C108.74 159.798 107.908 160.192 106.756 160.192C106.436 160.192 106.126 160.155 105.828 160.08C105.54 160.016 105.257 159.904 104.98 159.744V157.808C105.172 157.883 105.358 157.942 105.54 157.984C105.732 158.016 105.908 158.032 106.068 158.032C106.612 158.032 107.001 157.787 107.236 157.296C107.481 156.795 107.604 155.974 107.604 154.832C107.604 154.32 107.582 153.734 107.54 153.072C107.508 152.411 107.449 151.686 107.364 150.896ZM119.26 150.8L120.588 151.056L121.932 150.8V160H119.26V150.8ZM120.588 149.856C120.108 149.856 119.713 149.734 119.404 149.488C119.105 149.232 118.956 148.896 118.956 148.48C118.956 148.054 119.105 147.718 119.404 147.472C119.713 147.216 120.108 147.088 120.588 147.088C121.079 147.088 121.473 147.216 121.772 147.472C122.071 147.718 122.22 148.054 122.22 148.48C122.22 148.896 122.071 149.232 121.772 149.488C121.473 149.734 121.079 149.856 120.588 149.856ZM128.924 160.24C127.91 160.24 127.025 160.112 126.268 159.856C125.51 159.59 124.918 159.211 124.492 158.72C124.065 158.219 123.83 157.632 123.788 156.96H126.38C126.454 157.408 126.71 157.75 127.148 157.984C127.585 158.219 128.177 158.336 128.924 158.336C129.638 158.336 130.193 158.246 130.588 158.064C130.993 157.872 131.196 157.579 131.196 157.184C131.196 156.864 131.025 156.63 130.684 156.48C130.353 156.32 129.82 156.24 129.084 156.24H127.388V154.64H129.036C129.697 154.64 130.182 154.544 130.492 154.352C130.812 154.16 130.972 153.92 130.972 153.632C130.972 153.28 130.785 153.014 130.412 152.832C130.049 152.651 129.558 152.56 128.94 152.56C128.257 152.56 127.708 152.667 127.292 152.88C126.876 153.094 126.63 153.414 126.556 153.84H123.98C124.022 153.254 124.246 152.72 124.652 152.24C125.057 151.76 125.628 151.376 126.364 151.088C127.11 150.8 128.006 150.656 129.052 150.656C129.98 150.656 130.79 150.768 131.484 150.992C132.177 151.216 132.716 151.526 133.1 151.92C133.484 152.315 133.676 152.768 133.676 153.28C133.676 153.686 133.548 154.059 133.292 154.4C133.046 154.742 132.646 155.014 132.092 155.216C131.548 155.419 130.833 155.52 129.948 155.52V155.248C131.217 155.195 132.193 155.35 132.876 155.712C133.569 156.075 133.916 156.63 133.916 157.376C133.916 157.92 133.718 158.411 133.324 158.848C132.94 159.286 132.374 159.627 131.628 159.872C130.881 160.118 129.98 160.24 128.924 160.24ZM141.186 160.24C140.055 160.24 139.063 160.043 138.21 159.648C137.357 159.243 136.69 158.683 136.21 157.968C135.73 157.243 135.49 156.406 135.49 155.456C135.49 154.496 135.73 153.659 136.21 152.944C136.69 152.219 137.357 151.659 138.21 151.264C139.063 150.859 140.055 150.656 141.186 150.656C142.317 150.656 143.309 150.859 144.162 151.264C145.015 151.659 145.677 152.219 146.146 152.944C146.626 153.659 146.866 154.496 146.866 155.456C146.866 156.406 146.626 157.243 146.146 157.968C145.677 158.683 145.015 159.243 144.162 159.648C143.309 160.043 142.317 160.24 141.186 160.24ZM141.186 158.208C141.805 158.208 142.333 158.096 142.77 157.872C143.218 157.648 143.559 157.334 143.794 156.928C144.039 156.512 144.162 156.022 144.162 155.456C144.162 154.88 144.039 154.39 143.794 153.984C143.559 153.568 143.218 153.248 142.77 153.024C142.333 152.8 141.805 152.688 141.186 152.688C140.578 152.688 140.05 152.8 139.602 153.024C139.154 153.248 138.807 153.568 138.562 153.984C138.327 154.39 138.21 154.88 138.21 155.456C138.21 156.022 138.327 156.512 138.562 156.928C138.807 157.334 139.154 157.648 139.602 157.872C140.05 158.096 140.578 158.208 141.186 158.208ZM148.648 160L149.16 155.456L148.648 150.896H155.656C156.531 150.896 157.224 151.104 157.736 151.52C158.248 151.926 158.504 152.48 158.504 153.184C158.504 153.846 158.248 154.384 157.736 154.8C157.224 155.206 156.509 155.446 155.592 155.52L155.784 155.072C156.851 155.104 157.661 155.328 158.216 155.744C158.781 156.15 159.064 156.72 159.064 157.456C159.064 158.246 158.776 158.87 158.2 159.328C157.635 159.776 156.856 160 155.864 160H148.648ZM151.224 159.408L150.2 158.272H155.048C155.507 158.272 155.843 158.182 156.056 158C156.269 157.808 156.376 157.542 156.376 157.2C156.376 156.891 156.259 156.64 156.024 156.448C155.789 156.246 155.405 156.144 154.872 156.144H150.744V154.624H154.52C154.968 154.624 155.293 154.534 155.496 154.352C155.709 154.171 155.816 153.926 155.816 153.616C155.816 153.328 155.72 153.094 155.528 152.912C155.347 152.731 155.048 152.64 154.632 152.64H150.216L151.224 151.504L151.72 155.456L151.224 159.408ZM169.407 160L169.023 156.672L169.455 155.456L169.023 154.256L169.407 150.896H172.175L171.647 155.456L172.175 160H169.407ZM170.111 155.456C169.94 156.416 169.625 157.259 169.167 157.984C168.719 158.699 168.148 159.254 167.455 159.648C166.772 160.043 166.004 160.24 165.151 160.24C164.265 160.24 163.481 160.043 162.799 159.648C162.116 159.243 161.583 158.683 161.199 157.968C160.825 157.243 160.639 156.406 160.639 155.456C160.639 154.496 160.825 153.659 161.199 152.944C161.583 152.219 162.116 151.659 162.799 151.264C163.481 150.859 164.265 150.656 165.151 150.656C166.004 150.656 166.772 150.854 167.455 151.248C168.148 151.643 168.724 152.203 169.183 152.928C169.641 153.643 169.951 154.486 170.111 155.456ZM163.343 155.456C163.343 155.99 163.449 156.459 163.663 156.864C163.887 157.27 164.191 157.59 164.575 157.824C164.959 158.048 165.401 158.16 165.903 158.16C166.404 158.16 166.873 158.048 167.311 157.824C167.759 157.59 168.153 157.27 168.495 156.864C168.836 156.459 169.103 155.99 169.295 155.456C169.103 154.923 168.836 154.454 168.495 154.048C168.153 153.632 167.759 153.312 167.311 153.088C166.873 152.854 166.404 152.736 165.903 152.736C165.401 152.736 164.959 152.854 164.575 153.088C164.191 153.312 163.887 153.632 163.663 154.048C163.449 154.454 163.343 154.923 163.343 155.456ZM174.441 150.896H177.097V160H174.441V150.896ZM182.073 150.896H184.729V160H182.073V150.896ZM175.961 154.352H183.113V156.368H175.961V154.352ZM187.218 160V150.896H189.842V158.592L189.186 158.416L194.674 150.896H198.114V160H195.49V152.16L196.146 152.352L190.562 160H187.218ZM199.452 160L203.756 154.848L203.74 155.84L199.708 150.896H202.7L205.548 154.32H204.62L207.484 150.896H210.428L206.268 155.888L206.14 154.64L210.668 160H207.628L204.524 156.32H205.5L202.428 160H199.452ZM77.3453 170.896V180H74.6733V171.696L75.9053 172.912H68.5613L69.7933 171.696V180H67.1213V170.896H77.3453ZM79.8357 170.896H82.5077V173.792L82.3957 174.144V176.336L82.5077 176.992V182.64H79.8357V170.896ZM81.5797 175.456C81.761 174.486 82.0757 173.643 82.5237 172.928C82.9823 172.203 83.553 171.643 84.2357 171.248C84.929 170.854 85.697 170.656 86.5397 170.656C87.4357 170.656 88.2197 170.859 88.8917 171.264C89.5743 171.659 90.1077 172.219 90.4917 172.944C90.8757 173.659 91.0677 174.496 91.0677 175.456C91.0677 176.406 90.8757 177.243 90.4917 177.968C90.1077 178.683 89.5743 179.243 88.8917 179.648C88.2197 180.043 87.4357 180.24 86.5397 180.24C85.6863 180.24 84.9183 180.043 84.2357 179.648C83.5637 179.254 82.9983 178.699 82.5397 177.984C82.081 177.259 81.761 176.416 81.5797 175.456ZM88.3637 175.456C88.3637 174.923 88.2517 174.454 88.0277 174.048C87.8143 173.632 87.5157 173.312 87.1317 173.088C86.7477 172.854 86.305 172.736 85.8037 172.736C85.3023 172.736 84.8277 172.854 84.3797 173.088C83.9317 173.312 83.537 173.632 83.1957 174.048C82.865 174.454 82.6037 174.923 82.4117 175.456C82.6037 175.99 82.865 176.459 83.1957 176.864C83.537 177.27 83.9317 177.59 84.3797 177.824C84.8277 178.048 85.3023 178.16 85.8037 178.16C86.305 178.16 86.7477 178.048 87.1317 177.824C87.5157 177.59 87.8143 177.27 88.0277 176.864C88.2517 176.459 88.3637 175.99 88.3637 175.456ZM98.3285 180.24C97.1979 180.24 96.2059 180.043 95.3525 179.648C94.4992 179.243 93.8325 178.683 93.3525 177.968C92.8725 177.243 92.6325 176.406 92.6325 175.456C92.6325 174.496 92.8725 173.659 93.3525 172.944C93.8325 172.219 94.4992 171.659 95.3525 171.264C96.2059 170.859 97.1979 170.656 98.3285 170.656C99.4592 170.656 100.451 170.859 101.305 171.264C102.158 171.659 102.819 172.219 103.289 172.944C103.769 173.659 104.009 174.496 104.009 175.456C104.009 176.406 103.769 177.243 103.289 177.968C102.819 178.683 102.158 179.243 101.305 179.648C100.451 180.043 99.4592 180.24 98.3285 180.24ZM98.3285 178.208C98.9472 178.208 99.4752 178.096 99.9125 177.872C100.361 177.648 100.702 177.334 100.937 176.928C101.182 176.512 101.305 176.022 101.305 175.456C101.305 174.88 101.182 174.39 100.937 173.984C100.702 173.568 100.361 173.248 99.9125 173.024C99.4752 172.8 98.9472 172.688 98.3285 172.688C97.7205 172.688 97.1925 172.8 96.7445 173.024C96.2965 173.248 95.9499 173.568 95.7045 173.984C95.4699 174.39 95.3525 174.88 95.3525 175.456C95.3525 176.022 95.4699 176.512 95.7045 176.928C95.9499 177.334 96.2965 177.648 96.7445 177.872C97.1925 178.096 97.7205 178.208 98.3285 178.208ZM111.182 180.24C110.104 180.24 109.139 180.043 108.286 179.648C107.443 179.243 106.776 178.678 106.286 177.952C105.806 177.227 105.566 176.384 105.566 175.424C105.566 174.475 105.795 173.643 106.254 172.928C106.723 172.214 107.363 171.659 108.174 171.264C108.984 170.859 109.907 170.656 110.942 170.656C111.998 170.656 112.904 170.891 113.662 171.36C114.419 171.819 115 172.47 115.406 173.312C115.822 174.155 116.03 175.147 116.03 176.288H107.71V174.512H114.59L113.55 175.152C113.507 174.619 113.374 174.166 113.15 173.792C112.936 173.419 112.643 173.131 112.27 172.928C111.896 172.726 111.459 172.624 110.958 172.624C110.414 172.624 109.939 172.736 109.534 172.96C109.139 173.174 108.83 173.478 108.606 173.872C108.392 174.256 108.286 174.71 108.286 175.232C108.286 175.862 108.424 176.4 108.702 176.848C108.979 177.296 109.384 177.638 109.918 177.872C110.451 178.107 111.096 178.224 111.854 178.224C112.536 178.224 113.224 178.128 113.918 177.936C114.611 177.734 115.235 177.451 115.79 177.088V178.88C115.192 179.307 114.494 179.643 113.694 179.888C112.904 180.123 112.067 180.24 111.182 180.24ZM118.073 180V170.896H120.745V177.84L119.961 177.568L125.385 170.896H128.297L120.473 180H118.073ZM125.513 180L122.793 175.536L124.761 174.016L128.569 180H125.513ZM132.791 171.824H135.463V180H132.791V171.824ZM129.175 170.896H139.079V172.944H129.175V170.896ZM140.783 170.8L142.111 171.056L143.455 170.8V180H140.783V170.8ZM142.111 169.856C141.631 169.856 141.236 169.734 140.927 169.488C140.628 169.232 140.479 168.896 140.479 168.48C140.479 168.054 140.628 167.718 140.927 167.472C141.236 167.216 141.631 167.088 142.111 167.088C142.601 167.088 142.996 167.216 143.295 167.472C143.593 167.718 143.743 168.054 143.743 168.48C143.743 168.896 143.593 169.232 143.295 169.488C142.996 169.734 142.601 169.856 142.111 169.856ZM145.726 180L146.238 175.456L145.726 170.896H152.734C153.609 170.896 154.302 171.104 154.814 171.52C155.326 171.926 155.582 172.48 155.582 173.184C155.582 173.846 155.326 174.384 154.814 174.8C154.302 175.206 153.587 175.446 152.67 175.52L152.862 175.072C153.929 175.104 154.739 175.328 155.294 175.744C155.859 176.15 156.142 176.72 156.142 177.456C156.142 178.246 155.854 178.87 155.278 179.328C154.713 179.776 153.934 180 152.942 180H145.726ZM148.302 179.408L147.278 178.272H152.126C152.585 178.272 152.921 178.182 153.134 178C153.347 177.808 153.454 177.542 153.454 177.2C153.454 176.891 153.337 176.64 153.102 176.448C152.867 176.246 152.483 176.144 151.95 176.144H147.822V174.624H151.598C152.046 174.624 152.371 174.534 152.574 174.352C152.787 174.171 152.894 173.926 152.894 173.616C152.894 173.328 152.798 173.094 152.606 172.912C152.425 172.731 152.126 172.64 151.71 172.64H147.294L148.302 171.504L148.798 175.456L148.302 179.408ZM66.8973 200L67.4093 195.456L66.8973 190.896H73.9053C74.7799 190.896 75.4733 191.104 75.9853 191.52C76.4973 191.926 76.7533 192.48 76.7533 193.184C76.7533 193.846 76.4973 194.384 75.9853 194.8C75.4733 195.206 74.7586 195.446 73.8413 195.52L74.0333 195.072C75.0999 195.104 75.9106 195.328 76.4653 195.744C77.0306 196.15 77.3133 196.72 77.3133 197.456C77.3133 198.246 77.0253 198.87 76.4493 199.328C75.8839 199.776 75.1053 200 74.1133 200H66.8973ZM69.4733 199.408L68.4493 198.272H73.2973C73.7559 198.272 74.0919 198.182 74.3053 198C74.5186 197.808 74.6253 197.542 74.6253 197.2C74.6253 196.891 74.5079 196.64 74.2733 196.448C74.0386 196.246 73.6546 196.144 73.1213 196.144H68.9933V194.624H72.7693C73.2173 194.624 73.5426 194.534 73.7453 194.352C73.9586 194.171 74.0653 193.926 74.0653 193.616C74.0653 193.328 73.9693 193.094 73.7773 192.912C73.5959 192.731 73.2973 192.64 72.8813 192.64H68.4653L69.4733 191.504L69.9693 195.456L69.4733 199.408ZM83.4778 196.08H86.2298C86.2938 196.486 86.4698 196.843 86.7578 197.152C87.0564 197.451 87.4511 197.686 87.9418 197.856C88.4431 198.016 89.0191 198.096 89.6698 198.096C90.6191 198.096 91.3658 197.963 91.9098 197.696C92.4644 197.419 92.7418 197.035 92.7418 196.544C92.7418 196.16 92.5818 195.867 92.2618 195.664C91.9524 195.451 91.3711 195.296 90.5178 195.2L88.1018 194.928C86.5444 194.758 85.4138 194.395 84.7098 193.84C84.0164 193.275 83.6698 192.491 83.6698 191.488C83.6698 190.699 83.8991 190.027 84.3578 189.472C84.8271 188.918 85.4831 188.496 86.3258 188.208C87.1684 187.91 88.1604 187.76 89.3018 187.76C90.4111 187.76 91.3978 187.926 92.2618 188.256C93.1258 188.576 93.8138 189.03 94.3258 189.616C94.8378 190.192 95.1151 190.87 95.1578 191.648H92.4058C92.3524 191.296 92.1924 190.992 91.9258 190.736C91.6698 190.47 91.3124 190.267 90.8538 190.128C90.3951 189.979 89.8564 189.904 89.2378 189.904C88.3738 189.904 87.6858 190.032 87.1738 190.288C86.6618 190.544 86.4058 190.907 86.4058 191.376C86.4058 191.739 86.5551 192.022 86.8538 192.224C87.1631 192.416 87.7018 192.56 88.4698 192.656L90.9818 192.96C92.0911 193.078 92.9711 193.27 93.6218 193.536C94.2831 193.792 94.7524 194.139 95.0298 194.576C95.3178 195.014 95.4618 195.568 95.4618 196.24C95.4618 197.04 95.2164 197.744 94.7258 198.352C94.2458 198.95 93.5684 199.414 92.6938 199.744C91.8191 200.075 90.7951 200.24 89.6218 200.24C88.4271 200.24 87.3764 200.07 86.4698 199.728C85.5631 199.376 84.8484 198.891 84.3258 198.272C83.8031 197.643 83.5204 196.912 83.4778 196.08ZM101.37 200.24C100.528 200.24 99.8077 200.07 99.2104 199.728C98.6237 199.376 98.1704 198.88 97.8504 198.24C97.5411 197.6 97.3864 196.843 97.3864 195.968V190.896H100.058V195.568C100.058 196.379 100.25 196.998 100.634 197.424C101.018 197.84 101.562 198.048 102.266 198.048C102.789 198.048 103.232 197.942 103.594 197.728C103.968 197.504 104.256 197.184 104.458 196.768C104.661 196.352 104.762 195.867 104.762 195.312L105.626 195.776C105.52 196.715 105.269 197.52 104.874 198.192C104.48 198.854 103.978 199.36 103.37 199.712C102.773 200.064 102.106 200.24 101.37 200.24ZM105.322 200L104.762 196.544V190.896H107.434V196.944L107.994 200H105.322ZM110.057 187.68H112.729V193.792L112.361 194.512V196.496L112.729 197.232V200H110.057V187.68ZM111.785 195.456C111.956 194.486 112.27 193.643 112.729 192.928C113.188 192.203 113.758 191.643 114.441 191.248C115.124 190.854 115.892 190.656 116.745 190.656C117.63 190.656 118.414 190.859 119.097 191.264C119.78 191.659 120.313 192.219 120.697 192.944C121.081 193.659 121.273 194.496 121.273 195.456C121.273 196.406 121.081 197.243 120.697 197.968C120.313 198.683 119.78 199.243 119.097 199.648C118.414 200.043 117.63 200.24 116.745 200.24C115.892 200.24 115.124 200.043 114.441 199.648C113.758 199.254 113.188 198.699 112.729 197.984C112.281 197.259 111.966 196.416 111.785 195.456ZM118.553 195.456C118.553 194.923 118.441 194.454 118.217 194.048C118.004 193.632 117.705 193.312 117.321 193.088C116.937 192.854 116.5 192.736 116.009 192.736C115.508 192.736 115.033 192.854 114.585 193.088C114.137 193.312 113.742 193.632 113.401 194.048C113.07 194.454 112.809 194.923 112.617 195.456C112.809 195.99 113.07 196.459 113.401 196.864C113.742 197.27 114.137 197.59 114.585 197.824C115.033 198.048 115.508 198.16 116.009 198.16C116.5 198.16 116.937 198.048 117.321 197.824C117.705 197.59 118.004 197.27 118.217 196.864C118.441 196.459 118.553 195.99 118.553 195.456ZM122.855 190.896H125.527L126.103 194.368V200H123.431V193.968L122.855 190.896ZM129.351 190.656C130.162 190.656 130.855 190.832 131.431 191.184C132.007 191.526 132.444 192.016 132.743 192.656C133.052 193.296 133.207 194.059 133.207 194.944V200H130.535V195.344C130.535 194.523 130.354 193.904 129.991 193.488C129.639 193.062 129.122 192.848 128.439 192.848C127.959 192.848 127.543 192.966 127.191 193.2C126.839 193.424 126.567 193.739 126.375 194.144C126.194 194.55 126.103 195.035 126.103 195.6L125.223 195.136C125.33 194.176 125.575 193.366 125.959 192.704C126.343 192.043 126.823 191.536 127.399 191.184C127.986 190.832 128.636 190.656 129.351 190.656ZM136.439 190.656C137.25 190.656 137.943 190.832 138.519 191.184C139.106 191.526 139.548 192.016 139.847 192.656C140.156 193.296 140.311 194.059 140.311 194.944V200H137.639V195.344C137.639 194.523 137.458 193.904 137.095 193.488C136.743 193.062 136.226 192.848 135.543 192.848C135.063 192.848 134.647 192.966 134.295 193.2C133.943 193.424 133.671 193.739 133.479 194.144C133.298 194.55 133.207 195.035 133.207 195.6L132.327 195.136C132.434 194.176 132.679 193.366 133.063 192.704C133.447 192.043 133.927 191.536 134.503 191.184C135.09 190.832 135.735 190.656 136.439 190.656ZM151.009 200L150.625 196.672L151.057 195.456L150.625 194.256L151.009 190.896H153.777L153.249 195.456L153.777 200H151.009ZM151.713 195.456C151.542 196.416 151.228 197.259 150.769 197.984C150.321 198.699 149.75 199.254 149.057 199.648C148.374 200.043 147.606 200.24 146.753 200.24C145.868 200.24 145.084 200.043 144.401 199.648C143.718 199.243 143.185 198.683 142.801 197.968C142.428 197.243 142.241 196.406 142.241 195.456C142.241 194.496 142.428 193.659 142.801 192.944C143.185 192.219 143.718 191.659 144.401 191.264C145.084 190.859 145.868 190.656 146.753 190.656C147.606 190.656 148.374 190.854 149.057 191.248C149.75 191.643 150.326 192.203 150.785 192.928C151.244 193.643 151.553 194.486 151.713 195.456ZM144.945 195.456C144.945 195.99 145.052 196.459 145.265 196.864C145.489 197.27 145.793 197.59 146.177 197.824C146.561 198.048 147.004 198.16 147.505 198.16C148.006 198.16 148.476 198.048 148.913 197.824C149.361 197.59 149.756 197.27 150.097 196.864C150.438 196.459 150.705 195.99 150.897 195.456C150.705 194.923 150.438 194.454 150.097 194.048C149.756 193.632 149.361 193.312 148.913 193.088C148.476 192.854 148.006 192.736 147.505 192.736C147.004 192.736 146.561 192.854 146.177 193.088C145.793 193.312 145.489 193.632 145.265 194.048C145.052 194.454 144.945 194.923 144.945 195.456ZM155.612 190.896H158.316L158.86 194.176V200H156.188V193.888L155.612 190.896ZM163.292 190.8V193.104C163.014 193.04 162.737 192.992 162.46 192.96C162.182 192.928 161.921 192.912 161.676 192.912C161.142 192.912 160.662 193.024 160.236 193.248C159.809 193.472 159.473 193.819 159.228 194.288C158.982 194.758 158.86 195.35 158.86 196.064L158.3 195.392C158.364 194.742 158.481 194.134 158.652 193.568C158.822 192.992 159.057 192.491 159.356 192.064C159.665 191.627 160.044 191.286 160.492 191.04C160.94 190.784 161.473 190.656 162.092 190.656C162.294 190.656 162.497 190.672 162.7 190.704C162.913 190.726 163.11 190.758 163.292 190.8ZM165.008 190.8L166.336 191.056L167.68 190.8V200H165.008V190.8ZM166.336 189.856C165.856 189.856 165.461 189.734 165.152 189.488C164.853 189.232 164.704 188.896 164.704 188.48C164.704 188.054 164.853 187.718 165.152 187.472C165.461 187.216 165.856 187.088 166.336 187.088C166.827 187.088 167.221 187.216 167.52 187.472C167.819 187.718 167.968 188.054 167.968 188.48C167.968 188.896 167.819 189.232 167.52 189.488C167.221 189.734 166.827 189.856 166.336 189.856ZM169.744 190.896H172.416L172.992 194.368V200H170.32V193.968L169.744 190.896ZM176.464 190.656C177.328 190.656 178.064 190.832 178.672 191.184C179.28 191.526 179.744 192.016 180.064 192.656C180.384 193.296 180.544 194.059 180.544 194.944V200H177.872V195.344C177.872 194.523 177.674 193.904 177.28 193.488C176.885 193.062 176.309 192.848 175.552 192.848C175.04 192.848 174.586 192.966 174.192 193.2C173.808 193.424 173.509 193.739 173.296 194.144C173.093 194.55 172.992 195.035 172.992 195.6L172.112 195.136C172.218 194.176 172.474 193.366 172.88 192.704C173.285 192.043 173.797 191.536 174.416 191.184C175.034 190.832 175.717 190.656 176.464 190.656ZM188.042 200.24C186.964 200.24 185.999 200.043 185.146 199.648C184.303 199.243 183.636 198.678 183.146 197.952C182.666 197.227 182.426 196.384 182.426 195.424C182.426 194.475 182.655 193.643 183.114 192.928C183.583 192.214 184.223 191.659 185.034 191.264C185.844 190.859 186.767 190.656 187.802 190.656C188.858 190.656 189.764 190.891 190.522 191.36C191.279 191.819 191.86 192.47 192.266 193.312C192.682 194.155 192.89 195.147 192.89 196.288H184.57V194.512H191.45L190.41 195.152C190.367 194.619 190.234 194.166 190.01 193.792C189.796 193.419 189.503 193.131 189.13 192.928C188.756 192.726 188.319 192.624 187.818 192.624C187.274 192.624 186.799 192.736 186.394 192.96C185.999 193.174 185.69 193.478 185.466 193.872C185.252 194.256 185.146 194.71 185.146 195.232C185.146 195.862 185.284 196.4 185.562 196.848C185.839 197.296 186.244 197.638 186.778 197.872C187.311 198.107 187.956 198.224 188.714 198.224C189.396 198.224 190.084 198.128 190.778 197.936C191.471 197.734 192.095 197.451 192.65 197.088V198.88C192.052 199.307 191.354 199.643 190.554 199.888C189.764 200.123 188.927 200.24 188.042 200.24ZM196.405 200.144C195.957 200.144 195.583 200 195.285 199.712C194.997 199.424 194.853 199.062 194.853 198.624C194.853 198.187 194.997 197.824 195.285 197.536C195.583 197.248 195.957 197.104 196.405 197.104C196.863 197.104 197.237 197.248 197.525 197.536C197.823 197.824 197.973 198.187 197.973 198.624C197.973 199.062 197.823 199.424 197.525 199.712C197.237 200 196.863 200.144 196.405 200.144ZM196.405 194.48C195.957 194.48 195.583 194.336 195.285 194.048C194.997 193.76 194.853 193.398 194.853 192.96C194.853 192.523 194.997 192.16 195.285 191.872C195.583 191.584 195.957 191.44 196.405 191.44C196.863 191.44 197.237 191.584 197.525 191.872C197.823 192.16 197.973 192.523 197.973 192.96C197.973 193.398 197.823 193.76 197.525 194.048C197.237 194.336 196.863 194.48 196.405 194.48Z" fill="white"/>
<path d="M282.753 139V137.992L286.785 133.928C287.937 132.776 288.513 131.79 288.513 130.968C288.513 130.254 288.289 129.699 287.841 129.304C287.404 128.899 286.876 128.696 286.257 128.696C285.105 128.696 284.268 129.224 283.745 130.28L282.801 129.72C283.153 129.027 283.633 128.504 284.241 128.152C284.849 127.79 285.521 127.608 286.257 127.608C287.153 127.608 287.937 127.912 288.609 128.52C289.292 129.118 289.633 129.934 289.633 130.968C289.633 131.619 289.452 132.243 289.089 132.84C288.727 133.438 288.215 134.067 287.553 134.728L284.353 137.912H289.873V139H282.753ZM299.567 135.704V136.76H298.127V139H297.007V136.76H291.087V135.704L295.247 127.8H296.479L292.319 135.704H297.007V132.28H298.127V135.704H299.567ZM308.128 132.888V133.912H305.28V136.76H304.256V133.912H301.408V132.888H304.256V130.04H305.28V132.888H308.128Z" fill="white"/>
<path d="M70.1613 236L72.2253 232.432H72.2573L77.1213 224H80.0653L73.1053 236H70.1613ZM72.2253 234.256L66.2413 224H69.2333L74.0973 232.368L72.2253 234.256ZM80.9662 226.896H90.3742V236H87.7022V227.696L88.9342 228.912H82.2942L83.4462 227.92C83.4995 228.571 83.5422 229.174 83.5742 229.728C83.6168 230.272 83.6382 230.763 83.6382 231.2C83.6382 232.95 83.3768 234.219 82.8542 235.008C82.3422 235.798 81.5102 236.192 80.3582 236.192C80.0382 236.192 79.7288 236.155 79.4302 236.08C79.1422 236.016 78.8595 235.904 78.5822 235.744V233.808C78.7742 233.883 78.9608 233.942 79.1422 233.984C79.3342 234.016 79.5102 234.032 79.6702 234.032C80.2142 234.032 80.6035 233.787 80.8382 233.296C81.0835 232.795 81.2062 231.974 81.2062 230.832C81.2062 230.32 81.1848 229.734 81.1422 229.072C81.1102 228.411 81.0515 227.686 80.9662 226.896ZM102.671 236.24C101.551 236.24 100.569 236.043 99.7265 235.648C98.8839 235.243 98.2279 234.683 97.7585 233.968C97.2999 233.243 97.0705 232.406 97.0705 231.456C97.0705 230.496 97.2999 229.659 97.7585 228.944C98.2279 228.219 98.8839 227.659 99.7265 227.264C100.569 226.859 101.551 226.656 102.671 226.656C103.791 226.656 104.772 226.859 105.615 227.264C106.457 227.659 107.113 228.219 107.583 228.944C108.052 229.659 108.287 230.496 108.287 231.456C108.287 232.406 108.052 233.243 107.583 233.968C107.113 234.683 106.457 235.243 105.615 235.648C104.772 236.043 103.791 236.24 102.671 236.24ZM92.8625 236V226.896H95.5345V236H92.8625ZM94.3665 232.368V230.368H98.7665V232.368H94.3665ZM102.671 234.208C103.279 234.208 103.796 234.096 104.223 233.872C104.66 233.648 104.996 233.334 105.231 232.928C105.465 232.512 105.583 232.022 105.583 231.456C105.583 230.88 105.465 230.39 105.231 229.984C104.996 229.568 104.66 229.248 104.223 229.024C103.796 228.8 103.279 228.688 102.671 228.688C102.073 228.688 101.556 228.8 101.119 229.024C100.681 229.248 100.345 229.568 100.111 229.984C99.8759 230.39 99.7585 230.88 99.7585 231.456C99.7585 232.022 99.8759 232.512 100.111 232.928C100.345 233.334 100.681 233.648 101.119 233.872C101.556 234.096 102.073 234.208 102.671 234.208ZM115.895 236.24C114.647 236.24 113.581 236.006 112.695 235.536C111.81 235.056 111.133 234.368 110.663 233.472C110.194 232.576 109.959 231.494 109.959 230.224C109.959 228.336 110.466 226.848 111.479 225.76C112.493 224.672 113.943 224.048 115.831 223.888C116.599 223.824 117.234 223.771 117.735 223.728C118.237 223.686 118.647 223.643 118.967 223.6C119.298 223.547 119.575 223.494 119.799 223.44C120.023 223.376 120.242 223.307 120.455 223.232V225.456C120.231 225.542 119.943 225.622 119.591 225.696C119.25 225.76 118.813 225.814 118.279 225.856C117.757 225.899 117.111 225.942 116.343 225.984C114.946 226.048 113.906 226.432 113.223 227.136C112.541 227.84 112.199 228.854 112.199 230.176V230.608L112.103 230.416C112.317 229.84 112.642 229.344 113.079 228.928C113.517 228.512 114.039 228.198 114.647 227.984C115.266 227.76 115.933 227.648 116.647 227.648C117.575 227.648 118.386 227.824 119.079 228.176C119.773 228.518 120.311 229.003 120.695 229.632C121.09 230.262 121.287 230.998 121.287 231.84C121.287 232.726 121.063 233.499 120.615 234.16C120.167 234.822 119.538 235.334 118.727 235.696C117.927 236.059 116.983 236.24 115.895 236.24ZM115.959 234.208C116.493 234.208 116.957 234.112 117.351 233.92C117.746 233.728 118.05 233.456 118.263 233.104C118.477 232.752 118.583 232.342 118.583 231.872C118.583 231.403 118.477 230.998 118.263 230.656C118.05 230.304 117.746 230.032 117.351 229.84C116.957 229.648 116.493 229.552 115.959 229.552C115.223 229.552 114.573 229.75 114.007 230.144C113.442 230.528 113.015 231.067 112.727 231.76C112.898 232.507 113.271 233.104 113.847 233.552C114.434 233.99 115.138 234.208 115.959 234.208ZM124.672 226.896H134.08V236H131.408V227.696L132.64 228.912H126L127.152 227.92C127.205 228.571 127.248 229.174 127.28 229.728C127.322 230.272 127.344 230.763 127.344 231.2C127.344 232.95 127.082 234.219 126.56 235.008C126.048 235.798 125.216 236.192 124.064 236.192C123.744 236.192 123.434 236.155 123.136 236.08C122.848 236.016 122.565 235.904 122.288 235.744V233.808C122.48 233.883 122.666 233.942 122.848 233.984C123.04 234.016 123.216 234.032 123.376 234.032C123.92 234.032 124.309 233.787 124.544 233.296C124.789 232.795 124.912 231.974 124.912 230.832C124.912 230.32 124.89 229.734 124.848 229.072C124.816 228.411 124.757 227.686 124.672 226.896ZM141.704 236.24C140.627 236.24 139.661 236.043 138.808 235.648C137.965 235.243 137.299 234.678 136.808 233.952C136.328 233.227 136.088 232.384 136.088 231.424C136.088 230.475 136.317 229.643 136.776 228.928C137.245 228.214 137.885 227.659 138.696 227.264C139.507 226.859 140.429 226.656 141.464 226.656C142.52 226.656 143.427 226.891 144.184 227.36C144.941 227.819 145.523 228.47 145.928 229.312C146.344 230.155 146.552 231.147 146.552 232.288H138.232V230.512H145.112L144.072 231.152C144.029 230.619 143.896 230.166 143.672 229.792C143.459 229.419 143.165 229.131 142.792 228.928C142.419 228.726 141.981 228.624 141.48 228.624C140.936 228.624 140.461 228.736 140.056 228.96C139.661 229.174 139.352 229.478 139.128 229.872C138.915 230.256 138.808 230.71 138.808 231.232C138.808 231.862 138.947 232.4 139.224 232.848C139.501 233.296 139.907 233.638 140.44 233.872C140.973 234.107 141.619 234.224 142.376 234.224C143.059 234.224 143.747 234.128 144.44 233.936C145.133 233.734 145.757 233.451 146.312 233.088V234.88C145.715 235.307 145.016 235.643 144.216 235.888C143.427 236.123 142.589 236.24 141.704 236.24ZM148.595 226.896H151.251V236H148.595V226.896ZM156.227 226.896H158.883V236H156.227V226.896ZM150.115 230.352H157.267V232.368H150.115V230.352ZM161.372 226.8L162.7 227.056L164.044 226.8V236H161.372V226.8ZM162.7 225.856C162.22 225.856 161.825 225.734 161.516 225.488C161.217 225.232 161.068 224.896 161.068 224.48C161.068 224.054 161.217 223.718 161.516 223.472C161.825 223.216 162.22 223.088 162.7 223.088C163.191 223.088 163.585 223.216 163.884 223.472C164.183 223.718 164.332 224.054 164.332 224.48C164.332 224.896 164.183 225.232 163.884 225.488C163.585 225.734 163.191 225.856 162.7 225.856ZM181.337 226.896V236H178.665V227.696L179.897 228.912H172.553L173.785 227.696V236H171.113V226.896H181.337ZM183.828 226.896H186.5V229.792L186.388 230.144V232.336L186.5 232.992V238.64H183.828V226.896ZM185.572 231.456C185.753 230.486 186.068 229.643 186.516 228.928C186.974 228.203 187.545 227.643 188.228 227.248C188.921 226.854 189.689 226.656 190.532 226.656C191.428 226.656 192.212 226.859 192.884 227.264C193.566 227.659 194.1 228.219 194.484 228.944C194.868 229.659 195.06 230.496 195.06 231.456C195.06 232.406 194.868 233.243 194.484 233.968C194.1 234.683 193.566 235.243 192.884 235.648C192.212 236.043 191.428 236.24 190.532 236.24C189.678 236.24 188.91 236.043 188.228 235.648C187.556 235.254 186.99 234.699 186.532 233.984C186.073 233.259 185.753 232.416 185.572 231.456ZM192.356 231.456C192.356 230.923 192.244 230.454 192.02 230.048C191.806 229.632 191.508 229.312 191.124 229.088C190.74 228.854 190.297 228.736 189.796 228.736C189.294 228.736 188.82 228.854 188.372 229.088C187.924 229.312 187.529 229.632 187.188 230.048C186.857 230.454 186.596 230.923 186.404 231.456C186.596 231.99 186.857 232.459 187.188 232.864C187.529 233.27 187.924 233.59 188.372 233.824C188.82 234.048 189.294 234.16 189.796 234.16C190.297 234.16 190.74 234.048 191.124 233.824C191.508 233.59 191.806 233.27 192.02 232.864C192.244 232.459 192.356 231.99 192.356 231.456ZM202.32 236.24C201.19 236.24 200.198 236.043 199.344 235.648C198.491 235.243 197.824 234.683 197.344 233.968C196.864 233.243 196.624 232.406 196.624 231.456C196.624 230.496 196.864 229.659 197.344 228.944C197.824 228.219 198.491 227.659 199.344 227.264C200.198 226.859 201.19 226.656 202.32 226.656C203.451 226.656 204.443 226.859 205.296 227.264C206.15 227.659 206.811 228.219 207.28 228.944C207.76 229.659 208 230.496 208 231.456C208 232.406 207.76 233.243 207.28 233.968C206.811 234.683 206.15 235.243 205.296 235.648C204.443 236.043 203.451 236.24 202.32 236.24ZM202.32 234.208C202.939 234.208 203.467 234.096 203.904 233.872C204.352 233.648 204.694 233.334 204.928 232.928C205.174 232.512 205.296 232.022 205.296 231.456C205.296 230.88 205.174 230.39 204.928 229.984C204.694 229.568 204.352 229.248 203.904 229.024C203.467 228.8 202.939 228.688 202.32 228.688C201.712 228.688 201.184 228.8 200.736 229.024C200.288 229.248 199.942 229.568 199.696 229.984C199.462 230.39 199.344 230.88 199.344 231.456C199.344 232.022 199.462 232.512 199.696 232.928C199.942 233.334 200.288 233.648 200.736 233.872C201.184 234.096 201.712 234.208 202.32 234.208ZM215.174 236.24C214.096 236.24 213.131 236.043 212.278 235.648C211.435 235.243 210.768 234.678 210.278 233.952C209.798 233.227 209.558 232.384 209.558 231.424C209.558 230.475 209.787 229.643 210.246 228.928C210.715 228.214 211.355 227.659 212.166 227.264C212.976 226.859 213.899 226.656 214.934 226.656C215.99 226.656 216.896 226.891 217.654 227.36C218.411 227.819 218.992 228.47 219.398 229.312C219.814 230.155 220.022 231.147 220.022 232.288H211.702V230.512H218.582L217.542 231.152C217.499 230.619 217.366 230.166 217.142 229.792C216.928 229.419 216.635 229.131 216.262 228.928C215.888 228.726 215.451 228.624 214.95 228.624C214.406 228.624 213.931 228.736 213.526 228.96C213.131 229.174 212.822 229.478 212.598 229.872C212.384 230.256 212.278 230.71 212.278 231.232C212.278 231.862 212.416 232.4 212.694 232.848C212.971 233.296 213.376 233.638 213.91 233.872C214.443 234.107 215.088 234.224 215.846 234.224C216.528 234.224 217.216 234.128 217.91 233.936C218.603 233.734 219.227 233.451 219.782 233.088V234.88C219.184 235.307 218.486 235.643 217.686 235.888C216.896 236.123 216.059 236.24 215.174 236.24ZM222.064 236V226.896H224.736V233.84L223.952 233.568L229.376 226.896H232.288L224.464 236H222.064ZM229.504 236L226.784 231.536L228.752 230.016L232.56 236H229.504ZM236.783 227.824H239.455V236H236.783V227.824ZM233.167 226.896H243.071V228.944H233.167V226.896ZM244.774 236V226.896H247.398V234.592L246.742 234.416L252.23 226.896H255.67V236H253.046V228.16L253.702 228.352L248.118 236H244.774ZM259.633 236.144C259.185 236.144 258.811 236 258.513 235.712C258.225 235.424 258.081 235.062 258.081 234.624C258.081 234.187 258.225 233.824 258.513 233.536C258.811 233.248 259.185 233.104 259.633 233.104C260.091 233.104 260.465 233.248 260.753 233.536C261.051 233.824 261.201 234.187 261.201 234.624C261.201 235.062 261.051 235.424 260.753 235.712C260.465 236 260.091 236.144 259.633 236.144ZM259.633 230.48C259.185 230.48 258.811 230.336 258.513 230.048C258.225 229.76 258.081 229.398 258.081 228.96C258.081 228.523 258.225 228.16 258.513 227.872C258.811 227.584 259.185 227.44 259.633 227.44C260.091 227.44 260.465 227.584 260.753 227.872C261.051 228.16 261.201 228.523 261.201 228.96C261.201 229.398 261.051 229.76 260.753 230.048C260.465 230.336 260.091 230.48 259.633 230.48Z" fill="white"/>
<path d="M287.713 223.8C289.239 223.8 290.497 224.344 291.489 225.432C292.492 226.51 292.993 227.832 292.993 229.4C292.993 230.968 292.492 232.296 291.489 233.384C290.497 234.462 289.239 235 287.713 235H283.393V223.8H287.713ZM287.713 233.944C288.94 233.944 289.943 233.507 290.721 232.632C291.511 231.758 291.905 230.68 291.905 229.4C291.905 228.12 291.511 227.043 290.721 226.168C289.943 225.294 288.94 224.856 287.713 224.856H284.513V233.944H287.713ZM300.939 227H301.995V235H300.939V233.752C300.342 234.712 299.446 235.192 298.251 235.192C297.28 235.192 296.512 234.899 295.947 234.312C295.392 233.715 295.115 232.915 295.115 231.912V227H296.171V231.912C296.171 232.627 296.358 233.182 296.731 233.576C297.115 233.971 297.654 234.168 298.347 234.168C299.115 234.168 299.739 233.928 300.219 233.448C300.699 232.958 300.939 232.206 300.939 231.192V227ZM308.437 235.192C307.232 235.192 306.229 234.792 305.429 233.992C304.629 233.182 304.229 232.184 304.229 231C304.229 229.816 304.629 228.824 305.429 228.024C306.229 227.214 307.232 226.808 308.437 226.808C309.226 226.808 309.936 227 310.565 227.384C311.194 227.758 311.653 228.264 311.941 228.904L311.077 229.4C310.864 228.92 310.517 228.542 310.037 228.264C309.568 227.976 309.034 227.832 308.437 227.832C307.552 227.832 306.805 228.142 306.197 228.76C305.589 229.368 305.285 230.115 305.285 231C305.285 231.886 305.589 232.638 306.197 233.256C306.805 233.864 307.552 234.168 308.437 234.168C309.034 234.168 309.568 234.03 310.037 233.752C310.506 233.464 310.874 233.08 311.141 232.6L312.021 233.112C311.69 233.752 311.205 234.259 310.565 234.632C309.925 235.006 309.216 235.192 308.437 235.192ZM320.481 235H319.073L315.073 231.144V235H314.017V223.8H315.073V230.536L318.881 227H320.321L316.193 230.84L320.481 235ZM324.163 225.88H323.139L321.603 223.8H322.883L324.163 225.88ZM326.918 229.096C326.918 229.459 327.078 229.747 327.398 229.96C327.718 230.174 328.108 230.339 328.566 230.456C329.025 230.574 329.484 230.707 329.942 230.856C330.401 230.995 330.79 231.235 331.11 231.576C331.43 231.907 331.59 232.344 331.59 232.888C331.59 233.571 331.318 234.126 330.774 234.552C330.241 234.979 329.548 235.192 328.694 235.192C327.926 235.192 327.27 235.022 326.726 234.68C326.193 234.339 325.82 233.896 325.606 233.352L326.502 232.824C326.652 233.24 326.918 233.571 327.302 233.816C327.697 234.051 328.161 234.168 328.694 234.168C329.217 234.168 329.654 234.067 330.006 233.864C330.358 233.651 330.534 233.326 330.534 232.888C330.534 232.526 330.374 232.238 330.054 232.024C329.734 231.811 329.345 231.646 328.886 231.528C328.428 231.411 327.969 231.283 327.51 231.144C327.052 230.995 326.662 230.755 326.342 230.424C326.022 230.083 325.862 229.64 325.862 229.096C325.862 228.446 326.118 227.902 326.63 227.464C327.153 227.027 327.809 226.808 328.598 226.808C329.249 226.808 329.82 226.958 330.31 227.256C330.801 227.544 331.164 227.939 331.398 228.44L330.518 228.952C330.209 228.206 329.569 227.832 328.598 227.832C328.14 227.832 327.745 227.944 327.414 228.168C327.084 228.382 326.918 228.691 326.918 229.096ZM339.592 233.944H344.712V235H338.472V223.8H339.592V233.944ZM353.11 227H354.166V235H353.11V233.432C352.374 234.606 351.296 235.192 349.878 235.192C348.736 235.192 347.76 234.787 346.95 233.976C346.15 233.166 345.75 232.174 345.75 231C345.75 229.827 346.15 228.835 346.95 228.024C347.76 227.214 348.736 226.808 349.878 226.808C351.296 226.808 352.374 227.395 353.11 228.568V227ZM347.718 233.256C348.326 233.864 349.072 234.168 349.958 234.168C350.843 234.168 351.59 233.864 352.198 233.256C352.806 232.638 353.11 231.886 353.11 231C353.11 230.115 352.806 229.368 352.198 228.76C351.59 228.142 350.843 227.832 349.958 227.832C349.072 227.832 348.326 228.142 347.718 228.76C347.11 229.368 346.806 230.115 346.806 231C346.806 231.886 347.11 232.638 347.718 233.256ZM363.345 235H361.937L357.937 231.144V235H356.881V223.8H357.937V230.536L361.745 227H363.185L359.057 230.84L363.345 235ZM368.167 226.808C369.351 226.808 370.305 227.23 371.031 228.072C371.767 228.904 372.135 229.891 372.135 231.032C372.135 231.15 372.124 231.315 372.103 231.528H365.079C365.185 232.339 365.527 232.984 366.103 233.464C366.689 233.934 367.409 234.168 368.263 234.168C368.871 234.168 369.393 234.046 369.831 233.8C370.279 233.544 370.615 233.214 370.839 232.808L371.767 233.352C371.415 233.918 370.935 234.366 370.327 234.696C369.719 235.027 369.025 235.192 368.247 235.192C366.988 235.192 365.964 234.798 365.175 234.008C364.385 233.219 363.991 232.216 363.991 231C363.991 229.806 364.38 228.808 365.159 228.008C365.937 227.208 366.94 226.808 368.167 226.808ZM368.167 227.832C367.335 227.832 366.636 228.083 366.071 228.584C365.516 229.075 365.185 229.715 365.079 230.504H371.047C370.94 229.662 370.615 229.006 370.071 228.536C369.527 228.067 368.892 227.832 368.167 227.832ZM284.833 256.6C283.66 254.254 283.073 251.854 283.073 249.4C283.073 246.947 283.66 244.547 284.833 242.2H285.889C284.716 244.547 284.129 246.947 284.129 249.4C284.129 251.854 284.716 254.254 285.889 256.6H284.833ZM294.427 255H293.019L289.019 251.144V255H287.963V247H289.019V250.536L292.827 247H294.267L290.139 250.84L294.427 255ZM302.257 253.992C301.446 254.792 300.454 255.192 299.281 255.192C298.107 255.192 297.11 254.792 296.289 253.992C295.478 253.182 295.073 252.184 295.073 251C295.073 249.816 295.478 248.824 296.289 248.024C297.11 247.214 298.107 246.808 299.281 246.808C300.454 246.808 301.446 247.214 302.257 248.024C303.078 248.824 303.489 249.816 303.489 251C303.489 252.184 303.078 253.182 302.257 253.992ZM297.041 253.256C297.649 253.864 298.395 254.168 299.281 254.168C300.166 254.168 300.913 253.864 301.521 253.256C302.129 252.638 302.433 251.886 302.433 251C302.433 250.115 302.129 249.368 301.521 248.76C300.913 248.142 300.166 247.832 299.281 247.832C298.395 247.832 297.649 248.142 297.041 248.76C296.433 249.368 296.129 250.115 296.129 251C296.129 251.886 296.433 252.638 297.041 253.256ZM311.4 247H312.456V255H311.4V251.512H306.792V255H305.736V247H306.792V250.488H311.4V247ZM320.929 247V248.024H318.097V255H317.041V248.024H314.209V247H320.929ZM326.079 246.808C327.263 246.808 328.218 247.23 328.943 248.072C329.679 248.904 330.047 249.891 330.047 251.032C330.047 251.15 330.037 251.315 330.015 251.528H322.991C323.098 252.339 323.439 252.984 324.015 253.464C324.602 253.934 325.322 254.168 326.175 254.168C326.783 254.168 327.306 254.046 327.743 253.8C328.191 253.544 328.527 253.214 328.751 252.808L329.679 253.352C329.327 253.918 328.847 254.366 328.239 254.696C327.631 255.027 326.938 255.192 326.159 255.192C324.901 255.192 323.877 254.798 323.087 254.008C322.298 253.219 321.903 252.216 321.903 251C321.903 249.806 322.293 248.808 323.071 248.008C323.85 247.208 324.853 246.808 326.079 246.808ZM326.079 247.832C325.247 247.832 324.549 248.083 323.983 248.584C323.429 249.075 323.098 249.715 322.991 250.504H328.959C328.853 249.662 328.527 249.006 327.983 248.536C327.439 248.067 326.805 247.832 326.079 247.832ZM337.871 247H338.927V255H337.871V251.512H333.263V255H332.207V247H333.263V250.488H337.871V247ZM347.4 247V248.024H344.568V255H343.512V248.024H340.68V247H347.4ZM349.583 256.6H348.527C349.7 254.254 350.287 251.854 350.287 249.4C350.287 246.947 349.7 244.547 348.527 242.2H349.583C350.756 244.547 351.343 246.947 351.343 249.4C351.343 251.854 350.756 254.254 349.583 256.6ZM355.657 253.64L354.697 257.24H353.737L354.377 253.64H355.657ZM289.633 263.8V264.856H284.513V275H283.393V263.8H289.633ZM294.251 266.808C295.393 266.808 296.363 267.214 297.163 268.024C297.974 268.835 298.379 269.827 298.379 271C298.379 272.174 297.974 273.166 297.163 273.976C296.363 274.787 295.393 275.192 294.251 275.192C292.833 275.192 291.755 274.606 291.019 273.432V278.2H289.963V267H291.019V268.568C291.755 267.395 292.833 266.808 294.251 266.808ZM291.931 273.256C292.539 273.864 293.286 274.168 294.171 274.168C295.057 274.168 295.803 273.864 296.411 273.256C297.019 272.638 297.323 271.886 297.323 271C297.323 270.115 297.019 269.368 296.411 268.76C295.803 268.142 295.057 267.832 294.171 267.832C293.286 267.832 292.539 268.142 291.931 268.76C291.323 269.368 291.019 270.115 291.019 271C291.019 271.886 291.323 272.638 291.931 273.256ZM307.319 273.992C306.508 274.792 305.516 275.192 304.343 275.192C303.17 275.192 302.172 274.792 301.351 273.992C300.54 273.182 300.135 272.184 300.135 271C300.135 269.816 300.54 268.824 301.351 268.024C302.172 267.214 303.17 266.808 304.343 266.808C305.516 266.808 306.508 267.214 307.319 268.024C308.14 268.824 308.551 269.816 308.551 271C308.551 272.184 308.14 273.182 307.319 273.992ZM302.103 273.256C302.711 273.864 303.458 274.168 304.343 274.168C305.228 274.168 305.975 273.864 306.583 273.256C307.191 272.638 307.495 271.886 307.495 271C307.495 270.115 307.191 269.368 306.583 268.76C305.975 268.142 305.228 267.832 304.343 267.832C303.458 267.832 302.711 268.142 302.103 268.76C301.495 269.368 301.191 270.115 301.191 271C301.191 271.886 301.495 272.638 302.103 273.256ZM316.462 267H317.518V275H316.462V271.512H311.854V275H310.798V267H311.854V270.488H316.462V267ZM326.935 273.992C326.125 274.792 325.133 275.192 323.959 275.192C322.786 275.192 321.789 274.792 320.967 273.992C320.157 273.182 319.751 272.184 319.751 271C319.751 269.816 320.157 268.824 320.967 268.024C321.789 267.214 322.786 266.808 323.959 266.808C325.133 266.808 326.125 267.214 326.935 268.024C327.757 268.824 328.167 269.816 328.167 271C328.167 272.184 327.757 273.182 326.935 273.992ZM321.719 273.256C322.327 273.864 323.074 274.168 323.959 274.168C324.845 274.168 325.591 273.864 326.199 273.256C326.807 272.638 327.111 271.886 327.111 271C327.111 270.115 326.807 269.368 326.199 268.76C325.591 268.142 324.845 267.832 323.959 267.832C323.074 267.832 322.327 268.142 321.719 268.76C321.111 269.368 320.807 270.115 320.807 271C320.807 271.886 321.111 272.638 321.719 273.256ZM336.495 276.6C335.321 274.254 334.735 271.854 334.735 269.4C334.735 266.947 335.321 264.547 336.495 262.2H337.551C336.377 264.547 335.791 266.947 335.791 269.4C335.791 271.854 336.377 274.254 337.551 276.6H336.495ZM343.353 275.192C342.147 275.192 341.145 274.792 340.345 273.992C339.545 273.182 339.145 272.184 339.145 271C339.145 269.816 339.545 268.824 340.345 268.024C341.145 267.214 342.147 266.808 343.353 266.808C344.142 266.808 344.851 267 345.481 267.384C346.11 267.758 346.569 268.264 346.857 268.904L345.993 269.4C345.779 268.92 345.433 268.542 344.953 268.264C344.483 267.976 343.95 267.832 343.353 267.832C342.467 267.832 341.721 268.142 341.113 268.76C340.505 269.368 340.201 270.115 340.201 271C340.201 271.886 340.505 272.638 341.113 273.256C341.721 273.864 342.467 274.168 343.353 274.168C343.95 274.168 344.483 274.03 344.953 273.752C345.422 273.464 345.79 273.08 346.057 272.6L346.937 273.112C346.606 273.752 346.121 274.259 345.481 274.632C344.841 275.006 344.131 275.192 343.353 275.192ZM354.536 267V268.024H351.704V275H350.648V268.024H347.816V267H354.536ZM362.695 273.992C361.884 274.792 360.892 275.192 359.719 275.192C358.545 275.192 357.548 274.792 356.727 273.992C355.916 273.182 355.511 272.184 355.511 271C355.511 269.816 355.916 268.824 356.727 268.024C357.548 267.214 358.545 266.808 359.719 266.808C360.892 266.808 361.884 267.214 362.695 268.024C363.516 268.824 363.927 269.816 363.927 271C363.927 272.184 363.516 273.182 362.695 273.992ZM357.479 273.256C358.087 273.864 358.833 274.168 359.719 274.168C360.604 274.168 361.351 273.864 361.959 273.256C362.567 272.638 362.871 271.886 362.871 271C362.871 270.115 362.567 269.368 361.959 268.76C361.351 268.142 360.604 267.832 359.719 267.832C358.833 267.832 358.087 268.142 357.479 268.76C356.871 269.368 356.567 270.115 356.567 271C356.567 271.886 356.871 272.638 357.479 273.256ZM370.462 266.808C371.603 266.808 372.574 267.214 373.374 268.024C374.185 268.835 374.59 269.827 374.59 271C374.59 272.174 374.185 273.166 373.374 273.976C372.574 274.787 371.603 275.192 370.462 275.192C369.043 275.192 367.966 274.606 367.23 273.432V278.2H366.174V267H367.23V268.568C367.966 267.395 369.043 266.808 370.462 266.808ZM368.142 273.256C368.75 273.864 369.497 274.168 370.382 274.168C371.267 274.168 372.014 273.864 372.622 273.256C373.23 272.638 373.534 271.886 373.534 271C373.534 270.115 373.23 269.368 372.622 268.76C372.014 268.142 371.267 267.832 370.382 267.832C369.497 267.832 368.75 268.142 368.142 268.76C367.534 269.368 367.23 270.115 367.23 271C367.23 271.886 367.534 272.638 368.142 273.256ZM377.898 265.08C377.748 265.23 377.567 265.304 377.354 265.304C377.14 265.304 376.959 265.23 376.81 265.08C376.66 264.931 376.586 264.75 376.586 264.536C376.586 264.323 376.66 264.142 376.81 263.992C376.959 263.843 377.14 263.768 377.354 263.768C377.567 263.768 377.748 263.843 377.898 263.992C378.047 264.142 378.122 264.323 378.122 264.536C378.122 264.75 378.047 264.931 377.898 265.08ZM376.826 275V267H377.882V275H376.826ZM384.331 275.192C383.125 275.192 382.123 274.792 381.323 273.992C380.523 273.182 380.123 272.184 380.123 271C380.123 269.816 380.523 268.824 381.323 268.024C382.123 267.214 383.125 266.808 384.331 266.808C385.12 266.808 385.829 267 386.459 267.384C387.088 267.758 387.547 268.264 387.835 268.904L386.971 269.4C386.757 268.92 386.411 268.542 385.931 268.264C385.461 267.976 384.928 267.832 384.331 267.832C383.445 267.832 382.699 268.142 382.091 268.76C381.483 269.368 381.179 270.115 381.179 271C381.179 271.886 381.483 272.638 382.091 273.256C382.699 273.864 383.445 274.168 384.331 274.168C384.928 274.168 385.461 274.03 385.931 273.752C386.4 273.464 386.768 273.08 387.035 272.6L387.915 273.112C387.584 273.752 387.099 274.259 386.459 274.632C385.819 275.006 385.109 275.192 384.331 275.192ZM390.327 276.6H389.271C390.444 274.254 391.031 271.854 391.031 269.4C391.031 266.947 390.444 264.547 389.271 262.2H390.327C391.5 264.547 392.087 266.947 392.087 269.4C392.087 271.854 391.5 274.254 390.327 276.6ZM396.401 273.64L395.441 277.24H394.481L395.121 273.64H396.401ZM291.393 293.944H292.593V297.144H291.473V295H283.473V297.144H282.353V293.944H283.265C284.001 293.08 284.369 291.747 284.369 289.944V283.8H291.393V293.944ZM284.593 293.944H290.273V284.856H285.489V289.976C285.489 291.747 285.191 293.07 284.593 293.944ZM298.144 286.808C299.328 286.808 300.282 287.23 301.008 288.072C301.744 288.904 302.112 289.891 302.112 291.032C302.112 291.15 302.101 291.315 302.08 291.528H295.056C295.162 292.339 295.504 292.984 296.08 293.464C296.666 293.934 297.386 294.168 298.24 294.168C298.848 294.168 299.37 294.046 299.808 293.8C300.256 293.544 300.592 293.214 300.816 292.808L301.744 293.352C301.392 293.918 300.912 294.366 300.304 294.696C299.696 295.027 299.002 295.192 298.224 295.192C296.965 295.192 295.941 294.798 295.152 294.008C294.362 293.219 293.968 292.216 293.968 291C293.968 289.806 294.357 288.808 295.136 288.008C295.914 287.208 296.917 286.808 298.144 286.808ZM298.144 287.832C297.312 287.832 296.613 288.083 296.048 288.584C295.493 289.075 295.162 289.715 295.056 290.504H301.024C300.917 289.662 300.592 289.006 300.048 288.536C299.504 288.067 298.869 287.832 298.144 287.832ZM309.391 287V288.024H305.327V295H304.271V287H309.391ZM317.402 287H318.522L315.098 295.736C314.789 296.526 314.346 297.144 313.77 297.592C313.205 298.051 312.57 298.254 311.866 298.2V297.208C312.826 297.315 313.557 296.76 314.058 295.544L314.266 295.048L310.682 287H311.802L314.81 293.704L317.402 287ZM323.694 295.192C322.488 295.192 321.486 294.792 320.686 293.992C319.886 293.182 319.486 292.184 319.486 291C319.486 289.816 319.886 288.824 320.686 288.024C321.486 287.214 322.488 286.808 323.694 286.808C324.483 286.808 325.192 287 325.822 287.384C326.451 287.758 326.91 288.264 327.198 288.904L326.334 289.4C326.12 288.92 325.774 288.542 325.294 288.264C324.824 287.976 324.291 287.832 323.694 287.832C322.808 287.832 322.062 288.142 321.454 288.76C320.846 289.368 320.542 290.115 320.542 291C320.542 291.886 320.846 292.638 321.454 293.256C322.062 293.864 322.808 294.168 323.694 294.168C324.291 294.168 324.824 294.03 325.294 293.752C325.763 293.464 326.131 293.08 326.398 292.6L327.278 293.112C326.947 293.752 326.462 294.259 325.822 294.632C325.182 295.006 324.472 295.192 323.694 295.192ZM334.878 287V288.024H332.046V295H330.99V288.024H328.158V287H334.878ZM343.212 287H344.268V295H343.212V293.432C342.476 294.606 341.399 295.192 339.98 295.192C338.839 295.192 337.863 294.787 337.052 293.976C336.252 293.166 335.852 292.174 335.852 291C335.852 289.827 336.252 288.835 337.052 288.024C337.863 287.214 338.839 286.808 339.98 286.808C341.399 286.808 342.476 287.395 343.212 288.568V287ZM337.82 293.256C338.428 293.864 339.175 294.168 340.06 294.168C340.945 294.168 341.692 293.864 342.3 293.256C342.908 292.638 343.212 291.886 343.212 291C343.212 290.115 342.908 289.368 342.3 288.76C341.692 288.142 340.945 287.832 340.06 287.832C339.175 287.832 338.428 288.142 337.82 288.76C337.212 289.368 336.908 290.115 336.908 291C336.908 291.886 337.212 292.638 337.82 293.256ZM352.744 287V288.024H349.912V295H348.856V288.024H346.024V287H352.744ZM360.902 293.992C360.092 294.792 359.1 295.192 357.926 295.192C356.753 295.192 355.756 294.792 354.934 293.992C354.124 293.182 353.718 292.184 353.718 291C353.718 289.816 354.124 288.824 354.934 288.024C355.756 287.214 356.753 286.808 357.926 286.808C359.1 286.808 360.092 287.214 360.902 288.024C361.724 288.824 362.134 289.816 362.134 291C362.134 292.184 361.724 293.182 360.902 293.992ZM355.686 293.256C356.294 293.864 357.041 294.168 357.926 294.168C358.812 294.168 359.558 293.864 360.166 293.256C360.774 292.638 361.078 291.886 361.078 291C361.078 290.115 360.774 289.368 360.166 288.76C359.558 288.142 358.812 287.832 357.926 287.832C357.041 287.832 356.294 288.142 355.686 288.76C355.078 289.368 354.774 290.115 354.774 291C354.774 291.886 355.078 292.638 355.686 293.256ZM368.669 286.808C369.811 286.808 370.781 287.214 371.581 288.024C372.392 288.835 372.797 289.827 372.797 291C372.797 292.174 372.392 293.166 371.581 293.976C370.781 294.787 369.811 295.192 368.669 295.192C367.251 295.192 366.173 294.606 365.437 293.432V298.2H364.381V287H365.437V288.568C366.173 287.395 367.251 286.808 368.669 286.808ZM366.349 293.256C366.957 293.864 367.704 294.168 368.589 294.168C369.475 294.168 370.221 293.864 370.829 293.256C371.437 292.638 371.741 291.886 371.741 291C371.741 290.115 371.437 289.368 370.829 288.76C370.221 288.142 369.475 287.832 368.589 287.832C367.704 287.832 366.957 288.142 366.349 288.76C365.741 289.368 365.437 290.115 365.437 291C365.437 291.886 365.741 292.638 366.349 293.256ZM381.497 295H380.089L376.089 291.144V295H375.033V287H376.089V290.536L379.897 287H381.337L377.209 290.84L381.497 295ZM389.503 287H390.559V295H389.503V293.432C388.767 294.606 387.689 295.192 386.271 295.192C385.129 295.192 384.153 294.787 383.343 293.976C382.543 293.166 382.143 292.174 382.143 291C382.143 289.827 382.543 288.835 383.343 288.024C384.153 287.214 385.129 286.808 386.271 286.808C387.689 286.808 388.767 287.395 389.503 288.568V287ZM384.111 293.256C384.719 293.864 385.465 294.168 386.351 294.168C387.236 294.168 387.983 293.864 388.591 293.256C389.199 292.638 389.503 291.886 389.503 291C389.503 290.115 389.199 289.368 388.591 288.76C387.983 288.142 387.236 287.832 386.351 287.832C385.465 287.832 384.719 288.142 384.111 288.76C383.503 289.368 383.199 290.115 383.199 291C383.199 291.886 383.503 292.638 384.111 293.256ZM284.833 316.6C283.66 314.254 283.073 311.854 283.073 309.4C283.073 306.947 283.66 304.547 284.833 302.2H285.889C284.716 304.547 284.129 306.947 284.129 309.4C284.129 311.854 284.716 314.254 285.889 316.6H284.833ZM291.691 315.192C290.486 315.192 289.483 314.792 288.683 313.992C287.883 313.182 287.483 312.184 287.483 311C287.483 309.816 287.883 308.824 288.683 308.024C289.483 307.214 290.486 306.808 291.691 306.808C292.481 306.808 293.19 307 293.819 307.384C294.449 307.758 294.907 308.264 295.195 308.904L294.331 309.4C294.118 308.92 293.771 308.542 293.291 308.264C292.822 307.976 292.289 307.832 291.691 307.832C290.806 307.832 290.059 308.142 289.451 308.76C288.843 309.368 288.539 310.115 288.539 311C288.539 311.886 288.843 312.638 289.451 313.256C290.059 313.864 290.806 314.168 291.691 314.168C292.289 314.168 292.822 314.03 293.291 313.752C293.761 313.464 294.129 313.08 294.395 312.6L295.275 313.112C294.945 313.752 294.459 314.259 293.819 314.632C293.179 315.006 292.47 315.192 291.691 315.192ZM302.875 307V308.024H300.043V315H298.987V308.024H296.155V307H302.875ZM308.93 306.808C310.071 306.808 311.042 307.214 311.842 308.024C312.653 308.835 313.058 309.827 313.058 311C313.058 312.174 312.653 313.166 311.842 313.976C311.042 314.787 310.071 315.192 308.93 315.192C307.511 315.192 306.434 314.606 305.698 313.432V318.2H304.642V307H305.698V308.568C306.434 307.395 307.511 306.808 308.93 306.808ZM306.61 313.256C307.218 313.864 307.965 314.168 308.85 314.168C309.735 314.168 310.482 313.864 311.09 313.256C311.698 312.638 312.002 311.886 312.002 311C312.002 310.115 311.698 309.368 311.09 308.76C310.482 308.142 309.735 307.832 308.85 307.832C307.965 307.832 307.218 308.142 306.61 308.76C306.002 309.368 305.698 310.115 305.698 311C305.698 311.886 306.002 312.638 306.61 313.256ZM322.174 307H323.23V315H322.174V313.432C321.438 314.606 320.361 315.192 318.942 315.192C317.801 315.192 316.825 314.787 316.014 313.976C315.214 313.166 314.814 312.174 314.814 311C314.814 309.827 315.214 308.835 316.014 308.024C316.825 307.214 317.801 306.808 318.942 306.808C320.361 306.808 321.438 307.395 322.174 308.568V307ZM316.782 313.256C317.39 313.864 318.137 314.168 319.022 314.168C319.907 314.168 320.654 313.864 321.262 313.256C321.87 312.638 322.174 311.886 322.174 311C322.174 310.115 321.87 309.368 321.262 308.76C320.654 308.142 319.907 307.832 319.022 307.832C318.137 307.832 317.39 308.142 316.782 308.76C316.174 309.368 315.87 310.115 315.87 311C315.87 311.886 316.174 312.638 316.782 313.256ZM331.706 307V308.024H328.874V315H327.818V308.024H324.986V307H331.706ZM336.856 306.808C338.04 306.808 338.995 307.23 339.72 308.072C340.456 308.904 340.824 309.891 340.824 311.032C340.824 311.15 340.813 311.315 340.792 311.528H333.768C333.875 312.339 334.216 312.984 334.792 313.464C335.379 313.934 336.099 314.168 336.952 314.168C337.56 314.168 338.083 314.046 338.52 313.8C338.968 313.544 339.304 313.214 339.528 312.808L340.456 313.352C340.104 313.918 339.624 314.366 339.016 314.696C338.408 315.027 337.715 315.192 336.936 315.192C335.677 315.192 334.653 314.798 333.864 314.008C333.075 313.219 332.68 312.216 332.68 311C332.68 309.806 333.069 308.808 333.848 308.008C334.627 307.208 335.629 306.808 336.856 306.808ZM336.856 307.832C336.024 307.832 335.325 308.083 334.76 308.584C334.205 309.075 333.875 309.715 333.768 310.504H339.736C339.629 309.662 339.304 309.006 338.76 308.536C338.216 308.067 337.581 307.832 336.856 307.832ZM348.104 307V308.024H344.04V315H342.984V307H348.104ZM350.942 305.08C350.793 305.23 350.611 305.304 350.398 305.304C350.185 305.304 350.003 305.23 349.854 305.08C349.705 304.931 349.63 304.75 349.63 304.536C349.63 304.323 349.705 304.142 349.854 303.992C350.003 303.843 350.185 303.768 350.398 303.768C350.611 303.768 350.793 303.843 350.942 303.992C351.091 304.142 351.166 304.323 351.166 304.536C351.166 304.75 351.091 304.931 350.942 305.08ZM349.87 315V307H350.926V315H349.87ZM359.407 307V315H358.351V311.928H356.975L354.511 315H353.167L355.695 311.896C355.055 311.8 354.527 311.534 354.111 311.096C353.695 310.659 353.487 310.12 353.487 309.48C353.487 308.755 353.743 308.163 354.255 307.704C354.778 307.235 355.412 307 356.159 307H359.407ZM356.159 310.936H358.351V308.024H356.159C355.711 308.024 355.327 308.158 355.007 308.424C354.698 308.691 354.543 309.043 354.543 309.48C354.543 309.918 354.698 310.27 355.007 310.536C355.327 310.803 355.711 310.936 356.159 310.936ZM362.543 316.6H361.487C362.66 314.254 363.247 311.854 363.247 309.4C363.247 306.947 362.66 304.547 361.487 302.2H362.543C363.716 304.547 364.303 306.947 364.303 309.4C364.303 311.854 363.716 314.254 362.543 316.6ZM380.761 313.512C379.641 314.632 378.27 315.192 376.649 315.192C375.028 315.192 373.657 314.632 372.537 313.512C371.417 312.382 370.857 311.011 370.857 309.4C370.857 307.79 371.417 306.424 372.537 305.304C373.657 304.174 375.028 303.608 376.649 303.608C378.27 303.608 379.641 304.174 380.761 305.304C381.881 306.424 382.441 307.79 382.441 309.4C382.441 311.011 381.881 312.382 380.761 313.512ZM373.321 312.744C374.217 313.651 375.326 314.104 376.649 314.104C377.972 314.104 379.081 313.651 379.977 312.744C380.873 311.827 381.321 310.712 381.321 309.4C381.321 308.088 380.873 306.979 379.977 306.072C379.081 305.155 377.972 304.696 376.649 304.696C375.326 304.696 374.217 305.155 373.321 306.072C372.425 306.979 371.977 308.088 371.977 309.4C371.977 310.712 372.425 311.827 373.321 312.744ZM392.676 315H391.204L385.956 309.576V315H384.836V303.8H385.956V308.92L391.044 303.8H392.516L387.14 309.24L392.676 315ZM402.438 315H400.966L395.718 309.576V315H394.598V303.8H395.718V308.92L400.806 303.8H402.278L396.902 309.24L402.438 315ZM412.67 313.512C411.55 314.632 410.179 315.192 408.558 315.192C406.936 315.192 405.566 314.632 404.446 313.512C403.326 312.382 402.766 311.011 402.766 309.4C402.766 307.79 403.326 306.424 404.446 305.304C405.566 304.174 406.936 303.608 408.558 303.608C410.179 303.608 411.55 304.174 412.67 305.304C413.79 306.424 414.35 307.79 414.35 309.4C414.35 311.011 413.79 312.382 412.67 313.512ZM405.23 312.744C406.126 313.651 407.235 314.104 408.558 314.104C409.88 314.104 410.99 313.651 411.886 312.744C412.782 311.827 413.23 310.712 413.23 309.4C413.23 308.088 412.782 306.979 411.886 306.072C410.99 305.155 409.88 304.696 408.558 304.696C407.235 304.696 406.126 305.155 405.23 306.072C404.334 306.979 403.886 308.088 403.886 309.4C403.886 310.712 404.334 311.827 405.23 312.744ZM284.833 336.6C283.66 334.254 283.073 331.854 283.073 329.4C283.073 326.947 283.66 324.547 284.833 322.2H285.889C284.716 324.547 284.129 326.947 284.129 329.4C284.129 331.854 284.716 334.254 285.889 336.6H284.833ZM291.691 335.192C290.486 335.192 289.483 334.792 288.683 333.992C287.883 333.182 287.483 332.184 287.483 331C287.483 329.816 287.883 328.824 288.683 328.024C289.483 327.214 290.486 326.808 291.691 326.808C292.481 326.808 293.19 327 293.819 327.384C294.449 327.758 294.907 328.264 295.195 328.904L294.331 329.4C294.118 328.92 293.771 328.542 293.291 328.264C292.822 327.976 292.289 327.832 291.691 327.832C290.806 327.832 290.059 328.142 289.451 328.76C288.843 329.368 288.539 330.115 288.539 331C288.539 331.886 288.843 332.638 289.451 333.256C290.059 333.864 290.806 334.168 291.691 334.168C292.289 334.168 292.822 334.03 293.291 333.752C293.761 333.464 294.129 333.08 294.395 332.6L295.275 333.112C294.945 333.752 294.459 334.259 293.819 334.632C293.179 335.006 292.47 335.192 291.691 335.192ZM302.875 327V328.024H300.043V335H298.987V328.024H296.155V327H302.875ZM311.034 333.992C310.223 334.792 309.231 335.192 308.058 335.192C306.884 335.192 305.887 334.792 305.066 333.992C304.255 333.182 303.85 332.184 303.85 331C303.85 329.816 304.255 328.824 305.066 328.024C305.887 327.214 306.884 326.808 308.058 326.808C309.231 326.808 310.223 327.214 311.034 328.024C311.855 328.824 312.266 329.816 312.266 331C312.266 332.184 311.855 333.182 311.034 333.992ZM305.818 333.256C306.426 333.864 307.172 334.168 308.058 334.168C308.943 334.168 309.69 333.864 310.298 333.256C310.906 332.638 311.21 331.886 311.21 331C311.21 330.115 310.906 329.368 310.298 328.76C309.69 328.142 308.943 327.832 308.058 327.832C307.172 327.832 306.426 328.142 305.818 328.76C305.21 329.368 304.906 330.115 304.906 331C304.906 331.886 305.21 332.638 305.818 333.256ZM318.801 326.808C319.942 326.808 320.913 327.214 321.713 328.024C322.523 328.835 322.929 329.827 322.929 331C322.929 332.174 322.523 333.166 321.713 333.976C320.913 334.787 319.942 335.192 318.801 335.192C317.382 335.192 316.305 334.606 315.569 333.432V338.2H314.513V327H315.569V328.568C316.305 327.395 317.382 326.808 318.801 326.808ZM316.481 333.256C317.089 333.864 317.835 334.168 318.721 334.168C319.606 334.168 320.353 333.864 320.961 333.256C321.569 332.638 321.873 331.886 321.873 331C321.873 330.115 321.569 329.368 320.961 328.76C320.353 328.142 319.606 327.832 318.721 327.832C317.835 327.832 317.089 328.142 316.481 328.76C315.873 329.368 315.569 330.115 315.569 331C315.569 331.886 315.873 332.638 316.481 333.256ZM326.237 325.08C326.087 325.23 325.906 325.304 325.693 325.304C325.479 325.304 325.298 325.23 325.149 325.08C324.999 324.931 324.925 324.75 324.925 324.536C324.925 324.323 324.999 324.142 325.149 323.992C325.298 323.843 325.479 323.768 325.693 323.768C325.906 323.768 326.087 323.843 326.237 323.992C326.386 324.142 326.461 324.323 326.461 324.536C326.461 324.75 326.386 324.931 326.237 325.08ZM325.165 335V327H326.221V335H325.165ZM332.669 335.192C331.464 335.192 330.461 334.792 329.661 333.992C328.861 333.182 328.461 332.184 328.461 331C328.461 329.816 328.861 328.824 329.661 328.024C330.461 327.214 331.464 326.808 332.669 326.808C333.459 326.808 334.168 327 334.797 327.384C335.427 327.758 335.885 328.264 336.173 328.904L335.309 329.4C335.096 328.92 334.749 328.542 334.269 328.264C333.8 327.976 333.267 327.832 332.669 327.832C331.784 327.832 331.037 328.142 330.429 328.76C329.821 329.368 329.517 330.115 329.517 331C329.517 331.886 329.821 332.638 330.429 333.256C331.037 333.864 331.784 334.168 332.669 334.168C333.267 334.168 333.8 334.03 334.269 333.752C334.739 333.464 335.107 333.08 335.373 332.6L336.253 333.112C335.923 333.752 335.437 334.259 334.797 334.632C334.157 335.006 333.448 335.192 332.669 335.192ZM338.666 336.6H337.61C338.783 334.254 339.37 331.854 339.37 329.4C339.37 326.947 338.783 324.547 337.61 322.2H338.666C339.839 324.547 340.426 326.947 340.426 329.4C340.426 331.854 339.839 334.254 338.666 336.6Z" fill="white"/>
<path d="M66.3693 374.448V369.6H68.6093L69.7613 369.632H78.4013L79.0573 369.6H82.2893V374.448H79.7453V372H68.9133V374.448H66.3693ZM68.9453 360H80.1933V371.136H77.4893V361.152L78.7053 362.368H70.4013L71.5373 361.488C71.6013 362.022 71.6439 362.55 71.6653 363.072C71.6866 363.595 71.6973 364.086 71.6973 364.544C71.6973 365.846 71.5959 366.95 71.3933 367.856C71.1906 368.752 70.8866 369.435 70.4813 369.904C70.0759 370.363 69.5746 370.592 68.9773 370.592L67.8573 369.648C68.3053 369.136 68.6359 368.416 68.8493 367.488C69.0733 366.55 69.1853 365.382 69.1853 363.984C69.1853 363.366 69.1639 362.72 69.1213 362.048C69.0786 361.376 69.0199 360.694 68.9453 360ZM89.1767 372.24C88.046 372.24 87.054 372.043 86.2007 371.648C85.3473 371.243 84.6807 370.683 84.2007 369.968C83.7207 369.243 83.4807 368.406 83.4807 367.456C83.4807 366.496 83.7207 365.659 84.2007 364.944C84.6807 364.219 85.3473 363.659 86.2007 363.264C87.054 362.859 88.046 362.656 89.1767 362.656C90.3073 362.656 91.2993 362.859 92.1527 363.264C93.006 363.659 93.6673 364.219 94.1367 364.944C94.6167 365.659 94.8567 366.496 94.8567 367.456C94.8567 368.406 94.6167 369.243 94.1367 369.968C93.6673 370.683 93.006 371.243 92.1527 371.648C91.2993 372.043 90.3073 372.24 89.1767 372.24ZM89.1767 370.208C89.7953 370.208 90.3233 370.096 90.7607 369.872C91.2087 369.648 91.55 369.334 91.7847 368.928C92.03 368.512 92.1527 368.022 92.1527 367.456C92.1527 366.88 92.03 366.39 91.7847 365.984C91.55 365.568 91.2087 365.248 90.7607 365.024C90.3233 364.8 89.7953 364.688 89.1767 364.688C88.5687 364.688 88.0407 364.8 87.5927 365.024C87.1447 365.248 86.798 365.568 86.5527 365.984C86.318 366.39 86.2007 366.88 86.2007 367.456C86.2007 368.022 86.318 368.512 86.5527 368.928C86.798 369.334 87.1447 369.648 87.5927 369.872C88.0407 370.096 88.5687 370.208 89.1767 370.208ZM107.342 368.288C107.235 369.067 106.931 369.755 106.43 370.352C105.939 370.95 105.304 371.414 104.526 371.744C103.747 372.075 102.878 372.24 101.918 372.24C100.83 372.24 99.8698 372.043 99.0378 371.648C98.2164 371.243 97.5711 370.678 97.1018 369.952C96.6431 369.227 96.4138 368.395 96.4138 367.456C96.4138 366.507 96.6431 365.675 97.1018 364.96C97.5711 364.235 98.2164 363.67 99.0378 363.264C99.8698 362.859 100.83 362.656 101.918 362.656C102.878 362.656 103.747 362.827 104.526 363.168C105.304 363.499 105.939 363.963 106.43 364.56C106.931 365.147 107.235 365.835 107.342 366.624H104.67C104.531 366.006 104.211 365.531 103.71 365.2C103.219 364.859 102.622 364.688 101.918 364.688C101.352 364.688 100.856 364.8 100.43 365.024C100.014 365.238 99.6938 365.552 99.4698 365.968C99.2458 366.374 99.1338 366.87 99.1338 367.456C99.1338 368.032 99.2458 368.528 99.4698 368.944C99.6938 369.35 100.014 369.664 100.43 369.888C100.856 370.102 101.352 370.208 101.918 370.208C102.632 370.208 103.235 370.032 103.726 369.68C104.227 369.328 104.542 368.864 104.67 368.288H107.342ZM109.009 372L109.521 367.456L109.009 362.896H116.017C116.892 362.896 117.585 363.104 118.097 363.52C118.609 363.926 118.865 364.48 118.865 365.184C118.865 365.846 118.609 366.384 118.097 366.8C117.585 367.206 116.87 367.446 115.953 367.52L116.145 367.072C117.212 367.104 118.022 367.328 118.577 367.744C119.142 368.15 119.425 368.72 119.425 369.456C119.425 370.246 119.137 370.87 118.561 371.328C117.996 371.776 117.217 372 116.225 372H109.009ZM111.585 371.408L110.561 370.272H115.409C115.868 370.272 116.204 370.182 116.417 370C116.63 369.808 116.737 369.542 116.737 369.2C116.737 368.891 116.62 368.64 116.385 368.448C116.15 368.246 115.766 368.144 115.233 368.144H111.105V366.624H114.881C115.329 366.624 115.654 366.534 115.857 366.352C116.07 366.171 116.177 365.926 116.177 365.616C116.177 365.328 116.081 365.094 115.889 364.912C115.708 364.731 115.409 364.64 114.993 364.64H110.577L111.585 363.504L112.081 367.456L111.585 371.408ZM121.432 362.8L122.76 363.056L124.104 362.8V372H121.432V362.8ZM122.76 361.856C122.28 361.856 121.885 361.734 121.576 361.488C121.277 361.232 121.128 360.896 121.128 360.48C121.128 360.054 121.277 359.718 121.576 359.472C121.885 359.216 122.28 359.088 122.76 359.088C123.251 359.088 123.645 359.216 123.944 359.472C124.243 359.718 124.392 360.054 124.392 360.48C124.392 360.896 124.243 361.232 123.944 361.488C123.645 361.734 123.251 361.856 122.76 361.856ZM138.967 369.984V374.24H136.647V372H128.135V374.24H125.815V369.984H128.359L128.951 370.032H135.575L136.103 369.984H138.967ZM127.783 362.896H137.287V371.392H134.615V363.664L135.847 364.896H129.111L130.183 363.936C130.279 364.395 130.338 364.832 130.359 365.248C130.381 365.654 130.391 366.032 130.391 366.384C130.391 367.899 130.162 369.083 129.703 369.936C129.245 370.779 128.599 371.2 127.767 371.2L126.679 370.288C127.533 369.67 127.959 368.192 127.959 365.856C127.959 365.398 127.943 364.923 127.911 364.432C127.879 363.931 127.837 363.419 127.783 362.896ZM142.333 372.144C141.885 372.144 141.511 372 141.213 371.712C140.925 371.424 140.781 371.062 140.781 370.624C140.781 370.187 140.925 369.824 141.213 369.536C141.511 369.248 141.885 369.104 142.333 369.104C142.791 369.104 143.165 369.248 143.453 369.536C143.751 369.824 143.901 370.187 143.901 370.624C143.901 371.062 143.751 371.424 143.453 371.712C143.165 372 142.791 372.144 142.333 372.144ZM142.333 366.48C141.885 366.48 141.511 366.336 141.213 366.048C140.925 365.76 140.781 365.398 140.781 364.96C140.781 364.523 140.925 364.16 141.213 363.872C141.511 363.584 141.885 363.44 142.333 363.44C142.791 363.44 143.165 363.584 143.453 363.872C143.751 364.16 143.901 364.523 143.901 364.96C143.901 365.398 143.751 365.76 143.453 366.048C143.165 366.336 142.791 366.48 142.333 366.48Z" fill="white"/>
<path d="M282.753 371V369.992L286.785 365.928C287.937 364.776 288.513 363.79 288.513 362.968C288.513 362.254 288.289 361.699 287.841 361.304C287.404 360.899 286.876 360.696 286.257 360.696C285.105 360.696 284.268 361.224 283.745 362.28L282.801 361.72C283.153 361.027 283.633 360.504 284.241 360.152C284.849 359.79 285.521 359.608 286.257 359.608C287.153 359.608 287.937 359.912 288.609 360.52C289.292 361.118 289.633 361.934 289.633 362.968C289.633 363.619 289.452 364.243 289.089 364.84C288.727 365.438 288.215 366.067 287.553 366.728L284.353 369.912H289.873V371H282.753ZM298.68 364.888V365.912H295.832V368.76H294.808V365.912H291.96V364.888H294.808V362.04H295.832V364.888H298.68ZM310.008 362.808C311.149 362.808 312.12 363.214 312.92 364.024C313.731 364.835 314.136 365.827 314.136 367C314.136 368.174 313.731 369.166 312.92 369.976C312.12 370.787 311.149 371.192 310.008 371.192C308.589 371.192 307.512 370.606 306.776 369.432V374.2H305.72V363H306.776V364.568C307.512 363.395 308.589 362.808 310.008 362.808ZM307.688 369.256C308.296 369.864 309.043 370.168 309.928 370.168C310.813 370.168 311.56 369.864 312.168 369.256C312.776 368.638 313.08 367.886 313.08 367C313.08 366.115 312.776 365.368 312.168 364.76C311.56 364.142 310.813 363.832 309.928 363.832C309.043 363.832 308.296 364.142 307.688 364.76C307.08 365.368 306.776 366.115 306.776 367C306.776 367.886 307.08 368.638 307.688 369.256ZM323.076 369.992C322.265 370.792 321.273 371.192 320.1 371.192C318.927 371.192 317.929 370.792 317.108 369.992C316.297 369.182 315.892 368.184 315.892 367C315.892 365.816 316.297 364.824 317.108 364.024C317.929 363.214 318.927 362.808 320.1 362.808C321.273 362.808 322.265 363.214 323.076 364.024C323.897 364.824 324.308 365.816 324.308 367C324.308 368.184 323.897 369.182 323.076 369.992ZM317.86 369.256C318.468 369.864 319.215 370.168 320.1 370.168C320.985 370.168 321.732 369.864 322.34 369.256C322.948 368.638 323.252 367.886 323.252 367C323.252 366.115 322.948 365.368 322.34 364.76C321.732 364.142 320.985 363.832 320.1 363.832C319.215 363.832 318.468 364.142 317.86 364.76C317.252 365.368 316.948 366.115 316.948 367C316.948 367.886 317.252 368.638 317.86 369.256ZM333.019 371H331.611L327.611 367.144V371H326.555V363H327.611V366.536L331.419 363H332.859L328.731 366.84L333.019 371ZM340.765 363H341.661V371H340.605V364.84L335.837 371H334.941V363H335.997V369.16L340.765 363Z" fill="white"/>
<path d="M70.1613 408L72.2253 404.432H72.2573L77.1213 396H80.0653L73.1053 408H70.1613ZM72.2253 406.256L66.2413 396H69.2333L74.0973 404.368L72.2253 406.256ZM80.9662 398.896H90.3742V408H87.7022V399.696L88.9342 400.912H82.2942L83.4462 399.92C83.4995 400.571 83.5422 401.174 83.5742 401.728C83.6168 402.272 83.6382 402.763 83.6382 403.2C83.6382 404.95 83.3768 406.219 82.8542 407.008C82.3422 407.798 81.5102 408.192 80.3582 408.192C80.0382 408.192 79.7288 408.155 79.4302 408.08C79.1422 408.016 78.8595 407.904 78.5822 407.744V405.808C78.7742 405.883 78.9608 405.942 79.1422 405.984C79.3342 406.016 79.5102 406.032 79.6702 406.032C80.2142 406.032 80.6035 405.787 80.8382 405.296C81.0835 404.795 81.2062 403.974 81.2062 402.832C81.2062 402.32 81.1848 401.734 81.1422 401.072C81.1102 400.411 81.0515 399.686 80.9662 398.896ZM102.671 408.24C101.551 408.24 100.569 408.043 99.7265 407.648C98.8839 407.243 98.2279 406.683 97.7585 405.968C97.2999 405.243 97.0705 404.406 97.0705 403.456C97.0705 402.496 97.2999 401.659 97.7585 400.944C98.2279 400.219 98.8839 399.659 99.7265 399.264C100.569 398.859 101.551 398.656 102.671 398.656C103.791 398.656 104.772 398.859 105.615 399.264C106.457 399.659 107.113 400.219 107.583 400.944C108.052 401.659 108.287 402.496 108.287 403.456C108.287 404.406 108.052 405.243 107.583 405.968C107.113 406.683 106.457 407.243 105.615 407.648C104.772 408.043 103.791 408.24 102.671 408.24ZM92.8625 408V398.896H95.5345V408H92.8625ZM94.3665 404.368V402.368H98.7665V404.368H94.3665ZM102.671 406.208C103.279 406.208 103.796 406.096 104.223 405.872C104.66 405.648 104.996 405.334 105.231 404.928C105.465 404.512 105.583 404.022 105.583 403.456C105.583 402.88 105.465 402.39 105.231 401.984C104.996 401.568 104.66 401.248 104.223 401.024C103.796 400.8 103.279 400.688 102.671 400.688C102.073 400.688 101.556 400.8 101.119 401.024C100.681 401.248 100.345 401.568 100.111 401.984C99.8759 402.39 99.7585 402.88 99.7585 403.456C99.7585 404.022 99.8759 404.512 100.111 404.928C100.345 405.334 100.681 405.648 101.119 405.872C101.556 406.096 102.073 406.208 102.671 406.208ZM115.895 408.24C114.647 408.24 113.581 408.006 112.695 407.536C111.81 407.056 111.133 406.368 110.663 405.472C110.194 404.576 109.959 403.494 109.959 402.224C109.959 400.336 110.466 398.848 111.479 397.76C112.493 396.672 113.943 396.048 115.831 395.888C116.599 395.824 117.234 395.771 117.735 395.728C118.237 395.686 118.647 395.643 118.967 395.6C119.298 395.547 119.575 395.494 119.799 395.44C120.023 395.376 120.242 395.307 120.455 395.232V397.456C120.231 397.542 119.943 397.622 119.591 397.696C119.25 397.76 118.813 397.814 118.279 397.856C117.757 397.899 117.111 397.942 116.343 397.984C114.946 398.048 113.906 398.432 113.223 399.136C112.541 399.84 112.199 400.854 112.199 402.176V402.608L112.103 402.416C112.317 401.84 112.642 401.344 113.079 400.928C113.517 400.512 114.039 400.198 114.647 399.984C115.266 399.76 115.933 399.648 116.647 399.648C117.575 399.648 118.386 399.824 119.079 400.176C119.773 400.518 120.311 401.003 120.695 401.632C121.09 402.262 121.287 402.998 121.287 403.84C121.287 404.726 121.063 405.499 120.615 406.16C120.167 406.822 119.538 407.334 118.727 407.696C117.927 408.059 116.983 408.24 115.895 408.24ZM115.959 406.208C116.493 406.208 116.957 406.112 117.351 405.92C117.746 405.728 118.05 405.456 118.263 405.104C118.477 404.752 118.583 404.342 118.583 403.872C118.583 403.403 118.477 402.998 118.263 402.656C118.05 402.304 117.746 402.032 117.351 401.84C116.957 401.648 116.493 401.552 115.959 401.552C115.223 401.552 114.573 401.75 114.007 402.144C113.442 402.528 113.015 403.067 112.727 403.76C112.898 404.507 113.271 405.104 113.847 405.552C114.434 405.99 115.138 406.208 115.959 406.208ZM124.672 398.896H134.08V408H131.408V399.696L132.64 400.912H126L127.152 399.92C127.205 400.571 127.248 401.174 127.28 401.728C127.322 402.272 127.344 402.763 127.344 403.2C127.344 404.95 127.082 406.219 126.56 407.008C126.048 407.798 125.216 408.192 124.064 408.192C123.744 408.192 123.434 408.155 123.136 408.08C122.848 408.016 122.565 407.904 122.288 407.744V405.808C122.48 405.883 122.666 405.942 122.848 405.984C123.04 406.016 123.216 406.032 123.376 406.032C123.92 406.032 124.309 405.787 124.544 405.296C124.789 404.795 124.912 403.974 124.912 402.832C124.912 402.32 124.89 401.734 124.848 401.072C124.816 400.411 124.757 399.686 124.672 398.896ZM141.704 408.24C140.627 408.24 139.661 408.043 138.808 407.648C137.965 407.243 137.299 406.678 136.808 405.952C136.328 405.227 136.088 404.384 136.088 403.424C136.088 402.475 136.317 401.643 136.776 400.928C137.245 400.214 137.885 399.659 138.696 399.264C139.507 398.859 140.429 398.656 141.464 398.656C142.52 398.656 143.427 398.891 144.184 399.36C144.941 399.819 145.523 400.47 145.928 401.312C146.344 402.155 146.552 403.147 146.552 404.288H138.232V402.512H145.112L144.072 403.152C144.029 402.619 143.896 402.166 143.672 401.792C143.459 401.419 143.165 401.131 142.792 400.928C142.419 400.726 141.981 400.624 141.48 400.624C140.936 400.624 140.461 400.736 140.056 400.96C139.661 401.174 139.352 401.478 139.128 401.872C138.915 402.256 138.808 402.71 138.808 403.232C138.808 403.862 138.947 404.4 139.224 404.848C139.501 405.296 139.907 405.638 140.44 405.872C140.973 406.107 141.619 406.224 142.376 406.224C143.059 406.224 143.747 406.128 144.44 405.936C145.133 405.734 145.757 405.451 146.312 405.088V406.88C145.715 407.307 145.016 407.643 144.216 407.888C143.427 408.123 142.589 408.24 141.704 408.24ZM148.595 398.896H151.251V408H148.595V398.896ZM156.227 398.896H158.883V408H156.227V398.896ZM150.115 402.352H157.267V404.368H150.115V402.352ZM161.372 408V398.896H163.996V406.592L163.34 406.416L168.828 398.896H172.268V408H169.644V400.16L170.3 400.352L164.716 408H161.372ZM174.758 408V398.896H177.382V406.592L176.726 406.416L182.214 398.896H185.654V408H183.03V400.16L183.686 400.352L178.102 408H174.758ZM180.134 398.064C179.099 398.064 178.267 397.814 177.638 397.312C177.009 396.8 176.619 396.059 176.47 395.088H178.566C178.641 395.547 178.811 395.899 179.078 396.144C179.355 396.379 179.707 396.496 180.134 396.496C180.561 396.496 180.907 396.379 181.174 396.144C181.441 395.899 181.617 395.547 181.702 395.088H183.782C183.643 396.059 183.254 396.8 182.614 397.312C181.985 397.814 181.158 398.064 180.134 398.064ZM200.27 398.896V400.944H194.158L195.39 399.728V408H192.718V398.896H200.27ZM204.54 410.88C203.942 410.88 203.404 410.806 202.924 410.656C202.444 410.507 201.99 410.288 201.564 410V408.08C202.012 408.368 202.438 408.576 202.844 408.704C203.249 408.832 203.697 408.896 204.188 408.896C204.625 408.896 205.014 408.795 205.356 408.592C205.697 408.4 205.98 408.054 206.204 407.552L209.996 398.896H212.828L208.284 408.416C208.006 409.014 207.67 409.494 207.276 409.856C206.881 410.219 206.449 410.48 205.98 410.64C205.521 410.8 205.041 410.88 204.54 410.88ZM205.116 407.424L201.1 398.896H204.044L207.724 407.424H205.116ZM214.381 398.896H217.053V401.792L216.941 402.144V404.336L217.053 404.992V410.64H214.381V398.896ZM216.125 403.456C216.307 402.486 216.621 401.643 217.069 400.928C217.528 400.203 218.099 399.643 218.781 399.248C219.475 398.854 220.243 398.656 221.085 398.656C221.981 398.656 222.765 398.859 223.437 399.264C224.12 399.659 224.653 400.219 225.037 400.944C225.421 401.659 225.613 402.496 225.613 403.456C225.613 404.406 225.421 405.243 225.037 405.968C224.653 406.683 224.12 407.243 223.437 407.648C222.765 408.043 221.981 408.24 221.085 408.24C220.232 408.24 219.464 408.043 218.781 407.648C218.109 407.254 217.544 406.699 217.085 405.984C216.627 405.259 216.307 404.416 216.125 403.456ZM222.909 403.456C222.909 402.923 222.797 402.454 222.573 402.048C222.36 401.632 222.061 401.312 221.677 401.088C221.293 400.854 220.851 400.736 220.349 400.736C219.848 400.736 219.373 400.854 218.925 401.088C218.477 401.312 218.083 401.632 217.741 402.048C217.411 402.454 217.149 402.923 216.957 403.456C217.149 403.99 217.411 404.459 217.741 404.864C218.083 405.27 218.477 405.59 218.925 405.824C219.373 406.048 219.848 406.16 220.349 406.16C220.851 406.16 221.293 406.048 221.677 405.824C222.061 405.59 222.36 405.27 222.573 404.864C222.797 404.459 222.909 403.99 222.909 403.456ZM230.162 399.824H232.834V408H230.162V399.824ZM226.546 398.896H236.45V400.944H226.546V398.896ZM239.626 408.144C239.178 408.144 238.804 408 238.506 407.712C238.218 407.424 238.074 407.062 238.074 406.624C238.074 406.187 238.218 405.824 238.506 405.536C238.804 405.248 239.178 405.104 239.626 405.104C240.084 405.104 240.458 405.248 240.746 405.536C241.044 405.824 241.194 406.187 241.194 406.624C241.194 407.062 241.044 407.424 240.746 407.712C240.458 408 240.084 408.144 239.626 408.144ZM239.626 402.48C239.178 402.48 238.804 402.336 238.506 402.048C238.218 401.76 238.074 401.398 238.074 400.96C238.074 400.523 238.218 400.16 238.506 399.872C238.804 399.584 239.178 399.44 239.626 399.44C240.084 399.44 240.458 399.584 240.746 399.872C241.044 400.16 241.194 400.523 241.194 400.96C241.194 401.398 241.044 401.76 240.746 402.048C240.458 402.336 240.084 402.48 239.626 402.48Z" fill="white"/>
<path d="M282.353 407V406.008C283.132 406.115 283.713 405.875 284.097 405.288C284.492 404.691 284.689 403.603 284.689 402.024V395.8H291.953V407H290.833V396.856H285.809V402.056C285.809 403.07 285.729 403.918 285.569 404.6C285.409 405.283 285.169 405.806 284.849 406.168C284.54 406.52 284.183 406.76 283.777 406.888C283.383 407.006 282.908 407.043 282.353 407ZM295.91 397.08C295.761 397.23 295.58 397.304 295.366 397.304C295.153 397.304 294.972 397.23 294.822 397.08C294.673 396.931 294.598 396.75 294.598 396.536C294.598 396.323 294.673 396.142 294.822 395.992C294.972 395.843 295.153 395.768 295.366 395.768C295.58 395.768 295.761 395.843 295.91 395.992C296.06 396.142 296.134 396.323 296.134 396.536C296.134 396.75 296.06 396.931 295.91 397.08ZM294.838 407V399H295.894V407H294.838ZM303.703 402.888C304.578 403.208 305.015 403.832 305.015 404.76C305.015 405.411 304.796 405.95 304.359 406.376C303.932 406.792 303.314 407 302.503 407H298.615V399H302.183C302.962 399 303.564 399.203 303.991 399.608C304.418 400.003 304.631 400.515 304.631 401.144C304.631 401.944 304.322 402.526 303.703 402.888ZM302.183 400.024H299.671V402.456H302.183C303.111 402.456 303.575 402.04 303.575 401.208C303.575 400.835 303.452 400.547 303.207 400.344C302.972 400.131 302.631 400.024 302.183 400.024ZM302.503 405.976C302.972 405.976 303.33 405.864 303.575 405.64C303.831 405.416 303.959 405.102 303.959 404.696C303.959 404.323 303.831 404.03 303.575 403.816C303.33 403.592 302.972 403.48 302.503 403.48H299.671V405.976H302.503ZM308.167 397.08C308.018 397.23 307.836 397.304 307.623 397.304C307.41 397.304 307.228 397.23 307.079 397.08C306.93 396.931 306.855 396.75 306.855 396.536C306.855 396.323 306.93 396.142 307.079 395.992C307.228 395.843 307.41 395.768 307.623 395.768C307.836 395.768 308.018 395.843 308.167 395.992C308.316 396.142 308.391 396.323 308.391 396.536C308.391 396.75 308.316 396.931 308.167 397.08ZM307.095 407V399H308.151V407H307.095ZM316.536 399H317.592V407H316.536V403.512H311.928V407H310.872V399H311.928V402.488H316.536V399ZM324.033 407.192C322.828 407.192 321.825 406.792 321.025 405.992C320.225 405.182 319.825 404.184 319.825 403C319.825 401.816 320.225 400.824 321.025 400.024C321.825 399.214 322.828 398.808 324.033 398.808C324.822 398.808 325.532 399 326.161 399.384C326.79 399.758 327.249 400.264 327.537 400.904L326.673 401.4C326.46 400.92 326.113 400.542 325.633 400.264C325.164 399.976 324.63 399.832 324.033 399.832C323.148 399.832 322.401 400.142 321.793 400.76C321.185 401.368 320.881 402.115 320.881 403C320.881 403.886 321.185 404.638 321.793 405.256C322.401 405.864 323.148 406.168 324.033 406.168C324.63 406.168 325.164 406.03 325.633 405.752C326.102 405.464 326.47 405.08 326.737 404.6L327.617 405.112C327.286 405.752 326.801 406.259 326.161 406.632C325.521 407.006 324.812 407.192 324.033 407.192ZM335.217 399V400.024H332.385V407H331.329V400.024H328.497V399H335.217ZM343.375 405.992C342.565 406.792 341.573 407.192 340.399 407.192C339.226 407.192 338.229 406.792 337.407 405.992C336.597 405.182 336.191 404.184 336.191 403C336.191 401.816 336.597 400.824 337.407 400.024C338.229 399.214 339.226 398.808 340.399 398.808C341.573 398.808 342.565 399.214 343.375 400.024C344.197 400.824 344.607 401.816 344.607 403C344.607 404.184 344.197 405.182 343.375 405.992ZM338.159 405.256C338.767 405.864 339.514 406.168 340.399 406.168C341.285 406.168 342.031 405.864 342.639 405.256C343.247 404.638 343.551 403.886 343.551 403C343.551 402.115 343.247 401.368 342.639 400.76C342.031 400.142 341.285 399.832 340.399 399.832C339.514 399.832 338.767 400.142 338.159 400.76C337.551 401.368 337.247 402.115 337.247 403C337.247 403.886 337.551 404.638 338.159 405.256ZM352.519 399H353.575V407H352.519V403.512H347.911V407H346.855V399H347.911V402.488H352.519V399Z" fill="white"/>
</svg>
