<svg width="450" height="545" viewBox="0 0 450 545" fill="none" xmlns="http://www.w3.org/2000/svg">
<path d="M352.563 57.6235C273.036 45.9907 146.973 24.4036 67.0972 10.9642C33.8198 5.36513 5.448 33.8739 10.8064 67.1909L52.0434 323.589C53.1281 330.333 52.8194 337.228 51.1365 343.848L20.1798 465.62C10.9628 501.876 43.3667 535.043 79.8275 526.671L411.189 450.588C433.902 445.373 450 425.16 450 401.856V216.138C450 208.402 448.205 200.771 444.755 193.846L390.565 85.0485C383.171 70.2038 368.972 60.0239 352.563 57.6235Z" fill="#C0B7EE"/>
<path d="M67.232 140V128H69.936V137.792L69.168 137.248L76.592 128H79.488L69.68 140H67.232ZM72.96 134.128L74.912 132.384L79.664 140H76.56L72.96 134.128ZM81.0974 130.8L82.4254 131.056L83.7694 130.8V140H81.0974V130.8ZM82.4254 129.856C81.9454 129.856 81.5507 129.733 81.2414 129.488C80.9427 129.232 80.7934 128.896 80.7934 128.48C80.7934 128.053 80.9427 127.717 81.2414 127.472C81.5507 127.216 81.9454 127.088 82.4254 127.088C82.916 127.088 83.3107 127.216 83.6094 127.472C83.908 127.717 84.0574 128.053 84.0574 128.48C84.0574 128.896 83.908 129.232 83.6094 129.488C83.3107 129.733 82.916 129.856 82.4254 129.856ZM87.8329 130.896H97.2409V140H94.5689V131.696L95.8009 132.912H89.1609L90.3129 131.92C90.3662 132.571 90.4089 133.173 90.4409 133.728C90.4835 134.272 90.5049 134.763 90.5049 135.2C90.5049 136.949 90.2435 138.219 89.7209 139.008C89.2089 139.797 88.3769 140.192 87.2249 140.192C86.9049 140.192 86.5955 140.155 86.2969 140.08C86.0089 140.016 85.7262 139.904 85.4489 139.744V137.808C85.6409 137.883 85.8275 137.941 86.0089 137.984C86.2009 138.016 86.3769 138.032 86.5369 138.032C87.0809 138.032 87.4702 137.787 87.7049 137.296C87.9502 136.795 88.0729 135.973 88.0729 134.832C88.0729 134.32 88.0515 133.733 88.0089 133.072C87.9769 132.411 87.9182 131.685 87.8329 130.896ZM99.7292 140V130.896H102.385V139.312L101.521 138.08H105.073C105.564 138.08 105.943 137.963 106.209 137.728C106.476 137.483 106.609 137.152 106.609 136.736C106.609 136.299 106.476 135.963 106.209 135.728C105.943 135.483 105.564 135.36 105.073 135.36H101.537V133.52H105.473C106.252 133.52 106.924 133.659 107.489 133.936C108.065 134.203 108.513 134.581 108.833 135.072C109.153 135.552 109.313 136.117 109.313 136.768C109.313 137.408 109.153 137.973 108.833 138.464C108.513 138.955 108.071 139.333 107.505 139.6C106.94 139.867 106.273 140 105.505 140H99.7292ZM111.1 140V130.896H113.772V137.84L112.988 137.568L118.412 130.896H121.324L113.5 140H111.1ZM118.54 140L115.82 135.536L117.788 134.016L121.596 140H118.54ZM122.986 130.8L124.314 131.056L125.658 130.8V140H122.986V130.8ZM124.314 129.856C123.834 129.856 123.439 129.733 123.13 129.488C122.831 129.232 122.682 128.896 122.682 128.48C122.682 128.053 122.831 127.717 123.13 127.472C123.439 127.216 123.834 127.088 124.314 127.088C124.805 127.088 125.199 127.216 125.498 127.472C125.797 127.717 125.946 128.053 125.946 128.48C125.946 128.896 125.797 129.232 125.498 129.488C125.199 129.733 124.805 129.856 124.314 129.856ZM138.602 136.288C138.495 137.067 138.191 137.755 137.69 138.352C137.199 138.949 136.564 139.413 135.786 139.744C135.007 140.075 134.138 140.24 133.178 140.24C132.09 140.24 131.13 140.043 130.298 139.648C129.476 139.243 128.831 138.677 128.362 137.952C127.903 137.227 127.674 136.395 127.674 135.456C127.674 134.507 127.903 133.675 128.362 132.96C128.831 132.235 129.476 131.669 130.298 131.264C131.13 130.859 132.09 130.656 133.178 130.656C134.138 130.656 135.007 130.827 135.786 131.168C136.564 131.499 137.199 131.963 137.69 132.56C138.191 133.147 138.495 133.835 138.602 134.624H135.93C135.791 134.005 135.471 133.531 134.97 133.2C134.479 132.859 133.882 132.688 133.178 132.688C132.612 132.688 132.116 132.8 131.69 133.024C131.274 133.237 130.954 133.552 130.73 133.968C130.506 134.373 130.394 134.869 130.394 135.456C130.394 136.032 130.506 136.528 130.73 136.944C130.954 137.349 131.274 137.664 131.69 137.888C132.116 138.101 132.612 138.208 133.178 138.208C133.892 138.208 134.495 138.032 134.986 137.68C135.487 137.328 135.802 136.864 135.93 136.288H138.602ZM143.013 131.824H145.685V140H143.013V131.824ZM139.397 130.896H149.301V132.944H139.397V130.896ZM151.004 140V130.896H153.66V139.312L152.796 138.08H156.348C156.839 138.08 157.218 137.963 157.484 137.728C157.751 137.483 157.884 137.152 157.884 136.736C157.884 136.299 157.751 135.963 157.484 135.728C157.218 135.483 156.839 135.36 156.348 135.36H152.812V133.52H156.748C157.527 133.52 158.199 133.659 158.764 133.936C159.34 134.203 159.788 134.581 160.108 135.072C160.428 135.552 160.588 136.117 160.588 136.768C160.588 137.408 160.428 137.973 160.108 138.464C159.788 138.955 159.346 139.333 158.78 139.6C158.215 139.867 157.548 140 156.78 140H151.004ZM67.008 150.896H69.68V153.792L69.568 154.144V156.336L69.68 156.992V162.64H67.008V150.896ZM68.752 155.456C68.9333 154.485 69.248 153.643 69.696 152.928C70.1547 152.203 70.7253 151.643 71.408 151.248C72.1013 150.853 72.8693 150.656 73.712 150.656C74.608 150.656 75.392 150.859 76.064 151.264C76.7467 151.659 77.28 152.219 77.664 152.944C78.048 153.659 78.24 154.496 78.24 155.456C78.24 156.405 78.048 157.243 77.664 157.968C77.28 158.683 76.7467 159.243 76.064 159.648C75.392 160.043 74.608 160.24 73.712 160.24C72.8587 160.24 72.0907 160.043 71.408 159.648C70.736 159.253 70.1707 158.699 69.712 157.984C69.2533 157.259 68.9333 156.416 68.752 155.456ZM75.536 155.456C75.536 154.923 75.424 154.453 75.2 154.048C74.9867 153.632 74.688 153.312 74.304 153.088C73.92 152.853 73.4773 152.736 72.976 152.736C72.4747 152.736 72 152.853 71.552 153.088C71.104 153.312 70.7093 153.632 70.368 154.048C70.0373 154.453 69.776 154.923 69.584 155.456C69.776 155.989 70.0373 156.459 70.368 156.864C70.7093 157.269 71.104 157.589 71.552 157.824C72 158.048 72.4747 158.16 72.976 158.16C73.4773 158.16 73.92 158.048 74.304 157.824C74.688 157.589 74.9867 157.269 75.2 156.864C75.424 156.459 75.536 155.989 75.536 155.456ZM85.4209 160.24C84.3435 160.24 83.3782 160.043 82.5249 159.648C81.6822 159.243 81.0155 158.677 80.5249 157.952C80.0449 157.227 79.8049 156.384 79.8049 155.424C79.8049 154.475 80.0342 153.643 80.4929 152.928C80.9622 152.213 81.6022 151.659 82.4129 151.264C83.2235 150.859 84.1462 150.656 85.1809 150.656C86.2369 150.656 87.1435 150.891 87.9009 151.36C88.6582 151.819 89.2395 152.469 89.6449 153.312C90.0609 154.155 90.2689 155.147 90.2689 156.288H81.9489V154.512H88.8289L87.7889 155.152C87.7462 154.619 87.6129 154.165 87.3889 153.792C87.1755 153.419 86.8822 153.131 86.5089 152.928C86.1355 152.725 85.6982 152.624 85.1969 152.624C84.6529 152.624 84.1782 152.736 83.7729 152.96C83.3782 153.173 83.0689 153.477 82.8449 153.872C82.6315 154.256 82.5249 154.709 82.5249 155.232C82.5249 155.861 82.6635 156.4 82.9409 156.848C83.2182 157.296 83.6235 157.637 84.1569 157.872C84.6902 158.107 85.3355 158.224 86.0929 158.224C86.7755 158.224 87.4635 158.128 88.1569 157.936C88.8502 157.733 89.4742 157.451 90.0289 157.088V158.88C89.4315 159.307 88.7329 159.643 87.9329 159.888C87.1435 160.123 86.3062 160.24 85.4209 160.24ZM100.648 160L100.264 156.672L100.696 155.456L100.264 154.256L100.648 150.896H103.416L102.888 155.456L103.416 160H100.648ZM101.352 155.456C101.181 156.416 100.866 157.259 100.408 157.984C99.9597 158.699 99.3891 159.253 98.6957 159.648C98.0131 160.043 97.2451 160.24 96.3917 160.24C95.5064 160.24 94.7224 160.043 94.0397 159.648C93.3571 159.243 92.8237 158.683 92.4397 157.968C92.0664 157.243 91.8797 156.405 91.8797 155.456C91.8797 154.496 92.0664 153.659 92.4397 152.944C92.8237 152.219 93.3571 151.659 94.0397 151.264C94.7224 150.859 95.5064 150.656 96.3917 150.656C97.2451 150.656 98.0131 150.853 98.6957 151.248C99.3891 151.643 99.9651 152.203 100.424 152.928C100.882 153.643 101.192 154.485 101.352 155.456ZM94.5837 155.456C94.5837 155.989 94.6904 156.459 94.9037 156.864C95.1277 157.269 95.4317 157.589 95.8157 157.824C96.1997 158.048 96.6424 158.16 97.1437 158.16C97.6451 158.16 98.1144 158.048 98.5517 157.824C98.9997 157.589 99.3944 157.269 99.7357 156.864C100.077 156.459 100.344 155.989 100.536 155.456C100.344 154.923 100.077 154.453 99.7357 154.048C99.3944 153.632 98.9997 153.312 98.5517 153.088C98.1144 152.853 97.6451 152.736 97.1437 152.736C96.6424 152.736 96.1997 152.853 95.8157 153.088C95.4317 153.312 95.1277 153.632 94.9037 154.048C94.6904 154.453 94.5837 154.923 94.5837 155.456ZM107.25 150.896H116.658V160H113.986V151.696L115.218 152.912H108.578L109.73 151.92C109.784 152.571 109.826 153.173 109.858 153.728C109.901 154.272 109.922 154.763 109.922 155.2C109.922 156.949 109.661 158.219 109.138 159.008C108.626 159.797 107.794 160.192 106.642 160.192C106.322 160.192 106.013 160.155 105.714 160.08C105.426 160.016 105.144 159.904 104.866 159.744V157.808C105.058 157.883 105.245 157.941 105.426 157.984C105.618 158.016 105.794 158.032 105.954 158.032C106.498 158.032 106.888 157.787 107.122 157.296C107.368 156.795 107.49 155.973 107.49 154.832C107.49 154.32 107.469 153.733 107.426 153.072C107.394 152.411 107.336 151.685 107.25 150.896ZM119.147 150.8L120.475 151.056L121.819 150.8V160H119.147V150.8ZM120.475 149.856C119.995 149.856 119.6 149.733 119.291 149.488C118.992 149.232 118.843 148.896 118.843 148.48C118.843 148.053 118.992 147.717 119.291 147.472C119.6 147.216 119.995 147.088 120.475 147.088C120.965 147.088 121.36 147.216 121.659 147.472C121.957 147.717 122.107 148.053 122.107 148.48C122.107 148.896 121.957 149.232 121.659 149.488C121.36 149.733 120.965 149.856 120.475 149.856ZM128.81 160.24C127.797 160.24 126.912 160.112 126.154 159.856C125.397 159.589 124.805 159.211 124.378 158.72C123.952 158.219 123.717 157.632 123.674 156.96H126.266C126.341 157.408 126.597 157.749 127.034 157.984C127.472 158.219 128.064 158.336 128.81 158.336C129.525 158.336 130.08 158.245 130.474 158.064C130.88 157.872 131.082 157.579 131.082 157.184C131.082 156.864 130.912 156.629 130.57 156.48C130.24 156.32 129.706 156.24 128.97 156.24H127.274V154.64H128.922C129.584 154.64 130.069 154.544 130.378 154.352C130.698 154.16 130.858 153.92 130.858 153.632C130.858 153.28 130.672 153.013 130.298 152.832C129.936 152.651 129.445 152.56 128.826 152.56C128.144 152.56 127.594 152.667 127.178 152.88C126.762 153.093 126.517 153.413 126.442 153.84H123.866C123.909 153.253 124.133 152.72 124.538 152.24C124.944 151.76 125.514 151.376 126.25 151.088C126.997 150.8 127.893 150.656 128.938 150.656C129.866 150.656 130.677 150.768 131.37 150.992C132.064 151.216 132.602 151.525 132.986 151.92C133.37 152.315 133.562 152.768 133.562 153.28C133.562 153.685 133.434 154.059 133.178 154.4C132.933 154.741 132.533 155.013 131.978 155.216C131.434 155.419 130.72 155.52 129.834 155.52V155.248C131.104 155.195 132.08 155.349 132.762 155.712C133.456 156.075 133.802 156.629 133.802 157.376C133.802 157.92 133.605 158.411 133.21 158.848C132.826 159.285 132.261 159.627 131.514 159.872C130.768 160.117 129.866 160.24 128.81 160.24ZM141.073 160.24C139.942 160.24 138.95 160.043 138.097 159.648C137.243 159.243 136.577 158.683 136.097 157.968C135.617 157.243 135.377 156.405 135.377 155.456C135.377 154.496 135.617 153.659 136.097 152.944C136.577 152.219 137.243 151.659 138.097 151.264C138.95 150.859 139.942 150.656 141.073 150.656C142.203 150.656 143.195 150.859 144.049 151.264C144.902 151.659 145.563 152.219 146.033 152.944C146.513 153.659 146.753 154.496 146.753 155.456C146.753 156.405 146.513 157.243 146.033 157.968C145.563 158.683 144.902 159.243 144.049 159.648C143.195 160.043 142.203 160.24 141.073 160.24ZM141.073 158.208C141.691 158.208 142.219 158.096 142.657 157.872C143.105 157.648 143.446 157.333 143.681 156.928C143.926 156.512 144.049 156.021 144.049 155.456C144.049 154.88 143.926 154.389 143.681 153.984C143.446 153.568 143.105 153.248 142.657 153.024C142.219 152.8 141.691 152.688 141.073 152.688C140.465 152.688 139.937 152.8 139.489 153.024C139.041 153.248 138.694 153.568 138.449 153.984C138.214 154.389 138.097 154.88 138.097 155.456C138.097 156.021 138.214 156.512 138.449 156.928C138.694 157.333 139.041 157.648 139.489 157.872C139.937 158.096 140.465 158.208 141.073 158.208ZM148.535 160L149.047 155.456L148.535 150.896H155.543C156.417 150.896 157.111 151.104 157.623 151.52C158.135 151.925 158.391 152.48 158.391 153.184C158.391 153.845 158.135 154.384 157.623 154.8C157.111 155.205 156.396 155.445 155.479 155.52L155.671 155.072C156.737 155.104 157.548 155.328 158.103 155.744C158.668 156.149 158.951 156.72 158.951 157.456C158.951 158.245 158.663 158.869 158.087 159.328C157.521 159.776 156.743 160 155.751 160H148.535ZM151.111 159.408L150.087 158.272H154.935C155.393 158.272 155.729 158.181 155.943 158C156.156 157.808 156.263 157.541 156.263 157.2C156.263 156.891 156.145 156.64 155.911 156.448C155.676 156.245 155.292 156.144 154.759 156.144H150.631V154.624H154.407C154.855 154.624 155.18 154.533 155.383 154.352C155.596 154.171 155.703 153.925 155.703 153.616C155.703 153.328 155.607 153.093 155.415 152.912C155.233 152.731 154.935 152.64 154.519 152.64H150.103L151.111 151.504L151.607 155.456L151.111 159.408ZM169.293 160L168.909 156.672L169.341 155.456L168.909 154.256L169.293 150.896H172.061L171.533 155.456L172.061 160H169.293ZM169.997 155.456C169.827 156.416 169.512 157.259 169.053 157.984C168.605 158.699 168.035 159.253 167.341 159.648C166.659 160.043 165.891 160.24 165.037 160.24C164.152 160.24 163.368 160.043 162.685 159.648C162.003 159.243 161.469 158.683 161.085 157.968C160.712 157.243 160.525 156.405 160.525 155.456C160.525 154.496 160.712 153.659 161.085 152.944C161.469 152.219 162.003 151.659 162.685 151.264C163.368 150.859 164.152 150.656 165.037 150.656C165.891 150.656 166.659 150.853 167.341 151.248C168.035 151.643 168.611 152.203 169.069 152.928C169.528 153.643 169.837 154.485 169.997 155.456ZM163.229 155.456C163.229 155.989 163.336 156.459 163.549 156.864C163.773 157.269 164.077 157.589 164.461 157.824C164.845 158.048 165.288 158.16 165.789 158.16C166.291 158.16 166.76 158.048 167.197 157.824C167.645 157.589 168.04 157.269 168.381 156.864C168.723 156.459 168.989 155.989 169.181 155.456C168.989 154.923 168.723 154.453 168.381 154.048C168.04 153.632 167.645 153.312 167.197 153.088C166.76 152.853 166.291 152.736 165.789 152.736C165.288 152.736 164.845 152.853 164.461 153.088C164.077 153.312 163.773 153.632 163.549 154.048C163.336 154.453 163.229 154.923 163.229 155.456ZM174.328 150.896H176.984V160H174.328V150.896ZM181.96 150.896H184.616V160H181.96V150.896ZM175.848 154.352H183V156.368H175.848V154.352ZM187.105 160V150.896H189.729V158.592L189.073 158.416L194.561 150.896H198.001V160H195.377V152.16L196.033 152.352L190.449 160H187.105ZM199.339 160L203.643 154.848L203.627 155.84L199.595 150.896H202.587L205.435 154.32H204.507L207.371 150.896H210.315L206.155 155.888L206.027 154.64L210.555 160H207.515L204.411 156.32H205.387L202.315 160H199.339ZM77.232 170.896V180H74.56V171.696L75.792 172.912H68.448L69.68 171.696V180H67.008V170.896H77.232ZM79.7224 170.896H82.3944V173.792L82.2824 174.144V176.336L82.3944 176.992V182.64H79.7224V170.896ZM81.4664 175.456C81.6477 174.485 81.9624 173.643 82.4104 172.928C82.869 172.203 83.4397 171.643 84.1224 171.248C84.8157 170.853 85.5837 170.656 86.4264 170.656C87.3224 170.656 88.1064 170.859 88.7784 171.264C89.461 171.659 89.9944 172.219 90.3784 172.944C90.7624 173.659 90.9544 174.496 90.9544 175.456C90.9544 176.405 90.7624 177.243 90.3784 177.968C89.9944 178.683 89.461 179.243 88.7784 179.648C88.1064 180.043 87.3224 180.24 86.4264 180.24C85.573 180.24 84.805 180.043 84.1224 179.648C83.4504 179.253 82.885 178.699 82.4264 177.984C81.9677 177.259 81.6477 176.416 81.4664 175.456ZM88.2504 175.456C88.2504 174.923 88.1384 174.453 87.9144 174.048C87.701 173.632 87.4024 173.312 87.0184 173.088C86.6344 172.853 86.1917 172.736 85.6904 172.736C85.189 172.736 84.7144 172.853 84.2664 173.088C83.8184 173.312 83.4237 173.632 83.0824 174.048C82.7517 174.453 82.4904 174.923 82.2984 175.456C82.4904 175.989 82.7517 176.459 83.0824 176.864C83.4237 177.269 83.8184 177.589 84.2664 177.824C84.7144 178.048 85.189 178.16 85.6904 178.16C86.1917 178.16 86.6344 178.048 87.0184 177.824C87.4024 177.589 87.701 177.269 87.9144 176.864C88.1384 176.459 88.2504 175.989 88.2504 175.456ZM98.2152 180.24C97.0846 180.24 96.0926 180.043 95.2392 179.648C94.3859 179.243 93.7192 178.683 93.2392 177.968C92.7592 177.243 92.5192 176.405 92.5192 175.456C92.5192 174.496 92.7592 173.659 93.2392 172.944C93.7192 172.219 94.3859 171.659 95.2392 171.264C96.0926 170.859 97.0846 170.656 98.2152 170.656C99.3459 170.656 100.338 170.859 101.191 171.264C102.045 171.659 102.706 172.219 103.175 172.944C103.655 173.659 103.895 174.496 103.895 175.456C103.895 176.405 103.655 177.243 103.175 177.968C102.706 178.683 102.045 179.243 101.191 179.648C100.338 180.043 99.3459 180.24 98.2152 180.24ZM98.2152 178.208C98.8339 178.208 99.3619 178.096 99.7992 177.872C100.247 177.648 100.589 177.333 100.823 176.928C101.069 176.512 101.191 176.021 101.191 175.456C101.191 174.88 101.069 174.389 100.823 173.984C100.589 173.568 100.247 173.248 99.7992 173.024C99.3619 172.8 98.8339 172.688 98.2152 172.688C97.6072 172.688 97.0792 172.8 96.6312 173.024C96.1832 173.248 95.8366 173.568 95.5912 173.984C95.3566 174.389 95.2392 174.88 95.2392 175.456C95.2392 176.021 95.3566 176.512 95.5912 176.928C95.8366 177.333 96.1832 177.648 96.6312 177.872C97.0792 178.096 97.6072 178.208 98.2152 178.208ZM110.988 180.24C109.9 180.24 108.935 180.043 108.092 179.648C107.26 179.243 106.61 178.677 106.14 177.952C105.682 177.227 105.452 176.395 105.452 175.456C105.452 174.507 105.682 173.675 106.14 172.96C106.61 172.235 107.26 171.669 108.092 171.264C108.935 170.859 109.9 170.656 110.988 170.656C111.948 170.656 112.812 170.816 113.58 171.136C114.348 171.456 114.978 171.899 115.468 172.464C115.97 173.019 116.284 173.669 116.412 174.416H113.804C113.644 173.872 113.308 173.429 112.796 173.088C112.284 172.736 111.682 172.56 110.988 172.56C110.391 172.56 109.874 172.677 109.436 172.912C108.999 173.136 108.658 173.467 108.412 173.904C108.178 174.331 108.06 174.848 108.06 175.456C108.06 176.053 108.178 176.571 108.412 177.008C108.658 177.435 108.999 177.765 109.436 178C109.874 178.224 110.391 178.336 110.988 178.336C111.682 178.336 112.284 178.165 112.796 177.824C113.308 177.483 113.644 177.035 113.804 176.48H116.412C116.284 177.227 115.97 177.883 115.468 178.448C114.978 179.003 114.348 179.44 113.58 179.76C112.812 180.08 111.948 180.24 110.988 180.24ZM106.844 176.272V174.624H112.348V176.272H106.844ZM118.319 180V170.896H120.991V177.84L120.207 177.568L125.631 170.896H128.543L120.719 180H118.319ZM125.759 180L123.039 175.536L125.007 174.016L128.815 180H125.759ZM133.037 171.824H135.709V180H133.037V171.824ZM129.421 170.896H139.325V172.944H129.421V170.896ZM141.029 170.8L142.357 171.056L143.701 170.8V180H141.029V170.8ZM142.357 169.856C141.877 169.856 141.482 169.733 141.173 169.488C140.874 169.232 140.725 168.896 140.725 168.48C140.725 168.053 140.874 167.717 141.173 167.472C141.482 167.216 141.877 167.088 142.357 167.088C142.847 167.088 143.242 167.216 143.541 167.472C143.839 167.717 143.989 168.053 143.989 168.48C143.989 168.896 143.839 169.232 143.541 169.488C143.242 169.733 142.847 169.856 142.357 169.856ZM145.972 180L146.484 175.456L145.972 170.896H152.98C153.855 170.896 154.548 171.104 155.06 171.52C155.572 171.925 155.828 172.48 155.828 173.184C155.828 173.845 155.572 174.384 155.06 174.8C154.548 175.205 153.833 175.445 152.916 175.52L153.108 175.072C154.175 175.104 154.985 175.328 155.54 175.744C156.105 176.149 156.388 176.72 156.388 177.456C156.388 178.245 156.1 178.869 155.524 179.328C154.959 179.776 154.18 180 153.188 180H145.972ZM148.548 179.408L147.524 178.272H152.372C152.831 178.272 153.167 178.181 153.38 178C153.593 177.808 153.7 177.541 153.7 177.2C153.7 176.891 153.583 176.64 153.348 176.448C153.113 176.245 152.729 176.144 152.196 176.144H148.068V174.624H151.844C152.292 174.624 152.617 174.533 152.82 174.352C153.033 174.171 153.14 173.925 153.14 173.616C153.14 173.328 153.044 173.093 152.852 172.912C152.671 172.731 152.372 172.64 151.956 172.64H147.54L148.548 171.504L149.044 175.456L148.548 179.408ZM66.784 200L67.296 195.456L66.784 190.896H73.792C74.6667 190.896 75.36 191.104 75.872 191.52C76.384 191.925 76.64 192.48 76.64 193.184C76.64 193.845 76.384 194.384 75.872 194.8C75.36 195.205 74.6453 195.445 73.728 195.52L73.92 195.072C74.9867 195.104 75.7973 195.328 76.352 195.744C76.9173 196.149 77.2 196.72 77.2 197.456C77.2 198.245 76.912 198.869 76.336 199.328C75.7707 199.776 74.992 200 74 200H66.784ZM69.36 199.408L68.336 198.272H73.184C73.6427 198.272 73.9787 198.181 74.192 198C74.4053 197.808 74.512 197.541 74.512 197.2C74.512 196.891 74.3947 196.64 74.16 196.448C73.9253 196.245 73.5413 196.144 73.008 196.144H68.88V194.624H72.656C73.104 194.624 73.4293 194.533 73.632 194.352C73.8453 194.171 73.952 193.925 73.952 193.616C73.952 193.328 73.856 193.093 73.664 192.912C73.4827 192.731 73.184 192.64 72.768 192.64H68.352L69.36 191.504L69.856 195.456L69.36 199.408ZM83.3645 196.08H86.1165C86.1805 196.485 86.3565 196.843 86.6445 197.152C86.9432 197.451 87.3378 197.685 87.8285 197.856C88.3298 198.016 88.9058 198.096 89.5565 198.096C90.5058 198.096 91.2525 197.963 91.7965 197.696C92.3512 197.419 92.6285 197.035 92.6285 196.544C92.6285 196.16 92.4685 195.867 92.1485 195.664C91.8392 195.451 91.2578 195.296 90.4045 195.2L87.9885 194.928C86.4312 194.757 85.3005 194.395 84.5965 193.84C83.9032 193.275 83.5565 192.491 83.5565 191.488C83.5565 190.699 83.7858 190.027 84.2445 189.472C84.7138 188.917 85.3698 188.496 86.2125 188.208C87.0552 187.909 88.0472 187.76 89.1885 187.76C90.2978 187.76 91.2845 187.925 92.1485 188.256C93.0125 188.576 93.7005 189.029 94.2125 189.616C94.7245 190.192 95.0018 190.869 95.0445 191.648H92.2925C92.2392 191.296 92.0792 190.992 91.8125 190.736C91.5565 190.469 91.1992 190.267 90.7405 190.128C90.2818 189.979 89.7432 189.904 89.1245 189.904C88.2605 189.904 87.5725 190.032 87.0605 190.288C86.5485 190.544 86.2925 190.907 86.2925 191.376C86.2925 191.739 86.4418 192.021 86.7405 192.224C87.0498 192.416 87.5885 192.56 88.3565 192.656L90.8685 192.96C91.9778 193.077 92.8578 193.269 93.5085 193.536C94.1698 193.792 94.6392 194.139 94.9165 194.576C95.2045 195.013 95.3485 195.568 95.3485 196.24C95.3485 197.04 95.1032 197.744 94.6125 198.352C94.1325 198.949 93.4552 199.413 92.5805 199.744C91.7058 200.075 90.6818 200.24 89.5085 200.24C88.3138 200.24 87.2632 200.069 86.3565 199.728C85.4498 199.376 84.7352 198.891 84.2125 198.272C83.6898 197.643 83.4072 196.912 83.3645 196.08ZM101.257 200.24C100.414 200.24 99.6945 200.069 99.0971 199.728C98.5105 199.376 98.0571 198.88 97.7371 198.24C97.4278 197.6 97.2731 196.843 97.2731 195.968V190.896H99.9451V195.568C99.9451 196.379 100.137 196.997 100.521 197.424C100.905 197.84 101.449 198.048 102.153 198.048C102.676 198.048 103.118 197.941 103.481 197.728C103.854 197.504 104.142 197.184 104.345 196.768C104.548 196.352 104.649 195.867 104.649 195.312L105.513 195.776C105.406 196.715 105.156 197.52 104.761 198.192C104.366 198.853 103.865 199.36 103.257 199.712C102.66 200.064 101.993 200.24 101.257 200.24ZM105.209 200L104.649 196.544V190.896H107.321V196.944L107.881 200H105.209ZM109.944 187.68H112.616V193.792L112.248 194.512V196.496L112.616 197.232V200H109.944V187.68ZM111.672 195.456C111.842 194.485 112.157 193.643 112.616 192.928C113.074 192.203 113.645 191.643 114.328 191.248C115.01 190.853 115.778 190.656 116.632 190.656C117.517 190.656 118.301 190.859 118.984 191.264C119.666 191.659 120.2 192.219 120.584 192.944C120.968 193.659 121.16 194.496 121.16 195.456C121.16 196.405 120.968 197.243 120.584 197.968C120.2 198.683 119.666 199.243 118.984 199.648C118.301 200.043 117.517 200.24 116.632 200.24C115.778 200.24 115.01 200.043 114.328 199.648C113.645 199.253 113.074 198.699 112.616 197.984C112.168 197.259 111.853 196.416 111.672 195.456ZM118.44 195.456C118.44 194.923 118.328 194.453 118.104 194.048C117.89 193.632 117.592 193.312 117.208 193.088C116.824 192.853 116.386 192.736 115.896 192.736C115.394 192.736 114.92 192.853 114.472 193.088C114.024 193.312 113.629 193.632 113.288 194.048C112.957 194.453 112.696 194.923 112.504 195.456C112.696 195.989 112.957 196.459 113.288 196.864C113.629 197.269 114.024 197.589 114.472 197.824C114.92 198.048 115.394 198.16 115.896 198.16C116.386 198.16 116.824 198.048 117.208 197.824C117.592 197.589 117.89 197.269 118.104 196.864C118.328 196.459 118.44 195.989 118.44 195.456ZM122.742 190.896H125.414L125.99 194.368V200H123.318V193.968L122.742 190.896ZM129.238 190.656C130.048 190.656 130.742 190.832 131.318 191.184C131.894 191.525 132.331 192.016 132.63 192.656C132.939 193.296 133.094 194.059 133.094 194.944V200H130.422V195.344C130.422 194.523 130.24 193.904 129.878 193.488C129.526 193.061 129.008 192.848 128.326 192.848C127.846 192.848 127.43 192.965 127.078 193.2C126.726 193.424 126.454 193.739 126.262 194.144C126.08 194.549 125.99 195.035 125.99 195.6L125.11 195.136C125.216 194.176 125.462 193.365 125.846 192.704C126.23 192.043 126.71 191.536 127.286 191.184C127.872 190.832 128.523 190.656 129.238 190.656ZM136.326 190.656C137.136 190.656 137.83 190.832 138.406 191.184C138.992 191.525 139.435 192.016 139.734 192.656C140.043 193.296 140.198 194.059 140.198 194.944V200H137.526V195.344C137.526 194.523 137.344 193.904 136.982 193.488C136.63 193.061 136.112 192.848 135.43 192.848C134.95 192.848 134.534 192.965 134.182 193.2C133.83 193.424 133.558 193.739 133.366 194.144C133.184 194.549 133.094 195.035 133.094 195.6L132.214 195.136C132.32 194.176 132.566 193.365 132.95 192.704C133.334 192.043 133.814 191.536 134.39 191.184C134.976 190.832 135.622 190.656 136.326 190.656ZM150.896 200L150.512 196.672L150.944 195.456L150.512 194.256L150.896 190.896H153.664L153.136 195.456L153.664 200H150.896ZM151.6 195.456C151.429 196.416 151.115 197.259 150.656 197.984C150.208 198.699 149.637 199.253 148.944 199.648C148.261 200.043 147.493 200.24 146.64 200.24C145.755 200.24 144.971 200.043 144.288 199.648C143.605 199.243 143.072 198.683 142.688 197.968C142.315 197.243 142.128 196.405 142.128 195.456C142.128 194.496 142.315 193.659 142.688 192.944C143.072 192.219 143.605 191.659 144.288 191.264C144.971 190.859 145.755 190.656 146.64 190.656C147.493 190.656 148.261 190.853 148.944 191.248C149.637 191.643 150.213 192.203 150.672 192.928C151.131 193.643 151.44 194.485 151.6 195.456ZM144.832 195.456C144.832 195.989 144.939 196.459 145.152 196.864C145.376 197.269 145.68 197.589 146.064 197.824C146.448 198.048 146.891 198.16 147.392 198.16C147.893 198.16 148.363 198.048 148.8 197.824C149.248 197.589 149.643 197.269 149.984 196.864C150.325 196.459 150.592 195.989 150.784 195.456C150.592 194.923 150.325 194.453 149.984 194.048C149.643 193.632 149.248 193.312 148.8 193.088C148.363 192.853 147.893 192.736 147.392 192.736C146.891 192.736 146.448 192.853 146.064 193.088C145.68 193.312 145.376 193.632 145.152 194.048C144.939 194.453 144.832 194.923 144.832 195.456ZM155.499 190.896H158.203L158.747 194.176V200H156.075V193.888L155.499 190.896ZM163.179 190.8V193.104C162.901 193.04 162.624 192.992 162.347 192.96C162.069 192.928 161.808 192.912 161.563 192.912C161.029 192.912 160.549 193.024 160.123 193.248C159.696 193.472 159.36 193.819 159.115 194.288C158.869 194.757 158.747 195.349 158.747 196.064L158.187 195.392C158.251 194.741 158.368 194.133 158.539 193.568C158.709 192.992 158.944 192.491 159.243 192.064C159.552 191.627 159.931 191.285 160.379 191.04C160.827 190.784 161.36 190.656 161.979 190.656C162.181 190.656 162.384 190.672 162.587 190.704C162.8 190.725 162.997 190.757 163.179 190.8ZM164.895 190.8L166.223 191.056L167.567 190.8V200H164.895V190.8ZM166.223 189.856C165.743 189.856 165.348 189.733 165.039 189.488C164.74 189.232 164.591 188.896 164.591 188.48C164.591 188.053 164.74 187.717 165.039 187.472C165.348 187.216 165.743 187.088 166.223 187.088C166.714 187.088 167.108 187.216 167.407 187.472C167.706 187.717 167.855 188.053 167.855 188.48C167.855 188.896 167.706 189.232 167.407 189.488C167.108 189.733 166.714 189.856 166.223 189.856ZM169.63 190.896H172.302L172.878 194.368V200H170.206V193.968L169.63 190.896ZM176.35 190.656C177.214 190.656 177.95 190.832 178.558 191.184C179.166 191.525 179.63 192.016 179.95 192.656C180.27 193.296 180.43 194.059 180.43 194.944V200H177.758V195.344C177.758 194.523 177.561 193.904 177.166 193.488C176.772 193.061 176.196 192.848 175.438 192.848C174.926 192.848 174.473 192.965 174.078 193.2C173.694 193.424 173.396 193.739 173.182 194.144C172.98 194.549 172.878 195.035 172.878 195.6L171.998 195.136C172.105 194.176 172.361 193.365 172.766 192.704C173.172 192.043 173.684 191.536 174.302 191.184C174.921 190.832 175.604 190.656 176.35 190.656ZM187.928 200.24C186.851 200.24 185.886 200.043 185.032 199.648C184.19 199.243 183.523 198.677 183.032 197.952C182.552 197.227 182.312 196.384 182.312 195.424C182.312 194.475 182.542 193.643 183 192.928C183.47 192.213 184.11 191.659 184.92 191.264C185.731 190.859 186.654 190.656 187.688 190.656C188.744 190.656 189.651 190.891 190.408 191.36C191.166 191.819 191.747 192.469 192.152 193.312C192.568 194.155 192.776 195.147 192.776 196.288H184.456V194.512H191.336L190.296 195.152C190.254 194.619 190.12 194.165 189.896 193.792C189.683 193.419 189.39 193.131 189.016 192.928C188.643 192.725 188.206 192.624 187.704 192.624C187.16 192.624 186.686 192.736 186.28 192.96C185.886 193.173 185.576 193.477 185.352 193.872C185.139 194.256 185.032 194.709 185.032 195.232C185.032 195.861 185.171 196.4 185.448 196.848C185.726 197.296 186.131 197.637 186.664 197.872C187.198 198.107 187.843 198.224 188.6 198.224C189.283 198.224 189.971 198.128 190.664 197.936C191.358 197.733 191.982 197.451 192.536 197.088V198.88C191.939 199.307 191.24 199.643 190.44 199.888C189.651 200.123 188.814 200.24 187.928 200.24ZM196.291 200.144C195.843 200.144 195.47 200 195.171 199.712C194.883 199.424 194.739 199.061 194.739 198.624C194.739 198.187 194.883 197.824 195.171 197.536C195.47 197.248 195.843 197.104 196.291 197.104C196.75 197.104 197.123 197.248 197.411 197.536C197.71 197.824 197.859 198.187 197.859 198.624C197.859 199.061 197.71 199.424 197.411 199.712C197.123 200 196.75 200.144 196.291 200.144ZM196.291 194.48C195.843 194.48 195.47 194.336 195.171 194.048C194.883 193.76 194.739 193.397 194.739 192.96C194.739 192.523 194.883 192.16 195.171 191.872C195.47 191.584 195.843 191.44 196.291 191.44C196.75 191.44 197.123 191.584 197.411 191.872C197.71 192.16 197.859 192.523 197.859 192.96C197.859 193.397 197.71 193.76 197.411 194.048C197.123 194.336 196.75 194.48 196.291 194.48Z" fill="white"/>
<path d="M282.64 139V137.992L286.672 133.928C287.824 132.776 288.4 131.789 288.4 130.968C288.4 130.253 288.176 129.699 287.728 129.304C287.291 128.899 286.763 128.696 286.144 128.696C284.992 128.696 284.155 129.224 283.632 130.28L282.688 129.72C283.04 129.027 283.52 128.504 284.128 128.152C284.736 127.789 285.408 127.608 286.144 127.608C287.04 127.608 287.824 127.912 288.496 128.52C289.179 129.117 289.52 129.933 289.52 130.968C289.52 131.619 289.339 132.243 288.976 132.84C288.613 133.437 288.101 134.067 287.44 134.728L284.24 137.912H289.76V139H282.64ZM299.454 135.704V136.76H298.014V139H296.894V136.76H290.974V135.704L295.134 127.8H296.366L292.206 135.704H296.894V132.28H298.014V135.704H299.454ZM308.015 132.888V133.912H305.167V136.76H304.143V133.912H301.295V132.888H304.143V130.04H305.167V132.888H308.015Z" fill="white"/>
<path d="M70.048 236L72.112 232.432H72.144L77.008 224H79.952L72.992 236H70.048ZM72.112 234.256L66.128 224H69.12L73.984 232.368L72.112 234.256ZM80.8529 226.896H90.2609V236H87.5889V227.696L88.8209 228.912H82.1809L83.3329 227.92C83.3862 228.571 83.4289 229.173 83.4609 229.728C83.5035 230.272 83.5249 230.763 83.5249 231.2C83.5249 232.949 83.2635 234.219 82.7409 235.008C82.2289 235.797 81.3969 236.192 80.2449 236.192C79.9249 236.192 79.6155 236.155 79.3169 236.08C79.0289 236.016 78.7462 235.904 78.4689 235.744V233.808C78.6609 233.883 78.8475 233.941 79.0289 233.984C79.2209 234.016 79.3969 234.032 79.5569 234.032C80.1009 234.032 80.4902 233.787 80.7249 233.296C80.9702 232.795 81.0929 231.973 81.0929 230.832C81.0929 230.32 81.0715 229.733 81.0289 229.072C80.9969 228.411 80.9382 227.685 80.8529 226.896ZM102.557 236.24C101.437 236.24 100.456 236.043 99.6132 235.648C98.7706 235.243 98.1146 234.683 97.6452 233.968C97.1866 233.243 96.9572 232.405 96.9572 231.456C96.9572 230.496 97.1866 229.659 97.6452 228.944C98.1146 228.219 98.7706 227.659 99.6132 227.264C100.456 226.859 101.437 226.656 102.557 226.656C103.677 226.656 104.659 226.859 105.501 227.264C106.344 227.659 107 228.219 107.469 228.944C107.939 229.659 108.173 230.496 108.173 231.456C108.173 232.405 107.939 233.243 107.469 233.968C107 234.683 106.344 235.243 105.501 235.648C104.659 236.043 103.677 236.24 102.557 236.24ZM92.7492 236V226.896H95.4212V236H92.7492ZM94.2532 232.368V230.368H98.6532V232.368H94.2532ZM102.557 234.208C103.165 234.208 103.683 234.096 104.109 233.872C104.547 233.648 104.883 233.333 105.117 232.928C105.352 232.512 105.469 232.021 105.469 231.456C105.469 230.88 105.352 230.389 105.117 229.984C104.883 229.568 104.547 229.248 104.109 229.024C103.683 228.8 103.165 228.688 102.557 228.688C101.96 228.688 101.443 228.8 101.005 229.024C100.568 229.248 100.232 229.568 99.9972 229.984C99.7626 230.389 99.6452 230.88 99.6452 231.456C99.6452 232.021 99.7626 232.512 99.9972 232.928C100.232 233.333 100.568 233.648 101.005 233.872C101.443 234.096 101.96 234.208 102.557 234.208ZM115.782 236.24C114.534 236.24 113.467 236.005 112.582 235.536C111.697 235.056 111.019 234.368 110.55 233.472C110.081 232.576 109.846 231.493 109.846 230.224C109.846 228.336 110.353 226.848 111.366 225.76C112.379 224.672 113.83 224.048 115.718 223.888C116.486 223.824 117.121 223.771 117.622 223.728C118.123 223.685 118.534 223.643 118.854 223.6C119.185 223.547 119.462 223.493 119.686 223.44C119.91 223.376 120.129 223.307 120.342 223.232V225.456C120.118 225.541 119.83 225.621 119.478 225.696C119.137 225.76 118.699 225.813 118.166 225.856C117.643 225.899 116.998 225.941 116.23 225.984C114.833 226.048 113.793 226.432 113.11 227.136C112.427 227.84 112.086 228.853 112.086 230.176V230.608L111.99 230.416C112.203 229.84 112.529 229.344 112.966 228.928C113.403 228.512 113.926 228.197 114.534 227.984C115.153 227.76 115.819 227.648 116.534 227.648C117.462 227.648 118.273 227.824 118.966 228.176C119.659 228.517 120.198 229.003 120.582 229.632C120.977 230.261 121.174 230.997 121.174 231.84C121.174 232.725 120.95 233.499 120.502 234.16C120.054 234.821 119.425 235.333 118.614 235.696C117.814 236.059 116.87 236.24 115.782 236.24ZM115.846 234.208C116.379 234.208 116.843 234.112 117.238 233.92C117.633 233.728 117.937 233.456 118.15 233.104C118.363 232.752 118.47 232.341 118.47 231.872C118.47 231.403 118.363 230.997 118.15 230.656C117.937 230.304 117.633 230.032 117.238 229.84C116.843 229.648 116.379 229.552 115.846 229.552C115.11 229.552 114.459 229.749 113.894 230.144C113.329 230.528 112.902 231.067 112.614 231.76C112.785 232.507 113.158 233.104 113.734 233.552C114.321 233.989 115.025 234.208 115.846 234.208ZM124.558 226.896H133.966V236H131.294V227.696L132.526 228.912H125.886L127.038 227.92C127.092 228.571 127.134 229.173 127.166 229.728C127.209 230.272 127.23 230.763 127.23 231.2C127.23 232.949 126.969 234.219 126.446 235.008C125.934 235.797 125.102 236.192 123.95 236.192C123.63 236.192 123.321 236.155 123.022 236.08C122.734 236.016 122.452 235.904 122.174 235.744V233.808C122.366 233.883 122.553 233.941 122.734 233.984C122.926 234.016 123.102 234.032 123.262 234.032C123.806 234.032 124.196 233.787 124.43 233.296C124.676 232.795 124.798 231.973 124.798 230.832C124.798 230.32 124.777 229.733 124.734 229.072C124.702 228.411 124.644 227.685 124.558 226.896ZM141.591 236.24C140.514 236.24 139.548 236.043 138.695 235.648C137.852 235.243 137.186 234.677 136.695 233.952C136.215 233.227 135.975 232.384 135.975 231.424C135.975 230.475 136.204 229.643 136.663 228.928C137.132 228.213 137.772 227.659 138.583 227.264C139.394 226.859 140.316 226.656 141.351 226.656C142.407 226.656 143.314 226.891 144.071 227.36C144.828 227.819 145.41 228.469 145.815 229.312C146.231 230.155 146.439 231.147 146.439 232.288H138.119V230.512H144.999L143.959 231.152C143.916 230.619 143.783 230.165 143.559 229.792C143.346 229.419 143.052 229.131 142.679 228.928C142.306 228.725 141.868 228.624 141.367 228.624C140.823 228.624 140.348 228.736 139.943 228.96C139.548 229.173 139.239 229.477 139.015 229.872C138.802 230.256 138.695 230.709 138.695 231.232C138.695 231.861 138.834 232.4 139.111 232.848C139.388 233.296 139.794 233.637 140.327 233.872C140.86 234.107 141.506 234.224 142.263 234.224C142.946 234.224 143.634 234.128 144.327 233.936C145.02 233.733 145.644 233.451 146.199 233.088V234.88C145.602 235.307 144.903 235.643 144.103 235.888C143.314 236.123 142.476 236.24 141.591 236.24ZM148.482 226.896H151.138V236H148.482V226.896ZM156.114 226.896H158.77V236H156.114V226.896ZM150.002 230.352H157.154V232.368H150.002V230.352ZM161.259 226.8L162.587 227.056L163.931 226.8V236H161.259V226.8ZM162.587 225.856C162.107 225.856 161.712 225.733 161.403 225.488C161.104 225.232 160.955 224.896 160.955 224.48C160.955 224.053 161.104 223.717 161.403 223.472C161.712 223.216 162.107 223.088 162.587 223.088C163.077 223.088 163.472 223.216 163.771 223.472C164.069 223.717 164.219 224.053 164.219 224.48C164.219 224.896 164.069 225.232 163.771 225.488C163.472 225.733 163.077 225.856 162.587 225.856ZM181.224 226.896V236H178.552V227.696L179.784 228.912H172.44L173.672 227.696V236H171V226.896H181.224ZM183.714 226.896H186.386V229.792L186.274 230.144V232.336L186.386 232.992V238.64H183.714V226.896ZM185.458 231.456C185.64 230.485 185.954 229.643 186.402 228.928C186.861 228.203 187.432 227.643 188.114 227.248C188.808 226.853 189.576 226.656 190.418 226.656C191.314 226.656 192.098 226.859 192.77 227.264C193.453 227.659 193.986 228.219 194.37 228.944C194.754 229.659 194.946 230.496 194.946 231.456C194.946 232.405 194.754 233.243 194.37 233.968C193.986 234.683 193.453 235.243 192.77 235.648C192.098 236.043 191.314 236.24 190.418 236.24C189.565 236.24 188.797 236.043 188.114 235.648C187.442 235.253 186.877 234.699 186.418 233.984C185.96 233.259 185.64 232.416 185.458 231.456ZM192.242 231.456C192.242 230.923 192.13 230.453 191.906 230.048C191.693 229.632 191.394 229.312 191.01 229.088C190.626 228.853 190.184 228.736 189.682 228.736C189.181 228.736 188.706 228.853 188.258 229.088C187.81 229.312 187.416 229.632 187.074 230.048C186.744 230.453 186.482 230.923 186.29 231.456C186.482 231.989 186.744 232.459 187.074 232.864C187.416 233.269 187.81 233.589 188.258 233.824C188.706 234.048 189.181 234.16 189.682 234.16C190.184 234.16 190.626 234.048 191.01 233.824C191.394 233.589 191.693 233.269 191.906 232.864C192.13 232.459 192.242 231.989 192.242 231.456ZM202.207 236.24C201.076 236.24 200.084 236.043 199.231 235.648C198.378 235.243 197.711 234.683 197.231 233.968C196.751 233.243 196.511 232.405 196.511 231.456C196.511 230.496 196.751 229.659 197.231 228.944C197.711 228.219 198.378 227.659 199.231 227.264C200.084 226.859 201.076 226.656 202.207 226.656C203.338 226.656 204.33 226.859 205.183 227.264C206.036 227.659 206.698 228.219 207.167 228.944C207.647 229.659 207.887 230.496 207.887 231.456C207.887 232.405 207.647 233.243 207.167 233.968C206.698 234.683 206.036 235.243 205.183 235.648C204.33 236.043 203.338 236.24 202.207 236.24ZM202.207 234.208C202.826 234.208 203.354 234.096 203.791 233.872C204.239 233.648 204.58 233.333 204.815 232.928C205.06 232.512 205.183 232.021 205.183 231.456C205.183 230.88 205.06 230.389 204.815 229.984C204.58 229.568 204.239 229.248 203.791 229.024C203.354 228.8 202.826 228.688 202.207 228.688C201.599 228.688 201.071 228.8 200.623 229.024C200.175 229.248 199.828 229.568 199.583 229.984C199.348 230.389 199.231 230.88 199.231 231.456C199.231 232.021 199.348 232.512 199.583 232.928C199.828 233.333 200.175 233.648 200.623 233.872C201.071 234.096 201.599 234.208 202.207 234.208ZM214.98 236.24C213.892 236.24 212.927 236.043 212.084 235.648C211.252 235.243 210.602 234.677 210.132 233.952C209.674 233.227 209.444 232.395 209.444 231.456C209.444 230.507 209.674 229.675 210.132 228.96C210.602 228.235 211.252 227.669 212.084 227.264C212.927 226.859 213.892 226.656 214.98 226.656C215.94 226.656 216.804 226.816 217.572 227.136C218.34 227.456 218.97 227.899 219.46 228.464C219.962 229.019 220.276 229.669 220.404 230.416H217.796C217.636 229.872 217.3 229.429 216.788 229.088C216.276 228.736 215.674 228.56 214.98 228.56C214.383 228.56 213.866 228.677 213.428 228.912C212.991 229.136 212.65 229.467 212.404 229.904C212.17 230.331 212.052 230.848 212.052 231.456C212.052 232.053 212.17 232.571 212.404 233.008C212.65 233.435 212.991 233.765 213.428 234C213.866 234.224 214.383 234.336 214.98 234.336C215.674 234.336 216.276 234.165 216.788 233.824C217.3 233.483 217.636 233.035 217.796 232.48H220.404C220.276 233.227 219.962 233.883 219.46 234.448C218.97 235.003 218.34 235.44 217.572 235.76C216.804 236.08 215.94 236.24 214.98 236.24ZM210.836 232.272V230.624H216.34V232.272H210.836ZM222.311 236V226.896H224.983V233.84L224.199 233.568L229.623 226.896H232.535L224.711 236H222.311ZM229.751 236L227.031 231.536L228.999 230.016L232.807 236H229.751ZM237.029 227.824H239.701V236H237.029V227.824ZM233.413 226.896H243.317V228.944H233.413V226.896ZM245.02 236V226.896H247.644V234.592L246.988 234.416L252.476 226.896H255.916V236H253.292V228.16L253.948 228.352L248.364 236H245.02ZM259.879 236.144C259.431 236.144 259.057 236 258.759 235.712C258.471 235.424 258.327 235.061 258.327 234.624C258.327 234.187 258.471 233.824 258.759 233.536C259.057 233.248 259.431 233.104 259.879 233.104C260.337 233.104 260.711 233.248 260.999 233.536C261.297 233.824 261.447 234.187 261.447 234.624C261.447 235.061 261.297 235.424 260.999 235.712C260.711 236 260.337 236.144 259.879 236.144ZM259.879 230.48C259.431 230.48 259.057 230.336 258.759 230.048C258.471 229.76 258.327 229.397 258.327 228.96C258.327 228.523 258.471 228.16 258.759 227.872C259.057 227.584 259.431 227.44 259.879 227.44C260.337 227.44 260.711 227.584 260.999 227.872C261.297 228.16 261.447 228.523 261.447 228.96C261.447 229.397 261.297 229.76 260.999 230.048C260.711 230.336 260.337 230.48 259.879 230.48Z" fill="white"/>
<path d="M287.6 223.8C289.125 223.8 290.384 224.344 291.376 225.432C292.379 226.509 292.88 227.832 292.88 229.4C292.88 230.968 292.379 232.296 291.376 233.384C290.384 234.461 289.125 235 287.6 235H283.28V223.8H287.6ZM287.6 233.944C288.827 233.944 289.829 233.507 290.608 232.632C291.397 231.757 291.792 230.68 291.792 229.4C291.792 228.12 291.397 227.043 290.608 226.168C289.829 225.293 288.827 224.856 287.6 224.856H284.4V233.944H287.6ZM300.826 227H301.882V235H300.826V233.752C300.228 234.712 299.332 235.192 298.138 235.192C297.167 235.192 296.399 234.899 295.834 234.312C295.279 233.715 295.002 232.915 295.002 231.912V227H296.058V231.912C296.058 232.627 296.244 233.181 296.618 233.576C297.002 233.971 297.54 234.168 298.234 234.168C299.002 234.168 299.626 233.928 300.106 233.448C300.586 232.957 300.826 232.205 300.826 231.192V227ZM308.324 235.192C307.118 235.192 306.116 234.792 305.316 233.992C304.516 233.181 304.116 232.184 304.116 231C304.116 229.816 304.516 228.824 305.316 228.024C306.116 227.213 307.118 226.808 308.324 226.808C309.113 226.808 309.822 227 310.452 227.384C311.081 227.757 311.54 228.264 311.828 228.904L310.964 229.4C310.75 228.92 310.404 228.541 309.924 228.264C309.454 227.976 308.921 227.832 308.324 227.832C307.438 227.832 306.692 228.141 306.084 228.76C305.476 229.368 305.172 230.115 305.172 231C305.172 231.885 305.476 232.637 306.084 233.256C306.692 233.864 307.438 234.168 308.324 234.168C308.921 234.168 309.454 234.029 309.924 233.752C310.393 233.464 310.761 233.08 311.028 232.6L311.908 233.112C311.577 233.752 311.092 234.259 310.452 234.632C309.812 235.005 309.102 235.192 308.324 235.192ZM320.368 235H318.96L314.96 231.144V235H313.904V223.8H314.96V230.536L318.768 227H320.208L316.08 230.84L320.368 235ZM324.05 225.88H323.026L321.49 223.8H322.77L324.05 225.88ZM326.805 229.096C326.805 229.459 326.965 229.747 327.285 229.96C327.605 230.173 327.994 230.339 328.453 230.456C328.912 230.573 329.37 230.707 329.829 230.856C330.288 230.995 330.677 231.235 330.997 231.576C331.317 231.907 331.477 232.344 331.477 232.888C331.477 233.571 331.205 234.125 330.661 234.552C330.128 234.979 329.434 235.192 328.581 235.192C327.813 235.192 327.157 235.021 326.613 234.68C326.08 234.339 325.706 233.896 325.493 233.352L326.389 232.824C326.538 233.24 326.805 233.571 327.189 233.816C327.584 234.051 328.048 234.168 328.581 234.168C329.104 234.168 329.541 234.067 329.893 233.864C330.245 233.651 330.421 233.325 330.421 232.888C330.421 232.525 330.261 232.237 329.941 232.024C329.621 231.811 329.232 231.645 328.773 231.528C328.314 231.411 327.856 231.283 327.397 231.144C326.938 230.995 326.549 230.755 326.229 230.424C325.909 230.083 325.749 229.64 325.749 229.096C325.749 228.445 326.005 227.901 326.517 227.464C327.04 227.027 327.696 226.808 328.485 226.808C329.136 226.808 329.706 226.957 330.197 227.256C330.688 227.544 331.05 227.939 331.285 228.44L330.405 228.952C330.096 228.205 329.456 227.832 328.485 227.832C328.026 227.832 327.632 227.944 327.301 228.168C326.97 228.381 326.805 228.691 326.805 229.096ZM339.479 233.944H344.599V235H338.359V223.8H339.479V233.944ZM352.996 227H354.052V235H352.996V233.432C352.26 234.605 351.183 235.192 349.764 235.192C348.623 235.192 347.647 234.787 346.836 233.976C346.036 233.165 345.636 232.173 345.636 231C345.636 229.827 346.036 228.835 346.836 228.024C347.647 227.213 348.623 226.808 349.764 226.808C351.183 226.808 352.26 227.395 352.996 228.568V227ZM347.604 233.256C348.212 233.864 348.959 234.168 349.844 234.168C350.73 234.168 351.476 233.864 352.084 233.256C352.692 232.637 352.996 231.885 352.996 231C352.996 230.115 352.692 229.368 352.084 228.76C351.476 228.141 350.73 227.832 349.844 227.832C348.959 227.832 348.212 228.141 347.604 228.76C346.996 229.368 346.692 230.115 346.692 231C346.692 231.885 346.996 232.637 347.604 233.256ZM363.232 235H361.824L357.824 231.144V235H356.768V223.8H357.824V230.536L361.632 227H363.072L358.944 230.84L363.232 235ZM368.054 226.808C369.238 226.808 370.192 227.229 370.918 228.072C371.654 228.904 372.022 229.891 372.022 231.032C372.022 231.149 372.011 231.315 371.99 231.528H364.966C365.072 232.339 365.414 232.984 365.99 233.464C366.576 233.933 367.296 234.168 368.15 234.168C368.758 234.168 369.28 234.045 369.718 233.8C370.166 233.544 370.502 233.213 370.726 232.808L371.654 233.352C371.302 233.917 370.822 234.365 370.214 234.696C369.606 235.027 368.912 235.192 368.134 235.192C366.875 235.192 365.851 234.797 365.062 234.008C364.272 233.219 363.878 232.216 363.878 231C363.878 229.805 364.267 228.808 365.046 228.008C365.824 227.208 366.827 226.808 368.054 226.808ZM368.054 227.832C367.222 227.832 366.523 228.083 365.958 228.584C365.403 229.075 365.072 229.715 364.966 230.504H370.934C370.827 229.661 370.502 229.005 369.958 228.536C369.414 228.067 368.779 227.832 368.054 227.832ZM284.72 256.6C283.547 254.253 282.96 251.853 282.96 249.4C282.96 246.947 283.547 244.547 284.72 242.2H285.776C284.603 244.547 284.016 246.947 284.016 249.4C284.016 251.853 284.603 254.253 285.776 256.6H284.72ZM294.314 255H292.906L288.906 251.144V255H287.85V247H288.906V250.536L292.714 247H294.154L290.026 250.84L294.314 255ZM302.143 253.992C301.333 254.792 300.341 255.192 299.167 255.192C297.994 255.192 296.997 254.792 296.175 253.992C295.365 253.181 294.959 252.184 294.959 251C294.959 249.816 295.365 248.824 296.175 248.024C296.997 247.213 297.994 246.808 299.167 246.808C300.341 246.808 301.333 247.213 302.143 248.024C302.965 248.824 303.375 249.816 303.375 251C303.375 252.184 302.965 253.181 302.143 253.992ZM296.927 253.256C297.535 253.864 298.282 254.168 299.167 254.168C300.053 254.168 300.799 253.864 301.407 253.256C302.015 252.637 302.319 251.885 302.319 251C302.319 250.115 302.015 249.368 301.407 248.76C300.799 248.141 300.053 247.832 299.167 247.832C298.282 247.832 297.535 248.141 296.927 248.76C296.319 249.368 296.015 250.115 296.015 251C296.015 251.885 296.319 252.637 296.927 253.256ZM311.287 247H312.343V255H311.287V251.512H306.679V255H305.623V247H306.679V250.488H311.287V247ZM320.816 247V248.024H317.984V255H316.928V248.024H314.096V247H320.816ZM325.966 246.808C327.15 246.808 328.105 247.229 328.83 248.072C329.566 248.904 329.934 249.891 329.934 251.032C329.934 251.149 329.923 251.315 329.902 251.528H322.878C322.985 252.339 323.326 252.984 323.902 253.464C324.489 253.933 325.209 254.168 326.062 254.168C326.67 254.168 327.193 254.045 327.63 253.8C328.078 253.544 328.414 253.213 328.638 252.808L329.566 253.352C329.214 253.917 328.734 254.365 328.126 254.696C327.518 255.027 326.825 255.192 326.046 255.192C324.787 255.192 323.763 254.797 322.974 254.008C322.185 253.219 321.79 252.216 321.79 251C321.79 249.805 322.179 248.808 322.958 248.008C323.737 247.208 324.739 246.808 325.966 246.808ZM325.966 247.832C325.134 247.832 324.435 248.083 323.87 248.584C323.315 249.075 322.985 249.715 322.878 250.504H328.846C328.739 249.661 328.414 249.005 327.87 248.536C327.326 248.067 326.691 247.832 325.966 247.832ZM337.758 247H338.814V255H337.758V251.512H333.15V255H332.094V247H333.15V250.488H337.758V247ZM347.287 247V248.024H344.455V255H343.399V248.024H340.567V247H347.287ZM349.47 256.6H348.414C349.587 254.253 350.174 251.853 350.174 249.4C350.174 246.947 349.587 244.547 348.414 242.2H349.47C350.643 244.547 351.23 246.947 351.23 249.4C351.23 251.853 350.643 254.253 349.47 256.6ZM355.544 253.64L354.584 257.24H353.624L354.264 253.64H355.544ZM289.52 263.8V264.856H284.4V275H283.28V263.8H289.52ZM294.138 266.808C295.279 266.808 296.25 267.213 297.05 268.024C297.861 268.835 298.266 269.827 298.266 271C298.266 272.173 297.861 273.165 297.05 273.976C296.25 274.787 295.279 275.192 294.138 275.192C292.719 275.192 291.642 274.605 290.906 273.432V278.2H289.85V267H290.906V268.568C291.642 267.395 292.719 266.808 294.138 266.808ZM291.818 273.256C292.426 273.864 293.173 274.168 294.058 274.168C294.943 274.168 295.69 273.864 296.298 273.256C296.906 272.637 297.21 271.885 297.21 271C297.21 270.115 296.906 269.368 296.298 268.76C295.69 268.141 294.943 267.832 294.058 267.832C293.173 267.832 292.426 268.141 291.818 268.76C291.21 269.368 290.906 270.115 290.906 271C290.906 271.885 291.21 272.637 291.818 273.256ZM307.206 273.992C306.395 274.792 305.403 275.192 304.23 275.192C303.057 275.192 302.059 274.792 301.238 273.992C300.427 273.181 300.022 272.184 300.022 271C300.022 269.816 300.427 268.824 301.238 268.024C302.059 267.213 303.057 266.808 304.23 266.808C305.403 266.808 306.395 267.213 307.206 268.024C308.027 268.824 308.438 269.816 308.438 271C308.438 272.184 308.027 273.181 307.206 273.992ZM301.99 273.256C302.598 273.864 303.345 274.168 304.23 274.168C305.115 274.168 305.862 273.864 306.47 273.256C307.078 272.637 307.382 271.885 307.382 271C307.382 270.115 307.078 269.368 306.47 268.76C305.862 268.141 305.115 267.832 304.23 267.832C303.345 267.832 302.598 268.141 301.99 268.76C301.382 269.368 301.078 270.115 301.078 271C301.078 271.885 301.382 272.637 301.99 273.256ZM316.349 267H317.405V275H316.349V271.512H311.741V275H310.685V267H311.741V270.488H316.349V267ZM326.822 273.992C326.011 274.792 325.019 275.192 323.846 275.192C322.673 275.192 321.675 274.792 320.854 273.992C320.043 273.181 319.638 272.184 319.638 271C319.638 269.816 320.043 268.824 320.854 268.024C321.675 267.213 322.673 266.808 323.846 266.808C325.019 266.808 326.011 267.213 326.822 268.024C327.643 268.824 328.054 269.816 328.054 271C328.054 272.184 327.643 273.181 326.822 273.992ZM321.606 273.256C322.214 273.864 322.961 274.168 323.846 274.168C324.731 274.168 325.478 273.864 326.086 273.256C326.694 272.637 326.998 271.885 326.998 271C326.998 270.115 326.694 269.368 326.086 268.76C325.478 268.141 324.731 267.832 323.846 267.832C322.961 267.832 322.214 268.141 321.606 268.76C320.998 269.368 320.694 270.115 320.694 271C320.694 271.885 320.998 272.637 321.606 273.256ZM336.381 276.6C335.208 274.253 334.621 271.853 334.621 269.4C334.621 266.947 335.208 264.547 336.381 262.2H337.437C336.264 264.547 335.677 266.947 335.677 269.4C335.677 271.853 336.264 274.253 337.437 276.6H336.381ZM343.239 275.192C342.034 275.192 341.031 274.792 340.231 273.992C339.431 273.181 339.031 272.184 339.031 271C339.031 269.816 339.431 268.824 340.231 268.024C341.031 267.213 342.034 266.808 343.239 266.808C344.029 266.808 344.738 267 345.367 267.384C345.997 267.757 346.455 268.264 346.743 268.904L345.879 269.4C345.666 268.92 345.319 268.541 344.839 268.264C344.37 267.976 343.837 267.832 343.239 267.832C342.354 267.832 341.607 268.141 340.999 268.76C340.391 269.368 340.087 270.115 340.087 271C340.087 271.885 340.391 272.637 340.999 273.256C341.607 273.864 342.354 274.168 343.239 274.168C343.837 274.168 344.37 274.029 344.839 273.752C345.309 273.464 345.677 273.08 345.943 272.6L346.823 273.112C346.493 273.752 346.007 274.259 345.367 274.632C344.727 275.005 344.018 275.192 343.239 275.192ZM354.423 267V268.024H351.591V275H350.535V268.024H347.703V267H354.423ZM362.582 273.992C361.771 274.792 360.779 275.192 359.605 275.192C358.432 275.192 357.435 274.792 356.613 273.992C355.803 273.181 355.397 272.184 355.397 271C355.397 269.816 355.803 268.824 356.613 268.024C357.435 267.213 358.432 266.808 359.605 266.808C360.779 266.808 361.771 267.213 362.582 268.024C363.403 268.824 363.814 269.816 363.814 271C363.814 272.184 363.403 273.181 362.582 273.992ZM357.365 273.256C357.973 273.864 358.72 274.168 359.605 274.168C360.491 274.168 361.237 273.864 361.845 273.256C362.453 272.637 362.757 271.885 362.757 271C362.757 270.115 362.453 269.368 361.845 268.76C361.237 268.141 360.491 267.832 359.605 267.832C358.72 267.832 357.973 268.141 357.365 268.76C356.757 269.368 356.453 270.115 356.453 271C356.453 271.885 356.757 272.637 357.365 273.256ZM370.349 266.808C371.49 266.808 372.461 267.213 373.261 268.024C374.071 268.835 374.477 269.827 374.477 271C374.477 272.173 374.071 273.165 373.261 273.976C372.461 274.787 371.49 275.192 370.349 275.192C368.93 275.192 367.853 274.605 367.117 273.432V278.2H366.061V267H367.117V268.568C367.853 267.395 368.93 266.808 370.349 266.808ZM368.029 273.256C368.637 273.864 369.383 274.168 370.269 274.168C371.154 274.168 371.901 273.864 372.509 273.256C373.117 272.637 373.421 271.885 373.421 271C373.421 270.115 373.117 269.368 372.509 268.76C371.901 268.141 371.154 267.832 370.269 267.832C369.383 267.832 368.637 268.141 368.029 268.76C367.421 269.368 367.117 270.115 367.117 271C367.117 271.885 367.421 272.637 368.029 273.256ZM377.784 265.08C377.635 265.229 377.454 265.304 377.24 265.304C377.027 265.304 376.846 265.229 376.696 265.08C376.547 264.931 376.472 264.749 376.472 264.536C376.472 264.323 376.547 264.141 376.696 263.992C376.846 263.843 377.027 263.768 377.24 263.768C377.454 263.768 377.635 263.843 377.784 263.992C377.934 264.141 378.008 264.323 378.008 264.536C378.008 264.749 377.934 264.931 377.784 265.08ZM376.712 275V267H377.768V275H376.712ZM384.217 275.192C383.012 275.192 382.009 274.792 381.209 273.992C380.409 273.181 380.009 272.184 380.009 271C380.009 269.816 380.409 268.824 381.209 268.024C382.009 267.213 383.012 266.808 384.217 266.808C385.007 266.808 385.716 267 386.345 267.384C386.975 267.757 387.433 268.264 387.721 268.904L386.857 269.4C386.644 268.92 386.297 268.541 385.817 268.264C385.348 267.976 384.815 267.832 384.217 267.832C383.332 267.832 382.585 268.141 381.977 268.76C381.369 269.368 381.065 270.115 381.065 271C381.065 271.885 381.369 272.637 381.977 273.256C382.585 273.864 383.332 274.168 384.217 274.168C384.815 274.168 385.348 274.029 385.817 273.752C386.287 273.464 386.655 273.08 386.921 272.6L387.801 273.112C387.471 273.752 386.985 274.259 386.345 274.632C385.705 275.005 384.996 275.192 384.217 275.192ZM390.213 276.6H389.157C390.331 274.253 390.917 271.853 390.917 269.4C390.917 266.947 390.331 264.547 389.157 262.2H390.213C391.387 264.547 391.973 266.947 391.973 269.4C391.973 271.853 391.387 274.253 390.213 276.6ZM396.288 273.64L395.328 277.24H394.368L395.008 273.64H396.288ZM291.28 293.944H292.48V297.144H291.36V295H283.36V297.144H282.24V293.944H283.152C283.888 293.08 284.256 291.747 284.256 289.944V283.8H291.28V293.944ZM284.48 293.944H290.16V284.856H285.376V289.976C285.376 291.747 285.077 293.069 284.48 293.944ZM298.03 286.808C299.214 286.808 300.169 287.229 300.894 288.072C301.63 288.904 301.998 289.891 301.998 291.032C301.998 291.149 301.988 291.315 301.966 291.528H294.942C295.049 292.339 295.39 292.984 295.966 293.464C296.553 293.933 297.273 294.168 298.126 294.168C298.734 294.168 299.257 294.045 299.694 293.8C300.142 293.544 300.478 293.213 300.702 292.808L301.63 293.352C301.278 293.917 300.798 294.365 300.19 294.696C299.582 295.027 298.889 295.192 298.11 295.192C296.852 295.192 295.828 294.797 295.038 294.008C294.249 293.219 293.854 292.216 293.854 291C293.854 289.805 294.244 288.808 295.022 288.008C295.801 287.208 296.804 286.808 298.03 286.808ZM298.03 287.832C297.198 287.832 296.5 288.083 295.934 288.584C295.38 289.075 295.049 289.715 294.942 290.504H300.91C300.804 289.661 300.478 289.005 299.934 288.536C299.39 288.067 298.756 287.832 298.03 287.832ZM309.278 287V288.024H305.214V295H304.158V287H309.278ZM317.289 287H318.409L314.985 295.736C314.675 296.525 314.233 297.144 313.657 297.592C313.091 298.051 312.457 298.253 311.753 298.2V297.208C312.713 297.315 313.443 296.76 313.945 295.544L314.153 295.048L310.569 287H311.689L314.697 293.704L317.289 287ZM323.58 295.192C322.375 295.192 321.372 294.792 320.572 293.992C319.772 293.181 319.372 292.184 319.372 291C319.372 289.816 319.772 288.824 320.572 288.024C321.372 287.213 322.375 286.808 323.58 286.808C324.37 286.808 325.079 287 325.708 287.384C326.338 287.757 326.796 288.264 327.084 288.904L326.22 289.4C326.007 288.92 325.66 288.541 325.18 288.264C324.711 287.976 324.178 287.832 323.58 287.832C322.695 287.832 321.948 288.141 321.34 288.76C320.732 289.368 320.428 290.115 320.428 291C320.428 291.885 320.732 292.637 321.34 293.256C321.948 293.864 322.695 294.168 323.58 294.168C324.178 294.168 324.711 294.029 325.18 293.752C325.65 293.464 326.018 293.08 326.284 292.6L327.164 293.112C326.834 293.752 326.348 294.259 325.708 294.632C325.068 295.005 324.359 295.192 323.58 295.192ZM334.764 287V288.024H331.932V295H330.876V288.024H328.044V287H334.764ZM343.099 287H344.155V295H343.099V293.432C342.363 294.605 341.285 295.192 339.867 295.192C338.725 295.192 337.749 294.787 336.939 293.976C336.139 293.165 335.739 292.173 335.739 291C335.739 289.827 336.139 288.835 336.939 288.024C337.749 287.213 338.725 286.808 339.867 286.808C341.285 286.808 342.363 287.395 343.099 288.568V287ZM337.707 293.256C338.315 293.864 339.061 294.168 339.947 294.168C340.832 294.168 341.579 293.864 342.187 293.256C342.795 292.637 343.099 291.885 343.099 291C343.099 290.115 342.795 289.368 342.187 288.76C341.579 288.141 340.832 287.832 339.947 287.832C339.061 287.832 338.315 288.141 337.707 288.76C337.099 289.368 336.795 290.115 336.795 291C336.795 291.885 337.099 292.637 337.707 293.256ZM352.631 287V288.024H349.799V295H348.743V288.024H345.911V287H352.631ZM360.789 293.992C359.978 294.792 358.986 295.192 357.813 295.192C356.64 295.192 355.642 294.792 354.821 293.992C354.01 293.181 353.605 292.184 353.605 291C353.605 289.816 354.01 288.824 354.821 288.024C355.642 287.213 356.64 286.808 357.813 286.808C358.986 286.808 359.978 287.213 360.789 288.024C361.61 288.824 362.021 289.816 362.021 291C362.021 292.184 361.61 293.181 360.789 293.992ZM355.573 293.256C356.181 293.864 356.928 294.168 357.813 294.168C358.698 294.168 359.445 293.864 360.053 293.256C360.661 292.637 360.965 291.885 360.965 291C360.965 290.115 360.661 289.368 360.053 288.76C359.445 288.141 358.698 287.832 357.813 287.832C356.928 287.832 356.181 288.141 355.573 288.76C354.965 289.368 354.661 290.115 354.661 291C354.661 291.885 354.965 292.637 355.573 293.256ZM368.556 286.808C369.697 286.808 370.668 287.213 371.468 288.024C372.279 288.835 372.684 289.827 372.684 291C372.684 292.173 372.279 293.165 371.468 293.976C370.668 294.787 369.697 295.192 368.556 295.192C367.137 295.192 366.06 294.605 365.324 293.432V298.2H364.268V287H365.324V288.568C366.06 287.395 367.137 286.808 368.556 286.808ZM366.236 293.256C366.844 293.864 367.591 294.168 368.476 294.168C369.361 294.168 370.108 293.864 370.716 293.256C371.324 292.637 371.628 291.885 371.628 291C371.628 290.115 371.324 289.368 370.716 288.76C370.108 288.141 369.361 287.832 368.476 287.832C367.591 287.832 366.844 288.141 366.236 288.76C365.628 289.368 365.324 290.115 365.324 291C365.324 291.885 365.628 292.637 366.236 293.256ZM381.384 295H379.976L375.976 291.144V295H374.92V287H375.976V290.536L379.784 287H381.224L377.096 290.84L381.384 295ZM389.389 287H390.445V295H389.389V293.432C388.653 294.605 387.576 295.192 386.157 295.192C385.016 295.192 384.04 294.787 383.229 293.976C382.429 293.165 382.029 292.173 382.029 291C382.029 289.827 382.429 288.835 383.229 288.024C384.04 287.213 385.016 286.808 386.157 286.808C387.576 286.808 388.653 287.395 389.389 288.568V287ZM383.997 293.256C384.605 293.864 385.352 294.168 386.237 294.168C387.123 294.168 387.869 293.864 388.477 293.256C389.085 292.637 389.389 291.885 389.389 291C389.389 290.115 389.085 289.368 388.477 288.76C387.869 288.141 387.123 287.832 386.237 287.832C385.352 287.832 384.605 288.141 383.997 288.76C383.389 289.368 383.085 290.115 383.085 291C383.085 291.885 383.389 292.637 383.997 293.256ZM284.72 316.6C283.547 314.253 282.96 311.853 282.96 309.4C282.96 306.947 283.547 304.547 284.72 302.2H285.776C284.603 304.547 284.016 306.947 284.016 309.4C284.016 311.853 284.603 314.253 285.776 316.6H284.72ZM291.578 315.192C290.373 315.192 289.37 314.792 288.57 313.992C287.77 313.181 287.37 312.184 287.37 311C287.37 309.816 287.77 308.824 288.57 308.024C289.37 307.213 290.373 306.808 291.578 306.808C292.367 306.808 293.077 307 293.706 307.384C294.335 307.757 294.794 308.264 295.082 308.904L294.218 309.4C294.005 308.92 293.658 308.541 293.178 308.264C292.709 307.976 292.175 307.832 291.578 307.832C290.693 307.832 289.946 308.141 289.338 308.76C288.73 309.368 288.426 310.115 288.426 311C288.426 311.885 288.73 312.637 289.338 313.256C289.946 313.864 290.693 314.168 291.578 314.168C292.175 314.168 292.709 314.029 293.178 313.752C293.647 313.464 294.015 313.08 294.282 312.6L295.162 313.112C294.831 313.752 294.346 314.259 293.706 314.632C293.066 315.005 292.357 315.192 291.578 315.192ZM302.762 307V308.024H299.93V315H298.874V308.024H296.042V307H302.762ZM308.817 306.808C309.958 306.808 310.929 307.213 311.729 308.024C312.539 308.835 312.945 309.827 312.945 311C312.945 312.173 312.539 313.165 311.729 313.976C310.929 314.787 309.958 315.192 308.817 315.192C307.398 315.192 306.321 314.605 305.585 313.432V318.2H304.529V307H305.585V308.568C306.321 307.395 307.398 306.808 308.817 306.808ZM306.497 313.256C307.105 313.864 307.851 314.168 308.737 314.168C309.622 314.168 310.369 313.864 310.977 313.256C311.585 312.637 311.889 311.885 311.889 311C311.889 310.115 311.585 309.368 310.977 308.76C310.369 308.141 309.622 307.832 308.737 307.832C307.851 307.832 307.105 308.141 306.497 308.76C305.889 309.368 305.585 310.115 305.585 311C305.585 311.885 305.889 312.637 306.497 313.256ZM322.061 307H323.117V315H322.061V313.432C321.325 314.605 320.247 315.192 318.829 315.192C317.687 315.192 316.711 314.787 315.901 313.976C315.101 313.165 314.701 312.173 314.701 311C314.701 309.827 315.101 308.835 315.901 308.024C316.711 307.213 317.687 306.808 318.829 306.808C320.247 306.808 321.325 307.395 322.061 308.568V307ZM316.669 313.256C317.277 313.864 318.023 314.168 318.909 314.168C319.794 314.168 320.541 313.864 321.149 313.256C321.757 312.637 322.061 311.885 322.061 311C322.061 310.115 321.757 309.368 321.149 308.76C320.541 308.141 319.794 307.832 318.909 307.832C318.023 307.832 317.277 308.141 316.669 308.76C316.061 309.368 315.757 310.115 315.757 311C315.757 311.885 316.061 312.637 316.669 313.256ZM331.593 307V308.024H328.761V315H327.705V308.024H324.873V307H331.593ZM336.743 306.808C337.927 306.808 338.882 307.229 339.607 308.072C340.343 308.904 340.711 309.891 340.711 311.032C340.711 311.149 340.7 311.315 340.679 311.528H333.655C333.762 312.339 334.103 312.984 334.679 313.464C335.266 313.933 335.986 314.168 336.839 314.168C337.447 314.168 337.97 314.045 338.407 313.8C338.855 313.544 339.191 313.213 339.415 312.808L340.343 313.352C339.991 313.917 339.511 314.365 338.903 314.696C338.295 315.027 337.602 315.192 336.823 315.192C335.564 315.192 334.54 314.797 333.751 314.008C332.962 313.219 332.567 312.216 332.567 311C332.567 309.805 332.956 308.808 333.735 308.008C334.514 307.208 335.516 306.808 336.743 306.808ZM336.743 307.832C335.911 307.832 335.212 308.083 334.647 308.584C334.092 309.075 333.762 309.715 333.655 310.504H339.623C339.516 309.661 339.191 309.005 338.647 308.536C338.103 308.067 337.468 307.832 336.743 307.832ZM347.991 307V308.024H343.927V315H342.871V307H347.991ZM350.829 305.08C350.68 305.229 350.498 305.304 350.285 305.304C350.072 305.304 349.89 305.229 349.741 305.08C349.592 304.931 349.517 304.749 349.517 304.536C349.517 304.323 349.592 304.141 349.741 303.992C349.89 303.843 350.072 303.768 350.285 303.768C350.498 303.768 350.68 303.843 350.829 303.992C350.978 304.141 351.053 304.323 351.053 304.536C351.053 304.749 350.978 304.931 350.829 305.08ZM349.757 315V307H350.813V315H349.757ZM359.294 307V315H358.238V311.928H356.862L354.398 315H353.054L355.582 311.896C354.942 311.8 354.414 311.533 353.998 311.096C353.582 310.659 353.374 310.12 353.374 309.48C353.374 308.755 353.63 308.163 354.142 307.704C354.664 307.235 355.299 307 356.046 307H359.294ZM356.046 310.936H358.238V308.024H356.046C355.598 308.024 355.214 308.157 354.894 308.424C354.584 308.691 354.43 309.043 354.43 309.48C354.43 309.917 354.584 310.269 354.894 310.536C355.214 310.803 355.598 310.936 356.046 310.936ZM362.43 316.6H361.374C362.547 314.253 363.134 311.853 363.134 309.4C363.134 306.947 362.547 304.547 361.374 302.2H362.43C363.603 304.547 364.19 306.947 364.19 309.4C364.19 311.853 363.603 314.253 362.43 316.6ZM380.648 313.512C379.528 314.632 378.157 315.192 376.536 315.192C374.914 315.192 373.544 314.632 372.424 313.512C371.304 312.381 370.744 311.011 370.744 309.4C370.744 307.789 371.304 306.424 372.424 305.304C373.544 304.173 374.914 303.608 376.536 303.608C378.157 303.608 379.528 304.173 380.648 305.304C381.768 306.424 382.328 307.789 382.328 309.4C382.328 311.011 381.768 312.381 380.648 313.512ZM373.208 312.744C374.104 313.651 375.213 314.104 376.536 314.104C377.858 314.104 378.968 313.651 379.864 312.744C380.76 311.827 381.208 310.712 381.208 309.4C381.208 308.088 380.76 306.979 379.864 306.072C378.968 305.155 377.858 304.696 376.536 304.696C375.213 304.696 374.104 305.155 373.208 306.072C372.312 306.979 371.864 308.088 371.864 309.4C371.864 310.712 372.312 311.827 373.208 312.744ZM392.563 315H391.091L385.843 309.576V315H384.723V303.8H385.843V308.92L390.931 303.8H392.403L387.027 309.24L392.563 315ZM402.324 315H400.852L395.604 309.576V315H394.484V303.8H395.604V308.92L400.692 303.8H402.164L396.788 309.24L402.324 315ZM412.556 313.512C411.436 314.632 410.066 315.192 408.444 315.192C406.823 315.192 405.452 314.632 404.332 313.512C403.212 312.381 402.652 311.011 402.652 309.4C402.652 307.789 403.212 306.424 404.332 305.304C405.452 304.173 406.823 303.608 408.444 303.608C410.066 303.608 411.436 304.173 412.556 305.304C413.676 306.424 414.236 307.789 414.236 309.4C414.236 311.011 413.676 312.381 412.556 313.512ZM405.116 312.744C406.012 313.651 407.122 314.104 408.444 314.104C409.767 314.104 410.876 313.651 411.772 312.744C412.668 311.827 413.116 310.712 413.116 309.4C413.116 308.088 412.668 306.979 411.772 306.072C410.876 305.155 409.767 304.696 408.444 304.696C407.122 304.696 406.012 305.155 405.116 306.072C404.22 306.979 403.772 308.088 403.772 309.4C403.772 310.712 404.22 311.827 405.116 312.744ZM284.72 336.6C283.547 334.253 282.96 331.853 282.96 329.4C282.96 326.947 283.547 324.547 284.72 322.2H285.776C284.603 324.547 284.016 326.947 284.016 329.4C284.016 331.853 284.603 334.253 285.776 336.6H284.72ZM291.578 335.192C290.373 335.192 289.37 334.792 288.57 333.992C287.77 333.181 287.37 332.184 287.37 331C287.37 329.816 287.77 328.824 288.57 328.024C289.37 327.213 290.373 326.808 291.578 326.808C292.367 326.808 293.077 327 293.706 327.384C294.335 327.757 294.794 328.264 295.082 328.904L294.218 329.4C294.005 328.92 293.658 328.541 293.178 328.264C292.709 327.976 292.175 327.832 291.578 327.832C290.693 327.832 289.946 328.141 289.338 328.76C288.73 329.368 288.426 330.115 288.426 331C288.426 331.885 288.73 332.637 289.338 333.256C289.946 333.864 290.693 334.168 291.578 334.168C292.175 334.168 292.709 334.029 293.178 333.752C293.647 333.464 294.015 333.08 294.282 332.6L295.162 333.112C294.831 333.752 294.346 334.259 293.706 334.632C293.066 335.005 292.357 335.192 291.578 335.192ZM302.762 327V328.024H299.93V335H298.874V328.024H296.042V327H302.762ZM310.92 333.992C310.11 334.792 309.118 335.192 307.944 335.192C306.771 335.192 305.774 334.792 304.952 333.992C304.142 333.181 303.736 332.184 303.736 331C303.736 329.816 304.142 328.824 304.952 328.024C305.774 327.213 306.771 326.808 307.944 326.808C309.118 326.808 310.11 327.213 310.92 328.024C311.742 328.824 312.152 329.816 312.152 331C312.152 332.184 311.742 333.181 310.92 333.992ZM305.704 333.256C306.312 333.864 307.059 334.168 307.944 334.168C308.83 334.168 309.576 333.864 310.184 333.256C310.792 332.637 311.096 331.885 311.096 331C311.096 330.115 310.792 329.368 310.184 328.76C309.576 328.141 308.83 327.832 307.944 327.832C307.059 327.832 306.312 328.141 305.704 328.76C305.096 329.368 304.792 330.115 304.792 331C304.792 331.885 305.096 332.637 305.704 333.256ZM318.687 326.808C319.829 326.808 320.799 327.213 321.599 328.024C322.41 328.835 322.815 329.827 322.815 331C322.815 332.173 322.41 333.165 321.599 333.976C320.799 334.787 319.829 335.192 318.687 335.192C317.269 335.192 316.191 334.605 315.455 333.432V338.2H314.399V327H315.455V328.568C316.191 327.395 317.269 326.808 318.687 326.808ZM316.367 333.256C316.975 333.864 317.722 334.168 318.607 334.168C319.493 334.168 320.239 333.864 320.847 333.256C321.455 332.637 321.759 331.885 321.759 331C321.759 330.115 321.455 329.368 320.847 328.76C320.239 328.141 319.493 327.832 318.607 327.832C317.722 327.832 316.975 328.141 316.367 328.76C315.759 329.368 315.455 330.115 315.455 331C315.455 331.885 315.759 332.637 316.367 333.256ZM326.123 325.08C325.974 325.229 325.793 325.304 325.579 325.304C325.366 325.304 325.185 325.229 325.035 325.08C324.886 324.931 324.811 324.749 324.811 324.536C324.811 324.323 324.886 324.141 325.035 323.992C325.185 323.843 325.366 323.768 325.579 323.768C325.793 323.768 325.974 323.843 326.123 323.992C326.273 324.141 326.347 324.323 326.347 324.536C326.347 324.749 326.273 324.931 326.123 325.08ZM325.051 335V327H326.107V335H325.051ZM332.556 335.192C331.351 335.192 330.348 334.792 329.548 333.992C328.748 333.181 328.348 332.184 328.348 331C328.348 329.816 328.748 328.824 329.548 328.024C330.348 327.213 331.351 326.808 332.556 326.808C333.345 326.808 334.055 327 334.684 327.384C335.313 327.757 335.772 328.264 336.06 328.904L335.196 329.4C334.983 328.92 334.636 328.541 334.156 328.264C333.687 327.976 333.153 327.832 332.556 327.832C331.671 327.832 330.924 328.141 330.316 328.76C329.708 329.368 329.404 330.115 329.404 331C329.404 331.885 329.708 332.637 330.316 333.256C330.924 333.864 331.671 334.168 332.556 334.168C333.153 334.168 333.687 334.029 334.156 333.752C334.625 333.464 334.993 333.08 335.26 332.6L336.14 333.112C335.809 333.752 335.324 334.259 334.684 334.632C334.044 335.005 333.335 335.192 332.556 335.192ZM338.552 336.6H337.496C338.67 334.253 339.256 331.853 339.256 329.4C339.256 326.947 338.67 324.547 337.496 322.2H338.552C339.726 324.547 340.312 326.947 340.312 329.4C340.312 331.853 339.726 334.253 338.552 336.6Z" fill="white"/>
<path d="M66.256 374.448V369.6H68.496L69.648 369.632H78.288L78.944 369.6H82.176V374.448H79.632V372H68.8V374.448H66.256ZM68.832 360H80.08V371.136H77.376V361.152L78.592 362.368H70.288L71.424 361.488C71.488 362.021 71.5307 362.549 71.552 363.072C71.5733 363.595 71.584 364.085 71.584 364.544C71.584 365.845 71.4827 366.949 71.28 367.856C71.0773 368.752 70.7733 369.435 70.368 369.904C69.9627 370.363 69.4613 370.592 68.864 370.592L67.744 369.648C68.192 369.136 68.5227 368.416 68.736 367.488C68.96 366.549 69.072 365.381 69.072 363.984C69.072 363.365 69.0507 362.72 69.008 362.048C68.9653 361.376 68.9067 360.693 68.832 360ZM89.0634 372.24C87.9327 372.24 86.9407 372.043 86.0874 371.648C85.234 371.243 84.5674 370.683 84.0874 369.968C83.6074 369.243 83.3674 368.405 83.3674 367.456C83.3674 366.496 83.6074 365.659 84.0874 364.944C84.5674 364.219 85.234 363.659 86.0874 363.264C86.9407 362.859 87.9327 362.656 89.0634 362.656C90.194 362.656 91.186 362.859 92.0394 363.264C92.8927 363.659 93.554 364.219 94.0234 364.944C94.5034 365.659 94.7434 366.496 94.7434 367.456C94.7434 368.405 94.5034 369.243 94.0234 369.968C93.554 370.683 92.8927 371.243 92.0394 371.648C91.186 372.043 90.194 372.24 89.0634 372.24ZM89.0634 370.208C89.682 370.208 90.21 370.096 90.6474 369.872C91.0954 369.648 91.4367 369.333 91.6714 368.928C91.9167 368.512 92.0394 368.021 92.0394 367.456C92.0394 366.88 91.9167 366.389 91.6714 365.984C91.4367 365.568 91.0954 365.248 90.6474 365.024C90.21 364.8 89.682 364.688 89.0634 364.688C88.4554 364.688 87.9274 364.8 87.4794 365.024C87.0314 365.248 86.6847 365.568 86.4394 365.984C86.2047 366.389 86.0874 366.88 86.0874 367.456C86.0874 368.021 86.2047 368.512 86.4394 368.928C86.6847 369.333 87.0314 369.648 87.4794 369.872C87.9274 370.096 88.4554 370.208 89.0634 370.208ZM107.228 368.288C107.122 369.067 106.818 369.755 106.316 370.352C105.826 370.949 105.191 371.413 104.412 371.744C103.634 372.075 102.764 372.24 101.804 372.24C100.716 372.24 99.7565 372.043 98.9245 371.648C98.1032 371.243 97.4578 370.677 96.9885 369.952C96.5298 369.227 96.3005 368.395 96.3005 367.456C96.3005 366.507 96.5298 365.675 96.9885 364.96C97.4578 364.235 98.1032 363.669 98.9245 363.264C99.7565 362.859 100.716 362.656 101.804 362.656C102.764 362.656 103.634 362.827 104.412 363.168C105.191 363.499 105.826 363.963 106.316 364.56C106.818 365.147 107.122 365.835 107.228 366.624H104.556C104.418 366.005 104.098 365.531 103.596 365.2C103.106 364.859 102.508 364.688 101.804 364.688C101.239 364.688 100.743 364.8 100.316 365.024C99.9005 365.237 99.5805 365.552 99.3565 365.968C99.1325 366.373 99.0205 366.869 99.0205 367.456C99.0205 368.032 99.1325 368.528 99.3565 368.944C99.5805 369.349 99.9005 369.664 100.316 369.888C100.743 370.101 101.239 370.208 101.804 370.208C102.519 370.208 103.122 370.032 103.612 369.68C104.114 369.328 104.428 368.864 104.556 368.288H107.228ZM108.896 372L109.408 367.456L108.896 362.896H115.904C116.779 362.896 117.472 363.104 117.984 363.52C118.496 363.925 118.752 364.48 118.752 365.184C118.752 365.845 118.496 366.384 117.984 366.8C117.472 367.205 116.757 367.445 115.84 367.52L116.032 367.072C117.099 367.104 117.909 367.328 118.464 367.744C119.029 368.149 119.312 368.72 119.312 369.456C119.312 370.245 119.024 370.869 118.448 371.328C117.883 371.776 117.104 372 116.112 372H108.896ZM111.472 371.408L110.448 370.272H115.296C115.755 370.272 116.091 370.181 116.304 370C116.517 369.808 116.624 369.541 116.624 369.2C116.624 368.891 116.507 368.64 116.272 368.448C116.037 368.245 115.653 368.144 115.12 368.144H110.992V366.624H114.768C115.216 366.624 115.541 366.533 115.744 366.352C115.957 366.171 116.064 365.925 116.064 365.616C116.064 365.328 115.968 365.093 115.776 364.912C115.595 364.731 115.296 364.64 114.88 364.64H110.464L111.472 363.504L111.968 367.456L111.472 371.408ZM121.319 362.8L122.647 363.056L123.991 362.8V372H121.319V362.8ZM122.647 361.856C122.167 361.856 121.772 361.733 121.463 361.488C121.164 361.232 121.015 360.896 121.015 360.48C121.015 360.053 121.164 359.717 121.463 359.472C121.772 359.216 122.167 359.088 122.647 359.088C123.137 359.088 123.532 359.216 123.831 359.472C124.129 359.717 124.279 360.053 124.279 360.48C124.279 360.896 124.129 361.232 123.831 361.488C123.532 361.733 123.137 361.856 122.647 361.856ZM138.854 369.984V374.24H136.534V372H128.022V374.24H125.702V369.984H128.246L128.838 370.032H135.462L135.99 369.984H138.854ZM127.67 362.896H137.174V371.392H134.502V363.664L135.734 364.896H128.998L130.07 363.936C130.166 364.395 130.225 364.832 130.246 365.248C130.267 365.653 130.278 366.032 130.278 366.384C130.278 367.899 130.049 369.083 129.59 369.936C129.131 370.779 128.486 371.2 127.654 371.2L126.566 370.288C127.419 369.669 127.846 368.192 127.846 365.856C127.846 365.397 127.83 364.923 127.798 364.432C127.766 363.931 127.723 363.419 127.67 362.896ZM142.219 372.144C141.771 372.144 141.398 372 141.099 371.712C140.811 371.424 140.667 371.061 140.667 370.624C140.667 370.187 140.811 369.824 141.099 369.536C141.398 369.248 141.771 369.104 142.219 369.104C142.678 369.104 143.051 369.248 143.339 369.536C143.638 369.824 143.787 370.187 143.787 370.624C143.787 371.061 143.638 371.424 143.339 371.712C143.051 372 142.678 372.144 142.219 372.144ZM142.219 366.48C141.771 366.48 141.398 366.336 141.099 366.048C140.811 365.76 140.667 365.397 140.667 364.96C140.667 364.523 140.811 364.16 141.099 363.872C141.398 363.584 141.771 363.44 142.219 363.44C142.678 363.44 143.051 363.584 143.339 363.872C143.638 364.16 143.787 364.523 143.787 364.96C143.787 365.397 143.638 365.76 143.339 366.048C143.051 366.336 142.678 366.48 142.219 366.48Z" fill="white"/>
<path d="M282.64 371V369.992L286.672 365.928C287.824 364.776 288.4 363.789 288.4 362.968C288.4 362.253 288.176 361.699 287.728 361.304C287.291 360.899 286.763 360.696 286.144 360.696C284.992 360.696 284.155 361.224 283.632 362.28L282.688 361.72C283.04 361.027 283.52 360.504 284.128 360.152C284.736 359.789 285.408 359.608 286.144 359.608C287.04 359.608 287.824 359.912 288.496 360.52C289.179 361.117 289.52 361.933 289.52 362.968C289.52 363.619 289.339 364.243 288.976 364.84C288.613 365.437 288.101 366.067 287.44 366.728L284.24 369.912H289.76V371H282.64ZM298.566 364.888V365.912H295.718V368.76H294.694V365.912H291.846V364.888H294.694V362.04H295.718V364.888H298.566ZM309.895 362.808C311.036 362.808 312.007 363.213 312.807 364.024C313.618 364.835 314.023 365.827 314.023 367C314.023 368.173 313.618 369.165 312.807 369.976C312.007 370.787 311.036 371.192 309.895 371.192C308.476 371.192 307.399 370.605 306.663 369.432V374.2H305.607V363H306.663V364.568C307.399 363.395 308.476 362.808 309.895 362.808ZM307.575 369.256C308.183 369.864 308.93 370.168 309.815 370.168C310.7 370.168 311.447 369.864 312.055 369.256C312.663 368.637 312.967 367.885 312.967 367C312.967 366.115 312.663 365.368 312.055 364.76C311.447 364.141 310.7 363.832 309.815 363.832C308.93 363.832 308.183 364.141 307.575 364.76C306.967 365.368 306.663 366.115 306.663 367C306.663 367.885 306.967 368.637 307.575 369.256ZM322.963 369.992C322.152 370.792 321.16 371.192 319.987 371.192C318.813 371.192 317.816 370.792 316.995 369.992C316.184 369.181 315.779 368.184 315.779 367C315.779 365.816 316.184 364.824 316.995 364.024C317.816 363.213 318.813 362.808 319.987 362.808C321.16 362.808 322.152 363.213 322.963 364.024C323.784 364.824 324.195 365.816 324.195 367C324.195 368.184 323.784 369.181 322.963 369.992ZM317.747 369.256C318.355 369.864 319.101 370.168 319.987 370.168C320.872 370.168 321.619 369.864 322.227 369.256C322.835 368.637 323.139 367.885 323.139 367C323.139 366.115 322.835 365.368 322.227 364.76C321.619 364.141 320.872 363.832 319.987 363.832C319.101 363.832 318.355 364.141 317.747 364.76C317.139 365.368 316.835 366.115 316.835 367C316.835 367.885 317.139 368.637 317.747 369.256ZM332.906 371H331.498L327.498 367.144V371H326.442V363H327.498V366.536L331.306 363H332.746L328.618 366.84L332.906 371ZM340.652 363H341.548V371H340.492V364.84L335.724 371H334.828V363H335.884V369.16L340.652 363Z" fill="white"/>
<path d="M70.048 408L72.112 404.432H72.144L77.008 396H79.952L72.992 408H70.048ZM72.112 406.256L66.128 396H69.12L73.984 404.368L72.112 406.256ZM80.8529 398.896H90.2609V408H87.5889V399.696L88.8209 400.912H82.1809L83.3329 399.92C83.3862 400.571 83.4289 401.173 83.4609 401.728C83.5035 402.272 83.5249 402.763 83.5249 403.2C83.5249 404.949 83.2635 406.219 82.7409 407.008C82.2289 407.797 81.3969 408.192 80.2449 408.192C79.9249 408.192 79.6155 408.155 79.3169 408.08C79.0289 408.016 78.7462 407.904 78.4689 407.744V405.808C78.6609 405.883 78.8475 405.941 79.0289 405.984C79.2209 406.016 79.3969 406.032 79.5569 406.032C80.1009 406.032 80.4902 405.787 80.7249 405.296C80.9702 404.795 81.0929 403.973 81.0929 402.832C81.0929 402.32 81.0715 401.733 81.0289 401.072C80.9969 400.411 80.9382 399.685 80.8529 398.896ZM102.557 408.24C101.437 408.24 100.456 408.043 99.6132 407.648C98.7706 407.243 98.1146 406.683 97.6452 405.968C97.1866 405.243 96.9572 404.405 96.9572 403.456C96.9572 402.496 97.1866 401.659 97.6452 400.944C98.1146 400.219 98.7706 399.659 99.6132 399.264C100.456 398.859 101.437 398.656 102.557 398.656C103.677 398.656 104.659 398.859 105.501 399.264C106.344 399.659 107 400.219 107.469 400.944C107.939 401.659 108.173 402.496 108.173 403.456C108.173 404.405 107.939 405.243 107.469 405.968C107 406.683 106.344 407.243 105.501 407.648C104.659 408.043 103.677 408.24 102.557 408.24ZM92.7492 408V398.896H95.4212V408H92.7492ZM94.2532 404.368V402.368H98.6532V404.368H94.2532ZM102.557 406.208C103.165 406.208 103.683 406.096 104.109 405.872C104.547 405.648 104.883 405.333 105.117 404.928C105.352 404.512 105.469 404.021 105.469 403.456C105.469 402.88 105.352 402.389 105.117 401.984C104.883 401.568 104.547 401.248 104.109 401.024C103.683 400.8 103.165 400.688 102.557 400.688C101.96 400.688 101.443 400.8 101.005 401.024C100.568 401.248 100.232 401.568 99.9972 401.984C99.7626 402.389 99.6452 402.88 99.6452 403.456C99.6452 404.021 99.7626 404.512 99.9972 404.928C100.232 405.333 100.568 405.648 101.005 405.872C101.443 406.096 101.96 406.208 102.557 406.208ZM115.782 408.24C114.534 408.24 113.467 408.005 112.582 407.536C111.697 407.056 111.019 406.368 110.55 405.472C110.081 404.576 109.846 403.493 109.846 402.224C109.846 400.336 110.353 398.848 111.366 397.76C112.379 396.672 113.83 396.048 115.718 395.888C116.486 395.824 117.121 395.771 117.622 395.728C118.123 395.685 118.534 395.643 118.854 395.6C119.185 395.547 119.462 395.493 119.686 395.44C119.91 395.376 120.129 395.307 120.342 395.232V397.456C120.118 397.541 119.83 397.621 119.478 397.696C119.137 397.76 118.699 397.813 118.166 397.856C117.643 397.899 116.998 397.941 116.23 397.984C114.833 398.048 113.793 398.432 113.11 399.136C112.427 399.84 112.086 400.853 112.086 402.176V402.608L111.99 402.416C112.203 401.84 112.529 401.344 112.966 400.928C113.403 400.512 113.926 400.197 114.534 399.984C115.153 399.76 115.819 399.648 116.534 399.648C117.462 399.648 118.273 399.824 118.966 400.176C119.659 400.517 120.198 401.003 120.582 401.632C120.977 402.261 121.174 402.997 121.174 403.84C121.174 404.725 120.95 405.499 120.502 406.16C120.054 406.821 119.425 407.333 118.614 407.696C117.814 408.059 116.87 408.24 115.782 408.24ZM115.846 406.208C116.379 406.208 116.843 406.112 117.238 405.92C117.633 405.728 117.937 405.456 118.15 405.104C118.363 404.752 118.47 404.341 118.47 403.872C118.47 403.403 118.363 402.997 118.15 402.656C117.937 402.304 117.633 402.032 117.238 401.84C116.843 401.648 116.379 401.552 115.846 401.552C115.11 401.552 114.459 401.749 113.894 402.144C113.329 402.528 112.902 403.067 112.614 403.76C112.785 404.507 113.158 405.104 113.734 405.552C114.321 405.989 115.025 406.208 115.846 406.208ZM124.558 398.896H133.966V408H131.294V399.696L132.526 400.912H125.886L127.038 399.92C127.092 400.571 127.134 401.173 127.166 401.728C127.209 402.272 127.23 402.763 127.23 403.2C127.23 404.949 126.969 406.219 126.446 407.008C125.934 407.797 125.102 408.192 123.95 408.192C123.63 408.192 123.321 408.155 123.022 408.08C122.734 408.016 122.452 407.904 122.174 407.744V405.808C122.366 405.883 122.553 405.941 122.734 405.984C122.926 406.016 123.102 406.032 123.262 406.032C123.806 406.032 124.196 405.787 124.43 405.296C124.676 404.795 124.798 403.973 124.798 402.832C124.798 402.32 124.777 401.733 124.734 401.072C124.702 400.411 124.644 399.685 124.558 398.896ZM141.591 408.24C140.514 408.24 139.548 408.043 138.695 407.648C137.852 407.243 137.186 406.677 136.695 405.952C136.215 405.227 135.975 404.384 135.975 403.424C135.975 402.475 136.204 401.643 136.663 400.928C137.132 400.213 137.772 399.659 138.583 399.264C139.394 398.859 140.316 398.656 141.351 398.656C142.407 398.656 143.314 398.891 144.071 399.36C144.828 399.819 145.41 400.469 145.815 401.312C146.231 402.155 146.439 403.147 146.439 404.288H138.119V402.512H144.999L143.959 403.152C143.916 402.619 143.783 402.165 143.559 401.792C143.346 401.419 143.052 401.131 142.679 400.928C142.306 400.725 141.868 400.624 141.367 400.624C140.823 400.624 140.348 400.736 139.943 400.96C139.548 401.173 139.239 401.477 139.015 401.872C138.802 402.256 138.695 402.709 138.695 403.232C138.695 403.861 138.834 404.4 139.111 404.848C139.388 405.296 139.794 405.637 140.327 405.872C140.86 406.107 141.506 406.224 142.263 406.224C142.946 406.224 143.634 406.128 144.327 405.936C145.02 405.733 145.644 405.451 146.199 405.088V406.88C145.602 407.307 144.903 407.643 144.103 407.888C143.314 408.123 142.476 408.24 141.591 408.24ZM148.482 398.896H151.138V408H148.482V398.896ZM156.114 398.896H158.77V408H156.114V398.896ZM150.002 402.352H157.154V404.368H150.002V402.352ZM161.259 408V398.896H163.883V406.592L163.227 406.416L168.715 398.896H172.155V408H169.531V400.16L170.187 400.352L164.603 408H161.259ZM174.645 408V398.896H177.269V406.592L176.613 406.416L182.101 398.896H185.541V408H182.917V400.16L183.573 400.352L177.989 408H174.645ZM180.021 398.064C178.986 398.064 178.154 397.813 177.525 397.312C176.896 396.8 176.506 396.059 176.357 395.088H178.453C178.528 395.547 178.698 395.899 178.965 396.144C179.242 396.379 179.594 396.496 180.021 396.496C180.448 396.496 180.794 396.379 181.061 396.144C181.328 395.899 181.504 395.547 181.589 395.088H183.669C183.53 396.059 183.141 396.8 182.501 397.312C181.872 397.813 181.045 398.064 180.021 398.064ZM200.157 398.896V400.944H194.045L195.277 399.728V408H192.605V398.896H200.157ZM204.426 410.88C203.829 410.88 203.29 410.805 202.81 410.656C202.33 410.507 201.877 410.288 201.45 410V408.08C201.898 408.368 202.325 408.576 202.73 408.704C203.136 408.832 203.584 408.896 204.074 408.896C204.512 408.896 204.901 408.795 205.242 408.592C205.584 408.4 205.866 408.053 206.09 407.552L209.882 398.896H212.714L208.17 408.416C207.893 409.013 207.557 409.493 207.162 409.856C206.768 410.219 206.336 410.48 205.866 410.64C205.408 410.8 204.928 410.88 204.426 410.88ZM205.002 407.424L200.986 398.896H203.93L207.61 407.424H205.002ZM214.268 398.896H216.94V401.792L216.828 402.144V404.336L216.94 404.992V410.64H214.268V398.896ZM216.012 403.456C216.193 402.485 216.508 401.643 216.956 400.928C217.415 400.203 217.985 399.643 218.668 399.248C219.361 398.853 220.129 398.656 220.972 398.656C221.868 398.656 222.652 398.859 223.324 399.264C224.007 399.659 224.54 400.219 224.924 400.944C225.308 401.659 225.5 402.496 225.5 403.456C225.5 404.405 225.308 405.243 224.924 405.968C224.54 406.683 224.007 407.243 223.324 407.648C222.652 408.043 221.868 408.24 220.972 408.24C220.119 408.24 219.351 408.043 218.668 407.648C217.996 407.253 217.431 406.699 216.972 405.984C216.513 405.259 216.193 404.416 216.012 403.456ZM222.796 403.456C222.796 402.923 222.684 402.453 222.46 402.048C222.247 401.632 221.948 401.312 221.564 401.088C221.18 400.853 220.737 400.736 220.236 400.736C219.735 400.736 219.26 400.853 218.812 401.088C218.364 401.312 217.969 401.632 217.628 402.048C217.297 402.453 217.036 402.923 216.844 403.456C217.036 403.989 217.297 404.459 217.628 404.864C217.969 405.269 218.364 405.589 218.812 405.824C219.26 406.048 219.735 406.16 220.236 406.16C220.737 406.16 221.18 406.048 221.564 405.824C221.948 405.589 222.247 405.269 222.46 404.864C222.684 404.459 222.796 403.989 222.796 403.456ZM230.049 399.824H232.721V408H230.049V399.824ZM226.433 398.896H236.337V400.944H226.433V398.896ZM239.513 408.144C239.065 408.144 238.691 408 238.393 407.712C238.105 407.424 237.961 407.061 237.961 406.624C237.961 406.187 238.105 405.824 238.393 405.536C238.691 405.248 239.065 405.104 239.513 405.104C239.971 405.104 240.345 405.248 240.633 405.536C240.931 405.824 241.081 406.187 241.081 406.624C241.081 407.061 240.931 407.424 240.633 407.712C240.345 408 239.971 408.144 239.513 408.144ZM239.513 402.48C239.065 402.48 238.691 402.336 238.393 402.048C238.105 401.76 237.961 401.397 237.961 400.96C237.961 400.523 238.105 400.16 238.393 399.872C238.691 399.584 239.065 399.44 239.513 399.44C239.971 399.44 240.345 399.584 240.633 399.872C240.931 400.16 241.081 400.523 241.081 400.96C241.081 401.397 240.931 401.76 240.633 402.048C240.345 402.336 239.971 402.48 239.513 402.48Z" fill="white"/>
<path d="M282.24 407V406.008C283.019 406.115 283.6 405.875 283.984 405.288C284.379 404.691 284.576 403.603 284.576 402.024V395.8H291.84V407H290.72V396.856H285.696V402.056C285.696 403.069 285.616 403.917 285.456 404.6C285.296 405.283 285.056 405.805 284.736 406.168C284.427 406.52 284.069 406.76 283.664 406.888C283.269 407.005 282.795 407.043 282.24 407ZM295.797 397.08C295.648 397.229 295.466 397.304 295.253 397.304C295.04 397.304 294.858 397.229 294.709 397.08C294.56 396.931 294.485 396.749 294.485 396.536C294.485 396.323 294.56 396.141 294.709 395.992C294.858 395.843 295.04 395.768 295.253 395.768C295.466 395.768 295.648 395.843 295.797 395.992C295.946 396.141 296.021 396.323 296.021 396.536C296.021 396.749 295.946 396.931 295.797 397.08ZM294.725 407V399H295.781V407H294.725ZM303.59 402.888C304.465 403.208 304.902 403.832 304.902 404.76C304.902 405.411 304.683 405.949 304.246 406.376C303.819 406.792 303.201 407 302.39 407H298.502V399H302.07C302.849 399 303.451 399.203 303.878 399.608C304.305 400.003 304.518 400.515 304.518 401.144C304.518 401.944 304.209 402.525 303.59 402.888ZM302.07 400.024H299.558V402.456H302.07C302.998 402.456 303.462 402.04 303.462 401.208C303.462 400.835 303.339 400.547 303.094 400.344C302.859 400.131 302.518 400.024 302.07 400.024ZM302.39 405.976C302.859 405.976 303.217 405.864 303.462 405.64C303.718 405.416 303.846 405.101 303.846 404.696C303.846 404.323 303.718 404.029 303.462 403.816C303.217 403.592 302.859 403.48 302.39 403.48H299.558V405.976H302.39ZM308.054 397.08C307.905 397.229 307.723 397.304 307.51 397.304C307.297 397.304 307.115 397.229 306.966 397.08C306.817 396.931 306.742 396.749 306.742 396.536C306.742 396.323 306.817 396.141 306.966 395.992C307.115 395.843 307.297 395.768 307.51 395.768C307.723 395.768 307.905 395.843 308.054 395.992C308.203 396.141 308.278 396.323 308.278 396.536C308.278 396.749 308.203 396.931 308.054 397.08ZM306.982 407V399H308.038V407H306.982ZM316.423 399H317.479V407H316.423V403.512H311.815V407H310.759V399H311.815V402.488H316.423V399ZM323.92 407.192C322.715 407.192 321.712 406.792 320.912 405.992C320.112 405.181 319.712 404.184 319.712 403C319.712 401.816 320.112 400.824 320.912 400.024C321.712 399.213 322.715 398.808 323.92 398.808C324.709 398.808 325.419 399 326.048 399.384C326.677 399.757 327.136 400.264 327.424 400.904L326.56 401.4C326.347 400.92 326 400.541 325.52 400.264C325.051 399.976 324.517 399.832 323.92 399.832C323.035 399.832 322.288 400.141 321.68 400.76C321.072 401.368 320.768 402.115 320.768 403C320.768 403.885 321.072 404.637 321.68 405.256C322.288 405.864 323.035 406.168 323.92 406.168C324.517 406.168 325.051 406.029 325.52 405.752C325.989 405.464 326.357 405.08 326.624 404.6L327.504 405.112C327.173 405.752 326.688 406.259 326.048 406.632C325.408 407.005 324.699 407.192 323.92 407.192ZM335.104 399V400.024H332.272V407H331.216V400.024H328.384V399H335.104ZM343.262 405.992C342.451 406.792 341.459 407.192 340.286 407.192C339.113 407.192 338.115 406.792 337.294 405.992C336.483 405.181 336.078 404.184 336.078 403C336.078 401.816 336.483 400.824 337.294 400.024C338.115 399.213 339.113 398.808 340.286 398.808C341.459 398.808 342.451 399.213 343.262 400.024C344.083 400.824 344.494 401.816 344.494 403C344.494 404.184 344.083 405.181 343.262 405.992ZM338.046 405.256C338.654 405.864 339.401 406.168 340.286 406.168C341.171 406.168 341.918 405.864 342.526 405.256C343.134 404.637 343.438 403.885 343.438 403C343.438 402.115 343.134 401.368 342.526 400.76C341.918 400.141 341.171 399.832 340.286 399.832C339.401 399.832 338.654 400.141 338.046 400.76C337.438 401.368 337.134 402.115 337.134 403C337.134 403.885 337.438 404.637 338.046 405.256ZM352.405 399H353.461V407H352.405V403.512H347.797V407H346.741V399H347.797V402.488H352.405V399Z" fill="white"/>
</svg>
