<svg width="451" height="545" viewBox="0 0 451 545" fill="none" xmlns="http://www.w3.org/2000/svg">
<path d="M1.84691 338.06L33.6521 499.782C38.6764 525.329 62.4657 542.745 88.3373 539.816L398.156 504.739C426.468 501.533 446.381 475.354 441.913 447.214L398.251 172.26C397.839 169.667 397.632 167.045 397.632 164.419V69.7915C397.632 41.2835 373.833 18.5451 345.355 19.8434L238.082 24.7336C235.026 24.8729 231.963 24.7315 228.933 24.3111L102.086 6.71189C75.1873 2.9799 50.2276 21.4003 45.8642 48.2037L1.55678 320.378C0.602092 326.242 0.700338 332.23 1.84691 338.06Z" fill="#C0B7EE"/>
<path d="M36.3453 175V163H39.0493V172.792L38.2813 172.248L45.7053 163H48.6013L38.7933 175H36.3453ZM42.0733 169.128L44.0253 167.384L48.7773 175H45.6733L42.0733 169.128ZM50.2107 165.8L51.5387 166.056L52.8827 165.8V175H50.2107V165.8ZM51.5387 164.856C51.0587 164.856 50.664 164.734 50.3547 164.488C50.056 164.232 49.9067 163.896 49.9067 163.48C49.9067 163.054 50.056 162.718 50.3547 162.472C50.664 162.216 51.0587 162.088 51.5387 162.088C52.0293 162.088 52.424 162.216 52.7227 162.472C53.0213 162.718 53.1707 163.054 53.1707 163.48C53.1707 163.896 53.0213 164.232 52.7227 164.488C52.424 164.734 52.0293 164.856 51.5387 164.856ZM56.9462 165.896H66.3542V175H63.6822V166.696L64.9142 167.912H58.2742L59.4262 166.92C59.4795 167.571 59.5222 168.174 59.5542 168.728C59.5968 169.272 59.6182 169.763 59.6182 170.2C59.6182 171.95 59.3568 173.219 58.8342 174.008C58.3222 174.798 57.4902 175.192 56.3382 175.192C56.0182 175.192 55.7088 175.155 55.4102 175.08C55.1222 175.016 54.8395 174.904 54.5622 174.744V172.808C54.7542 172.883 54.9408 172.942 55.1222 172.984C55.3142 173.016 55.4902 173.032 55.6502 173.032C56.1942 173.032 56.5835 172.787 56.8182 172.296C57.0635 171.795 57.1862 170.974 57.1862 169.832C57.1862 169.32 57.1648 168.734 57.1222 168.072C57.0902 167.411 57.0315 166.686 56.9462 165.896ZM68.8425 175V165.896H71.4985V174.312L70.6345 173.08H74.1865C74.6772 173.08 75.0559 172.963 75.3225 172.728C75.5892 172.483 75.7225 172.152 75.7225 171.736C75.7225 171.299 75.5892 170.963 75.3225 170.728C75.0559 170.483 74.6772 170.36 74.1865 170.36H70.6505V168.52H74.5865C75.3652 168.52 76.0372 168.659 76.6025 168.936C77.1785 169.203 77.6265 169.582 77.9465 170.072C78.2665 170.552 78.4265 171.118 78.4265 171.768C78.4265 172.408 78.2665 172.974 77.9465 173.464C77.6265 173.955 77.1839 174.334 76.6185 174.6C76.0532 174.867 75.3865 175 74.6185 175H68.8425ZM80.2132 175V165.896H82.8852V172.84L82.1012 172.568L87.5252 165.896H90.4372L82.6132 175H80.2132ZM87.6532 175L84.9332 170.536L86.9012 169.016L90.7092 175H87.6532ZM92.0994 165.8L93.4274 166.056L94.7714 165.8V175H92.0994V165.8ZM93.4274 164.856C92.9474 164.856 92.5527 164.734 92.2434 164.488C91.9447 164.232 91.7954 163.896 91.7954 163.48C91.7954 163.054 91.9447 162.718 92.2434 162.472C92.5527 162.216 92.9474 162.088 93.4274 162.088C93.9181 162.088 94.3127 162.216 94.6114 162.472C94.9101 162.718 95.0594 163.054 95.0594 163.48C95.0594 163.896 94.9101 164.232 94.6114 164.488C94.3127 164.734 93.9181 164.856 93.4274 164.856ZM107.715 171.288C107.608 172.067 107.304 172.755 106.803 173.352C106.312 173.95 105.678 174.414 104.899 174.744C104.12 175.075 103.251 175.24 102.291 175.24C101.203 175.24 100.243 175.043 99.4109 174.648C98.5896 174.243 97.9442 173.678 97.4749 172.952C97.0162 172.227 96.7869 171.395 96.7869 170.456C96.7869 169.507 97.0162 168.675 97.4749 167.96C97.9442 167.235 98.5896 166.67 99.4109 166.264C100.243 165.859 101.203 165.656 102.291 165.656C103.251 165.656 104.12 165.827 104.899 166.168C105.678 166.499 106.312 166.963 106.803 167.56C107.304 168.147 107.608 168.835 107.715 169.624H105.043C104.904 169.006 104.584 168.531 104.083 168.2C103.592 167.859 102.995 167.688 102.291 167.688C101.726 167.688 101.23 167.8 100.803 168.024C100.387 168.238 100.067 168.552 99.8429 168.968C99.6189 169.374 99.5069 169.87 99.5069 170.456C99.5069 171.032 99.6189 171.528 99.8429 171.944C100.067 172.35 100.387 172.664 100.803 172.888C101.23 173.102 101.726 173.208 102.291 173.208C103.006 173.208 103.608 173.032 104.099 172.68C104.6 172.328 104.915 171.864 105.043 171.288H107.715ZM112.126 166.824H114.798V175H112.126V166.824ZM108.51 165.896H118.414V167.944H108.51V165.896ZM120.118 175V165.896H122.774V174.312L121.91 173.08H125.462C125.952 173.08 126.331 172.963 126.598 172.728C126.864 172.483 126.998 172.152 126.998 171.736C126.998 171.299 126.864 170.963 126.598 170.728C126.331 170.483 125.952 170.36 125.462 170.36H121.926V168.52H125.862C126.64 168.52 127.312 168.659 127.878 168.936C128.454 169.203 128.902 169.582 129.222 170.072C129.542 170.552 129.702 171.118 129.702 171.768C129.702 172.408 129.542 172.974 129.222 173.464C128.902 173.955 128.459 174.334 127.894 174.6C127.328 174.867 126.662 175 125.894 175H120.118ZM36.1213 185.896H38.7933V188.792L38.6813 189.144V191.336L38.7933 191.992V197.64H36.1213V185.896ZM37.8653 190.456C38.0466 189.486 38.3613 188.643 38.8093 187.928C39.2679 187.203 39.8386 186.643 40.5213 186.248C41.2146 185.854 41.9826 185.656 42.8253 185.656C43.7213 185.656 44.5053 185.859 45.1773 186.264C45.8599 186.659 46.3933 187.219 46.7773 187.944C47.1613 188.659 47.3533 189.496 47.3533 190.456C47.3533 191.406 47.1613 192.243 46.7773 192.968C46.3933 193.683 45.8599 194.243 45.1773 194.648C44.5053 195.043 43.7213 195.24 42.8253 195.24C41.9719 195.24 41.2039 195.043 40.5213 194.648C39.8493 194.254 39.2839 193.699 38.8253 192.984C38.3666 192.259 38.0466 191.416 37.8653 190.456ZM44.6493 190.456C44.6493 189.923 44.5373 189.454 44.3133 189.048C44.0999 188.632 43.8013 188.312 43.4173 188.088C43.0333 187.854 42.5906 187.736 42.0893 187.736C41.5879 187.736 41.1133 187.854 40.6653 188.088C40.2173 188.312 39.8226 188.632 39.4813 189.048C39.1506 189.454 38.8893 189.923 38.6973 190.456C38.8893 190.99 39.1506 191.459 39.4813 191.864C39.8226 192.27 40.2173 192.59 40.6653 192.824C41.1133 193.048 41.5879 193.16 42.0893 193.16C42.5906 193.16 43.0333 193.048 43.4173 192.824C43.8013 192.59 44.0999 192.27 44.3133 191.864C44.5373 191.459 44.6493 190.99 44.6493 190.456ZM54.5342 195.24C53.4568 195.24 52.4915 195.043 51.6382 194.648C50.7955 194.243 50.1288 193.678 49.6382 192.952C49.1582 192.227 48.9182 191.384 48.9182 190.424C48.9182 189.475 49.1475 188.643 49.6062 187.928C50.0755 187.214 50.7155 186.659 51.5262 186.264C52.3368 185.859 53.2595 185.656 54.2942 185.656C55.3502 185.656 56.2568 185.891 57.0142 186.36C57.7715 186.819 58.3528 187.47 58.7582 188.312C59.1742 189.155 59.3822 190.147 59.3822 191.288H51.0622V189.512H57.9422L56.9022 190.152C56.8595 189.619 56.7262 189.166 56.5022 188.792C56.2888 188.419 55.9955 188.131 55.6222 187.928C55.2488 187.726 54.8115 187.624 54.3102 187.624C53.7662 187.624 53.2915 187.736 52.8862 187.96C52.4915 188.174 52.1822 188.478 51.9582 188.872C51.7448 189.256 51.6382 189.71 51.6382 190.232C51.6382 190.862 51.7768 191.4 52.0542 191.848C52.3315 192.296 52.7368 192.638 53.2702 192.872C53.8035 193.107 54.4488 193.224 55.2062 193.224C55.8888 193.224 56.5768 193.128 57.2702 192.936C57.9635 192.734 58.5875 192.451 59.1422 192.088V193.88C58.5448 194.307 57.8462 194.643 57.0462 194.888C56.2568 195.123 55.4195 195.24 54.5342 195.24ZM69.761 195L69.377 191.672L69.809 190.456L69.377 189.256L69.761 185.896H72.529L72.001 190.456L72.529 195H69.761ZM70.465 190.456C70.2944 191.416 69.9797 192.259 69.521 192.984C69.073 193.699 68.5024 194.254 67.809 194.648C67.1264 195.043 66.3584 195.24 65.505 195.24C64.6197 195.24 63.8357 195.043 63.153 194.648C62.4704 194.243 61.937 193.683 61.553 192.968C61.1797 192.243 60.993 191.406 60.993 190.456C60.993 189.496 61.1797 188.659 61.553 187.944C61.937 187.219 62.4704 186.659 63.153 186.264C63.8357 185.859 64.6197 185.656 65.505 185.656C66.3584 185.656 67.1264 185.854 67.809 186.248C68.5024 186.643 69.0784 187.203 69.537 187.928C69.9957 188.643 70.305 189.486 70.465 190.456ZM63.697 190.456C63.697 190.99 63.8037 191.459 64.017 191.864C64.241 192.27 64.545 192.59 64.929 192.824C65.313 193.048 65.7557 193.16 66.257 193.16C66.7584 193.16 67.2277 193.048 67.665 192.824C68.113 192.59 68.5077 192.27 68.849 191.864C69.1904 191.459 69.457 190.99 69.649 190.456C69.457 189.923 69.1904 189.454 68.849 189.048C68.5077 188.632 68.113 188.312 67.665 188.088C67.2277 187.854 66.7584 187.736 66.257 187.736C65.7557 187.736 65.313 187.854 64.929 188.088C64.545 188.312 64.241 188.632 64.017 189.048C63.8037 189.454 63.697 189.923 63.697 190.456ZM76.3637 185.896H85.7717V195H83.0997V186.696L84.3317 187.912H77.6917L78.8437 186.92C78.897 187.571 78.9397 188.174 78.9717 188.728C79.0143 189.272 79.0357 189.763 79.0357 190.2C79.0357 191.95 78.7743 193.219 78.2517 194.008C77.7397 194.798 76.9077 195.192 75.7557 195.192C75.4357 195.192 75.1263 195.155 74.8277 195.08C74.5397 195.016 74.257 194.904 73.9797 194.744V192.808C74.1717 192.883 74.3583 192.942 74.5397 192.984C74.7317 193.016 74.9077 193.032 75.0677 193.032C75.6117 193.032 76.001 192.787 76.2357 192.296C76.481 191.795 76.6037 190.974 76.6037 189.832C76.6037 189.32 76.5823 188.734 76.5397 188.072C76.5077 187.411 76.449 186.686 76.3637 185.896ZM88.26 185.8L89.588 186.056L90.932 185.8V195H88.26V185.8ZM89.588 184.856C89.108 184.856 88.7134 184.734 88.404 184.488C88.1054 184.232 87.956 183.896 87.956 183.48C87.956 183.054 88.1054 182.718 88.404 182.472C88.7134 182.216 89.108 182.088 89.588 182.088C90.0787 182.088 90.4734 182.216 90.772 182.472C91.0707 182.718 91.22 183.054 91.22 183.48C91.22 183.896 91.0707 184.232 90.772 184.488C90.4734 184.734 90.0787 184.856 89.588 184.856ZM97.9235 195.24C96.9102 195.24 96.0249 195.112 95.2675 194.856C94.5102 194.59 93.9182 194.211 93.4915 193.72C93.0649 193.219 92.8302 192.632 92.7875 191.96H95.3795C95.4542 192.408 95.7102 192.75 96.1475 192.984C96.5849 193.219 97.1769 193.336 97.9235 193.336C98.6382 193.336 99.1929 193.246 99.5875 193.064C99.9929 192.872 100.196 192.579 100.196 192.184C100.196 191.864 100.025 191.63 99.6835 191.48C99.3529 191.32 98.8195 191.24 98.0835 191.24H96.3875V189.64H98.0355C98.6969 189.64 99.1822 189.544 99.4915 189.352C99.8115 189.16 99.9715 188.92 99.9715 188.632C99.9715 188.28 99.7849 188.014 99.4115 187.832C99.0489 187.651 98.5582 187.56 97.9395 187.56C97.2569 187.56 96.7075 187.667 96.2915 187.88C95.8755 188.094 95.6302 188.414 95.5555 188.84H92.9795C93.0222 188.254 93.2462 187.72 93.6515 187.24C94.0569 186.76 94.6275 186.376 95.3635 186.088C96.1102 185.8 97.0062 185.656 98.0515 185.656C98.9795 185.656 99.7902 185.768 100.484 185.992C101.177 186.216 101.716 186.526 102.1 186.92C102.484 187.315 102.676 187.768 102.676 188.28C102.676 188.686 102.548 189.059 102.292 189.4C102.046 189.742 101.646 190.014 101.092 190.216C100.548 190.419 99.8329 190.52 98.9475 190.52V190.248C100.217 190.195 101.193 190.35 101.876 190.712C102.569 191.075 102.916 191.63 102.916 192.376C102.916 192.92 102.718 193.411 102.324 193.848C101.94 194.286 101.374 194.627 100.628 194.872C99.8809 195.118 98.9795 195.24 97.9235 195.24ZM110.186 195.24C109.055 195.24 108.063 195.043 107.21 194.648C106.357 194.243 105.69 193.683 105.21 192.968C104.73 192.243 104.49 191.406 104.49 190.456C104.49 189.496 104.73 188.659 105.21 187.944C105.69 187.219 106.357 186.659 107.21 186.264C108.063 185.859 109.055 185.656 110.186 185.656C111.317 185.656 112.309 185.859 113.162 186.264C114.015 186.659 114.677 187.219 115.146 187.944C115.626 188.659 115.866 189.496 115.866 190.456C115.866 191.406 115.626 192.243 115.146 192.968C114.677 193.683 114.015 194.243 113.162 194.648C112.309 195.043 111.317 195.24 110.186 195.24ZM110.186 193.208C110.805 193.208 111.333 193.096 111.77 192.872C112.218 192.648 112.559 192.334 112.794 191.928C113.039 191.512 113.162 191.022 113.162 190.456C113.162 189.88 113.039 189.39 112.794 188.984C112.559 188.568 112.218 188.248 111.77 188.024C111.333 187.8 110.805 187.688 110.186 187.688C109.578 187.688 109.05 187.8 108.602 188.024C108.154 188.248 107.807 188.568 107.562 188.984C107.327 189.39 107.21 189.88 107.21 190.456C107.21 191.022 107.327 191.512 107.562 191.928C107.807 192.334 108.154 192.648 108.602 192.872C109.05 193.096 109.578 193.208 110.186 193.208ZM117.648 195L118.16 190.456L117.648 185.896H124.656C125.531 185.896 126.224 186.104 126.736 186.52C127.248 186.926 127.504 187.48 127.504 188.184C127.504 188.846 127.248 189.384 126.736 189.8C126.224 190.206 125.509 190.446 124.592 190.52L124.784 190.072C125.851 190.104 126.661 190.328 127.216 190.744C127.781 191.15 128.064 191.72 128.064 192.456C128.064 193.246 127.776 193.87 127.2 194.328C126.635 194.776 125.856 195 124.864 195H117.648ZM120.224 194.408L119.2 193.272H124.048C124.507 193.272 124.843 193.182 125.056 193C125.269 192.808 125.376 192.542 125.376 192.2C125.376 191.891 125.259 191.64 125.024 191.448C124.789 191.246 124.405 191.144 123.872 191.144H119.744V189.624H123.52C123.968 189.624 124.293 189.534 124.496 189.352C124.709 189.171 124.816 188.926 124.816 188.616C124.816 188.328 124.72 188.094 124.528 187.912C124.347 187.731 124.048 187.64 123.632 187.64H119.216L120.224 186.504L120.72 190.456L120.224 194.408ZM138.407 195L138.023 191.672L138.455 190.456L138.023 189.256L138.407 185.896H141.175L140.647 190.456L141.175 195H138.407ZM139.111 190.456C138.94 191.416 138.625 192.259 138.167 192.984C137.719 193.699 137.148 194.254 136.455 194.648C135.772 195.043 135.004 195.24 134.151 195.24C133.265 195.24 132.481 195.043 131.799 194.648C131.116 194.243 130.583 193.683 130.199 192.968C129.825 192.243 129.639 191.406 129.639 190.456C129.639 189.496 129.825 188.659 130.199 187.944C130.583 187.219 131.116 186.659 131.799 186.264C132.481 185.859 133.265 185.656 134.151 185.656C135.004 185.656 135.772 185.854 136.455 186.248C137.148 186.643 137.724 187.203 138.183 187.928C138.641 188.643 138.951 189.486 139.111 190.456ZM132.343 190.456C132.343 190.99 132.449 191.459 132.663 191.864C132.887 192.27 133.191 192.59 133.575 192.824C133.959 193.048 134.401 193.16 134.903 193.16C135.404 193.16 135.873 193.048 136.311 192.824C136.759 192.59 137.153 192.27 137.495 191.864C137.836 191.459 138.103 190.99 138.295 190.456C138.103 189.923 137.836 189.454 137.495 189.048C137.153 188.632 136.759 188.312 136.311 188.088C135.873 187.854 135.404 187.736 134.903 187.736C134.401 187.736 133.959 187.854 133.575 188.088C133.191 188.312 132.887 188.632 132.663 189.048C132.449 189.454 132.343 189.923 132.343 190.456ZM143.441 185.896H146.097V195H143.441V185.896ZM151.073 185.896H153.729V195H151.073V185.896ZM144.961 189.352H152.113V191.368H144.961V189.352ZM156.218 195V185.896H158.842V193.592L158.186 193.416L163.674 185.896H167.114V195H164.49V187.16L165.146 187.352L159.562 195H156.218ZM168.452 195L172.756 189.848L172.74 190.84L168.708 185.896H171.7L174.548 189.32H173.62L176.484 185.896H179.428L175.268 190.888L175.14 189.64L179.668 195H176.628L173.524 191.32H174.5L171.428 195H168.452ZM46.3453 205.896V215H43.6733V206.696L44.9053 207.912H37.5613L38.7933 206.696V215H36.1213V205.896H46.3453ZM48.8357 205.896H51.5077V208.792L51.3957 209.144V211.336L51.5077 211.992V217.64H48.8357V205.896ZM50.5797 210.456C50.761 209.486 51.0757 208.643 51.5237 207.928C51.9823 207.203 52.553 206.643 53.2357 206.248C53.929 205.854 54.697 205.656 55.5397 205.656C56.4357 205.656 57.2197 205.859 57.8917 206.264C58.5743 206.659 59.1077 207.219 59.4917 207.944C59.8757 208.659 60.0677 209.496 60.0677 210.456C60.0677 211.406 59.8757 212.243 59.4917 212.968C59.1077 213.683 58.5743 214.243 57.8917 214.648C57.2197 215.043 56.4357 215.24 55.5397 215.24C54.6863 215.24 53.9183 215.043 53.2357 214.648C52.5637 214.254 51.9983 213.699 51.5397 212.984C51.081 212.259 50.761 211.416 50.5797 210.456ZM57.3637 210.456C57.3637 209.923 57.2517 209.454 57.0277 209.048C56.8143 208.632 56.5157 208.312 56.1317 208.088C55.7477 207.854 55.305 207.736 54.8037 207.736C54.3023 207.736 53.8277 207.854 53.3797 208.088C52.9317 208.312 52.537 208.632 52.1957 209.048C51.865 209.454 51.6037 209.923 51.4117 210.456C51.6037 210.99 51.865 211.459 52.1957 211.864C52.537 212.27 52.9317 212.59 53.3797 212.824C53.8277 213.048 54.3023 213.16 54.8037 213.16C55.305 213.16 55.7477 213.048 56.1317 212.824C56.5157 212.59 56.8143 212.27 57.0277 211.864C57.2517 211.459 57.3637 210.99 57.3637 210.456ZM67.3285 215.24C66.1979 215.24 65.2059 215.043 64.3525 214.648C63.4992 214.243 62.8325 213.683 62.3525 212.968C61.8725 212.243 61.6325 211.406 61.6325 210.456C61.6325 209.496 61.8725 208.659 62.3525 207.944C62.8325 207.219 63.4992 206.659 64.3525 206.264C65.2059 205.859 66.1979 205.656 67.3285 205.656C68.4592 205.656 69.4512 205.859 70.3045 206.264C71.1579 206.659 71.8192 207.219 72.2885 207.944C72.7685 208.659 73.0085 209.496 73.0085 210.456C73.0085 211.406 72.7685 212.243 72.2885 212.968C71.8192 213.683 71.1579 214.243 70.3045 214.648C69.4512 215.043 68.4592 215.24 67.3285 215.24ZM67.3285 213.208C67.9472 213.208 68.4752 213.096 68.9125 212.872C69.3605 212.648 69.7019 212.334 69.9365 211.928C70.1819 211.512 70.3045 211.022 70.3045 210.456C70.3045 209.88 70.1819 209.39 69.9365 208.984C69.7019 208.568 69.3605 208.248 68.9125 208.024C68.4752 207.8 67.9472 207.688 67.3285 207.688C66.7205 207.688 66.1925 207.8 65.7445 208.024C65.2965 208.248 64.9499 208.568 64.7045 208.984C64.4699 209.39 64.3525 209.88 64.3525 210.456C64.3525 211.022 64.4699 211.512 64.7045 211.928C64.9499 212.334 65.2965 212.648 65.7445 212.872C66.1925 213.096 66.7205 213.208 67.3285 213.208ZM80.1817 215.24C79.1043 215.24 78.139 215.043 77.2857 214.648C76.443 214.243 75.7763 213.678 75.2857 212.952C74.8057 212.227 74.5657 211.384 74.5657 210.424C74.5657 209.475 74.795 208.643 75.2537 207.928C75.723 207.214 76.363 206.659 77.1737 206.264C77.9843 205.859 78.907 205.656 79.9417 205.656C80.9977 205.656 81.9043 205.891 82.6617 206.36C83.419 206.819 84.0003 207.47 84.4057 208.312C84.8217 209.155 85.0297 210.147 85.0297 211.288H76.7097V209.512H83.5897L82.5497 210.152C82.507 209.619 82.3737 209.166 82.1497 208.792C81.9363 208.419 81.643 208.131 81.2697 207.928C80.8963 207.726 80.459 207.624 79.9577 207.624C79.4137 207.624 78.939 207.736 78.5337 207.96C78.139 208.174 77.8297 208.478 77.6057 208.872C77.3923 209.256 77.2857 209.71 77.2857 210.232C77.2857 210.862 77.4243 211.4 77.7017 211.848C77.979 212.296 78.3843 212.638 78.9177 212.872C79.451 213.107 80.0963 213.224 80.8537 213.224C81.5363 213.224 82.2243 213.128 82.9177 212.936C83.611 212.734 84.235 212.451 84.7897 212.088V213.88C84.1923 214.307 83.4937 214.643 82.6937 214.888C81.9043 215.123 81.067 215.24 80.1817 215.24ZM87.0725 215V205.896H89.7445V212.84L88.9605 212.568L94.3845 205.896H97.2965L89.4725 215H87.0725ZM94.5125 215L91.7925 210.536L93.7605 209.016L97.5685 215H94.5125ZM101.791 206.824H104.463V215H101.791V206.824ZM98.1748 205.896H108.079V207.944H98.1748V205.896ZM109.783 205.8L111.111 206.056L112.455 205.8V215H109.783V205.8ZM111.111 204.856C110.631 204.856 110.236 204.734 109.927 204.488C109.628 204.232 109.479 203.896 109.479 203.48C109.479 203.054 109.628 202.718 109.927 202.472C110.236 202.216 110.631 202.088 111.111 202.088C111.601 202.088 111.996 202.216 112.295 202.472C112.593 202.718 112.743 203.054 112.743 203.48C112.743 203.896 112.593 204.232 112.295 204.488C111.996 204.734 111.601 204.856 111.111 204.856ZM114.726 215L115.238 210.456L114.726 205.896H121.734C122.609 205.896 123.302 206.104 123.814 206.52C124.326 206.926 124.582 207.48 124.582 208.184C124.582 208.846 124.326 209.384 123.814 209.8C123.302 210.206 122.587 210.446 121.67 210.52L121.862 210.072C122.929 210.104 123.739 210.328 124.294 210.744C124.859 211.15 125.142 211.72 125.142 212.456C125.142 213.246 124.854 213.87 124.278 214.328C123.713 214.776 122.934 215 121.942 215H114.726ZM117.302 214.408L116.278 213.272H121.126C121.585 213.272 121.921 213.182 122.134 213C122.347 212.808 122.454 212.542 122.454 212.2C122.454 211.891 122.337 211.64 122.102 211.448C121.867 211.246 121.483 211.144 120.95 211.144H116.822V209.624H120.598C121.046 209.624 121.371 209.534 121.574 209.352C121.787 209.171 121.894 208.926 121.894 208.616C121.894 208.328 121.798 208.094 121.606 207.912C121.425 207.731 121.126 207.64 120.71 207.64H116.294L117.302 206.504L117.798 210.456L117.302 214.408ZM35.8973 235L36.4093 230.456L35.8973 225.896H42.9053C43.7799 225.896 44.4733 226.104 44.9853 226.52C45.4973 226.926 45.7533 227.48 45.7533 228.184C45.7533 228.846 45.4973 229.384 44.9853 229.8C44.4733 230.206 43.7586 230.446 42.8413 230.52L43.0333 230.072C44.0999 230.104 44.9106 230.328 45.4653 230.744C46.0306 231.15 46.3133 231.72 46.3133 232.456C46.3133 233.246 46.0253 233.87 45.4493 234.328C44.8839 234.776 44.1053 235 43.1133 235H35.8973ZM38.4733 234.408L37.4493 233.272H42.2973C42.7559 233.272 43.0919 233.182 43.3053 233C43.5186 232.808 43.6253 232.542 43.6253 232.2C43.6253 231.891 43.5079 231.64 43.2733 231.448C43.0386 231.246 42.6546 231.144 42.1213 231.144H37.9933V229.624H41.7693C42.2173 229.624 42.5426 229.534 42.7453 229.352C42.9586 229.171 43.0653 228.926 43.0653 228.616C43.0653 228.328 42.9693 228.094 42.7773 227.912C42.5959 227.731 42.2973 227.64 41.8813 227.64H37.4653L38.4733 226.504L38.9693 230.456L38.4733 234.408ZM52.4778 231.08H55.2298C55.2938 231.486 55.4698 231.843 55.7578 232.152C56.0564 232.451 56.4511 232.686 56.9418 232.856C57.4431 233.016 58.0191 233.096 58.6698 233.096C59.6191 233.096 60.3658 232.963 60.9098 232.696C61.4644 232.419 61.7418 232.035 61.7418 231.544C61.7418 231.16 61.5818 230.867 61.2618 230.664C60.9524 230.451 60.3711 230.296 59.5178 230.2L57.1018 229.928C55.5444 229.758 54.4138 229.395 53.7098 228.84C53.0164 228.275 52.6698 227.491 52.6698 226.488C52.6698 225.699 52.8991 225.027 53.3578 224.472C53.8271 223.918 54.4831 223.496 55.3258 223.208C56.1684 222.91 57.1604 222.76 58.3018 222.76C59.4111 222.76 60.3978 222.926 61.2618 223.256C62.1258 223.576 62.8138 224.03 63.3258 224.616C63.8378 225.192 64.1151 225.87 64.1578 226.648H61.4058C61.3524 226.296 61.1924 225.992 60.9258 225.736C60.6698 225.47 60.3124 225.267 59.8538 225.128C59.3951 224.979 58.8564 224.904 58.2378 224.904C57.3738 224.904 56.6858 225.032 56.1738 225.288C55.6618 225.544 55.4058 225.907 55.4058 226.376C55.4058 226.739 55.5551 227.022 55.8538 227.224C56.1631 227.416 56.7018 227.56 57.4698 227.656L59.9818 227.96C61.0911 228.078 61.9711 228.27 62.6218 228.536C63.2831 228.792 63.7524 229.139 64.0298 229.576C64.3178 230.014 64.4618 230.568 64.4618 231.24C64.4618 232.04 64.2164 232.744 63.7258 233.352C63.2458 233.95 62.5684 234.414 61.6938 234.744C60.8191 235.075 59.7951 235.24 58.6218 235.24C57.4271 235.24 56.3764 235.07 55.4698 234.728C54.5631 234.376 53.8484 233.891 53.3258 233.272C52.8031 232.643 52.5204 231.912 52.4778 231.08ZM70.3704 235.24C69.5277 235.24 68.8077 235.07 68.2104 234.728C67.6237 234.376 67.1704 233.88 66.8504 233.24C66.5411 232.6 66.3864 231.843 66.3864 230.968V225.896H69.0584V230.568C69.0584 231.379 69.2504 231.998 69.6344 232.424C70.0184 232.84 70.5624 233.048 71.2664 233.048C71.7891 233.048 72.2317 232.942 72.5944 232.728C72.9677 232.504 73.2557 232.184 73.4584 231.768C73.6611 231.352 73.7624 230.867 73.7624 230.312L74.6264 230.776C74.5197 231.715 74.2691 232.52 73.8744 233.192C73.4797 233.854 72.9784 234.36 72.3704 234.712C71.7731 235.064 71.1064 235.24 70.3704 235.24ZM74.3224 235L73.7624 231.544V225.896H76.4344V231.944L76.9944 235H74.3224ZM79.0569 222.68H81.7289V228.792L81.3609 229.512V231.496L81.7289 232.232V235H79.0569V222.68ZM80.7849 230.456C80.9556 229.486 81.2702 228.643 81.7289 227.928C82.1876 227.203 82.7582 226.643 83.4409 226.248C84.1236 225.854 84.8916 225.656 85.7449 225.656C86.6302 225.656 87.4142 225.859 88.0969 226.264C88.7796 226.659 89.3129 227.219 89.6969 227.944C90.0809 228.659 90.2729 229.496 90.2729 230.456C90.2729 231.406 90.0809 232.243 89.6969 232.968C89.3129 233.683 88.7796 234.243 88.0969 234.648C87.4142 235.043 86.6302 235.24 85.7449 235.24C84.8916 235.24 84.1236 235.043 83.4409 234.648C82.7582 234.254 82.1876 233.699 81.7289 232.984C81.2809 232.259 80.9662 231.416 80.7849 230.456ZM87.5529 230.456C87.5529 229.923 87.4409 229.454 87.2169 229.048C87.0036 228.632 86.7049 228.312 86.3209 228.088C85.9369 227.854 85.4996 227.736 85.0089 227.736C84.5076 227.736 84.0329 227.854 83.5849 228.088C83.1369 228.312 82.7422 228.632 82.4009 229.048C82.0702 229.454 81.8089 229.923 81.6169 230.456C81.8089 230.99 82.0702 231.459 82.4009 231.864C82.7422 232.27 83.1369 232.59 83.5849 232.824C84.0329 233.048 84.5076 233.16 85.0089 233.16C85.4996 233.16 85.9369 233.048 86.3209 232.824C86.7049 232.59 87.0036 232.27 87.2169 231.864C87.4409 231.459 87.5529 230.99 87.5529 230.456ZM91.8549 225.896H94.5269L95.1029 229.368V235H92.4309V228.968L91.8549 225.896ZM98.3509 225.656C99.1616 225.656 99.8549 225.832 100.431 226.184C101.007 226.526 101.444 227.016 101.743 227.656C102.052 228.296 102.207 229.059 102.207 229.944V235H99.5349V230.344C99.5349 229.523 99.3536 228.904 98.9909 228.488C98.6389 228.062 98.1216 227.848 97.4389 227.848C96.9589 227.848 96.5429 227.966 96.1909 228.2C95.8389 228.424 95.5669 228.739 95.3749 229.144C95.1936 229.55 95.1029 230.035 95.1029 230.6L94.2229 230.136C94.3296 229.176 94.5749 228.366 94.9589 227.704C95.3429 227.043 95.8229 226.536 96.3989 226.184C96.9856 225.832 97.6362 225.656 98.3509 225.656ZM105.439 225.656C106.25 225.656 106.943 225.832 107.519 226.184C108.106 226.526 108.548 227.016 108.847 227.656C109.156 228.296 109.311 229.059 109.311 229.944V235H106.639V230.344C106.639 229.523 106.458 228.904 106.095 228.488C105.743 228.062 105.226 227.848 104.543 227.848C104.063 227.848 103.647 227.966 103.295 228.2C102.943 228.424 102.671 228.739 102.479 229.144C102.298 229.55 102.207 230.035 102.207 230.6L101.327 230.136C101.434 229.176 101.679 228.366 102.063 227.704C102.447 227.043 102.927 226.536 103.503 226.184C104.09 225.832 104.735 225.656 105.439 225.656ZM120.009 235L119.625 231.672L120.057 230.456L119.625 229.256L120.009 225.896H122.777L122.249 230.456L122.777 235H120.009ZM120.713 230.456C120.542 231.416 120.228 232.259 119.769 232.984C119.321 233.699 118.75 234.254 118.057 234.648C117.374 235.043 116.606 235.24 115.753 235.24C114.868 235.24 114.084 235.043 113.401 234.648C112.718 234.243 112.185 233.683 111.801 232.968C111.428 232.243 111.241 231.406 111.241 230.456C111.241 229.496 111.428 228.659 111.801 227.944C112.185 227.219 112.718 226.659 113.401 226.264C114.084 225.859 114.868 225.656 115.753 225.656C116.606 225.656 117.374 225.854 118.057 226.248C118.75 226.643 119.326 227.203 119.785 227.928C120.244 228.643 120.553 229.486 120.713 230.456ZM113.945 230.456C113.945 230.99 114.052 231.459 114.265 231.864C114.489 232.27 114.793 232.59 115.177 232.824C115.561 233.048 116.004 233.16 116.505 233.16C117.006 233.16 117.476 233.048 117.913 232.824C118.361 232.59 118.756 232.27 119.097 231.864C119.438 231.459 119.705 230.99 119.897 230.456C119.705 229.923 119.438 229.454 119.097 229.048C118.756 228.632 118.361 228.312 117.913 228.088C117.476 227.854 117.006 227.736 116.505 227.736C116.004 227.736 115.561 227.854 115.177 228.088C114.793 228.312 114.489 228.632 114.265 229.048C114.052 229.454 113.945 229.923 113.945 230.456ZM124.612 225.896H127.316L127.86 229.176V235H125.188V228.888L124.612 225.896ZM132.292 225.8V228.104C132.014 228.04 131.737 227.992 131.46 227.96C131.182 227.928 130.921 227.912 130.676 227.912C130.142 227.912 129.662 228.024 129.236 228.248C128.809 228.472 128.473 228.819 128.228 229.288C127.982 229.758 127.86 230.35 127.86 231.064L127.3 230.392C127.364 229.742 127.481 229.134 127.652 228.568C127.822 227.992 128.057 227.491 128.356 227.064C128.665 226.627 129.044 226.286 129.492 226.04C129.94 225.784 130.473 225.656 131.092 225.656C131.294 225.656 131.497 225.672 131.7 225.704C131.913 225.726 132.11 225.758 132.292 225.8ZM134.008 225.8L135.336 226.056L136.68 225.8V235H134.008V225.8ZM135.336 224.856C134.856 224.856 134.461 224.734 134.152 224.488C133.853 224.232 133.704 223.896 133.704 223.48C133.704 223.054 133.853 222.718 134.152 222.472C134.461 222.216 134.856 222.088 135.336 222.088C135.827 222.088 136.221 222.216 136.52 222.472C136.819 222.718 136.968 223.054 136.968 223.48C136.968 223.896 136.819 224.232 136.52 224.488C136.221 224.734 135.827 224.856 135.336 224.856ZM138.744 225.896H141.416L141.992 229.368V235H139.32V228.968L138.744 225.896ZM145.464 225.656C146.328 225.656 147.064 225.832 147.672 226.184C148.28 226.526 148.744 227.016 149.064 227.656C149.384 228.296 149.544 229.059 149.544 229.944V235H146.872V230.344C146.872 229.523 146.674 228.904 146.28 228.488C145.885 228.062 145.309 227.848 144.552 227.848C144.04 227.848 143.586 227.966 143.192 228.2C142.808 228.424 142.509 228.739 142.296 229.144C142.093 229.55 141.992 230.035 141.992 230.6L141.112 230.136C141.218 229.176 141.474 228.366 141.88 227.704C142.285 227.043 142.797 226.536 143.416 226.184C144.034 225.832 144.717 225.656 145.464 225.656ZM157.042 235.24C155.964 235.24 154.999 235.043 154.146 234.648C153.303 234.243 152.636 233.678 152.146 232.952C151.666 232.227 151.426 231.384 151.426 230.424C151.426 229.475 151.655 228.643 152.114 227.928C152.583 227.214 153.223 226.659 154.034 226.264C154.844 225.859 155.767 225.656 156.802 225.656C157.858 225.656 158.764 225.891 159.522 226.36C160.279 226.819 160.86 227.47 161.266 228.312C161.682 229.155 161.89 230.147 161.89 231.288H153.57V229.512H160.45L159.41 230.152C159.367 229.619 159.234 229.166 159.01 228.792C158.796 228.419 158.503 228.131 158.13 227.928C157.756 227.726 157.319 227.624 156.818 227.624C156.274 227.624 155.799 227.736 155.394 227.96C154.999 228.174 154.69 228.478 154.466 228.872C154.252 229.256 154.146 229.71 154.146 230.232C154.146 230.862 154.284 231.4 154.562 231.848C154.839 232.296 155.244 232.638 155.778 232.872C156.311 233.107 156.956 233.224 157.714 233.224C158.396 233.224 159.084 233.128 159.778 232.936C160.471 232.734 161.095 232.451 161.65 232.088V233.88C161.052 234.307 160.354 234.643 159.554 234.888C158.764 235.123 157.927 235.24 157.042 235.24ZM169.978 235.144C169.53 235.144 169.157 235 168.858 234.712C168.57 234.424 168.426 234.062 168.426 233.624C168.426 233.187 168.57 232.824 168.858 232.536C169.157 232.248 169.53 232.104 169.978 232.104C170.437 232.104 170.81 232.248 171.098 232.536C171.397 232.824 171.546 233.187 171.546 233.624C171.546 234.062 171.397 234.424 171.098 234.712C170.81 235 170.437 235.144 169.978 235.144ZM169.978 229.48C169.53 229.48 169.157 229.336 168.858 229.048C168.57 228.76 168.426 228.398 168.426 227.96C168.426 227.523 168.57 227.16 168.858 226.872C169.157 226.584 169.53 226.44 169.978 226.44C170.437 226.44 170.81 226.584 171.098 226.872C171.397 227.16 171.546 227.523 171.546 227.96C171.546 228.398 171.397 228.76 171.098 229.048C170.81 229.336 170.437 229.48 169.978 229.48Z" fill="white"/>
<path d="M251.753 174V172.992L255.785 168.928C256.937 167.776 257.513 166.79 257.513 165.968C257.513 165.254 257.289 164.699 256.841 164.304C256.404 163.899 255.876 163.696 255.257 163.696C254.105 163.696 253.268 164.224 252.745 165.28L251.801 164.72C252.153 164.027 252.633 163.504 253.241 163.152C253.849 162.79 254.521 162.608 255.257 162.608C256.153 162.608 256.937 162.912 257.609 163.52C258.292 164.118 258.633 164.934 258.633 165.968C258.633 166.619 258.452 167.243 258.089 167.84C257.727 168.438 257.215 169.067 256.553 169.728L253.353 172.912H258.873V174H251.753ZM268.003 172.624C267.267 173.67 266.227 174.192 264.883 174.192C263.539 174.192 262.494 173.67 261.747 172.624C261.011 171.568 260.643 170.16 260.643 168.4C260.643 166.64 261.011 165.238 261.747 164.192C262.494 163.136 263.539 162.608 264.883 162.608C266.227 162.608 267.267 163.136 268.003 164.192C268.75 165.238 269.123 166.64 269.123 168.4C269.123 170.16 268.75 171.568 268.003 172.624ZM262.579 171.872C263.134 172.694 263.902 173.104 264.883 173.104C265.865 173.104 266.627 172.694 267.171 171.872C267.726 171.051 268.003 169.894 268.003 168.4C268.003 166.907 267.726 165.75 267.171 164.928C266.627 164.107 265.865 163.696 264.883 163.696C263.902 163.696 263.134 164.107 262.579 164.928C262.035 165.75 261.763 166.907 261.763 168.4C261.763 169.894 262.035 171.051 262.579 171.872ZM278.561 172.624C277.825 173.67 276.785 174.192 275.441 174.192C274.097 174.192 273.052 173.67 272.305 172.624C271.569 171.568 271.201 170.16 271.201 168.4C271.201 166.64 271.569 165.238 272.305 164.192C273.052 163.136 274.097 162.608 275.441 162.608C276.785 162.608 277.825 163.136 278.561 164.192C279.308 165.238 279.681 166.64 279.681 168.4C279.681 170.16 279.308 171.568 278.561 172.624ZM273.137 171.872C273.692 172.694 274.46 173.104 275.441 173.104C276.423 173.104 277.185 172.694 277.729 171.872C278.284 171.051 278.561 169.894 278.561 168.4C278.561 166.907 278.284 165.75 277.729 164.928C277.185 164.107 276.423 163.696 275.441 163.696C274.46 163.696 273.692 164.107 273.137 164.928C272.593 165.75 272.321 166.907 272.321 168.4C272.321 169.894 272.593 171.051 273.137 171.872ZM288.64 167.888V168.912H285.792V171.76H284.768V168.912H281.92V167.888H284.768V165.04H285.792V167.888H288.64Z" fill="white"/>
<path d="M39.1613 271L41.2253 267.432H41.2573L46.1213 259H49.0653L42.1053 271H39.1613ZM41.2253 269.256L35.2413 259H38.2333L43.0973 267.368L41.2253 269.256ZM49.9662 261.896H59.3742V271H56.7022V262.696L57.9342 263.912H51.2942L52.4462 262.92C52.4995 263.571 52.5422 264.174 52.5742 264.728C52.6168 265.272 52.6382 265.763 52.6382 266.2C52.6382 267.95 52.3768 269.219 51.8542 270.008C51.3422 270.798 50.5102 271.192 49.3582 271.192C49.0382 271.192 48.7288 271.155 48.4302 271.08C48.1422 271.016 47.8595 270.904 47.5822 270.744V268.808C47.7742 268.883 47.9608 268.942 48.1422 268.984C48.3342 269.016 48.5102 269.032 48.6702 269.032C49.2142 269.032 49.6035 268.787 49.8382 268.296C50.0835 267.795 50.2062 266.974 50.2062 265.832C50.2062 265.32 50.1848 264.734 50.1422 264.072C50.1102 263.411 50.0515 262.686 49.9662 261.896ZM71.6705 271.24C70.5505 271.24 69.5692 271.043 68.7265 270.648C67.8839 270.243 67.2279 269.683 66.7585 268.968C66.2999 268.243 66.0705 267.406 66.0705 266.456C66.0705 265.496 66.2999 264.659 66.7585 263.944C67.2279 263.219 67.8839 262.659 68.7265 262.264C69.5692 261.859 70.5505 261.656 71.6705 261.656C72.7905 261.656 73.7719 261.859 74.6145 262.264C75.4572 262.659 76.1132 263.219 76.5825 263.944C77.0519 264.659 77.2865 265.496 77.2865 266.456C77.2865 267.406 77.0519 268.243 76.5825 268.968C76.1132 269.683 75.4572 270.243 74.6145 270.648C73.7719 271.043 72.7905 271.24 71.6705 271.24ZM61.8625 271V261.896H64.5345V271H61.8625ZM63.3665 267.368V265.368H67.7665V267.368H63.3665ZM71.6705 269.208C72.2785 269.208 72.7959 269.096 73.2225 268.872C73.6599 268.648 73.9959 268.334 74.2305 267.928C74.4652 267.512 74.5825 267.022 74.5825 266.456C74.5825 265.88 74.4652 265.39 74.2305 264.984C73.9959 264.568 73.6599 264.248 73.2225 264.024C72.7959 263.8 72.2785 263.688 71.6705 263.688C71.0732 263.688 70.5559 263.8 70.1185 264.024C69.6812 264.248 69.3452 264.568 69.1105 264.984C68.8759 265.39 68.7585 265.88 68.7585 266.456C68.7585 267.022 68.8759 267.512 69.1105 267.928C69.3452 268.334 69.6812 268.648 70.1185 268.872C70.5559 269.096 71.0732 269.208 71.6705 269.208ZM84.8953 271.24C83.6473 271.24 82.5806 271.006 81.6953 270.536C80.8099 270.056 80.1326 269.368 79.6633 268.472C79.1939 267.576 78.9593 266.494 78.9593 265.224C78.9593 263.336 79.4659 261.848 80.4793 260.76C81.4926 259.672 82.9433 259.048 84.8313 258.888C85.5993 258.824 86.2339 258.771 86.7353 258.728C87.2366 258.686 87.6473 258.643 87.9673 258.6C88.2979 258.547 88.5753 258.494 88.7993 258.44C89.0233 258.376 89.2419 258.307 89.4553 258.232V260.456C89.2313 260.542 88.9433 260.622 88.5913 260.696C88.2499 260.76 87.8126 260.814 87.2793 260.856C86.7566 260.899 86.1113 260.942 85.3433 260.984C83.9459 261.048 82.9059 261.432 82.2233 262.136C81.5406 262.84 81.1993 263.854 81.1993 265.176V265.608L81.1033 265.416C81.3166 264.84 81.6419 264.344 82.0793 263.928C82.5166 263.512 83.0393 263.198 83.6473 262.984C84.2659 262.76 84.9326 262.648 85.6473 262.648C86.5753 262.648 87.3859 262.824 88.0793 263.176C88.7726 263.518 89.3113 264.003 89.6953 264.632C90.0899 265.262 90.2873 265.998 90.2873 266.84C90.2873 267.726 90.0633 268.499 89.6153 269.16C89.1673 269.822 88.5379 270.334 87.7273 270.696C86.9273 271.059 85.9833 271.24 84.8953 271.24ZM84.9593 269.208C85.4926 269.208 85.9566 269.112 86.3513 268.92C86.7459 268.728 87.0499 268.456 87.2633 268.104C87.4766 267.752 87.5833 267.342 87.5833 266.872C87.5833 266.403 87.4766 265.998 87.2633 265.656C87.0499 265.304 86.7459 265.032 86.3513 264.84C85.9566 264.648 85.4926 264.552 84.9593 264.552C84.2233 264.552 83.5726 264.75 83.0073 265.144C82.4419 265.528 82.0153 266.067 81.7273 266.76C81.8979 267.507 82.2713 268.104 82.8473 268.552C83.4339 268.99 84.1379 269.208 84.9593 269.208ZM93.6718 261.896H103.08V271H100.408V262.696L101.64 263.912H94.9998L96.1518 262.92C96.2051 263.571 96.2478 264.174 96.2798 264.728C96.3224 265.272 96.3438 265.763 96.3438 266.2C96.3438 267.95 96.0824 269.219 95.5598 270.008C95.0478 270.798 94.2158 271.192 93.0638 271.192C92.7438 271.192 92.4344 271.155 92.1358 271.08C91.8478 271.016 91.5651 270.904 91.2878 270.744V268.808C91.4798 268.883 91.6664 268.942 91.8478 268.984C92.0398 269.016 92.2158 269.032 92.3758 269.032C92.9198 269.032 93.3091 268.787 93.5438 268.296C93.7891 267.795 93.9118 266.974 93.9118 265.832C93.9118 265.32 93.8904 264.734 93.8478 264.072C93.8158 263.411 93.7571 262.686 93.6718 261.896ZM110.704 271.24C109.627 271.24 108.661 271.043 107.808 270.648C106.965 270.243 106.299 269.678 105.808 268.952C105.328 268.227 105.088 267.384 105.088 266.424C105.088 265.475 105.317 264.643 105.776 263.928C106.245 263.214 106.885 262.659 107.696 262.264C108.507 261.859 109.429 261.656 110.464 261.656C111.52 261.656 112.427 261.891 113.184 262.36C113.941 262.819 114.523 263.47 114.928 264.312C115.344 265.155 115.552 266.147 115.552 267.288H107.232V265.512H114.112L113.072 266.152C113.029 265.619 112.896 265.166 112.672 264.792C112.459 264.419 112.165 264.131 111.792 263.928C111.419 263.726 110.981 263.624 110.48 263.624C109.936 263.624 109.461 263.736 109.056 263.96C108.661 264.174 108.352 264.478 108.128 264.872C107.915 265.256 107.808 265.71 107.808 266.232C107.808 266.862 107.947 267.4 108.224 267.848C108.501 268.296 108.907 268.638 109.44 268.872C109.973 269.107 110.619 269.224 111.376 269.224C112.059 269.224 112.747 269.128 113.44 268.936C114.133 268.734 114.757 268.451 115.312 268.088V269.88C114.715 270.307 114.016 270.643 113.216 270.888C112.427 271.123 111.589 271.24 110.704 271.24ZM117.595 261.896H120.251V271H117.595V261.896ZM125.227 261.896H127.883V271H125.227V261.896ZM119.115 265.352H126.267V267.368H119.115V265.352ZM130.372 261.8L131.7 262.056L133.044 261.8V271H130.372V261.8ZM131.7 260.856C131.22 260.856 130.825 260.734 130.516 260.488C130.217 260.232 130.068 259.896 130.068 259.48C130.068 259.054 130.217 258.718 130.516 258.472C130.825 258.216 131.22 258.088 131.7 258.088C132.191 258.088 132.585 258.216 132.884 258.472C133.183 258.718 133.332 259.054 133.332 259.48C133.332 259.896 133.183 260.232 132.884 260.488C132.585 260.734 132.191 260.856 131.7 260.856ZM150.337 261.896V271H147.665V262.696L148.897 263.912H141.553L142.785 262.696V271H140.113V261.896H150.337ZM152.828 261.896H155.5V264.792L155.388 265.144V267.336L155.5 267.992V273.64H152.828V261.896ZM154.572 266.456C154.753 265.486 155.068 264.643 155.516 263.928C155.974 263.203 156.545 262.643 157.228 262.248C157.921 261.854 158.689 261.656 159.532 261.656C160.428 261.656 161.212 261.859 161.884 262.264C162.566 262.659 163.1 263.219 163.484 263.944C163.868 264.659 164.06 265.496 164.06 266.456C164.06 267.406 163.868 268.243 163.484 268.968C163.1 269.683 162.566 270.243 161.884 270.648C161.212 271.043 160.428 271.24 159.532 271.24C158.678 271.24 157.91 271.043 157.228 270.648C156.556 270.254 155.99 269.699 155.532 268.984C155.073 268.259 154.753 267.416 154.572 266.456ZM161.356 266.456C161.356 265.923 161.244 265.454 161.02 265.048C160.806 264.632 160.508 264.312 160.124 264.088C159.74 263.854 159.297 263.736 158.796 263.736C158.294 263.736 157.82 263.854 157.372 264.088C156.924 264.312 156.529 264.632 156.188 265.048C155.857 265.454 155.596 265.923 155.404 266.456C155.596 266.99 155.857 267.459 156.188 267.864C156.529 268.27 156.924 268.59 157.372 268.824C157.82 269.048 158.294 269.16 158.796 269.16C159.297 269.16 159.74 269.048 160.124 268.824C160.508 268.59 160.806 268.27 161.02 267.864C161.244 267.459 161.356 266.99 161.356 266.456ZM171.32 271.24C170.19 271.24 169.198 271.043 168.344 270.648C167.491 270.243 166.824 269.683 166.344 268.968C165.864 268.243 165.624 267.406 165.624 266.456C165.624 265.496 165.864 264.659 166.344 263.944C166.824 263.219 167.491 262.659 168.344 262.264C169.198 261.859 170.19 261.656 171.32 261.656C172.451 261.656 173.443 261.859 174.296 262.264C175.15 262.659 175.811 263.219 176.28 263.944C176.76 264.659 177 265.496 177 266.456C177 267.406 176.76 268.243 176.28 268.968C175.811 269.683 175.15 270.243 174.296 270.648C173.443 271.043 172.451 271.24 171.32 271.24ZM171.32 269.208C171.939 269.208 172.467 269.096 172.904 268.872C173.352 268.648 173.694 268.334 173.928 267.928C174.174 267.512 174.296 267.022 174.296 266.456C174.296 265.88 174.174 265.39 173.928 264.984C173.694 264.568 173.352 264.248 172.904 264.024C172.467 263.8 171.939 263.688 171.32 263.688C170.712 263.688 170.184 263.8 169.736 264.024C169.288 264.248 168.942 264.568 168.696 264.984C168.462 265.39 168.344 265.88 168.344 266.456C168.344 267.022 168.462 267.512 168.696 267.928C168.942 268.334 169.288 268.648 169.736 268.872C170.184 269.096 170.712 269.208 171.32 269.208ZM184.174 271.24C183.096 271.24 182.131 271.043 181.278 270.648C180.435 270.243 179.768 269.678 179.278 268.952C178.798 268.227 178.558 267.384 178.558 266.424C178.558 265.475 178.787 264.643 179.246 263.928C179.715 263.214 180.355 262.659 181.166 262.264C181.976 261.859 182.899 261.656 183.934 261.656C184.99 261.656 185.896 261.891 186.654 262.36C187.411 262.819 187.992 263.47 188.398 264.312C188.814 265.155 189.022 266.147 189.022 267.288H180.702V265.512H187.582L186.542 266.152C186.499 265.619 186.366 265.166 186.142 264.792C185.928 264.419 185.635 264.131 185.262 263.928C184.888 263.726 184.451 263.624 183.95 263.624C183.406 263.624 182.931 263.736 182.526 263.96C182.131 264.174 181.822 264.478 181.598 264.872C181.384 265.256 181.278 265.71 181.278 266.232C181.278 266.862 181.416 267.4 181.694 267.848C181.971 268.296 182.376 268.638 182.91 268.872C183.443 269.107 184.088 269.224 184.846 269.224C185.528 269.224 186.216 269.128 186.91 268.936C187.603 268.734 188.227 268.451 188.782 268.088V269.88C188.184 270.307 187.486 270.643 186.686 270.888C185.896 271.123 185.059 271.24 184.174 271.24ZM191.064 271V261.896H193.736V268.84L192.952 268.568L198.376 261.896H201.288L193.464 271H191.064ZM198.504 271L195.784 266.536L197.752 265.016L201.56 271H198.504ZM205.783 262.824H208.455V271H205.783V262.824ZM202.167 261.896H212.071V263.944H202.167V261.896ZM213.774 271V261.896H216.398V269.592L215.742 269.416L221.23 261.896H224.67V271H222.046V263.16L222.702 263.352L217.118 271H213.774ZM228.633 271.144C228.185 271.144 227.811 271 227.513 270.712C227.225 270.424 227.081 270.062 227.081 269.624C227.081 269.187 227.225 268.824 227.513 268.536C227.811 268.248 228.185 268.104 228.633 268.104C229.091 268.104 229.465 268.248 229.753 268.536C230.051 268.824 230.201 269.187 230.201 269.624C230.201 270.062 230.051 270.424 229.753 270.712C229.465 271 229.091 271.144 228.633 271.144ZM228.633 265.48C228.185 265.48 227.811 265.336 227.513 265.048C227.225 264.76 227.081 264.398 227.081 263.96C227.081 263.523 227.225 263.16 227.513 262.872C227.811 262.584 228.185 262.44 228.633 262.44C229.091 262.44 229.465 262.584 229.753 262.872C230.051 263.16 230.201 263.523 230.201 263.96C230.201 264.398 230.051 264.76 229.753 265.048C229.465 265.336 229.091 265.48 228.633 265.48Z" fill="white"/>
<path d="M257.561 264.208C258.18 264.443 258.66 264.8 259.001 265.28C259.343 265.76 259.513 266.326 259.513 266.976C259.513 267.915 259.161 268.688 258.457 269.296C257.764 269.894 256.825 270.192 255.641 270.192C254.575 270.192 253.721 269.952 253.081 269.472C252.441 268.992 251.999 268.39 251.753 267.664L252.713 267.12C252.852 267.686 253.151 268.166 253.609 268.56C254.079 268.944 254.756 269.136 255.641 269.136C256.516 269.136 257.193 268.939 257.673 268.544C258.153 268.139 258.393 267.616 258.393 266.976C258.393 266.336 258.169 265.819 257.721 265.424C257.284 265.019 256.676 264.816 255.897 264.816H254.617V263.76H255.497C256.255 263.76 256.857 263.568 257.305 263.184C257.753 262.8 257.977 262.304 257.977 261.696C257.977 261.099 257.759 260.614 257.321 260.24C256.895 259.856 256.308 259.664 255.561 259.664C254.185 259.664 253.279 260.251 252.841 261.424L251.913 260.88C252.191 260.198 252.628 259.648 253.225 259.232C253.833 258.816 254.612 258.608 255.561 258.608C256.617 258.608 257.471 258.907 258.121 259.504C258.772 260.091 259.097 260.827 259.097 261.712C259.097 262.832 258.585 263.664 257.561 264.208ZM266.848 265.888C267.723 266.208 268.16 266.832 268.16 267.76C268.16 268.411 267.941 268.95 267.504 269.376C267.077 269.792 266.459 270 265.648 270H261.76V262H265.328C266.107 262 266.709 262.203 267.136 262.608C267.563 263.003 267.776 263.515 267.776 264.144C267.776 264.944 267.467 265.526 266.848 265.888ZM265.328 263.024H262.816V265.456H265.328C266.256 265.456 266.72 265.04 266.72 264.208C266.72 263.835 266.597 263.547 266.352 263.344C266.117 263.131 265.776 263.024 265.328 263.024ZM265.648 268.976C266.117 268.976 266.475 268.864 266.72 268.64C266.976 268.416 267.104 268.102 267.104 267.696C267.104 267.323 266.976 267.03 266.72 266.816C266.475 266.592 266.117 266.48 265.648 266.48H262.816V268.976H265.648ZM271.312 260.08C271.163 260.23 270.981 260.304 270.768 260.304C270.555 260.304 270.373 260.23 270.224 260.08C270.075 259.931 270 259.75 270 259.536C270 259.323 270.075 259.142 270.224 258.992C270.373 258.843 270.555 258.768 270.768 258.768C270.981 258.768 271.163 258.843 271.312 258.992C271.461 259.142 271.536 259.323 271.536 259.536C271.536 259.75 271.461 259.931 271.312 260.08ZM270.24 270V262H271.296V270H270.24ZM277.745 270.192C276.54 270.192 275.537 269.792 274.737 268.992C273.937 268.182 273.537 267.184 273.537 266C273.537 264.816 273.937 263.824 274.737 263.024C275.537 262.214 276.54 261.808 277.745 261.808C278.534 261.808 279.244 262 279.873 262.384C280.502 262.758 280.961 263.264 281.249 263.904L280.385 264.4C280.172 263.92 279.825 263.542 279.345 263.264C278.876 262.976 278.342 262.832 277.745 262.832C276.86 262.832 276.113 263.142 275.505 263.76C274.897 264.368 274.593 265.115 274.593 266C274.593 266.886 274.897 267.638 275.505 268.256C276.113 268.864 276.86 269.168 277.745 269.168C278.342 269.168 278.876 269.03 279.345 268.752C279.814 268.464 280.182 268.08 280.449 267.6L281.329 268.112C280.998 268.752 280.513 269.259 279.873 269.632C279.233 270.006 278.524 270.192 277.745 270.192ZM288.989 262H290.045V270H288.989V266.512H284.381V270H283.325V262H284.381V265.488H288.989V262ZM299.462 268.992C298.652 269.792 297.66 270.192 296.486 270.192C295.313 270.192 294.316 269.792 293.494 268.992C292.684 268.182 292.278 267.184 292.278 266C292.278 264.816 292.684 263.824 293.494 263.024C294.316 262.214 295.313 261.808 296.486 261.808C297.66 261.808 298.652 262.214 299.462 263.024C300.284 263.824 300.694 264.816 300.694 266C300.694 267.184 300.284 268.182 299.462 268.992ZM294.246 268.256C294.854 268.864 295.601 269.168 296.486 269.168C297.372 269.168 298.118 268.864 298.726 268.256C299.334 267.638 299.638 266.886 299.638 266C299.638 265.115 299.334 264.368 298.726 263.76C298.118 263.142 297.372 262.832 296.486 262.832C295.601 262.832 294.854 263.142 294.246 263.76C293.638 264.368 293.334 265.115 293.334 266C293.334 266.886 293.638 267.638 294.246 268.256ZM304.061 268.64L303.101 272.24H302.141L302.781 268.64H304.061ZM321.825 268.976H322.945V272.144H321.889V270H311.105V262H312.161V268.976H315.937V262H316.993V268.976H320.769V262H321.825V268.976ZM331.414 268.992C330.603 269.792 329.611 270.192 328.438 270.192C327.264 270.192 326.267 269.792 325.446 268.992C324.635 268.182 324.23 267.184 324.23 266C324.23 264.816 324.635 263.824 325.446 263.024C326.267 262.214 327.264 261.808 328.438 261.808C329.611 261.808 330.603 262.214 331.414 263.024C332.235 263.824 332.646 264.816 332.646 266C332.646 267.184 332.235 268.182 331.414 268.992ZM326.198 268.256C326.806 268.864 327.552 269.168 328.438 269.168C329.323 269.168 330.07 268.864 330.678 268.256C331.286 267.638 331.59 266.886 331.59 266C331.59 265.115 331.286 264.368 330.678 263.76C330.07 263.142 329.323 262.832 328.438 262.832C327.552 262.832 326.806 263.142 326.198 263.76C325.59 264.368 325.286 265.115 325.286 266C325.286 266.886 325.59 267.638 326.198 268.256ZM255.913 290.192C254.889 290.192 254.009 289.952 253.273 289.472C252.548 288.982 252.041 288.31 251.753 287.456L252.713 286.896C252.916 287.59 253.289 288.134 253.833 288.528C254.377 288.912 255.076 289.104 255.929 289.104C256.761 289.104 257.407 288.923 257.865 288.56C258.335 288.187 258.569 287.696 258.569 287.088C258.569 286.502 258.356 286.059 257.929 285.76C257.503 285.462 256.799 285.152 255.817 284.832C254.655 284.448 253.887 284.139 253.513 283.904C252.66 283.392 252.233 282.651 252.233 281.68C252.233 280.731 252.564 279.984 253.225 279.44C253.887 278.886 254.703 278.608 255.673 278.608C256.548 278.608 257.305 278.838 257.945 279.296C258.585 279.744 259.06 280.32 259.369 281.024L258.425 281.552C257.913 280.315 256.996 279.696 255.673 279.696C254.98 279.696 254.42 279.867 253.993 280.208C253.567 280.55 253.353 281.024 253.353 281.632C253.353 282.187 253.545 282.603 253.929 282.88C254.313 283.158 254.948 283.44 255.833 283.728C256.239 283.867 256.527 283.968 256.697 284.032C256.879 284.086 257.135 284.182 257.465 284.32C257.807 284.448 258.057 284.566 258.217 284.672C258.377 284.768 258.569 284.907 258.793 285.088C259.028 285.259 259.193 285.435 259.289 285.616C259.396 285.787 259.487 286 259.561 286.256C259.647 286.502 259.689 286.768 259.689 287.056C259.689 288.006 259.343 288.768 258.649 289.344C257.956 289.91 257.044 290.192 255.913 290.192ZM267.564 282H268.62V290H267.564V288.752C266.967 289.712 266.071 290.192 264.876 290.192C263.905 290.192 263.137 289.899 262.572 289.312C262.017 288.715 261.74 287.915 261.74 286.912V282H262.796V286.912C262.796 287.627 262.983 288.182 263.356 288.576C263.74 288.971 264.279 289.168 264.972 289.168C265.74 289.168 266.364 288.928 266.844 288.448C267.324 287.958 267.564 287.206 267.564 286.192V282ZM275.622 281.808C276.763 281.808 277.734 282.214 278.534 283.024C279.345 283.835 279.75 284.827 279.75 286C279.75 287.174 279.345 288.166 278.534 288.976C277.734 289.787 276.763 290.192 275.622 290.192C274.203 290.192 273.126 289.606 272.39 288.432V290H271.334V278.8H272.39V283.568C273.126 282.395 274.203 281.808 275.622 281.808ZM273.302 288.256C273.91 288.864 274.657 289.168 275.542 289.168C276.427 289.168 277.174 288.864 277.782 288.256C278.39 287.638 278.694 286.886 278.694 286C278.694 285.115 278.39 284.368 277.782 283.76C277.174 283.142 276.427 282.832 275.542 282.832C274.657 282.832 273.91 283.142 273.302 283.76C272.694 284.368 272.39 285.115 272.39 286C272.39 286.886 272.694 287.638 273.302 288.256ZM290.514 281.808C291.41 281.808 292.13 282.096 292.674 282.672C293.228 283.248 293.506 284.027 293.506 285.008V290H292.45V285.008C292.45 284.315 292.268 283.782 291.906 283.408C291.554 283.024 291.084 282.832 290.498 282.832C289.836 282.832 289.298 283.056 288.882 283.504C288.476 283.942 288.274 284.63 288.274 285.568V290H287.218V285.008C287.218 284.304 287.047 283.766 286.706 283.392C286.375 283.019 285.922 282.832 285.346 282.832C284.706 282.832 284.162 283.056 283.714 283.504C283.266 283.952 283.042 284.64 283.042 285.568V290H281.986V282H283.042V283.168C283.618 282.262 284.434 281.808 285.49 281.808C286.642 281.808 287.452 282.294 287.922 283.264C288.498 282.294 289.362 281.808 290.514 281.808ZM302.908 282H303.964V290H302.908V288.432C302.172 289.606 301.095 290.192 299.676 290.192C298.535 290.192 297.559 289.787 296.748 288.976C295.948 288.166 295.548 287.174 295.548 286C295.548 284.827 295.948 283.835 296.748 283.024C297.559 282.214 298.535 281.808 299.676 281.808C301.095 281.808 302.172 282.395 302.908 283.568V282ZM297.516 288.256C298.124 288.864 298.871 289.168 299.756 289.168C300.642 289.168 301.388 288.864 301.996 288.256C302.604 287.638 302.908 286.886 302.908 286C302.908 285.115 302.604 284.368 301.996 283.76C301.388 283.142 300.642 282.832 299.756 282.832C298.871 282.832 298.124 283.142 297.516 283.76C296.908 284.368 296.604 285.115 296.604 286C296.604 286.886 296.908 287.638 297.516 288.256ZM307.736 283.328C308.227 282.358 309.069 281.872 310.264 281.872V282.896C309.539 282.896 308.936 283.11 308.456 283.536C307.976 283.963 307.736 284.635 307.736 285.552V290H306.68V282H307.736V283.328ZM313.263 280.08C313.114 280.23 312.933 280.304 312.719 280.304C312.506 280.304 312.325 280.23 312.175 280.08C312.026 279.931 311.951 279.75 311.951 279.536C311.951 279.323 312.026 279.142 312.175 278.992C312.325 278.843 312.506 278.768 312.719 278.768C312.933 278.768 313.114 278.843 313.263 278.992C313.413 279.142 313.487 279.323 313.487 279.536C313.487 279.75 313.413 279.931 313.263 280.08ZM312.191 290V282H313.247V290H312.191ZM319.712 281.808C320.683 281.808 321.446 282.107 322 282.704C322.566 283.291 322.848 284.086 322.848 285.088V290H321.792V285.088C321.792 284.374 321.6 283.819 321.216 283.424C320.843 283.03 320.31 282.832 319.616 282.832C318.848 282.832 318.224 283.078 317.744 283.568C317.264 284.048 317.024 284.795 317.024 285.808V290H315.968V282H317.024V283.248C317.622 282.288 318.518 281.808 319.712 281.808ZM329.066 281.808C330.25 281.808 331.205 282.23 331.93 283.072C332.666 283.904 333.034 284.891 333.034 286.032C333.034 286.15 333.023 286.315 333.002 286.528H325.978C326.085 287.339 326.426 287.984 327.002 288.464C327.589 288.934 328.309 289.168 329.162 289.168C329.77 289.168 330.293 289.046 330.73 288.8C331.178 288.544 331.514 288.214 331.738 287.808L332.666 288.352C332.314 288.918 331.834 289.366 331.226 289.696C330.618 290.027 329.925 290.192 329.146 290.192C327.887 290.192 326.863 289.798 326.074 289.008C325.285 288.219 324.89 287.216 324.89 286C324.89 284.806 325.279 283.808 326.058 283.008C326.837 282.208 327.839 281.808 329.066 281.808ZM329.066 282.832C328.234 282.832 327.535 283.083 326.97 283.584C326.415 284.075 326.085 284.715 325.978 285.504H331.946C331.839 284.662 331.514 284.006 330.97 283.536C330.426 283.067 329.791 282.832 329.066 282.832Z" fill="white"/>
<path d="M35.3693 329.448V324.6H37.6093L38.7613 324.632H47.4013L48.0573 324.6H51.2893V329.448H48.7453V327H37.9133V329.448H35.3693ZM37.9453 315H49.1933V326.136H46.4893V316.152L47.7053 317.368H39.4013L40.5373 316.488C40.6013 317.022 40.6439 317.55 40.6653 318.072C40.6866 318.595 40.6973 319.086 40.6973 319.544C40.6973 320.846 40.5959 321.95 40.3933 322.856C40.1906 323.752 39.8866 324.435 39.4813 324.904C39.0759 325.363 38.5746 325.592 37.9773 325.592L36.8573 324.648C37.3053 324.136 37.6359 323.416 37.8493 322.488C38.0733 321.55 38.1853 320.382 38.1853 318.984C38.1853 318.366 38.1639 317.72 38.1213 317.048C38.0786 316.376 38.0199 315.694 37.9453 315ZM58.1767 327.24C57.046 327.24 56.054 327.043 55.2007 326.648C54.3473 326.243 53.6807 325.683 53.2007 324.968C52.7207 324.243 52.4807 323.406 52.4807 322.456C52.4807 321.496 52.7207 320.659 53.2007 319.944C53.6807 319.219 54.3473 318.659 55.2007 318.264C56.054 317.859 57.046 317.656 58.1767 317.656C59.3073 317.656 60.2993 317.859 61.1527 318.264C62.006 318.659 62.6673 319.219 63.1367 319.944C63.6167 320.659 63.8567 321.496 63.8567 322.456C63.8567 323.406 63.6167 324.243 63.1367 324.968C62.6673 325.683 62.006 326.243 61.1527 326.648C60.2993 327.043 59.3073 327.24 58.1767 327.24ZM58.1767 325.208C58.7953 325.208 59.3233 325.096 59.7607 324.872C60.2087 324.648 60.55 324.334 60.7847 323.928C61.03 323.512 61.1527 323.022 61.1527 322.456C61.1527 321.88 61.03 321.39 60.7847 320.984C60.55 320.568 60.2087 320.248 59.7607 320.024C59.3233 319.8 58.7953 319.688 58.1767 319.688C57.5687 319.688 57.0407 319.8 56.5927 320.024C56.1447 320.248 55.798 320.568 55.5527 320.984C55.318 321.39 55.2007 321.88 55.2007 322.456C55.2007 323.022 55.318 323.512 55.5527 323.928C55.798 324.334 56.1447 324.648 56.5927 324.872C57.0407 325.096 57.5687 325.208 58.1767 325.208ZM76.3418 323.288C76.2351 324.067 75.9311 324.755 75.4298 325.352C74.9391 325.95 74.3044 326.414 73.5258 326.744C72.7471 327.075 71.8778 327.24 70.9178 327.24C69.8298 327.24 68.8698 327.043 68.0378 326.648C67.2164 326.243 66.5711 325.678 66.1018 324.952C65.6431 324.227 65.4138 323.395 65.4138 322.456C65.4138 321.507 65.6431 320.675 66.1018 319.96C66.5711 319.235 67.2164 318.67 68.0378 318.264C68.8698 317.859 69.8298 317.656 70.9178 317.656C71.8778 317.656 72.7471 317.827 73.5258 318.168C74.3044 318.499 74.9391 318.963 75.4298 319.56C75.9311 320.147 76.2351 320.835 76.3418 321.624H73.6698C73.5311 321.006 73.2111 320.531 72.7098 320.2C72.2191 319.859 71.6218 319.688 70.9178 319.688C70.3524 319.688 69.8564 319.8 69.4298 320.024C69.0138 320.238 68.6938 320.552 68.4698 320.968C68.2458 321.374 68.1338 321.87 68.1338 322.456C68.1338 323.032 68.2458 323.528 68.4698 323.944C68.6938 324.35 69.0138 324.664 69.4298 324.888C69.8564 325.102 70.3524 325.208 70.9178 325.208C71.6324 325.208 72.2351 325.032 72.7258 324.68C73.2271 324.328 73.5418 323.864 73.6698 323.288H76.3418ZM78.0092 327L78.5212 322.456L78.0092 317.896H85.0172C85.8918 317.896 86.5852 318.104 87.0972 318.52C87.6092 318.926 87.8652 319.48 87.8652 320.184C87.8652 320.846 87.6092 321.384 87.0972 321.8C86.5852 322.206 85.8705 322.446 84.9532 322.52L85.1452 322.072C86.2118 322.104 87.0225 322.328 87.5772 322.744C88.1425 323.15 88.4252 323.72 88.4252 324.456C88.4252 325.246 88.1372 325.87 87.5612 326.328C86.9958 326.776 86.2172 327 85.2252 327H78.0092ZM80.5852 326.408L79.5612 325.272H84.4092C84.8678 325.272 85.2038 325.182 85.4172 325C85.6305 324.808 85.7372 324.542 85.7372 324.2C85.7372 323.891 85.6198 323.64 85.3852 323.448C85.1505 323.246 84.7665 323.144 84.2332 323.144H80.1052V321.624H83.8812C84.3292 321.624 84.6545 321.534 84.8572 321.352C85.0705 321.171 85.1772 320.926 85.1772 320.616C85.1772 320.328 85.0812 320.094 84.8892 319.912C84.7078 319.731 84.4092 319.64 83.9932 319.64H79.5772L80.5852 318.504L81.0812 322.456L80.5852 326.408ZM90.4319 317.8L91.7599 318.056L93.1039 317.8V327H90.4319V317.8ZM91.7599 316.856C91.2799 316.856 90.8852 316.734 90.5759 316.488C90.2772 316.232 90.1279 315.896 90.1279 315.48C90.1279 315.054 90.2772 314.718 90.5759 314.472C90.8852 314.216 91.2799 314.088 91.7599 314.088C92.2506 314.088 92.6452 314.216 92.9439 314.472C93.2426 314.718 93.3919 315.054 93.3919 315.48C93.3919 315.896 93.2426 316.232 92.9439 316.488C92.6452 316.734 92.2506 316.856 91.7599 316.856ZM107.967 324.984V329.24H105.647V327H97.1354V329.24H94.8154V324.984H97.3594L97.9514 325.032H104.575L105.103 324.984H107.967ZM96.7834 317.896H106.287V326.392H103.615V318.664L104.847 319.896H98.1114L99.1834 318.936C99.2794 319.395 99.3381 319.832 99.3594 320.248C99.3807 320.654 99.3914 321.032 99.3914 321.384C99.3914 322.899 99.1621 324.083 98.7034 324.936C98.2447 325.779 97.5994 326.2 96.7674 326.2L95.6794 325.288C96.5327 324.67 96.9594 323.192 96.9594 320.856C96.9594 320.398 96.9434 319.923 96.9114 319.432C96.8794 318.931 96.8367 318.419 96.7834 317.896ZM111.333 327.144C110.885 327.144 110.511 327 110.213 326.712C109.925 326.424 109.781 326.062 109.781 325.624C109.781 325.187 109.925 324.824 110.213 324.536C110.511 324.248 110.885 324.104 111.333 324.104C111.791 324.104 112.165 324.248 112.453 324.536C112.751 324.824 112.901 325.187 112.901 325.624C112.901 326.062 112.751 326.424 112.453 326.712C112.165 327 111.791 327.144 111.333 327.144ZM111.333 321.48C110.885 321.48 110.511 321.336 110.213 321.048C109.925 320.76 109.781 320.398 109.781 319.96C109.781 319.523 109.925 319.16 110.213 318.872C110.511 318.584 110.885 318.44 111.333 318.44C111.791 318.44 112.165 318.584 112.453 318.872C112.751 319.16 112.901 319.523 112.901 319.96C112.901 320.398 112.751 320.76 112.453 321.048C112.165 321.336 111.791 321.48 111.333 321.48Z" fill="white"/>
<path d="M259.113 318.304C259.113 319.147 258.884 319.894 258.425 320.544L254.761 326H253.497L256.249 321.904C255.961 321.968 255.663 322 255.353 322C254.255 322 253.353 321.659 252.649 320.976C251.945 320.283 251.593 319.392 251.593 318.304C251.593 317.216 251.945 316.331 252.649 315.648C253.353 314.955 254.255 314.608 255.353 314.608C256.452 314.608 257.353 314.955 258.057 315.648C258.761 316.331 259.113 317.216 259.113 318.304ZM253.433 316.416C252.953 316.896 252.713 317.526 252.713 318.304C252.713 319.083 252.953 319.712 253.433 320.192C253.924 320.672 254.564 320.912 255.353 320.912C256.143 320.912 256.777 320.672 257.257 320.192C257.748 319.712 257.993 319.083 257.993 318.304C257.993 317.526 257.748 316.896 257.257 316.416C256.777 315.936 256.143 315.696 255.353 315.696C254.564 315.696 253.924 315.936 253.433 316.416ZM267.758 319.888V320.912H264.91V323.76H263.886V320.912H261.038V319.888H263.886V317.04H264.91V319.888H267.758ZM279.086 317.808C280.228 317.808 281.198 318.214 281.998 319.024C282.809 319.835 283.214 320.827 283.214 322C283.214 323.174 282.809 324.166 281.998 324.976C281.198 325.787 280.228 326.192 279.086 326.192C277.668 326.192 276.59 325.606 275.854 324.432V329.2H274.798V318H275.854V319.568C276.59 318.395 277.668 317.808 279.086 317.808ZM276.766 324.256C277.374 324.864 278.121 325.168 279.006 325.168C279.892 325.168 280.638 324.864 281.246 324.256C281.854 323.638 282.158 322.886 282.158 322C282.158 321.115 281.854 320.368 281.246 319.76C280.638 319.142 279.892 318.832 279.006 318.832C278.121 318.832 277.374 319.142 276.766 319.76C276.158 320.368 275.854 321.115 275.854 322C275.854 322.886 276.158 323.638 276.766 324.256ZM292.154 324.992C291.343 325.792 290.351 326.192 289.178 326.192C288.005 326.192 287.007 325.792 286.186 324.992C285.375 324.182 284.97 323.184 284.97 322C284.97 320.816 285.375 319.824 286.186 319.024C287.007 318.214 288.005 317.808 289.178 317.808C290.351 317.808 291.343 318.214 292.154 319.024C292.975 319.824 293.386 320.816 293.386 322C293.386 323.184 292.975 324.182 292.154 324.992ZM286.938 324.256C287.546 324.864 288.293 325.168 289.178 325.168C290.063 325.168 290.81 324.864 291.418 324.256C292.026 323.638 292.33 322.886 292.33 322C292.33 321.115 292.026 320.368 291.418 319.76C290.81 319.142 290.063 318.832 289.178 318.832C288.293 318.832 287.546 319.142 286.938 319.76C286.33 320.368 286.026 321.115 286.026 322C286.026 322.886 286.33 323.638 286.938 324.256ZM302.097 326H300.689L296.689 322.144V326H295.633V318H296.689V321.536L300.497 318H301.937L297.809 321.84L302.097 326ZM305.092 316.08C304.942 316.23 304.761 316.304 304.548 316.304C304.334 316.304 304.153 316.23 304.004 316.08C303.854 315.931 303.78 315.75 303.78 315.536C303.78 315.323 303.854 315.142 304.004 314.992C304.153 314.843 304.334 314.768 304.548 314.768C304.761 314.768 304.942 314.843 305.092 314.992C305.241 315.142 305.316 315.323 305.316 315.536C305.316 315.75 305.241 315.931 305.092 316.08ZM304.02 326V318H305.076V326H304.02ZM312.884 321.888C313.759 322.208 314.196 322.832 314.196 323.76C314.196 324.411 313.978 324.95 313.54 325.376C313.114 325.792 312.495 326 311.684 326H307.796V318H311.364C312.143 318 312.746 318.203 313.172 318.608C313.599 319.003 313.812 319.515 313.812 320.144C313.812 320.944 313.503 321.526 312.884 321.888ZM311.364 319.024H308.852V321.456H311.364C312.292 321.456 312.756 321.04 312.756 320.208C312.756 319.835 312.634 319.547 312.388 319.344C312.154 319.131 311.812 319.024 311.364 319.024ZM311.684 324.976C312.154 324.976 312.511 324.864 312.756 324.64C313.012 324.416 313.14 324.102 313.14 323.696C313.14 323.323 313.012 323.03 312.756 322.816C312.511 322.592 312.154 322.48 311.684 322.48H308.852V324.976H311.684Z" fill="white"/>
<path d="M39.1613 363L41.2253 359.432H41.2573L46.1213 351H49.0653L42.1053 363H39.1613ZM41.2253 361.256L35.2413 351H38.2333L43.0973 359.368L41.2253 361.256ZM49.9662 353.896H59.3742V363H56.7022V354.696L57.9342 355.912H51.2942L52.4462 354.92C52.4995 355.571 52.5422 356.174 52.5742 356.728C52.6168 357.272 52.6382 357.763 52.6382 358.2C52.6382 359.95 52.3768 361.219 51.8542 362.008C51.3422 362.798 50.5102 363.192 49.3582 363.192C49.0382 363.192 48.7288 363.155 48.4302 363.08C48.1422 363.016 47.8595 362.904 47.5822 362.744V360.808C47.7742 360.883 47.9608 360.942 48.1422 360.984C48.3342 361.016 48.5102 361.032 48.6702 361.032C49.2142 361.032 49.6035 360.787 49.8382 360.296C50.0835 359.795 50.2062 358.974 50.2062 357.832C50.2062 357.32 50.1848 356.734 50.1422 356.072C50.1102 355.411 50.0515 354.686 49.9662 353.896ZM71.6705 363.24C70.5505 363.24 69.5692 363.043 68.7265 362.648C67.8839 362.243 67.2279 361.683 66.7585 360.968C66.2999 360.243 66.0705 359.406 66.0705 358.456C66.0705 357.496 66.2999 356.659 66.7585 355.944C67.2279 355.219 67.8839 354.659 68.7265 354.264C69.5692 353.859 70.5505 353.656 71.6705 353.656C72.7905 353.656 73.7719 353.859 74.6145 354.264C75.4572 354.659 76.1132 355.219 76.5825 355.944C77.0519 356.659 77.2865 357.496 77.2865 358.456C77.2865 359.406 77.0519 360.243 76.5825 360.968C76.1132 361.683 75.4572 362.243 74.6145 362.648C73.7719 363.043 72.7905 363.24 71.6705 363.24ZM61.8625 363V353.896H64.5345V363H61.8625ZM63.3665 359.368V357.368H67.7665V359.368H63.3665ZM71.6705 361.208C72.2785 361.208 72.7959 361.096 73.2225 360.872C73.6599 360.648 73.9959 360.334 74.2305 359.928C74.4652 359.512 74.5825 359.022 74.5825 358.456C74.5825 357.88 74.4652 357.39 74.2305 356.984C73.9959 356.568 73.6599 356.248 73.2225 356.024C72.7959 355.8 72.2785 355.688 71.6705 355.688C71.0732 355.688 70.5559 355.8 70.1185 356.024C69.6812 356.248 69.3452 356.568 69.1105 356.984C68.8759 357.39 68.7585 357.88 68.7585 358.456C68.7585 359.022 68.8759 359.512 69.1105 359.928C69.3452 360.334 69.6812 360.648 70.1185 360.872C70.5559 361.096 71.0732 361.208 71.6705 361.208ZM84.8953 363.24C83.6473 363.24 82.5806 363.006 81.6953 362.536C80.8099 362.056 80.1326 361.368 79.6633 360.472C79.1939 359.576 78.9593 358.494 78.9593 357.224C78.9593 355.336 79.4659 353.848 80.4793 352.76C81.4926 351.672 82.9433 351.048 84.8313 350.888C85.5993 350.824 86.2339 350.771 86.7353 350.728C87.2366 350.686 87.6473 350.643 87.9673 350.6C88.2979 350.547 88.5753 350.494 88.7993 350.44C89.0233 350.376 89.2419 350.307 89.4553 350.232V352.456C89.2313 352.542 88.9433 352.622 88.5913 352.696C88.2499 352.76 87.8126 352.814 87.2793 352.856C86.7566 352.899 86.1113 352.942 85.3433 352.984C83.9459 353.048 82.9059 353.432 82.2233 354.136C81.5406 354.84 81.1993 355.854 81.1993 357.176V357.608L81.1033 357.416C81.3166 356.84 81.6419 356.344 82.0793 355.928C82.5166 355.512 83.0393 355.198 83.6473 354.984C84.2659 354.76 84.9326 354.648 85.6473 354.648C86.5753 354.648 87.3859 354.824 88.0793 355.176C88.7726 355.518 89.3113 356.003 89.6953 356.632C90.0899 357.262 90.2873 357.998 90.2873 358.84C90.2873 359.726 90.0633 360.499 89.6153 361.16C89.1673 361.822 88.5379 362.334 87.7273 362.696C86.9273 363.059 85.9833 363.24 84.8953 363.24ZM84.9593 361.208C85.4926 361.208 85.9566 361.112 86.3513 360.92C86.7459 360.728 87.0499 360.456 87.2633 360.104C87.4766 359.752 87.5833 359.342 87.5833 358.872C87.5833 358.403 87.4766 357.998 87.2633 357.656C87.0499 357.304 86.7459 357.032 86.3513 356.84C85.9566 356.648 85.4926 356.552 84.9593 356.552C84.2233 356.552 83.5726 356.75 83.0073 357.144C82.4419 357.528 82.0153 358.067 81.7273 358.76C81.8979 359.507 82.2713 360.104 82.8473 360.552C83.4339 360.99 84.1379 361.208 84.9593 361.208ZM93.6718 353.896H103.08V363H100.408V354.696L101.64 355.912H94.9998L96.1518 354.92C96.2051 355.571 96.2478 356.174 96.2798 356.728C96.3224 357.272 96.3438 357.763 96.3438 358.2C96.3438 359.95 96.0824 361.219 95.5598 362.008C95.0478 362.798 94.2158 363.192 93.0638 363.192C92.7438 363.192 92.4344 363.155 92.1358 363.08C91.8478 363.016 91.5651 362.904 91.2878 362.744V360.808C91.4798 360.883 91.6664 360.942 91.8478 360.984C92.0398 361.016 92.2158 361.032 92.3758 361.032C92.9198 361.032 93.3091 360.787 93.5438 360.296C93.7891 359.795 93.9118 358.974 93.9118 357.832C93.9118 357.32 93.8904 356.734 93.8478 356.072C93.8158 355.411 93.7571 354.686 93.6718 353.896ZM110.704 363.24C109.627 363.24 108.661 363.043 107.808 362.648C106.965 362.243 106.299 361.678 105.808 360.952C105.328 360.227 105.088 359.384 105.088 358.424C105.088 357.475 105.317 356.643 105.776 355.928C106.245 355.214 106.885 354.659 107.696 354.264C108.507 353.859 109.429 353.656 110.464 353.656C111.52 353.656 112.427 353.891 113.184 354.36C113.941 354.819 114.523 355.47 114.928 356.312C115.344 357.155 115.552 358.147 115.552 359.288H107.232V357.512H114.112L113.072 358.152C113.029 357.619 112.896 357.166 112.672 356.792C112.459 356.419 112.165 356.131 111.792 355.928C111.419 355.726 110.981 355.624 110.48 355.624C109.936 355.624 109.461 355.736 109.056 355.96C108.661 356.174 108.352 356.478 108.128 356.872C107.915 357.256 107.808 357.71 107.808 358.232C107.808 358.862 107.947 359.4 108.224 359.848C108.501 360.296 108.907 360.638 109.44 360.872C109.973 361.107 110.619 361.224 111.376 361.224C112.059 361.224 112.747 361.128 113.44 360.936C114.133 360.734 114.757 360.451 115.312 360.088V361.88C114.715 362.307 114.016 362.643 113.216 362.888C112.427 363.123 111.589 363.24 110.704 363.24ZM117.595 353.896H120.251V363H117.595V353.896ZM125.227 353.896H127.883V363H125.227V353.896ZM119.115 357.352H126.267V359.368H119.115V357.352ZM130.372 363V353.896H132.996V361.592L132.34 361.416L137.828 353.896H141.268V363H138.644V355.16L139.3 355.352L133.716 363H130.372ZM143.758 363V353.896H146.382V361.592L145.726 361.416L151.214 353.896H154.654V363H152.03V355.16L152.686 355.352L147.102 363H143.758ZM149.134 353.064C148.099 353.064 147.267 352.814 146.638 352.312C146.009 351.8 145.619 351.059 145.47 350.088H147.566C147.641 350.547 147.811 350.899 148.078 351.144C148.355 351.379 148.707 351.496 149.134 351.496C149.561 351.496 149.907 351.379 150.174 351.144C150.441 350.899 150.617 350.547 150.702 350.088H152.782C152.643 351.059 152.254 351.8 151.614 352.312C150.985 352.814 150.158 353.064 149.134 353.064ZM169.27 353.896V355.944H163.158L164.39 354.728V363H161.718V353.896H169.27ZM173.54 365.88C172.942 365.88 172.404 365.806 171.924 365.656C171.444 365.507 170.99 365.288 170.564 365V363.08C171.012 363.368 171.438 363.576 171.844 363.704C172.249 363.832 172.697 363.896 173.188 363.896C173.625 363.896 174.014 363.795 174.356 363.592C174.697 363.4 174.98 363.054 175.204 362.552L178.996 353.896H181.828L177.284 363.416C177.006 364.014 176.67 364.494 176.276 364.856C175.881 365.219 175.449 365.48 174.98 365.64C174.521 365.8 174.041 365.88 173.54 365.88ZM174.116 362.424L170.1 353.896H173.044L176.724 362.424H174.116ZM183.381 353.896H186.053V356.792L185.941 357.144V359.336L186.053 359.992V365.64H183.381V353.896ZM185.125 358.456C185.307 357.486 185.621 356.643 186.069 355.928C186.528 355.203 187.099 354.643 187.781 354.248C188.475 353.854 189.243 353.656 190.085 353.656C190.981 353.656 191.765 353.859 192.437 354.264C193.12 354.659 193.653 355.219 194.037 355.944C194.421 356.659 194.613 357.496 194.613 358.456C194.613 359.406 194.421 360.243 194.037 360.968C193.653 361.683 193.12 362.243 192.437 362.648C191.765 363.043 190.981 363.24 190.085 363.24C189.232 363.24 188.464 363.043 187.781 362.648C187.109 362.254 186.544 361.699 186.085 360.984C185.627 360.259 185.307 359.416 185.125 358.456ZM191.909 358.456C191.909 357.923 191.797 357.454 191.573 357.048C191.36 356.632 191.061 356.312 190.677 356.088C190.293 355.854 189.851 355.736 189.349 355.736C188.848 355.736 188.373 355.854 187.925 356.088C187.477 356.312 187.083 356.632 186.741 357.048C186.411 357.454 186.149 357.923 185.957 358.456C186.149 358.99 186.411 359.459 186.741 359.864C187.083 360.27 187.477 360.59 187.925 360.824C188.373 361.048 188.848 361.16 189.349 361.16C189.851 361.16 190.293 361.048 190.677 360.824C191.061 360.59 191.36 360.27 191.573 359.864C191.797 359.459 191.909 358.99 191.909 358.456ZM199.162 354.824H201.834V363H199.162V354.824ZM195.546 353.896H205.45V355.944H195.546V353.896ZM208.626 363.144C208.178 363.144 207.804 363 207.506 362.712C207.218 362.424 207.074 362.062 207.074 361.624C207.074 361.187 207.218 360.824 207.506 360.536C207.804 360.248 208.178 360.104 208.626 360.104C209.084 360.104 209.458 360.248 209.746 360.536C210.044 360.824 210.194 361.187 210.194 361.624C210.194 362.062 210.044 362.424 209.746 362.712C209.458 363 209.084 363.144 208.626 363.144ZM208.626 357.48C208.178 357.48 207.804 357.336 207.506 357.048C207.218 356.76 207.074 356.398 207.074 355.96C207.074 355.523 207.218 355.16 207.506 354.872C207.804 354.584 208.178 354.44 208.626 354.44C209.084 354.44 209.458 354.584 209.746 354.872C210.044 355.16 210.194 355.523 210.194 355.96C210.194 356.398 210.044 356.76 209.746 357.048C209.458 357.336 209.084 357.48 208.626 357.48Z" fill="white"/>
<path d="M259.433 350.8V351.856H255.993V362H254.873V351.856H251.433V350.8H259.433ZM265.098 353.808C266.069 353.808 266.831 354.107 267.386 354.704C267.951 355.291 268.234 356.086 268.234 357.088V362H267.178V357.088C267.178 356.374 266.986 355.819 266.602 355.424C266.229 355.03 265.695 354.832 265.002 354.832C264.234 354.832 263.61 355.078 263.13 355.568C262.65 356.048 262.41 356.795 262.41 357.808V362H261.354V350.8H262.41V355.248C263.007 354.288 263.903 353.808 265.098 353.808ZM274.452 353.808C275.636 353.808 276.59 354.23 277.316 355.072C278.052 355.904 278.42 356.891 278.42 358.032C278.42 358.15 278.409 358.315 278.388 358.528H271.364C271.47 359.339 271.812 359.984 272.388 360.464C272.974 360.934 273.694 361.168 274.548 361.168C275.156 361.168 275.678 361.046 276.116 360.8C276.564 360.544 276.9 360.214 277.124 359.808L278.052 360.352C277.7 360.918 277.22 361.366 276.612 361.696C276.004 362.027 275.31 362.192 274.532 362.192C273.273 362.192 272.249 361.798 271.46 361.008C270.67 360.219 270.276 359.216 270.276 358C270.276 356.806 270.665 355.808 271.444 355.008C272.222 354.208 273.225 353.808 274.452 353.808ZM274.452 354.832C273.62 354.832 272.921 355.083 272.356 355.584C271.801 356.075 271.47 356.715 271.364 357.504H277.332C277.225 356.662 276.9 356.006 276.356 355.536C275.812 355.067 275.177 354.832 274.452 354.832ZM290.452 362.192C288.756 362.192 287.353 361.632 286.244 360.512C285.134 359.392 284.58 358.022 284.58 356.4C284.58 354.779 285.134 353.408 286.244 352.288C287.353 351.168 288.756 350.608 290.452 350.608C291.486 350.608 292.436 350.859 293.3 351.36C294.164 351.851 294.83 352.518 295.3 353.36L294.308 353.936C293.956 353.254 293.433 352.71 292.74 352.304C292.046 351.899 291.284 351.696 290.452 351.696C289.054 351.696 287.913 352.15 287.028 353.056C286.142 353.963 285.7 355.078 285.7 356.4C285.7 357.723 286.142 358.838 287.028 359.744C287.913 360.651 289.054 361.104 290.452 361.104C291.284 361.104 292.046 360.902 292.74 360.496C293.433 360.091 293.956 359.547 294.308 358.864L295.3 359.424C294.841 360.267 294.174 360.939 293.3 361.44C292.436 361.942 291.486 362.192 290.452 362.192ZM303.093 354H304.149V362H303.093V360.752C302.496 361.712 301.6 362.192 300.405 362.192C299.435 362.192 298.667 361.899 298.101 361.312C297.547 360.715 297.269 359.915 297.269 358.912V354H298.325V358.912C298.325 359.627 298.512 360.182 298.885 360.576C299.269 360.971 299.808 361.168 300.501 361.168C301.269 361.168 301.893 360.928 302.373 360.448C302.853 359.958 303.093 359.206 303.093 358.192V354ZM307.919 355.328C308.41 354.358 309.253 353.872 310.447 353.872V354.896C309.722 354.896 309.119 355.11 308.639 355.536C308.159 355.963 307.919 356.635 307.919 357.552V362H306.863V354H307.919V355.328ZM315.586 353.808C316.77 353.808 317.725 354.23 318.45 355.072C319.186 355.904 319.554 356.891 319.554 358.032C319.554 358.15 319.543 358.315 319.522 358.528H312.498C312.605 359.339 312.946 359.984 313.522 360.464C314.109 360.934 314.829 361.168 315.682 361.168C316.29 361.168 316.813 361.046 317.25 360.8C317.698 360.544 318.034 360.214 318.258 359.808L319.186 360.352C318.834 360.918 318.354 361.366 317.746 361.696C317.138 362.027 316.445 362.192 315.666 362.192C314.407 362.192 313.383 361.798 312.594 361.008C311.805 360.219 311.41 359.216 311.41 358C311.41 356.806 311.799 355.808 312.578 355.008C313.357 354.208 314.359 353.808 315.586 353.808ZM315.586 354.832C314.754 354.832 314.055 355.083 313.49 355.584C312.935 356.075 312.605 356.715 312.498 357.504H318.466C318.359 356.662 318.034 356.006 317.49 355.536C316.946 355.067 316.311 354.832 315.586 354.832Z" fill="white"/>
</svg>
