<svg width="450" height="545" viewBox="0 0 450 545" fill="none" xmlns="http://www.w3.org/2000/svg">
<path d="M1.73363 338.06L33.5388 499.781C38.5631 525.329 62.3524 542.745 88.224 539.815L398.043 504.738C426.354 501.533 446.268 475.353 441.799 447.214L398.137 172.26C397.725 169.667 397.519 167.045 397.519 164.419V69.7912C397.519 41.2832 373.72 18.5449 345.242 19.8431L237.968 24.7334C234.912 24.8727 231.85 24.7313 228.82 24.3109L101.973 6.71165C75.0741 2.97965 50.1143 21.4 45.7509 48.2035L1.4435 320.378C0.488811 326.242 0.587057 332.23 1.73363 338.06Z" fill="#C0B7EE"/>
<path d="M36.232 175V163H38.936V172.792L38.168 172.248L45.592 163H48.488L38.68 175H36.232ZM41.96 169.128L43.912 167.384L48.664 175H45.56L41.96 169.128ZM50.0974 165.8L51.4254 166.056L52.7694 165.8V175H50.0974V165.8ZM51.4254 164.856C50.9454 164.856 50.5507 164.733 50.2414 164.488C49.9427 164.232 49.7934 163.896 49.7934 163.48C49.7934 163.053 49.9427 162.717 50.2414 162.472C50.5507 162.216 50.9454 162.088 51.4254 162.088C51.916 162.088 52.3107 162.216 52.6094 162.472C52.908 162.717 53.0574 163.053 53.0574 163.48C53.0574 163.896 52.908 164.232 52.6094 164.488C52.3107 164.733 51.916 164.856 51.4254 164.856ZM56.8329 165.896H66.2409V175H63.5689V166.696L64.8009 167.912H58.1609L59.3129 166.92C59.3662 167.571 59.4089 168.173 59.4409 168.728C59.4835 169.272 59.5049 169.763 59.5049 170.2C59.5049 171.949 59.2435 173.219 58.7209 174.008C58.2089 174.797 57.3769 175.192 56.2249 175.192C55.9049 175.192 55.5955 175.155 55.2969 175.08C55.0089 175.016 54.7262 174.904 54.4489 174.744V172.808C54.6409 172.883 54.8275 172.941 55.0089 172.984C55.2009 173.016 55.3769 173.032 55.5369 173.032C56.0809 173.032 56.4702 172.787 56.7049 172.296C56.9502 171.795 57.0729 170.973 57.0729 169.832C57.0729 169.32 57.0515 168.733 57.0089 168.072C56.9769 167.411 56.9182 166.685 56.8329 165.896ZM68.7292 175V165.896H71.3852V174.312L70.5212 173.08H74.0732C74.5639 173.08 74.9426 172.963 75.2092 172.728C75.4759 172.483 75.6092 172.152 75.6092 171.736C75.6092 171.299 75.4759 170.963 75.2092 170.728C74.9426 170.483 74.5639 170.36 74.0732 170.36H70.5372V168.52H74.4732C75.2519 168.52 75.9239 168.659 76.4892 168.936C77.0652 169.203 77.5132 169.581 77.8332 170.072C78.1532 170.552 78.3132 171.117 78.3132 171.768C78.3132 172.408 78.1532 172.973 77.8332 173.464C77.5132 173.955 77.0706 174.333 76.5052 174.6C75.9399 174.867 75.2732 175 74.5052 175H68.7292ZM80.0999 175V165.896H82.7719V172.84L81.9879 172.568L87.4119 165.896H90.3239L82.4999 175H80.0999ZM87.5399 175L84.8199 170.536L86.7879 169.016L90.5959 175H87.5399ZM91.9861 165.8L93.3141 166.056L94.6581 165.8V175H91.9861V165.8ZM93.3141 164.856C92.8341 164.856 92.4395 164.733 92.1301 164.488C91.8315 164.232 91.6821 163.896 91.6821 163.48C91.6821 163.053 91.8315 162.717 92.1301 162.472C92.4395 162.216 92.8341 162.088 93.3141 162.088C93.8048 162.088 94.1995 162.216 94.4981 162.472C94.7968 162.717 94.9461 163.053 94.9461 163.48C94.9461 163.896 94.7968 164.232 94.4981 164.488C94.1995 164.733 93.8048 164.856 93.3141 164.856ZM107.602 171.288C107.495 172.067 107.191 172.755 106.69 173.352C106.199 173.949 105.564 174.413 104.786 174.744C104.007 175.075 103.138 175.24 102.178 175.24C101.09 175.24 100.13 175.043 99.2976 174.648C98.4763 174.243 97.831 173.677 97.3616 172.952C96.903 172.227 96.6736 171.395 96.6736 170.456C96.6736 169.507 96.903 168.675 97.3616 167.96C97.831 167.235 98.4763 166.669 99.2976 166.264C100.13 165.859 101.09 165.656 102.178 165.656C103.138 165.656 104.007 165.827 104.786 166.168C105.564 166.499 106.199 166.963 106.69 167.56C107.191 168.147 107.495 168.835 107.602 169.624H104.93C104.791 169.005 104.471 168.531 103.97 168.2C103.479 167.859 102.882 167.688 102.178 167.688C101.612 167.688 101.116 167.8 100.69 168.024C100.274 168.237 99.9536 168.552 99.7296 168.968C99.5056 169.373 99.3936 169.869 99.3936 170.456C99.3936 171.032 99.5056 171.528 99.7296 171.944C99.9536 172.349 100.274 172.664 100.69 172.888C101.116 173.101 101.612 173.208 102.178 173.208C102.892 173.208 103.495 173.032 103.986 172.68C104.487 172.328 104.802 171.864 104.93 171.288H107.602ZM112.013 166.824H114.685V175H112.013V166.824ZM108.397 165.896H118.301V167.944H108.397V165.896ZM120.004 175V165.896H122.66V174.312L121.796 173.08H125.348C125.839 173.08 126.218 172.963 126.484 172.728C126.751 172.483 126.884 172.152 126.884 171.736C126.884 171.299 126.751 170.963 126.484 170.728C126.218 170.483 125.839 170.36 125.348 170.36H121.812V168.52H125.748C126.527 168.52 127.199 168.659 127.764 168.936C128.34 169.203 128.788 169.581 129.108 170.072C129.428 170.552 129.588 171.117 129.588 171.768C129.588 172.408 129.428 172.973 129.108 173.464C128.788 173.955 128.346 174.333 127.78 174.6C127.215 174.867 126.548 175 125.78 175H120.004ZM36.008 185.896H38.68V188.792L38.568 189.144V191.336L38.68 191.992V197.64H36.008V185.896ZM37.752 190.456C37.9333 189.485 38.248 188.643 38.696 187.928C39.1547 187.203 39.7253 186.643 40.408 186.248C41.1013 185.853 41.8693 185.656 42.712 185.656C43.608 185.656 44.392 185.859 45.064 186.264C45.7467 186.659 46.28 187.219 46.664 187.944C47.048 188.659 47.24 189.496 47.24 190.456C47.24 191.405 47.048 192.243 46.664 192.968C46.28 193.683 45.7467 194.243 45.064 194.648C44.392 195.043 43.608 195.24 42.712 195.24C41.8587 195.24 41.0907 195.043 40.408 194.648C39.736 194.253 39.1707 193.699 38.712 192.984C38.2533 192.259 37.9333 191.416 37.752 190.456ZM44.536 190.456C44.536 189.923 44.424 189.453 44.2 189.048C43.9867 188.632 43.688 188.312 43.304 188.088C42.92 187.853 42.4773 187.736 41.976 187.736C41.4747 187.736 41 187.853 40.552 188.088C40.104 188.312 39.7093 188.632 39.368 189.048C39.0373 189.453 38.776 189.923 38.584 190.456C38.776 190.989 39.0373 191.459 39.368 191.864C39.7093 192.269 40.104 192.589 40.552 192.824C41 193.048 41.4747 193.16 41.976 193.16C42.4773 193.16 42.92 193.048 43.304 192.824C43.688 192.589 43.9867 192.269 44.2 191.864C44.424 191.459 44.536 190.989 44.536 190.456ZM54.4209 195.24C53.3435 195.24 52.3782 195.043 51.5249 194.648C50.6822 194.243 50.0155 193.677 49.5249 192.952C49.0449 192.227 48.8049 191.384 48.8049 190.424C48.8049 189.475 49.0342 188.643 49.4929 187.928C49.9622 187.213 50.6022 186.659 51.4129 186.264C52.2235 185.859 53.1462 185.656 54.1809 185.656C55.2369 185.656 56.1435 185.891 56.9009 186.36C57.6582 186.819 58.2395 187.469 58.6449 188.312C59.0609 189.155 59.2689 190.147 59.2689 191.288H50.9489V189.512H57.8289L56.7889 190.152C56.7462 189.619 56.6129 189.165 56.3889 188.792C56.1755 188.419 55.8822 188.131 55.5089 187.928C55.1355 187.725 54.6982 187.624 54.1969 187.624C53.6529 187.624 53.1782 187.736 52.7729 187.96C52.3782 188.173 52.0689 188.477 51.8449 188.872C51.6315 189.256 51.5249 189.709 51.5249 190.232C51.5249 190.861 51.6635 191.4 51.9409 191.848C52.2182 192.296 52.6235 192.637 53.1569 192.872C53.6902 193.107 54.3355 193.224 55.0929 193.224C55.7755 193.224 56.4635 193.128 57.1569 192.936C57.8502 192.733 58.4742 192.451 59.0289 192.088V193.88C58.4315 194.307 57.7329 194.643 56.9329 194.888C56.1435 195.123 55.3062 195.24 54.4209 195.24ZM69.6477 195L69.2637 191.672L69.6957 190.456L69.2637 189.256L69.6477 185.896H72.4157L71.8877 190.456L72.4157 195H69.6477ZM70.3517 190.456C70.1811 191.416 69.8664 192.259 69.4077 192.984C68.9597 193.699 68.3891 194.253 67.6957 194.648C67.0131 195.043 66.2451 195.24 65.3917 195.24C64.5064 195.24 63.7224 195.043 63.0397 194.648C62.3571 194.243 61.8237 193.683 61.4397 192.968C61.0664 192.243 60.8797 191.405 60.8797 190.456C60.8797 189.496 61.0664 188.659 61.4397 187.944C61.8237 187.219 62.3571 186.659 63.0397 186.264C63.7224 185.859 64.5064 185.656 65.3917 185.656C66.2451 185.656 67.0131 185.853 67.6957 186.248C68.3891 186.643 68.9651 187.203 69.4237 187.928C69.8824 188.643 70.1917 189.485 70.3517 190.456ZM63.5837 190.456C63.5837 190.989 63.6904 191.459 63.9037 191.864C64.1277 192.269 64.4317 192.589 64.8157 192.824C65.1997 193.048 65.6424 193.16 66.1437 193.16C66.6451 193.16 67.1144 193.048 67.5517 192.824C67.9997 192.589 68.3944 192.269 68.7357 191.864C69.0771 191.459 69.3437 190.989 69.5357 190.456C69.3437 189.923 69.0771 189.453 68.7357 189.048C68.3944 188.632 67.9997 188.312 67.5517 188.088C67.1144 187.853 66.6451 187.736 66.1437 187.736C65.6424 187.736 65.1997 187.853 64.8157 188.088C64.4317 188.312 64.1277 188.632 63.9037 189.048C63.6904 189.453 63.5837 189.923 63.5837 190.456ZM76.2504 185.896H85.6584V195H82.9864V186.696L84.2184 187.912H77.5784L78.7304 186.92C78.7837 187.571 78.8264 188.173 78.8584 188.728C78.901 189.272 78.9224 189.763 78.9224 190.2C78.9224 191.949 78.661 193.219 78.1384 194.008C77.6264 194.797 76.7944 195.192 75.6424 195.192C75.3224 195.192 75.013 195.155 74.7144 195.08C74.4264 195.016 74.1437 194.904 73.8664 194.744V192.808C74.0584 192.883 74.245 192.941 74.4264 192.984C74.6184 193.016 74.7944 193.032 74.9544 193.032C75.4984 193.032 75.8877 192.787 76.1224 192.296C76.3677 191.795 76.4904 190.973 76.4904 189.832C76.4904 189.32 76.469 188.733 76.4264 188.072C76.3944 187.411 76.3357 186.685 76.2504 185.896ZM88.1467 185.8L89.4747 186.056L90.8187 185.8V195H88.1467V185.8ZM89.4747 184.856C88.9947 184.856 88.6001 184.733 88.2907 184.488C87.9921 184.232 87.8427 183.896 87.8427 183.48C87.8427 183.053 87.9921 182.717 88.2907 182.472C88.6001 182.216 88.9947 182.088 89.4747 182.088C89.9654 182.088 90.3601 182.216 90.6587 182.472C90.9574 182.717 91.1067 183.053 91.1067 183.48C91.1067 183.896 90.9574 184.232 90.6587 184.488C90.3601 184.733 89.9654 184.856 89.4747 184.856ZM97.8103 195.24C96.7969 195.24 95.9116 195.112 95.1543 194.856C94.3969 194.589 93.8049 194.211 93.3783 193.72C92.9516 193.219 92.7169 192.632 92.6743 191.96H95.2663C95.3409 192.408 95.5969 192.749 96.0343 192.984C96.4716 193.219 97.0636 193.336 97.8103 193.336C98.5249 193.336 99.0796 193.245 99.4743 193.064C99.8796 192.872 100.082 192.579 100.082 192.184C100.082 191.864 99.9116 191.629 99.5703 191.48C99.2396 191.32 98.7063 191.24 97.9703 191.24H96.2743V189.64H97.9223C98.5836 189.64 99.0689 189.544 99.3783 189.352C99.6983 189.16 99.8583 188.92 99.8583 188.632C99.8583 188.28 99.6716 188.013 99.2983 187.832C98.9356 187.651 98.4449 187.56 97.8263 187.56C97.1436 187.56 96.5943 187.667 96.1783 187.88C95.7623 188.093 95.5169 188.413 95.4423 188.84H92.8663C92.9089 188.253 93.1329 187.72 93.5383 187.24C93.9436 186.76 94.5143 186.376 95.2503 186.088C95.9969 185.8 96.8929 185.656 97.9383 185.656C98.8663 185.656 99.6769 185.768 100.37 185.992C101.064 186.216 101.602 186.525 101.986 186.92C102.37 187.315 102.562 187.768 102.562 188.28C102.562 188.685 102.434 189.059 102.178 189.4C101.933 189.741 101.533 190.013 100.978 190.216C100.434 190.419 99.7196 190.52 98.8343 190.52V190.248C100.104 190.195 101.08 190.349 101.762 190.712C102.456 191.075 102.802 191.629 102.802 192.376C102.802 192.92 102.605 193.411 102.21 193.848C101.826 194.285 101.261 194.627 100.514 194.872C99.7676 195.117 98.8663 195.24 97.8103 195.24ZM110.073 195.24C108.942 195.24 107.95 195.043 107.097 194.648C106.243 194.243 105.577 193.683 105.097 192.968C104.617 192.243 104.377 191.405 104.377 190.456C104.377 189.496 104.617 188.659 105.097 187.944C105.577 187.219 106.243 186.659 107.097 186.264C107.95 185.859 108.942 185.656 110.073 185.656C111.203 185.656 112.195 185.859 113.049 186.264C113.902 186.659 114.563 187.219 115.033 187.944C115.513 188.659 115.753 189.496 115.753 190.456C115.753 191.405 115.513 192.243 115.033 192.968C114.563 193.683 113.902 194.243 113.049 194.648C112.195 195.043 111.203 195.24 110.073 195.24ZM110.073 193.208C110.691 193.208 111.219 193.096 111.657 192.872C112.105 192.648 112.446 192.333 112.681 191.928C112.926 191.512 113.049 191.021 113.049 190.456C113.049 189.88 112.926 189.389 112.681 188.984C112.446 188.568 112.105 188.248 111.657 188.024C111.219 187.8 110.691 187.688 110.073 187.688C109.465 187.688 108.937 187.8 108.489 188.024C108.041 188.248 107.694 188.568 107.449 188.984C107.214 189.389 107.097 189.88 107.097 190.456C107.097 191.021 107.214 191.512 107.449 191.928C107.694 192.333 108.041 192.648 108.489 192.872C108.937 193.096 109.465 193.208 110.073 193.208ZM117.535 195L118.047 190.456L117.535 185.896H124.543C125.417 185.896 126.111 186.104 126.623 186.52C127.135 186.925 127.391 187.48 127.391 188.184C127.391 188.845 127.135 189.384 126.623 189.8C126.111 190.205 125.396 190.445 124.479 190.52L124.671 190.072C125.737 190.104 126.548 190.328 127.103 190.744C127.668 191.149 127.951 191.72 127.951 192.456C127.951 193.245 127.663 193.869 127.087 194.328C126.521 194.776 125.743 195 124.751 195H117.535ZM120.111 194.408L119.087 193.272H123.935C124.393 193.272 124.729 193.181 124.943 193C125.156 192.808 125.263 192.541 125.263 192.2C125.263 191.891 125.145 191.64 124.911 191.448C124.676 191.245 124.292 191.144 123.759 191.144H119.631V189.624H123.407C123.855 189.624 124.18 189.533 124.383 189.352C124.596 189.171 124.703 188.925 124.703 188.616C124.703 188.328 124.607 188.093 124.415 187.912C124.233 187.731 123.935 187.64 123.519 187.64H119.103L120.111 186.504L120.607 190.456L120.111 194.408ZM138.293 195L137.909 191.672L138.341 190.456L137.909 189.256L138.293 185.896H141.061L140.533 190.456L141.061 195H138.293ZM138.997 190.456C138.827 191.416 138.512 192.259 138.053 192.984C137.605 193.699 137.035 194.253 136.341 194.648C135.659 195.043 134.891 195.24 134.037 195.24C133.152 195.24 132.368 195.043 131.685 194.648C131.003 194.243 130.469 193.683 130.085 192.968C129.712 192.243 129.525 191.405 129.525 190.456C129.525 189.496 129.712 188.659 130.085 187.944C130.469 187.219 131.003 186.659 131.685 186.264C132.368 185.859 133.152 185.656 134.037 185.656C134.891 185.656 135.659 185.853 136.341 186.248C137.035 186.643 137.611 187.203 138.069 187.928C138.528 188.643 138.837 189.485 138.997 190.456ZM132.229 190.456C132.229 190.989 132.336 191.459 132.549 191.864C132.773 192.269 133.077 192.589 133.461 192.824C133.845 193.048 134.288 193.16 134.789 193.16C135.291 193.16 135.76 193.048 136.197 192.824C136.645 192.589 137.04 192.269 137.381 191.864C137.723 191.459 137.989 190.989 138.181 190.456C137.989 189.923 137.723 189.453 137.381 189.048C137.04 188.632 136.645 188.312 136.197 188.088C135.76 187.853 135.291 187.736 134.789 187.736C134.288 187.736 133.845 187.853 133.461 188.088C133.077 188.312 132.773 188.632 132.549 189.048C132.336 189.453 132.229 189.923 132.229 190.456ZM143.328 185.896H145.984V195H143.328V185.896ZM150.96 185.896H153.616V195H150.96V185.896ZM144.848 189.352H152V191.368H144.848V189.352ZM156.105 195V185.896H158.729V193.592L158.073 193.416L163.561 185.896H167.001V195H164.377V187.16L165.033 187.352L159.449 195H156.105ZM168.339 195L172.643 189.848L172.627 190.84L168.595 185.896H171.587L174.435 189.32H173.507L176.371 185.896H179.315L175.155 190.888L175.027 189.64L179.555 195H176.515L173.411 191.32H174.387L171.315 195H168.339ZM46.232 205.896V215H43.56V206.696L44.792 207.912H37.448L38.68 206.696V215H36.008V205.896H46.232ZM48.7224 205.896H51.3944V208.792L51.2824 209.144V211.336L51.3944 211.992V217.64H48.7224V205.896ZM50.4664 210.456C50.6477 209.485 50.9624 208.643 51.4104 207.928C51.869 207.203 52.4397 206.643 53.1224 206.248C53.8157 205.853 54.5837 205.656 55.4264 205.656C56.3224 205.656 57.1064 205.859 57.7784 206.264C58.461 206.659 58.9944 207.219 59.3784 207.944C59.7624 208.659 59.9544 209.496 59.9544 210.456C59.9544 211.405 59.7624 212.243 59.3784 212.968C58.9944 213.683 58.461 214.243 57.7784 214.648C57.1064 215.043 56.3224 215.24 55.4264 215.24C54.573 215.24 53.805 215.043 53.1224 214.648C52.4504 214.253 51.885 213.699 51.4264 212.984C50.9677 212.259 50.6477 211.416 50.4664 210.456ZM57.2504 210.456C57.2504 209.923 57.1384 209.453 56.9144 209.048C56.701 208.632 56.4024 208.312 56.0184 208.088C55.6344 207.853 55.1917 207.736 54.6904 207.736C54.189 207.736 53.7144 207.853 53.2664 208.088C52.8184 208.312 52.4237 208.632 52.0824 209.048C51.7517 209.453 51.4904 209.923 51.2984 210.456C51.4904 210.989 51.7517 211.459 52.0824 211.864C52.4237 212.269 52.8184 212.589 53.2664 212.824C53.7144 213.048 54.189 213.16 54.6904 213.16C55.1917 213.16 55.6344 213.048 56.0184 212.824C56.4024 212.589 56.701 212.269 56.9144 211.864C57.1384 211.459 57.2504 210.989 57.2504 210.456ZM67.2152 215.24C66.0846 215.24 65.0926 215.043 64.2392 214.648C63.3859 214.243 62.7192 213.683 62.2392 212.968C61.7592 212.243 61.5192 211.405 61.5192 210.456C61.5192 209.496 61.7592 208.659 62.2392 207.944C62.7192 207.219 63.3859 206.659 64.2392 206.264C65.0926 205.859 66.0846 205.656 67.2152 205.656C68.3459 205.656 69.3379 205.859 70.1912 206.264C71.0446 206.659 71.7059 207.219 72.1753 207.944C72.6552 208.659 72.8952 209.496 72.8952 210.456C72.8952 211.405 72.6552 212.243 72.1753 212.968C71.7059 213.683 71.0446 214.243 70.1912 214.648C69.3379 215.043 68.3459 215.24 67.2152 215.24ZM67.2152 213.208C67.8339 213.208 68.3619 213.096 68.7992 212.872C69.2472 212.648 69.5886 212.333 69.8232 211.928C70.0686 211.512 70.1912 211.021 70.1912 210.456C70.1912 209.88 70.0686 209.389 69.8232 208.984C69.5886 208.568 69.2472 208.248 68.7992 208.024C68.3619 207.8 67.8339 207.688 67.2152 207.688C66.6072 207.688 66.0792 207.8 65.6312 208.024C65.1832 208.248 64.8366 208.568 64.5912 208.984C64.3566 209.389 64.2392 209.88 64.2392 210.456C64.2392 211.021 64.3566 211.512 64.5912 211.928C64.8366 212.333 65.1832 212.648 65.6312 212.872C66.0792 213.096 66.6072 213.208 67.2152 213.208ZM79.9884 215.24C78.9004 215.24 77.935 215.043 77.0924 214.648C76.2604 214.243 75.6097 213.677 75.1404 212.952C74.6817 212.227 74.4524 211.395 74.4524 210.456C74.4524 209.507 74.6817 208.675 75.1404 207.96C75.6097 207.235 76.2604 206.669 77.0924 206.264C77.935 205.859 78.9004 205.656 79.9884 205.656C80.9484 205.656 81.8124 205.816 82.5804 206.136C83.3484 206.456 83.9777 206.899 84.4684 207.464C84.9697 208.019 85.2844 208.669 85.4124 209.416H82.8044C82.6444 208.872 82.3084 208.429 81.7964 208.088C81.2844 207.736 80.6817 207.56 79.9884 207.56C79.391 207.56 78.8737 207.677 78.4364 207.912C77.999 208.136 77.6577 208.467 77.4124 208.904C77.1777 209.331 77.0604 209.848 77.0604 210.456C77.0604 211.053 77.1777 211.571 77.4124 212.008C77.6577 212.435 77.999 212.765 78.4364 213C78.8737 213.224 79.391 213.336 79.9884 213.336C80.6817 213.336 81.2844 213.165 81.7964 212.824C82.3084 212.483 82.6444 212.035 82.8044 211.48H85.4124C85.2844 212.227 84.9697 212.883 84.4684 213.448C83.9777 214.003 83.3484 214.44 82.5804 214.76C81.8124 215.08 80.9484 215.24 79.9884 215.24ZM75.8444 211.272V209.624H81.3484V211.272H75.8444ZM87.3186 215V205.896H89.9906V212.84L89.2066 212.568L94.6306 205.896H97.5426L89.7186 215H87.3186ZM94.7586 215L92.0386 210.536L94.0066 209.016L97.8146 215H94.7586ZM102.037 206.824H104.709V215H102.037V206.824ZM98.4209 205.896H108.325V207.944H98.4209V205.896ZM110.029 205.8L111.357 206.056L112.701 205.8V215H110.029V205.8ZM111.357 204.856C110.877 204.856 110.482 204.733 110.173 204.488C109.874 204.232 109.725 203.896 109.725 203.48C109.725 203.053 109.874 202.717 110.173 202.472C110.482 202.216 110.877 202.088 111.357 202.088C111.847 202.088 112.242 202.216 112.541 202.472C112.839 202.717 112.989 203.053 112.989 203.48C112.989 203.896 112.839 204.232 112.541 204.488C112.242 204.733 111.847 204.856 111.357 204.856ZM114.972 215L115.484 210.456L114.972 205.896H121.98C122.855 205.896 123.548 206.104 124.06 206.52C124.572 206.925 124.828 207.48 124.828 208.184C124.828 208.845 124.572 209.384 124.06 209.8C123.548 210.205 122.833 210.445 121.916 210.52L122.108 210.072C123.175 210.104 123.985 210.328 124.54 210.744C125.105 211.149 125.388 211.72 125.388 212.456C125.388 213.245 125.1 213.869 124.524 214.328C123.959 214.776 123.18 215 122.188 215H114.972ZM117.548 214.408L116.524 213.272H121.372C121.831 213.272 122.167 213.181 122.38 213C122.593 212.808 122.7 212.541 122.7 212.2C122.7 211.891 122.583 211.64 122.348 211.448C122.113 211.245 121.729 211.144 121.196 211.144H117.068V209.624H120.844C121.292 209.624 121.617 209.533 121.82 209.352C122.033 209.171 122.14 208.925 122.14 208.616C122.14 208.328 122.044 208.093 121.852 207.912C121.671 207.731 121.372 207.64 120.956 207.64H116.54L117.548 206.504L118.044 210.456L117.548 214.408ZM35.784 235L36.296 230.456L35.784 225.896H42.792C43.6667 225.896 44.36 226.104 44.872 226.52C45.384 226.925 45.64 227.48 45.64 228.184C45.64 228.845 45.384 229.384 44.872 229.8C44.36 230.205 43.6453 230.445 42.728 230.52L42.92 230.072C43.9867 230.104 44.7973 230.328 45.352 230.744C45.9173 231.149 46.2 231.72 46.2 232.456C46.2 233.245 45.912 233.869 45.336 234.328C44.7707 234.776 43.992 235 43 235H35.784ZM38.36 234.408L37.336 233.272H42.184C42.6427 233.272 42.9787 233.181 43.192 233C43.4053 232.808 43.512 232.541 43.512 232.2C43.512 231.891 43.3947 231.64 43.16 231.448C42.9253 231.245 42.5413 231.144 42.008 231.144H37.88V229.624H41.656C42.104 229.624 42.4293 229.533 42.632 229.352C42.8453 229.171 42.952 228.925 42.952 228.616C42.952 228.328 42.856 228.093 42.664 227.912C42.4827 227.731 42.184 227.64 41.768 227.64H37.352L38.36 226.504L38.856 230.456L38.36 234.408ZM52.3645 231.08H55.1165C55.1805 231.485 55.3565 231.843 55.6445 232.152C55.9432 232.451 56.3378 232.685 56.8285 232.856C57.3298 233.016 57.9058 233.096 58.5565 233.096C59.5058 233.096 60.2525 232.963 60.7965 232.696C61.3512 232.419 61.6285 232.035 61.6285 231.544C61.6285 231.16 61.4685 230.867 61.1485 230.664C60.8392 230.451 60.2578 230.296 59.4045 230.2L56.9885 229.928C55.4312 229.757 54.3005 229.395 53.5965 228.84C52.9032 228.275 52.5565 227.491 52.5565 226.488C52.5565 225.699 52.7858 225.027 53.2445 224.472C53.7138 223.917 54.3698 223.496 55.2125 223.208C56.0552 222.909 57.0472 222.76 58.1885 222.76C59.2978 222.76 60.2845 222.925 61.1485 223.256C62.0125 223.576 62.7005 224.029 63.2125 224.616C63.7245 225.192 64.0018 225.869 64.0445 226.648H61.2925C61.2392 226.296 61.0792 225.992 60.8125 225.736C60.5565 225.469 60.1992 225.267 59.7405 225.128C59.2818 224.979 58.7432 224.904 58.1245 224.904C57.2605 224.904 56.5725 225.032 56.0605 225.288C55.5485 225.544 55.2925 225.907 55.2925 226.376C55.2925 226.739 55.4418 227.021 55.7405 227.224C56.0498 227.416 56.5885 227.56 57.3565 227.656L59.8685 227.96C60.9778 228.077 61.8578 228.269 62.5085 228.536C63.1698 228.792 63.6392 229.139 63.9165 229.576C64.2045 230.013 64.3485 230.568 64.3485 231.24C64.3485 232.04 64.1032 232.744 63.6125 233.352C63.1325 233.949 62.4552 234.413 61.5805 234.744C60.7058 235.075 59.6818 235.24 58.5085 235.24C57.3138 235.24 56.2632 235.069 55.3565 234.728C54.4498 234.376 53.7352 233.891 53.2125 233.272C52.6898 232.643 52.4072 231.912 52.3645 231.08ZM70.2571 235.24C69.4145 235.24 68.6945 235.069 68.0971 234.728C67.5105 234.376 67.0571 233.88 66.7371 233.24C66.4278 232.6 66.2731 231.843 66.2731 230.968V225.896H68.9451V230.568C68.9451 231.379 69.1371 231.997 69.5211 232.424C69.9051 232.84 70.4491 233.048 71.1531 233.048C71.6758 233.048 72.1185 232.941 72.4811 232.728C72.8545 232.504 73.1425 232.184 73.3451 231.768C73.5478 231.352 73.6491 230.867 73.6491 230.312L74.5131 230.776C74.4065 231.715 74.1558 232.52 73.7611 233.192C73.3665 233.853 72.8651 234.36 72.2571 234.712C71.6598 235.064 70.9931 235.24 70.2571 235.24ZM74.2091 235L73.6491 231.544V225.896H76.3211V231.944L76.8811 235H74.2091ZM78.9436 222.68H81.6156V228.792L81.2476 229.512V231.496L81.6156 232.232V235H78.9436V222.68ZM80.6716 230.456C80.8423 229.485 81.157 228.643 81.6156 227.928C82.0743 227.203 82.645 226.643 83.3276 226.248C84.0103 225.853 84.7783 225.656 85.6316 225.656C86.517 225.656 87.301 225.859 87.9836 226.264C88.6663 226.659 89.1996 227.219 89.5836 227.944C89.9676 228.659 90.1596 229.496 90.1596 230.456C90.1596 231.405 89.9676 232.243 89.5836 232.968C89.1996 233.683 88.6663 234.243 87.9836 234.648C87.301 235.043 86.517 235.24 85.6316 235.24C84.7783 235.24 84.0103 235.043 83.3276 234.648C82.645 234.253 82.0743 233.699 81.6156 232.984C81.1676 232.259 80.853 231.416 80.6716 230.456ZM87.4396 230.456C87.4396 229.923 87.3276 229.453 87.1036 229.048C86.8903 228.632 86.5916 228.312 86.2076 228.088C85.8236 227.853 85.3863 227.736 84.8956 227.736C84.3943 227.736 83.9196 227.853 83.4716 228.088C83.0236 228.312 82.629 228.632 82.2876 229.048C81.957 229.453 81.6956 229.923 81.5036 230.456C81.6956 230.989 81.957 231.459 82.2876 231.864C82.629 232.269 83.0236 232.589 83.4716 232.824C83.9196 233.048 84.3943 233.16 84.8956 233.16C85.3863 233.16 85.8236 233.048 86.2076 232.824C86.5916 232.589 86.8903 232.269 87.1036 231.864C87.3276 231.459 87.4396 230.989 87.4396 230.456ZM91.7416 225.896H94.4136L94.9896 229.368V235H92.3176V228.968L91.7416 225.896ZM98.2376 225.656C99.0483 225.656 99.7416 225.832 100.318 226.184C100.894 226.525 101.331 227.016 101.63 227.656C101.939 228.296 102.094 229.059 102.094 229.944V235H99.4216V230.344C99.4216 229.523 99.2403 228.904 98.8776 228.488C98.5256 228.061 98.0083 227.848 97.3256 227.848C96.8456 227.848 96.4296 227.965 96.0776 228.2C95.7256 228.424 95.4536 228.739 95.2616 229.144C95.0803 229.549 94.9896 230.035 94.9896 230.6L94.1096 230.136C94.2163 229.176 94.4616 228.365 94.8456 227.704C95.2296 227.043 95.7096 226.536 96.2856 226.184C96.8723 225.832 97.523 225.656 98.2376 225.656ZM105.326 225.656C106.136 225.656 106.83 225.832 107.406 226.184C107.992 226.525 108.435 227.016 108.734 227.656C109.043 228.296 109.198 229.059 109.198 229.944V235H106.526V230.344C106.526 229.523 106.344 228.904 105.982 228.488C105.63 228.061 105.112 227.848 104.43 227.848C103.95 227.848 103.534 227.965 103.182 228.2C102.83 228.424 102.558 228.739 102.366 229.144C102.184 229.549 102.094 230.035 102.094 230.6L101.214 230.136C101.32 229.176 101.566 228.365 101.95 227.704C102.334 227.043 102.814 226.536 103.39 226.184C103.976 225.832 104.622 225.656 105.326 225.656ZM119.896 235L119.512 231.672L119.944 230.456L119.512 229.256L119.896 225.896H122.664L122.136 230.456L122.664 235H119.896ZM120.6 230.456C120.429 231.416 120.115 232.259 119.656 232.984C119.208 233.699 118.637 234.253 117.944 234.648C117.261 235.043 116.493 235.24 115.64 235.24C114.755 235.24 113.971 235.043 113.288 234.648C112.605 234.243 112.072 233.683 111.688 232.968C111.315 232.243 111.128 231.405 111.128 230.456C111.128 229.496 111.315 228.659 111.688 227.944C112.072 227.219 112.605 226.659 113.288 226.264C113.971 225.859 114.755 225.656 115.64 225.656C116.493 225.656 117.261 225.853 117.944 226.248C118.637 226.643 119.213 227.203 119.672 227.928C120.131 228.643 120.44 229.485 120.6 230.456ZM113.832 230.456C113.832 230.989 113.939 231.459 114.152 231.864C114.376 232.269 114.68 232.589 115.064 232.824C115.448 233.048 115.891 233.16 116.392 233.16C116.893 233.16 117.363 233.048 117.8 232.824C118.248 232.589 118.643 232.269 118.984 231.864C119.325 231.459 119.592 230.989 119.784 230.456C119.592 229.923 119.325 229.453 118.984 229.048C118.643 228.632 118.248 228.312 117.8 228.088C117.363 227.853 116.893 227.736 116.392 227.736C115.891 227.736 115.448 227.853 115.064 228.088C114.68 228.312 114.376 228.632 114.152 229.048C113.939 229.453 113.832 229.923 113.832 230.456ZM124.499 225.896H127.203L127.747 229.176V235H125.075V228.888L124.499 225.896ZM132.179 225.8V228.104C131.901 228.04 131.624 227.992 131.347 227.96C131.069 227.928 130.808 227.912 130.563 227.912C130.029 227.912 129.549 228.024 129.123 228.248C128.696 228.472 128.36 228.819 128.115 229.288C127.869 229.757 127.747 230.349 127.747 231.064L127.187 230.392C127.251 229.741 127.368 229.133 127.539 228.568C127.709 227.992 127.944 227.491 128.243 227.064C128.552 226.627 128.931 226.285 129.379 226.04C129.827 225.784 130.36 225.656 130.979 225.656C131.181 225.656 131.384 225.672 131.587 225.704C131.8 225.725 131.997 225.757 132.179 225.8ZM133.895 225.8L135.223 226.056L136.567 225.8V235H133.895V225.8ZM135.223 224.856C134.743 224.856 134.348 224.733 134.039 224.488C133.74 224.232 133.591 223.896 133.591 223.48C133.591 223.053 133.74 222.717 134.039 222.472C134.348 222.216 134.743 222.088 135.223 222.088C135.714 222.088 136.108 222.216 136.407 222.472C136.706 222.717 136.855 223.053 136.855 223.48C136.855 223.896 136.706 224.232 136.407 224.488C136.108 224.733 135.714 224.856 135.223 224.856ZM138.63 225.896H141.302L141.878 229.368V235H139.206V228.968L138.63 225.896ZM145.35 225.656C146.214 225.656 146.95 225.832 147.558 226.184C148.166 226.525 148.63 227.016 148.95 227.656C149.27 228.296 149.43 229.059 149.43 229.944V235H146.758V230.344C146.758 229.523 146.561 228.904 146.166 228.488C145.772 228.061 145.196 227.848 144.438 227.848C143.926 227.848 143.473 227.965 143.078 228.2C142.694 228.424 142.396 228.739 142.182 229.144C141.98 229.549 141.878 230.035 141.878 230.6L140.998 230.136C141.105 229.176 141.361 228.365 141.766 227.704C142.172 227.043 142.684 226.536 143.302 226.184C143.921 225.832 144.604 225.656 145.35 225.656ZM156.928 235.24C155.851 235.24 154.886 235.043 154.032 234.648C153.19 234.243 152.523 233.677 152.032 232.952C151.552 232.227 151.312 231.384 151.312 230.424C151.312 229.475 151.542 228.643 152 227.928C152.47 227.213 153.11 226.659 153.92 226.264C154.731 225.859 155.654 225.656 156.688 225.656C157.744 225.656 158.651 225.891 159.408 226.36C160.166 226.819 160.747 227.469 161.152 228.312C161.568 229.155 161.776 230.147 161.776 231.288H153.456V229.512H160.336L159.296 230.152C159.254 229.619 159.12 229.165 158.896 228.792C158.683 228.419 158.39 228.131 158.016 227.928C157.643 227.725 157.206 227.624 156.704 227.624C156.16 227.624 155.686 227.736 155.28 227.96C154.886 228.173 154.576 228.477 154.352 228.872C154.139 229.256 154.032 229.709 154.032 230.232C154.032 230.861 154.171 231.4 154.448 231.848C154.726 232.296 155.131 232.637 155.664 232.872C156.198 233.107 156.843 233.224 157.6 233.224C158.283 233.224 158.971 233.128 159.664 232.936C160.358 232.733 160.982 232.451 161.536 232.088V233.88C160.939 234.307 160.24 234.643 159.44 234.888C158.651 235.123 157.814 235.24 156.928 235.24ZM169.865 235.144C169.417 235.144 169.044 235 168.745 234.712C168.457 234.424 168.313 234.061 168.313 233.624C168.313 233.187 168.457 232.824 168.745 232.536C169.044 232.248 169.417 232.104 169.865 232.104C170.324 232.104 170.697 232.248 170.985 232.536C171.284 232.824 171.433 233.187 171.433 233.624C171.433 234.061 171.284 234.424 170.985 234.712C170.697 235 170.324 235.144 169.865 235.144ZM169.865 229.48C169.417 229.48 169.044 229.336 168.745 229.048C168.457 228.76 168.313 228.397 168.313 227.96C168.313 227.523 168.457 227.16 168.745 226.872C169.044 226.584 169.417 226.44 169.865 226.44C170.324 226.44 170.697 226.584 170.985 226.872C171.284 227.16 171.433 227.523 171.433 227.96C171.433 228.397 171.284 228.76 170.985 229.048C170.697 229.336 170.324 229.48 169.865 229.48Z" fill="white"/>
<path d="M251.64 174V172.992L255.672 168.928C256.824 167.776 257.4 166.789 257.4 165.968C257.4 165.253 257.176 164.699 256.728 164.304C256.291 163.899 255.763 163.696 255.144 163.696C253.992 163.696 253.155 164.224 252.632 165.28L251.688 164.72C252.04 164.027 252.52 163.504 253.128 163.152C253.736 162.789 254.408 162.608 255.144 162.608C256.04 162.608 256.824 162.912 257.496 163.52C258.179 164.117 258.52 164.933 258.52 165.968C258.52 166.619 258.339 167.243 257.976 167.84C257.613 168.437 257.101 169.067 256.44 169.728L253.24 172.912H258.76V174H251.64ZM267.89 172.624C267.154 173.669 266.114 174.192 264.77 174.192C263.426 174.192 262.381 173.669 261.634 172.624C260.898 171.568 260.53 170.16 260.53 168.4C260.53 166.64 260.898 165.237 261.634 164.192C262.381 163.136 263.426 162.608 264.77 162.608C266.114 162.608 267.154 163.136 267.89 164.192C268.637 165.237 269.01 166.64 269.01 168.4C269.01 170.16 268.637 171.568 267.89 172.624ZM262.466 171.872C263.021 172.693 263.789 173.104 264.77 173.104C265.751 173.104 266.514 172.693 267.058 171.872C267.613 171.051 267.89 169.893 267.89 168.4C267.89 166.907 267.613 165.749 267.058 164.928C266.514 164.107 265.751 163.696 264.77 163.696C263.789 163.696 263.021 164.107 262.466 164.928C261.922 165.749 261.65 166.907 261.65 168.4C261.65 169.893 261.922 171.051 262.466 171.872ZM278.448 172.624C277.712 173.669 276.672 174.192 275.328 174.192C273.984 174.192 272.939 173.669 272.192 172.624C271.456 171.568 271.088 170.16 271.088 168.4C271.088 166.64 271.456 165.237 272.192 164.192C272.939 163.136 273.984 162.608 275.328 162.608C276.672 162.608 277.712 163.136 278.448 164.192C279.195 165.237 279.568 166.64 279.568 168.4C279.568 170.16 279.195 171.568 278.448 172.624ZM273.024 171.872C273.579 172.693 274.347 173.104 275.328 173.104C276.309 173.104 277.072 172.693 277.616 171.872C278.171 171.051 278.448 169.893 278.448 168.4C278.448 166.907 278.171 165.749 277.616 164.928C277.072 164.107 276.309 163.696 275.328 163.696C274.347 163.696 273.579 164.107 273.024 164.928C272.48 165.749 272.208 166.907 272.208 168.4C272.208 169.893 272.48 171.051 273.024 171.872ZM288.526 167.888V168.912H285.678V171.76H284.654V168.912H281.806V167.888H284.654V165.04H285.678V167.888H288.526Z" fill="white"/>
<path d="M39.048 271L41.112 267.432H41.144L46.008 259H48.952L41.992 271H39.048ZM41.112 269.256L35.128 259H38.12L42.984 267.368L41.112 269.256ZM49.8529 261.896H59.2609V271H56.5889V262.696L57.8209 263.912H51.1809L52.3329 262.92C52.3862 263.571 52.4289 264.173 52.4609 264.728C52.5035 265.272 52.5249 265.763 52.5249 266.2C52.5249 267.949 52.2635 269.219 51.7409 270.008C51.2289 270.797 50.3969 271.192 49.2449 271.192C48.9249 271.192 48.6155 271.155 48.3169 271.08C48.0289 271.016 47.7462 270.904 47.4689 270.744V268.808C47.6609 268.883 47.8475 268.941 48.0289 268.984C48.2209 269.016 48.3969 269.032 48.5569 269.032C49.1009 269.032 49.4902 268.787 49.7249 268.296C49.9702 267.795 50.0929 266.973 50.0929 265.832C50.0929 265.32 50.0715 264.733 50.0289 264.072C49.9969 263.411 49.9382 262.685 49.8529 261.896ZM71.5573 271.24C70.4372 271.24 69.4559 271.043 68.6132 270.648C67.7706 270.243 67.1146 269.683 66.6452 268.968C66.1866 268.243 65.9572 267.405 65.9572 266.456C65.9572 265.496 66.1866 264.659 66.6452 263.944C67.1146 263.219 67.7706 262.659 68.6132 262.264C69.4559 261.859 70.4372 261.656 71.5573 261.656C72.6772 261.656 73.6586 261.859 74.5012 262.264C75.3439 262.659 75.9999 263.219 76.4692 263.944C76.9386 264.659 77.1733 265.496 77.1733 266.456C77.1733 267.405 76.9386 268.243 76.4692 268.968C75.9999 269.683 75.3439 270.243 74.5012 270.648C73.6586 271.043 72.6772 271.24 71.5573 271.24ZM61.7492 271V261.896H64.4212V271H61.7492ZM63.2532 267.368V265.368H67.6532V267.368H63.2532ZM71.5573 269.208C72.1652 269.208 72.6826 269.096 73.1093 268.872C73.5466 268.648 73.8826 268.333 74.1172 267.928C74.3519 267.512 74.4692 267.021 74.4692 266.456C74.4692 265.88 74.3519 265.389 74.1172 264.984C73.8826 264.568 73.5466 264.248 73.1093 264.024C72.6826 263.8 72.1652 263.688 71.5573 263.688C70.9599 263.688 70.4426 263.8 70.0052 264.024C69.5679 264.248 69.2319 264.568 68.9972 264.984C68.7626 265.389 68.6452 265.88 68.6452 266.456C68.6452 267.021 68.7626 267.512 68.9972 267.928C69.2319 268.333 69.5679 268.648 70.0052 268.872C70.4426 269.096 70.9599 269.208 71.5573 269.208ZM84.782 271.24C83.534 271.24 82.4673 271.005 81.582 270.536C80.6967 270.056 80.0193 269.368 79.55 268.472C79.0807 267.576 78.846 266.493 78.846 265.224C78.846 263.336 79.3527 261.848 80.366 260.76C81.3793 259.672 82.83 259.048 84.718 258.888C85.486 258.824 86.1207 258.771 86.622 258.728C87.1233 258.685 87.534 258.643 87.854 258.6C88.1847 258.547 88.462 258.493 88.686 258.44C88.91 258.376 89.1287 258.307 89.342 258.232V260.456C89.118 260.541 88.83 260.621 88.478 260.696C88.1367 260.76 87.6993 260.813 87.166 260.856C86.6433 260.899 85.998 260.941 85.23 260.984C83.8327 261.048 82.7927 261.432 82.11 262.136C81.4273 262.84 81.086 263.853 81.086 265.176V265.608L80.99 265.416C81.2033 264.84 81.5287 264.344 81.966 263.928C82.4033 263.512 82.926 263.197 83.534 262.984C84.1527 262.76 84.8193 262.648 85.534 262.648C86.462 262.648 87.2727 262.824 87.966 263.176C88.6593 263.517 89.198 264.003 89.582 264.632C89.9767 265.261 90.174 265.997 90.174 266.84C90.174 267.725 89.95 268.499 89.502 269.16C89.054 269.821 88.4247 270.333 87.614 270.696C86.814 271.059 85.87 271.24 84.782 271.24ZM84.846 269.208C85.3793 269.208 85.8433 269.112 86.238 268.92C86.6327 268.728 86.9367 268.456 87.15 268.104C87.3633 267.752 87.47 267.341 87.47 266.872C87.47 266.403 87.3633 265.997 87.15 265.656C86.9367 265.304 86.6327 265.032 86.238 264.84C85.8433 264.648 85.3793 264.552 84.846 264.552C84.11 264.552 83.4593 264.749 82.894 265.144C82.3287 265.528 81.902 266.067 81.614 266.76C81.7847 267.507 82.158 268.104 82.734 268.552C83.3207 268.989 84.0247 269.208 84.846 269.208ZM93.5585 261.896H102.966V271H100.294V262.696L101.526 263.912H94.8865L96.0385 262.92C96.0918 263.571 96.1345 264.173 96.1665 264.728C96.2092 265.272 96.2305 265.763 96.2305 266.2C96.2305 267.949 95.9692 269.219 95.4465 270.008C94.9345 270.797 94.1025 271.192 92.9505 271.192C92.6305 271.192 92.3212 271.155 92.0225 271.08C91.7345 271.016 91.4518 270.904 91.1745 270.744V268.808C91.3665 268.883 91.5532 268.941 91.7345 268.984C91.9265 269.016 92.1025 269.032 92.2625 269.032C92.8065 269.032 93.1958 268.787 93.4305 268.296C93.6758 267.795 93.7985 266.973 93.7985 265.832C93.7985 265.32 93.7772 264.733 93.7345 264.072C93.7025 263.411 93.6438 262.685 93.5585 261.896ZM110.591 271.24C109.514 271.24 108.548 271.043 107.695 270.648C106.852 270.243 106.186 269.677 105.695 268.952C105.215 268.227 104.975 267.384 104.975 266.424C104.975 265.475 105.204 264.643 105.663 263.928C106.132 263.213 106.772 262.659 107.583 262.264C108.394 261.859 109.316 261.656 110.351 261.656C111.407 261.656 112.314 261.891 113.071 262.36C113.828 262.819 114.41 263.469 114.815 264.312C115.231 265.155 115.439 266.147 115.439 267.288H107.119V265.512H113.999L112.959 266.152C112.916 265.619 112.783 265.165 112.559 264.792C112.346 264.419 112.052 264.131 111.679 263.928C111.306 263.725 110.868 263.624 110.367 263.624C109.823 263.624 109.348 263.736 108.943 263.96C108.548 264.173 108.239 264.477 108.015 264.872C107.802 265.256 107.695 265.709 107.695 266.232C107.695 266.861 107.834 267.4 108.111 267.848C108.388 268.296 108.794 268.637 109.327 268.872C109.86 269.107 110.506 269.224 111.263 269.224C111.946 269.224 112.634 269.128 113.327 268.936C114.02 268.733 114.644 268.451 115.199 268.088V269.88C114.602 270.307 113.903 270.643 113.103 270.888C112.314 271.123 111.476 271.24 110.591 271.24ZM117.482 261.896H120.138V271H117.482V261.896ZM125.114 261.896H127.77V271H125.114V261.896ZM119.002 265.352H126.154V267.368H119.002V265.352ZM130.259 261.8L131.587 262.056L132.931 261.8V271H130.259V261.8ZM131.587 260.856C131.107 260.856 130.712 260.733 130.403 260.488C130.104 260.232 129.955 259.896 129.955 259.48C129.955 259.053 130.104 258.717 130.403 258.472C130.712 258.216 131.107 258.088 131.587 258.088C132.077 258.088 132.472 258.216 132.771 258.472C133.069 258.717 133.219 259.053 133.219 259.48C133.219 259.896 133.069 260.232 132.771 260.488C132.472 260.733 132.077 260.856 131.587 260.856ZM150.224 261.896V271H147.552V262.696L148.784 263.912H141.44L142.672 262.696V271H140V261.896H150.224ZM152.714 261.896H155.386V264.792L155.274 265.144V267.336L155.386 267.992V273.64H152.714V261.896ZM154.458 266.456C154.64 265.485 154.954 264.643 155.402 263.928C155.861 263.203 156.432 262.643 157.114 262.248C157.808 261.853 158.576 261.656 159.418 261.656C160.314 261.656 161.098 261.859 161.77 262.264C162.453 262.659 162.986 263.219 163.37 263.944C163.754 264.659 163.946 265.496 163.946 266.456C163.946 267.405 163.754 268.243 163.37 268.968C162.986 269.683 162.453 270.243 161.77 270.648C161.098 271.043 160.314 271.24 159.418 271.24C158.565 271.24 157.797 271.043 157.114 270.648C156.442 270.253 155.877 269.699 155.418 268.984C154.96 268.259 154.64 267.416 154.458 266.456ZM161.242 266.456C161.242 265.923 161.13 265.453 160.906 265.048C160.693 264.632 160.394 264.312 160.01 264.088C159.626 263.853 159.184 263.736 158.682 263.736C158.181 263.736 157.706 263.853 157.258 264.088C156.81 264.312 156.416 264.632 156.074 265.048C155.744 265.453 155.482 265.923 155.29 266.456C155.482 266.989 155.744 267.459 156.074 267.864C156.416 268.269 156.81 268.589 157.258 268.824C157.706 269.048 158.181 269.16 158.682 269.16C159.184 269.16 159.626 269.048 160.01 268.824C160.394 268.589 160.693 268.269 160.906 267.864C161.13 267.459 161.242 266.989 161.242 266.456ZM171.207 271.24C170.076 271.24 169.084 271.043 168.231 270.648C167.378 270.243 166.711 269.683 166.231 268.968C165.751 268.243 165.511 267.405 165.511 266.456C165.511 265.496 165.751 264.659 166.231 263.944C166.711 263.219 167.378 262.659 168.231 262.264C169.084 261.859 170.076 261.656 171.207 261.656C172.338 261.656 173.33 261.859 174.183 262.264C175.036 262.659 175.698 263.219 176.167 263.944C176.647 264.659 176.887 265.496 176.887 266.456C176.887 267.405 176.647 268.243 176.167 268.968C175.698 269.683 175.036 270.243 174.183 270.648C173.33 271.043 172.338 271.24 171.207 271.24ZM171.207 269.208C171.826 269.208 172.354 269.096 172.791 268.872C173.239 268.648 173.58 268.333 173.815 267.928C174.06 267.512 174.183 267.021 174.183 266.456C174.183 265.88 174.06 265.389 173.815 264.984C173.58 264.568 173.239 264.248 172.791 264.024C172.354 263.8 171.826 263.688 171.207 263.688C170.599 263.688 170.071 263.8 169.623 264.024C169.175 264.248 168.828 264.568 168.583 264.984C168.348 265.389 168.231 265.88 168.231 266.456C168.231 267.021 168.348 267.512 168.583 267.928C168.828 268.333 169.175 268.648 169.623 268.872C170.071 269.096 170.599 269.208 171.207 269.208ZM183.98 271.24C182.892 271.24 181.927 271.043 181.084 270.648C180.252 270.243 179.602 269.677 179.132 268.952C178.674 268.227 178.444 267.395 178.444 266.456C178.444 265.507 178.674 264.675 179.132 263.96C179.602 263.235 180.252 262.669 181.084 262.264C181.927 261.859 182.892 261.656 183.98 261.656C184.94 261.656 185.804 261.816 186.572 262.136C187.34 262.456 187.97 262.899 188.46 263.464C188.962 264.019 189.276 264.669 189.404 265.416H186.796C186.636 264.872 186.3 264.429 185.788 264.088C185.276 263.736 184.674 263.56 183.98 263.56C183.383 263.56 182.866 263.677 182.428 263.912C181.991 264.136 181.65 264.467 181.404 264.904C181.17 265.331 181.052 265.848 181.052 266.456C181.052 267.053 181.17 267.571 181.404 268.008C181.65 268.435 181.991 268.765 182.428 269C182.866 269.224 183.383 269.336 183.98 269.336C184.674 269.336 185.276 269.165 185.788 268.824C186.3 268.483 186.636 268.035 186.796 267.48H189.404C189.276 268.227 188.962 268.883 188.46 269.448C187.97 270.003 187.34 270.44 186.572 270.76C185.804 271.08 184.94 271.24 183.98 271.24ZM179.836 267.272V265.624H185.34V267.272H179.836ZM191.311 271V261.896H193.983V268.84L193.199 268.568L198.623 261.896H201.535L193.711 271H191.311ZM198.751 271L196.031 266.536L197.999 265.016L201.807 271H198.751ZM206.029 262.824H208.701V271H206.029V262.824ZM202.413 261.896H212.317V263.944H202.413V261.896ZM214.02 271V261.896H216.644V269.592L215.988 269.416L221.476 261.896H224.916V271H222.292V263.16L222.948 263.352L217.364 271H214.02ZM228.879 271.144C228.431 271.144 228.057 271 227.759 270.712C227.471 270.424 227.327 270.061 227.327 269.624C227.327 269.187 227.471 268.824 227.759 268.536C228.057 268.248 228.431 268.104 228.879 268.104C229.337 268.104 229.711 268.248 229.999 268.536C230.297 268.824 230.447 269.187 230.447 269.624C230.447 270.061 230.297 270.424 229.999 270.712C229.711 271 229.337 271.144 228.879 271.144ZM228.879 265.48C228.431 265.48 228.057 265.336 227.759 265.048C227.471 264.76 227.327 264.397 227.327 263.96C227.327 263.523 227.471 263.16 227.759 262.872C228.057 262.584 228.431 262.44 228.879 262.44C229.337 262.44 229.711 262.584 229.999 262.872C230.297 263.16 230.447 263.523 230.447 263.96C230.447 264.397 230.297 264.76 229.999 265.048C229.711 265.336 229.337 265.48 228.879 265.48Z" fill="white"/>
<path d="M257.448 264.208C258.067 264.443 258.547 264.8 258.888 265.28C259.229 265.76 259.4 266.325 259.4 266.976C259.4 267.915 259.048 268.688 258.344 269.296C257.651 269.893 256.712 270.192 255.528 270.192C254.461 270.192 253.608 269.952 252.968 269.472C252.328 268.992 251.885 268.389 251.64 267.664L252.6 267.12C252.739 267.685 253.037 268.165 253.496 268.56C253.965 268.944 254.643 269.136 255.528 269.136C256.403 269.136 257.08 268.939 257.56 268.544C258.04 268.139 258.28 267.616 258.28 266.976C258.28 266.336 258.056 265.819 257.608 265.424C257.171 265.019 256.563 264.816 255.784 264.816H254.504V263.76H255.384C256.141 263.76 256.744 263.568 257.192 263.184C257.64 262.8 257.864 262.304 257.864 261.696C257.864 261.099 257.645 260.613 257.208 260.24C256.781 259.856 256.195 259.664 255.448 259.664C254.072 259.664 253.165 260.251 252.728 261.424L251.8 260.88C252.077 260.197 252.515 259.648 253.112 259.232C253.72 258.816 254.499 258.608 255.448 258.608C256.504 258.608 257.357 258.907 258.008 259.504C258.659 260.091 258.984 260.827 258.984 261.712C258.984 262.832 258.472 263.664 257.448 264.208ZM266.735 265.888C267.61 266.208 268.047 266.832 268.047 267.76C268.047 268.411 267.828 268.949 267.391 269.376C266.964 269.792 266.346 270 265.535 270H261.647V262H265.215C265.994 262 266.596 262.203 267.023 262.608C267.45 263.003 267.663 263.515 267.663 264.144C267.663 264.944 267.354 265.525 266.735 265.888ZM265.215 263.024H262.703V265.456H265.215C266.143 265.456 266.607 265.04 266.607 264.208C266.607 263.835 266.484 263.547 266.239 263.344C266.004 263.131 265.663 263.024 265.215 263.024ZM265.535 268.976C266.004 268.976 266.362 268.864 266.607 268.64C266.863 268.416 266.991 268.101 266.991 267.696C266.991 267.323 266.863 267.029 266.607 266.816C266.362 266.592 266.004 266.48 265.535 266.48H262.703V268.976H265.535ZM271.199 260.08C271.05 260.229 270.868 260.304 270.655 260.304C270.442 260.304 270.26 260.229 270.111 260.08C269.962 259.931 269.887 259.749 269.887 259.536C269.887 259.323 269.962 259.141 270.111 258.992C270.26 258.843 270.442 258.768 270.655 258.768C270.868 258.768 271.05 258.843 271.199 258.992C271.348 259.141 271.423 259.323 271.423 259.536C271.423 259.749 271.348 259.931 271.199 260.08ZM270.127 270V262H271.183V270H270.127ZM277.632 270.192C276.426 270.192 275.424 269.792 274.624 268.992C273.824 268.181 273.424 267.184 273.424 266C273.424 264.816 273.824 263.824 274.624 263.024C275.424 262.213 276.426 261.808 277.632 261.808C278.421 261.808 279.13 262 279.76 262.384C280.389 262.757 280.848 263.264 281.136 263.904L280.272 264.4C280.058 263.92 279.712 263.541 279.232 263.264C278.762 262.976 278.229 262.832 277.632 262.832C276.746 262.832 276 263.141 275.392 263.76C274.784 264.368 274.48 265.115 274.48 266C274.48 266.885 274.784 267.637 275.392 268.256C276 268.864 276.746 269.168 277.632 269.168C278.229 269.168 278.762 269.029 279.232 268.752C279.701 268.464 280.069 268.08 280.336 267.6L281.216 268.112C280.885 268.752 280.4 269.259 279.76 269.632C279.12 270.005 278.41 270.192 277.632 270.192ZM288.876 262H289.932V270H288.876V266.512H284.268V270H283.212V262H284.268V265.488H288.876V262ZM299.349 268.992C298.538 269.792 297.546 270.192 296.373 270.192C295.2 270.192 294.202 269.792 293.381 268.992C292.57 268.181 292.165 267.184 292.165 266C292.165 264.816 292.57 263.824 293.381 263.024C294.202 262.213 295.2 261.808 296.373 261.808C297.546 261.808 298.538 262.213 299.349 263.024C300.17 263.824 300.581 264.816 300.581 266C300.581 267.184 300.17 268.181 299.349 268.992ZM294.133 268.256C294.741 268.864 295.488 269.168 296.373 269.168C297.258 269.168 298.005 268.864 298.613 268.256C299.221 267.637 299.525 266.885 299.525 266C299.525 265.115 299.221 264.368 298.613 263.76C298.005 263.141 297.258 262.832 296.373 262.832C295.488 262.832 294.741 263.141 294.133 263.76C293.525 264.368 293.221 265.115 293.221 266C293.221 266.885 293.525 267.637 294.133 268.256ZM303.948 268.64L302.988 272.24H302.028L302.668 268.64H303.948ZM321.711 268.976H322.831V272.144H321.775V270H310.991V262H312.047V268.976H315.823V262H316.879V268.976H320.655V262H321.711V268.976ZM331.3 268.992C330.49 269.792 329.498 270.192 328.324 270.192C327.151 270.192 326.154 269.792 325.332 268.992C324.522 268.181 324.116 267.184 324.116 266C324.116 264.816 324.522 263.824 325.332 263.024C326.154 262.213 327.151 261.808 328.324 261.808C329.498 261.808 330.49 262.213 331.3 263.024C332.122 263.824 332.532 264.816 332.532 266C332.532 267.184 332.122 268.181 331.3 268.992ZM326.084 268.256C326.692 268.864 327.439 269.168 328.324 269.168C329.21 269.168 329.956 268.864 330.564 268.256C331.172 267.637 331.476 266.885 331.476 266C331.476 265.115 331.172 264.368 330.564 263.76C329.956 263.141 329.21 262.832 328.324 262.832C327.439 262.832 326.692 263.141 326.084 263.76C325.476 264.368 325.172 265.115 325.172 266C325.172 266.885 325.476 267.637 326.084 268.256ZM255.8 290.192C254.776 290.192 253.896 289.952 253.16 289.472C252.435 288.981 251.928 288.309 251.64 287.456L252.6 286.896C252.803 287.589 253.176 288.133 253.72 288.528C254.264 288.912 254.963 289.104 255.816 289.104C256.648 289.104 257.293 288.923 257.752 288.56C258.221 288.187 258.456 287.696 258.456 287.088C258.456 286.501 258.243 286.059 257.816 285.76C257.389 285.461 256.685 285.152 255.704 284.832C254.541 284.448 253.773 284.139 253.4 283.904C252.547 283.392 252.12 282.651 252.12 281.68C252.12 280.731 252.451 279.984 253.112 279.44C253.773 278.885 254.589 278.608 255.56 278.608C256.435 278.608 257.192 278.837 257.832 279.296C258.472 279.744 258.947 280.32 259.256 281.024L258.312 281.552C257.8 280.315 256.883 279.696 255.56 279.696C254.867 279.696 254.307 279.867 253.88 280.208C253.453 280.549 253.24 281.024 253.24 281.632C253.24 282.187 253.432 282.603 253.816 282.88C254.2 283.157 254.835 283.44 255.72 283.728C256.125 283.867 256.413 283.968 256.584 284.032C256.765 284.085 257.021 284.181 257.352 284.32C257.693 284.448 257.944 284.565 258.104 284.672C258.264 284.768 258.456 284.907 258.68 285.088C258.915 285.259 259.08 285.435 259.176 285.616C259.283 285.787 259.373 286 259.448 286.256C259.533 286.501 259.576 286.768 259.576 287.056C259.576 288.005 259.229 288.768 258.536 289.344C257.843 289.909 256.931 290.192 255.8 290.192ZM267.451 282H268.507V290H267.451V288.752C266.853 289.712 265.957 290.192 264.763 290.192C263.792 290.192 263.024 289.899 262.459 289.312C261.904 288.715 261.627 287.915 261.627 286.912V282H262.683V286.912C262.683 287.627 262.869 288.181 263.243 288.576C263.627 288.971 264.165 289.168 264.859 289.168C265.627 289.168 266.251 288.928 266.731 288.448C267.211 287.957 267.451 287.205 267.451 286.192V282ZM275.509 281.808C276.65 281.808 277.621 282.213 278.421 283.024C279.231 283.835 279.637 284.827 279.637 286C279.637 287.173 279.231 288.165 278.421 288.976C277.621 289.787 276.65 290.192 275.509 290.192C274.09 290.192 273.013 289.605 272.277 288.432V290H271.221V278.8H272.277V283.568C273.013 282.395 274.09 281.808 275.509 281.808ZM273.189 288.256C273.797 288.864 274.543 289.168 275.429 289.168C276.314 289.168 277.061 288.864 277.669 288.256C278.277 287.637 278.581 286.885 278.581 286C278.581 285.115 278.277 284.368 277.669 283.76C277.061 283.141 276.314 282.832 275.429 282.832C274.543 282.832 273.797 283.141 273.189 283.76C272.581 284.368 272.277 285.115 272.277 286C272.277 286.885 272.581 287.637 273.189 288.256ZM290.401 281.808C291.297 281.808 292.017 282.096 292.561 282.672C293.115 283.248 293.393 284.027 293.393 285.008V290H292.337V285.008C292.337 284.315 292.155 283.781 291.793 283.408C291.441 283.024 290.971 282.832 290.385 282.832C289.723 282.832 289.185 283.056 288.769 283.504C288.363 283.941 288.161 284.629 288.161 285.568V290H287.105V285.008C287.105 284.304 286.934 283.765 286.593 283.392C286.262 283.019 285.809 282.832 285.233 282.832C284.593 282.832 284.049 283.056 283.601 283.504C283.153 283.952 282.929 284.64 282.929 285.568V290H281.873V282H282.929V283.168C283.505 282.261 284.321 281.808 285.377 281.808C286.529 281.808 287.339 282.293 287.809 283.264C288.385 282.293 289.249 281.808 290.401 281.808ZM302.795 282H303.851V290H302.795V288.432C302.059 289.605 300.982 290.192 299.563 290.192C298.422 290.192 297.446 289.787 296.635 288.976C295.835 288.165 295.435 287.173 295.435 286C295.435 284.827 295.835 283.835 296.635 283.024C297.446 282.213 298.422 281.808 299.563 281.808C300.982 281.808 302.059 282.395 302.795 283.568V282ZM297.403 288.256C298.011 288.864 298.758 289.168 299.643 289.168C300.528 289.168 301.275 288.864 301.883 288.256C302.491 287.637 302.795 286.885 302.795 286C302.795 285.115 302.491 284.368 301.883 283.76C301.275 283.141 300.528 282.832 299.643 282.832C298.758 282.832 298.011 283.141 297.403 283.76C296.795 284.368 296.491 285.115 296.491 286C296.491 286.885 296.795 287.637 297.403 288.256ZM307.623 283.328C308.114 282.357 308.956 281.872 310.151 281.872V282.896C309.426 282.896 308.823 283.109 308.343 283.536C307.863 283.963 307.623 284.635 307.623 285.552V290H306.567V282H307.623V283.328ZM313.15 280.08C313.001 280.229 312.819 280.304 312.606 280.304C312.393 280.304 312.211 280.229 312.062 280.08C311.913 279.931 311.838 279.749 311.838 279.536C311.838 279.323 311.913 279.141 312.062 278.992C312.211 278.843 312.393 278.768 312.606 278.768C312.819 278.768 313.001 278.843 313.15 278.992C313.299 279.141 313.374 279.323 313.374 279.536C313.374 279.749 313.299 279.931 313.15 280.08ZM312.078 290V282H313.134V290H312.078ZM319.599 281.808C320.57 281.808 321.332 282.107 321.887 282.704C322.452 283.291 322.735 284.085 322.735 285.088V290H321.679V285.088C321.679 284.373 321.487 283.819 321.103 283.424C320.73 283.029 320.196 282.832 319.503 282.832C318.735 282.832 318.111 283.077 317.631 283.568C317.151 284.048 316.911 284.795 316.911 285.808V290H315.855V282H316.911V283.248C317.508 282.288 318.404 281.808 319.599 281.808ZM328.953 281.808C330.137 281.808 331.092 282.229 331.817 283.072C332.553 283.904 332.921 284.891 332.921 286.032C332.921 286.149 332.91 286.315 332.889 286.528H325.865C325.972 287.339 326.313 287.984 326.889 288.464C327.476 288.933 328.196 289.168 329.049 289.168C329.657 289.168 330.18 289.045 330.617 288.8C331.065 288.544 331.401 288.213 331.625 287.808L332.553 288.352C332.201 288.917 331.721 289.365 331.113 289.696C330.505 290.027 329.812 290.192 329.033 290.192C327.774 290.192 326.75 289.797 325.961 289.008C325.172 288.219 324.777 287.216 324.777 286C324.777 284.805 325.166 283.808 325.945 283.008C326.724 282.208 327.726 281.808 328.953 281.808ZM328.953 282.832C328.121 282.832 327.422 283.083 326.857 283.584C326.302 284.075 325.972 284.715 325.865 285.504H331.833C331.726 284.661 331.401 284.005 330.857 283.536C330.313 283.067 329.678 282.832 328.953 282.832Z" fill="white"/>
<path d="M35.256 329.448V324.6H37.496L38.648 324.632H47.288L47.944 324.6H51.176V329.448H48.632V327H37.8V329.448H35.256ZM37.832 315H49.08V326.136H46.376V316.152L47.592 317.368H39.288L40.424 316.488C40.488 317.021 40.5307 317.549 40.552 318.072C40.5733 318.595 40.584 319.085 40.584 319.544C40.584 320.845 40.4827 321.949 40.28 322.856C40.0773 323.752 39.7733 324.435 39.368 324.904C38.9627 325.363 38.4613 325.592 37.864 325.592L36.744 324.648C37.192 324.136 37.5227 323.416 37.736 322.488C37.96 321.549 38.072 320.381 38.072 318.984C38.072 318.365 38.0507 317.72 38.008 317.048C37.9653 316.376 37.9067 315.693 37.832 315ZM58.0634 327.24C56.9327 327.24 55.9407 327.043 55.0874 326.648C54.234 326.243 53.5674 325.683 53.0874 324.968C52.6074 324.243 52.3674 323.405 52.3674 322.456C52.3674 321.496 52.6074 320.659 53.0874 319.944C53.5674 319.219 54.234 318.659 55.0874 318.264C55.9407 317.859 56.9327 317.656 58.0634 317.656C59.194 317.656 60.186 317.859 61.0394 318.264C61.8927 318.659 62.554 319.219 63.0234 319.944C63.5034 320.659 63.7434 321.496 63.7434 322.456C63.7434 323.405 63.5034 324.243 63.0234 324.968C62.554 325.683 61.8927 326.243 61.0394 326.648C60.186 327.043 59.194 327.24 58.0634 327.24ZM58.0634 325.208C58.682 325.208 59.21 325.096 59.6474 324.872C60.0954 324.648 60.4367 324.333 60.6714 323.928C60.9167 323.512 61.0394 323.021 61.0394 322.456C61.0394 321.88 60.9167 321.389 60.6714 320.984C60.4367 320.568 60.0954 320.248 59.6474 320.024C59.21 319.8 58.682 319.688 58.0634 319.688C57.4554 319.688 56.9274 319.8 56.4794 320.024C56.0314 320.248 55.6847 320.568 55.4394 320.984C55.2047 321.389 55.0874 321.88 55.0874 322.456C55.0874 323.021 55.2047 323.512 55.4394 323.928C55.6847 324.333 56.0314 324.648 56.4794 324.872C56.9274 325.096 57.4554 325.208 58.0634 325.208ZM76.2285 323.288C76.1218 324.067 75.8178 324.755 75.3165 325.352C74.8258 325.949 74.1912 326.413 73.4125 326.744C72.6338 327.075 71.7645 327.24 70.8045 327.24C69.7165 327.24 68.7565 327.043 67.9245 326.648C67.1032 326.243 66.4578 325.677 65.9885 324.952C65.5298 324.227 65.3005 323.395 65.3005 322.456C65.3005 321.507 65.5298 320.675 65.9885 319.96C66.4578 319.235 67.1032 318.669 67.9245 318.264C68.7565 317.859 69.7165 317.656 70.8045 317.656C71.7645 317.656 72.6338 317.827 73.4125 318.168C74.1912 318.499 74.8258 318.963 75.3165 319.56C75.8178 320.147 76.1218 320.835 76.2285 321.624H73.5565C73.4178 321.005 73.0978 320.531 72.5965 320.2C72.1058 319.859 71.5085 319.688 70.8045 319.688C70.2392 319.688 69.7432 319.8 69.3165 320.024C68.9005 320.237 68.5805 320.552 68.3565 320.968C68.1325 321.373 68.0205 321.869 68.0205 322.456C68.0205 323.032 68.1325 323.528 68.3565 323.944C68.5805 324.349 68.9005 324.664 69.3165 324.888C69.7432 325.101 70.2392 325.208 70.8045 325.208C71.5192 325.208 72.1218 325.032 72.6125 324.68C73.1138 324.328 73.4285 323.864 73.5565 323.288H76.2285ZM77.8959 327L78.4079 322.456L77.8959 317.896H84.9039C85.7785 317.896 86.4719 318.104 86.9839 318.52C87.4959 318.925 87.7519 319.48 87.7519 320.184C87.7519 320.845 87.4959 321.384 86.9839 321.8C86.4719 322.205 85.7572 322.445 84.8399 322.52L85.0319 322.072C86.0985 322.104 86.9092 322.328 87.4639 322.744C88.0292 323.149 88.3119 323.72 88.3119 324.456C88.3119 325.245 88.0239 325.869 87.4479 326.328C86.8825 326.776 86.1039 327 85.1119 327H77.8959ZM80.4719 326.408L79.4479 325.272H84.2959C84.7545 325.272 85.0905 325.181 85.3039 325C85.5172 324.808 85.6239 324.541 85.6239 324.2C85.6239 323.891 85.5065 323.64 85.2719 323.448C85.0372 323.245 84.6532 323.144 84.1199 323.144H79.9919V321.624H83.7679C84.2159 321.624 84.5412 321.533 84.7439 321.352C84.9572 321.171 85.0639 320.925 85.0639 320.616C85.0639 320.328 84.9679 320.093 84.7759 319.912C84.5945 319.731 84.2959 319.64 83.8799 319.64H79.4639L80.4719 318.504L80.9679 322.456L80.4719 326.408ZM90.3186 317.8L91.6466 318.056L92.9906 317.8V327H90.3186V317.8ZM91.6466 316.856C91.1666 316.856 90.772 316.733 90.4626 316.488C90.164 316.232 90.0146 315.896 90.0146 315.48C90.0146 315.053 90.164 314.717 90.4626 314.472C90.772 314.216 91.1666 314.088 91.6466 314.088C92.1373 314.088 92.532 314.216 92.8306 314.472C93.1293 314.717 93.2786 315.053 93.2786 315.48C93.2786 315.896 93.1293 316.232 92.8306 316.488C92.532 316.733 92.1373 316.856 91.6466 316.856ZM107.854 324.984V329.24H105.534V327H97.0221V329.24H94.7021V324.984H97.2461L97.8381 325.032H104.462L104.99 324.984H107.854ZM96.6701 317.896H106.174V326.392H103.502V318.664L104.734 319.896H97.9981L99.0701 318.936C99.1661 319.395 99.2248 319.832 99.2461 320.248C99.2675 320.653 99.2781 321.032 99.2781 321.384C99.2781 322.899 99.0488 324.083 98.5901 324.936C98.1315 325.779 97.4861 326.2 96.6541 326.2L95.5661 325.288C96.4195 324.669 96.8461 323.192 96.8461 320.856C96.8461 320.397 96.8301 319.923 96.7981 319.432C96.7661 318.931 96.7235 318.419 96.6701 317.896ZM111.219 327.144C110.771 327.144 110.398 327 110.099 326.712C109.811 326.424 109.667 326.061 109.667 325.624C109.667 325.187 109.811 324.824 110.099 324.536C110.398 324.248 110.771 324.104 111.219 324.104C111.678 324.104 112.051 324.248 112.339 324.536C112.638 324.824 112.787 325.187 112.787 325.624C112.787 326.061 112.638 326.424 112.339 326.712C112.051 327 111.678 327.144 111.219 327.144ZM111.219 321.48C110.771 321.48 110.398 321.336 110.099 321.048C109.811 320.76 109.667 320.397 109.667 319.96C109.667 319.523 109.811 319.16 110.099 318.872C110.398 318.584 110.771 318.44 111.219 318.44C111.678 318.44 112.051 318.584 112.339 318.872C112.638 319.16 112.787 319.523 112.787 319.96C112.787 320.397 112.638 320.76 112.339 321.048C112.051 321.336 111.678 321.48 111.219 321.48Z" fill="white"/>
<path d="M259 318.304C259 319.147 258.771 319.893 258.312 320.544L254.648 326H253.384L256.136 321.904C255.848 321.968 255.549 322 255.24 322C254.141 322 253.24 321.659 252.536 320.976C251.832 320.283 251.48 319.392 251.48 318.304C251.48 317.216 251.832 316.331 252.536 315.648C253.24 314.955 254.141 314.608 255.24 314.608C256.339 314.608 257.24 314.955 257.944 315.648C258.648 316.331 259 317.216 259 318.304ZM253.32 316.416C252.84 316.896 252.6 317.525 252.6 318.304C252.6 319.083 252.84 319.712 253.32 320.192C253.811 320.672 254.451 320.912 255.24 320.912C256.029 320.912 256.664 320.672 257.144 320.192C257.635 319.712 257.88 319.083 257.88 318.304C257.88 317.525 257.635 316.896 257.144 316.416C256.664 315.936 256.029 315.696 255.24 315.696C254.451 315.696 253.811 315.936 253.32 316.416ZM267.644 319.888V320.912H264.796V323.76H263.772V320.912H260.924V319.888H263.772V317.04H264.796V319.888H267.644ZM278.973 317.808C280.114 317.808 281.085 318.213 281.885 319.024C282.696 319.835 283.101 320.827 283.101 322C283.101 323.173 282.696 324.165 281.885 324.976C281.085 325.787 280.114 326.192 278.973 326.192C277.554 326.192 276.477 325.605 275.741 324.432V329.2H274.685V318H275.741V319.568C276.477 318.395 277.554 317.808 278.973 317.808ZM276.653 324.256C277.261 324.864 278.008 325.168 278.893 325.168C279.778 325.168 280.525 324.864 281.133 324.256C281.741 323.637 282.045 322.885 282.045 322C282.045 321.115 281.741 320.368 281.133 319.76C280.525 319.141 279.778 318.832 278.893 318.832C278.008 318.832 277.261 319.141 276.653 319.76C276.045 320.368 275.741 321.115 275.741 322C275.741 322.885 276.045 323.637 276.653 324.256ZM292.041 324.992C291.23 325.792 290.238 326.192 289.065 326.192C287.892 326.192 286.894 325.792 286.073 324.992C285.262 324.181 284.857 323.184 284.857 322C284.857 320.816 285.262 319.824 286.073 319.024C286.894 318.213 287.892 317.808 289.065 317.808C290.238 317.808 291.23 318.213 292.041 319.024C292.862 319.824 293.273 320.816 293.273 322C293.273 323.184 292.862 324.181 292.041 324.992ZM286.825 324.256C287.433 324.864 288.18 325.168 289.065 325.168C289.95 325.168 290.697 324.864 291.305 324.256C291.913 323.637 292.217 322.885 292.217 322C292.217 321.115 291.913 320.368 291.305 319.76C290.697 319.141 289.95 318.832 289.065 318.832C288.18 318.832 287.433 319.141 286.825 319.76C286.217 320.368 285.913 321.115 285.913 322C285.913 322.885 286.217 323.637 286.825 324.256ZM301.984 326H300.576L296.576 322.144V326H295.52V318H296.576V321.536L300.384 318H301.824L297.696 321.84L301.984 326ZM304.978 316.08C304.829 316.229 304.648 316.304 304.434 316.304C304.221 316.304 304.04 316.229 303.89 316.08C303.741 315.931 303.666 315.749 303.666 315.536C303.666 315.323 303.741 315.141 303.89 314.992C304.04 314.843 304.221 314.768 304.434 314.768C304.648 314.768 304.829 314.843 304.978 314.992C305.128 315.141 305.202 315.323 305.202 315.536C305.202 315.749 305.128 315.931 304.978 316.08ZM303.906 326V318H304.962V326H303.906ZM312.771 321.888C313.646 322.208 314.083 322.832 314.083 323.76C314.083 324.411 313.864 324.949 313.427 325.376C313 325.792 312.382 326 311.571 326H307.683V318H311.251C312.03 318 312.632 318.203 313.059 318.608C313.486 319.003 313.699 319.515 313.699 320.144C313.699 320.944 313.39 321.525 312.771 321.888ZM311.251 319.024H308.739V321.456H311.251C312.179 321.456 312.643 321.04 312.643 320.208C312.643 319.835 312.52 319.547 312.275 319.344C312.04 319.131 311.699 319.024 311.251 319.024ZM311.571 324.976C312.04 324.976 312.398 324.864 312.643 324.64C312.899 324.416 313.027 324.101 313.027 323.696C313.027 323.323 312.899 323.029 312.643 322.816C312.398 322.592 312.04 322.48 311.571 322.48H308.739V324.976H311.571Z" fill="white"/>
<path d="M39.048 363L41.112 359.432H41.144L46.008 351H48.952L41.992 363H39.048ZM41.112 361.256L35.128 351H38.12L42.984 359.368L41.112 361.256ZM49.8529 353.896H59.2609V363H56.5889V354.696L57.8209 355.912H51.1809L52.3329 354.92C52.3862 355.571 52.4289 356.173 52.4609 356.728C52.5035 357.272 52.5249 357.763 52.5249 358.2C52.5249 359.949 52.2635 361.219 51.7409 362.008C51.2289 362.797 50.3969 363.192 49.2449 363.192C48.9249 363.192 48.6155 363.155 48.3169 363.08C48.0289 363.016 47.7462 362.904 47.4689 362.744V360.808C47.6609 360.883 47.8475 360.941 48.0289 360.984C48.2209 361.016 48.3969 361.032 48.5569 361.032C49.1009 361.032 49.4902 360.787 49.7249 360.296C49.9702 359.795 50.0929 358.973 50.0929 357.832C50.0929 357.32 50.0715 356.733 50.0289 356.072C49.9969 355.411 49.9382 354.685 49.8529 353.896ZM71.5573 363.24C70.4372 363.24 69.4559 363.043 68.6132 362.648C67.7706 362.243 67.1146 361.683 66.6452 360.968C66.1866 360.243 65.9572 359.405 65.9572 358.456C65.9572 357.496 66.1866 356.659 66.6452 355.944C67.1146 355.219 67.7706 354.659 68.6132 354.264C69.4559 353.859 70.4372 353.656 71.5573 353.656C72.6772 353.656 73.6586 353.859 74.5012 354.264C75.3439 354.659 75.9999 355.219 76.4692 355.944C76.9386 356.659 77.1733 357.496 77.1733 358.456C77.1733 359.405 76.9386 360.243 76.4692 360.968C75.9999 361.683 75.3439 362.243 74.5012 362.648C73.6586 363.043 72.6772 363.24 71.5573 363.24ZM61.7492 363V353.896H64.4212V363H61.7492ZM63.2532 359.368V357.368H67.6532V359.368H63.2532ZM71.5573 361.208C72.1652 361.208 72.6826 361.096 73.1093 360.872C73.5466 360.648 73.8826 360.333 74.1172 359.928C74.3519 359.512 74.4692 359.021 74.4692 358.456C74.4692 357.88 74.3519 357.389 74.1172 356.984C73.8826 356.568 73.5466 356.248 73.1093 356.024C72.6826 355.8 72.1652 355.688 71.5573 355.688C70.9599 355.688 70.4426 355.8 70.0052 356.024C69.5679 356.248 69.2319 356.568 68.9972 356.984C68.7626 357.389 68.6452 357.88 68.6452 358.456C68.6452 359.021 68.7626 359.512 68.9972 359.928C69.2319 360.333 69.5679 360.648 70.0052 360.872C70.4426 361.096 70.9599 361.208 71.5573 361.208ZM84.782 363.24C83.534 363.24 82.4673 363.005 81.582 362.536C80.6967 362.056 80.0193 361.368 79.55 360.472C79.0807 359.576 78.846 358.493 78.846 357.224C78.846 355.336 79.3527 353.848 80.366 352.76C81.3793 351.672 82.83 351.048 84.718 350.888C85.486 350.824 86.1207 350.771 86.622 350.728C87.1233 350.685 87.534 350.643 87.854 350.6C88.1847 350.547 88.462 350.493 88.686 350.44C88.91 350.376 89.1287 350.307 89.342 350.232V352.456C89.118 352.541 88.83 352.621 88.478 352.696C88.1367 352.76 87.6993 352.813 87.166 352.856C86.6433 352.899 85.998 352.941 85.23 352.984C83.8327 353.048 82.7927 353.432 82.11 354.136C81.4273 354.84 81.086 355.853 81.086 357.176V357.608L80.99 357.416C81.2033 356.84 81.5287 356.344 81.966 355.928C82.4033 355.512 82.926 355.197 83.534 354.984C84.1527 354.76 84.8193 354.648 85.534 354.648C86.462 354.648 87.2727 354.824 87.966 355.176C88.6593 355.517 89.198 356.003 89.582 356.632C89.9767 357.261 90.174 357.997 90.174 358.84C90.174 359.725 89.95 360.499 89.502 361.16C89.054 361.821 88.4247 362.333 87.614 362.696C86.814 363.059 85.87 363.24 84.782 363.24ZM84.846 361.208C85.3793 361.208 85.8433 361.112 86.238 360.92C86.6327 360.728 86.9367 360.456 87.15 360.104C87.3633 359.752 87.47 359.341 87.47 358.872C87.47 358.403 87.3633 357.997 87.15 357.656C86.9367 357.304 86.6327 357.032 86.238 356.84C85.8433 356.648 85.3793 356.552 84.846 356.552C84.11 356.552 83.4593 356.749 82.894 357.144C82.3287 357.528 81.902 358.067 81.614 358.76C81.7847 359.507 82.158 360.104 82.734 360.552C83.3207 360.989 84.0247 361.208 84.846 361.208ZM93.5585 353.896H102.966V363H100.294V354.696L101.526 355.912H94.8865L96.0385 354.92C96.0918 355.571 96.1345 356.173 96.1665 356.728C96.2092 357.272 96.2305 357.763 96.2305 358.2C96.2305 359.949 95.9692 361.219 95.4465 362.008C94.9345 362.797 94.1025 363.192 92.9505 363.192C92.6305 363.192 92.3212 363.155 92.0225 363.08C91.7345 363.016 91.4518 362.904 91.1745 362.744V360.808C91.3665 360.883 91.5532 360.941 91.7345 360.984C91.9265 361.016 92.1025 361.032 92.2625 361.032C92.8065 361.032 93.1958 360.787 93.4305 360.296C93.6758 359.795 93.7985 358.973 93.7985 357.832C93.7985 357.32 93.7772 356.733 93.7345 356.072C93.7025 355.411 93.6438 354.685 93.5585 353.896ZM110.591 363.24C109.514 363.24 108.548 363.043 107.695 362.648C106.852 362.243 106.186 361.677 105.695 360.952C105.215 360.227 104.975 359.384 104.975 358.424C104.975 357.475 105.204 356.643 105.663 355.928C106.132 355.213 106.772 354.659 107.583 354.264C108.394 353.859 109.316 353.656 110.351 353.656C111.407 353.656 112.314 353.891 113.071 354.36C113.828 354.819 114.41 355.469 114.815 356.312C115.231 357.155 115.439 358.147 115.439 359.288H107.119V357.512H113.999L112.959 358.152C112.916 357.619 112.783 357.165 112.559 356.792C112.346 356.419 112.052 356.131 111.679 355.928C111.306 355.725 110.868 355.624 110.367 355.624C109.823 355.624 109.348 355.736 108.943 355.96C108.548 356.173 108.239 356.477 108.015 356.872C107.802 357.256 107.695 357.709 107.695 358.232C107.695 358.861 107.834 359.4 108.111 359.848C108.388 360.296 108.794 360.637 109.327 360.872C109.86 361.107 110.506 361.224 111.263 361.224C111.946 361.224 112.634 361.128 113.327 360.936C114.02 360.733 114.644 360.451 115.199 360.088V361.88C114.602 362.307 113.903 362.643 113.103 362.888C112.314 363.123 111.476 363.24 110.591 363.24ZM117.482 353.896H120.138V363H117.482V353.896ZM125.114 353.896H127.77V363H125.114V353.896ZM119.002 357.352H126.154V359.368H119.002V357.352ZM130.259 363V353.896H132.883V361.592L132.227 361.416L137.715 353.896H141.155V363H138.531V355.16L139.187 355.352L133.603 363H130.259ZM143.645 363V353.896H146.269V361.592L145.613 361.416L151.101 353.896H154.541V363H151.917V355.16L152.573 355.352L146.989 363H143.645ZM149.021 353.064C147.986 353.064 147.154 352.813 146.525 352.312C145.896 351.8 145.506 351.059 145.357 350.088H147.453C147.528 350.547 147.698 350.899 147.965 351.144C148.242 351.379 148.594 351.496 149.021 351.496C149.448 351.496 149.794 351.379 150.061 351.144C150.328 350.899 150.504 350.547 150.589 350.088H152.669C152.53 351.059 152.141 351.8 151.501 352.312C150.872 352.813 150.045 353.064 149.021 353.064ZM169.157 353.896V355.944H163.045L164.277 354.728V363H161.605V353.896H169.157ZM173.426 365.88C172.829 365.88 172.29 365.805 171.81 365.656C171.33 365.507 170.877 365.288 170.45 365V363.08C170.898 363.368 171.325 363.576 171.73 363.704C172.136 363.832 172.584 363.896 173.074 363.896C173.512 363.896 173.901 363.795 174.242 363.592C174.584 363.4 174.866 363.053 175.09 362.552L178.882 353.896H181.714L177.17 363.416C176.893 364.013 176.557 364.493 176.162 364.856C175.768 365.219 175.336 365.48 174.866 365.64C174.408 365.8 173.928 365.88 173.426 365.88ZM174.002 362.424L169.986 353.896H172.93L176.61 362.424H174.002ZM183.268 353.896H185.94V356.792L185.828 357.144V359.336L185.94 359.992V365.64H183.268V353.896ZM185.012 358.456C185.193 357.485 185.508 356.643 185.956 355.928C186.415 355.203 186.985 354.643 187.668 354.248C188.361 353.853 189.129 353.656 189.972 353.656C190.868 353.656 191.652 353.859 192.324 354.264C193.007 354.659 193.54 355.219 193.924 355.944C194.308 356.659 194.5 357.496 194.5 358.456C194.5 359.405 194.308 360.243 193.924 360.968C193.54 361.683 193.007 362.243 192.324 362.648C191.652 363.043 190.868 363.24 189.972 363.24C189.119 363.24 188.351 363.043 187.668 362.648C186.996 362.253 186.431 361.699 185.972 360.984C185.513 360.259 185.193 359.416 185.012 358.456ZM191.796 358.456C191.796 357.923 191.684 357.453 191.46 357.048C191.247 356.632 190.948 356.312 190.564 356.088C190.18 355.853 189.737 355.736 189.236 355.736C188.735 355.736 188.26 355.853 187.812 356.088C187.364 356.312 186.969 356.632 186.628 357.048C186.297 357.453 186.036 357.923 185.844 358.456C186.036 358.989 186.297 359.459 186.628 359.864C186.969 360.269 187.364 360.589 187.812 360.824C188.26 361.048 188.735 361.16 189.236 361.16C189.737 361.16 190.18 361.048 190.564 360.824C190.948 360.589 191.247 360.269 191.46 359.864C191.684 359.459 191.796 358.989 191.796 358.456ZM199.049 354.824H201.721V363H199.049V354.824ZM195.433 353.896H205.337V355.944H195.433V353.896ZM208.513 363.144C208.065 363.144 207.691 363 207.393 362.712C207.105 362.424 206.961 362.061 206.961 361.624C206.961 361.187 207.105 360.824 207.393 360.536C207.691 360.248 208.065 360.104 208.513 360.104C208.971 360.104 209.345 360.248 209.633 360.536C209.931 360.824 210.081 361.187 210.081 361.624C210.081 362.061 209.931 362.424 209.633 362.712C209.345 363 208.971 363.144 208.513 363.144ZM208.513 357.48C208.065 357.48 207.691 357.336 207.393 357.048C207.105 356.76 206.961 356.397 206.961 355.96C206.961 355.523 207.105 355.16 207.393 354.872C207.691 354.584 208.065 354.44 208.513 354.44C208.971 354.44 209.345 354.584 209.633 354.872C209.931 355.16 210.081 355.523 210.081 355.96C210.081 356.397 209.931 356.76 209.633 357.048C209.345 357.336 208.971 357.48 208.513 357.48Z" fill="white"/>
<path d="M259.32 350.8V351.856H255.88V362H254.76V351.856H251.32V350.8H259.32ZM264.985 353.808C265.955 353.808 266.718 354.107 267.273 354.704C267.838 355.291 268.121 356.085 268.121 357.088V362H267.065V357.088C267.065 356.373 266.873 355.819 266.489 355.424C266.115 355.029 265.582 354.832 264.889 354.832C264.121 354.832 263.497 355.077 263.017 355.568C262.537 356.048 262.297 356.795 262.297 357.808V362H261.241V350.8H262.297V355.248C262.894 354.288 263.79 353.808 264.985 353.808ZM274.338 353.808C275.522 353.808 276.477 354.229 277.202 355.072C277.938 355.904 278.306 356.891 278.306 358.032C278.306 358.149 278.296 358.315 278.274 358.528H271.25C271.357 359.339 271.698 359.984 272.274 360.464C272.861 360.933 273.581 361.168 274.434 361.168C275.042 361.168 275.565 361.045 276.002 360.8C276.45 360.544 276.786 360.213 277.01 359.808L277.938 360.352C277.586 360.917 277.106 361.365 276.498 361.696C275.89 362.027 275.197 362.192 274.418 362.192C273.16 362.192 272.136 361.797 271.346 361.008C270.557 360.219 270.162 359.216 270.162 358C270.162 356.805 270.552 355.808 271.33 355.008C272.109 354.208 273.112 353.808 274.338 353.808ZM274.338 354.832C273.506 354.832 272.808 355.083 272.242 355.584C271.688 356.075 271.357 356.715 271.25 357.504H277.218C277.112 356.661 276.786 356.005 276.242 355.536C275.698 355.067 275.064 354.832 274.338 354.832ZM290.338 362.192C288.642 362.192 287.24 361.632 286.13 360.512C285.021 359.392 284.466 358.021 284.466 356.4C284.466 354.779 285.021 353.408 286.13 352.288C287.24 351.168 288.642 350.608 290.338 350.608C291.373 350.608 292.322 350.859 293.186 351.36C294.05 351.851 294.717 352.517 295.186 353.36L294.194 353.936C293.842 353.253 293.32 352.709 292.626 352.304C291.933 351.899 291.17 351.696 290.338 351.696C288.941 351.696 287.8 352.149 286.914 353.056C286.029 353.963 285.586 355.077 285.586 356.4C285.586 357.723 286.029 358.837 286.914 359.744C287.8 360.651 288.941 361.104 290.338 361.104C291.17 361.104 291.933 360.901 292.626 360.496C293.32 360.091 293.842 359.547 294.194 358.864L295.186 359.424C294.728 360.267 294.061 360.939 293.186 361.44C292.322 361.941 291.373 362.192 290.338 362.192ZM302.98 354H304.036V362H302.98V360.752C302.383 361.712 301.487 362.192 300.292 362.192C299.321 362.192 298.553 361.899 297.988 361.312C297.433 360.715 297.156 359.915 297.156 358.912V354H298.212V358.912C298.212 359.627 298.399 360.181 298.772 360.576C299.156 360.971 299.695 361.168 300.388 361.168C301.156 361.168 301.78 360.928 302.26 360.448C302.74 359.957 302.98 359.205 302.98 358.192V354ZM307.806 355.328C308.297 354.357 309.139 353.872 310.334 353.872V354.896C309.609 354.896 309.006 355.109 308.526 355.536C308.046 355.963 307.806 356.635 307.806 357.552V362H306.75V354H307.806V355.328ZM315.473 353.808C316.657 353.808 317.612 354.229 318.337 355.072C319.073 355.904 319.441 356.891 319.441 358.032C319.441 358.149 319.43 358.315 319.409 358.528H312.385C312.492 359.339 312.833 359.984 313.409 360.464C313.996 360.933 314.716 361.168 315.569 361.168C316.177 361.168 316.7 361.045 317.137 360.8C317.585 360.544 317.921 360.213 318.145 359.808L319.073 360.352C318.721 360.917 318.241 361.365 317.633 361.696C317.025 362.027 316.332 362.192 315.553 362.192C314.294 362.192 313.27 361.797 312.481 361.008C311.692 360.219 311.297 359.216 311.297 358C311.297 356.805 311.686 355.808 312.465 355.008C313.244 354.208 314.246 353.808 315.473 353.808ZM315.473 354.832C314.641 354.832 313.942 355.083 313.377 355.584C312.822 356.075 312.492 356.715 312.385 357.504H318.353C318.246 356.661 317.921 356.005 317.377 355.536C316.833 355.067 316.198 354.832 315.473 354.832Z" fill="white"/>
</svg>
