<svg width="451" height="545" viewBox="0 0 451 545" fill="none" xmlns="http://www.w3.org/2000/svg">
<path d="M378.403 70.5602L77.9613 8.49361C59.4475 4.66895 43.5967 22.0681 49.1254 40.1463C50.381 44.2521 50.5532 48.6129 49.6251 52.8049L6.1843 249.019C5.47817 252.208 5.08631 255.459 5.01433 258.725L0.459985 465.361C0.234305 475.601 3.15854 485.662 8.83723 494.186L24.2099 517.259C35.4018 534.058 55.5967 542.479 75.4076 538.609L408.339 473.565C432.417 468.861 449.525 447.382 448.725 422.862L439.754 147.917C439.432 138.038 436.189 128.477 430.436 120.441L408.942 90.4198C401.622 80.1952 390.718 73.1043 378.403 70.5602Z" fill="#C0B7EE"/>
<path d="M36.3453 175V163H39.0493V172.792L38.2813 172.248L45.7053 163H48.6013L38.7933 175H36.3453ZM42.0733 169.128L44.0253 167.384L48.7773 175H45.6733L42.0733 169.128ZM50.2107 165.8L51.5387 166.056L52.8827 165.8V175H50.2107V165.8ZM51.5387 164.856C51.0587 164.856 50.664 164.734 50.3547 164.488C50.056 164.232 49.9067 163.896 49.9067 163.48C49.9067 163.054 50.056 162.718 50.3547 162.472C50.664 162.216 51.0587 162.088 51.5387 162.088C52.0293 162.088 52.424 162.216 52.7227 162.472C53.0213 162.718 53.1707 163.054 53.1707 163.48C53.1707 163.896 53.0213 164.232 52.7227 164.488C52.424 164.734 52.0293 164.856 51.5387 164.856ZM56.9462 165.896H66.3542V175H63.6822V166.696L64.9142 167.912H58.2742L59.4262 166.92C59.4795 167.571 59.5222 168.174 59.5542 168.728C59.5968 169.272 59.6182 169.763 59.6182 170.2C59.6182 171.95 59.3568 173.219 58.8342 174.008C58.3222 174.798 57.4902 175.192 56.3382 175.192C56.0182 175.192 55.7088 175.155 55.4102 175.08C55.1222 175.016 54.8395 174.904 54.5622 174.744V172.808C54.7542 172.883 54.9408 172.942 55.1222 172.984C55.3142 173.016 55.4902 173.032 55.6502 173.032C56.1942 173.032 56.5835 172.787 56.8182 172.296C57.0635 171.795 57.1862 170.974 57.1862 169.832C57.1862 169.32 57.1648 168.734 57.1222 168.072C57.0902 167.411 57.0315 166.686 56.9462 165.896ZM68.8425 175V165.896H71.4985V174.312L70.6345 173.08H74.1865C74.6772 173.08 75.0559 172.963 75.3225 172.728C75.5892 172.483 75.7225 172.152 75.7225 171.736C75.7225 171.299 75.5892 170.963 75.3225 170.728C75.0559 170.483 74.6772 170.36 74.1865 170.36H70.6505V168.52H74.5865C75.3652 168.52 76.0372 168.659 76.6025 168.936C77.1785 169.203 77.6265 169.582 77.9465 170.072C78.2665 170.552 78.4265 171.118 78.4265 171.768C78.4265 172.408 78.2665 172.974 77.9465 173.464C77.6265 173.955 77.1839 174.334 76.6185 174.6C76.0532 174.867 75.3865 175 74.6185 175H68.8425ZM80.2132 175V165.896H82.8852V172.84L82.1012 172.568L87.5252 165.896H90.4372L82.6132 175H80.2132ZM87.6532 175L84.9332 170.536L86.9012 169.016L90.7092 175H87.6532ZM92.0994 165.8L93.4274 166.056L94.7714 165.8V175H92.0994V165.8ZM93.4274 164.856C92.9474 164.856 92.5527 164.734 92.2434 164.488C91.9447 164.232 91.7954 163.896 91.7954 163.48C91.7954 163.054 91.9447 162.718 92.2434 162.472C92.5527 162.216 92.9474 162.088 93.4274 162.088C93.9181 162.088 94.3127 162.216 94.6114 162.472C94.9101 162.718 95.0594 163.054 95.0594 163.48C95.0594 163.896 94.9101 164.232 94.6114 164.488C94.3127 164.734 93.9181 164.856 93.4274 164.856ZM107.715 171.288C107.608 172.067 107.304 172.755 106.803 173.352C106.312 173.95 105.678 174.414 104.899 174.744C104.12 175.075 103.251 175.24 102.291 175.24C101.203 175.24 100.243 175.043 99.4109 174.648C98.5896 174.243 97.9442 173.678 97.4749 172.952C97.0162 172.227 96.7869 171.395 96.7869 170.456C96.7869 169.507 97.0162 168.675 97.4749 167.96C97.9442 167.235 98.5896 166.67 99.4109 166.264C100.243 165.859 101.203 165.656 102.291 165.656C103.251 165.656 104.12 165.827 104.899 166.168C105.678 166.499 106.312 166.963 106.803 167.56C107.304 168.147 107.608 168.835 107.715 169.624H105.043C104.904 169.006 104.584 168.531 104.083 168.2C103.592 167.859 102.995 167.688 102.291 167.688C101.726 167.688 101.23 167.8 100.803 168.024C100.387 168.238 100.067 168.552 99.8429 168.968C99.6189 169.374 99.5069 169.87 99.5069 170.456C99.5069 171.032 99.6189 171.528 99.8429 171.944C100.067 172.35 100.387 172.664 100.803 172.888C101.23 173.102 101.726 173.208 102.291 173.208C103.006 173.208 103.608 173.032 104.099 172.68C104.6 172.328 104.915 171.864 105.043 171.288H107.715ZM112.126 166.824H114.798V175H112.126V166.824ZM108.51 165.896H118.414V167.944H108.51V165.896ZM120.118 175V165.896H122.774V174.312L121.91 173.08H125.462C125.952 173.08 126.331 172.963 126.598 172.728C126.864 172.483 126.998 172.152 126.998 171.736C126.998 171.299 126.864 170.963 126.598 170.728C126.331 170.483 125.952 170.36 125.462 170.36H121.926V168.52H125.862C126.64 168.52 127.312 168.659 127.878 168.936C128.454 169.203 128.902 169.582 129.222 170.072C129.542 170.552 129.702 171.118 129.702 171.768C129.702 172.408 129.542 172.974 129.222 173.464C128.902 173.955 128.459 174.334 127.894 174.6C127.328 174.867 126.662 175 125.894 175H120.118ZM36.1213 185.896H38.7933V188.792L38.6813 189.144V191.336L38.7933 191.992V197.64H36.1213V185.896ZM37.8653 190.456C38.0466 189.486 38.3613 188.643 38.8093 187.928C39.2679 187.203 39.8386 186.643 40.5213 186.248C41.2146 185.854 41.9826 185.656 42.8253 185.656C43.7213 185.656 44.5053 185.859 45.1773 186.264C45.8599 186.659 46.3933 187.219 46.7773 187.944C47.1613 188.659 47.3533 189.496 47.3533 190.456C47.3533 191.406 47.1613 192.243 46.7773 192.968C46.3933 193.683 45.8599 194.243 45.1773 194.648C44.5053 195.043 43.7213 195.24 42.8253 195.24C41.9719 195.24 41.2039 195.043 40.5213 194.648C39.8493 194.254 39.2839 193.699 38.8253 192.984C38.3666 192.259 38.0466 191.416 37.8653 190.456ZM44.6493 190.456C44.6493 189.923 44.5373 189.454 44.3133 189.048C44.0999 188.632 43.8013 188.312 43.4173 188.088C43.0333 187.854 42.5906 187.736 42.0893 187.736C41.5879 187.736 41.1133 187.854 40.6653 188.088C40.2173 188.312 39.8226 188.632 39.4813 189.048C39.1506 189.454 38.8893 189.923 38.6973 190.456C38.8893 190.99 39.1506 191.459 39.4813 191.864C39.8226 192.27 40.2173 192.59 40.6653 192.824C41.1133 193.048 41.5879 193.16 42.0893 193.16C42.5906 193.16 43.0333 193.048 43.4173 192.824C43.8013 192.59 44.0999 192.27 44.3133 191.864C44.5373 191.459 44.6493 190.99 44.6493 190.456ZM54.5342 195.24C53.4568 195.24 52.4915 195.043 51.6382 194.648C50.7955 194.243 50.1288 193.678 49.6382 192.952C49.1582 192.227 48.9182 191.384 48.9182 190.424C48.9182 189.475 49.1475 188.643 49.6062 187.928C50.0755 187.214 50.7155 186.659 51.5262 186.264C52.3368 185.859 53.2595 185.656 54.2942 185.656C55.3502 185.656 56.2568 185.891 57.0142 186.36C57.7715 186.819 58.3528 187.47 58.7582 188.312C59.1742 189.155 59.3822 190.147 59.3822 191.288H51.0622V189.512H57.9422L56.9022 190.152C56.8595 189.619 56.7262 189.166 56.5022 188.792C56.2888 188.419 55.9955 188.131 55.6222 187.928C55.2488 187.726 54.8115 187.624 54.3102 187.624C53.7662 187.624 53.2915 187.736 52.8862 187.96C52.4915 188.174 52.1822 188.478 51.9582 188.872C51.7448 189.256 51.6382 189.71 51.6382 190.232C51.6382 190.862 51.7768 191.4 52.0542 191.848C52.3315 192.296 52.7368 192.638 53.2702 192.872C53.8035 193.107 54.4488 193.224 55.2062 193.224C55.8888 193.224 56.5768 193.128 57.2702 192.936C57.9635 192.734 58.5875 192.451 59.1422 192.088V193.88C58.5448 194.307 57.8462 194.643 57.0462 194.888C56.2568 195.123 55.4195 195.24 54.5342 195.24ZM69.761 195L69.377 191.672L69.809 190.456L69.377 189.256L69.761 185.896H72.529L72.001 190.456L72.529 195H69.761ZM70.465 190.456C70.2944 191.416 69.9797 192.259 69.521 192.984C69.073 193.699 68.5024 194.254 67.809 194.648C67.1264 195.043 66.3584 195.24 65.505 195.24C64.6197 195.24 63.8357 195.043 63.153 194.648C62.4704 194.243 61.937 193.683 61.553 192.968C61.1797 192.243 60.993 191.406 60.993 190.456C60.993 189.496 61.1797 188.659 61.553 187.944C61.937 187.219 62.4704 186.659 63.153 186.264C63.8357 185.859 64.6197 185.656 65.505 185.656C66.3584 185.656 67.1264 185.854 67.809 186.248C68.5024 186.643 69.0784 187.203 69.537 187.928C69.9957 188.643 70.305 189.486 70.465 190.456ZM63.697 190.456C63.697 190.99 63.8037 191.459 64.017 191.864C64.241 192.27 64.545 192.59 64.929 192.824C65.313 193.048 65.7557 193.16 66.257 193.16C66.7584 193.16 67.2277 193.048 67.665 192.824C68.113 192.59 68.5077 192.27 68.849 191.864C69.1904 191.459 69.457 190.99 69.649 190.456C69.457 189.923 69.1904 189.454 68.849 189.048C68.5077 188.632 68.113 188.312 67.665 188.088C67.2277 187.854 66.7584 187.736 66.257 187.736C65.7557 187.736 65.313 187.854 64.929 188.088C64.545 188.312 64.241 188.632 64.017 189.048C63.8037 189.454 63.697 189.923 63.697 190.456ZM76.3637 185.896H85.7717V195H83.0997V186.696L84.3317 187.912H77.6917L78.8437 186.92C78.897 187.571 78.9397 188.174 78.9717 188.728C79.0143 189.272 79.0357 189.763 79.0357 190.2C79.0357 191.95 78.7743 193.219 78.2517 194.008C77.7397 194.798 76.9077 195.192 75.7557 195.192C75.4357 195.192 75.1263 195.155 74.8277 195.08C74.5397 195.016 74.257 194.904 73.9797 194.744V192.808C74.1717 192.883 74.3583 192.942 74.5397 192.984C74.7317 193.016 74.9077 193.032 75.0677 193.032C75.6117 193.032 76.001 192.787 76.2357 192.296C76.481 191.795 76.6037 190.974 76.6037 189.832C76.6037 189.32 76.5823 188.734 76.5397 188.072C76.5077 187.411 76.449 186.686 76.3637 185.896ZM88.26 185.8L89.588 186.056L90.932 185.8V195H88.26V185.8ZM89.588 184.856C89.108 184.856 88.7134 184.734 88.404 184.488C88.1054 184.232 87.956 183.896 87.956 183.48C87.956 183.054 88.1054 182.718 88.404 182.472C88.7134 182.216 89.108 182.088 89.588 182.088C90.0787 182.088 90.4734 182.216 90.772 182.472C91.0707 182.718 91.22 183.054 91.22 183.48C91.22 183.896 91.0707 184.232 90.772 184.488C90.4734 184.734 90.0787 184.856 89.588 184.856ZM97.9235 195.24C96.9102 195.24 96.0249 195.112 95.2675 194.856C94.5102 194.59 93.9182 194.211 93.4915 193.72C93.0649 193.219 92.8302 192.632 92.7875 191.96H95.3795C95.4542 192.408 95.7102 192.75 96.1475 192.984C96.5849 193.219 97.1769 193.336 97.9235 193.336C98.6382 193.336 99.1929 193.246 99.5875 193.064C99.9929 192.872 100.196 192.579 100.196 192.184C100.196 191.864 100.025 191.63 99.6835 191.48C99.3529 191.32 98.8195 191.24 98.0835 191.24H96.3875V189.64H98.0355C98.6969 189.64 99.1822 189.544 99.4915 189.352C99.8115 189.16 99.9715 188.92 99.9715 188.632C99.9715 188.28 99.7849 188.014 99.4115 187.832C99.0489 187.651 98.5582 187.56 97.9395 187.56C97.2569 187.56 96.7075 187.667 96.2915 187.88C95.8755 188.094 95.6302 188.414 95.5555 188.84H92.9795C93.0222 188.254 93.2462 187.72 93.6515 187.24C94.0569 186.76 94.6275 186.376 95.3635 186.088C96.1102 185.8 97.0062 185.656 98.0515 185.656C98.9795 185.656 99.7902 185.768 100.484 185.992C101.177 186.216 101.716 186.526 102.1 186.92C102.484 187.315 102.676 187.768 102.676 188.28C102.676 188.686 102.548 189.059 102.292 189.4C102.046 189.742 101.646 190.014 101.092 190.216C100.548 190.419 99.8329 190.52 98.9475 190.52V190.248C100.217 190.195 101.193 190.35 101.876 190.712C102.569 191.075 102.916 191.63 102.916 192.376C102.916 192.92 102.718 193.411 102.324 193.848C101.94 194.286 101.374 194.627 100.628 194.872C99.8809 195.118 98.9795 195.24 97.9235 195.24ZM110.186 195.24C109.055 195.24 108.063 195.043 107.21 194.648C106.357 194.243 105.69 193.683 105.21 192.968C104.73 192.243 104.49 191.406 104.49 190.456C104.49 189.496 104.73 188.659 105.21 187.944C105.69 187.219 106.357 186.659 107.21 186.264C108.063 185.859 109.055 185.656 110.186 185.656C111.317 185.656 112.309 185.859 113.162 186.264C114.015 186.659 114.677 187.219 115.146 187.944C115.626 188.659 115.866 189.496 115.866 190.456C115.866 191.406 115.626 192.243 115.146 192.968C114.677 193.683 114.015 194.243 113.162 194.648C112.309 195.043 111.317 195.24 110.186 195.24ZM110.186 193.208C110.805 193.208 111.333 193.096 111.77 192.872C112.218 192.648 112.559 192.334 112.794 191.928C113.039 191.512 113.162 191.022 113.162 190.456C113.162 189.88 113.039 189.39 112.794 188.984C112.559 188.568 112.218 188.248 111.77 188.024C111.333 187.8 110.805 187.688 110.186 187.688C109.578 187.688 109.05 187.8 108.602 188.024C108.154 188.248 107.807 188.568 107.562 188.984C107.327 189.39 107.21 189.88 107.21 190.456C107.21 191.022 107.327 191.512 107.562 191.928C107.807 192.334 108.154 192.648 108.602 192.872C109.05 193.096 109.578 193.208 110.186 193.208ZM117.648 195L118.16 190.456L117.648 185.896H124.656C125.531 185.896 126.224 186.104 126.736 186.52C127.248 186.926 127.504 187.48 127.504 188.184C127.504 188.846 127.248 189.384 126.736 189.8C126.224 190.206 125.509 190.446 124.592 190.52L124.784 190.072C125.851 190.104 126.661 190.328 127.216 190.744C127.781 191.15 128.064 191.72 128.064 192.456C128.064 193.246 127.776 193.87 127.2 194.328C126.635 194.776 125.856 195 124.864 195H117.648ZM120.224 194.408L119.2 193.272H124.048C124.507 193.272 124.843 193.182 125.056 193C125.269 192.808 125.376 192.542 125.376 192.2C125.376 191.891 125.259 191.64 125.024 191.448C124.789 191.246 124.405 191.144 123.872 191.144H119.744V189.624H123.52C123.968 189.624 124.293 189.534 124.496 189.352C124.709 189.171 124.816 188.926 124.816 188.616C124.816 188.328 124.72 188.094 124.528 187.912C124.347 187.731 124.048 187.64 123.632 187.64H119.216L120.224 186.504L120.72 190.456L120.224 194.408ZM138.407 195L138.023 191.672L138.455 190.456L138.023 189.256L138.407 185.896H141.175L140.647 190.456L141.175 195H138.407ZM139.111 190.456C138.94 191.416 138.625 192.259 138.167 192.984C137.719 193.699 137.148 194.254 136.455 194.648C135.772 195.043 135.004 195.24 134.151 195.24C133.265 195.24 132.481 195.043 131.799 194.648C131.116 194.243 130.583 193.683 130.199 192.968C129.825 192.243 129.639 191.406 129.639 190.456C129.639 189.496 129.825 188.659 130.199 187.944C130.583 187.219 131.116 186.659 131.799 186.264C132.481 185.859 133.265 185.656 134.151 185.656C135.004 185.656 135.772 185.854 136.455 186.248C137.148 186.643 137.724 187.203 138.183 187.928C138.641 188.643 138.951 189.486 139.111 190.456ZM132.343 190.456C132.343 190.99 132.449 191.459 132.663 191.864C132.887 192.27 133.191 192.59 133.575 192.824C133.959 193.048 134.401 193.16 134.903 193.16C135.404 193.16 135.873 193.048 136.311 192.824C136.759 192.59 137.153 192.27 137.495 191.864C137.836 191.459 138.103 190.99 138.295 190.456C138.103 189.923 137.836 189.454 137.495 189.048C137.153 188.632 136.759 188.312 136.311 188.088C135.873 187.854 135.404 187.736 134.903 187.736C134.401 187.736 133.959 187.854 133.575 188.088C133.191 188.312 132.887 188.632 132.663 189.048C132.449 189.454 132.343 189.923 132.343 190.456ZM143.441 185.896H146.097V195H143.441V185.896ZM151.073 185.896H153.729V195H151.073V185.896ZM144.961 189.352H152.113V191.368H144.961V189.352ZM156.218 195V185.896H158.842V193.592L158.186 193.416L163.674 185.896H167.114V195H164.49V187.16L165.146 187.352L159.562 195H156.218ZM168.452 195L172.756 189.848L172.74 190.84L168.708 185.896H171.7L174.548 189.32H173.62L176.484 185.896H179.428L175.268 190.888L175.14 189.64L179.668 195H176.628L173.524 191.32H174.5L171.428 195H168.452ZM46.3453 205.896V215H43.6733V206.696L44.9053 207.912H37.5613L38.7933 206.696V215H36.1213V205.896H46.3453ZM48.8357 205.896H51.5077V208.792L51.3957 209.144V211.336L51.5077 211.992V217.64H48.8357V205.896ZM50.5797 210.456C50.761 209.486 51.0757 208.643 51.5237 207.928C51.9823 207.203 52.553 206.643 53.2357 206.248C53.929 205.854 54.697 205.656 55.5397 205.656C56.4357 205.656 57.2197 205.859 57.8917 206.264C58.5743 206.659 59.1077 207.219 59.4917 207.944C59.8757 208.659 60.0677 209.496 60.0677 210.456C60.0677 211.406 59.8757 212.243 59.4917 212.968C59.1077 213.683 58.5743 214.243 57.8917 214.648C57.2197 215.043 56.4357 215.24 55.5397 215.24C54.6863 215.24 53.9183 215.043 53.2357 214.648C52.5637 214.254 51.9983 213.699 51.5397 212.984C51.081 212.259 50.761 211.416 50.5797 210.456ZM57.3637 210.456C57.3637 209.923 57.2517 209.454 57.0277 209.048C56.8143 208.632 56.5157 208.312 56.1317 208.088C55.7477 207.854 55.305 207.736 54.8037 207.736C54.3023 207.736 53.8277 207.854 53.3797 208.088C52.9317 208.312 52.537 208.632 52.1957 209.048C51.865 209.454 51.6037 209.923 51.4117 210.456C51.6037 210.99 51.865 211.459 52.1957 211.864C52.537 212.27 52.9317 212.59 53.3797 212.824C53.8277 213.048 54.3023 213.16 54.8037 213.16C55.305 213.16 55.7477 213.048 56.1317 212.824C56.5157 212.59 56.8143 212.27 57.0277 211.864C57.2517 211.459 57.3637 210.99 57.3637 210.456ZM67.3285 215.24C66.1979 215.24 65.2059 215.043 64.3525 214.648C63.4992 214.243 62.8325 213.683 62.3525 212.968C61.8725 212.243 61.6325 211.406 61.6325 210.456C61.6325 209.496 61.8725 208.659 62.3525 207.944C62.8325 207.219 63.4992 206.659 64.3525 206.264C65.2059 205.859 66.1979 205.656 67.3285 205.656C68.4592 205.656 69.4512 205.859 70.3045 206.264C71.1579 206.659 71.8192 207.219 72.2885 207.944C72.7685 208.659 73.0085 209.496 73.0085 210.456C73.0085 211.406 72.7685 212.243 72.2885 212.968C71.8192 213.683 71.1579 214.243 70.3045 214.648C69.4512 215.043 68.4592 215.24 67.3285 215.24ZM67.3285 213.208C67.9472 213.208 68.4752 213.096 68.9125 212.872C69.3605 212.648 69.7019 212.334 69.9365 211.928C70.1819 211.512 70.3045 211.022 70.3045 210.456C70.3045 209.88 70.1819 209.39 69.9365 208.984C69.7019 208.568 69.3605 208.248 68.9125 208.024C68.4752 207.8 67.9472 207.688 67.3285 207.688C66.7205 207.688 66.1925 207.8 65.7445 208.024C65.2965 208.248 64.9499 208.568 64.7045 208.984C64.4699 209.39 64.3525 209.88 64.3525 210.456C64.3525 211.022 64.4699 211.512 64.7045 211.928C64.9499 212.334 65.2965 212.648 65.7445 212.872C66.1925 213.096 66.7205 213.208 67.3285 213.208ZM80.1817 215.24C79.1043 215.24 78.139 215.043 77.2857 214.648C76.443 214.243 75.7763 213.678 75.2857 212.952C74.8057 212.227 74.5657 211.384 74.5657 210.424C74.5657 209.475 74.795 208.643 75.2537 207.928C75.723 207.214 76.363 206.659 77.1737 206.264C77.9843 205.859 78.907 205.656 79.9417 205.656C80.9977 205.656 81.9043 205.891 82.6617 206.36C83.419 206.819 84.0003 207.47 84.4057 208.312C84.8217 209.155 85.0297 210.147 85.0297 211.288H76.7097V209.512H83.5897L82.5497 210.152C82.507 209.619 82.3737 209.166 82.1497 208.792C81.9363 208.419 81.643 208.131 81.2697 207.928C80.8963 207.726 80.459 207.624 79.9577 207.624C79.4137 207.624 78.939 207.736 78.5337 207.96C78.139 208.174 77.8297 208.478 77.6057 208.872C77.3923 209.256 77.2857 209.71 77.2857 210.232C77.2857 210.862 77.4243 211.4 77.7017 211.848C77.979 212.296 78.3843 212.638 78.9177 212.872C79.451 213.107 80.0963 213.224 80.8537 213.224C81.5363 213.224 82.2243 213.128 82.9177 212.936C83.611 212.734 84.235 212.451 84.7897 212.088V213.88C84.1923 214.307 83.4937 214.643 82.6937 214.888C81.9043 215.123 81.067 215.24 80.1817 215.24ZM87.0725 215V205.896H89.7445V212.84L88.9605 212.568L94.3845 205.896H97.2965L89.4725 215H87.0725ZM94.5125 215L91.7925 210.536L93.7605 209.016L97.5685 215H94.5125ZM101.791 206.824H104.463V215H101.791V206.824ZM98.1748 205.896H108.079V207.944H98.1748V205.896ZM109.783 205.8L111.111 206.056L112.455 205.8V215H109.783V205.8ZM111.111 204.856C110.631 204.856 110.236 204.734 109.927 204.488C109.628 204.232 109.479 203.896 109.479 203.48C109.479 203.054 109.628 202.718 109.927 202.472C110.236 202.216 110.631 202.088 111.111 202.088C111.601 202.088 111.996 202.216 112.295 202.472C112.593 202.718 112.743 203.054 112.743 203.48C112.743 203.896 112.593 204.232 112.295 204.488C111.996 204.734 111.601 204.856 111.111 204.856ZM114.726 215L115.238 210.456L114.726 205.896H121.734C122.609 205.896 123.302 206.104 123.814 206.52C124.326 206.926 124.582 207.48 124.582 208.184C124.582 208.846 124.326 209.384 123.814 209.8C123.302 210.206 122.587 210.446 121.67 210.52L121.862 210.072C122.929 210.104 123.739 210.328 124.294 210.744C124.859 211.15 125.142 211.72 125.142 212.456C125.142 213.246 124.854 213.87 124.278 214.328C123.713 214.776 122.934 215 121.942 215H114.726ZM117.302 214.408L116.278 213.272H121.126C121.585 213.272 121.921 213.182 122.134 213C122.347 212.808 122.454 212.542 122.454 212.2C122.454 211.891 122.337 211.64 122.102 211.448C121.867 211.246 121.483 211.144 120.95 211.144H116.822V209.624H120.598C121.046 209.624 121.371 209.534 121.574 209.352C121.787 209.171 121.894 208.926 121.894 208.616C121.894 208.328 121.798 208.094 121.606 207.912C121.425 207.731 121.126 207.64 120.71 207.64H116.294L117.302 206.504L117.798 210.456L117.302 214.408ZM35.8973 235L36.4093 230.456L35.8973 225.896H42.9053C43.7799 225.896 44.4733 226.104 44.9853 226.52C45.4973 226.926 45.7533 227.48 45.7533 228.184C45.7533 228.846 45.4973 229.384 44.9853 229.8C44.4733 230.206 43.7586 230.446 42.8413 230.52L43.0333 230.072C44.0999 230.104 44.9106 230.328 45.4653 230.744C46.0306 231.15 46.3133 231.72 46.3133 232.456C46.3133 233.246 46.0253 233.87 45.4493 234.328C44.8839 234.776 44.1053 235 43.1133 235H35.8973ZM38.4733 234.408L37.4493 233.272H42.2973C42.7559 233.272 43.0919 233.182 43.3053 233C43.5186 232.808 43.6253 232.542 43.6253 232.2C43.6253 231.891 43.5079 231.64 43.2733 231.448C43.0386 231.246 42.6546 231.144 42.1213 231.144H37.9933V229.624H41.7693C42.2173 229.624 42.5426 229.534 42.7453 229.352C42.9586 229.171 43.0653 228.926 43.0653 228.616C43.0653 228.328 42.9693 228.094 42.7773 227.912C42.5959 227.731 42.2973 227.64 41.8813 227.64H37.4653L38.4733 226.504L38.9693 230.456L38.4733 234.408ZM52.4778 231.08H55.2298C55.2938 231.486 55.4698 231.843 55.7578 232.152C56.0564 232.451 56.4511 232.686 56.9418 232.856C57.4431 233.016 58.0191 233.096 58.6698 233.096C59.6191 233.096 60.3658 232.963 60.9098 232.696C61.4644 232.419 61.7418 232.035 61.7418 231.544C61.7418 231.16 61.5818 230.867 61.2618 230.664C60.9524 230.451 60.3711 230.296 59.5178 230.2L57.1018 229.928C55.5444 229.758 54.4138 229.395 53.7098 228.84C53.0164 228.275 52.6698 227.491 52.6698 226.488C52.6698 225.699 52.8991 225.027 53.3578 224.472C53.8271 223.918 54.4831 223.496 55.3258 223.208C56.1684 222.91 57.1604 222.76 58.3018 222.76C59.4111 222.76 60.3978 222.926 61.2618 223.256C62.1258 223.576 62.8138 224.03 63.3258 224.616C63.8378 225.192 64.1151 225.87 64.1578 226.648H61.4058C61.3524 226.296 61.1924 225.992 60.9258 225.736C60.6698 225.47 60.3124 225.267 59.8538 225.128C59.3951 224.979 58.8564 224.904 58.2378 224.904C57.3738 224.904 56.6858 225.032 56.1738 225.288C55.6618 225.544 55.4058 225.907 55.4058 226.376C55.4058 226.739 55.5551 227.022 55.8538 227.224C56.1631 227.416 56.7018 227.56 57.4698 227.656L59.9818 227.96C61.0911 228.078 61.9711 228.27 62.6218 228.536C63.2831 228.792 63.7524 229.139 64.0298 229.576C64.3178 230.014 64.4618 230.568 64.4618 231.24C64.4618 232.04 64.2164 232.744 63.7258 233.352C63.2458 233.95 62.5684 234.414 61.6938 234.744C60.8191 235.075 59.7951 235.24 58.6218 235.24C57.4271 235.24 56.3764 235.07 55.4698 234.728C54.5631 234.376 53.8484 233.891 53.3258 233.272C52.8031 232.643 52.5204 231.912 52.4778 231.08ZM70.3704 235.24C69.5277 235.24 68.8077 235.07 68.2104 234.728C67.6237 234.376 67.1704 233.88 66.8504 233.24C66.5411 232.6 66.3864 231.843 66.3864 230.968V225.896H69.0584V230.568C69.0584 231.379 69.2504 231.998 69.6344 232.424C70.0184 232.84 70.5624 233.048 71.2664 233.048C71.7891 233.048 72.2317 232.942 72.5944 232.728C72.9677 232.504 73.2557 232.184 73.4584 231.768C73.6611 231.352 73.7624 230.867 73.7624 230.312L74.6264 230.776C74.5197 231.715 74.2691 232.52 73.8744 233.192C73.4797 233.854 72.9784 234.36 72.3704 234.712C71.7731 235.064 71.1064 235.24 70.3704 235.24ZM74.3224 235L73.7624 231.544V225.896H76.4344V231.944L76.9944 235H74.3224ZM79.0569 222.68H81.7289V228.792L81.3609 229.512V231.496L81.7289 232.232V235H79.0569V222.68ZM80.7849 230.456C80.9556 229.486 81.2702 228.643 81.7289 227.928C82.1876 227.203 82.7582 226.643 83.4409 226.248C84.1236 225.854 84.8916 225.656 85.7449 225.656C86.6302 225.656 87.4142 225.859 88.0969 226.264C88.7796 226.659 89.3129 227.219 89.6969 227.944C90.0809 228.659 90.2729 229.496 90.2729 230.456C90.2729 231.406 90.0809 232.243 89.6969 232.968C89.3129 233.683 88.7796 234.243 88.0969 234.648C87.4142 235.043 86.6302 235.24 85.7449 235.24C84.8916 235.24 84.1236 235.043 83.4409 234.648C82.7582 234.254 82.1876 233.699 81.7289 232.984C81.2809 232.259 80.9662 231.416 80.7849 230.456ZM87.5529 230.456C87.5529 229.923 87.4409 229.454 87.2169 229.048C87.0036 228.632 86.7049 228.312 86.3209 228.088C85.9369 227.854 85.4996 227.736 85.0089 227.736C84.5076 227.736 84.0329 227.854 83.5849 228.088C83.1369 228.312 82.7422 228.632 82.4009 229.048C82.0702 229.454 81.8089 229.923 81.6169 230.456C81.8089 230.99 82.0702 231.459 82.4009 231.864C82.7422 232.27 83.1369 232.59 83.5849 232.824C84.0329 233.048 84.5076 233.16 85.0089 233.16C85.4996 233.16 85.9369 233.048 86.3209 232.824C86.7049 232.59 87.0036 232.27 87.2169 231.864C87.4409 231.459 87.5529 230.99 87.5529 230.456ZM91.8549 225.896H94.5269L95.1029 229.368V235H92.4309V228.968L91.8549 225.896ZM98.3509 225.656C99.1616 225.656 99.8549 225.832 100.431 226.184C101.007 226.526 101.444 227.016 101.743 227.656C102.052 228.296 102.207 229.059 102.207 229.944V235H99.5349V230.344C99.5349 229.523 99.3536 228.904 98.9909 228.488C98.6389 228.062 98.1216 227.848 97.4389 227.848C96.9589 227.848 96.5429 227.966 96.1909 228.2C95.8389 228.424 95.5669 228.739 95.3749 229.144C95.1936 229.55 95.1029 230.035 95.1029 230.6L94.2229 230.136C94.3296 229.176 94.5749 228.366 94.9589 227.704C95.3429 227.043 95.8229 226.536 96.3989 226.184C96.9856 225.832 97.6362 225.656 98.3509 225.656ZM105.439 225.656C106.25 225.656 106.943 225.832 107.519 226.184C108.106 226.526 108.548 227.016 108.847 227.656C109.156 228.296 109.311 229.059 109.311 229.944V235H106.639V230.344C106.639 229.523 106.458 228.904 106.095 228.488C105.743 228.062 105.226 227.848 104.543 227.848C104.063 227.848 103.647 227.966 103.295 228.2C102.943 228.424 102.671 228.739 102.479 229.144C102.298 229.55 102.207 230.035 102.207 230.6L101.327 230.136C101.434 229.176 101.679 228.366 102.063 227.704C102.447 227.043 102.927 226.536 103.503 226.184C104.09 225.832 104.735 225.656 105.439 225.656ZM120.009 235L119.625 231.672L120.057 230.456L119.625 229.256L120.009 225.896H122.777L122.249 230.456L122.777 235H120.009ZM120.713 230.456C120.542 231.416 120.228 232.259 119.769 232.984C119.321 233.699 118.75 234.254 118.057 234.648C117.374 235.043 116.606 235.24 115.753 235.24C114.868 235.24 114.084 235.043 113.401 234.648C112.718 234.243 112.185 233.683 111.801 232.968C111.428 232.243 111.241 231.406 111.241 230.456C111.241 229.496 111.428 228.659 111.801 227.944C112.185 227.219 112.718 226.659 113.401 226.264C114.084 225.859 114.868 225.656 115.753 225.656C116.606 225.656 117.374 225.854 118.057 226.248C118.75 226.643 119.326 227.203 119.785 227.928C120.244 228.643 120.553 229.486 120.713 230.456ZM113.945 230.456C113.945 230.99 114.052 231.459 114.265 231.864C114.489 232.27 114.793 232.59 115.177 232.824C115.561 233.048 116.004 233.16 116.505 233.16C117.006 233.16 117.476 233.048 117.913 232.824C118.361 232.59 118.756 232.27 119.097 231.864C119.438 231.459 119.705 230.99 119.897 230.456C119.705 229.923 119.438 229.454 119.097 229.048C118.756 228.632 118.361 228.312 117.913 228.088C117.476 227.854 117.006 227.736 116.505 227.736C116.004 227.736 115.561 227.854 115.177 228.088C114.793 228.312 114.489 228.632 114.265 229.048C114.052 229.454 113.945 229.923 113.945 230.456ZM124.612 225.896H127.316L127.86 229.176V235H125.188V228.888L124.612 225.896ZM132.292 225.8V228.104C132.014 228.04 131.737 227.992 131.46 227.96C131.182 227.928 130.921 227.912 130.676 227.912C130.142 227.912 129.662 228.024 129.236 228.248C128.809 228.472 128.473 228.819 128.228 229.288C127.982 229.758 127.86 230.35 127.86 231.064L127.3 230.392C127.364 229.742 127.481 229.134 127.652 228.568C127.822 227.992 128.057 227.491 128.356 227.064C128.665 226.627 129.044 226.286 129.492 226.04C129.94 225.784 130.473 225.656 131.092 225.656C131.294 225.656 131.497 225.672 131.7 225.704C131.913 225.726 132.11 225.758 132.292 225.8ZM134.008 225.8L135.336 226.056L136.68 225.8V235H134.008V225.8ZM135.336 224.856C134.856 224.856 134.461 224.734 134.152 224.488C133.853 224.232 133.704 223.896 133.704 223.48C133.704 223.054 133.853 222.718 134.152 222.472C134.461 222.216 134.856 222.088 135.336 222.088C135.827 222.088 136.221 222.216 136.52 222.472C136.819 222.718 136.968 223.054 136.968 223.48C136.968 223.896 136.819 224.232 136.52 224.488C136.221 224.734 135.827 224.856 135.336 224.856ZM138.744 225.896H141.416L141.992 229.368V235H139.32V228.968L138.744 225.896ZM145.464 225.656C146.328 225.656 147.064 225.832 147.672 226.184C148.28 226.526 148.744 227.016 149.064 227.656C149.384 228.296 149.544 229.059 149.544 229.944V235H146.872V230.344C146.872 229.523 146.674 228.904 146.28 228.488C145.885 228.062 145.309 227.848 144.552 227.848C144.04 227.848 143.586 227.966 143.192 228.2C142.808 228.424 142.509 228.739 142.296 229.144C142.093 229.55 141.992 230.035 141.992 230.6L141.112 230.136C141.218 229.176 141.474 228.366 141.88 227.704C142.285 227.043 142.797 226.536 143.416 226.184C144.034 225.832 144.717 225.656 145.464 225.656ZM157.042 235.24C155.964 235.24 154.999 235.043 154.146 234.648C153.303 234.243 152.636 233.678 152.146 232.952C151.666 232.227 151.426 231.384 151.426 230.424C151.426 229.475 151.655 228.643 152.114 227.928C152.583 227.214 153.223 226.659 154.034 226.264C154.844 225.859 155.767 225.656 156.802 225.656C157.858 225.656 158.764 225.891 159.522 226.36C160.279 226.819 160.86 227.47 161.266 228.312C161.682 229.155 161.89 230.147 161.89 231.288H153.57V229.512H160.45L159.41 230.152C159.367 229.619 159.234 229.166 159.01 228.792C158.796 228.419 158.503 228.131 158.13 227.928C157.756 227.726 157.319 227.624 156.818 227.624C156.274 227.624 155.799 227.736 155.394 227.96C154.999 228.174 154.69 228.478 154.466 228.872C154.252 229.256 154.146 229.71 154.146 230.232C154.146 230.862 154.284 231.4 154.562 231.848C154.839 232.296 155.244 232.638 155.778 232.872C156.311 233.107 156.956 233.224 157.714 233.224C158.396 233.224 159.084 233.128 159.778 232.936C160.471 232.734 161.095 232.451 161.65 232.088V233.88C161.052 234.307 160.354 234.643 159.554 234.888C158.764 235.123 157.927 235.24 157.042 235.24ZM165.405 235.144C164.957 235.144 164.583 235 164.285 234.712C163.997 234.424 163.853 234.062 163.853 233.624C163.853 233.187 163.997 232.824 164.285 232.536C164.583 232.248 164.957 232.104 165.405 232.104C165.863 232.104 166.237 232.248 166.525 232.536C166.823 232.824 166.973 233.187 166.973 233.624C166.973 234.062 166.823 234.424 166.525 234.712C166.237 235 165.863 235.144 165.405 235.144ZM165.405 229.48C164.957 229.48 164.583 229.336 164.285 229.048C163.997 228.76 163.853 228.398 163.853 227.96C163.853 227.523 163.997 227.16 164.285 226.872C164.583 226.584 164.957 226.44 165.405 226.44C165.863 226.44 166.237 226.584 166.525 226.872C166.823 227.16 166.973 227.523 166.973 227.96C166.973 228.398 166.823 228.76 166.525 229.048C166.237 229.336 165.863 229.48 165.405 229.48Z" fill="white"/>
<path d="M254.313 162.8H255.273V174H254.153V164.032L251.641 164.784L251.353 163.824L254.313 162.8ZM265.031 166.304C265.031 167.147 264.801 167.894 264.343 168.544L260.679 174H259.415L262.167 169.904C261.879 169.968 261.58 170 261.271 170C260.172 170 259.271 169.659 258.567 168.976C257.863 168.283 257.511 167.392 257.511 166.304C257.511 165.216 257.863 164.331 258.567 163.648C259.271 162.955 260.172 162.608 261.271 162.608C262.369 162.608 263.271 162.955 263.975 163.648C264.679 164.331 265.031 165.216 265.031 166.304ZM259.351 164.416C258.871 164.896 258.631 165.526 258.631 166.304C258.631 167.083 258.871 167.712 259.351 168.192C259.841 168.672 260.481 168.912 261.271 168.912C262.06 168.912 262.695 168.672 263.175 168.192C263.665 167.712 263.911 167.083 263.911 166.304C263.911 165.526 263.665 164.896 263.175 164.416C262.695 163.936 262.06 163.696 261.271 163.696C260.481 163.696 259.841 163.936 259.351 164.416ZM273.675 167.888V168.912H270.827V171.76H269.803V168.912H266.955V167.888H269.803V165.04H270.827V167.888H273.675Z" fill="white"/>
<path d="M39.1613 271L41.2253 267.432H41.2573L46.1213 259H49.0653L42.1053 271H39.1613ZM41.2253 269.256L35.2413 259H38.2333L43.0973 267.368L41.2253 269.256ZM49.9662 261.896H59.3742V271H56.7022V262.696L57.9342 263.912H51.2942L52.4462 262.92C52.4995 263.571 52.5422 264.174 52.5742 264.728C52.6168 265.272 52.6382 265.763 52.6382 266.2C52.6382 267.95 52.3768 269.219 51.8542 270.008C51.3422 270.798 50.5102 271.192 49.3582 271.192C49.0382 271.192 48.7288 271.155 48.4302 271.08C48.1422 271.016 47.8595 270.904 47.5822 270.744V268.808C47.7742 268.883 47.9608 268.942 48.1422 268.984C48.3342 269.016 48.5102 269.032 48.6702 269.032C49.2142 269.032 49.6035 268.787 49.8382 268.296C50.0835 267.795 50.2062 266.974 50.2062 265.832C50.2062 265.32 50.1848 264.734 50.1422 264.072C50.1102 263.411 50.0515 262.686 49.9662 261.896ZM71.6705 271.24C70.5505 271.24 69.5692 271.043 68.7265 270.648C67.8839 270.243 67.2279 269.683 66.7585 268.968C66.2999 268.243 66.0705 267.406 66.0705 266.456C66.0705 265.496 66.2999 264.659 66.7585 263.944C67.2279 263.219 67.8839 262.659 68.7265 262.264C69.5692 261.859 70.5505 261.656 71.6705 261.656C72.7905 261.656 73.7719 261.859 74.6145 262.264C75.4572 262.659 76.1132 263.219 76.5825 263.944C77.0519 264.659 77.2865 265.496 77.2865 266.456C77.2865 267.406 77.0519 268.243 76.5825 268.968C76.1132 269.683 75.4572 270.243 74.6145 270.648C73.7719 271.043 72.7905 271.24 71.6705 271.24ZM61.8625 271V261.896H64.5345V271H61.8625ZM63.3665 267.368V265.368H67.7665V267.368H63.3665ZM71.6705 269.208C72.2785 269.208 72.7959 269.096 73.2225 268.872C73.6599 268.648 73.9959 268.334 74.2305 267.928C74.4652 267.512 74.5825 267.022 74.5825 266.456C74.5825 265.88 74.4652 265.39 74.2305 264.984C73.9959 264.568 73.6599 264.248 73.2225 264.024C72.7959 263.8 72.2785 263.688 71.6705 263.688C71.0732 263.688 70.5559 263.8 70.1185 264.024C69.6812 264.248 69.3452 264.568 69.1105 264.984C68.8759 265.39 68.7585 265.88 68.7585 266.456C68.7585 267.022 68.8759 267.512 69.1105 267.928C69.3452 268.334 69.6812 268.648 70.1185 268.872C70.5559 269.096 71.0732 269.208 71.6705 269.208ZM84.8953 271.24C83.6473 271.24 82.5806 271.006 81.6953 270.536C80.8099 270.056 80.1326 269.368 79.6633 268.472C79.1939 267.576 78.9593 266.494 78.9593 265.224C78.9593 263.336 79.4659 261.848 80.4793 260.76C81.4926 259.672 82.9433 259.048 84.8313 258.888C85.5993 258.824 86.2339 258.771 86.7353 258.728C87.2366 258.686 87.6473 258.643 87.9673 258.6C88.2979 258.547 88.5753 258.494 88.7993 258.44C89.0233 258.376 89.2419 258.307 89.4553 258.232V260.456C89.2313 260.542 88.9433 260.622 88.5913 260.696C88.2499 260.76 87.8126 260.814 87.2793 260.856C86.7566 260.899 86.1113 260.942 85.3433 260.984C83.9459 261.048 82.9059 261.432 82.2233 262.136C81.5406 262.84 81.1993 263.854 81.1993 265.176V265.608L81.1033 265.416C81.3166 264.84 81.6419 264.344 82.0793 263.928C82.5166 263.512 83.0393 263.198 83.6473 262.984C84.2659 262.76 84.9326 262.648 85.6473 262.648C86.5753 262.648 87.3859 262.824 88.0793 263.176C88.7726 263.518 89.3113 264.003 89.6953 264.632C90.0899 265.262 90.2873 265.998 90.2873 266.84C90.2873 267.726 90.0633 268.499 89.6153 269.16C89.1673 269.822 88.5379 270.334 87.7273 270.696C86.9273 271.059 85.9833 271.24 84.8953 271.24ZM84.9593 269.208C85.4926 269.208 85.9566 269.112 86.3513 268.92C86.7459 268.728 87.0499 268.456 87.2633 268.104C87.4766 267.752 87.5833 267.342 87.5833 266.872C87.5833 266.403 87.4766 265.998 87.2633 265.656C87.0499 265.304 86.7459 265.032 86.3513 264.84C85.9566 264.648 85.4926 264.552 84.9593 264.552C84.2233 264.552 83.5726 264.75 83.0073 265.144C82.4419 265.528 82.0153 266.067 81.7273 266.76C81.8979 267.507 82.2713 268.104 82.8473 268.552C83.4339 268.99 84.1379 269.208 84.9593 269.208ZM93.6718 261.896H103.08V271H100.408V262.696L101.64 263.912H94.9998L96.1518 262.92C96.2051 263.571 96.2478 264.174 96.2798 264.728C96.3224 265.272 96.3438 265.763 96.3438 266.2C96.3438 267.95 96.0824 269.219 95.5598 270.008C95.0478 270.798 94.2158 271.192 93.0638 271.192C92.7438 271.192 92.4344 271.155 92.1358 271.08C91.8478 271.016 91.5651 270.904 91.2878 270.744V268.808C91.4798 268.883 91.6664 268.942 91.8478 268.984C92.0398 269.016 92.2158 269.032 92.3758 269.032C92.9198 269.032 93.3091 268.787 93.5438 268.296C93.7891 267.795 93.9118 266.974 93.9118 265.832C93.9118 265.32 93.8904 264.734 93.8478 264.072C93.8158 263.411 93.7571 262.686 93.6718 261.896ZM110.704 271.24C109.627 271.24 108.661 271.043 107.808 270.648C106.965 270.243 106.299 269.678 105.808 268.952C105.328 268.227 105.088 267.384 105.088 266.424C105.088 265.475 105.317 264.643 105.776 263.928C106.245 263.214 106.885 262.659 107.696 262.264C108.507 261.859 109.429 261.656 110.464 261.656C111.52 261.656 112.427 261.891 113.184 262.36C113.941 262.819 114.523 263.47 114.928 264.312C115.344 265.155 115.552 266.147 115.552 267.288H107.232V265.512H114.112L113.072 266.152C113.029 265.619 112.896 265.166 112.672 264.792C112.459 264.419 112.165 264.131 111.792 263.928C111.419 263.726 110.981 263.624 110.48 263.624C109.936 263.624 109.461 263.736 109.056 263.96C108.661 264.174 108.352 264.478 108.128 264.872C107.915 265.256 107.808 265.71 107.808 266.232C107.808 266.862 107.947 267.4 108.224 267.848C108.501 268.296 108.907 268.638 109.44 268.872C109.973 269.107 110.619 269.224 111.376 269.224C112.059 269.224 112.747 269.128 113.44 268.936C114.133 268.734 114.757 268.451 115.312 268.088V269.88C114.715 270.307 114.016 270.643 113.216 270.888C112.427 271.123 111.589 271.24 110.704 271.24ZM117.595 261.896H120.251V271H117.595V261.896ZM125.227 261.896H127.883V271H125.227V261.896ZM119.115 265.352H126.267V267.368H119.115V265.352ZM130.372 261.8L131.7 262.056L133.044 261.8V271H130.372V261.8ZM131.7 260.856C131.22 260.856 130.825 260.734 130.516 260.488C130.217 260.232 130.068 259.896 130.068 259.48C130.068 259.054 130.217 258.718 130.516 258.472C130.825 258.216 131.22 258.088 131.7 258.088C132.191 258.088 132.585 258.216 132.884 258.472C133.183 258.718 133.332 259.054 133.332 259.48C133.332 259.896 133.183 260.232 132.884 260.488C132.585 260.734 132.191 260.856 131.7 260.856ZM150.337 261.896V271H147.665V262.696L148.897 263.912H141.553L142.785 262.696V271H140.113V261.896H150.337ZM152.828 261.896H155.5V264.792L155.388 265.144V267.336L155.5 267.992V273.64H152.828V261.896ZM154.572 266.456C154.753 265.486 155.068 264.643 155.516 263.928C155.974 263.203 156.545 262.643 157.228 262.248C157.921 261.854 158.689 261.656 159.532 261.656C160.428 261.656 161.212 261.859 161.884 262.264C162.566 262.659 163.1 263.219 163.484 263.944C163.868 264.659 164.06 265.496 164.06 266.456C164.06 267.406 163.868 268.243 163.484 268.968C163.1 269.683 162.566 270.243 161.884 270.648C161.212 271.043 160.428 271.24 159.532 271.24C158.678 271.24 157.91 271.043 157.228 270.648C156.556 270.254 155.99 269.699 155.532 268.984C155.073 268.259 154.753 267.416 154.572 266.456ZM161.356 266.456C161.356 265.923 161.244 265.454 161.02 265.048C160.806 264.632 160.508 264.312 160.124 264.088C159.74 263.854 159.297 263.736 158.796 263.736C158.294 263.736 157.82 263.854 157.372 264.088C156.924 264.312 156.529 264.632 156.188 265.048C155.857 265.454 155.596 265.923 155.404 266.456C155.596 266.99 155.857 267.459 156.188 267.864C156.529 268.27 156.924 268.59 157.372 268.824C157.82 269.048 158.294 269.16 158.796 269.16C159.297 269.16 159.74 269.048 160.124 268.824C160.508 268.59 160.806 268.27 161.02 267.864C161.244 267.459 161.356 266.99 161.356 266.456ZM171.32 271.24C170.19 271.24 169.198 271.043 168.344 270.648C167.491 270.243 166.824 269.683 166.344 268.968C165.864 268.243 165.624 267.406 165.624 266.456C165.624 265.496 165.864 264.659 166.344 263.944C166.824 263.219 167.491 262.659 168.344 262.264C169.198 261.859 170.19 261.656 171.32 261.656C172.451 261.656 173.443 261.859 174.296 262.264C175.15 262.659 175.811 263.219 176.28 263.944C176.76 264.659 177 265.496 177 266.456C177 267.406 176.76 268.243 176.28 268.968C175.811 269.683 175.15 270.243 174.296 270.648C173.443 271.043 172.451 271.24 171.32 271.24ZM171.32 269.208C171.939 269.208 172.467 269.096 172.904 268.872C173.352 268.648 173.694 268.334 173.928 267.928C174.174 267.512 174.296 267.022 174.296 266.456C174.296 265.88 174.174 265.39 173.928 264.984C173.694 264.568 173.352 264.248 172.904 264.024C172.467 263.8 171.939 263.688 171.32 263.688C170.712 263.688 170.184 263.8 169.736 264.024C169.288 264.248 168.942 264.568 168.696 264.984C168.462 265.39 168.344 265.88 168.344 266.456C168.344 267.022 168.462 267.512 168.696 267.928C168.942 268.334 169.288 268.648 169.736 268.872C170.184 269.096 170.712 269.208 171.32 269.208ZM184.174 271.24C183.096 271.24 182.131 271.043 181.278 270.648C180.435 270.243 179.768 269.678 179.278 268.952C178.798 268.227 178.558 267.384 178.558 266.424C178.558 265.475 178.787 264.643 179.246 263.928C179.715 263.214 180.355 262.659 181.166 262.264C181.976 261.859 182.899 261.656 183.934 261.656C184.99 261.656 185.896 261.891 186.654 262.36C187.411 262.819 187.992 263.47 188.398 264.312C188.814 265.155 189.022 266.147 189.022 267.288H180.702V265.512H187.582L186.542 266.152C186.499 265.619 186.366 265.166 186.142 264.792C185.928 264.419 185.635 264.131 185.262 263.928C184.888 263.726 184.451 263.624 183.95 263.624C183.406 263.624 182.931 263.736 182.526 263.96C182.131 264.174 181.822 264.478 181.598 264.872C181.384 265.256 181.278 265.71 181.278 266.232C181.278 266.862 181.416 267.4 181.694 267.848C181.971 268.296 182.376 268.638 182.91 268.872C183.443 269.107 184.088 269.224 184.846 269.224C185.528 269.224 186.216 269.128 186.91 268.936C187.603 268.734 188.227 268.451 188.782 268.088V269.88C188.184 270.307 187.486 270.643 186.686 270.888C185.896 271.123 185.059 271.24 184.174 271.24ZM191.064 271V261.896H193.736V268.84L192.952 268.568L198.376 261.896H201.288L193.464 271H191.064ZM198.504 271L195.784 266.536L197.752 265.016L201.56 271H198.504ZM205.783 262.824H208.455V271H205.783V262.824ZM202.167 261.896H212.071V263.944H202.167V261.896ZM213.774 271V261.896H216.398V269.592L215.742 269.416L221.23 261.896H224.67V271H222.046V263.16L222.702 263.352L217.118 271H213.774ZM228.633 271.144C228.185 271.144 227.811 271 227.513 270.712C227.225 270.424 227.081 270.062 227.081 269.624C227.081 269.187 227.225 268.824 227.513 268.536C227.811 268.248 228.185 268.104 228.633 268.104C229.091 268.104 229.465 268.248 229.753 268.536C230.051 268.824 230.201 269.187 230.201 269.624C230.201 270.062 230.051 270.424 229.753 270.712C229.465 271 229.091 271.144 228.633 271.144ZM228.633 265.48C228.185 265.48 227.811 265.336 227.513 265.048C227.225 264.76 227.081 264.398 227.081 263.96C227.081 263.523 227.225 263.16 227.513 262.872C227.811 262.584 228.185 262.44 228.633 262.44C229.091 262.44 229.465 262.584 229.753 262.872C230.051 263.16 230.201 263.523 230.201 263.96C230.201 264.398 230.051 264.76 229.753 265.048C229.465 265.336 229.091 265.48 228.633 265.48Z" fill="white"/>
<path d="M258.601 264.192C259.145 264.427 259.577 264.784 259.897 265.264C260.228 265.734 260.393 266.272 260.393 266.88C260.393 267.744 260.089 268.48 259.481 269.088C258.873 269.696 258.137 270 257.273 270H252.393V258.8H256.905C257.737 258.8 258.447 259.099 259.033 259.696C259.62 260.283 259.913 260.987 259.913 261.808C259.913 262.854 259.476 263.648 258.601 264.192ZM256.905 259.856H253.513V263.76H256.905C257.428 263.76 257.871 263.574 258.233 263.2C258.607 262.816 258.793 262.352 258.793 261.808C258.793 261.275 258.607 260.816 258.233 260.432C257.871 260.048 257.428 259.856 256.905 259.856ZM257.273 268.944C257.828 268.944 258.297 268.747 258.681 268.352C259.076 267.947 259.273 267.456 259.273 266.88C259.273 266.315 259.076 265.83 258.681 265.424C258.297 265.019 257.828 264.816 257.273 264.816H253.513V268.944H257.273ZM269.515 262H270.571V270H269.515V268.432C268.779 269.606 267.702 270.192 266.283 270.192C265.142 270.192 264.166 269.787 263.355 268.976C262.555 268.166 262.155 267.174 262.155 266C262.155 264.827 262.555 263.835 263.355 263.024C264.166 262.214 265.142 261.808 266.283 261.808C267.702 261.808 268.779 262.395 269.515 263.568V262ZM264.123 268.256C264.731 268.864 265.478 269.168 266.363 269.168C267.248 269.168 267.995 268.864 268.603 268.256C269.211 267.638 269.515 266.886 269.515 266C269.515 265.115 269.211 264.368 268.603 263.76C267.995 263.142 267.248 262.832 266.363 262.832C265.478 262.832 264.731 263.142 264.123 263.76C263.515 264.368 263.211 265.115 263.211 266C263.211 266.886 263.515 267.638 264.123 268.256ZM274.343 263.328C274.834 262.358 275.676 261.872 276.871 261.872V262.896C276.146 262.896 275.543 263.11 275.063 263.536C274.583 263.963 274.343 264.635 274.343 265.552V270H273.287V262H274.343V263.328ZM283.086 261.808C284.228 261.808 285.198 262.214 285.998 263.024C286.809 263.835 287.214 264.827 287.214 266C287.214 267.174 286.809 268.166 285.998 268.976C285.198 269.787 284.228 270.192 283.086 270.192C281.668 270.192 280.59 269.606 279.854 268.432V270H278.798V258.8H279.854V263.568C280.59 262.395 281.668 261.808 283.086 261.808ZM280.766 268.256C281.374 268.864 282.121 269.168 283.006 269.168C283.892 269.168 284.638 268.864 285.246 268.256C285.854 267.638 286.158 266.886 286.158 266C286.158 265.115 285.854 264.368 285.246 263.76C284.638 263.142 283.892 262.832 283.006 262.832C282.121 262.832 281.374 263.142 280.766 263.76C280.158 264.368 279.854 265.115 279.854 266C279.854 266.886 280.158 267.638 280.766 268.256ZM293.146 261.808C294.33 261.808 295.285 262.23 296.01 263.072C296.746 263.904 297.114 264.891 297.114 266.032C297.114 266.15 297.103 266.315 297.082 266.528H290.058C290.165 267.339 290.506 267.984 291.082 268.464C291.669 268.934 292.389 269.168 293.242 269.168C293.85 269.168 294.373 269.046 294.81 268.8C295.258 268.544 295.594 268.214 295.818 267.808L296.746 268.352C296.394 268.918 295.914 269.366 295.306 269.696C294.698 270.027 294.005 270.192 293.226 270.192C291.967 270.192 290.943 269.798 290.154 269.008C289.365 268.219 288.97 267.216 288.97 266C288.97 264.806 289.359 263.808 290.138 263.008C290.917 262.208 291.919 261.808 293.146 261.808ZM293.146 262.832C292.314 262.832 291.615 263.083 291.05 263.584C290.495 264.075 290.165 264.715 290.058 265.504H296.026C295.919 264.662 295.594 264.006 295.05 263.536C294.506 263.067 293.871 262.832 293.146 262.832ZM300.33 263.328C300.821 262.358 301.663 261.872 302.858 261.872V262.896C302.133 262.896 301.53 263.11 301.05 263.536C300.57 263.963 300.33 264.635 300.33 265.552V270H299.274V262H300.33V263.328ZM255.961 290.192C254.756 290.192 253.753 289.792 252.953 288.992C252.153 288.182 251.753 287.184 251.753 286C251.753 284.816 252.153 283.824 252.953 283.024C253.753 282.214 254.756 281.808 255.961 281.808C256.751 281.808 257.46 282 258.089 282.384C258.719 282.758 259.177 283.264 259.465 283.904L258.601 284.4C258.388 283.92 258.041 283.542 257.561 283.264C257.092 282.976 256.559 282.832 255.961 282.832C255.076 282.832 254.329 283.142 253.721 283.76C253.113 284.368 252.809 285.115 252.809 286C252.809 286.886 253.113 287.638 253.721 288.256C254.329 288.864 255.076 289.168 255.961 289.168C256.559 289.168 257.092 289.03 257.561 288.752C258.031 288.464 258.399 288.08 258.665 287.6L259.545 288.112C259.215 288.752 258.729 289.259 258.089 289.632C257.449 290.006 256.74 290.192 255.961 290.192ZM268.167 288.992C267.357 289.792 266.365 290.192 265.191 290.192C264.018 290.192 263.021 289.792 262.199 288.992C261.389 288.182 260.983 287.184 260.983 286C260.983 284.816 261.389 283.824 262.199 283.024C263.021 282.214 264.018 281.808 265.191 281.808C266.365 281.808 267.357 282.214 268.167 283.024C268.989 283.824 269.399 284.816 269.399 286C269.399 287.184 268.989 288.182 268.167 288.992ZM262.951 288.256C263.559 288.864 264.306 289.168 265.191 289.168C266.077 289.168 266.823 288.864 267.431 288.256C268.039 287.638 268.343 286.886 268.343 286C268.343 285.115 268.039 284.368 267.431 283.76C266.823 283.142 266.077 282.832 265.191 282.832C264.306 282.832 263.559 283.142 262.951 283.76C262.343 284.368 262.039 285.115 262.039 286C262.039 286.886 262.343 287.638 262.951 288.256ZM280.174 281.808C281.07 281.808 281.79 282.096 282.334 282.672C282.889 283.248 283.166 284.027 283.166 285.008V290H282.11V285.008C282.11 284.315 281.929 283.782 281.566 283.408C281.214 283.024 280.745 282.832 280.158 282.832C279.497 282.832 278.958 283.056 278.542 283.504C278.137 283.942 277.934 284.63 277.934 285.568V290H276.878V285.008C276.878 284.304 276.708 283.766 276.366 283.392C276.036 283.019 275.582 282.832 275.006 282.832C274.366 282.832 273.822 283.056 273.374 283.504C272.926 283.952 272.702 284.64 272.702 285.568V290H271.646V282H272.702V283.168C273.278 282.262 274.094 281.808 275.15 281.808C276.302 281.808 277.113 282.294 277.582 283.264C278.158 282.294 279.022 281.808 280.174 281.808ZM289.977 281.808C291.118 281.808 292.089 282.214 292.889 283.024C293.7 283.835 294.105 284.827 294.105 286C294.105 287.174 293.7 288.166 292.889 288.976C292.089 289.787 291.118 290.192 289.977 290.192C288.558 290.192 287.481 289.606 286.745 288.432V293.2H285.689V282H286.745V283.568C287.481 282.395 288.558 281.808 289.977 281.808ZM287.657 288.256C288.265 288.864 289.012 289.168 289.897 289.168C290.782 289.168 291.529 288.864 292.137 288.256C292.745 287.638 293.049 286.886 293.049 286C293.049 285.115 292.745 284.368 292.137 283.76C291.529 283.142 290.782 282.832 289.897 282.832C289.012 282.832 288.265 283.142 287.657 283.76C287.049 284.368 286.745 285.115 286.745 286C286.745 286.886 287.049 287.638 287.657 288.256ZM303.221 282H304.277V290H303.221V288.432C302.485 289.606 301.407 290.192 299.989 290.192C298.847 290.192 297.871 289.787 297.061 288.976C296.261 288.166 295.861 287.174 295.861 286C295.861 284.827 296.261 283.835 297.061 283.024C297.871 282.214 298.847 281.808 299.989 281.808C301.407 281.808 302.485 282.395 303.221 283.568V282ZM297.829 288.256C298.437 288.864 299.183 289.168 300.069 289.168C300.954 289.168 301.701 288.864 302.309 288.256C302.917 287.638 303.221 286.886 303.221 286C303.221 285.115 302.917 284.368 302.309 283.76C301.701 283.142 300.954 282.832 300.069 282.832C299.183 282.832 298.437 283.142 297.829 283.76C297.221 284.368 296.917 285.115 296.917 286C296.917 286.886 297.221 287.638 297.829 288.256ZM310.737 281.808C311.707 281.808 312.47 282.107 313.025 282.704C313.59 283.291 313.873 284.086 313.873 285.088V290H312.817V285.088C312.817 284.374 312.625 283.819 312.241 283.424C311.867 283.03 311.334 282.832 310.641 282.832C309.873 282.832 309.249 283.078 308.769 283.568C308.289 284.048 308.049 284.795 308.049 285.808V290H306.993V282H308.049V283.248C308.646 282.288 309.542 281.808 310.737 281.808ZM321.998 282H323.118L319.694 290.736C319.385 291.526 318.942 292.144 318.366 292.592C317.801 293.051 317.166 293.254 316.462 293.2V292.208C317.422 292.315 318.153 291.76 318.654 290.544L318.862 290.048L315.278 282H316.398L319.406 288.704L321.998 282ZM325.197 288.64L324.237 292.24H323.277L323.917 288.64H325.197ZM341.665 288.512C340.545 289.632 339.174 290.192 337.553 290.192C335.931 290.192 334.561 289.632 333.441 288.512C332.321 287.382 331.761 286.011 331.761 284.4C331.761 282.79 332.321 281.424 333.441 280.304C334.561 279.174 335.931 278.608 337.553 278.608C339.174 278.608 340.545 279.174 341.665 280.304C342.785 281.424 343.345 282.79 343.345 284.4C343.345 286.011 342.785 287.382 341.665 288.512ZM334.225 287.744C335.121 288.651 336.23 289.104 337.553 289.104C338.875 289.104 339.985 288.651 340.881 287.744C341.777 286.827 342.225 285.712 342.225 284.4C342.225 283.088 341.777 281.979 340.881 281.072C339.985 280.155 338.875 279.696 337.553 279.696C336.23 279.696 335.121 280.155 334.225 281.072C333.329 281.979 332.881 283.088 332.881 284.4C332.881 285.712 333.329 286.827 334.225 287.744ZM353.58 290H352.108L346.86 284.576V290H345.74V278.8H346.86V283.92L351.948 278.8H353.42L348.044 284.24L353.58 290ZM363.341 290H361.869L356.621 284.576V290H355.501V278.8H356.621V283.92L361.709 278.8H363.181L357.805 284.24L363.341 290ZM373.574 288.512C372.454 289.632 371.083 290.192 369.462 290.192C367.84 290.192 366.47 289.632 365.35 288.512C364.23 287.382 363.67 286.011 363.67 284.4C363.67 282.79 364.23 281.424 365.35 280.304C366.47 279.174 367.84 278.608 369.462 278.608C371.083 278.608 372.454 279.174 373.574 280.304C374.694 281.424 375.254 282.79 375.254 284.4C375.254 286.011 374.694 287.382 373.574 288.512ZM366.134 287.744C367.03 288.651 368.139 289.104 369.462 289.104C370.784 289.104 371.894 288.651 372.79 287.744C373.686 286.827 374.134 285.712 374.134 284.4C374.134 283.088 373.686 281.979 372.79 281.072C371.894 280.155 370.784 279.696 369.462 279.696C368.139 279.696 367.03 280.155 366.134 281.072C365.238 281.979 364.79 283.088 364.79 284.4C364.79 285.712 365.238 286.827 366.134 287.744ZM378.452 288.64L377.492 292.24H376.532L377.172 288.64H378.452ZM260.233 310H258.761L253.513 304.576V310H252.393V298.8H253.513V303.92L258.601 298.8H260.073L254.697 304.24L260.233 310ZM268.156 302H269.212V310H268.156V308.432C267.42 309.606 266.342 310.192 264.924 310.192C263.782 310.192 262.806 309.787 261.996 308.976C261.196 308.166 260.796 307.174 260.796 306C260.796 304.827 261.196 303.835 261.996 303.024C262.806 302.214 263.782 301.808 264.924 301.808C266.342 301.808 267.42 302.395 268.156 303.568V302ZM262.764 308.256C263.372 308.864 264.118 309.168 265.004 309.168C265.889 309.168 266.636 308.864 267.244 308.256C267.852 307.638 268.156 306.886 268.156 306C268.156 305.115 267.852 304.368 267.244 303.76C266.636 303.142 265.889 302.832 265.004 302.832C264.118 302.832 263.372 303.142 262.764 303.76C262.156 304.368 261.852 305.115 261.852 306C261.852 306.886 262.156 307.638 262.764 308.256ZM272.76 304.096C272.76 304.459 272.92 304.747 273.24 304.96C273.56 305.174 273.949 305.339 274.408 305.456C274.866 305.574 275.325 305.707 275.784 305.856C276.242 305.995 276.632 306.235 276.952 306.576C277.272 306.907 277.432 307.344 277.432 307.888C277.432 308.571 277.16 309.126 276.616 309.552C276.082 309.979 275.389 310.192 274.536 310.192C273.768 310.192 273.112 310.022 272.568 309.68C272.034 309.339 271.661 308.896 271.448 308.352L272.344 307.824C272.493 308.24 272.76 308.571 273.144 308.816C273.538 309.051 274.002 309.168 274.536 309.168C275.058 309.168 275.496 309.067 275.848 308.864C276.2 308.651 276.376 308.326 276.376 307.888C276.376 307.526 276.216 307.238 275.896 307.024C275.576 306.811 275.186 306.646 274.728 306.528C274.269 306.411 273.81 306.283 273.352 306.144C272.893 305.995 272.504 305.755 272.184 305.424C271.864 305.083 271.704 304.64 271.704 304.096C271.704 303.446 271.96 302.902 272.472 302.464C272.994 302.027 273.65 301.808 274.44 301.808C275.09 301.808 275.661 301.958 276.152 302.256C276.642 302.544 277.005 302.939 277.24 303.44L276.36 303.952C276.05 303.206 275.41 302.832 274.44 302.832C273.981 302.832 273.586 302.944 273.256 303.168C272.925 303.382 272.76 303.691 272.76 304.096ZM283.369 301.808C284.553 301.808 285.508 302.23 286.233 303.072C286.969 303.904 287.337 304.891 287.337 306.032C287.337 306.15 287.327 306.315 287.305 306.528H280.281C280.388 307.339 280.729 307.984 281.305 308.464C281.892 308.934 282.612 309.168 283.465 309.168C284.073 309.168 284.596 309.046 285.033 308.8C285.481 308.544 285.817 308.214 286.041 307.808L286.969 308.352C286.617 308.918 286.137 309.366 285.529 309.696C284.921 310.027 284.228 310.192 283.449 310.192C282.191 310.192 281.167 309.798 280.377 309.008C279.588 308.219 279.193 307.216 279.193 306C279.193 304.806 279.583 303.808 280.361 303.008C281.14 302.208 282.143 301.808 283.369 301.808ZM283.369 302.832C282.537 302.832 281.839 303.083 281.273 303.584C280.719 304.075 280.388 304.715 280.281 305.504H286.249C286.143 304.662 285.817 304.006 285.273 303.536C284.729 303.067 284.095 302.832 283.369 302.832ZM290.553 303.328C291.044 302.358 291.886 301.872 293.081 301.872V302.896C292.356 302.896 291.753 303.11 291.273 303.536C290.793 303.963 290.553 304.635 290.553 305.552V310H289.497V302H290.553V303.328ZM298.22 301.808C299.404 301.808 300.359 302.23 301.084 303.072C301.82 303.904 302.188 304.891 302.188 306.032C302.188 306.15 302.177 306.315 302.156 306.528H295.132C295.239 307.339 295.58 307.984 296.156 308.464C296.743 308.934 297.463 309.168 298.316 309.168C298.924 309.168 299.447 309.046 299.884 308.8C300.332 308.544 300.668 308.214 300.892 307.808L301.82 308.352C301.468 308.918 300.988 309.366 300.38 309.696C299.772 310.027 299.079 310.192 298.3 310.192C297.041 310.192 296.017 309.798 295.228 309.008C294.439 308.219 294.044 307.216 294.044 306C294.044 304.806 294.433 303.808 295.212 303.008C295.991 302.208 296.993 301.808 298.22 301.808ZM298.22 302.832C297.388 302.832 296.689 303.083 296.124 303.584C295.569 304.075 295.239 304.715 295.132 305.504H301.1C300.993 304.662 300.668 304.006 300.124 303.536C299.58 303.067 298.945 302.832 298.22 302.832ZM305.42 300.08C305.27 300.23 305.089 300.304 304.876 300.304C304.662 300.304 304.481 300.23 304.332 300.08C304.182 299.931 304.108 299.75 304.108 299.536C304.108 299.323 304.182 299.142 304.332 298.992C304.481 298.843 304.662 298.768 304.876 298.768C305.089 298.768 305.27 298.843 305.42 298.992C305.569 299.142 305.644 299.323 305.644 299.536C305.644 299.75 305.569 299.931 305.42 300.08ZM304.348 310V302H305.404V310H304.348ZM309.469 309.904C309.298 310.075 309.09 310.16 308.845 310.16C308.599 310.16 308.391 310.075 308.221 309.904C308.05 309.734 307.965 309.526 307.965 309.28C307.965 309.035 308.05 308.827 308.221 308.656C308.391 308.486 308.599 308.4 308.845 308.4C309.09 308.4 309.298 308.486 309.469 308.656C309.639 308.827 309.725 309.035 309.725 309.28C309.725 309.526 309.639 309.734 309.469 309.904ZM255.961 330.192C254.756 330.192 253.753 329.792 252.953 328.992C252.153 328.182 251.753 327.184 251.753 326C251.753 324.816 252.153 323.824 252.953 323.024C253.753 322.214 254.756 321.808 255.961 321.808C256.751 321.808 257.46 322 258.089 322.384C258.719 322.758 259.177 323.264 259.465 323.904L258.601 324.4C258.388 323.92 258.041 323.542 257.561 323.264C257.092 322.976 256.559 322.832 255.961 322.832C255.076 322.832 254.329 323.142 253.721 323.76C253.113 324.368 252.809 325.115 252.809 326C252.809 326.886 253.113 327.638 253.721 328.256C254.329 328.864 255.076 329.168 255.961 329.168C256.559 329.168 257.092 329.03 257.561 328.752C258.031 328.464 258.399 328.08 258.665 327.6L259.545 328.112C259.215 328.752 258.729 329.259 258.089 329.632C257.449 330.006 256.74 330.192 255.961 330.192ZM265.285 321.808C266.256 321.808 267.019 322.107 267.573 322.704C268.139 323.291 268.421 324.086 268.421 325.088V330H267.365V325.088C267.365 324.374 267.173 323.819 266.789 323.424C266.416 323.03 265.883 322.832 265.189 322.832C264.421 322.832 263.797 323.078 263.317 323.568C262.837 324.048 262.597 324.795 262.597 325.808V330H261.541V318.8H262.597V323.248C263.195 322.288 264.091 321.808 265.285 321.808ZM277.823 322H278.879V330H277.823V328.432C277.087 329.606 276.01 330.192 274.591 330.192C273.45 330.192 272.474 329.787 271.663 328.976C270.863 328.166 270.463 327.174 270.463 326C270.463 324.827 270.863 323.835 271.663 323.024C272.474 322.214 273.45 321.808 274.591 321.808C276.01 321.808 277.087 322.395 277.823 323.568V322ZM272.431 328.256C273.039 328.864 273.786 329.168 274.671 329.168C275.557 329.168 276.303 328.864 276.911 328.256C277.519 327.638 277.823 326.886 277.823 326C277.823 325.115 277.519 324.368 276.911 323.76C276.303 323.142 275.557 322.832 274.671 322.832C273.786 322.832 273.039 323.142 272.431 323.76C271.823 324.368 271.519 325.115 271.519 326C271.519 326.886 271.823 327.638 272.431 328.256ZM290.123 321.808C291.019 321.808 291.739 322.096 292.283 322.672C292.838 323.248 293.115 324.027 293.115 325.008V330H292.059V325.008C292.059 324.315 291.878 323.782 291.515 323.408C291.163 323.024 290.694 322.832 290.107 322.832C289.446 322.832 288.907 323.056 288.491 323.504C288.086 323.942 287.883 324.63 287.883 325.568V330H286.827V325.008C286.827 324.304 286.656 323.766 286.315 323.392C285.984 323.019 285.531 322.832 284.955 322.832C284.315 322.832 283.771 323.056 283.323 323.504C282.875 323.952 282.651 324.64 282.651 325.568V330H281.595V322H282.651V323.168C283.227 322.262 284.043 321.808 285.099 321.808C286.251 321.808 287.062 322.294 287.531 323.264C288.107 322.294 288.971 321.808 290.123 321.808ZM299.926 321.808C301.067 321.808 302.038 322.214 302.838 323.024C303.648 323.835 304.054 324.827 304.054 326C304.054 327.174 303.648 328.166 302.838 328.976C302.038 329.787 301.067 330.192 299.926 330.192C298.507 330.192 297.43 329.606 296.694 328.432V333.2H295.638V322H296.694V323.568C297.43 322.395 298.507 321.808 299.926 321.808ZM297.606 328.256C298.214 328.864 298.96 329.168 299.846 329.168C300.731 329.168 301.478 328.864 302.086 328.256C302.694 327.638 302.998 326.886 302.998 326C302.998 325.115 302.694 324.368 302.086 323.76C301.478 323.142 300.731 322.832 299.846 322.832C298.96 322.832 298.214 323.142 297.606 323.76C296.998 324.368 296.694 325.115 296.694 326C296.694 326.886 296.998 327.638 297.606 328.256ZM307.362 320.08C307.212 320.23 307.031 320.304 306.818 320.304C306.604 320.304 306.423 320.23 306.274 320.08C306.124 319.931 306.05 319.75 306.05 319.536C306.05 319.323 306.124 319.142 306.274 318.992C306.423 318.843 306.604 318.768 306.818 318.768C307.031 318.768 307.212 318.843 307.362 318.992C307.511 319.142 307.586 319.323 307.586 319.536C307.586 319.75 307.511 319.931 307.362 320.08ZM306.29 330V322H307.346V330H306.29ZM316.946 322H318.002V329.68C318.002 330.832 317.608 331.739 316.818 332.4C316.029 333.062 315.085 333.392 313.986 333.392C312.109 333.392 310.845 332.742 310.194 331.44L311.122 330.912C311.602 331.883 312.557 332.368 313.986 332.368C314.904 332.368 315.624 332.123 316.146 331.632C316.68 331.152 316.946 330.502 316.946 329.68V328.432C316.21 329.606 315.133 330.192 313.714 330.192C312.573 330.192 311.597 329.787 310.786 328.976C309.986 328.166 309.586 327.174 309.586 326C309.586 324.827 309.986 323.835 310.786 323.024C311.597 322.214 312.573 321.808 313.714 321.808C315.133 321.808 316.21 322.395 316.946 323.568V322ZM311.554 328.256C312.162 328.864 312.909 329.168 313.794 329.168C314.68 329.168 315.426 328.864 316.034 328.256C316.642 327.638 316.946 326.886 316.946 326C316.946 325.115 316.642 324.368 316.034 323.76C315.426 323.142 314.68 322.832 313.794 322.832C312.909 322.832 312.162 323.142 311.554 323.76C310.946 324.368 310.642 325.115 310.642 326C310.642 326.886 310.946 327.638 311.554 328.256ZM324.462 321.808C325.433 321.808 326.196 322.107 326.75 322.704C327.316 323.291 327.598 324.086 327.598 325.088V330H326.542V325.088C326.542 324.374 326.35 323.819 325.966 323.424C325.593 323.03 325.06 322.832 324.366 322.832C323.598 322.832 322.974 323.078 322.494 323.568C322.014 324.048 321.774 324.795 321.774 325.808V330H320.718V322H321.774V323.248C322.372 322.288 323.268 321.808 324.462 321.808ZM336.824 328.992C336.013 329.792 335.021 330.192 333.848 330.192C332.675 330.192 331.677 329.792 330.856 328.992C330.045 328.182 329.64 327.184 329.64 326C329.64 324.816 330.045 323.824 330.856 323.024C331.677 322.214 332.675 321.808 333.848 321.808C335.021 321.808 336.013 322.214 336.824 323.024C337.645 323.824 338.056 324.816 338.056 326C338.056 327.184 337.645 328.182 336.824 328.992ZM331.608 328.256C332.216 328.864 332.963 329.168 333.848 329.168C334.733 329.168 335.48 328.864 336.088 328.256C336.696 327.638 337 326.886 337 326C337 325.115 336.696 324.368 336.088 323.76C335.48 323.142 334.733 322.832 333.848 322.832C332.963 322.832 332.216 323.142 331.608 323.76C331 324.368 330.696 325.115 330.696 326C330.696 326.886 331 327.638 331.608 328.256ZM344.047 321.808C345.018 321.808 345.781 322.107 346.335 322.704C346.901 323.291 347.183 324.086 347.183 325.088V330H346.127V325.088C346.127 324.374 345.935 323.819 345.551 323.424C345.178 323.03 344.645 322.832 343.951 322.832C343.183 322.832 342.559 323.078 342.079 323.568C341.599 324.048 341.359 324.795 341.359 325.808V330H340.303V322H341.359V323.248C341.957 322.288 342.853 321.808 344.047 321.808Z" fill="white"/>
<path d="M35.3693 369.448V364.6H37.6093L38.7613 364.632H47.4013L48.0573 364.6H51.2893V369.448H48.7453V367H37.9133V369.448H35.3693ZM37.9453 355H49.1933V366.136H46.4893V356.152L47.7053 357.368H39.4013L40.5373 356.488C40.6013 357.022 40.6439 357.55 40.6653 358.072C40.6866 358.595 40.6973 359.086 40.6973 359.544C40.6973 360.846 40.5959 361.95 40.3933 362.856C40.1906 363.752 39.8866 364.435 39.4813 364.904C39.0759 365.363 38.5746 365.592 37.9773 365.592L36.8573 364.648C37.3053 364.136 37.6359 363.416 37.8493 362.488C38.0733 361.55 38.1853 360.382 38.1853 358.984C38.1853 358.366 38.1639 357.72 38.1213 357.048C38.0786 356.376 38.0199 355.694 37.9453 355ZM58.1767 367.24C57.046 367.24 56.054 367.043 55.2007 366.648C54.3473 366.243 53.6807 365.683 53.2007 364.968C52.7207 364.243 52.4807 363.406 52.4807 362.456C52.4807 361.496 52.7207 360.659 53.2007 359.944C53.6807 359.219 54.3473 358.659 55.2007 358.264C56.054 357.859 57.046 357.656 58.1767 357.656C59.3073 357.656 60.2993 357.859 61.1527 358.264C62.006 358.659 62.6673 359.219 63.1367 359.944C63.6167 360.659 63.8567 361.496 63.8567 362.456C63.8567 363.406 63.6167 364.243 63.1367 364.968C62.6673 365.683 62.006 366.243 61.1527 366.648C60.2993 367.043 59.3073 367.24 58.1767 367.24ZM58.1767 365.208C58.7953 365.208 59.3233 365.096 59.7607 364.872C60.2087 364.648 60.55 364.334 60.7847 363.928C61.03 363.512 61.1527 363.022 61.1527 362.456C61.1527 361.88 61.03 361.39 60.7847 360.984C60.55 360.568 60.2087 360.248 59.7607 360.024C59.3233 359.8 58.7953 359.688 58.1767 359.688C57.5687 359.688 57.0407 359.8 56.5927 360.024C56.1447 360.248 55.798 360.568 55.5527 360.984C55.318 361.39 55.2007 361.88 55.2007 362.456C55.2007 363.022 55.318 363.512 55.5527 363.928C55.798 364.334 56.1447 364.648 56.5927 364.872C57.0407 365.096 57.5687 365.208 58.1767 365.208ZM76.3418 363.288C76.2351 364.067 75.9311 364.755 75.4298 365.352C74.9391 365.95 74.3044 366.414 73.5258 366.744C72.7471 367.075 71.8778 367.24 70.9178 367.24C69.8298 367.24 68.8698 367.043 68.0378 366.648C67.2164 366.243 66.5711 365.678 66.1018 364.952C65.6431 364.227 65.4138 363.395 65.4138 362.456C65.4138 361.507 65.6431 360.675 66.1018 359.96C66.5711 359.235 67.2164 358.67 68.0378 358.264C68.8698 357.859 69.8298 357.656 70.9178 357.656C71.8778 357.656 72.7471 357.827 73.5258 358.168C74.3044 358.499 74.9391 358.963 75.4298 359.56C75.9311 360.147 76.2351 360.835 76.3418 361.624H73.6698C73.5311 361.006 73.2111 360.531 72.7098 360.2C72.2191 359.859 71.6218 359.688 70.9178 359.688C70.3524 359.688 69.8564 359.8 69.4298 360.024C69.0138 360.238 68.6938 360.552 68.4698 360.968C68.2458 361.374 68.1338 361.87 68.1338 362.456C68.1338 363.032 68.2458 363.528 68.4698 363.944C68.6938 364.35 69.0138 364.664 69.4298 364.888C69.8564 365.102 70.3524 365.208 70.9178 365.208C71.6324 365.208 72.2351 365.032 72.7258 364.68C73.2271 364.328 73.5418 363.864 73.6698 363.288H76.3418ZM78.0092 367L78.5212 362.456L78.0092 357.896H85.0172C85.8918 357.896 86.5852 358.104 87.0972 358.52C87.6092 358.926 87.8652 359.48 87.8652 360.184C87.8652 360.846 87.6092 361.384 87.0972 361.8C86.5852 362.206 85.8705 362.446 84.9532 362.52L85.1452 362.072C86.2118 362.104 87.0225 362.328 87.5772 362.744C88.1425 363.15 88.4252 363.72 88.4252 364.456C88.4252 365.246 88.1372 365.87 87.5612 366.328C86.9958 366.776 86.2172 367 85.2252 367H78.0092ZM80.5852 366.408L79.5612 365.272H84.4092C84.8678 365.272 85.2038 365.182 85.4172 365C85.6305 364.808 85.7372 364.542 85.7372 364.2C85.7372 363.891 85.6198 363.64 85.3852 363.448C85.1505 363.246 84.7665 363.144 84.2332 363.144H80.1052V361.624H83.8812C84.3292 361.624 84.6545 361.534 84.8572 361.352C85.0705 361.171 85.1772 360.926 85.1772 360.616C85.1772 360.328 85.0812 360.094 84.8892 359.912C84.7078 359.731 84.4092 359.64 83.9932 359.64H79.5772L80.5852 358.504L81.0812 362.456L80.5852 366.408ZM90.4319 357.8L91.7599 358.056L93.1039 357.8V367H90.4319V357.8ZM91.7599 356.856C91.2799 356.856 90.8852 356.734 90.5759 356.488C90.2772 356.232 90.1279 355.896 90.1279 355.48C90.1279 355.054 90.2772 354.718 90.5759 354.472C90.8852 354.216 91.2799 354.088 91.7599 354.088C92.2506 354.088 92.6452 354.216 92.9439 354.472C93.2426 354.718 93.3919 355.054 93.3919 355.48C93.3919 355.896 93.2426 356.232 92.9439 356.488C92.6452 356.734 92.2506 356.856 91.7599 356.856ZM107.967 364.984V369.24H105.647V367H97.1354V369.24H94.8154V364.984H97.3594L97.9514 365.032H104.575L105.103 364.984H107.967ZM96.7834 357.896H106.287V366.392H103.615V358.664L104.847 359.896H98.1114L99.1834 358.936C99.2794 359.395 99.3381 359.832 99.3594 360.248C99.3807 360.654 99.3914 361.032 99.3914 361.384C99.3914 362.899 99.1621 364.083 98.7034 364.936C98.2447 365.779 97.5994 366.2 96.7674 366.2L95.6794 365.288C96.5327 364.67 96.9594 363.192 96.9594 360.856C96.9594 360.398 96.9434 359.923 96.9114 359.432C96.8794 358.931 96.8367 358.419 96.7834 357.896ZM111.333 367.144C110.885 367.144 110.511 367 110.213 366.712C109.925 366.424 109.781 366.062 109.781 365.624C109.781 365.187 109.925 364.824 110.213 364.536C110.511 364.248 110.885 364.104 111.333 364.104C111.791 364.104 112.165 364.248 112.453 364.536C112.751 364.824 112.901 365.187 112.901 365.624C112.901 366.062 112.751 366.424 112.453 366.712C112.165 367 111.791 367.144 111.333 367.144ZM111.333 361.48C110.885 361.48 110.511 361.336 110.213 361.048C109.925 360.76 109.781 360.398 109.781 359.96C109.781 359.523 109.925 359.16 110.213 358.872C110.511 358.584 110.885 358.44 111.333 358.44C111.791 358.44 112.165 358.584 112.453 358.872C112.751 359.16 112.901 359.523 112.901 359.96C112.901 360.398 112.751 360.76 112.453 361.048C112.165 361.336 111.791 361.48 111.333 361.48Z" fill="white"/>
<path d="M251.753 366V364.992L255.785 360.928C256.937 359.776 257.513 358.79 257.513 357.968C257.513 357.254 257.289 356.699 256.841 356.304C256.404 355.899 255.876 355.696 255.257 355.696C254.105 355.696 253.268 356.224 252.745 357.28L251.801 356.72C252.153 356.027 252.633 355.504 253.241 355.152C253.849 354.79 254.521 354.608 255.257 354.608C256.153 354.608 256.937 354.912 257.609 355.52C258.292 356.118 258.633 356.934 258.633 357.968C258.633 358.619 258.452 359.243 258.089 359.84C257.727 360.438 257.215 361.067 256.553 361.728L253.353 364.912H258.873V366H251.753ZM267.68 359.888V360.912H264.832V363.76H263.808V360.912H260.96V359.888H263.808V357.04H264.832V359.888H267.68ZM279.008 357.808C280.149 357.808 281.12 358.214 281.92 359.024C282.731 359.835 283.136 360.827 283.136 362C283.136 363.174 282.731 364.166 281.92 364.976C281.12 365.787 280.149 366.192 279.008 366.192C277.589 366.192 276.512 365.606 275.776 364.432V369.2H274.72V358H275.776V359.568C276.512 358.395 277.589 357.808 279.008 357.808ZM276.688 364.256C277.296 364.864 278.043 365.168 278.928 365.168C279.813 365.168 280.56 364.864 281.168 364.256C281.776 363.638 282.08 362.886 282.08 362C282.08 361.115 281.776 360.368 281.168 359.76C280.56 359.142 279.813 358.832 278.928 358.832C278.043 358.832 277.296 359.142 276.688 359.76C276.08 360.368 275.776 361.115 275.776 362C275.776 362.886 276.08 363.638 276.688 364.256ZM292.076 364.992C291.265 365.792 290.273 366.192 289.1 366.192C287.927 366.192 286.929 365.792 286.108 364.992C285.297 364.182 284.892 363.184 284.892 362C284.892 360.816 285.297 359.824 286.108 359.024C286.929 358.214 287.927 357.808 289.1 357.808C290.273 357.808 291.265 358.214 292.076 359.024C292.897 359.824 293.308 360.816 293.308 362C293.308 363.184 292.897 364.182 292.076 364.992ZM286.86 364.256C287.468 364.864 288.215 365.168 289.1 365.168C289.985 365.168 290.732 364.864 291.34 364.256C291.948 363.638 292.252 362.886 292.252 362C292.252 361.115 291.948 360.368 291.34 359.76C290.732 359.142 289.985 358.832 289.1 358.832C288.215 358.832 287.468 359.142 286.86 359.76C286.252 360.368 285.948 361.115 285.948 362C285.948 362.886 286.252 363.638 286.86 364.256ZM302.019 366H300.611L296.611 362.144V366H295.555V358H296.611V361.536L300.419 358H301.859L297.731 361.84L302.019 366ZM309.765 358H310.661V366H309.605V359.84L304.837 366H303.941V358H304.997V364.16L309.765 358Z" fill="white"/>
<path d="M39.1613 403L41.2253 399.432H41.2573L46.1213 391H49.0653L42.1053 403H39.1613ZM41.2253 401.256L35.2413 391H38.2333L43.0973 399.368L41.2253 401.256ZM49.9662 393.896H59.3742V403H56.7022V394.696L57.9342 395.912H51.2942L52.4462 394.92C52.4995 395.571 52.5422 396.174 52.5742 396.728C52.6168 397.272 52.6382 397.763 52.6382 398.2C52.6382 399.95 52.3768 401.219 51.8542 402.008C51.3422 402.798 50.5102 403.192 49.3582 403.192C49.0382 403.192 48.7288 403.155 48.4302 403.08C48.1422 403.016 47.8595 402.904 47.5822 402.744V400.808C47.7742 400.883 47.9608 400.942 48.1422 400.984C48.3342 401.016 48.5102 401.032 48.6702 401.032C49.2142 401.032 49.6035 400.787 49.8382 400.296C50.0835 399.795 50.2062 398.974 50.2062 397.832C50.2062 397.32 50.1848 396.734 50.1422 396.072C50.1102 395.411 50.0515 394.686 49.9662 393.896ZM71.6705 403.24C70.5505 403.24 69.5692 403.043 68.7265 402.648C67.8839 402.243 67.2279 401.683 66.7585 400.968C66.2999 400.243 66.0705 399.406 66.0705 398.456C66.0705 397.496 66.2999 396.659 66.7585 395.944C67.2279 395.219 67.8839 394.659 68.7265 394.264C69.5692 393.859 70.5505 393.656 71.6705 393.656C72.7905 393.656 73.7719 393.859 74.6145 394.264C75.4572 394.659 76.1132 395.219 76.5825 395.944C77.0519 396.659 77.2865 397.496 77.2865 398.456C77.2865 399.406 77.0519 400.243 76.5825 400.968C76.1132 401.683 75.4572 402.243 74.6145 402.648C73.7719 403.043 72.7905 403.24 71.6705 403.24ZM61.8625 403V393.896H64.5345V403H61.8625ZM63.3665 399.368V397.368H67.7665V399.368H63.3665ZM71.6705 401.208C72.2785 401.208 72.7959 401.096 73.2225 400.872C73.6599 400.648 73.9959 400.334 74.2305 399.928C74.4652 399.512 74.5825 399.022 74.5825 398.456C74.5825 397.88 74.4652 397.39 74.2305 396.984C73.9959 396.568 73.6599 396.248 73.2225 396.024C72.7959 395.8 72.2785 395.688 71.6705 395.688C71.0732 395.688 70.5559 395.8 70.1185 396.024C69.6812 396.248 69.3452 396.568 69.1105 396.984C68.8759 397.39 68.7585 397.88 68.7585 398.456C68.7585 399.022 68.8759 399.512 69.1105 399.928C69.3452 400.334 69.6812 400.648 70.1185 400.872C70.5559 401.096 71.0732 401.208 71.6705 401.208ZM84.8953 403.24C83.6473 403.24 82.5806 403.006 81.6953 402.536C80.8099 402.056 80.1326 401.368 79.6633 400.472C79.1939 399.576 78.9593 398.494 78.9593 397.224C78.9593 395.336 79.4659 393.848 80.4793 392.76C81.4926 391.672 82.9433 391.048 84.8313 390.888C85.5993 390.824 86.2339 390.771 86.7353 390.728C87.2366 390.686 87.6473 390.643 87.9673 390.6C88.2979 390.547 88.5753 390.494 88.7993 390.44C89.0233 390.376 89.2419 390.307 89.4553 390.232V392.456C89.2313 392.542 88.9433 392.622 88.5913 392.696C88.2499 392.76 87.8126 392.814 87.2793 392.856C86.7566 392.899 86.1113 392.942 85.3433 392.984C83.9459 393.048 82.9059 393.432 82.2233 394.136C81.5406 394.84 81.1993 395.854 81.1993 397.176V397.608L81.1033 397.416C81.3166 396.84 81.6419 396.344 82.0793 395.928C82.5166 395.512 83.0393 395.198 83.6473 394.984C84.2659 394.76 84.9326 394.648 85.6473 394.648C86.5753 394.648 87.3859 394.824 88.0793 395.176C88.7726 395.518 89.3113 396.003 89.6953 396.632C90.0899 397.262 90.2873 397.998 90.2873 398.84C90.2873 399.726 90.0633 400.499 89.6153 401.16C89.1673 401.822 88.5379 402.334 87.7273 402.696C86.9273 403.059 85.9833 403.24 84.8953 403.24ZM84.9593 401.208C85.4926 401.208 85.9566 401.112 86.3513 400.92C86.7459 400.728 87.0499 400.456 87.2633 400.104C87.4766 399.752 87.5833 399.342 87.5833 398.872C87.5833 398.403 87.4766 397.998 87.2633 397.656C87.0499 397.304 86.7459 397.032 86.3513 396.84C85.9566 396.648 85.4926 396.552 84.9593 396.552C84.2233 396.552 83.5726 396.75 83.0073 397.144C82.4419 397.528 82.0153 398.067 81.7273 398.76C81.8979 399.507 82.2713 400.104 82.8473 400.552C83.4339 400.99 84.1379 401.208 84.9593 401.208ZM93.6718 393.896H103.08V403H100.408V394.696L101.64 395.912H94.9998L96.1518 394.92C96.2051 395.571 96.2478 396.174 96.2798 396.728C96.3224 397.272 96.3438 397.763 96.3438 398.2C96.3438 399.95 96.0824 401.219 95.5598 402.008C95.0478 402.798 94.2158 403.192 93.0638 403.192C92.7438 403.192 92.4344 403.155 92.1358 403.08C91.8478 403.016 91.5651 402.904 91.2878 402.744V400.808C91.4798 400.883 91.6664 400.942 91.8478 400.984C92.0398 401.016 92.2158 401.032 92.3758 401.032C92.9198 401.032 93.3091 400.787 93.5438 400.296C93.7891 399.795 93.9118 398.974 93.9118 397.832C93.9118 397.32 93.8904 396.734 93.8478 396.072C93.8158 395.411 93.7571 394.686 93.6718 393.896ZM110.704 403.24C109.627 403.24 108.661 403.043 107.808 402.648C106.965 402.243 106.299 401.678 105.808 400.952C105.328 400.227 105.088 399.384 105.088 398.424C105.088 397.475 105.317 396.643 105.776 395.928C106.245 395.214 106.885 394.659 107.696 394.264C108.507 393.859 109.429 393.656 110.464 393.656C111.52 393.656 112.427 393.891 113.184 394.36C113.941 394.819 114.523 395.47 114.928 396.312C115.344 397.155 115.552 398.147 115.552 399.288H107.232V397.512H114.112L113.072 398.152C113.029 397.619 112.896 397.166 112.672 396.792C112.459 396.419 112.165 396.131 111.792 395.928C111.419 395.726 110.981 395.624 110.48 395.624C109.936 395.624 109.461 395.736 109.056 395.96C108.661 396.174 108.352 396.478 108.128 396.872C107.915 397.256 107.808 397.71 107.808 398.232C107.808 398.862 107.947 399.4 108.224 399.848C108.501 400.296 108.907 400.638 109.44 400.872C109.973 401.107 110.619 401.224 111.376 401.224C112.059 401.224 112.747 401.128 113.44 400.936C114.133 400.734 114.757 400.451 115.312 400.088V401.88C114.715 402.307 114.016 402.643 113.216 402.888C112.427 403.123 111.589 403.24 110.704 403.24ZM117.595 393.896H120.251V403H117.595V393.896ZM125.227 393.896H127.883V403H125.227V393.896ZM119.115 397.352H126.267V399.368H119.115V397.352ZM130.372 403V393.896H132.996V401.592L132.34 401.416L137.828 393.896H141.268V403H138.644V395.16L139.3 395.352L133.716 403H130.372ZM143.758 403V393.896H146.382V401.592L145.726 401.416L151.214 393.896H154.654V403H152.03V395.16L152.686 395.352L147.102 403H143.758ZM149.134 393.064C148.099 393.064 147.267 392.814 146.638 392.312C146.009 391.8 145.619 391.059 145.47 390.088H147.566C147.641 390.547 147.811 390.899 148.078 391.144C148.355 391.379 148.707 391.496 149.134 391.496C149.561 391.496 149.907 391.379 150.174 391.144C150.441 390.899 150.617 390.547 150.702 390.088H152.782C152.643 391.059 152.254 391.8 151.614 392.312C150.985 392.814 150.158 393.064 149.134 393.064ZM169.27 393.896V395.944H163.158L164.39 394.728V403H161.718V393.896H169.27ZM173.54 405.88C172.942 405.88 172.404 405.806 171.924 405.656C171.444 405.507 170.99 405.288 170.564 405V403.08C171.012 403.368 171.438 403.576 171.844 403.704C172.249 403.832 172.697 403.896 173.188 403.896C173.625 403.896 174.014 403.795 174.356 403.592C174.697 403.4 174.98 403.054 175.204 402.552L178.996 393.896H181.828L177.284 403.416C177.006 404.014 176.67 404.494 176.276 404.856C175.881 405.219 175.449 405.48 174.98 405.64C174.521 405.8 174.041 405.88 173.54 405.88ZM174.116 402.424L170.1 393.896H173.044L176.724 402.424H174.116ZM183.381 393.896H186.053V396.792L185.941 397.144V399.336L186.053 399.992V405.64H183.381V393.896ZM185.125 398.456C185.307 397.486 185.621 396.643 186.069 395.928C186.528 395.203 187.099 394.643 187.781 394.248C188.475 393.854 189.243 393.656 190.085 393.656C190.981 393.656 191.765 393.859 192.437 394.264C193.12 394.659 193.653 395.219 194.037 395.944C194.421 396.659 194.613 397.496 194.613 398.456C194.613 399.406 194.421 400.243 194.037 400.968C193.653 401.683 193.12 402.243 192.437 402.648C191.765 403.043 190.981 403.24 190.085 403.24C189.232 403.24 188.464 403.043 187.781 402.648C187.109 402.254 186.544 401.699 186.085 400.984C185.627 400.259 185.307 399.416 185.125 398.456ZM191.909 398.456C191.909 397.923 191.797 397.454 191.573 397.048C191.36 396.632 191.061 396.312 190.677 396.088C190.293 395.854 189.851 395.736 189.349 395.736C188.848 395.736 188.373 395.854 187.925 396.088C187.477 396.312 187.083 396.632 186.741 397.048C186.411 397.454 186.149 397.923 185.957 398.456C186.149 398.99 186.411 399.459 186.741 399.864C187.083 400.27 187.477 400.59 187.925 400.824C188.373 401.048 188.848 401.16 189.349 401.16C189.851 401.16 190.293 401.048 190.677 400.824C191.061 400.59 191.36 400.27 191.573 399.864C191.797 399.459 191.909 398.99 191.909 398.456ZM199.162 394.824H201.834V403H199.162V394.824ZM195.546 393.896H205.45V395.944H195.546V393.896ZM208.626 403.144C208.178 403.144 207.804 403 207.506 402.712C207.218 402.424 207.074 402.062 207.074 401.624C207.074 401.187 207.218 400.824 207.506 400.536C207.804 400.248 208.178 400.104 208.626 400.104C209.084 400.104 209.458 400.248 209.746 400.536C210.044 400.824 210.194 401.187 210.194 401.624C210.194 402.062 210.044 402.424 209.746 402.712C209.458 403 209.084 403.144 208.626 403.144ZM208.626 397.48C208.178 397.48 207.804 397.336 207.506 397.048C207.218 396.76 207.074 396.398 207.074 395.96C207.074 395.523 207.218 395.16 207.506 394.872C207.804 394.584 208.178 394.44 208.626 394.44C209.084 394.44 209.458 394.584 209.746 394.872C210.044 395.16 210.194 395.523 210.194 395.96C210.194 396.398 210.044 396.76 209.746 397.048C209.458 397.336 209.084 397.48 208.626 397.48Z" fill="white"/>
<path d="M262.633 390.8V402H261.513V392.496L257.593 399.056H257.433L253.513 392.496V402H252.393V390.8H253.785L257.513 397.04L261.241 390.8H262.633ZM272.39 394H273.446V402H272.39V400.432C271.654 401.606 270.577 402.192 269.158 402.192C268.017 402.192 267.041 401.787 266.23 400.976C265.43 400.166 265.03 399.174 265.03 398C265.03 396.827 265.43 395.835 266.23 395.024C267.041 394.214 268.017 393.808 269.158 393.808C270.577 393.808 271.654 394.395 272.39 395.568V394ZM266.998 400.256C267.606 400.864 268.353 401.168 269.238 401.168C270.123 401.168 270.87 400.864 271.478 400.256C272.086 399.638 272.39 398.886 272.39 398C272.39 397.115 272.086 396.368 271.478 395.76C270.87 395.142 270.123 394.832 269.238 394.832C268.353 394.832 267.606 395.142 266.998 395.76C266.39 396.368 266.086 397.115 266.086 398C266.086 398.886 266.39 399.638 266.998 400.256ZM279.906 393.808C280.877 393.808 281.639 394.107 282.194 394.704C282.759 395.291 283.042 396.086 283.042 397.088V402H281.986V397.088C281.986 396.374 281.794 395.819 281.41 395.424C281.037 395.03 280.503 394.832 279.81 394.832C279.042 394.832 278.418 395.078 277.938 395.568C277.458 396.048 277.218 396.795 277.218 397.808V402H276.162V394H277.218V395.248C277.815 394.288 278.711 393.808 279.906 393.808ZM289.26 393.808C290.444 393.808 291.399 394.23 292.124 395.072C292.86 395.904 293.228 396.891 293.228 398.032C293.228 398.15 293.217 398.315 293.196 398.528H286.172C286.279 399.339 286.62 399.984 287.196 400.464C287.783 400.934 288.503 401.168 289.356 401.168C289.964 401.168 290.487 401.046 290.924 400.8C291.372 400.544 291.708 400.214 291.932 399.808L292.86 400.352C292.508 400.918 292.028 401.366 291.42 401.696C290.812 402.027 290.119 402.192 289.34 402.192C288.081 402.192 287.057 401.798 286.268 401.008C285.479 400.219 285.084 399.216 285.084 398C285.084 396.806 285.473 395.808 286.252 395.008C287.031 394.208 288.033 393.808 289.26 393.808ZM289.26 394.832C288.428 394.832 287.729 395.083 287.164 395.584C286.609 396.075 286.279 396.715 286.172 397.504H292.14C292.033 396.662 291.708 396.006 291.164 395.536C290.62 395.067 289.985 394.832 289.26 394.832ZM295.907 396.096C295.907 396.459 296.067 396.747 296.387 396.96C296.707 397.174 297.096 397.339 297.555 397.456C298.014 397.574 298.472 397.707 298.931 397.856C299.39 397.995 299.779 398.235 300.099 398.576C300.419 398.907 300.579 399.344 300.579 399.888C300.579 400.571 300.307 401.126 299.763 401.552C299.23 401.979 298.536 402.192 297.683 402.192C296.915 402.192 296.259 402.022 295.715 401.68C295.182 401.339 294.808 400.896 294.595 400.352L295.491 399.824C295.64 400.24 295.907 400.571 296.291 400.816C296.686 401.051 297.15 401.168 297.683 401.168C298.206 401.168 298.643 401.067 298.995 400.864C299.347 400.651 299.523 400.326 299.523 399.888C299.523 399.526 299.363 399.238 299.043 399.024C298.723 398.811 298.334 398.646 297.875 398.528C297.416 398.411 296.958 398.283 296.499 398.144C296.04 397.995 295.651 397.755 295.331 397.424C295.011 397.083 294.851 396.64 294.851 396.096C294.851 395.446 295.107 394.902 295.619 394.464C296.142 394.027 296.798 393.808 297.587 393.808C298.238 393.808 298.808 393.958 299.299 394.256C299.79 394.544 300.152 394.939 300.387 395.44L299.507 395.952C299.198 395.206 298.558 394.832 297.587 394.832C297.128 394.832 296.734 394.944 296.403 395.168C296.072 395.382 295.907 395.691 295.907 396.096ZM309.207 402H307.799L303.799 398.144V402H302.743V390.8H303.799V397.536L307.607 394H309.047L304.919 397.84L309.207 402ZM312.201 392.08C312.052 392.23 311.87 392.304 311.657 392.304C311.444 392.304 311.262 392.23 311.113 392.08C310.964 391.931 310.889 391.75 310.889 391.536C310.889 391.323 310.964 391.142 311.113 390.992C311.262 390.843 311.444 390.768 311.657 390.768C311.87 390.768 312.052 390.843 312.201 390.992C312.35 391.142 312.425 391.323 312.425 391.536C312.425 391.75 312.35 391.931 312.201 392.08ZM311.129 402V394H312.185V402H311.129ZM318.65 393.808C319.62 393.808 320.383 394.107 320.938 394.704C321.503 395.291 321.786 396.086 321.786 397.088V402H320.73V397.088C320.73 396.374 320.538 395.819 320.154 395.424C319.78 395.03 319.247 394.832 318.554 394.832C317.786 394.832 317.162 395.078 316.682 395.568C316.202 396.048 315.962 396.795 315.962 397.808V402H314.906V394H315.962V395.248C316.559 394.288 317.455 393.808 318.65 393.808Z" fill="white"/>
</svg>
