<svg width="450" height="545" viewBox="0 0 450 545" fill="none" xmlns="http://www.w3.org/2000/svg">
<path d="M378.29 70.56L77.848 8.49337C59.3342 4.66871 43.4835 22.0678 49.0121 40.1461C50.2678 44.2519 50.4399 48.6127 49.5118 52.8047L6.07102 249.019C5.36489 252.208 4.97303 255.459 4.90104 258.725L0.346704 465.361C0.121023 475.6 3.04525 485.662 8.72395 494.185L24.0966 517.259C35.2885 534.058 55.4834 542.479 75.2943 538.609L408.226 473.565C432.304 468.861 449.412 447.382 448.612 422.862L439.641 147.916C439.319 138.038 436.076 128.477 430.322 120.44L408.829 90.4195C401.509 80.195 390.605 73.104 378.29 70.56Z" fill="#C0B7EE"/>
<path d="M36.232 175V163H38.936V172.792L38.168 172.248L45.592 163H48.488L38.68 175H36.232ZM41.96 169.128L43.912 167.384L48.664 175H45.56L41.96 169.128ZM50.0974 165.8L51.4254 166.056L52.7694 165.8V175H50.0974V165.8ZM51.4254 164.856C50.9454 164.856 50.5507 164.733 50.2414 164.488C49.9427 164.232 49.7934 163.896 49.7934 163.48C49.7934 163.053 49.9427 162.717 50.2414 162.472C50.5507 162.216 50.9454 162.088 51.4254 162.088C51.916 162.088 52.3107 162.216 52.6094 162.472C52.908 162.717 53.0574 163.053 53.0574 163.48C53.0574 163.896 52.908 164.232 52.6094 164.488C52.3107 164.733 51.916 164.856 51.4254 164.856ZM56.8329 165.896H66.2409V175H63.5689V166.696L64.8009 167.912H58.1609L59.3129 166.92C59.3662 167.571 59.4089 168.173 59.4409 168.728C59.4835 169.272 59.5049 169.763 59.5049 170.2C59.5049 171.949 59.2435 173.219 58.7209 174.008C58.2089 174.797 57.3769 175.192 56.2249 175.192C55.9049 175.192 55.5955 175.155 55.2969 175.08C55.0089 175.016 54.7262 174.904 54.4489 174.744V172.808C54.6409 172.883 54.8275 172.941 55.0089 172.984C55.2009 173.016 55.3769 173.032 55.5369 173.032C56.0809 173.032 56.4702 172.787 56.7049 172.296C56.9502 171.795 57.0729 170.973 57.0729 169.832C57.0729 169.32 57.0515 168.733 57.0089 168.072C56.9769 167.411 56.9182 166.685 56.8329 165.896ZM68.7292 175V165.896H71.3852V174.312L70.5212 173.08H74.0732C74.5639 173.08 74.9426 172.963 75.2092 172.728C75.4759 172.483 75.6092 172.152 75.6092 171.736C75.6092 171.299 75.4759 170.963 75.2092 170.728C74.9426 170.483 74.5639 170.36 74.0732 170.36H70.5372V168.52H74.4732C75.2519 168.52 75.9239 168.659 76.4892 168.936C77.0652 169.203 77.5132 169.581 77.8332 170.072C78.1532 170.552 78.3132 171.117 78.3132 171.768C78.3132 172.408 78.1532 172.973 77.8332 173.464C77.5132 173.955 77.0706 174.333 76.5052 174.6C75.9399 174.867 75.2732 175 74.5052 175H68.7292ZM80.0999 175V165.896H82.7719V172.84L81.9879 172.568L87.4119 165.896H90.3239L82.4999 175H80.0999ZM87.5399 175L84.8199 170.536L86.7879 169.016L90.5959 175H87.5399ZM91.9861 165.8L93.3141 166.056L94.6581 165.8V175H91.9861V165.8ZM93.3141 164.856C92.8341 164.856 92.4395 164.733 92.1301 164.488C91.8315 164.232 91.6821 163.896 91.6821 163.48C91.6821 163.053 91.8315 162.717 92.1301 162.472C92.4395 162.216 92.8341 162.088 93.3141 162.088C93.8048 162.088 94.1995 162.216 94.4981 162.472C94.7968 162.717 94.9461 163.053 94.9461 163.48C94.9461 163.896 94.7968 164.232 94.4981 164.488C94.1995 164.733 93.8048 164.856 93.3141 164.856ZM107.602 171.288C107.495 172.067 107.191 172.755 106.69 173.352C106.199 173.949 105.564 174.413 104.786 174.744C104.007 175.075 103.138 175.24 102.178 175.24C101.09 175.24 100.13 175.043 99.2976 174.648C98.4763 174.243 97.831 173.677 97.3616 172.952C96.903 172.227 96.6736 171.395 96.6736 170.456C96.6736 169.507 96.903 168.675 97.3616 167.96C97.831 167.235 98.4763 166.669 99.2976 166.264C100.13 165.859 101.09 165.656 102.178 165.656C103.138 165.656 104.007 165.827 104.786 166.168C105.564 166.499 106.199 166.963 106.69 167.56C107.191 168.147 107.495 168.835 107.602 169.624H104.93C104.791 169.005 104.471 168.531 103.97 168.2C103.479 167.859 102.882 167.688 102.178 167.688C101.612 167.688 101.116 167.8 100.69 168.024C100.274 168.237 99.9536 168.552 99.7296 168.968C99.5056 169.373 99.3936 169.869 99.3936 170.456C99.3936 171.032 99.5056 171.528 99.7296 171.944C99.9536 172.349 100.274 172.664 100.69 172.888C101.116 173.101 101.612 173.208 102.178 173.208C102.892 173.208 103.495 173.032 103.986 172.68C104.487 172.328 104.802 171.864 104.93 171.288H107.602ZM112.013 166.824H114.685V175H112.013V166.824ZM108.397 165.896H118.301V167.944H108.397V165.896ZM120.004 175V165.896H122.66V174.312L121.796 173.08H125.348C125.839 173.08 126.218 172.963 126.484 172.728C126.751 172.483 126.884 172.152 126.884 171.736C126.884 171.299 126.751 170.963 126.484 170.728C126.218 170.483 125.839 170.36 125.348 170.36H121.812V168.52H125.748C126.527 168.52 127.199 168.659 127.764 168.936C128.34 169.203 128.788 169.581 129.108 170.072C129.428 170.552 129.588 171.117 129.588 171.768C129.588 172.408 129.428 172.973 129.108 173.464C128.788 173.955 128.346 174.333 127.78 174.6C127.215 174.867 126.548 175 125.78 175H120.004ZM36.008 185.896H38.68V188.792L38.568 189.144V191.336L38.68 191.992V197.64H36.008V185.896ZM37.752 190.456C37.9333 189.485 38.248 188.643 38.696 187.928C39.1547 187.203 39.7253 186.643 40.408 186.248C41.1013 185.853 41.8693 185.656 42.712 185.656C43.608 185.656 44.392 185.859 45.064 186.264C45.7467 186.659 46.28 187.219 46.664 187.944C47.048 188.659 47.24 189.496 47.24 190.456C47.24 191.405 47.048 192.243 46.664 192.968C46.28 193.683 45.7467 194.243 45.064 194.648C44.392 195.043 43.608 195.24 42.712 195.24C41.8587 195.24 41.0907 195.043 40.408 194.648C39.736 194.253 39.1707 193.699 38.712 192.984C38.2533 192.259 37.9333 191.416 37.752 190.456ZM44.536 190.456C44.536 189.923 44.424 189.453 44.2 189.048C43.9867 188.632 43.688 188.312 43.304 188.088C42.92 187.853 42.4773 187.736 41.976 187.736C41.4747 187.736 41 187.853 40.552 188.088C40.104 188.312 39.7093 188.632 39.368 189.048C39.0373 189.453 38.776 189.923 38.584 190.456C38.776 190.989 39.0373 191.459 39.368 191.864C39.7093 192.269 40.104 192.589 40.552 192.824C41 193.048 41.4747 193.16 41.976 193.16C42.4773 193.16 42.92 193.048 43.304 192.824C43.688 192.589 43.9867 192.269 44.2 191.864C44.424 191.459 44.536 190.989 44.536 190.456ZM54.4209 195.24C53.3435 195.24 52.3782 195.043 51.5249 194.648C50.6822 194.243 50.0155 193.677 49.5249 192.952C49.0449 192.227 48.8049 191.384 48.8049 190.424C48.8049 189.475 49.0342 188.643 49.4929 187.928C49.9622 187.213 50.6022 186.659 51.4129 186.264C52.2235 185.859 53.1462 185.656 54.1809 185.656C55.2369 185.656 56.1435 185.891 56.9009 186.36C57.6582 186.819 58.2395 187.469 58.6449 188.312C59.0609 189.155 59.2689 190.147 59.2689 191.288H50.9489V189.512H57.8289L56.7889 190.152C56.7462 189.619 56.6129 189.165 56.3889 188.792C56.1755 188.419 55.8822 188.131 55.5089 187.928C55.1355 187.725 54.6982 187.624 54.1969 187.624C53.6529 187.624 53.1782 187.736 52.7729 187.96C52.3782 188.173 52.0689 188.477 51.8449 188.872C51.6315 189.256 51.5249 189.709 51.5249 190.232C51.5249 190.861 51.6635 191.4 51.9409 191.848C52.2182 192.296 52.6235 192.637 53.1569 192.872C53.6902 193.107 54.3355 193.224 55.0929 193.224C55.7755 193.224 56.4635 193.128 57.1569 192.936C57.8502 192.733 58.4742 192.451 59.0289 192.088V193.88C58.4315 194.307 57.7329 194.643 56.9329 194.888C56.1435 195.123 55.3062 195.24 54.4209 195.24ZM69.6477 195L69.2637 191.672L69.6957 190.456L69.2637 189.256L69.6477 185.896H72.4157L71.8877 190.456L72.4157 195H69.6477ZM70.3517 190.456C70.1811 191.416 69.8664 192.259 69.4077 192.984C68.9597 193.699 68.3891 194.253 67.6957 194.648C67.0131 195.043 66.2451 195.24 65.3917 195.24C64.5064 195.24 63.7224 195.043 63.0397 194.648C62.3571 194.243 61.8237 193.683 61.4397 192.968C61.0664 192.243 60.8797 191.405 60.8797 190.456C60.8797 189.496 61.0664 188.659 61.4397 187.944C61.8237 187.219 62.3571 186.659 63.0397 186.264C63.7224 185.859 64.5064 185.656 65.3917 185.656C66.2451 185.656 67.0131 185.853 67.6957 186.248C68.3891 186.643 68.9651 187.203 69.4237 187.928C69.8824 188.643 70.1917 189.485 70.3517 190.456ZM63.5837 190.456C63.5837 190.989 63.6904 191.459 63.9037 191.864C64.1277 192.269 64.4317 192.589 64.8157 192.824C65.1997 193.048 65.6424 193.16 66.1437 193.16C66.6451 193.16 67.1144 193.048 67.5517 192.824C67.9997 192.589 68.3944 192.269 68.7357 191.864C69.0771 191.459 69.3437 190.989 69.5357 190.456C69.3437 189.923 69.0771 189.453 68.7357 189.048C68.3944 188.632 67.9997 188.312 67.5517 188.088C67.1144 187.853 66.6451 187.736 66.1437 187.736C65.6424 187.736 65.1997 187.853 64.8157 188.088C64.4317 188.312 64.1277 188.632 63.9037 189.048C63.6904 189.453 63.5837 189.923 63.5837 190.456ZM76.2504 185.896H85.6584V195H82.9864V186.696L84.2184 187.912H77.5784L78.7304 186.92C78.7837 187.571 78.8264 188.173 78.8584 188.728C78.901 189.272 78.9224 189.763 78.9224 190.2C78.9224 191.949 78.661 193.219 78.1384 194.008C77.6264 194.797 76.7944 195.192 75.6424 195.192C75.3224 195.192 75.013 195.155 74.7144 195.08C74.4264 195.016 74.1437 194.904 73.8664 194.744V192.808C74.0584 192.883 74.245 192.941 74.4264 192.984C74.6184 193.016 74.7944 193.032 74.9544 193.032C75.4984 193.032 75.8877 192.787 76.1224 192.296C76.3677 191.795 76.4904 190.973 76.4904 189.832C76.4904 189.32 76.469 188.733 76.4264 188.072C76.3944 187.411 76.3357 186.685 76.2504 185.896ZM88.1467 185.8L89.4747 186.056L90.8187 185.8V195H88.1467V185.8ZM89.4747 184.856C88.9947 184.856 88.6001 184.733 88.2907 184.488C87.9921 184.232 87.8427 183.896 87.8427 183.48C87.8427 183.053 87.9921 182.717 88.2907 182.472C88.6001 182.216 88.9947 182.088 89.4747 182.088C89.9654 182.088 90.3601 182.216 90.6587 182.472C90.9574 182.717 91.1067 183.053 91.1067 183.48C91.1067 183.896 90.9574 184.232 90.6587 184.488C90.3601 184.733 89.9654 184.856 89.4747 184.856ZM97.8103 195.24C96.7969 195.24 95.9116 195.112 95.1543 194.856C94.3969 194.589 93.8049 194.211 93.3783 193.72C92.9516 193.219 92.7169 192.632 92.6743 191.96H95.2663C95.3409 192.408 95.5969 192.749 96.0343 192.984C96.4716 193.219 97.0636 193.336 97.8103 193.336C98.5249 193.336 99.0796 193.245 99.4743 193.064C99.8796 192.872 100.082 192.579 100.082 192.184C100.082 191.864 99.9116 191.629 99.5703 191.48C99.2396 191.32 98.7063 191.24 97.9703 191.24H96.2743V189.64H97.9223C98.5836 189.64 99.0689 189.544 99.3783 189.352C99.6983 189.16 99.8583 188.92 99.8583 188.632C99.8583 188.28 99.6716 188.013 99.2983 187.832C98.9356 187.651 98.4449 187.56 97.8263 187.56C97.1436 187.56 96.5943 187.667 96.1783 187.88C95.7623 188.093 95.5169 188.413 95.4423 188.84H92.8663C92.9089 188.253 93.1329 187.72 93.5383 187.24C93.9436 186.76 94.5143 186.376 95.2503 186.088C95.9969 185.8 96.8929 185.656 97.9383 185.656C98.8663 185.656 99.6769 185.768 100.37 185.992C101.064 186.216 101.602 186.525 101.986 186.92C102.37 187.315 102.562 187.768 102.562 188.28C102.562 188.685 102.434 189.059 102.178 189.4C101.933 189.741 101.533 190.013 100.978 190.216C100.434 190.419 99.7196 190.52 98.8343 190.52V190.248C100.104 190.195 101.08 190.349 101.762 190.712C102.456 191.075 102.802 191.629 102.802 192.376C102.802 192.92 102.605 193.411 102.21 193.848C101.826 194.285 101.261 194.627 100.514 194.872C99.7676 195.117 98.8663 195.24 97.8103 195.24ZM110.073 195.24C108.942 195.24 107.95 195.043 107.097 194.648C106.243 194.243 105.577 193.683 105.097 192.968C104.617 192.243 104.377 191.405 104.377 190.456C104.377 189.496 104.617 188.659 105.097 187.944C105.577 187.219 106.243 186.659 107.097 186.264C107.95 185.859 108.942 185.656 110.073 185.656C111.203 185.656 112.195 185.859 113.049 186.264C113.902 186.659 114.563 187.219 115.033 187.944C115.513 188.659 115.753 189.496 115.753 190.456C115.753 191.405 115.513 192.243 115.033 192.968C114.563 193.683 113.902 194.243 113.049 194.648C112.195 195.043 111.203 195.24 110.073 195.24ZM110.073 193.208C110.691 193.208 111.219 193.096 111.657 192.872C112.105 192.648 112.446 192.333 112.681 191.928C112.926 191.512 113.049 191.021 113.049 190.456C113.049 189.88 112.926 189.389 112.681 188.984C112.446 188.568 112.105 188.248 111.657 188.024C111.219 187.8 110.691 187.688 110.073 187.688C109.465 187.688 108.937 187.8 108.489 188.024C108.041 188.248 107.694 188.568 107.449 188.984C107.214 189.389 107.097 189.88 107.097 190.456C107.097 191.021 107.214 191.512 107.449 191.928C107.694 192.333 108.041 192.648 108.489 192.872C108.937 193.096 109.465 193.208 110.073 193.208ZM117.535 195L118.047 190.456L117.535 185.896H124.543C125.417 185.896 126.111 186.104 126.623 186.52C127.135 186.925 127.391 187.48 127.391 188.184C127.391 188.845 127.135 189.384 126.623 189.8C126.111 190.205 125.396 190.445 124.479 190.52L124.671 190.072C125.737 190.104 126.548 190.328 127.103 190.744C127.668 191.149 127.951 191.72 127.951 192.456C127.951 193.245 127.663 193.869 127.087 194.328C126.521 194.776 125.743 195 124.751 195H117.535ZM120.111 194.408L119.087 193.272H123.935C124.393 193.272 124.729 193.181 124.943 193C125.156 192.808 125.263 192.541 125.263 192.2C125.263 191.891 125.145 191.64 124.911 191.448C124.676 191.245 124.292 191.144 123.759 191.144H119.631V189.624H123.407C123.855 189.624 124.18 189.533 124.383 189.352C124.596 189.171 124.703 188.925 124.703 188.616C124.703 188.328 124.607 188.093 124.415 187.912C124.233 187.731 123.935 187.64 123.519 187.64H119.103L120.111 186.504L120.607 190.456L120.111 194.408ZM138.293 195L137.909 191.672L138.341 190.456L137.909 189.256L138.293 185.896H141.061L140.533 190.456L141.061 195H138.293ZM138.997 190.456C138.827 191.416 138.512 192.259 138.053 192.984C137.605 193.699 137.035 194.253 136.341 194.648C135.659 195.043 134.891 195.24 134.037 195.24C133.152 195.24 132.368 195.043 131.685 194.648C131.003 194.243 130.469 193.683 130.085 192.968C129.712 192.243 129.525 191.405 129.525 190.456C129.525 189.496 129.712 188.659 130.085 187.944C130.469 187.219 131.003 186.659 131.685 186.264C132.368 185.859 133.152 185.656 134.037 185.656C134.891 185.656 135.659 185.853 136.341 186.248C137.035 186.643 137.611 187.203 138.069 187.928C138.528 188.643 138.837 189.485 138.997 190.456ZM132.229 190.456C132.229 190.989 132.336 191.459 132.549 191.864C132.773 192.269 133.077 192.589 133.461 192.824C133.845 193.048 134.288 193.16 134.789 193.16C135.291 193.16 135.76 193.048 136.197 192.824C136.645 192.589 137.04 192.269 137.381 191.864C137.723 191.459 137.989 190.989 138.181 190.456C137.989 189.923 137.723 189.453 137.381 189.048C137.04 188.632 136.645 188.312 136.197 188.088C135.76 187.853 135.291 187.736 134.789 187.736C134.288 187.736 133.845 187.853 133.461 188.088C133.077 188.312 132.773 188.632 132.549 189.048C132.336 189.453 132.229 189.923 132.229 190.456ZM143.328 185.896H145.984V195H143.328V185.896ZM150.96 185.896H153.616V195H150.96V185.896ZM144.848 189.352H152V191.368H144.848V189.352ZM156.105 195V185.896H158.729V193.592L158.073 193.416L163.561 185.896H167.001V195H164.377V187.16L165.033 187.352L159.449 195H156.105ZM168.339 195L172.643 189.848L172.627 190.84L168.595 185.896H171.587L174.435 189.32H173.507L176.371 185.896H179.315L175.155 190.888L175.027 189.64L179.555 195H176.515L173.411 191.32H174.387L171.315 195H168.339ZM46.232 205.896V215H43.56V206.696L44.792 207.912H37.448L38.68 206.696V215H36.008V205.896H46.232ZM48.7224 205.896H51.3944V208.792L51.2824 209.144V211.336L51.3944 211.992V217.64H48.7224V205.896ZM50.4664 210.456C50.6477 209.485 50.9624 208.643 51.4104 207.928C51.869 207.203 52.4397 206.643 53.1224 206.248C53.8157 205.853 54.5837 205.656 55.4264 205.656C56.3224 205.656 57.1064 205.859 57.7784 206.264C58.461 206.659 58.9944 207.219 59.3784 207.944C59.7624 208.659 59.9544 209.496 59.9544 210.456C59.9544 211.405 59.7624 212.243 59.3784 212.968C58.9944 213.683 58.461 214.243 57.7784 214.648C57.1064 215.043 56.3224 215.24 55.4264 215.24C54.573 215.24 53.805 215.043 53.1224 214.648C52.4504 214.253 51.885 213.699 51.4264 212.984C50.9677 212.259 50.6477 211.416 50.4664 210.456ZM57.2504 210.456C57.2504 209.923 57.1384 209.453 56.9144 209.048C56.701 208.632 56.4024 208.312 56.0184 208.088C55.6344 207.853 55.1917 207.736 54.6904 207.736C54.189 207.736 53.7144 207.853 53.2664 208.088C52.8184 208.312 52.4237 208.632 52.0824 209.048C51.7517 209.453 51.4904 209.923 51.2984 210.456C51.4904 210.989 51.7517 211.459 52.0824 211.864C52.4237 212.269 52.8184 212.589 53.2664 212.824C53.7144 213.048 54.189 213.16 54.6904 213.16C55.1917 213.16 55.6344 213.048 56.0184 212.824C56.4024 212.589 56.701 212.269 56.9144 211.864C57.1384 211.459 57.2504 210.989 57.2504 210.456ZM67.2152 215.24C66.0846 215.24 65.0926 215.043 64.2392 214.648C63.3859 214.243 62.7192 213.683 62.2392 212.968C61.7592 212.243 61.5192 211.405 61.5192 210.456C61.5192 209.496 61.7592 208.659 62.2392 207.944C62.7192 207.219 63.3859 206.659 64.2392 206.264C65.0926 205.859 66.0846 205.656 67.2152 205.656C68.3459 205.656 69.3379 205.859 70.1912 206.264C71.0446 206.659 71.7059 207.219 72.1753 207.944C72.6552 208.659 72.8952 209.496 72.8952 210.456C72.8952 211.405 72.6552 212.243 72.1753 212.968C71.7059 213.683 71.0446 214.243 70.1912 214.648C69.3379 215.043 68.3459 215.24 67.2152 215.24ZM67.2152 213.208C67.8339 213.208 68.3619 213.096 68.7992 212.872C69.2472 212.648 69.5886 212.333 69.8232 211.928C70.0686 211.512 70.1912 211.021 70.1912 210.456C70.1912 209.88 70.0686 209.389 69.8232 208.984C69.5886 208.568 69.2472 208.248 68.7992 208.024C68.3619 207.8 67.8339 207.688 67.2152 207.688C66.6072 207.688 66.0792 207.8 65.6312 208.024C65.1832 208.248 64.8366 208.568 64.5912 208.984C64.3566 209.389 64.2392 209.88 64.2392 210.456C64.2392 211.021 64.3566 211.512 64.5912 211.928C64.8366 212.333 65.1832 212.648 65.6312 212.872C66.0792 213.096 66.6072 213.208 67.2152 213.208ZM79.9884 215.24C78.9004 215.24 77.935 215.043 77.0924 214.648C76.2604 214.243 75.6097 213.677 75.1404 212.952C74.6817 212.227 74.4524 211.395 74.4524 210.456C74.4524 209.507 74.6817 208.675 75.1404 207.96C75.6097 207.235 76.2604 206.669 77.0924 206.264C77.935 205.859 78.9004 205.656 79.9884 205.656C80.9484 205.656 81.8124 205.816 82.5804 206.136C83.3484 206.456 83.9777 206.899 84.4684 207.464C84.9697 208.019 85.2844 208.669 85.4124 209.416H82.8044C82.6444 208.872 82.3084 208.429 81.7964 208.088C81.2844 207.736 80.6817 207.56 79.9884 207.56C79.391 207.56 78.8737 207.677 78.4364 207.912C77.999 208.136 77.6577 208.467 77.4124 208.904C77.1777 209.331 77.0604 209.848 77.0604 210.456C77.0604 211.053 77.1777 211.571 77.4124 212.008C77.6577 212.435 77.999 212.765 78.4364 213C78.8737 213.224 79.391 213.336 79.9884 213.336C80.6817 213.336 81.2844 213.165 81.7964 212.824C82.3084 212.483 82.6444 212.035 82.8044 211.48H85.4124C85.2844 212.227 84.9697 212.883 84.4684 213.448C83.9777 214.003 83.3484 214.44 82.5804 214.76C81.8124 215.08 80.9484 215.24 79.9884 215.24ZM75.8444 211.272V209.624H81.3484V211.272H75.8444ZM87.3186 215V205.896H89.9906V212.84L89.2066 212.568L94.6306 205.896H97.5426L89.7186 215H87.3186ZM94.7586 215L92.0386 210.536L94.0066 209.016L97.8146 215H94.7586ZM102.037 206.824H104.709V215H102.037V206.824ZM98.4209 205.896H108.325V207.944H98.4209V205.896ZM110.029 205.8L111.357 206.056L112.701 205.8V215H110.029V205.8ZM111.357 204.856C110.877 204.856 110.482 204.733 110.173 204.488C109.874 204.232 109.725 203.896 109.725 203.48C109.725 203.053 109.874 202.717 110.173 202.472C110.482 202.216 110.877 202.088 111.357 202.088C111.847 202.088 112.242 202.216 112.541 202.472C112.839 202.717 112.989 203.053 112.989 203.48C112.989 203.896 112.839 204.232 112.541 204.488C112.242 204.733 111.847 204.856 111.357 204.856ZM114.972 215L115.484 210.456L114.972 205.896H121.98C122.855 205.896 123.548 206.104 124.06 206.52C124.572 206.925 124.828 207.48 124.828 208.184C124.828 208.845 124.572 209.384 124.06 209.8C123.548 210.205 122.833 210.445 121.916 210.52L122.108 210.072C123.175 210.104 123.985 210.328 124.54 210.744C125.105 211.149 125.388 211.72 125.388 212.456C125.388 213.245 125.1 213.869 124.524 214.328C123.959 214.776 123.18 215 122.188 215H114.972ZM117.548 214.408L116.524 213.272H121.372C121.831 213.272 122.167 213.181 122.38 213C122.593 212.808 122.7 212.541 122.7 212.2C122.7 211.891 122.583 211.64 122.348 211.448C122.113 211.245 121.729 211.144 121.196 211.144H117.068V209.624H120.844C121.292 209.624 121.617 209.533 121.82 209.352C122.033 209.171 122.14 208.925 122.14 208.616C122.14 208.328 122.044 208.093 121.852 207.912C121.671 207.731 121.372 207.64 120.956 207.64H116.54L117.548 206.504L118.044 210.456L117.548 214.408ZM35.784 235L36.296 230.456L35.784 225.896H42.792C43.6667 225.896 44.36 226.104 44.872 226.52C45.384 226.925 45.64 227.48 45.64 228.184C45.64 228.845 45.384 229.384 44.872 229.8C44.36 230.205 43.6453 230.445 42.728 230.52L42.92 230.072C43.9867 230.104 44.7973 230.328 45.352 230.744C45.9173 231.149 46.2 231.72 46.2 232.456C46.2 233.245 45.912 233.869 45.336 234.328C44.7707 234.776 43.992 235 43 235H35.784ZM38.36 234.408L37.336 233.272H42.184C42.6427 233.272 42.9787 233.181 43.192 233C43.4053 232.808 43.512 232.541 43.512 232.2C43.512 231.891 43.3947 231.64 43.16 231.448C42.9253 231.245 42.5413 231.144 42.008 231.144H37.88V229.624H41.656C42.104 229.624 42.4293 229.533 42.632 229.352C42.8453 229.171 42.952 228.925 42.952 228.616C42.952 228.328 42.856 228.093 42.664 227.912C42.4827 227.731 42.184 227.64 41.768 227.64H37.352L38.36 226.504L38.856 230.456L38.36 234.408ZM52.3645 231.08H55.1165C55.1805 231.485 55.3565 231.843 55.6445 232.152C55.9432 232.451 56.3378 232.685 56.8285 232.856C57.3298 233.016 57.9058 233.096 58.5565 233.096C59.5058 233.096 60.2525 232.963 60.7965 232.696C61.3512 232.419 61.6285 232.035 61.6285 231.544C61.6285 231.16 61.4685 230.867 61.1485 230.664C60.8392 230.451 60.2578 230.296 59.4045 230.2L56.9885 229.928C55.4312 229.757 54.3005 229.395 53.5965 228.84C52.9032 228.275 52.5565 227.491 52.5565 226.488C52.5565 225.699 52.7858 225.027 53.2445 224.472C53.7138 223.917 54.3698 223.496 55.2125 223.208C56.0552 222.909 57.0472 222.76 58.1885 222.76C59.2978 222.76 60.2845 222.925 61.1485 223.256C62.0125 223.576 62.7005 224.029 63.2125 224.616C63.7245 225.192 64.0018 225.869 64.0445 226.648H61.2925C61.2392 226.296 61.0792 225.992 60.8125 225.736C60.5565 225.469 60.1992 225.267 59.7405 225.128C59.2818 224.979 58.7432 224.904 58.1245 224.904C57.2605 224.904 56.5725 225.032 56.0605 225.288C55.5485 225.544 55.2925 225.907 55.2925 226.376C55.2925 226.739 55.4418 227.021 55.7405 227.224C56.0498 227.416 56.5885 227.56 57.3565 227.656L59.8685 227.96C60.9778 228.077 61.8578 228.269 62.5085 228.536C63.1698 228.792 63.6392 229.139 63.9165 229.576C64.2045 230.013 64.3485 230.568 64.3485 231.24C64.3485 232.04 64.1032 232.744 63.6125 233.352C63.1325 233.949 62.4552 234.413 61.5805 234.744C60.7058 235.075 59.6818 235.24 58.5085 235.24C57.3138 235.24 56.2632 235.069 55.3565 234.728C54.4498 234.376 53.7352 233.891 53.2125 233.272C52.6898 232.643 52.4072 231.912 52.3645 231.08ZM70.2571 235.24C69.4145 235.24 68.6945 235.069 68.0971 234.728C67.5105 234.376 67.0571 233.88 66.7371 233.24C66.4278 232.6 66.2731 231.843 66.2731 230.968V225.896H68.9451V230.568C68.9451 231.379 69.1371 231.997 69.5211 232.424C69.9051 232.84 70.4491 233.048 71.1531 233.048C71.6758 233.048 72.1185 232.941 72.4811 232.728C72.8545 232.504 73.1425 232.184 73.3451 231.768C73.5478 231.352 73.6491 230.867 73.6491 230.312L74.5131 230.776C74.4065 231.715 74.1558 232.52 73.7611 233.192C73.3665 233.853 72.8651 234.36 72.2571 234.712C71.6598 235.064 70.9931 235.24 70.2571 235.24ZM74.2091 235L73.6491 231.544V225.896H76.3211V231.944L76.8811 235H74.2091ZM78.9436 222.68H81.6156V228.792L81.2476 229.512V231.496L81.6156 232.232V235H78.9436V222.68ZM80.6716 230.456C80.8423 229.485 81.157 228.643 81.6156 227.928C82.0743 227.203 82.645 226.643 83.3276 226.248C84.0103 225.853 84.7783 225.656 85.6316 225.656C86.517 225.656 87.301 225.859 87.9836 226.264C88.6663 226.659 89.1996 227.219 89.5836 227.944C89.9676 228.659 90.1596 229.496 90.1596 230.456C90.1596 231.405 89.9676 232.243 89.5836 232.968C89.1996 233.683 88.6663 234.243 87.9836 234.648C87.301 235.043 86.517 235.24 85.6316 235.24C84.7783 235.24 84.0103 235.043 83.3276 234.648C82.645 234.253 82.0743 233.699 81.6156 232.984C81.1676 232.259 80.853 231.416 80.6716 230.456ZM87.4396 230.456C87.4396 229.923 87.3276 229.453 87.1036 229.048C86.8903 228.632 86.5916 228.312 86.2076 228.088C85.8236 227.853 85.3863 227.736 84.8956 227.736C84.3943 227.736 83.9196 227.853 83.4716 228.088C83.0236 228.312 82.629 228.632 82.2876 229.048C81.957 229.453 81.6956 229.923 81.5036 230.456C81.6956 230.989 81.957 231.459 82.2876 231.864C82.629 232.269 83.0236 232.589 83.4716 232.824C83.9196 233.048 84.3943 233.16 84.8956 233.16C85.3863 233.16 85.8236 233.048 86.2076 232.824C86.5916 232.589 86.8903 232.269 87.1036 231.864C87.3276 231.459 87.4396 230.989 87.4396 230.456ZM91.7416 225.896H94.4136L94.9896 229.368V235H92.3176V228.968L91.7416 225.896ZM98.2376 225.656C99.0483 225.656 99.7416 225.832 100.318 226.184C100.894 226.525 101.331 227.016 101.63 227.656C101.939 228.296 102.094 229.059 102.094 229.944V235H99.4216V230.344C99.4216 229.523 99.2403 228.904 98.8776 228.488C98.5256 228.061 98.0083 227.848 97.3256 227.848C96.8456 227.848 96.4296 227.965 96.0776 228.2C95.7256 228.424 95.4536 228.739 95.2616 229.144C95.0803 229.549 94.9896 230.035 94.9896 230.6L94.1096 230.136C94.2163 229.176 94.4616 228.365 94.8456 227.704C95.2296 227.043 95.7096 226.536 96.2856 226.184C96.8723 225.832 97.523 225.656 98.2376 225.656ZM105.326 225.656C106.136 225.656 106.83 225.832 107.406 226.184C107.992 226.525 108.435 227.016 108.734 227.656C109.043 228.296 109.198 229.059 109.198 229.944V235H106.526V230.344C106.526 229.523 106.344 228.904 105.982 228.488C105.63 228.061 105.112 227.848 104.43 227.848C103.95 227.848 103.534 227.965 103.182 228.2C102.83 228.424 102.558 228.739 102.366 229.144C102.184 229.549 102.094 230.035 102.094 230.6L101.214 230.136C101.32 229.176 101.566 228.365 101.95 227.704C102.334 227.043 102.814 226.536 103.39 226.184C103.976 225.832 104.622 225.656 105.326 225.656ZM119.896 235L119.512 231.672L119.944 230.456L119.512 229.256L119.896 225.896H122.664L122.136 230.456L122.664 235H119.896ZM120.6 230.456C120.429 231.416 120.115 232.259 119.656 232.984C119.208 233.699 118.637 234.253 117.944 234.648C117.261 235.043 116.493 235.24 115.64 235.24C114.755 235.24 113.971 235.043 113.288 234.648C112.605 234.243 112.072 233.683 111.688 232.968C111.315 232.243 111.128 231.405 111.128 230.456C111.128 229.496 111.315 228.659 111.688 227.944C112.072 227.219 112.605 226.659 113.288 226.264C113.971 225.859 114.755 225.656 115.64 225.656C116.493 225.656 117.261 225.853 117.944 226.248C118.637 226.643 119.213 227.203 119.672 227.928C120.131 228.643 120.44 229.485 120.6 230.456ZM113.832 230.456C113.832 230.989 113.939 231.459 114.152 231.864C114.376 232.269 114.68 232.589 115.064 232.824C115.448 233.048 115.891 233.16 116.392 233.16C116.893 233.16 117.363 233.048 117.8 232.824C118.248 232.589 118.643 232.269 118.984 231.864C119.325 231.459 119.592 230.989 119.784 230.456C119.592 229.923 119.325 229.453 118.984 229.048C118.643 228.632 118.248 228.312 117.8 228.088C117.363 227.853 116.893 227.736 116.392 227.736C115.891 227.736 115.448 227.853 115.064 228.088C114.68 228.312 114.376 228.632 114.152 229.048C113.939 229.453 113.832 229.923 113.832 230.456ZM124.499 225.896H127.203L127.747 229.176V235H125.075V228.888L124.499 225.896ZM132.179 225.8V228.104C131.901 228.04 131.624 227.992 131.347 227.96C131.069 227.928 130.808 227.912 130.563 227.912C130.029 227.912 129.549 228.024 129.123 228.248C128.696 228.472 128.36 228.819 128.115 229.288C127.869 229.757 127.747 230.349 127.747 231.064L127.187 230.392C127.251 229.741 127.368 229.133 127.539 228.568C127.709 227.992 127.944 227.491 128.243 227.064C128.552 226.627 128.931 226.285 129.379 226.04C129.827 225.784 130.36 225.656 130.979 225.656C131.181 225.656 131.384 225.672 131.587 225.704C131.8 225.725 131.997 225.757 132.179 225.8ZM133.895 225.8L135.223 226.056L136.567 225.8V235H133.895V225.8ZM135.223 224.856C134.743 224.856 134.348 224.733 134.039 224.488C133.74 224.232 133.591 223.896 133.591 223.48C133.591 223.053 133.74 222.717 134.039 222.472C134.348 222.216 134.743 222.088 135.223 222.088C135.714 222.088 136.108 222.216 136.407 222.472C136.706 222.717 136.855 223.053 136.855 223.48C136.855 223.896 136.706 224.232 136.407 224.488C136.108 224.733 135.714 224.856 135.223 224.856ZM138.63 225.896H141.302L141.878 229.368V235H139.206V228.968L138.63 225.896ZM145.35 225.656C146.214 225.656 146.95 225.832 147.558 226.184C148.166 226.525 148.63 227.016 148.95 227.656C149.27 228.296 149.43 229.059 149.43 229.944V235H146.758V230.344C146.758 229.523 146.561 228.904 146.166 228.488C145.772 228.061 145.196 227.848 144.438 227.848C143.926 227.848 143.473 227.965 143.078 228.2C142.694 228.424 142.396 228.739 142.182 229.144C141.98 229.549 141.878 230.035 141.878 230.6L140.998 230.136C141.105 229.176 141.361 228.365 141.766 227.704C142.172 227.043 142.684 226.536 143.302 226.184C143.921 225.832 144.604 225.656 145.35 225.656ZM156.928 235.24C155.851 235.24 154.886 235.043 154.032 234.648C153.19 234.243 152.523 233.677 152.032 232.952C151.552 232.227 151.312 231.384 151.312 230.424C151.312 229.475 151.542 228.643 152 227.928C152.47 227.213 153.11 226.659 153.92 226.264C154.731 225.859 155.654 225.656 156.688 225.656C157.744 225.656 158.651 225.891 159.408 226.36C160.166 226.819 160.747 227.469 161.152 228.312C161.568 229.155 161.776 230.147 161.776 231.288H153.456V229.512H160.336L159.296 230.152C159.254 229.619 159.12 229.165 158.896 228.792C158.683 228.419 158.39 228.131 158.016 227.928C157.643 227.725 157.206 227.624 156.704 227.624C156.16 227.624 155.686 227.736 155.28 227.96C154.886 228.173 154.576 228.477 154.352 228.872C154.139 229.256 154.032 229.709 154.032 230.232C154.032 230.861 154.171 231.4 154.448 231.848C154.726 232.296 155.131 232.637 155.664 232.872C156.198 233.107 156.843 233.224 157.6 233.224C158.283 233.224 158.971 233.128 159.664 232.936C160.358 232.733 160.982 232.451 161.536 232.088V233.88C160.939 234.307 160.24 234.643 159.44 234.888C158.651 235.123 157.814 235.24 156.928 235.24ZM165.291 235.144C164.843 235.144 164.47 235 164.171 234.712C163.883 234.424 163.739 234.061 163.739 233.624C163.739 233.187 163.883 232.824 164.171 232.536C164.47 232.248 164.843 232.104 165.291 232.104C165.75 232.104 166.123 232.248 166.411 232.536C166.71 232.824 166.859 233.187 166.859 233.624C166.859 234.061 166.71 234.424 166.411 234.712C166.123 235 165.75 235.144 165.291 235.144ZM165.291 229.48C164.843 229.48 164.47 229.336 164.171 229.048C163.883 228.76 163.739 228.397 163.739 227.96C163.739 227.523 163.883 227.16 164.171 226.872C164.47 226.584 164.843 226.44 165.291 226.44C165.75 226.44 166.123 226.584 166.411 226.872C166.71 227.16 166.859 227.523 166.859 227.96C166.859 228.397 166.71 228.76 166.411 229.048C166.123 229.336 165.75 229.48 165.291 229.48Z" fill="white"/>
<path d="M254.2 162.8H255.16V174H254.04V164.032L251.528 164.784L251.24 163.824L254.2 162.8ZM264.918 166.304C264.918 167.147 264.688 167.893 264.23 168.544L260.566 174H259.302L262.054 169.904C261.766 169.968 261.467 170 261.158 170C260.059 170 259.158 169.659 258.454 168.976C257.75 168.283 257.398 167.392 257.398 166.304C257.398 165.216 257.75 164.331 258.454 163.648C259.158 162.955 260.059 162.608 261.158 162.608C262.256 162.608 263.158 162.955 263.862 163.648C264.566 164.331 264.918 165.216 264.918 166.304ZM259.238 164.416C258.758 164.896 258.518 165.525 258.518 166.304C258.518 167.083 258.758 167.712 259.238 168.192C259.728 168.672 260.368 168.912 261.158 168.912C261.947 168.912 262.582 168.672 263.062 168.192C263.552 167.712 263.798 167.083 263.798 166.304C263.798 165.525 263.552 164.896 263.062 164.416C262.582 163.936 261.947 163.696 261.158 163.696C260.368 163.696 259.728 163.936 259.238 164.416ZM273.562 167.888V168.912H270.714V171.76H269.69V168.912H266.842V167.888H269.69V165.04H270.714V167.888H273.562Z" fill="white"/>
<path d="M39.048 271L41.112 267.432H41.144L46.008 259H48.952L41.992 271H39.048ZM41.112 269.256L35.128 259H38.12L42.984 267.368L41.112 269.256ZM49.8529 261.896H59.2609V271H56.5889V262.696L57.8209 263.912H51.1809L52.3329 262.92C52.3862 263.571 52.4289 264.173 52.4609 264.728C52.5035 265.272 52.5249 265.763 52.5249 266.2C52.5249 267.949 52.2635 269.219 51.7409 270.008C51.2289 270.797 50.3969 271.192 49.2449 271.192C48.9249 271.192 48.6155 271.155 48.3169 271.08C48.0289 271.016 47.7462 270.904 47.4689 270.744V268.808C47.6609 268.883 47.8475 268.941 48.0289 268.984C48.2209 269.016 48.3969 269.032 48.5569 269.032C49.1009 269.032 49.4902 268.787 49.7249 268.296C49.9702 267.795 50.0929 266.973 50.0929 265.832C50.0929 265.32 50.0715 264.733 50.0289 264.072C49.9969 263.411 49.9382 262.685 49.8529 261.896ZM71.5573 271.24C70.4372 271.24 69.4559 271.043 68.6132 270.648C67.7706 270.243 67.1146 269.683 66.6452 268.968C66.1866 268.243 65.9572 267.405 65.9572 266.456C65.9572 265.496 66.1866 264.659 66.6452 263.944C67.1146 263.219 67.7706 262.659 68.6132 262.264C69.4559 261.859 70.4372 261.656 71.5573 261.656C72.6772 261.656 73.6586 261.859 74.5012 262.264C75.3439 262.659 75.9999 263.219 76.4692 263.944C76.9386 264.659 77.1733 265.496 77.1733 266.456C77.1733 267.405 76.9386 268.243 76.4692 268.968C75.9999 269.683 75.3439 270.243 74.5012 270.648C73.6586 271.043 72.6772 271.24 71.5573 271.24ZM61.7492 271V261.896H64.4212V271H61.7492ZM63.2532 267.368V265.368H67.6532V267.368H63.2532ZM71.5573 269.208C72.1652 269.208 72.6826 269.096 73.1093 268.872C73.5466 268.648 73.8826 268.333 74.1172 267.928C74.3519 267.512 74.4692 267.021 74.4692 266.456C74.4692 265.88 74.3519 265.389 74.1172 264.984C73.8826 264.568 73.5466 264.248 73.1093 264.024C72.6826 263.8 72.1652 263.688 71.5573 263.688C70.9599 263.688 70.4426 263.8 70.0052 264.024C69.5679 264.248 69.2319 264.568 68.9972 264.984C68.7626 265.389 68.6452 265.88 68.6452 266.456C68.6452 267.021 68.7626 267.512 68.9972 267.928C69.2319 268.333 69.5679 268.648 70.0052 268.872C70.4426 269.096 70.9599 269.208 71.5573 269.208ZM84.782 271.24C83.534 271.24 82.4673 271.005 81.582 270.536C80.6967 270.056 80.0193 269.368 79.55 268.472C79.0807 267.576 78.846 266.493 78.846 265.224C78.846 263.336 79.3527 261.848 80.366 260.76C81.3793 259.672 82.83 259.048 84.718 258.888C85.486 258.824 86.1207 258.771 86.622 258.728C87.1233 258.685 87.534 258.643 87.854 258.6C88.1847 258.547 88.462 258.493 88.686 258.44C88.91 258.376 89.1287 258.307 89.342 258.232V260.456C89.118 260.541 88.83 260.621 88.478 260.696C88.1367 260.76 87.6993 260.813 87.166 260.856C86.6433 260.899 85.998 260.941 85.23 260.984C83.8327 261.048 82.7927 261.432 82.11 262.136C81.4273 262.84 81.086 263.853 81.086 265.176V265.608L80.99 265.416C81.2033 264.84 81.5287 264.344 81.966 263.928C82.4033 263.512 82.926 263.197 83.534 262.984C84.1527 262.76 84.8193 262.648 85.534 262.648C86.462 262.648 87.2727 262.824 87.966 263.176C88.6593 263.517 89.198 264.003 89.582 264.632C89.9767 265.261 90.174 265.997 90.174 266.84C90.174 267.725 89.95 268.499 89.502 269.16C89.054 269.821 88.4247 270.333 87.614 270.696C86.814 271.059 85.87 271.24 84.782 271.24ZM84.846 269.208C85.3793 269.208 85.8433 269.112 86.238 268.92C86.6327 268.728 86.9367 268.456 87.15 268.104C87.3633 267.752 87.47 267.341 87.47 266.872C87.47 266.403 87.3633 265.997 87.15 265.656C86.9367 265.304 86.6327 265.032 86.238 264.84C85.8433 264.648 85.3793 264.552 84.846 264.552C84.11 264.552 83.4593 264.749 82.894 265.144C82.3287 265.528 81.902 266.067 81.614 266.76C81.7847 267.507 82.158 268.104 82.734 268.552C83.3207 268.989 84.0247 269.208 84.846 269.208ZM93.5585 261.896H102.966V271H100.294V262.696L101.526 263.912H94.8865L96.0385 262.92C96.0918 263.571 96.1345 264.173 96.1665 264.728C96.2092 265.272 96.2305 265.763 96.2305 266.2C96.2305 267.949 95.9692 269.219 95.4465 270.008C94.9345 270.797 94.1025 271.192 92.9505 271.192C92.6305 271.192 92.3212 271.155 92.0225 271.08C91.7345 271.016 91.4518 270.904 91.1745 270.744V268.808C91.3665 268.883 91.5532 268.941 91.7345 268.984C91.9265 269.016 92.1025 269.032 92.2625 269.032C92.8065 269.032 93.1958 268.787 93.4305 268.296C93.6758 267.795 93.7985 266.973 93.7985 265.832C93.7985 265.32 93.7772 264.733 93.7345 264.072C93.7025 263.411 93.6438 262.685 93.5585 261.896ZM110.591 271.24C109.514 271.24 108.548 271.043 107.695 270.648C106.852 270.243 106.186 269.677 105.695 268.952C105.215 268.227 104.975 267.384 104.975 266.424C104.975 265.475 105.204 264.643 105.663 263.928C106.132 263.213 106.772 262.659 107.583 262.264C108.394 261.859 109.316 261.656 110.351 261.656C111.407 261.656 112.314 261.891 113.071 262.36C113.828 262.819 114.41 263.469 114.815 264.312C115.231 265.155 115.439 266.147 115.439 267.288H107.119V265.512H113.999L112.959 266.152C112.916 265.619 112.783 265.165 112.559 264.792C112.346 264.419 112.052 264.131 111.679 263.928C111.306 263.725 110.868 263.624 110.367 263.624C109.823 263.624 109.348 263.736 108.943 263.96C108.548 264.173 108.239 264.477 108.015 264.872C107.802 265.256 107.695 265.709 107.695 266.232C107.695 266.861 107.834 267.4 108.111 267.848C108.388 268.296 108.794 268.637 109.327 268.872C109.86 269.107 110.506 269.224 111.263 269.224C111.946 269.224 112.634 269.128 113.327 268.936C114.02 268.733 114.644 268.451 115.199 268.088V269.88C114.602 270.307 113.903 270.643 113.103 270.888C112.314 271.123 111.476 271.24 110.591 271.24ZM117.482 261.896H120.138V271H117.482V261.896ZM125.114 261.896H127.77V271H125.114V261.896ZM119.002 265.352H126.154V267.368H119.002V265.352ZM130.259 261.8L131.587 262.056L132.931 261.8V271H130.259V261.8ZM131.587 260.856C131.107 260.856 130.712 260.733 130.403 260.488C130.104 260.232 129.955 259.896 129.955 259.48C129.955 259.053 130.104 258.717 130.403 258.472C130.712 258.216 131.107 258.088 131.587 258.088C132.077 258.088 132.472 258.216 132.771 258.472C133.069 258.717 133.219 259.053 133.219 259.48C133.219 259.896 133.069 260.232 132.771 260.488C132.472 260.733 132.077 260.856 131.587 260.856ZM150.224 261.896V271H147.552V262.696L148.784 263.912H141.44L142.672 262.696V271H140V261.896H150.224ZM152.714 261.896H155.386V264.792L155.274 265.144V267.336L155.386 267.992V273.64H152.714V261.896ZM154.458 266.456C154.64 265.485 154.954 264.643 155.402 263.928C155.861 263.203 156.432 262.643 157.114 262.248C157.808 261.853 158.576 261.656 159.418 261.656C160.314 261.656 161.098 261.859 161.77 262.264C162.453 262.659 162.986 263.219 163.37 263.944C163.754 264.659 163.946 265.496 163.946 266.456C163.946 267.405 163.754 268.243 163.37 268.968C162.986 269.683 162.453 270.243 161.77 270.648C161.098 271.043 160.314 271.24 159.418 271.24C158.565 271.24 157.797 271.043 157.114 270.648C156.442 270.253 155.877 269.699 155.418 268.984C154.96 268.259 154.64 267.416 154.458 266.456ZM161.242 266.456C161.242 265.923 161.13 265.453 160.906 265.048C160.693 264.632 160.394 264.312 160.01 264.088C159.626 263.853 159.184 263.736 158.682 263.736C158.181 263.736 157.706 263.853 157.258 264.088C156.81 264.312 156.416 264.632 156.074 265.048C155.744 265.453 155.482 265.923 155.29 266.456C155.482 266.989 155.744 267.459 156.074 267.864C156.416 268.269 156.81 268.589 157.258 268.824C157.706 269.048 158.181 269.16 158.682 269.16C159.184 269.16 159.626 269.048 160.01 268.824C160.394 268.589 160.693 268.269 160.906 267.864C161.13 267.459 161.242 266.989 161.242 266.456ZM171.207 271.24C170.076 271.24 169.084 271.043 168.231 270.648C167.378 270.243 166.711 269.683 166.231 268.968C165.751 268.243 165.511 267.405 165.511 266.456C165.511 265.496 165.751 264.659 166.231 263.944C166.711 263.219 167.378 262.659 168.231 262.264C169.084 261.859 170.076 261.656 171.207 261.656C172.338 261.656 173.33 261.859 174.183 262.264C175.036 262.659 175.698 263.219 176.167 263.944C176.647 264.659 176.887 265.496 176.887 266.456C176.887 267.405 176.647 268.243 176.167 268.968C175.698 269.683 175.036 270.243 174.183 270.648C173.33 271.043 172.338 271.24 171.207 271.24ZM171.207 269.208C171.826 269.208 172.354 269.096 172.791 268.872C173.239 268.648 173.58 268.333 173.815 267.928C174.06 267.512 174.183 267.021 174.183 266.456C174.183 265.88 174.06 265.389 173.815 264.984C173.58 264.568 173.239 264.248 172.791 264.024C172.354 263.8 171.826 263.688 171.207 263.688C170.599 263.688 170.071 263.8 169.623 264.024C169.175 264.248 168.828 264.568 168.583 264.984C168.348 265.389 168.231 265.88 168.231 266.456C168.231 267.021 168.348 267.512 168.583 267.928C168.828 268.333 169.175 268.648 169.623 268.872C170.071 269.096 170.599 269.208 171.207 269.208ZM183.98 271.24C182.892 271.24 181.927 271.043 181.084 270.648C180.252 270.243 179.602 269.677 179.132 268.952C178.674 268.227 178.444 267.395 178.444 266.456C178.444 265.507 178.674 264.675 179.132 263.96C179.602 263.235 180.252 262.669 181.084 262.264C181.927 261.859 182.892 261.656 183.98 261.656C184.94 261.656 185.804 261.816 186.572 262.136C187.34 262.456 187.97 262.899 188.46 263.464C188.962 264.019 189.276 264.669 189.404 265.416H186.796C186.636 264.872 186.3 264.429 185.788 264.088C185.276 263.736 184.674 263.56 183.98 263.56C183.383 263.56 182.866 263.677 182.428 263.912C181.991 264.136 181.65 264.467 181.404 264.904C181.17 265.331 181.052 265.848 181.052 266.456C181.052 267.053 181.17 267.571 181.404 268.008C181.65 268.435 181.991 268.765 182.428 269C182.866 269.224 183.383 269.336 183.98 269.336C184.674 269.336 185.276 269.165 185.788 268.824C186.3 268.483 186.636 268.035 186.796 267.48H189.404C189.276 268.227 188.962 268.883 188.46 269.448C187.97 270.003 187.34 270.44 186.572 270.76C185.804 271.08 184.94 271.24 183.98 271.24ZM179.836 267.272V265.624H185.34V267.272H179.836ZM191.311 271V261.896H193.983V268.84L193.199 268.568L198.623 261.896H201.535L193.711 271H191.311ZM198.751 271L196.031 266.536L197.999 265.016L201.807 271H198.751ZM206.029 262.824H208.701V271H206.029V262.824ZM202.413 261.896H212.317V263.944H202.413V261.896ZM214.02 271V261.896H216.644V269.592L215.988 269.416L221.476 261.896H224.916V271H222.292V263.16L222.948 263.352L217.364 271H214.02ZM228.879 271.144C228.431 271.144 228.057 271 227.759 270.712C227.471 270.424 227.327 270.061 227.327 269.624C227.327 269.187 227.471 268.824 227.759 268.536C228.057 268.248 228.431 268.104 228.879 268.104C229.337 268.104 229.711 268.248 229.999 268.536C230.297 268.824 230.447 269.187 230.447 269.624C230.447 270.061 230.297 270.424 229.999 270.712C229.711 271 229.337 271.144 228.879 271.144ZM228.879 265.48C228.431 265.48 228.057 265.336 227.759 265.048C227.471 264.76 227.327 264.397 227.327 263.96C227.327 263.523 227.471 263.16 227.759 262.872C228.057 262.584 228.431 262.44 228.879 262.44C229.337 262.44 229.711 262.584 229.999 262.872C230.297 263.16 230.447 263.523 230.447 263.96C230.447 264.397 230.297 264.76 229.999 265.048C229.711 265.336 229.337 265.48 228.879 265.48Z" fill="white"/>
<path d="M258.488 264.192C259.032 264.427 259.464 264.784 259.784 265.264C260.115 265.733 260.28 266.272 260.28 266.88C260.28 267.744 259.976 268.48 259.368 269.088C258.76 269.696 258.024 270 257.16 270H252.28V258.8H256.792C257.624 258.8 258.333 259.099 258.92 259.696C259.507 260.283 259.8 260.987 259.8 261.808C259.8 262.853 259.363 263.648 258.488 264.192ZM256.792 259.856H253.4V263.76H256.792C257.315 263.76 257.757 263.573 258.12 263.2C258.493 262.816 258.68 262.352 258.68 261.808C258.68 261.275 258.493 260.816 258.12 260.432C257.757 260.048 257.315 259.856 256.792 259.856ZM257.16 268.944C257.715 268.944 258.184 268.747 258.568 268.352C258.963 267.947 259.16 267.456 259.16 266.88C259.16 266.315 258.963 265.829 258.568 265.424C258.184 265.019 257.715 264.816 257.16 264.816H253.4V268.944H257.16ZM269.402 262H270.458V270H269.402V268.432C268.666 269.605 267.589 270.192 266.17 270.192C265.029 270.192 264.053 269.787 263.242 268.976C262.442 268.165 262.042 267.173 262.042 266C262.042 264.827 262.442 263.835 263.242 263.024C264.053 262.213 265.029 261.808 266.17 261.808C267.589 261.808 268.666 262.395 269.402 263.568V262ZM264.01 268.256C264.618 268.864 265.365 269.168 266.25 269.168C267.135 269.168 267.882 268.864 268.49 268.256C269.098 267.637 269.402 266.885 269.402 266C269.402 265.115 269.098 264.368 268.49 263.76C267.882 263.141 267.135 262.832 266.25 262.832C265.365 262.832 264.618 263.141 264.01 263.76C263.402 264.368 263.098 265.115 263.098 266C263.098 266.885 263.402 267.637 264.01 268.256ZM274.23 263.328C274.72 262.357 275.563 261.872 276.758 261.872V262.896C276.032 262.896 275.43 263.109 274.95 263.536C274.47 263.963 274.23 264.635 274.23 265.552V270H273.174V262H274.23V263.328ZM282.973 261.808C284.114 261.808 285.085 262.213 285.885 263.024C286.696 263.835 287.101 264.827 287.101 266C287.101 267.173 286.696 268.165 285.885 268.976C285.085 269.787 284.114 270.192 282.973 270.192C281.554 270.192 280.477 269.605 279.741 268.432V270H278.685V258.8H279.741V263.568C280.477 262.395 281.554 261.808 282.973 261.808ZM280.653 268.256C281.261 268.864 282.008 269.168 282.893 269.168C283.778 269.168 284.525 268.864 285.133 268.256C285.741 267.637 286.045 266.885 286.045 266C286.045 265.115 285.741 264.368 285.133 263.76C284.525 263.141 283.778 262.832 282.893 262.832C282.008 262.832 281.261 263.141 280.653 263.76C280.045 264.368 279.741 265.115 279.741 266C279.741 266.885 280.045 267.637 280.653 268.256ZM293.033 261.808C294.217 261.808 295.172 262.229 295.897 263.072C296.633 263.904 297.001 264.891 297.001 266.032C297.001 266.149 296.99 266.315 296.969 266.528H289.945C290.052 267.339 290.393 267.984 290.969 268.464C291.556 268.933 292.276 269.168 293.129 269.168C293.737 269.168 294.26 269.045 294.697 268.8C295.145 268.544 295.481 268.213 295.705 267.808L296.633 268.352C296.281 268.917 295.801 269.365 295.193 269.696C294.585 270.027 293.892 270.192 293.113 270.192C291.854 270.192 290.83 269.797 290.041 269.008C289.252 268.219 288.857 267.216 288.857 266C288.857 264.805 289.246 263.808 290.025 263.008C290.804 262.208 291.806 261.808 293.033 261.808ZM293.033 262.832C292.201 262.832 291.502 263.083 290.937 263.584C290.382 264.075 290.052 264.715 289.945 265.504H295.913C295.806 264.661 295.481 264.005 294.937 263.536C294.393 263.067 293.758 262.832 293.033 262.832ZM300.217 263.328C300.707 262.357 301.55 261.872 302.745 261.872V262.896C302.019 262.896 301.417 263.109 300.937 263.536C300.457 263.963 300.217 264.635 300.217 265.552V270H299.161V262H300.217V263.328ZM255.848 290.192C254.643 290.192 253.64 289.792 252.84 288.992C252.04 288.181 251.64 287.184 251.64 286C251.64 284.816 252.04 283.824 252.84 283.024C253.64 282.213 254.643 281.808 255.848 281.808C256.637 281.808 257.347 282 257.976 282.384C258.605 282.757 259.064 283.264 259.352 283.904L258.488 284.4C258.275 283.92 257.928 283.541 257.448 283.264C256.979 282.976 256.445 282.832 255.848 282.832C254.963 282.832 254.216 283.141 253.608 283.76C253 284.368 252.696 285.115 252.696 286C252.696 286.885 253 287.637 253.608 288.256C254.216 288.864 254.963 289.168 255.848 289.168C256.445 289.168 256.979 289.029 257.448 288.752C257.917 288.464 258.285 288.08 258.552 287.6L259.432 288.112C259.101 288.752 258.616 289.259 257.976 289.632C257.336 290.005 256.627 290.192 255.848 290.192ZM268.054 288.992C267.243 289.792 266.251 290.192 265.078 290.192C263.905 290.192 262.907 289.792 262.086 288.992C261.275 288.181 260.87 287.184 260.87 286C260.87 284.816 261.275 283.824 262.086 283.024C262.907 282.213 263.905 281.808 265.078 281.808C266.251 281.808 267.243 282.213 268.054 283.024C268.875 283.824 269.286 284.816 269.286 286C269.286 287.184 268.875 288.181 268.054 288.992ZM262.838 288.256C263.446 288.864 264.193 289.168 265.078 289.168C265.963 289.168 266.71 288.864 267.318 288.256C267.926 287.637 268.23 286.885 268.23 286C268.23 285.115 267.926 284.368 267.318 283.76C266.71 283.141 265.963 282.832 265.078 282.832C264.193 282.832 263.446 283.141 262.838 283.76C262.23 284.368 261.926 285.115 261.926 286C261.926 286.885 262.23 287.637 262.838 288.256ZM280.061 281.808C280.957 281.808 281.677 282.096 282.221 282.672C282.776 283.248 283.053 284.027 283.053 285.008V290H281.997V285.008C281.997 284.315 281.816 283.781 281.453 283.408C281.101 283.024 280.632 282.832 280.045 282.832C279.384 282.832 278.845 283.056 278.429 283.504C278.024 283.941 277.821 284.629 277.821 285.568V290H276.765V285.008C276.765 284.304 276.594 283.765 276.253 283.392C275.922 283.019 275.469 282.832 274.893 282.832C274.253 282.832 273.709 283.056 273.261 283.504C272.813 283.952 272.589 284.64 272.589 285.568V290H271.533V282H272.589V283.168C273.165 282.261 273.981 281.808 275.037 281.808C276.189 281.808 277 282.293 277.469 283.264C278.045 282.293 278.909 281.808 280.061 281.808ZM289.864 281.808C291.005 281.808 291.976 282.213 292.776 283.024C293.586 283.835 293.992 284.827 293.992 286C293.992 287.173 293.586 288.165 292.776 288.976C291.976 289.787 291.005 290.192 289.864 290.192C288.445 290.192 287.368 289.605 286.632 288.432V293.2H285.576V282H286.632V283.568C287.368 282.395 288.445 281.808 289.864 281.808ZM287.544 288.256C288.152 288.864 288.898 289.168 289.784 289.168C290.669 289.168 291.416 288.864 292.024 288.256C292.632 287.637 292.936 286.885 292.936 286C292.936 285.115 292.632 284.368 292.024 283.76C291.416 283.141 290.669 282.832 289.784 282.832C288.898 282.832 288.152 283.141 287.544 283.76C286.936 284.368 286.632 285.115 286.632 286C286.632 286.885 286.936 287.637 287.544 288.256ZM303.107 282H304.163V290H303.107V288.432C302.371 289.605 301.294 290.192 299.875 290.192C298.734 290.192 297.758 289.787 296.947 288.976C296.147 288.165 295.747 287.173 295.747 286C295.747 284.827 296.147 283.835 296.947 283.024C297.758 282.213 298.734 281.808 299.875 281.808C301.294 281.808 302.371 282.395 303.107 283.568V282ZM297.715 288.256C298.323 288.864 299.07 289.168 299.955 289.168C300.841 289.168 301.587 288.864 302.195 288.256C302.803 287.637 303.107 286.885 303.107 286C303.107 285.115 302.803 284.368 302.195 283.76C301.587 283.141 300.841 282.832 299.955 282.832C299.07 282.832 298.323 283.141 297.715 283.76C297.107 284.368 296.803 285.115 296.803 286C296.803 286.885 297.107 287.637 297.715 288.256ZM310.623 281.808C311.594 281.808 312.357 282.107 312.911 282.704C313.477 283.291 313.759 284.085 313.759 285.088V290H312.703V285.088C312.703 284.373 312.511 283.819 312.127 283.424C311.754 283.029 311.221 282.832 310.527 282.832C309.759 282.832 309.135 283.077 308.655 283.568C308.175 284.048 307.935 284.795 307.935 285.808V290H306.879V282H307.935V283.248C308.533 282.288 309.429 281.808 310.623 281.808ZM321.885 282H323.005L319.581 290.736C319.272 291.525 318.829 292.144 318.253 292.592C317.688 293.051 317.053 293.253 316.349 293.2V292.208C317.309 292.315 318.04 291.76 318.541 290.544L318.749 290.048L315.165 282H316.285L319.293 288.704L321.885 282ZM325.084 288.64L324.124 292.24H323.164L323.804 288.64H325.084ZM341.552 288.512C340.432 289.632 339.061 290.192 337.439 290.192C335.818 290.192 334.447 289.632 333.327 288.512C332.207 287.381 331.647 286.011 331.647 284.4C331.647 282.789 332.207 281.424 333.327 280.304C334.447 279.173 335.818 278.608 337.439 278.608C339.061 278.608 340.432 279.173 341.552 280.304C342.672 281.424 343.232 282.789 343.232 284.4C343.232 286.011 342.672 287.381 341.552 288.512ZM334.111 287.744C335.008 288.651 336.117 289.104 337.439 289.104C338.762 289.104 339.872 288.651 340.767 287.744C341.663 286.827 342.111 285.712 342.111 284.4C342.111 283.088 341.663 281.979 340.767 281.072C339.872 280.155 338.762 279.696 337.439 279.696C336.117 279.696 335.008 280.155 334.111 281.072C333.215 281.979 332.767 283.088 332.767 284.4C332.767 285.712 333.215 286.827 334.111 287.744ZM353.467 290H351.995L346.747 284.576V290H345.627V278.8H346.747V283.92L351.835 278.8H353.307L347.931 284.24L353.467 290ZM363.228 290H361.756L356.508 284.576V290H355.388V278.8H356.508V283.92L361.596 278.8H363.068L357.692 284.24L363.228 290ZM373.46 288.512C372.34 289.632 370.97 290.192 369.348 290.192C367.727 290.192 366.356 289.632 365.236 288.512C364.116 287.381 363.556 286.011 363.556 284.4C363.556 282.789 364.116 281.424 365.236 280.304C366.356 279.173 367.727 278.608 369.348 278.608C370.97 278.608 372.34 279.173 373.46 280.304C374.58 281.424 375.14 282.789 375.14 284.4C375.14 286.011 374.58 287.381 373.46 288.512ZM366.02 287.744C366.916 288.651 368.026 289.104 369.348 289.104C370.671 289.104 371.78 288.651 372.676 287.744C373.572 286.827 374.02 285.712 374.02 284.4C374.02 283.088 373.572 281.979 372.676 281.072C371.78 280.155 370.671 279.696 369.348 279.696C368.026 279.696 366.916 280.155 366.02 281.072C365.124 281.979 364.676 283.088 364.676 284.4C364.676 285.712 365.124 286.827 366.02 287.744ZM378.339 288.64L377.379 292.24H376.419L377.059 288.64H378.339ZM260.12 310H258.648L253.4 304.576V310H252.28V298.8H253.4V303.92L258.488 298.8H259.96L254.584 304.24L260.12 310ZM268.042 302H269.099V310H268.042V308.432C267.306 309.605 266.229 310.192 264.81 310.192C263.669 310.192 262.693 309.787 261.882 308.976C261.082 308.165 260.682 307.173 260.682 306C260.682 304.827 261.082 303.835 261.882 303.024C262.693 302.213 263.669 301.808 264.81 301.808C266.229 301.808 267.306 302.395 268.042 303.568V302ZM262.65 308.256C263.258 308.864 264.005 309.168 264.89 309.168C265.776 309.168 266.522 308.864 267.13 308.256C267.738 307.637 268.042 306.885 268.042 306C268.042 305.115 267.738 304.368 267.13 303.76C266.522 303.141 265.776 302.832 264.89 302.832C264.005 302.832 263.258 303.141 262.65 303.76C262.042 304.368 261.738 305.115 261.738 306C261.738 306.885 262.042 307.637 262.65 308.256ZM272.646 304.096C272.646 304.459 272.806 304.747 273.126 304.96C273.446 305.173 273.836 305.339 274.294 305.456C274.753 305.573 275.212 305.707 275.67 305.856C276.129 305.995 276.518 306.235 276.838 306.576C277.158 306.907 277.318 307.344 277.318 307.888C277.318 308.571 277.046 309.125 276.502 309.552C275.969 309.979 275.276 310.192 274.422 310.192C273.654 310.192 272.998 310.021 272.454 309.68C271.921 309.339 271.548 308.896 271.334 308.352L272.23 307.824C272.38 308.24 272.646 308.571 273.03 308.816C273.425 309.051 273.889 309.168 274.422 309.168C274.945 309.168 275.382 309.067 275.734 308.864C276.086 308.651 276.262 308.325 276.262 307.888C276.262 307.525 276.102 307.237 275.782 307.024C275.462 306.811 275.073 306.645 274.614 306.528C274.156 306.411 273.697 306.283 273.238 306.144C272.78 305.995 272.39 305.755 272.07 305.424C271.75 305.083 271.59 304.64 271.59 304.096C271.59 303.445 271.846 302.901 272.358 302.464C272.881 302.027 273.537 301.808 274.326 301.808C274.977 301.808 275.548 301.957 276.038 302.256C276.529 302.544 276.892 302.939 277.126 303.44L276.246 303.952C275.937 303.205 275.297 302.832 274.326 302.832C273.868 302.832 273.473 302.944 273.142 303.168C272.812 303.381 272.646 303.691 272.646 304.096ZM283.256 301.808C284.44 301.808 285.395 302.229 286.12 303.072C286.856 303.904 287.224 304.891 287.224 306.032C287.224 306.149 287.213 306.315 287.192 306.528H280.168C280.275 307.339 280.616 307.984 281.192 308.464C281.779 308.933 282.499 309.168 283.352 309.168C283.96 309.168 284.483 309.045 284.92 308.8C285.368 308.544 285.704 308.213 285.928 307.808L286.856 308.352C286.504 308.917 286.024 309.365 285.416 309.696C284.808 310.027 284.115 310.192 283.336 310.192C282.077 310.192 281.053 309.797 280.264 309.008C279.475 308.219 279.08 307.216 279.08 306C279.08 304.805 279.469 303.808 280.248 303.008C281.027 302.208 282.029 301.808 283.256 301.808ZM283.256 302.832C282.424 302.832 281.725 303.083 281.16 303.584C280.605 304.075 280.275 304.715 280.168 305.504H286.136C286.029 304.661 285.704 304.005 285.16 303.536C284.616 303.067 283.981 302.832 283.256 302.832ZM290.44 303.328C290.93 302.357 291.773 301.872 292.968 301.872V302.896C292.242 302.896 291.64 303.109 291.16 303.536C290.68 303.963 290.44 304.635 290.44 305.552V310H289.384V302H290.44V303.328ZM298.107 301.808C299.291 301.808 300.245 302.229 300.971 303.072C301.707 303.904 302.075 304.891 302.075 306.032C302.075 306.149 302.064 306.315 302.043 306.528H295.019C295.125 307.339 295.467 307.984 296.043 308.464C296.629 308.933 297.349 309.168 298.203 309.168C298.811 309.168 299.333 309.045 299.771 308.8C300.219 308.544 300.555 308.213 300.779 307.808L301.707 308.352C301.355 308.917 300.875 309.365 300.267 309.696C299.659 310.027 298.965 310.192 298.187 310.192C296.928 310.192 295.904 309.797 295.115 309.008C294.325 308.219 293.931 307.216 293.931 306C293.931 304.805 294.32 303.808 295.099 303.008C295.877 302.208 296.88 301.808 298.107 301.808ZM298.107 302.832C297.275 302.832 296.576 303.083 296.011 303.584C295.456 304.075 295.125 304.715 295.019 305.504H300.987C300.88 304.661 300.555 304.005 300.011 303.536C299.467 303.067 298.832 302.832 298.107 302.832ZM305.306 300.08C305.157 300.229 304.976 300.304 304.762 300.304C304.549 300.304 304.368 300.229 304.218 300.08C304.069 299.931 303.994 299.749 303.994 299.536C303.994 299.323 304.069 299.141 304.218 298.992C304.368 298.843 304.549 298.768 304.762 298.768C304.976 298.768 305.157 298.843 305.306 298.992C305.456 299.141 305.53 299.323 305.53 299.536C305.53 299.749 305.456 299.931 305.306 300.08ZM304.234 310V302H305.29V310H304.234ZM309.355 309.904C309.185 310.075 308.977 310.16 308.731 310.16C308.486 310.16 308.278 310.075 308.107 309.904C307.937 309.733 307.851 309.525 307.851 309.28C307.851 309.035 307.937 308.827 308.107 308.656C308.278 308.485 308.486 308.4 308.731 308.4C308.977 308.4 309.185 308.485 309.355 308.656C309.526 308.827 309.611 309.035 309.611 309.28C309.611 309.525 309.526 309.733 309.355 309.904ZM255.848 330.192C254.643 330.192 253.64 329.792 252.84 328.992C252.04 328.181 251.64 327.184 251.64 326C251.64 324.816 252.04 323.824 252.84 323.024C253.64 322.213 254.643 321.808 255.848 321.808C256.637 321.808 257.347 322 257.976 322.384C258.605 322.757 259.064 323.264 259.352 323.904L258.488 324.4C258.275 323.92 257.928 323.541 257.448 323.264C256.979 322.976 256.445 322.832 255.848 322.832C254.963 322.832 254.216 323.141 253.608 323.76C253 324.368 252.696 325.115 252.696 326C252.696 326.885 253 327.637 253.608 328.256C254.216 328.864 254.963 329.168 255.848 329.168C256.445 329.168 256.979 329.029 257.448 328.752C257.917 328.464 258.285 328.08 258.552 327.6L259.432 328.112C259.101 328.752 258.616 329.259 257.976 329.632C257.336 330.005 256.627 330.192 255.848 330.192ZM265.172 321.808C266.143 321.808 266.905 322.107 267.46 322.704C268.025 323.291 268.308 324.085 268.308 325.088V330H267.252V325.088C267.252 324.373 267.06 323.819 266.676 323.424C266.303 323.029 265.769 322.832 265.076 322.832C264.308 322.832 263.684 323.077 263.204 323.568C262.724 324.048 262.484 324.795 262.484 325.808V330H261.428V318.8H262.484V323.248C263.081 322.288 263.977 321.808 265.172 321.808ZM277.71 322H278.766V330H277.71V328.432C276.974 329.605 275.897 330.192 274.478 330.192C273.337 330.192 272.361 329.787 271.55 328.976C270.75 328.165 270.35 327.173 270.35 326C270.35 324.827 270.75 323.835 271.55 323.024C272.361 322.213 273.337 321.808 274.478 321.808C275.897 321.808 276.974 322.395 277.71 323.568V322ZM272.318 328.256C272.926 328.864 273.673 329.168 274.558 329.168C275.443 329.168 276.19 328.864 276.798 328.256C277.406 327.637 277.71 326.885 277.71 326C277.71 325.115 277.406 324.368 276.798 323.76C276.19 323.141 275.443 322.832 274.558 322.832C273.673 322.832 272.926 323.141 272.318 323.76C271.71 324.368 271.406 325.115 271.406 326C271.406 326.885 271.71 327.637 272.318 328.256ZM290.01 321.808C290.906 321.808 291.626 322.096 292.17 322.672C292.725 323.248 293.002 324.027 293.002 325.008V330H291.946V325.008C291.946 324.315 291.765 323.781 291.402 323.408C291.05 323.024 290.581 322.832 289.994 322.832C289.333 322.832 288.794 323.056 288.378 323.504C287.973 323.941 287.77 324.629 287.77 325.568V330H286.714V325.008C286.714 324.304 286.543 323.765 286.202 323.392C285.871 323.019 285.418 322.832 284.842 322.832C284.202 322.832 283.658 323.056 283.21 323.504C282.762 323.952 282.538 324.64 282.538 325.568V330H281.482V322H282.538V323.168C283.114 322.261 283.93 321.808 284.986 321.808C286.138 321.808 286.949 322.293 287.418 323.264C287.994 322.293 288.858 321.808 290.01 321.808ZM299.812 321.808C300.954 321.808 301.924 322.213 302.724 323.024C303.535 323.835 303.94 324.827 303.94 326C303.94 327.173 303.535 328.165 302.724 328.976C301.924 329.787 300.954 330.192 299.812 330.192C298.394 330.192 297.316 329.605 296.58 328.432V333.2H295.524V322H296.58V323.568C297.316 322.395 298.394 321.808 299.812 321.808ZM297.492 328.256C298.1 328.864 298.847 329.168 299.732 329.168C300.618 329.168 301.364 328.864 301.972 328.256C302.58 327.637 302.884 326.885 302.884 326C302.884 325.115 302.58 324.368 301.972 323.76C301.364 323.141 300.618 322.832 299.732 322.832C298.847 322.832 298.1 323.141 297.492 323.76C296.884 324.368 296.58 325.115 296.58 326C296.58 326.885 296.884 327.637 297.492 328.256ZM307.248 320.08C307.099 320.229 306.918 320.304 306.704 320.304C306.491 320.304 306.31 320.229 306.16 320.08C306.011 319.931 305.936 319.749 305.936 319.536C305.936 319.323 306.011 319.141 306.16 318.992C306.31 318.843 306.491 318.768 306.704 318.768C306.918 318.768 307.099 318.843 307.248 318.992C307.398 319.141 307.472 319.323 307.472 319.536C307.472 319.749 307.398 319.931 307.248 320.08ZM306.176 330V322H307.232V330H306.176ZM316.833 322H317.889V329.68C317.889 330.832 317.494 331.739 316.705 332.4C315.916 333.061 314.972 333.392 313.873 333.392C311.996 333.392 310.732 332.741 310.081 331.44L311.009 330.912C311.489 331.883 312.444 332.368 313.873 332.368C314.79 332.368 315.51 332.123 316.033 331.632C316.566 331.152 316.833 330.501 316.833 329.68V328.432C316.097 329.605 315.02 330.192 313.601 330.192C312.46 330.192 311.484 329.787 310.673 328.976C309.873 328.165 309.473 327.173 309.473 326C309.473 324.827 309.873 323.835 310.673 323.024C311.484 322.213 312.46 321.808 313.601 321.808C315.02 321.808 316.097 322.395 316.833 323.568V322ZM311.441 328.256C312.049 328.864 312.796 329.168 313.681 329.168C314.566 329.168 315.313 328.864 315.921 328.256C316.529 327.637 316.833 326.885 316.833 326C316.833 325.115 316.529 324.368 315.921 323.76C315.313 323.141 314.566 322.832 313.681 322.832C312.796 322.832 312.049 323.141 311.441 323.76C310.833 324.368 310.529 325.115 310.529 326C310.529 326.885 310.833 327.637 311.441 328.256ZM324.349 321.808C325.32 321.808 326.082 322.107 326.637 322.704C327.202 323.291 327.485 324.085 327.485 325.088V330H326.429V325.088C326.429 324.373 326.237 323.819 325.853 323.424C325.48 323.029 324.946 322.832 324.253 322.832C323.485 322.832 322.861 323.077 322.381 323.568C321.901 324.048 321.661 324.795 321.661 325.808V330H320.605V322H321.661V323.248C322.258 322.288 323.154 321.808 324.349 321.808ZM336.711 328.992C335.9 329.792 334.908 330.192 333.735 330.192C332.562 330.192 331.564 329.792 330.743 328.992C329.932 328.181 329.527 327.184 329.527 326C329.527 324.816 329.932 323.824 330.743 323.024C331.564 322.213 332.562 321.808 333.735 321.808C334.908 321.808 335.9 322.213 336.711 323.024C337.532 323.824 337.943 324.816 337.943 326C337.943 327.184 337.532 328.181 336.711 328.992ZM331.495 328.256C332.103 328.864 332.85 329.168 333.735 329.168C334.62 329.168 335.367 328.864 335.975 328.256C336.583 327.637 336.887 326.885 336.887 326C336.887 325.115 336.583 324.368 335.975 323.76C335.367 323.141 334.62 322.832 333.735 322.832C332.85 322.832 332.103 323.141 331.495 323.76C330.887 324.368 330.583 325.115 330.583 326C330.583 326.885 330.887 327.637 331.495 328.256ZM343.934 321.808C344.905 321.808 345.667 322.107 346.222 322.704C346.787 323.291 347.07 324.085 347.07 325.088V330H346.014V325.088C346.014 324.373 345.822 323.819 345.438 323.424C345.065 323.029 344.531 322.832 343.838 322.832C343.07 322.832 342.446 323.077 341.966 323.568C341.486 324.048 341.246 324.795 341.246 325.808V330H340.19V322H341.246V323.248C341.843 322.288 342.739 321.808 343.934 321.808Z" fill="white"/>
<path d="M35.256 369.448V364.6H37.496L38.648 364.632H47.288L47.944 364.6H51.176V369.448H48.632V367H37.8V369.448H35.256ZM37.832 355H49.08V366.136H46.376V356.152L47.592 357.368H39.288L40.424 356.488C40.488 357.021 40.5307 357.549 40.552 358.072C40.5733 358.595 40.584 359.085 40.584 359.544C40.584 360.845 40.4827 361.949 40.28 362.856C40.0773 363.752 39.7733 364.435 39.368 364.904C38.9627 365.363 38.4613 365.592 37.864 365.592L36.744 364.648C37.192 364.136 37.5227 363.416 37.736 362.488C37.96 361.549 38.072 360.381 38.072 358.984C38.072 358.365 38.0507 357.72 38.008 357.048C37.9653 356.376 37.9067 355.693 37.832 355ZM58.0634 367.24C56.9327 367.24 55.9407 367.043 55.0874 366.648C54.234 366.243 53.5674 365.683 53.0874 364.968C52.6074 364.243 52.3674 363.405 52.3674 362.456C52.3674 361.496 52.6074 360.659 53.0874 359.944C53.5674 359.219 54.234 358.659 55.0874 358.264C55.9407 357.859 56.9327 357.656 58.0634 357.656C59.194 357.656 60.186 357.859 61.0394 358.264C61.8927 358.659 62.554 359.219 63.0234 359.944C63.5034 360.659 63.7434 361.496 63.7434 362.456C63.7434 363.405 63.5034 364.243 63.0234 364.968C62.554 365.683 61.8927 366.243 61.0394 366.648C60.186 367.043 59.194 367.24 58.0634 367.24ZM58.0634 365.208C58.682 365.208 59.21 365.096 59.6474 364.872C60.0954 364.648 60.4367 364.333 60.6714 363.928C60.9167 363.512 61.0394 363.021 61.0394 362.456C61.0394 361.88 60.9167 361.389 60.6714 360.984C60.4367 360.568 60.0954 360.248 59.6474 360.024C59.21 359.8 58.682 359.688 58.0634 359.688C57.4554 359.688 56.9274 359.8 56.4794 360.024C56.0314 360.248 55.6847 360.568 55.4394 360.984C55.2047 361.389 55.0874 361.88 55.0874 362.456C55.0874 363.021 55.2047 363.512 55.4394 363.928C55.6847 364.333 56.0314 364.648 56.4794 364.872C56.9274 365.096 57.4554 365.208 58.0634 365.208ZM76.2285 363.288C76.1218 364.067 75.8178 364.755 75.3165 365.352C74.8258 365.949 74.1912 366.413 73.4125 366.744C72.6338 367.075 71.7645 367.24 70.8045 367.24C69.7165 367.24 68.7565 367.043 67.9245 366.648C67.1032 366.243 66.4578 365.677 65.9885 364.952C65.5298 364.227 65.3005 363.395 65.3005 362.456C65.3005 361.507 65.5298 360.675 65.9885 359.96C66.4578 359.235 67.1032 358.669 67.9245 358.264C68.7565 357.859 69.7165 357.656 70.8045 357.656C71.7645 357.656 72.6338 357.827 73.4125 358.168C74.1912 358.499 74.8258 358.963 75.3165 359.56C75.8178 360.147 76.1218 360.835 76.2285 361.624H73.5565C73.4178 361.005 73.0978 360.531 72.5965 360.2C72.1058 359.859 71.5085 359.688 70.8045 359.688C70.2392 359.688 69.7432 359.8 69.3165 360.024C68.9005 360.237 68.5805 360.552 68.3565 360.968C68.1325 361.373 68.0205 361.869 68.0205 362.456C68.0205 363.032 68.1325 363.528 68.3565 363.944C68.5805 364.349 68.9005 364.664 69.3165 364.888C69.7432 365.101 70.2392 365.208 70.8045 365.208C71.5192 365.208 72.1218 365.032 72.6125 364.68C73.1138 364.328 73.4285 363.864 73.5565 363.288H76.2285ZM77.8959 367L78.4079 362.456L77.8959 357.896H84.9039C85.7785 357.896 86.4719 358.104 86.9839 358.52C87.4959 358.925 87.7519 359.48 87.7519 360.184C87.7519 360.845 87.4959 361.384 86.9839 361.8C86.4719 362.205 85.7572 362.445 84.8399 362.52L85.0319 362.072C86.0985 362.104 86.9092 362.328 87.4639 362.744C88.0292 363.149 88.3119 363.72 88.3119 364.456C88.3119 365.245 88.0239 365.869 87.4479 366.328C86.8825 366.776 86.1039 367 85.1119 367H77.8959ZM80.4719 366.408L79.4479 365.272H84.2959C84.7545 365.272 85.0905 365.181 85.3039 365C85.5172 364.808 85.6239 364.541 85.6239 364.2C85.6239 363.891 85.5065 363.64 85.2719 363.448C85.0372 363.245 84.6532 363.144 84.1199 363.144H79.9919V361.624H83.7679C84.2159 361.624 84.5412 361.533 84.7439 361.352C84.9572 361.171 85.0639 360.925 85.0639 360.616C85.0639 360.328 84.9679 360.093 84.7759 359.912C84.5945 359.731 84.2959 359.64 83.8799 359.64H79.4639L80.4719 358.504L80.9679 362.456L80.4719 366.408ZM90.3186 357.8L91.6466 358.056L92.9906 357.8V367H90.3186V357.8ZM91.6466 356.856C91.1666 356.856 90.772 356.733 90.4626 356.488C90.164 356.232 90.0146 355.896 90.0146 355.48C90.0146 355.053 90.164 354.717 90.4626 354.472C90.772 354.216 91.1666 354.088 91.6466 354.088C92.1373 354.088 92.532 354.216 92.8306 354.472C93.1293 354.717 93.2786 355.053 93.2786 355.48C93.2786 355.896 93.1293 356.232 92.8306 356.488C92.532 356.733 92.1373 356.856 91.6466 356.856ZM107.854 364.984V369.24H105.534V367H97.0221V369.24H94.7021V364.984H97.2461L97.8381 365.032H104.462L104.99 364.984H107.854ZM96.6701 357.896H106.174V366.392H103.502V358.664L104.734 359.896H97.9981L99.0701 358.936C99.1661 359.395 99.2248 359.832 99.2461 360.248C99.2675 360.653 99.2781 361.032 99.2781 361.384C99.2781 362.899 99.0488 364.083 98.5901 364.936C98.1315 365.779 97.4861 366.2 96.6541 366.2L95.5661 365.288C96.4195 364.669 96.8461 363.192 96.8461 360.856C96.8461 360.397 96.8301 359.923 96.7981 359.432C96.7661 358.931 96.7235 358.419 96.6701 357.896ZM111.219 367.144C110.771 367.144 110.398 367 110.099 366.712C109.811 366.424 109.667 366.061 109.667 365.624C109.667 365.187 109.811 364.824 110.099 364.536C110.398 364.248 110.771 364.104 111.219 364.104C111.678 364.104 112.051 364.248 112.339 364.536C112.638 364.824 112.787 365.187 112.787 365.624C112.787 366.061 112.638 366.424 112.339 366.712C112.051 367 111.678 367.144 111.219 367.144ZM111.219 361.48C110.771 361.48 110.398 361.336 110.099 361.048C109.811 360.76 109.667 360.397 109.667 359.96C109.667 359.523 109.811 359.16 110.099 358.872C110.398 358.584 110.771 358.44 111.219 358.44C111.678 358.44 112.051 358.584 112.339 358.872C112.638 359.16 112.787 359.523 112.787 359.96C112.787 360.397 112.638 360.76 112.339 361.048C112.051 361.336 111.678 361.48 111.219 361.48Z" fill="white"/>
<path d="M251.64 366V364.992L255.672 360.928C256.824 359.776 257.4 358.789 257.4 357.968C257.4 357.253 257.176 356.699 256.728 356.304C256.291 355.899 255.763 355.696 255.144 355.696C253.992 355.696 253.155 356.224 252.632 357.28L251.688 356.72C252.04 356.027 252.52 355.504 253.128 355.152C253.736 354.789 254.408 354.608 255.144 354.608C256.04 354.608 256.824 354.912 257.496 355.52C258.179 356.117 258.52 356.933 258.52 357.968C258.52 358.619 258.339 359.243 257.976 359.84C257.613 360.437 257.101 361.067 256.44 361.728L253.24 364.912H258.76V366H251.64ZM267.566 359.888V360.912H264.718V363.76H263.694V360.912H260.846V359.888H263.694V357.04H264.718V359.888H267.566ZM278.895 357.808C280.036 357.808 281.007 358.213 281.807 359.024C282.618 359.835 283.023 360.827 283.023 362C283.023 363.173 282.618 364.165 281.807 364.976C281.007 365.787 280.036 366.192 278.895 366.192C277.476 366.192 276.399 365.605 275.663 364.432V369.2H274.607V358H275.663V359.568C276.399 358.395 277.476 357.808 278.895 357.808ZM276.575 364.256C277.183 364.864 277.93 365.168 278.815 365.168C279.7 365.168 280.447 364.864 281.055 364.256C281.663 363.637 281.967 362.885 281.967 362C281.967 361.115 281.663 360.368 281.055 359.76C280.447 359.141 279.7 358.832 278.815 358.832C277.93 358.832 277.183 359.141 276.575 359.76C275.967 360.368 275.663 361.115 275.663 362C275.663 362.885 275.967 363.637 276.575 364.256ZM291.963 364.992C291.152 365.792 290.16 366.192 288.987 366.192C287.813 366.192 286.816 365.792 285.995 364.992C285.184 364.181 284.779 363.184 284.779 362C284.779 360.816 285.184 359.824 285.995 359.024C286.816 358.213 287.813 357.808 288.987 357.808C290.16 357.808 291.152 358.213 291.963 359.024C292.784 359.824 293.195 360.816 293.195 362C293.195 363.184 292.784 364.181 291.963 364.992ZM286.747 364.256C287.355 364.864 288.101 365.168 288.987 365.168C289.872 365.168 290.619 364.864 291.227 364.256C291.835 363.637 292.139 362.885 292.139 362C292.139 361.115 291.835 360.368 291.227 359.76C290.619 359.141 289.872 358.832 288.987 358.832C288.101 358.832 287.355 359.141 286.747 359.76C286.139 360.368 285.835 361.115 285.835 362C285.835 362.885 286.139 363.637 286.747 364.256ZM301.906 366H300.498L296.498 362.144V366H295.442V358H296.498V361.536L300.306 358H301.746L297.618 361.84L301.906 366ZM309.652 358H310.548V366H309.492V359.84L304.724 366H303.828V358H304.884V364.16L309.652 358Z" fill="white"/>
<path d="M39.048 403L41.112 399.432H41.144L46.008 391H48.952L41.992 403H39.048ZM41.112 401.256L35.128 391H38.12L42.984 399.368L41.112 401.256ZM49.8529 393.896H59.2609V403H56.5889V394.696L57.8209 395.912H51.1809L52.3329 394.92C52.3862 395.571 52.4289 396.173 52.4609 396.728C52.5035 397.272 52.5249 397.763 52.5249 398.2C52.5249 399.949 52.2635 401.219 51.7409 402.008C51.2289 402.797 50.3969 403.192 49.2449 403.192C48.9249 403.192 48.6155 403.155 48.3169 403.08C48.0289 403.016 47.7462 402.904 47.4689 402.744V400.808C47.6609 400.883 47.8475 400.941 48.0289 400.984C48.2209 401.016 48.3969 401.032 48.5569 401.032C49.1009 401.032 49.4902 400.787 49.7249 400.296C49.9702 399.795 50.0929 398.973 50.0929 397.832C50.0929 397.32 50.0715 396.733 50.0289 396.072C49.9969 395.411 49.9382 394.685 49.8529 393.896ZM71.5573 403.24C70.4372 403.24 69.4559 403.043 68.6132 402.648C67.7706 402.243 67.1146 401.683 66.6452 400.968C66.1866 400.243 65.9572 399.405 65.9572 398.456C65.9572 397.496 66.1866 396.659 66.6452 395.944C67.1146 395.219 67.7706 394.659 68.6132 394.264C69.4559 393.859 70.4372 393.656 71.5573 393.656C72.6772 393.656 73.6586 393.859 74.5012 394.264C75.3439 394.659 75.9999 395.219 76.4692 395.944C76.9386 396.659 77.1733 397.496 77.1733 398.456C77.1733 399.405 76.9386 400.243 76.4692 400.968C75.9999 401.683 75.3439 402.243 74.5012 402.648C73.6586 403.043 72.6772 403.24 71.5573 403.24ZM61.7492 403V393.896H64.4212V403H61.7492ZM63.2532 399.368V397.368H67.6532V399.368H63.2532ZM71.5573 401.208C72.1652 401.208 72.6826 401.096 73.1093 400.872C73.5466 400.648 73.8826 400.333 74.1172 399.928C74.3519 399.512 74.4692 399.021 74.4692 398.456C74.4692 397.88 74.3519 397.389 74.1172 396.984C73.8826 396.568 73.5466 396.248 73.1093 396.024C72.6826 395.8 72.1652 395.688 71.5573 395.688C70.9599 395.688 70.4426 395.8 70.0052 396.024C69.5679 396.248 69.2319 396.568 68.9972 396.984C68.7626 397.389 68.6452 397.88 68.6452 398.456C68.6452 399.021 68.7626 399.512 68.9972 399.928C69.2319 400.333 69.5679 400.648 70.0052 400.872C70.4426 401.096 70.9599 401.208 71.5573 401.208ZM84.782 403.24C83.534 403.24 82.4673 403.005 81.582 402.536C80.6967 402.056 80.0193 401.368 79.55 400.472C79.0807 399.576 78.846 398.493 78.846 397.224C78.846 395.336 79.3527 393.848 80.366 392.76C81.3793 391.672 82.83 391.048 84.718 390.888C85.486 390.824 86.1207 390.771 86.622 390.728C87.1233 390.685 87.534 390.643 87.854 390.6C88.1847 390.547 88.462 390.493 88.686 390.44C88.91 390.376 89.1287 390.307 89.342 390.232V392.456C89.118 392.541 88.83 392.621 88.478 392.696C88.1367 392.76 87.6993 392.813 87.166 392.856C86.6433 392.899 85.998 392.941 85.23 392.984C83.8327 393.048 82.7927 393.432 82.11 394.136C81.4273 394.84 81.086 395.853 81.086 397.176V397.608L80.99 397.416C81.2033 396.84 81.5287 396.344 81.966 395.928C82.4033 395.512 82.926 395.197 83.534 394.984C84.1527 394.76 84.8193 394.648 85.534 394.648C86.462 394.648 87.2727 394.824 87.966 395.176C88.6593 395.517 89.198 396.003 89.582 396.632C89.9767 397.261 90.174 397.997 90.174 398.84C90.174 399.725 89.95 400.499 89.502 401.16C89.054 401.821 88.4247 402.333 87.614 402.696C86.814 403.059 85.87 403.24 84.782 403.24ZM84.846 401.208C85.3793 401.208 85.8433 401.112 86.238 400.92C86.6327 400.728 86.9367 400.456 87.15 400.104C87.3633 399.752 87.47 399.341 87.47 398.872C87.47 398.403 87.3633 397.997 87.15 397.656C86.9367 397.304 86.6327 397.032 86.238 396.84C85.8433 396.648 85.3793 396.552 84.846 396.552C84.11 396.552 83.4593 396.749 82.894 397.144C82.3287 397.528 81.902 398.067 81.614 398.76C81.7847 399.507 82.158 400.104 82.734 400.552C83.3207 400.989 84.0247 401.208 84.846 401.208ZM93.5585 393.896H102.966V403H100.294V394.696L101.526 395.912H94.8865L96.0385 394.92C96.0918 395.571 96.1345 396.173 96.1665 396.728C96.2092 397.272 96.2305 397.763 96.2305 398.2C96.2305 399.949 95.9692 401.219 95.4465 402.008C94.9345 402.797 94.1025 403.192 92.9505 403.192C92.6305 403.192 92.3212 403.155 92.0225 403.08C91.7345 403.016 91.4518 402.904 91.1745 402.744V400.808C91.3665 400.883 91.5532 400.941 91.7345 400.984C91.9265 401.016 92.1025 401.032 92.2625 401.032C92.8065 401.032 93.1958 400.787 93.4305 400.296C93.6758 399.795 93.7985 398.973 93.7985 397.832C93.7985 397.32 93.7772 396.733 93.7345 396.072C93.7025 395.411 93.6438 394.685 93.5585 393.896ZM110.591 403.24C109.514 403.24 108.548 403.043 107.695 402.648C106.852 402.243 106.186 401.677 105.695 400.952C105.215 400.227 104.975 399.384 104.975 398.424C104.975 397.475 105.204 396.643 105.663 395.928C106.132 395.213 106.772 394.659 107.583 394.264C108.394 393.859 109.316 393.656 110.351 393.656C111.407 393.656 112.314 393.891 113.071 394.36C113.828 394.819 114.41 395.469 114.815 396.312C115.231 397.155 115.439 398.147 115.439 399.288H107.119V397.512H113.999L112.959 398.152C112.916 397.619 112.783 397.165 112.559 396.792C112.346 396.419 112.052 396.131 111.679 395.928C111.306 395.725 110.868 395.624 110.367 395.624C109.823 395.624 109.348 395.736 108.943 395.96C108.548 396.173 108.239 396.477 108.015 396.872C107.802 397.256 107.695 397.709 107.695 398.232C107.695 398.861 107.834 399.4 108.111 399.848C108.388 400.296 108.794 400.637 109.327 400.872C109.86 401.107 110.506 401.224 111.263 401.224C111.946 401.224 112.634 401.128 113.327 400.936C114.02 400.733 114.644 400.451 115.199 400.088V401.88C114.602 402.307 113.903 402.643 113.103 402.888C112.314 403.123 111.476 403.24 110.591 403.24ZM117.482 393.896H120.138V403H117.482V393.896ZM125.114 393.896H127.77V403H125.114V393.896ZM119.002 397.352H126.154V399.368H119.002V397.352ZM130.259 403V393.896H132.883V401.592L132.227 401.416L137.715 393.896H141.155V403H138.531V395.16L139.187 395.352L133.603 403H130.259ZM143.645 403V393.896H146.269V401.592L145.613 401.416L151.101 393.896H154.541V403H151.917V395.16L152.573 395.352L146.989 403H143.645ZM149.021 393.064C147.986 393.064 147.154 392.813 146.525 392.312C145.896 391.8 145.506 391.059 145.357 390.088H147.453C147.528 390.547 147.698 390.899 147.965 391.144C148.242 391.379 148.594 391.496 149.021 391.496C149.448 391.496 149.794 391.379 150.061 391.144C150.328 390.899 150.504 390.547 150.589 390.088H152.669C152.53 391.059 152.141 391.8 151.501 392.312C150.872 392.813 150.045 393.064 149.021 393.064ZM169.157 393.896V395.944H163.045L164.277 394.728V403H161.605V393.896H169.157ZM173.426 405.88C172.829 405.88 172.29 405.805 171.81 405.656C171.33 405.507 170.877 405.288 170.45 405V403.08C170.898 403.368 171.325 403.576 171.73 403.704C172.136 403.832 172.584 403.896 173.074 403.896C173.512 403.896 173.901 403.795 174.242 403.592C174.584 403.4 174.866 403.053 175.09 402.552L178.882 393.896H181.714L177.17 403.416C176.893 404.013 176.557 404.493 176.162 404.856C175.768 405.219 175.336 405.48 174.866 405.64C174.408 405.8 173.928 405.88 173.426 405.88ZM174.002 402.424L169.986 393.896H172.93L176.61 402.424H174.002ZM183.268 393.896H185.94V396.792L185.828 397.144V399.336L185.94 399.992V405.64H183.268V393.896ZM185.012 398.456C185.193 397.485 185.508 396.643 185.956 395.928C186.415 395.203 186.985 394.643 187.668 394.248C188.361 393.853 189.129 393.656 189.972 393.656C190.868 393.656 191.652 393.859 192.324 394.264C193.007 394.659 193.54 395.219 193.924 395.944C194.308 396.659 194.5 397.496 194.5 398.456C194.5 399.405 194.308 400.243 193.924 400.968C193.54 401.683 193.007 402.243 192.324 402.648C191.652 403.043 190.868 403.24 189.972 403.24C189.119 403.24 188.351 403.043 187.668 402.648C186.996 402.253 186.431 401.699 185.972 400.984C185.513 400.259 185.193 399.416 185.012 398.456ZM191.796 398.456C191.796 397.923 191.684 397.453 191.46 397.048C191.247 396.632 190.948 396.312 190.564 396.088C190.18 395.853 189.737 395.736 189.236 395.736C188.735 395.736 188.26 395.853 187.812 396.088C187.364 396.312 186.969 396.632 186.628 397.048C186.297 397.453 186.036 397.923 185.844 398.456C186.036 398.989 186.297 399.459 186.628 399.864C186.969 400.269 187.364 400.589 187.812 400.824C188.26 401.048 188.735 401.16 189.236 401.16C189.737 401.16 190.18 401.048 190.564 400.824C190.948 400.589 191.247 400.269 191.46 399.864C191.684 399.459 191.796 398.989 191.796 398.456ZM199.049 394.824H201.721V403H199.049V394.824ZM195.433 393.896H205.337V395.944H195.433V393.896ZM208.513 403.144C208.065 403.144 207.691 403 207.393 402.712C207.105 402.424 206.961 402.061 206.961 401.624C206.961 401.187 207.105 400.824 207.393 400.536C207.691 400.248 208.065 400.104 208.513 400.104C208.971 400.104 209.345 400.248 209.633 400.536C209.931 400.824 210.081 401.187 210.081 401.624C210.081 402.061 209.931 402.424 209.633 402.712C209.345 403 208.971 403.144 208.513 403.144ZM208.513 397.48C208.065 397.48 207.691 397.336 207.393 397.048C207.105 396.76 206.961 396.397 206.961 395.96C206.961 395.523 207.105 395.16 207.393 394.872C207.691 394.584 208.065 394.44 208.513 394.44C208.971 394.44 209.345 394.584 209.633 394.872C209.931 395.16 210.081 395.523 210.081 395.96C210.081 396.397 209.931 396.76 209.633 397.048C209.345 397.336 208.971 397.48 208.513 397.48Z" fill="white"/>
<path d="M262.52 390.8V402H261.4V392.496L257.48 399.056H257.32L253.4 392.496V402H252.28V390.8H253.672L257.4 397.04L261.128 390.8H262.52ZM272.277 394H273.333V402H272.277V400.432C271.541 401.605 270.464 402.192 269.045 402.192C267.904 402.192 266.928 401.787 266.117 400.976C265.317 400.165 264.917 399.173 264.917 398C264.917 396.827 265.317 395.835 266.117 395.024C266.928 394.213 267.904 393.808 269.045 393.808C270.464 393.808 271.541 394.395 272.277 395.568V394ZM266.885 400.256C267.493 400.864 268.24 401.168 269.125 401.168C270.01 401.168 270.757 400.864 271.365 400.256C271.973 399.637 272.277 398.885 272.277 398C272.277 397.115 271.973 396.368 271.365 395.76C270.757 395.141 270.01 394.832 269.125 394.832C268.24 394.832 267.493 395.141 266.885 395.76C266.277 396.368 265.973 397.115 265.973 398C265.973 398.885 266.277 399.637 266.885 400.256ZM279.793 393.808C280.763 393.808 281.526 394.107 282.081 394.704C282.646 395.291 282.929 396.085 282.929 397.088V402H281.873V397.088C281.873 396.373 281.681 395.819 281.297 395.424C280.923 395.029 280.39 394.832 279.697 394.832C278.929 394.832 278.305 395.077 277.825 395.568C277.345 396.048 277.105 396.795 277.105 397.808V402H276.049V394H277.105V395.248C277.702 394.288 278.598 393.808 279.793 393.808ZM289.147 393.808C290.331 393.808 291.285 394.229 292.011 395.072C292.747 395.904 293.115 396.891 293.115 398.032C293.115 398.149 293.104 398.315 293.083 398.528H286.059C286.165 399.339 286.507 399.984 287.083 400.464C287.669 400.933 288.389 401.168 289.243 401.168C289.851 401.168 290.373 401.045 290.811 400.8C291.259 400.544 291.595 400.213 291.819 399.808L292.747 400.352C292.395 400.917 291.915 401.365 291.307 401.696C290.699 402.027 290.005 402.192 289.227 402.192C287.968 402.192 286.944 401.797 286.155 401.008C285.365 400.219 284.971 399.216 284.971 398C284.971 396.805 285.36 395.808 286.139 395.008C286.917 394.208 287.92 393.808 289.147 393.808ZM289.147 394.832C288.315 394.832 287.616 395.083 287.051 395.584C286.496 396.075 286.165 396.715 286.059 397.504H292.027C291.92 396.661 291.595 396.005 291.051 395.536C290.507 395.067 289.872 394.832 289.147 394.832ZM295.794 396.096C295.794 396.459 295.954 396.747 296.274 396.96C296.594 397.173 296.983 397.339 297.442 397.456C297.901 397.573 298.359 397.707 298.818 397.856C299.277 397.995 299.666 398.235 299.986 398.576C300.306 398.907 300.466 399.344 300.466 399.888C300.466 400.571 300.194 401.125 299.65 401.552C299.117 401.979 298.423 402.192 297.57 402.192C296.802 402.192 296.146 402.021 295.602 401.68C295.069 401.339 294.695 400.896 294.482 400.352L295.378 399.824C295.527 400.24 295.794 400.571 296.178 400.816C296.573 401.051 297.037 401.168 297.57 401.168C298.093 401.168 298.53 401.067 298.882 400.864C299.234 400.651 299.41 400.325 299.41 399.888C299.41 399.525 299.25 399.237 298.93 399.024C298.61 398.811 298.221 398.645 297.762 398.528C297.303 398.411 296.845 398.283 296.386 398.144C295.927 397.995 295.538 397.755 295.218 397.424C294.898 397.083 294.738 396.64 294.738 396.096C294.738 395.445 294.994 394.901 295.506 394.464C296.029 394.027 296.685 393.808 297.474 393.808C298.125 393.808 298.695 393.957 299.186 394.256C299.677 394.544 300.039 394.939 300.274 395.44L299.394 395.952C299.085 395.205 298.445 394.832 297.474 394.832C297.015 394.832 296.621 394.944 296.29 395.168C295.959 395.381 295.794 395.691 295.794 396.096ZM309.093 402H307.685L303.685 398.144V402H302.629V390.8H303.685V397.536L307.493 394H308.933L304.805 397.84L309.093 402ZM312.088 392.08C311.938 392.229 311.757 392.304 311.544 392.304C311.33 392.304 311.149 392.229 311 392.08C310.85 391.931 310.776 391.749 310.776 391.536C310.776 391.323 310.85 391.141 311 390.992C311.149 390.843 311.33 390.768 311.544 390.768C311.757 390.768 311.938 390.843 312.088 390.992C312.237 391.141 312.312 391.323 312.312 391.536C312.312 391.749 312.237 391.931 312.088 392.08ZM311.016 402V394H312.072V402H311.016ZM318.537 393.808C319.507 393.808 320.27 394.107 320.825 394.704C321.39 395.291 321.673 396.085 321.673 397.088V402H320.617V397.088C320.617 396.373 320.425 395.819 320.041 395.424C319.667 395.029 319.134 394.832 318.441 394.832C317.673 394.832 317.049 395.077 316.569 395.568C316.089 396.048 315.849 396.795 315.849 397.808V402H314.793V394H315.849V395.248C316.446 394.288 317.342 393.808 318.537 393.808Z" fill="white"/>
</svg>
