<svg width="455" height="546" viewBox="0 0 455 546" fill="none" xmlns="http://www.w3.org/2000/svg">
<path d="M352.563 58.1235C273.036 46.4907 146.973 24.9036 67.0972 11.4642C33.8198 5.86513 5.448 34.3739 10.8064 67.6909L52.0434 324.089C53.1281 330.833 52.8194 337.728 51.1365 344.348L20.1798 466.12C10.9628 502.376 43.3667 535.543 79.8275 527.171L411.189 451.088C433.902 445.873 450 425.66 450 402.356V216.638C450 208.902 448.205 201.271 444.755 194.346L390.565 85.5485C383.171 70.7038 368.972 60.5239 352.563 58.1235Z" fill="#C0B7EE"/>
<path d="M72.232 191V179H74.936V188.792L74.168 188.248L81.592 179H84.488L74.68 191H72.232ZM77.96 185.128L79.912 183.384L84.664 191H81.56L77.96 185.128ZM86.0974 181.8L87.4254 182.056L88.7694 181.8V191H86.0974V181.8ZM87.4254 180.856C86.9454 180.856 86.5507 180.733 86.2414 180.488C85.9427 180.232 85.7934 179.896 85.7934 179.48C85.7934 179.053 85.9427 178.717 86.2414 178.472C86.5507 178.216 86.9454 178.088 87.4254 178.088C87.916 178.088 88.3107 178.216 88.6094 178.472C88.908 178.717 89.0574 179.053 89.0574 179.48C89.0574 179.896 88.908 180.232 88.6094 180.488C88.3107 180.733 87.916 180.856 87.4254 180.856ZM92.8329 181.896H102.241V191H99.5689V182.696L100.801 183.912H94.1609L95.3129 182.92C95.3662 183.571 95.4089 184.173 95.4409 184.728C95.4835 185.272 95.5049 185.763 95.5049 186.2C95.5049 187.949 95.2435 189.219 94.7209 190.008C94.2089 190.797 93.3769 191.192 92.2249 191.192C91.9049 191.192 91.5955 191.155 91.2969 191.08C91.0089 191.016 90.7262 190.904 90.4489 190.744V188.808C90.6409 188.883 90.8275 188.941 91.0089 188.984C91.2009 189.016 91.3769 189.032 91.5369 189.032C92.0809 189.032 92.4702 188.787 92.7049 188.296C92.9502 187.795 93.0729 186.973 93.0729 185.832C93.0729 185.32 93.0515 184.733 93.0089 184.072C92.9769 183.411 92.9182 182.685 92.8329 181.896ZM104.729 191V181.896H107.385V190.312L106.521 189.08H110.073C110.564 189.08 110.943 188.963 111.209 188.728C111.476 188.483 111.609 188.152 111.609 187.736C111.609 187.299 111.476 186.963 111.209 186.728C110.943 186.483 110.564 186.36 110.073 186.36H106.537V184.52H110.473C111.252 184.52 111.924 184.659 112.489 184.936C113.065 185.203 113.513 185.581 113.833 186.072C114.153 186.552 114.313 187.117 114.313 187.768C114.313 188.408 114.153 188.973 113.833 189.464C113.513 189.955 113.071 190.333 112.505 190.6C111.94 190.867 111.273 191 110.505 191H104.729ZM116.1 191V181.896H118.772V188.84L117.988 188.568L123.412 181.896H126.324L118.5 191H116.1ZM123.54 191L120.82 186.536L122.788 185.016L126.596 191H123.54ZM127.986 181.8L129.314 182.056L130.658 181.8V191H127.986V181.8ZM129.314 180.856C128.834 180.856 128.439 180.733 128.13 180.488C127.831 180.232 127.682 179.896 127.682 179.48C127.682 179.053 127.831 178.717 128.13 178.472C128.439 178.216 128.834 178.088 129.314 178.088C129.805 178.088 130.199 178.216 130.498 178.472C130.797 178.717 130.946 179.053 130.946 179.48C130.946 179.896 130.797 180.232 130.498 180.488C130.199 180.733 129.805 180.856 129.314 180.856ZM143.602 187.288C143.495 188.067 143.191 188.755 142.69 189.352C142.199 189.949 141.564 190.413 140.786 190.744C140.007 191.075 139.138 191.24 138.178 191.24C137.09 191.24 136.13 191.043 135.298 190.648C134.476 190.243 133.831 189.677 133.362 188.952C132.903 188.227 132.674 187.395 132.674 186.456C132.674 185.507 132.903 184.675 133.362 183.96C133.831 183.235 134.476 182.669 135.298 182.264C136.13 181.859 137.09 181.656 138.178 181.656C139.138 181.656 140.007 181.827 140.786 182.168C141.564 182.499 142.199 182.963 142.69 183.56C143.191 184.147 143.495 184.835 143.602 185.624H140.93C140.791 185.005 140.471 184.531 139.97 184.2C139.479 183.859 138.882 183.688 138.178 183.688C137.612 183.688 137.116 183.8 136.69 184.024C136.274 184.237 135.954 184.552 135.73 184.968C135.506 185.373 135.394 185.869 135.394 186.456C135.394 187.032 135.506 187.528 135.73 187.944C135.954 188.349 136.274 188.664 136.69 188.888C137.116 189.101 137.612 189.208 138.178 189.208C138.892 189.208 139.495 189.032 139.986 188.68C140.487 188.328 140.802 187.864 140.93 187.288H143.602ZM148.013 182.824H150.685V191H148.013V182.824ZM144.397 181.896H154.301V183.944H144.397V181.896ZM156.004 191V181.896H158.66V190.312L157.796 189.08H161.348C161.839 189.08 162.218 188.963 162.484 188.728C162.751 188.483 162.884 188.152 162.884 187.736C162.884 187.299 162.751 186.963 162.484 186.728C162.218 186.483 161.839 186.36 161.348 186.36H157.812V184.52H161.748C162.527 184.52 163.199 184.659 163.764 184.936C164.34 185.203 164.788 185.581 165.108 186.072C165.428 186.552 165.588 187.117 165.588 187.768C165.588 188.408 165.428 188.973 165.108 189.464C164.788 189.955 164.346 190.333 163.78 190.6C163.215 190.867 162.548 191 161.78 191H156.004ZM72.008 201.896H74.68V204.792L74.568 205.144V207.336L74.68 207.992V213.64H72.008V201.896ZM73.752 206.456C73.9333 205.485 74.248 204.643 74.696 203.928C75.1547 203.203 75.7253 202.643 76.408 202.248C77.1013 201.853 77.8693 201.656 78.712 201.656C79.608 201.656 80.392 201.859 81.064 202.264C81.7467 202.659 82.28 203.219 82.664 203.944C83.048 204.659 83.24 205.496 83.24 206.456C83.24 207.405 83.048 208.243 82.664 208.968C82.28 209.683 81.7467 210.243 81.064 210.648C80.392 211.043 79.608 211.24 78.712 211.24C77.8587 211.24 77.0907 211.043 76.408 210.648C75.736 210.253 75.1707 209.699 74.712 208.984C74.2533 208.259 73.9333 207.416 73.752 206.456ZM80.536 206.456C80.536 205.923 80.424 205.453 80.2 205.048C79.9867 204.632 79.688 204.312 79.304 204.088C78.92 203.853 78.4773 203.736 77.976 203.736C77.4747 203.736 77 203.853 76.552 204.088C76.104 204.312 75.7093 204.632 75.368 205.048C75.0373 205.453 74.776 205.923 74.584 206.456C74.776 206.989 75.0373 207.459 75.368 207.864C75.7093 208.269 76.104 208.589 76.552 208.824C77 209.048 77.4747 209.16 77.976 209.16C78.4773 209.16 78.92 209.048 79.304 208.824C79.688 208.589 79.9867 208.269 80.2 207.864C80.424 207.459 80.536 206.989 80.536 206.456ZM90.4209 211.24C89.3435 211.24 88.3782 211.043 87.5249 210.648C86.6822 210.243 86.0155 209.677 85.5249 208.952C85.0449 208.227 84.8049 207.384 84.8049 206.424C84.8049 205.475 85.0342 204.643 85.4929 203.928C85.9622 203.213 86.6022 202.659 87.4129 202.264C88.2235 201.859 89.1462 201.656 90.1809 201.656C91.2369 201.656 92.1435 201.891 92.9009 202.36C93.6582 202.819 94.2395 203.469 94.6449 204.312C95.0609 205.155 95.2689 206.147 95.2689 207.288H86.9489V205.512H93.8289L92.7889 206.152C92.7462 205.619 92.6129 205.165 92.3889 204.792C92.1755 204.419 91.8822 204.131 91.5089 203.928C91.1355 203.725 90.6982 203.624 90.1969 203.624C89.6529 203.624 89.1782 203.736 88.7729 203.96C88.3782 204.173 88.0689 204.477 87.8449 204.872C87.6315 205.256 87.5249 205.709 87.5249 206.232C87.5249 206.861 87.6635 207.4 87.9409 207.848C88.2182 208.296 88.6235 208.637 89.1569 208.872C89.6902 209.107 90.3355 209.224 91.0929 209.224C91.7755 209.224 92.4635 209.128 93.1569 208.936C93.8502 208.733 94.4742 208.451 95.0289 208.088V209.88C94.4315 210.307 93.7329 210.643 92.9329 210.888C92.1435 211.123 91.3062 211.24 90.4209 211.24ZM105.648 211L105.264 207.672L105.696 206.456L105.264 205.256L105.648 201.896H108.416L107.888 206.456L108.416 211H105.648ZM106.352 206.456C106.181 207.416 105.866 208.259 105.408 208.984C104.96 209.699 104.389 210.253 103.696 210.648C103.013 211.043 102.245 211.24 101.392 211.24C100.506 211.24 99.7224 211.043 99.0397 210.648C98.3571 210.243 97.8237 209.683 97.4397 208.968C97.0664 208.243 96.8797 207.405 96.8797 206.456C96.8797 205.496 97.0664 204.659 97.4397 203.944C97.8237 203.219 98.3571 202.659 99.0397 202.264C99.7224 201.859 100.506 201.656 101.392 201.656C102.245 201.656 103.013 201.853 103.696 202.248C104.389 202.643 104.965 203.203 105.424 203.928C105.882 204.643 106.192 205.485 106.352 206.456ZM99.5837 206.456C99.5837 206.989 99.6904 207.459 99.9037 207.864C100.128 208.269 100.432 208.589 100.816 208.824C101.2 209.048 101.642 209.16 102.144 209.16C102.645 209.16 103.114 209.048 103.552 208.824C104 208.589 104.394 208.269 104.736 207.864C105.077 207.459 105.344 206.989 105.536 206.456C105.344 205.923 105.077 205.453 104.736 205.048C104.394 204.632 104 204.312 103.552 204.088C103.114 203.853 102.645 203.736 102.144 203.736C101.642 203.736 101.2 203.853 100.816 204.088C100.432 204.312 100.128 204.632 99.9037 205.048C99.6904 205.453 99.5837 205.923 99.5837 206.456ZM112.25 201.896H121.658V211H118.986V202.696L120.218 203.912H113.578L114.73 202.92C114.784 203.571 114.826 204.173 114.858 204.728C114.901 205.272 114.922 205.763 114.922 206.2C114.922 207.949 114.661 209.219 114.138 210.008C113.626 210.797 112.794 211.192 111.642 211.192C111.322 211.192 111.013 211.155 110.714 211.08C110.426 211.016 110.144 210.904 109.866 210.744V208.808C110.058 208.883 110.245 208.941 110.426 208.984C110.618 209.016 110.794 209.032 110.954 209.032C111.498 209.032 111.888 208.787 112.122 208.296C112.368 207.795 112.49 206.973 112.49 205.832C112.49 205.32 112.469 204.733 112.426 204.072C112.394 203.411 112.336 202.685 112.25 201.896ZM124.147 201.8L125.475 202.056L126.819 201.8V211H124.147V201.8ZM125.475 200.856C124.995 200.856 124.6 200.733 124.291 200.488C123.992 200.232 123.843 199.896 123.843 199.48C123.843 199.053 123.992 198.717 124.291 198.472C124.6 198.216 124.995 198.088 125.475 198.088C125.965 198.088 126.36 198.216 126.659 198.472C126.957 198.717 127.107 199.053 127.107 199.48C127.107 199.896 126.957 200.232 126.659 200.488C126.36 200.733 125.965 200.856 125.475 200.856ZM133.81 211.24C132.797 211.24 131.912 211.112 131.154 210.856C130.397 210.589 129.805 210.211 129.378 209.72C128.952 209.219 128.717 208.632 128.674 207.96H131.266C131.341 208.408 131.597 208.749 132.034 208.984C132.472 209.219 133.064 209.336 133.81 209.336C134.525 209.336 135.08 209.245 135.474 209.064C135.88 208.872 136.082 208.579 136.082 208.184C136.082 207.864 135.912 207.629 135.57 207.48C135.24 207.32 134.706 207.24 133.97 207.24H132.274V205.64H133.922C134.584 205.64 135.069 205.544 135.378 205.352C135.698 205.16 135.858 204.92 135.858 204.632C135.858 204.28 135.672 204.013 135.298 203.832C134.936 203.651 134.445 203.56 133.826 203.56C133.144 203.56 132.594 203.667 132.178 203.88C131.762 204.093 131.517 204.413 131.442 204.84H128.866C128.909 204.253 129.133 203.72 129.538 203.24C129.944 202.76 130.514 202.376 131.25 202.088C131.997 201.8 132.893 201.656 133.938 201.656C134.866 201.656 135.677 201.768 136.37 201.992C137.064 202.216 137.602 202.525 137.986 202.92C138.37 203.315 138.562 203.768 138.562 204.28C138.562 204.685 138.434 205.059 138.178 205.4C137.933 205.741 137.533 206.013 136.978 206.216C136.434 206.419 135.72 206.52 134.834 206.52V206.248C136.104 206.195 137.08 206.349 137.762 206.712C138.456 207.075 138.802 207.629 138.802 208.376C138.802 208.92 138.605 209.411 138.21 209.848C137.826 210.285 137.261 210.627 136.514 210.872C135.768 211.117 134.866 211.24 133.81 211.24ZM146.073 211.24C144.942 211.24 143.95 211.043 143.097 210.648C142.243 210.243 141.577 209.683 141.097 208.968C140.617 208.243 140.377 207.405 140.377 206.456C140.377 205.496 140.617 204.659 141.097 203.944C141.577 203.219 142.243 202.659 143.097 202.264C143.95 201.859 144.942 201.656 146.073 201.656C147.203 201.656 148.195 201.859 149.049 202.264C149.902 202.659 150.563 203.219 151.033 203.944C151.513 204.659 151.753 205.496 151.753 206.456C151.753 207.405 151.513 208.243 151.033 208.968C150.563 209.683 149.902 210.243 149.049 210.648C148.195 211.043 147.203 211.24 146.073 211.24ZM146.073 209.208C146.691 209.208 147.219 209.096 147.657 208.872C148.105 208.648 148.446 208.333 148.681 207.928C148.926 207.512 149.049 207.021 149.049 206.456C149.049 205.88 148.926 205.389 148.681 204.984C148.446 204.568 148.105 204.248 147.657 204.024C147.219 203.8 146.691 203.688 146.073 203.688C145.465 203.688 144.937 203.8 144.489 204.024C144.041 204.248 143.694 204.568 143.449 204.984C143.214 205.389 143.097 205.88 143.097 206.456C143.097 207.021 143.214 207.512 143.449 207.928C143.694 208.333 144.041 208.648 144.489 208.872C144.937 209.096 145.465 209.208 146.073 209.208ZM153.535 211L154.047 206.456L153.535 201.896H160.543C161.417 201.896 162.111 202.104 162.623 202.52C163.135 202.925 163.391 203.48 163.391 204.184C163.391 204.845 163.135 205.384 162.623 205.8C162.111 206.205 161.396 206.445 160.479 206.52L160.671 206.072C161.737 206.104 162.548 206.328 163.103 206.744C163.668 207.149 163.951 207.72 163.951 208.456C163.951 209.245 163.663 209.869 163.087 210.328C162.521 210.776 161.743 211 160.751 211H153.535ZM156.111 210.408L155.087 209.272H159.935C160.393 209.272 160.729 209.181 160.943 209C161.156 208.808 161.263 208.541 161.263 208.2C161.263 207.891 161.145 207.64 160.911 207.448C160.676 207.245 160.292 207.144 159.759 207.144H155.631V205.624H159.407C159.855 205.624 160.18 205.533 160.383 205.352C160.596 205.171 160.703 204.925 160.703 204.616C160.703 204.328 160.607 204.093 160.415 203.912C160.233 203.731 159.935 203.64 159.519 203.64H155.103L156.111 202.504L156.607 206.456L156.111 210.408ZM174.293 211L173.909 207.672L174.341 206.456L173.909 205.256L174.293 201.896H177.061L176.533 206.456L177.061 211H174.293ZM174.997 206.456C174.827 207.416 174.512 208.259 174.053 208.984C173.605 209.699 173.035 210.253 172.341 210.648C171.659 211.043 170.891 211.24 170.037 211.24C169.152 211.24 168.368 211.043 167.685 210.648C167.003 210.243 166.469 209.683 166.085 208.968C165.712 208.243 165.525 207.405 165.525 206.456C165.525 205.496 165.712 204.659 166.085 203.944C166.469 203.219 167.003 202.659 167.685 202.264C168.368 201.859 169.152 201.656 170.037 201.656C170.891 201.656 171.659 201.853 172.341 202.248C173.035 202.643 173.611 203.203 174.069 203.928C174.528 204.643 174.837 205.485 174.997 206.456ZM168.229 206.456C168.229 206.989 168.336 207.459 168.549 207.864C168.773 208.269 169.077 208.589 169.461 208.824C169.845 209.048 170.288 209.16 170.789 209.16C171.291 209.16 171.76 209.048 172.197 208.824C172.645 208.589 173.04 208.269 173.381 207.864C173.723 207.459 173.989 206.989 174.181 206.456C173.989 205.923 173.723 205.453 173.381 205.048C173.04 204.632 172.645 204.312 172.197 204.088C171.76 203.853 171.291 203.736 170.789 203.736C170.288 203.736 169.845 203.853 169.461 204.088C169.077 204.312 168.773 204.632 168.549 205.048C168.336 205.453 168.229 205.923 168.229 206.456ZM179.328 201.896H181.984V211H179.328V201.896ZM186.96 201.896H189.616V211H186.96V201.896ZM180.848 205.352H188V207.368H180.848V205.352ZM192.105 211V201.896H194.729V209.592L194.073 209.416L199.561 201.896H203.001V211H200.377V203.16L201.033 203.352L195.449 211H192.105ZM204.339 211L208.643 205.848L208.627 206.84L204.595 201.896H207.587L210.435 205.32H209.507L212.371 201.896H215.315L211.155 206.888L211.027 205.64L215.555 211H212.515L209.411 207.32H210.387L207.315 211H204.339ZM82.232 221.896V231H79.56V222.696L80.792 223.912H73.448L74.68 222.696V231H72.008V221.896H82.232ZM84.7224 221.896H87.3944V224.792L87.2824 225.144V227.336L87.3944 227.992V233.64H84.7224V221.896ZM86.4664 226.456C86.6477 225.485 86.9624 224.643 87.4104 223.928C87.869 223.203 88.4397 222.643 89.1224 222.248C89.8157 221.853 90.5837 221.656 91.4264 221.656C92.3224 221.656 93.1064 221.859 93.7784 222.264C94.461 222.659 94.9944 223.219 95.3784 223.944C95.7624 224.659 95.9544 225.496 95.9544 226.456C95.9544 227.405 95.7624 228.243 95.3784 228.968C94.9944 229.683 94.461 230.243 93.7784 230.648C93.1064 231.043 92.3224 231.24 91.4264 231.24C90.573 231.24 89.805 231.043 89.1224 230.648C88.4504 230.253 87.885 229.699 87.4264 228.984C86.9677 228.259 86.6477 227.416 86.4664 226.456ZM93.2504 226.456C93.2504 225.923 93.1384 225.453 92.9144 225.048C92.701 224.632 92.4024 224.312 92.0184 224.088C91.6344 223.853 91.1917 223.736 90.6904 223.736C90.189 223.736 89.7144 223.853 89.2664 224.088C88.8184 224.312 88.4237 224.632 88.0824 225.048C87.7517 225.453 87.4904 225.923 87.2984 226.456C87.4904 226.989 87.7517 227.459 88.0824 227.864C88.4237 228.269 88.8184 228.589 89.2664 228.824C89.7144 229.048 90.189 229.16 90.6904 229.16C91.1917 229.16 91.6344 229.048 92.0184 228.824C92.4024 228.589 92.701 228.269 92.9144 227.864C93.1384 227.459 93.2504 226.989 93.2504 226.456ZM103.215 231.24C102.085 231.24 101.093 231.043 100.239 230.648C99.3859 230.243 98.7192 229.683 98.2392 228.968C97.7592 228.243 97.5192 227.405 97.5192 226.456C97.5192 225.496 97.7592 224.659 98.2392 223.944C98.7192 223.219 99.3859 222.659 100.239 222.264C101.093 221.859 102.085 221.656 103.215 221.656C104.346 221.656 105.338 221.859 106.191 222.264C107.045 222.659 107.706 223.219 108.175 223.944C108.655 224.659 108.895 225.496 108.895 226.456C108.895 227.405 108.655 228.243 108.175 228.968C107.706 229.683 107.045 230.243 106.191 230.648C105.338 231.043 104.346 231.24 103.215 231.24ZM103.215 229.208C103.834 229.208 104.362 229.096 104.799 228.872C105.247 228.648 105.589 228.333 105.823 227.928C106.069 227.512 106.191 227.021 106.191 226.456C106.191 225.88 106.069 225.389 105.823 224.984C105.589 224.568 105.247 224.248 104.799 224.024C104.362 223.8 103.834 223.688 103.215 223.688C102.607 223.688 102.079 223.8 101.631 224.024C101.183 224.248 100.837 224.568 100.591 224.984C100.357 225.389 100.239 225.88 100.239 226.456C100.239 227.021 100.357 227.512 100.591 227.928C100.837 228.333 101.183 228.648 101.631 228.872C102.079 229.096 102.607 229.208 103.215 229.208ZM115.988 231.24C114.9 231.24 113.935 231.043 113.092 230.648C112.26 230.243 111.61 229.677 111.14 228.952C110.682 228.227 110.452 227.395 110.452 226.456C110.452 225.507 110.682 224.675 111.14 223.96C111.61 223.235 112.26 222.669 113.092 222.264C113.935 221.859 114.9 221.656 115.988 221.656C116.948 221.656 117.812 221.816 118.58 222.136C119.348 222.456 119.978 222.899 120.468 223.464C120.97 224.019 121.284 224.669 121.412 225.416H118.804C118.644 224.872 118.308 224.429 117.796 224.088C117.284 223.736 116.682 223.56 115.988 223.56C115.391 223.56 114.874 223.677 114.436 223.912C113.999 224.136 113.658 224.467 113.412 224.904C113.178 225.331 113.06 225.848 113.06 226.456C113.06 227.053 113.178 227.571 113.412 228.008C113.658 228.435 113.999 228.765 114.436 229C114.874 229.224 115.391 229.336 115.988 229.336C116.682 229.336 117.284 229.165 117.796 228.824C118.308 228.483 118.644 228.035 118.804 227.48H121.412C121.284 228.227 120.97 228.883 120.468 229.448C119.978 230.003 119.348 230.44 118.58 230.76C117.812 231.08 116.948 231.24 115.988 231.24ZM111.844 227.272V225.624H117.348V227.272H111.844ZM123.319 231V221.896H125.991V228.84L125.207 228.568L130.631 221.896H133.543L125.719 231H123.319ZM130.759 231L128.039 226.536L130.007 225.016L133.815 231H130.759ZM138.037 222.824H140.709V231H138.037V222.824ZM134.421 221.896H144.325V223.944H134.421V221.896ZM146.029 221.8L147.357 222.056L148.701 221.8V231H146.029V221.8ZM147.357 220.856C146.877 220.856 146.482 220.733 146.173 220.488C145.874 220.232 145.725 219.896 145.725 219.48C145.725 219.053 145.874 218.717 146.173 218.472C146.482 218.216 146.877 218.088 147.357 218.088C147.847 218.088 148.242 218.216 148.541 218.472C148.839 218.717 148.989 219.053 148.989 219.48C148.989 219.896 148.839 220.232 148.541 220.488C148.242 220.733 147.847 220.856 147.357 220.856ZM150.972 231L151.484 226.456L150.972 221.896H157.98C158.855 221.896 159.548 222.104 160.06 222.52C160.572 222.925 160.828 223.48 160.828 224.184C160.828 224.845 160.572 225.384 160.06 225.8C159.548 226.205 158.833 226.445 157.916 226.52L158.108 226.072C159.175 226.104 159.985 226.328 160.54 226.744C161.105 227.149 161.388 227.72 161.388 228.456C161.388 229.245 161.1 229.869 160.524 230.328C159.959 230.776 159.18 231 158.188 231H150.972ZM153.548 230.408L152.524 229.272H157.372C157.831 229.272 158.167 229.181 158.38 229C158.593 228.808 158.7 228.541 158.7 228.2C158.7 227.891 158.583 227.64 158.348 227.448C158.113 227.245 157.729 227.144 157.196 227.144H153.068V225.624H156.844C157.292 225.624 157.617 225.533 157.82 225.352C158.033 225.171 158.14 224.925 158.14 224.616C158.14 224.328 158.044 224.093 157.852 223.912C157.671 223.731 157.372 223.64 156.956 223.64H152.54L153.548 222.504L154.044 226.456L153.548 230.408ZM71.784 251L72.296 246.456L71.784 241.896H78.792C79.6667 241.896 80.36 242.104 80.872 242.52C81.384 242.925 81.64 243.48 81.64 244.184C81.64 244.845 81.384 245.384 80.872 245.8C80.36 246.205 79.6453 246.445 78.728 246.52L78.92 246.072C79.9867 246.104 80.7973 246.328 81.352 246.744C81.9173 247.149 82.2 247.72 82.2 248.456C82.2 249.245 81.912 249.869 81.336 250.328C80.7707 250.776 79.992 251 79 251H71.784ZM74.36 250.408L73.336 249.272H78.184C78.6427 249.272 78.9787 249.181 79.192 249C79.4053 248.808 79.512 248.541 79.512 248.2C79.512 247.891 79.3947 247.64 79.16 247.448C78.9253 247.245 78.5413 247.144 78.008 247.144H73.88V245.624H77.656C78.104 245.624 78.4293 245.533 78.632 245.352C78.8453 245.171 78.952 244.925 78.952 244.616C78.952 244.328 78.856 244.093 78.664 243.912C78.4827 243.731 78.184 243.64 77.768 243.64H73.352L74.36 242.504L74.856 246.456L74.36 250.408ZM88.3645 247.08H91.1165C91.1805 247.485 91.3565 247.843 91.6445 248.152C91.9432 248.451 92.3378 248.685 92.8285 248.856C93.3298 249.016 93.9058 249.096 94.5565 249.096C95.5058 249.096 96.2525 248.963 96.7965 248.696C97.3512 248.419 97.6285 248.035 97.6285 247.544C97.6285 247.16 97.4685 246.867 97.1485 246.664C96.8392 246.451 96.2578 246.296 95.4045 246.2L92.9885 245.928C91.4312 245.757 90.3005 245.395 89.5965 244.84C88.9032 244.275 88.5565 243.491 88.5565 242.488C88.5565 241.699 88.7858 241.027 89.2445 240.472C89.7138 239.917 90.3698 239.496 91.2125 239.208C92.0552 238.909 93.0472 238.76 94.1885 238.76C95.2978 238.76 96.2845 238.925 97.1485 239.256C98.0125 239.576 98.7005 240.029 99.2125 240.616C99.7245 241.192 100.002 241.869 100.044 242.648H97.2925C97.2392 242.296 97.0792 241.992 96.8125 241.736C96.5565 241.469 96.1992 241.267 95.7405 241.128C95.2818 240.979 94.7432 240.904 94.1245 240.904C93.2605 240.904 92.5725 241.032 92.0605 241.288C91.5485 241.544 91.2925 241.907 91.2925 242.376C91.2925 242.739 91.4418 243.021 91.7405 243.224C92.0498 243.416 92.5885 243.56 93.3565 243.656L95.8685 243.96C96.9778 244.077 97.8578 244.269 98.5085 244.536C99.1698 244.792 99.6392 245.139 99.9165 245.576C100.204 246.013 100.348 246.568 100.348 247.24C100.348 248.04 100.103 248.744 99.6125 249.352C99.1325 249.949 98.4552 250.413 97.5805 250.744C96.7058 251.075 95.6818 251.24 94.5085 251.24C93.3138 251.24 92.2632 251.069 91.3565 250.728C90.4498 250.376 89.7352 249.891 89.2125 249.272C88.6898 248.643 88.4072 247.912 88.3645 247.08ZM106.257 251.24C105.414 251.24 104.694 251.069 104.097 250.728C103.51 250.376 103.057 249.88 102.737 249.24C102.428 248.6 102.273 247.843 102.273 246.968V241.896H104.945V246.568C104.945 247.379 105.137 247.997 105.521 248.424C105.905 248.84 106.449 249.048 107.153 249.048C107.676 249.048 108.118 248.941 108.481 248.728C108.854 248.504 109.142 248.184 109.345 247.768C109.548 247.352 109.649 246.867 109.649 246.312L110.513 246.776C110.406 247.715 110.156 248.52 109.761 249.192C109.366 249.853 108.865 250.36 108.257 250.712C107.66 251.064 106.993 251.24 106.257 251.24ZM110.209 251L109.649 247.544V241.896H112.321V247.944L112.881 251H110.209ZM114.944 238.68H117.616V244.792L117.248 245.512V247.496L117.616 248.232V251H114.944V238.68ZM116.672 246.456C116.842 245.485 117.157 244.643 117.616 243.928C118.074 243.203 118.645 242.643 119.328 242.248C120.01 241.853 120.778 241.656 121.632 241.656C122.517 241.656 123.301 241.859 123.984 242.264C124.666 242.659 125.2 243.219 125.584 243.944C125.968 244.659 126.16 245.496 126.16 246.456C126.16 247.405 125.968 248.243 125.584 248.968C125.2 249.683 124.666 250.243 123.984 250.648C123.301 251.043 122.517 251.24 121.632 251.24C120.778 251.24 120.01 251.043 119.328 250.648C118.645 250.253 118.074 249.699 117.616 248.984C117.168 248.259 116.853 247.416 116.672 246.456ZM123.44 246.456C123.44 245.923 123.328 245.453 123.104 245.048C122.89 244.632 122.592 244.312 122.208 244.088C121.824 243.853 121.386 243.736 120.896 243.736C120.394 243.736 119.92 243.853 119.472 244.088C119.024 244.312 118.629 244.632 118.288 245.048C117.957 245.453 117.696 245.923 117.504 246.456C117.696 246.989 117.957 247.459 118.288 247.864C118.629 248.269 119.024 248.589 119.472 248.824C119.92 249.048 120.394 249.16 120.896 249.16C121.386 249.16 121.824 249.048 122.208 248.824C122.592 248.589 122.89 248.269 123.104 247.864C123.328 247.459 123.44 246.989 123.44 246.456ZM127.742 241.896H130.414L130.99 245.368V251H128.318V244.968L127.742 241.896ZM134.238 241.656C135.048 241.656 135.742 241.832 136.318 242.184C136.894 242.525 137.331 243.016 137.63 243.656C137.939 244.296 138.094 245.059 138.094 245.944V251H135.422V246.344C135.422 245.523 135.24 244.904 134.878 244.488C134.526 244.061 134.008 243.848 133.326 243.848C132.846 243.848 132.43 243.965 132.078 244.2C131.726 244.424 131.454 244.739 131.262 245.144C131.08 245.549 130.99 246.035 130.99 246.6L130.11 246.136C130.216 245.176 130.462 244.365 130.846 243.704C131.23 243.043 131.71 242.536 132.286 242.184C132.872 241.832 133.523 241.656 134.238 241.656ZM141.326 241.656C142.136 241.656 142.83 241.832 143.406 242.184C143.992 242.525 144.435 243.016 144.734 243.656C145.043 244.296 145.198 245.059 145.198 245.944V251H142.526V246.344C142.526 245.523 142.344 244.904 141.982 244.488C141.63 244.061 141.112 243.848 140.43 243.848C139.95 243.848 139.534 243.965 139.182 244.2C138.83 244.424 138.558 244.739 138.366 245.144C138.184 245.549 138.094 246.035 138.094 246.6L137.214 246.136C137.32 245.176 137.566 244.365 137.95 243.704C138.334 243.043 138.814 242.536 139.39 242.184C139.976 241.832 140.622 241.656 141.326 241.656ZM155.896 251L155.512 247.672L155.944 246.456L155.512 245.256L155.896 241.896H158.664L158.136 246.456L158.664 251H155.896ZM156.6 246.456C156.429 247.416 156.115 248.259 155.656 248.984C155.208 249.699 154.637 250.253 153.944 250.648C153.261 251.043 152.493 251.24 151.64 251.24C150.755 251.24 149.971 251.043 149.288 250.648C148.605 250.243 148.072 249.683 147.688 248.968C147.315 248.243 147.128 247.405 147.128 246.456C147.128 245.496 147.315 244.659 147.688 243.944C148.072 243.219 148.605 242.659 149.288 242.264C149.971 241.859 150.755 241.656 151.64 241.656C152.493 241.656 153.261 241.853 153.944 242.248C154.637 242.643 155.213 243.203 155.672 243.928C156.131 244.643 156.44 245.485 156.6 246.456ZM149.832 246.456C149.832 246.989 149.939 247.459 150.152 247.864C150.376 248.269 150.68 248.589 151.064 248.824C151.448 249.048 151.891 249.16 152.392 249.16C152.893 249.16 153.363 249.048 153.8 248.824C154.248 248.589 154.643 248.269 154.984 247.864C155.325 247.459 155.592 246.989 155.784 246.456C155.592 245.923 155.325 245.453 154.984 245.048C154.643 244.632 154.248 244.312 153.8 244.088C153.363 243.853 152.893 243.736 152.392 243.736C151.891 243.736 151.448 243.853 151.064 244.088C150.68 244.312 150.376 244.632 150.152 245.048C149.939 245.453 149.832 245.923 149.832 246.456ZM160.499 241.896H163.203L163.747 245.176V251H161.075V244.888L160.499 241.896ZM168.179 241.8V244.104C167.901 244.04 167.624 243.992 167.347 243.96C167.069 243.928 166.808 243.912 166.563 243.912C166.029 243.912 165.549 244.024 165.123 244.248C164.696 244.472 164.36 244.819 164.115 245.288C163.869 245.757 163.747 246.349 163.747 247.064L163.187 246.392C163.251 245.741 163.368 245.133 163.539 244.568C163.709 243.992 163.944 243.491 164.243 243.064C164.552 242.627 164.931 242.285 165.379 242.04C165.827 241.784 166.36 241.656 166.979 241.656C167.181 241.656 167.384 241.672 167.587 241.704C167.8 241.725 167.997 241.757 168.179 241.8ZM169.895 241.8L171.223 242.056L172.567 241.8V251H169.895V241.8ZM171.223 240.856C170.743 240.856 170.348 240.733 170.039 240.488C169.74 240.232 169.591 239.896 169.591 239.48C169.591 239.053 169.74 238.717 170.039 238.472C170.348 238.216 170.743 238.088 171.223 238.088C171.714 238.088 172.108 238.216 172.407 238.472C172.706 238.717 172.855 239.053 172.855 239.48C172.855 239.896 172.706 240.232 172.407 240.488C172.108 240.733 171.714 240.856 171.223 240.856ZM174.63 241.896H177.302L177.878 245.368V251H175.206V244.968L174.63 241.896ZM181.35 241.656C182.214 241.656 182.95 241.832 183.558 242.184C184.166 242.525 184.63 243.016 184.95 243.656C185.27 244.296 185.43 245.059 185.43 245.944V251H182.758V246.344C182.758 245.523 182.561 244.904 182.166 244.488C181.772 244.061 181.196 243.848 180.438 243.848C179.926 243.848 179.473 243.965 179.078 244.2C178.694 244.424 178.396 244.739 178.182 245.144C177.98 245.549 177.878 246.035 177.878 246.6L176.998 246.136C177.105 245.176 177.361 244.365 177.766 243.704C178.172 243.043 178.684 242.536 179.302 242.184C179.921 241.832 180.604 241.656 181.35 241.656ZM192.928 251.24C191.851 251.24 190.886 251.043 190.032 250.648C189.19 250.243 188.523 249.677 188.032 248.952C187.552 248.227 187.312 247.384 187.312 246.424C187.312 245.475 187.542 244.643 188 243.928C188.47 243.213 189.11 242.659 189.92 242.264C190.731 241.859 191.654 241.656 192.688 241.656C193.744 241.656 194.651 241.891 195.408 242.36C196.166 242.819 196.747 243.469 197.152 244.312C197.568 245.155 197.776 246.147 197.776 247.288H189.456V245.512H196.336L195.296 246.152C195.254 245.619 195.12 245.165 194.896 244.792C194.683 244.419 194.39 244.131 194.016 243.928C193.643 243.725 193.206 243.624 192.704 243.624C192.16 243.624 191.686 243.736 191.28 243.96C190.886 244.173 190.576 244.477 190.352 244.872C190.139 245.256 190.032 245.709 190.032 246.232C190.032 246.861 190.171 247.4 190.448 247.848C190.726 248.296 191.131 248.637 191.664 248.872C192.198 249.107 192.843 249.224 193.6 249.224C194.283 249.224 194.971 249.128 195.664 248.936C196.358 248.733 196.982 248.451 197.536 248.088V249.88C196.939 250.307 196.24 250.643 195.44 250.888C194.651 251.123 193.814 251.24 192.928 251.24ZM201.291 251.144C200.843 251.144 200.47 251 200.171 250.712C199.883 250.424 199.739 250.061 199.739 249.624C199.739 249.187 199.883 248.824 200.171 248.536C200.47 248.248 200.843 248.104 201.291 248.104C201.75 248.104 202.123 248.248 202.411 248.536C202.71 248.824 202.859 249.187 202.859 249.624C202.859 250.061 202.71 250.424 202.411 250.712C202.123 251 201.75 251.144 201.291 251.144ZM201.291 245.48C200.843 245.48 200.47 245.336 200.171 245.048C199.883 244.76 199.739 244.397 199.739 243.96C199.739 243.523 199.883 243.16 200.171 242.872C200.47 242.584 200.843 242.44 201.291 242.44C201.75 242.44 202.123 242.584 202.411 242.872C202.71 243.16 202.859 243.523 202.859 243.96C202.859 244.397 202.71 244.76 202.411 245.048C202.123 245.336 201.75 245.48 201.291 245.48Z" fill="white"/>
<path d="M295.88 186.704V187.76H294.44V190H293.32V187.76H287.4V186.704L291.56 178.8H292.792L288.632 186.704H293.32V183.28H294.44V186.704H295.88ZM304.441 183.888V184.912H301.593V187.76H300.569V184.912H297.721V183.888H300.569V181.04H301.593V183.888H304.441Z" fill="white"/>
<path d="M75.048 287L77.112 283.432H77.144L82.008 275H84.952L77.992 287H75.048ZM77.112 285.256L71.128 275H74.12L78.984 283.368L77.112 285.256ZM85.8529 277.896H95.2609V287H92.5889V278.696L93.8209 279.912H87.1809L88.3329 278.92C88.3862 279.571 88.4289 280.173 88.4609 280.728C88.5035 281.272 88.5249 281.763 88.5249 282.2C88.5249 283.949 88.2635 285.219 87.7409 286.008C87.2289 286.797 86.3969 287.192 85.2449 287.192C84.9249 287.192 84.6155 287.155 84.3169 287.08C84.0289 287.016 83.7462 286.904 83.4689 286.744V284.808C83.6609 284.883 83.8475 284.941 84.0289 284.984C84.2209 285.016 84.3969 285.032 84.5569 285.032C85.1009 285.032 85.4902 284.787 85.7249 284.296C85.9702 283.795 86.0929 282.973 86.0929 281.832C86.0929 281.32 86.0715 280.733 86.0289 280.072C85.9969 279.411 85.9382 278.685 85.8529 277.896ZM107.557 287.24C106.437 287.24 105.456 287.043 104.613 286.648C103.771 286.243 103.115 285.683 102.645 284.968C102.187 284.243 101.957 283.405 101.957 282.456C101.957 281.496 102.187 280.659 102.645 279.944C103.115 279.219 103.771 278.659 104.613 278.264C105.456 277.859 106.437 277.656 107.557 277.656C108.677 277.656 109.659 277.859 110.501 278.264C111.344 278.659 112 279.219 112.469 279.944C112.939 280.659 113.173 281.496 113.173 282.456C113.173 283.405 112.939 284.243 112.469 284.968C112 285.683 111.344 286.243 110.501 286.648C109.659 287.043 108.677 287.24 107.557 287.24ZM97.7492 287V277.896H100.421V287H97.7492ZM99.2532 283.368V281.368H103.653V283.368H99.2532ZM107.557 285.208C108.165 285.208 108.683 285.096 109.109 284.872C109.547 284.648 109.883 284.333 110.117 283.928C110.352 283.512 110.469 283.021 110.469 282.456C110.469 281.88 110.352 281.389 110.117 280.984C109.883 280.568 109.547 280.248 109.109 280.024C108.683 279.8 108.165 279.688 107.557 279.688C106.96 279.688 106.443 279.8 106.005 280.024C105.568 280.248 105.232 280.568 104.997 280.984C104.763 281.389 104.645 281.88 104.645 282.456C104.645 283.021 104.763 283.512 104.997 283.928C105.232 284.333 105.568 284.648 106.005 284.872C106.443 285.096 106.96 285.208 107.557 285.208ZM120.782 287.24C119.534 287.24 118.467 287.005 117.582 286.536C116.697 286.056 116.019 285.368 115.55 284.472C115.081 283.576 114.846 282.493 114.846 281.224C114.846 279.336 115.353 277.848 116.366 276.76C117.379 275.672 118.83 275.048 120.718 274.888C121.486 274.824 122.121 274.771 122.622 274.728C123.123 274.685 123.534 274.643 123.854 274.6C124.185 274.547 124.462 274.493 124.686 274.44C124.91 274.376 125.129 274.307 125.342 274.232V276.456C125.118 276.541 124.83 276.621 124.478 276.696C124.137 276.76 123.699 276.813 123.166 276.856C122.643 276.899 121.998 276.941 121.23 276.984C119.833 277.048 118.793 277.432 118.11 278.136C117.427 278.84 117.086 279.853 117.086 281.176V281.608L116.99 281.416C117.203 280.84 117.529 280.344 117.966 279.928C118.403 279.512 118.926 279.197 119.534 278.984C120.153 278.76 120.819 278.648 121.534 278.648C122.462 278.648 123.273 278.824 123.966 279.176C124.659 279.517 125.198 280.003 125.582 280.632C125.977 281.261 126.174 281.997 126.174 282.84C126.174 283.725 125.95 284.499 125.502 285.16C125.054 285.821 124.425 286.333 123.614 286.696C122.814 287.059 121.87 287.24 120.782 287.24ZM120.846 285.208C121.379 285.208 121.843 285.112 122.238 284.92C122.633 284.728 122.937 284.456 123.15 284.104C123.363 283.752 123.47 283.341 123.47 282.872C123.47 282.403 123.363 281.997 123.15 281.656C122.937 281.304 122.633 281.032 122.238 280.84C121.843 280.648 121.379 280.552 120.846 280.552C120.11 280.552 119.459 280.749 118.894 281.144C118.329 281.528 117.902 282.067 117.614 282.76C117.785 283.507 118.158 284.104 118.734 284.552C119.321 284.989 120.025 285.208 120.846 285.208ZM129.558 277.896H138.966V287H136.294V278.696L137.526 279.912H130.886L132.038 278.92C132.092 279.571 132.134 280.173 132.166 280.728C132.209 281.272 132.23 281.763 132.23 282.2C132.23 283.949 131.969 285.219 131.446 286.008C130.934 286.797 130.102 287.192 128.95 287.192C128.63 287.192 128.321 287.155 128.022 287.08C127.734 287.016 127.452 286.904 127.174 286.744V284.808C127.366 284.883 127.553 284.941 127.734 284.984C127.926 285.016 128.102 285.032 128.262 285.032C128.806 285.032 129.196 284.787 129.43 284.296C129.676 283.795 129.798 282.973 129.798 281.832C129.798 281.32 129.777 280.733 129.734 280.072C129.702 279.411 129.644 278.685 129.558 277.896ZM146.591 287.24C145.514 287.24 144.548 287.043 143.695 286.648C142.852 286.243 142.186 285.677 141.695 284.952C141.215 284.227 140.975 283.384 140.975 282.424C140.975 281.475 141.204 280.643 141.663 279.928C142.132 279.213 142.772 278.659 143.583 278.264C144.394 277.859 145.316 277.656 146.351 277.656C147.407 277.656 148.314 277.891 149.071 278.36C149.828 278.819 150.41 279.469 150.815 280.312C151.231 281.155 151.439 282.147 151.439 283.288H143.119V281.512H149.999L148.959 282.152C148.916 281.619 148.783 281.165 148.559 280.792C148.346 280.419 148.052 280.131 147.679 279.928C147.306 279.725 146.868 279.624 146.367 279.624C145.823 279.624 145.348 279.736 144.943 279.96C144.548 280.173 144.239 280.477 144.015 280.872C143.802 281.256 143.695 281.709 143.695 282.232C143.695 282.861 143.834 283.4 144.111 283.848C144.388 284.296 144.794 284.637 145.327 284.872C145.86 285.107 146.506 285.224 147.263 285.224C147.946 285.224 148.634 285.128 149.327 284.936C150.02 284.733 150.644 284.451 151.199 284.088V285.88C150.602 286.307 149.903 286.643 149.103 286.888C148.314 287.123 147.476 287.24 146.591 287.24ZM153.482 277.896H156.138V287H153.482V277.896ZM161.114 277.896H163.77V287H161.114V277.896ZM155.002 281.352H162.154V283.368H155.002V281.352ZM166.259 277.8L167.587 278.056L168.931 277.8V287H166.259V277.8ZM167.587 276.856C167.107 276.856 166.712 276.733 166.403 276.488C166.104 276.232 165.955 275.896 165.955 275.48C165.955 275.053 166.104 274.717 166.403 274.472C166.712 274.216 167.107 274.088 167.587 274.088C168.077 274.088 168.472 274.216 168.771 274.472C169.069 274.717 169.219 275.053 169.219 275.48C169.219 275.896 169.069 276.232 168.771 276.488C168.472 276.733 168.077 276.856 167.587 276.856ZM186.224 277.896V287H183.552V278.696L184.784 279.912H177.44L178.672 278.696V287H176V277.896H186.224ZM188.714 277.896H191.386V280.792L191.274 281.144V283.336L191.386 283.992V289.64H188.714V277.896ZM190.458 282.456C190.64 281.485 190.954 280.643 191.402 279.928C191.861 279.203 192.432 278.643 193.114 278.248C193.808 277.853 194.576 277.656 195.418 277.656C196.314 277.656 197.098 277.859 197.77 278.264C198.453 278.659 198.986 279.219 199.37 279.944C199.754 280.659 199.946 281.496 199.946 282.456C199.946 283.405 199.754 284.243 199.37 284.968C198.986 285.683 198.453 286.243 197.77 286.648C197.098 287.043 196.314 287.24 195.418 287.24C194.565 287.24 193.797 287.043 193.114 286.648C192.442 286.253 191.877 285.699 191.418 284.984C190.96 284.259 190.64 283.416 190.458 282.456ZM197.242 282.456C197.242 281.923 197.13 281.453 196.906 281.048C196.693 280.632 196.394 280.312 196.01 280.088C195.626 279.853 195.184 279.736 194.682 279.736C194.181 279.736 193.706 279.853 193.258 280.088C192.81 280.312 192.416 280.632 192.074 281.048C191.744 281.453 191.482 281.923 191.29 282.456C191.482 282.989 191.744 283.459 192.074 283.864C192.416 284.269 192.81 284.589 193.258 284.824C193.706 285.048 194.181 285.16 194.682 285.16C195.184 285.16 195.626 285.048 196.01 284.824C196.394 284.589 196.693 284.269 196.906 283.864C197.13 283.459 197.242 282.989 197.242 282.456ZM207.207 287.24C206.076 287.24 205.084 287.043 204.231 286.648C203.378 286.243 202.711 285.683 202.231 284.968C201.751 284.243 201.511 283.405 201.511 282.456C201.511 281.496 201.751 280.659 202.231 279.944C202.711 279.219 203.378 278.659 204.231 278.264C205.084 277.859 206.076 277.656 207.207 277.656C208.338 277.656 209.33 277.859 210.183 278.264C211.036 278.659 211.698 279.219 212.167 279.944C212.647 280.659 212.887 281.496 212.887 282.456C212.887 283.405 212.647 284.243 212.167 284.968C211.698 285.683 211.036 286.243 210.183 286.648C209.33 287.043 208.338 287.24 207.207 287.24ZM207.207 285.208C207.826 285.208 208.354 285.096 208.791 284.872C209.239 284.648 209.58 284.333 209.815 283.928C210.06 283.512 210.183 283.021 210.183 282.456C210.183 281.88 210.06 281.389 209.815 280.984C209.58 280.568 209.239 280.248 208.791 280.024C208.354 279.8 207.826 279.688 207.207 279.688C206.599 279.688 206.071 279.8 205.623 280.024C205.175 280.248 204.828 280.568 204.583 280.984C204.348 281.389 204.231 281.88 204.231 282.456C204.231 283.021 204.348 283.512 204.583 283.928C204.828 284.333 205.175 284.648 205.623 284.872C206.071 285.096 206.599 285.208 207.207 285.208ZM219.98 287.24C218.892 287.24 217.927 287.043 217.084 286.648C216.252 286.243 215.602 285.677 215.132 284.952C214.674 284.227 214.444 283.395 214.444 282.456C214.444 281.507 214.674 280.675 215.132 279.96C215.602 279.235 216.252 278.669 217.084 278.264C217.927 277.859 218.892 277.656 219.98 277.656C220.94 277.656 221.804 277.816 222.572 278.136C223.34 278.456 223.97 278.899 224.46 279.464C224.962 280.019 225.276 280.669 225.404 281.416H222.796C222.636 280.872 222.3 280.429 221.788 280.088C221.276 279.736 220.674 279.56 219.98 279.56C219.383 279.56 218.866 279.677 218.428 279.912C217.991 280.136 217.65 280.467 217.404 280.904C217.17 281.331 217.052 281.848 217.052 282.456C217.052 283.053 217.17 283.571 217.404 284.008C217.65 284.435 217.991 284.765 218.428 285C218.866 285.224 219.383 285.336 219.98 285.336C220.674 285.336 221.276 285.165 221.788 284.824C222.3 284.483 222.636 284.035 222.796 283.48H225.404C225.276 284.227 224.962 284.883 224.46 285.448C223.97 286.003 223.34 286.44 222.572 286.76C221.804 287.08 220.94 287.24 219.98 287.24ZM215.836 283.272V281.624H221.34V283.272H215.836ZM227.311 287V277.896H229.983V284.84L229.199 284.568L234.623 277.896H237.535L229.711 287H227.311ZM234.751 287L232.031 282.536L233.999 281.016L237.807 287H234.751ZM242.029 278.824H244.701V287H242.029V278.824ZM238.413 277.896H248.317V279.944H238.413V277.896ZM250.02 287V277.896H252.644V285.592L251.988 285.416L257.476 277.896H260.916V287H258.292V279.16L258.948 279.352L253.364 287H250.02ZM264.879 287.144C264.431 287.144 264.057 287 263.759 286.712C263.471 286.424 263.327 286.061 263.327 285.624C263.327 285.187 263.471 284.824 263.759 284.536C264.057 284.248 264.431 284.104 264.879 284.104C265.337 284.104 265.711 284.248 265.999 284.536C266.297 284.824 266.447 285.187 266.447 285.624C266.447 286.061 266.297 286.424 265.999 286.712C265.711 287 265.337 287.144 264.879 287.144ZM264.879 281.48C264.431 281.48 264.057 281.336 263.759 281.048C263.471 280.76 263.327 280.397 263.327 279.96C263.327 279.523 263.471 279.16 263.759 278.872C264.057 278.584 264.431 278.44 264.879 278.44C265.337 278.44 265.711 278.584 265.999 278.872C266.297 279.16 266.447 279.523 266.447 279.96C266.447 280.397 266.297 280.76 265.999 281.048C265.711 281.336 265.337 281.48 264.879 281.48Z" fill="white"/>
<path d="M289.4 284.944H294.84V286H288.28V274.8H294.76V275.856H289.4V279.824H294.36V280.88H289.4V284.944ZM303.804 286H302.54L300.044 282.704L297.548 286H296.284L299.42 281.856L296.492 278H297.756L300.044 281.024L302.332 278H303.596L300.684 281.856L303.804 286ZM309.961 279.024H307.657V283.872C307.657 284.309 307.742 284.624 307.913 284.816C308.083 284.997 308.339 285.093 308.681 285.104C309.022 285.104 309.449 285.093 309.961 285.072V286C308.841 286.171 307.998 286.091 307.433 285.76C306.878 285.429 306.601 284.8 306.601 283.872V279.024H304.921V278H306.601V276.08L307.657 275.76V278H309.961V279.024ZM313.257 279.328C313.747 278.357 314.59 277.872 315.785 277.872V278.896C315.059 278.896 314.457 279.109 313.977 279.536C313.497 279.963 313.257 280.635 313.257 281.552V286H312.201V278H313.257V279.328ZM324.108 278H325.164V286H324.108V284.432C323.372 285.605 322.294 286.192 320.876 286.192C319.734 286.192 318.758 285.787 317.948 284.976C317.148 284.165 316.748 283.173 316.748 282C316.748 280.827 317.148 279.835 317.948 279.024C318.758 278.213 319.734 277.808 320.876 277.808C322.294 277.808 323.372 278.395 324.108 279.568V278ZM318.716 284.256C319.324 284.864 320.07 285.168 320.956 285.168C321.841 285.168 322.588 284.864 323.196 284.256C323.804 283.637 324.108 282.885 324.108 282C324.108 281.115 323.804 280.368 323.196 279.76C322.588 279.141 321.841 278.832 320.956 278.832C320.07 278.832 319.324 279.141 318.716 279.76C318.108 280.368 317.804 281.115 317.804 282C317.804 282.885 318.108 283.637 318.716 284.256ZM333.639 284.944H338.759V286H332.519V274.8H333.639V284.944ZM341.755 276.08C341.606 276.229 341.424 276.304 341.211 276.304C340.998 276.304 340.816 276.229 340.667 276.08C340.518 275.931 340.443 275.749 340.443 275.536C340.443 275.323 340.518 275.141 340.667 274.992C340.816 274.843 340.998 274.768 341.211 274.768C341.424 274.768 341.606 274.843 341.755 274.992C341.904 275.141 341.979 275.323 341.979 275.536C341.979 275.749 341.904 275.931 341.755 276.08ZM340.683 286V278H341.739V286H340.683ZM348.46 275.632C347.681 275.568 347.1 275.701 346.716 276.032C346.343 276.363 346.156 276.912 346.156 277.68V278H348.46V279.024H346.156V286H345.1V279.024H343.74V278H345.1V277.68C345.1 276.635 345.388 275.845 345.964 275.312C346.551 274.768 347.383 274.533 348.46 274.608V275.632ZM353.277 277.808C354.461 277.808 355.415 278.229 356.141 279.072C356.877 279.904 357.245 280.891 357.245 282.032C357.245 282.149 357.234 282.315 357.213 282.528H350.189C350.295 283.339 350.637 283.984 351.213 284.464C351.799 284.933 352.519 285.168 353.373 285.168C353.981 285.168 354.503 285.045 354.941 284.8C355.389 284.544 355.725 284.213 355.949 283.808L356.877 284.352C356.525 284.917 356.045 285.365 355.437 285.696C354.829 286.027 354.135 286.192 353.357 286.192C352.098 286.192 351.074 285.797 350.285 285.008C349.495 284.219 349.101 283.216 349.101 282C349.101 280.805 349.49 279.808 350.269 279.008C351.047 278.208 352.05 277.808 353.277 277.808ZM353.277 278.832C352.445 278.832 351.746 279.083 351.181 279.584C350.626 280.075 350.295 280.715 350.189 281.504H356.157C356.05 280.661 355.725 280.005 355.181 279.536C354.637 279.067 354.002 278.832 353.277 278.832Z" fill="white"/>
<path d="M71.256 325.448V320.6H73.496L74.648 320.632H83.288L83.944 320.6H87.176V325.448H84.632V323H73.8V325.448H71.256ZM73.832 311H85.08V322.136H82.376V312.152L83.592 313.368H75.288L76.424 312.488C76.488 313.021 76.5307 313.549 76.552 314.072C76.5733 314.595 76.584 315.085 76.584 315.544C76.584 316.845 76.4827 317.949 76.28 318.856C76.0773 319.752 75.7733 320.435 75.368 320.904C74.9627 321.363 74.4613 321.592 73.864 321.592L72.744 320.648C73.192 320.136 73.5227 319.416 73.736 318.488C73.96 317.549 74.072 316.381 74.072 314.984C74.072 314.365 74.0507 313.72 74.008 313.048C73.9653 312.376 73.9067 311.693 73.832 311ZM94.0634 323.24C92.9327 323.24 91.9407 323.043 91.0874 322.648C90.234 322.243 89.5674 321.683 89.0874 320.968C88.6074 320.243 88.3674 319.405 88.3674 318.456C88.3674 317.496 88.6074 316.659 89.0874 315.944C89.5674 315.219 90.234 314.659 91.0874 314.264C91.9407 313.859 92.9327 313.656 94.0634 313.656C95.194 313.656 96.186 313.859 97.0394 314.264C97.8927 314.659 98.554 315.219 99.0234 315.944C99.5034 316.659 99.7434 317.496 99.7434 318.456C99.7434 319.405 99.5034 320.243 99.0234 320.968C98.554 321.683 97.8927 322.243 97.0394 322.648C96.186 323.043 95.194 323.24 94.0634 323.24ZM94.0634 321.208C94.682 321.208 95.21 321.096 95.6474 320.872C96.0954 320.648 96.4367 320.333 96.6714 319.928C96.9167 319.512 97.0394 319.021 97.0394 318.456C97.0394 317.88 96.9167 317.389 96.6714 316.984C96.4367 316.568 96.0954 316.248 95.6474 316.024C95.21 315.8 94.682 315.688 94.0634 315.688C93.4554 315.688 92.9274 315.8 92.4794 316.024C92.0314 316.248 91.6847 316.568 91.4394 316.984C91.2047 317.389 91.0874 317.88 91.0874 318.456C91.0874 319.021 91.2047 319.512 91.4394 319.928C91.6847 320.333 92.0314 320.648 92.4794 320.872C92.9274 321.096 93.4554 321.208 94.0634 321.208ZM112.228 319.288C112.122 320.067 111.818 320.755 111.316 321.352C110.826 321.949 110.191 322.413 109.412 322.744C108.634 323.075 107.764 323.24 106.804 323.24C105.716 323.24 104.756 323.043 103.924 322.648C103.103 322.243 102.458 321.677 101.988 320.952C101.53 320.227 101.3 319.395 101.3 318.456C101.3 317.507 101.53 316.675 101.988 315.96C102.458 315.235 103.103 314.669 103.924 314.264C104.756 313.859 105.716 313.656 106.804 313.656C107.764 313.656 108.634 313.827 109.412 314.168C110.191 314.499 110.826 314.963 111.316 315.56C111.818 316.147 112.122 316.835 112.228 317.624H109.556C109.418 317.005 109.098 316.531 108.596 316.2C108.106 315.859 107.508 315.688 106.804 315.688C106.239 315.688 105.743 315.8 105.316 316.024C104.9 316.237 104.58 316.552 104.356 316.968C104.132 317.373 104.02 317.869 104.02 318.456C104.02 319.032 104.132 319.528 104.356 319.944C104.58 320.349 104.9 320.664 105.316 320.888C105.743 321.101 106.239 321.208 106.804 321.208C107.519 321.208 108.122 321.032 108.612 320.68C109.114 320.328 109.428 319.864 109.556 319.288H112.228ZM113.896 323L114.408 318.456L113.896 313.896H120.904C121.779 313.896 122.472 314.104 122.984 314.52C123.496 314.925 123.752 315.48 123.752 316.184C123.752 316.845 123.496 317.384 122.984 317.8C122.472 318.205 121.757 318.445 120.84 318.52L121.032 318.072C122.099 318.104 122.909 318.328 123.464 318.744C124.029 319.149 124.312 319.72 124.312 320.456C124.312 321.245 124.024 321.869 123.448 322.328C122.883 322.776 122.104 323 121.112 323H113.896ZM116.472 322.408L115.448 321.272H120.296C120.755 321.272 121.091 321.181 121.304 321C121.517 320.808 121.624 320.541 121.624 320.2C121.624 319.891 121.507 319.64 121.272 319.448C121.037 319.245 120.653 319.144 120.12 319.144H115.992V317.624H119.768C120.216 317.624 120.541 317.533 120.744 317.352C120.957 317.171 121.064 316.925 121.064 316.616C121.064 316.328 120.968 316.093 120.776 315.912C120.595 315.731 120.296 315.64 119.88 315.64H115.464L116.472 314.504L116.968 318.456L116.472 322.408ZM126.319 313.8L127.647 314.056L128.991 313.8V323H126.319V313.8ZM127.647 312.856C127.167 312.856 126.772 312.733 126.463 312.488C126.164 312.232 126.015 311.896 126.015 311.48C126.015 311.053 126.164 310.717 126.463 310.472C126.772 310.216 127.167 310.088 127.647 310.088C128.137 310.088 128.532 310.216 128.831 310.472C129.129 310.717 129.279 311.053 129.279 311.48C129.279 311.896 129.129 312.232 128.831 312.488C128.532 312.733 128.137 312.856 127.647 312.856ZM143.854 320.984V325.24H141.534V323H133.022V325.24H130.702V320.984H133.246L133.838 321.032H140.462L140.99 320.984H143.854ZM132.67 313.896H142.174V322.392H139.502V314.664L140.734 315.896H133.998L135.07 314.936C135.166 315.395 135.225 315.832 135.246 316.248C135.267 316.653 135.278 317.032 135.278 317.384C135.278 318.899 135.049 320.083 134.59 320.936C134.131 321.779 133.486 322.2 132.654 322.2L131.566 321.288C132.419 320.669 132.846 319.192 132.846 316.856C132.846 316.397 132.83 315.923 132.798 315.432C132.766 314.931 132.723 314.419 132.67 313.896ZM147.219 323.144C146.771 323.144 146.398 323 146.099 322.712C145.811 322.424 145.667 322.061 145.667 321.624C145.667 321.187 145.811 320.824 146.099 320.536C146.398 320.248 146.771 320.104 147.219 320.104C147.678 320.104 148.051 320.248 148.339 320.536C148.638 320.824 148.787 321.187 148.787 321.624C148.787 322.061 148.638 322.424 148.339 322.712C148.051 323 147.678 323.144 147.219 323.144ZM147.219 317.48C146.771 317.48 146.398 317.336 146.099 317.048C145.811 316.76 145.667 316.397 145.667 315.96C145.667 315.523 145.811 315.16 146.099 314.872C146.398 314.584 146.771 314.44 147.219 314.44C147.678 314.44 148.051 314.584 148.339 314.872C148.638 315.16 148.787 315.523 148.787 315.96C148.787 316.397 148.638 316.76 148.339 317.048C148.051 317.336 147.678 317.48 147.219 317.48Z" fill="white"/>
<path d="M291.752 315.456C292.648 315.573 293.384 315.92 293.96 316.496C294.547 317.061 294.84 317.813 294.84 318.752C294.84 319.819 294.472 320.661 293.736 321.28C293.011 321.888 292.125 322.192 291.08 322.192C290.248 322.192 289.507 322 288.856 321.616C288.205 321.232 287.747 320.683 287.48 319.968L288.408 319.424C288.589 319.979 288.915 320.4 289.384 320.688C289.853 320.965 290.419 321.104 291.08 321.104C291.848 321.104 292.477 320.901 292.968 320.496C293.469 320.08 293.72 319.499 293.72 318.752C293.72 318.005 293.469 317.429 292.968 317.024C292.477 316.608 291.848 316.4 291.08 316.4V316.384L291.064 316.4H290.76L290.28 315.664L293.064 311.856H287.8V310.8H294.36V311.856L291.752 315.456ZM303.644 315.888V316.912H300.796V319.76H299.772V316.912H296.924V315.888H299.772V313.04H300.796V315.888H303.644ZM314.973 313.808C316.114 313.808 317.085 314.213 317.885 315.024C318.696 315.835 319.101 316.827 319.101 318C319.101 319.173 318.696 320.165 317.885 320.976C317.085 321.787 316.114 322.192 314.973 322.192C313.554 322.192 312.477 321.605 311.741 320.432V325.2H310.685V314H311.741V315.568C312.477 314.395 313.554 313.808 314.973 313.808ZM312.653 320.256C313.261 320.864 314.008 321.168 314.893 321.168C315.778 321.168 316.525 320.864 317.133 320.256C317.741 319.637 318.045 318.885 318.045 318C318.045 317.115 317.741 316.368 317.133 315.76C316.525 315.141 315.778 314.832 314.893 314.832C314.008 314.832 313.261 315.141 312.653 315.76C312.045 316.368 311.741 317.115 311.741 318C311.741 318.885 312.045 319.637 312.653 320.256ZM328.041 320.992C327.23 321.792 326.238 322.192 325.065 322.192C323.892 322.192 322.894 321.792 322.073 320.992C321.262 320.181 320.857 319.184 320.857 318C320.857 316.816 321.262 315.824 322.073 315.024C322.894 314.213 323.892 313.808 325.065 313.808C326.238 313.808 327.23 314.213 328.041 315.024C328.862 315.824 329.273 316.816 329.273 318C329.273 319.184 328.862 320.181 328.041 320.992ZM322.825 320.256C323.433 320.864 324.18 321.168 325.065 321.168C325.95 321.168 326.697 320.864 327.305 320.256C327.913 319.637 328.217 318.885 328.217 318C328.217 317.115 327.913 316.368 327.305 315.76C326.697 315.141 325.95 314.832 325.065 314.832C324.18 314.832 323.433 315.141 322.825 315.76C322.217 316.368 321.913 317.115 321.913 318C321.913 318.885 322.217 319.637 322.825 320.256ZM337.984 322H336.576L332.576 318.144V322H331.52V314H332.576V317.536L336.384 314H337.824L333.696 317.84L337.984 322ZM345.73 314H346.626V322H345.57V315.84L340.802 322H339.906V314H340.962V320.16L345.73 314Z" fill="white"/>
<path d="M75.048 359L77.112 355.432H77.144L82.008 347H84.952L77.992 359H75.048ZM77.112 357.256L71.128 347H74.12L78.984 355.368L77.112 357.256ZM85.8529 349.896H95.2609V359H92.5889V350.696L93.8209 351.912H87.1809L88.3329 350.92C88.3862 351.571 88.4289 352.173 88.4609 352.728C88.5035 353.272 88.5249 353.763 88.5249 354.2C88.5249 355.949 88.2635 357.219 87.7409 358.008C87.2289 358.797 86.3969 359.192 85.2449 359.192C84.9249 359.192 84.6155 359.155 84.3169 359.08C84.0289 359.016 83.7462 358.904 83.4689 358.744V356.808C83.6609 356.883 83.8475 356.941 84.0289 356.984C84.2209 357.016 84.3969 357.032 84.5569 357.032C85.1009 357.032 85.4902 356.787 85.7249 356.296C85.9702 355.795 86.0929 354.973 86.0929 353.832C86.0929 353.32 86.0715 352.733 86.0289 352.072C85.9969 351.411 85.9382 350.685 85.8529 349.896ZM107.557 359.24C106.437 359.24 105.456 359.043 104.613 358.648C103.771 358.243 103.115 357.683 102.645 356.968C102.187 356.243 101.957 355.405 101.957 354.456C101.957 353.496 102.187 352.659 102.645 351.944C103.115 351.219 103.771 350.659 104.613 350.264C105.456 349.859 106.437 349.656 107.557 349.656C108.677 349.656 109.659 349.859 110.501 350.264C111.344 350.659 112 351.219 112.469 351.944C112.939 352.659 113.173 353.496 113.173 354.456C113.173 355.405 112.939 356.243 112.469 356.968C112 357.683 111.344 358.243 110.501 358.648C109.659 359.043 108.677 359.24 107.557 359.24ZM97.7492 359V349.896H100.421V359H97.7492ZM99.2532 355.368V353.368H103.653V355.368H99.2532ZM107.557 357.208C108.165 357.208 108.683 357.096 109.109 356.872C109.547 356.648 109.883 356.333 110.117 355.928C110.352 355.512 110.469 355.021 110.469 354.456C110.469 353.88 110.352 353.389 110.117 352.984C109.883 352.568 109.547 352.248 109.109 352.024C108.683 351.8 108.165 351.688 107.557 351.688C106.96 351.688 106.443 351.8 106.005 352.024C105.568 352.248 105.232 352.568 104.997 352.984C104.763 353.389 104.645 353.88 104.645 354.456C104.645 355.021 104.763 355.512 104.997 355.928C105.232 356.333 105.568 356.648 106.005 356.872C106.443 357.096 106.96 357.208 107.557 357.208ZM120.782 359.24C119.534 359.24 118.467 359.005 117.582 358.536C116.697 358.056 116.019 357.368 115.55 356.472C115.081 355.576 114.846 354.493 114.846 353.224C114.846 351.336 115.353 349.848 116.366 348.76C117.379 347.672 118.83 347.048 120.718 346.888C121.486 346.824 122.121 346.771 122.622 346.728C123.123 346.685 123.534 346.643 123.854 346.6C124.185 346.547 124.462 346.493 124.686 346.44C124.91 346.376 125.129 346.307 125.342 346.232V348.456C125.118 348.541 124.83 348.621 124.478 348.696C124.137 348.76 123.699 348.813 123.166 348.856C122.643 348.899 121.998 348.941 121.23 348.984C119.833 349.048 118.793 349.432 118.11 350.136C117.427 350.84 117.086 351.853 117.086 353.176V353.608L116.99 353.416C117.203 352.84 117.529 352.344 117.966 351.928C118.403 351.512 118.926 351.197 119.534 350.984C120.153 350.76 120.819 350.648 121.534 350.648C122.462 350.648 123.273 350.824 123.966 351.176C124.659 351.517 125.198 352.003 125.582 352.632C125.977 353.261 126.174 353.997 126.174 354.84C126.174 355.725 125.95 356.499 125.502 357.16C125.054 357.821 124.425 358.333 123.614 358.696C122.814 359.059 121.87 359.24 120.782 359.24ZM120.846 357.208C121.379 357.208 121.843 357.112 122.238 356.92C122.633 356.728 122.937 356.456 123.15 356.104C123.363 355.752 123.47 355.341 123.47 354.872C123.47 354.403 123.363 353.997 123.15 353.656C122.937 353.304 122.633 353.032 122.238 352.84C121.843 352.648 121.379 352.552 120.846 352.552C120.11 352.552 119.459 352.749 118.894 353.144C118.329 353.528 117.902 354.067 117.614 354.76C117.785 355.507 118.158 356.104 118.734 356.552C119.321 356.989 120.025 357.208 120.846 357.208ZM129.558 349.896H138.966V359H136.294V350.696L137.526 351.912H130.886L132.038 350.92C132.092 351.571 132.134 352.173 132.166 352.728C132.209 353.272 132.23 353.763 132.23 354.2C132.23 355.949 131.969 357.219 131.446 358.008C130.934 358.797 130.102 359.192 128.95 359.192C128.63 359.192 128.321 359.155 128.022 359.08C127.734 359.016 127.452 358.904 127.174 358.744V356.808C127.366 356.883 127.553 356.941 127.734 356.984C127.926 357.016 128.102 357.032 128.262 357.032C128.806 357.032 129.196 356.787 129.43 356.296C129.676 355.795 129.798 354.973 129.798 353.832C129.798 353.32 129.777 352.733 129.734 352.072C129.702 351.411 129.644 350.685 129.558 349.896ZM146.591 359.24C145.514 359.24 144.548 359.043 143.695 358.648C142.852 358.243 142.186 357.677 141.695 356.952C141.215 356.227 140.975 355.384 140.975 354.424C140.975 353.475 141.204 352.643 141.663 351.928C142.132 351.213 142.772 350.659 143.583 350.264C144.394 349.859 145.316 349.656 146.351 349.656C147.407 349.656 148.314 349.891 149.071 350.36C149.828 350.819 150.41 351.469 150.815 352.312C151.231 353.155 151.439 354.147 151.439 355.288H143.119V353.512H149.999L148.959 354.152C148.916 353.619 148.783 353.165 148.559 352.792C148.346 352.419 148.052 352.131 147.679 351.928C147.306 351.725 146.868 351.624 146.367 351.624C145.823 351.624 145.348 351.736 144.943 351.96C144.548 352.173 144.239 352.477 144.015 352.872C143.802 353.256 143.695 353.709 143.695 354.232C143.695 354.861 143.834 355.4 144.111 355.848C144.388 356.296 144.794 356.637 145.327 356.872C145.86 357.107 146.506 357.224 147.263 357.224C147.946 357.224 148.634 357.128 149.327 356.936C150.02 356.733 150.644 356.451 151.199 356.088V357.88C150.602 358.307 149.903 358.643 149.103 358.888C148.314 359.123 147.476 359.24 146.591 359.24ZM153.482 349.896H156.138V359H153.482V349.896ZM161.114 349.896H163.77V359H161.114V349.896ZM155.002 353.352H162.154V355.368H155.002V353.352ZM166.259 359V349.896H168.883V357.592L168.227 357.416L173.715 349.896H177.155V359H174.531V351.16L175.187 351.352L169.603 359H166.259ZM179.645 359V349.896H182.269V357.592L181.613 357.416L187.101 349.896H190.541V359H187.917V351.16L188.573 351.352L182.989 359H179.645ZM185.021 349.064C183.986 349.064 183.154 348.813 182.525 348.312C181.896 347.8 181.506 347.059 181.357 346.088H183.453C183.528 346.547 183.698 346.899 183.965 347.144C184.242 347.379 184.594 347.496 185.021 347.496C185.448 347.496 185.794 347.379 186.061 347.144C186.328 346.899 186.504 346.547 186.589 346.088H188.669C188.53 347.059 188.141 347.8 187.501 348.312C186.872 348.813 186.045 349.064 185.021 349.064ZM205.157 349.896V351.944H199.045L200.277 350.728V359H197.605V349.896H205.157ZM209.426 361.88C208.829 361.88 208.29 361.805 207.81 361.656C207.33 361.507 206.877 361.288 206.45 361V359.08C206.898 359.368 207.325 359.576 207.73 359.704C208.136 359.832 208.584 359.896 209.074 359.896C209.512 359.896 209.901 359.795 210.242 359.592C210.584 359.4 210.866 359.053 211.09 358.552L214.882 349.896H217.714L213.17 359.416C212.893 360.013 212.557 360.493 212.162 360.856C211.768 361.219 211.336 361.48 210.866 361.64C210.408 361.8 209.928 361.88 209.426 361.88ZM210.002 358.424L205.986 349.896H208.93L212.61 358.424H210.002ZM219.268 349.896H221.94V352.792L221.828 353.144V355.336L221.94 355.992V361.64H219.268V349.896ZM221.012 354.456C221.193 353.485 221.508 352.643 221.956 351.928C222.415 351.203 222.985 350.643 223.668 350.248C224.361 349.853 225.129 349.656 225.972 349.656C226.868 349.656 227.652 349.859 228.324 350.264C229.007 350.659 229.54 351.219 229.924 351.944C230.308 352.659 230.5 353.496 230.5 354.456C230.5 355.405 230.308 356.243 229.924 356.968C229.54 357.683 229.007 358.243 228.324 358.648C227.652 359.043 226.868 359.24 225.972 359.24C225.119 359.24 224.351 359.043 223.668 358.648C222.996 358.253 222.431 357.699 221.972 356.984C221.513 356.259 221.193 355.416 221.012 354.456ZM227.796 354.456C227.796 353.923 227.684 353.453 227.46 353.048C227.247 352.632 226.948 352.312 226.564 352.088C226.18 351.853 225.737 351.736 225.236 351.736C224.735 351.736 224.26 351.853 223.812 352.088C223.364 352.312 222.969 352.632 222.628 353.048C222.297 353.453 222.036 353.923 221.844 354.456C222.036 354.989 222.297 355.459 222.628 355.864C222.969 356.269 223.364 356.589 223.812 356.824C224.26 357.048 224.735 357.16 225.236 357.16C225.737 357.16 226.18 357.048 226.564 356.824C226.948 356.589 227.247 356.269 227.46 355.864C227.684 355.459 227.796 354.989 227.796 354.456ZM235.049 350.824H237.721V359H235.049V350.824ZM231.433 349.896H241.337V351.944H231.433V349.896ZM244.513 359.144C244.065 359.144 243.691 359 243.393 358.712C243.105 358.424 242.961 358.061 242.961 357.624C242.961 357.187 243.105 356.824 243.393 356.536C243.691 356.248 244.065 356.104 244.513 356.104C244.971 356.104 245.345 356.248 245.633 356.536C245.931 356.824 246.081 357.187 246.081 357.624C246.081 358.061 245.931 358.424 245.633 358.712C245.345 359 244.971 359.144 244.513 359.144ZM244.513 353.48C244.065 353.48 243.691 353.336 243.393 353.048C243.105 352.76 242.961 352.397 242.961 351.96C242.961 351.523 243.105 351.16 243.393 350.872C243.691 350.584 244.065 350.44 244.513 350.44C244.971 350.44 245.345 350.584 245.633 350.872C245.931 351.16 246.081 351.523 246.081 351.96C246.081 352.397 245.931 352.76 245.633 353.048C245.345 353.336 244.971 353.48 244.513 353.48Z" fill="white"/>
<path d="M297.544 356.512C296.424 357.632 295.053 358.192 293.432 358.192C291.811 358.192 290.44 357.632 289.32 356.512C288.2 355.381 287.64 354.011 287.64 352.4C287.64 350.789 288.2 349.424 289.32 348.304C290.44 347.173 291.811 346.608 293.432 346.608C295.053 346.608 296.424 347.173 297.544 348.304C298.664 349.424 299.224 350.789 299.224 352.4C299.224 354.011 298.664 355.381 297.544 356.512ZM290.104 355.744C291 356.651 292.109 357.104 293.432 357.104C294.755 357.104 295.864 356.651 296.76 355.744C297.656 354.827 298.104 353.712 298.104 352.4C298.104 351.088 297.656 349.979 296.76 349.072C295.864 348.155 294.755 347.696 293.432 347.696C292.109 347.696 291 348.155 290.104 349.072C289.208 349.979 288.76 351.088 288.76 352.4C288.76 353.712 289.208 354.827 290.104 355.744ZM308.019 346.8V347.856H304.579V358H303.459V347.856H300.019V346.8H308.019ZM318.723 356.512C317.603 357.632 316.232 358.192 314.611 358.192C312.989 358.192 311.619 357.632 310.499 356.512C309.379 355.381 308.819 354.011 308.819 352.4C308.819 350.789 309.379 349.424 310.499 348.304C311.619 347.173 312.989 346.608 314.611 346.608C316.232 346.608 317.603 347.173 318.723 348.304C319.843 349.424 320.403 350.789 320.403 352.4C320.403 354.011 319.843 355.381 318.723 356.512ZM311.283 355.744C312.179 356.651 313.288 357.104 314.611 357.104C315.933 357.104 317.043 356.651 317.939 355.744C318.835 354.827 319.283 353.712 319.283 352.4C319.283 351.088 318.835 349.979 317.939 349.072C317.043 348.155 315.933 347.696 314.611 347.696C313.288 347.696 312.179 348.155 311.283 349.072C310.387 349.979 309.939 351.088 309.939 352.4C309.939 353.712 310.387 354.827 311.283 355.744ZM330.081 346.8L326.033 353.408V358H324.913V353.376L320.881 346.8H322.145L325.489 352.288L328.817 346.8H330.081Z" fill="white"/>
</svg>
