<svg width="451" height="545" viewBox="0 0 451 545" fill="none" xmlns="http://www.w3.org/2000/svg">
<path d="M2.74361 304.636L45.3732 501.117C50.7889 526.078 74.1471 542.945 99.5446 540.233L395.779 508.604C420.608 505.953 439.674 485.391 440.447 460.433L449.939 153.596C450.055 149.858 449.751 146.118 449.032 142.447L429.436 42.3118C424.678 17.9993 402.834 0.83678 378.086 1.96674L251.846 7.73074L121.647 1.80715C98.3968 0.749369 77.4916 15.8733 71.2224 38.287L3.4549 280.566C1.26042 288.412 1.01624 296.675 2.74361 304.636Z" fill="#C0B7EE"/>
<path d="M53.3453 162V150H56.0493V159.792L55.2813 159.248L62.7053 150H65.6013L55.7933 162H53.3453ZM59.0733 156.128L61.0253 154.384L65.7773 162H62.6733L59.0733 156.128ZM67.2107 152.8L68.5387 153.056L69.8827 152.8V162H67.2107V152.8ZM68.5387 151.856C68.0587 151.856 67.664 151.734 67.3547 151.488C67.056 151.232 66.9067 150.896 66.9067 150.48C66.9067 150.054 67.056 149.718 67.3547 149.472C67.664 149.216 68.0587 149.088 68.5387 149.088C69.0293 149.088 69.424 149.216 69.7227 149.472C70.0213 149.718 70.1707 150.054 70.1707 150.48C70.1707 150.896 70.0213 151.232 69.7227 151.488C69.424 151.734 69.0293 151.856 68.5387 151.856ZM73.9462 152.896H83.3542V162H80.6822V153.696L81.9142 154.912H75.2742L76.4262 153.92C76.4795 154.571 76.5222 155.174 76.5542 155.728C76.5968 156.272 76.6182 156.763 76.6182 157.2C76.6182 158.95 76.3568 160.219 75.8342 161.008C75.3222 161.798 74.4902 162.192 73.3382 162.192C73.0182 162.192 72.7088 162.155 72.4102 162.08C72.1222 162.016 71.8395 161.904 71.5622 161.744V159.808C71.7542 159.883 71.9408 159.942 72.1222 159.984C72.3142 160.016 72.4902 160.032 72.6502 160.032C73.1942 160.032 73.5835 159.787 73.8182 159.296C74.0635 158.795 74.1862 157.974 74.1862 156.832C74.1862 156.32 74.1648 155.734 74.1222 155.072C74.0902 154.411 74.0315 153.686 73.9462 152.896ZM85.8425 162V152.896H88.4985V161.312L87.6345 160.08H91.1865C91.6772 160.08 92.0559 159.963 92.3225 159.728C92.5892 159.483 92.7225 159.152 92.7225 158.736C92.7225 158.299 92.5892 157.963 92.3225 157.728C92.0559 157.483 91.6772 157.36 91.1865 157.36H87.6505V155.52H91.5865C92.3652 155.52 93.0372 155.659 93.6025 155.936C94.1785 156.203 94.6265 156.582 94.9465 157.072C95.2665 157.552 95.4265 158.118 95.4265 158.768C95.4265 159.408 95.2665 159.974 94.9465 160.464C94.6265 160.955 94.1839 161.334 93.6185 161.6C93.0532 161.867 92.3865 162 91.6185 162H85.8425ZM97.2132 162V152.896H99.8852V159.84L99.1012 159.568L104.525 152.896H107.437L99.6132 162H97.2132ZM104.653 162L101.933 157.536L103.901 156.016L107.709 162H104.653ZM109.099 152.8L110.427 153.056L111.771 152.8V162H109.099V152.8ZM110.427 151.856C109.947 151.856 109.553 151.734 109.243 151.488C108.945 151.232 108.795 150.896 108.795 150.48C108.795 150.054 108.945 149.718 109.243 149.472C109.553 149.216 109.947 149.088 110.427 149.088C110.918 149.088 111.313 149.216 111.611 149.472C111.91 149.718 112.059 150.054 112.059 150.48C112.059 150.896 111.91 151.232 111.611 151.488C111.313 151.734 110.918 151.856 110.427 151.856ZM124.715 158.288C124.608 159.067 124.304 159.755 123.803 160.352C123.312 160.95 122.678 161.414 121.899 161.744C121.12 162.075 120.251 162.24 119.291 162.24C118.203 162.24 117.243 162.043 116.411 161.648C115.59 161.243 114.944 160.678 114.475 159.952C114.016 159.227 113.787 158.395 113.787 157.456C113.787 156.507 114.016 155.675 114.475 154.96C114.944 154.235 115.59 153.67 116.411 153.264C117.243 152.859 118.203 152.656 119.291 152.656C120.251 152.656 121.12 152.827 121.899 153.168C122.678 153.499 123.312 153.963 123.803 154.56C124.304 155.147 124.608 155.835 124.715 156.624H122.043C121.904 156.006 121.584 155.531 121.083 155.2C120.592 154.859 119.995 154.688 119.291 154.688C118.726 154.688 118.23 154.8 117.803 155.024C117.387 155.238 117.067 155.552 116.843 155.968C116.619 156.374 116.507 156.87 116.507 157.456C116.507 158.032 116.619 158.528 116.843 158.944C117.067 159.35 117.387 159.664 117.803 159.888C118.23 160.102 118.726 160.208 119.291 160.208C120.006 160.208 120.608 160.032 121.099 159.68C121.6 159.328 121.915 158.864 122.043 158.288H124.715ZM129.126 153.824H131.798V162H129.126V153.824ZM125.51 152.896H135.414V154.944H125.51V152.896ZM137.118 162V152.896H139.774V161.312L138.91 160.08H142.462C142.952 160.08 143.331 159.963 143.598 159.728C143.864 159.483 143.998 159.152 143.998 158.736C143.998 158.299 143.864 157.963 143.598 157.728C143.331 157.483 142.952 157.36 142.462 157.36H138.926V155.52H142.862C143.64 155.52 144.312 155.659 144.878 155.936C145.454 156.203 145.902 156.582 146.222 157.072C146.542 157.552 146.702 158.118 146.702 158.768C146.702 159.408 146.542 159.974 146.222 160.464C145.902 160.955 145.459 161.334 144.894 161.6C144.328 161.867 143.662 162 142.894 162H137.118ZM53.1213 172.896H55.7933V175.792L55.6813 176.144V178.336L55.7933 178.992V184.64H53.1213V172.896ZM54.8653 177.456C55.0466 176.486 55.3613 175.643 55.8093 174.928C56.2679 174.203 56.8386 173.643 57.5213 173.248C58.2146 172.854 58.9826 172.656 59.8253 172.656C60.7213 172.656 61.5053 172.859 62.1773 173.264C62.8599 173.659 63.3933 174.219 63.7773 174.944C64.1613 175.659 64.3533 176.496 64.3533 177.456C64.3533 178.406 64.1613 179.243 63.7773 179.968C63.3933 180.683 62.8599 181.243 62.1773 181.648C61.5053 182.043 60.7213 182.24 59.8253 182.24C58.9719 182.24 58.2039 182.043 57.5213 181.648C56.8493 181.254 56.2839 180.699 55.8253 179.984C55.3666 179.259 55.0466 178.416 54.8653 177.456ZM61.6493 177.456C61.6493 176.923 61.5373 176.454 61.3133 176.048C61.0999 175.632 60.8013 175.312 60.4173 175.088C60.0333 174.854 59.5906 174.736 59.0893 174.736C58.5879 174.736 58.1133 174.854 57.6653 175.088C57.2173 175.312 56.8226 175.632 56.4813 176.048C56.1506 176.454 55.8893 176.923 55.6973 177.456C55.8893 177.99 56.1506 178.459 56.4813 178.864C56.8226 179.27 57.2173 179.59 57.6653 179.824C58.1133 180.048 58.5879 180.16 59.0893 180.16C59.5906 180.16 60.0333 180.048 60.4173 179.824C60.8013 179.59 61.0999 179.27 61.3133 178.864C61.5373 178.459 61.6493 177.99 61.6493 177.456ZM71.5342 182.24C70.4568 182.24 69.4915 182.043 68.6382 181.648C67.7955 181.243 67.1288 180.678 66.6382 179.952C66.1582 179.227 65.9182 178.384 65.9182 177.424C65.9182 176.475 66.1475 175.643 66.6062 174.928C67.0755 174.214 67.7155 173.659 68.5262 173.264C69.3368 172.859 70.2595 172.656 71.2942 172.656C72.3502 172.656 73.2568 172.891 74.0142 173.36C74.7715 173.819 75.3528 174.47 75.7582 175.312C76.1742 176.155 76.3822 177.147 76.3822 178.288H68.0622V176.512H74.9422L73.9022 177.152C73.8595 176.619 73.7262 176.166 73.5022 175.792C73.2888 175.419 72.9955 175.131 72.6222 174.928C72.2488 174.726 71.8115 174.624 71.3102 174.624C70.7662 174.624 70.2915 174.736 69.8862 174.96C69.4915 175.174 69.1822 175.478 68.9582 175.872C68.7448 176.256 68.6382 176.71 68.6382 177.232C68.6382 177.862 68.7768 178.4 69.0542 178.848C69.3315 179.296 69.7368 179.638 70.2702 179.872C70.8035 180.107 71.4488 180.224 72.2062 180.224C72.8888 180.224 73.5768 180.128 74.2702 179.936C74.9635 179.734 75.5875 179.451 76.1422 179.088V180.88C75.5448 181.307 74.8462 181.643 74.0462 181.888C73.2568 182.123 72.4195 182.24 71.5342 182.24ZM86.761 182L86.377 178.672L86.809 177.456L86.377 176.256L86.761 172.896H89.529L89.001 177.456L89.529 182H86.761ZM87.465 177.456C87.2944 178.416 86.9797 179.259 86.521 179.984C86.073 180.699 85.5024 181.254 84.809 181.648C84.1264 182.043 83.3584 182.24 82.505 182.24C81.6197 182.24 80.8357 182.043 80.153 181.648C79.4704 181.243 78.937 180.683 78.553 179.968C78.1797 179.243 77.993 178.406 77.993 177.456C77.993 176.496 78.1797 175.659 78.553 174.944C78.937 174.219 79.4704 173.659 80.153 173.264C80.8357 172.859 81.6197 172.656 82.505 172.656C83.3584 172.656 84.1264 172.854 84.809 173.248C85.5024 173.643 86.0784 174.203 86.537 174.928C86.9957 175.643 87.305 176.486 87.465 177.456ZM80.697 177.456C80.697 177.99 80.8037 178.459 81.017 178.864C81.241 179.27 81.545 179.59 81.929 179.824C82.313 180.048 82.7557 180.16 83.257 180.16C83.7584 180.16 84.2277 180.048 84.665 179.824C85.113 179.59 85.5077 179.27 85.849 178.864C86.1904 178.459 86.457 177.99 86.649 177.456C86.457 176.923 86.1904 176.454 85.849 176.048C85.5077 175.632 85.113 175.312 84.665 175.088C84.2277 174.854 83.7584 174.736 83.257 174.736C82.7557 174.736 82.313 174.854 81.929 175.088C81.545 175.312 81.241 175.632 81.017 176.048C80.8037 176.454 80.697 176.923 80.697 177.456ZM93.3637 172.896H102.772V182H100.1V173.696L101.332 174.912H94.6917L95.8437 173.92C95.897 174.571 95.9397 175.174 95.9717 175.728C96.0143 176.272 96.0357 176.763 96.0357 177.2C96.0357 178.95 95.7743 180.219 95.2517 181.008C94.7397 181.798 93.9077 182.192 92.7557 182.192C92.4357 182.192 92.1263 182.155 91.8277 182.08C91.5397 182.016 91.257 181.904 90.9797 181.744V179.808C91.1717 179.883 91.3583 179.942 91.5397 179.984C91.7317 180.016 91.9077 180.032 92.0677 180.032C92.6117 180.032 93.001 179.787 93.2357 179.296C93.481 178.795 93.6037 177.974 93.6037 176.832C93.6037 176.32 93.5823 175.734 93.5397 175.072C93.5077 174.411 93.449 173.686 93.3637 172.896ZM105.26 172.8L106.588 173.056L107.932 172.8V182H105.26V172.8ZM106.588 171.856C106.108 171.856 105.713 171.734 105.404 171.488C105.105 171.232 104.956 170.896 104.956 170.48C104.956 170.054 105.105 169.718 105.404 169.472C105.713 169.216 106.108 169.088 106.588 169.088C107.079 169.088 107.473 169.216 107.772 169.472C108.071 169.718 108.22 170.054 108.22 170.48C108.22 170.896 108.071 171.232 107.772 171.488C107.473 171.734 107.079 171.856 106.588 171.856ZM114.924 182.24C113.91 182.24 113.025 182.112 112.268 181.856C111.51 181.59 110.918 181.211 110.492 180.72C110.065 180.219 109.83 179.632 109.788 178.96H112.38C112.454 179.408 112.71 179.75 113.148 179.984C113.585 180.219 114.177 180.336 114.924 180.336C115.638 180.336 116.193 180.246 116.588 180.064C116.993 179.872 117.196 179.579 117.196 179.184C117.196 178.864 117.025 178.63 116.684 178.48C116.353 178.32 115.82 178.24 115.084 178.24H113.388V176.64H115.036C115.697 176.64 116.182 176.544 116.492 176.352C116.812 176.16 116.972 175.92 116.972 175.632C116.972 175.28 116.785 175.014 116.412 174.832C116.049 174.651 115.558 174.56 114.94 174.56C114.257 174.56 113.708 174.667 113.292 174.88C112.876 175.094 112.63 175.414 112.556 175.84H109.98C110.022 175.254 110.246 174.72 110.652 174.24C111.057 173.76 111.628 173.376 112.364 173.088C113.11 172.8 114.006 172.656 115.052 172.656C115.98 172.656 116.79 172.768 117.484 172.992C118.177 173.216 118.716 173.526 119.1 173.92C119.484 174.315 119.676 174.768 119.676 175.28C119.676 175.686 119.548 176.059 119.292 176.4C119.046 176.742 118.646 177.014 118.092 177.216C117.548 177.419 116.833 177.52 115.948 177.52V177.248C117.217 177.195 118.193 177.35 118.876 177.712C119.569 178.075 119.916 178.63 119.916 179.376C119.916 179.92 119.718 180.411 119.324 180.848C118.94 181.286 118.374 181.627 117.628 181.872C116.881 182.118 115.98 182.24 114.924 182.24ZM127.186 182.24C126.055 182.24 125.063 182.043 124.21 181.648C123.357 181.243 122.69 180.683 122.21 179.968C121.73 179.243 121.49 178.406 121.49 177.456C121.49 176.496 121.73 175.659 122.21 174.944C122.69 174.219 123.357 173.659 124.21 173.264C125.063 172.859 126.055 172.656 127.186 172.656C128.317 172.656 129.309 172.859 130.162 173.264C131.015 173.659 131.677 174.219 132.146 174.944C132.626 175.659 132.866 176.496 132.866 177.456C132.866 178.406 132.626 179.243 132.146 179.968C131.677 180.683 131.015 181.243 130.162 181.648C129.309 182.043 128.317 182.24 127.186 182.24ZM127.186 180.208C127.805 180.208 128.333 180.096 128.77 179.872C129.218 179.648 129.559 179.334 129.794 178.928C130.039 178.512 130.162 178.022 130.162 177.456C130.162 176.88 130.039 176.39 129.794 175.984C129.559 175.568 129.218 175.248 128.77 175.024C128.333 174.8 127.805 174.688 127.186 174.688C126.578 174.688 126.05 174.8 125.602 175.024C125.154 175.248 124.807 175.568 124.562 175.984C124.327 176.39 124.21 176.88 124.21 177.456C124.21 178.022 124.327 178.512 124.562 178.928C124.807 179.334 125.154 179.648 125.602 179.872C126.05 180.096 126.578 180.208 127.186 180.208ZM134.648 182L135.16 177.456L134.648 172.896H141.656C142.531 172.896 143.224 173.104 143.736 173.52C144.248 173.926 144.504 174.48 144.504 175.184C144.504 175.846 144.248 176.384 143.736 176.8C143.224 177.206 142.509 177.446 141.592 177.52L141.784 177.072C142.851 177.104 143.661 177.328 144.216 177.744C144.781 178.15 145.064 178.72 145.064 179.456C145.064 180.246 144.776 180.87 144.2 181.328C143.635 181.776 142.856 182 141.864 182H134.648ZM137.224 181.408L136.2 180.272H141.048C141.507 180.272 141.843 180.182 142.056 180C142.269 179.808 142.376 179.542 142.376 179.2C142.376 178.891 142.259 178.64 142.024 178.448C141.789 178.246 141.405 178.144 140.872 178.144H136.744V176.624H140.52C140.968 176.624 141.293 176.534 141.496 176.352C141.709 176.171 141.816 175.926 141.816 175.616C141.816 175.328 141.72 175.094 141.528 174.912C141.347 174.731 141.048 174.64 140.632 174.64H136.216L137.224 173.504L137.72 177.456L137.224 181.408ZM155.407 182L155.023 178.672L155.455 177.456L155.023 176.256L155.407 172.896H158.175L157.647 177.456L158.175 182H155.407ZM156.111 177.456C155.94 178.416 155.625 179.259 155.167 179.984C154.719 180.699 154.148 181.254 153.455 181.648C152.772 182.043 152.004 182.24 151.151 182.24C150.265 182.24 149.481 182.043 148.799 181.648C148.116 181.243 147.583 180.683 147.199 179.968C146.825 179.243 146.639 178.406 146.639 177.456C146.639 176.496 146.825 175.659 147.199 174.944C147.583 174.219 148.116 173.659 148.799 173.264C149.481 172.859 150.265 172.656 151.151 172.656C152.004 172.656 152.772 172.854 153.455 173.248C154.148 173.643 154.724 174.203 155.183 174.928C155.641 175.643 155.951 176.486 156.111 177.456ZM149.343 177.456C149.343 177.99 149.449 178.459 149.663 178.864C149.887 179.27 150.191 179.59 150.575 179.824C150.959 180.048 151.401 180.16 151.903 180.16C152.404 180.16 152.873 180.048 153.311 179.824C153.759 179.59 154.153 179.27 154.495 178.864C154.836 178.459 155.103 177.99 155.295 177.456C155.103 176.923 154.836 176.454 154.495 176.048C154.153 175.632 153.759 175.312 153.311 175.088C152.873 174.854 152.404 174.736 151.903 174.736C151.401 174.736 150.959 174.854 150.575 175.088C150.191 175.312 149.887 175.632 149.663 176.048C149.449 176.454 149.343 176.923 149.343 177.456ZM160.441 172.896H163.097V182H160.441V172.896ZM168.073 172.896H170.729V182H168.073V172.896ZM161.961 176.352H169.113V178.368H161.961V176.352ZM173.218 182V172.896H175.842V180.592L175.186 180.416L180.674 172.896H184.114V182H181.49V174.16L182.146 174.352L176.562 182H173.218ZM185.452 182L189.756 176.848L189.74 177.84L185.708 172.896H188.7L191.548 176.32H190.62L193.484 172.896H196.428L192.268 177.888L192.14 176.64L196.668 182H193.628L190.524 178.32H191.5L188.428 182H185.452ZM63.3453 192.896V202H60.6733V193.696L61.9053 194.912H54.5613L55.7933 193.696V202H53.1213V192.896H63.3453ZM65.8357 192.896H68.5077V195.792L68.3957 196.144V198.336L68.5077 198.992V204.64H65.8357V192.896ZM67.5797 197.456C67.761 196.486 68.0757 195.643 68.5237 194.928C68.9823 194.203 69.553 193.643 70.2357 193.248C70.929 192.854 71.697 192.656 72.5397 192.656C73.4357 192.656 74.2197 192.859 74.8917 193.264C75.5743 193.659 76.1077 194.219 76.4917 194.944C76.8757 195.659 77.0677 196.496 77.0677 197.456C77.0677 198.406 76.8757 199.243 76.4917 199.968C76.1077 200.683 75.5743 201.243 74.8917 201.648C74.2197 202.043 73.4357 202.24 72.5397 202.24C71.6863 202.24 70.9183 202.043 70.2357 201.648C69.5637 201.254 68.9983 200.699 68.5397 199.984C68.081 199.259 67.761 198.416 67.5797 197.456ZM74.3637 197.456C74.3637 196.923 74.2517 196.454 74.0277 196.048C73.8143 195.632 73.5157 195.312 73.1317 195.088C72.7477 194.854 72.305 194.736 71.8037 194.736C71.3023 194.736 70.8277 194.854 70.3797 195.088C69.9317 195.312 69.537 195.632 69.1957 196.048C68.865 196.454 68.6037 196.923 68.4117 197.456C68.6037 197.99 68.865 198.459 69.1957 198.864C69.537 199.27 69.9317 199.59 70.3797 199.824C70.8277 200.048 71.3023 200.16 71.8037 200.16C72.305 200.16 72.7477 200.048 73.1317 199.824C73.5157 199.59 73.8143 199.27 74.0277 198.864C74.2517 198.459 74.3637 197.99 74.3637 197.456ZM84.3285 202.24C83.1979 202.24 82.2059 202.043 81.3525 201.648C80.4992 201.243 79.8325 200.683 79.3525 199.968C78.8725 199.243 78.6325 198.406 78.6325 197.456C78.6325 196.496 78.8725 195.659 79.3525 194.944C79.8325 194.219 80.4992 193.659 81.3525 193.264C82.2059 192.859 83.1979 192.656 84.3285 192.656C85.4592 192.656 86.4512 192.859 87.3045 193.264C88.1579 193.659 88.8192 194.219 89.2885 194.944C89.7685 195.659 90.0085 196.496 90.0085 197.456C90.0085 198.406 89.7685 199.243 89.2885 199.968C88.8192 200.683 88.1579 201.243 87.3045 201.648C86.4512 202.043 85.4592 202.24 84.3285 202.24ZM84.3285 200.208C84.9472 200.208 85.4752 200.096 85.9125 199.872C86.3605 199.648 86.7019 199.334 86.9365 198.928C87.1819 198.512 87.3045 198.022 87.3045 197.456C87.3045 196.88 87.1819 196.39 86.9365 195.984C86.7019 195.568 86.3605 195.248 85.9125 195.024C85.4752 194.8 84.9472 194.688 84.3285 194.688C83.7205 194.688 83.1925 194.8 82.7445 195.024C82.2965 195.248 81.9499 195.568 81.7045 195.984C81.4699 196.39 81.3525 196.88 81.3525 197.456C81.3525 198.022 81.4699 198.512 81.7045 198.928C81.9499 199.334 82.2965 199.648 82.7445 199.872C83.1925 200.096 83.7205 200.208 84.3285 200.208ZM97.1817 202.24C96.1043 202.24 95.139 202.043 94.2857 201.648C93.443 201.243 92.7763 200.678 92.2857 199.952C91.8057 199.227 91.5657 198.384 91.5657 197.424C91.5657 196.475 91.795 195.643 92.2537 194.928C92.723 194.214 93.363 193.659 94.1737 193.264C94.9843 192.859 95.907 192.656 96.9417 192.656C97.9977 192.656 98.9043 192.891 99.6617 193.36C100.419 193.819 101 194.47 101.406 195.312C101.822 196.155 102.03 197.147 102.03 198.288H93.7097V196.512H100.59L99.5497 197.152C99.507 196.619 99.3737 196.166 99.1497 195.792C98.9363 195.419 98.643 195.131 98.2697 194.928C97.8963 194.726 97.459 194.624 96.9577 194.624C96.4137 194.624 95.939 194.736 95.5337 194.96C95.139 195.174 94.8297 195.478 94.6057 195.872C94.3923 196.256 94.2857 196.71 94.2857 197.232C94.2857 197.862 94.4243 198.4 94.7017 198.848C94.979 199.296 95.3843 199.638 95.9177 199.872C96.451 200.107 97.0963 200.224 97.8537 200.224C98.5363 200.224 99.2243 200.128 99.9177 199.936C100.611 199.734 101.235 199.451 101.79 199.088V200.88C101.192 201.307 100.494 201.643 99.6937 201.888C98.9043 202.123 98.067 202.24 97.1817 202.24ZM104.073 202V192.896H106.745V199.84L105.961 199.568L111.385 192.896H114.297L106.473 202H104.073ZM111.513 202L108.793 197.536L110.761 196.016L114.569 202H111.513ZM118.791 193.824H121.463V202H118.791V193.824ZM115.175 192.896H125.079V194.944H115.175V192.896ZM126.783 192.8L128.111 193.056L129.455 192.8V202H126.783V192.8ZM128.111 191.856C127.631 191.856 127.236 191.734 126.927 191.488C126.628 191.232 126.479 190.896 126.479 190.48C126.479 190.054 126.628 189.718 126.927 189.472C127.236 189.216 127.631 189.088 128.111 189.088C128.601 189.088 128.996 189.216 129.295 189.472C129.593 189.718 129.743 190.054 129.743 190.48C129.743 190.896 129.593 191.232 129.295 191.488C128.996 191.734 128.601 191.856 128.111 191.856ZM131.726 202L132.238 197.456L131.726 192.896H138.734C139.609 192.896 140.302 193.104 140.814 193.52C141.326 193.926 141.582 194.48 141.582 195.184C141.582 195.846 141.326 196.384 140.814 196.8C140.302 197.206 139.587 197.446 138.67 197.52L138.862 197.072C139.929 197.104 140.739 197.328 141.294 197.744C141.859 198.15 142.142 198.72 142.142 199.456C142.142 200.246 141.854 200.87 141.278 201.328C140.713 201.776 139.934 202 138.942 202H131.726ZM134.302 201.408L133.278 200.272H138.126C138.585 200.272 138.921 200.182 139.134 200C139.347 199.808 139.454 199.542 139.454 199.2C139.454 198.891 139.337 198.64 139.102 198.448C138.867 198.246 138.483 198.144 137.95 198.144H133.822V196.624H137.598C138.046 196.624 138.371 196.534 138.574 196.352C138.787 196.171 138.894 195.926 138.894 195.616C138.894 195.328 138.798 195.094 138.606 194.912C138.425 194.731 138.126 194.64 137.71 194.64H133.294L134.302 193.504L134.798 197.456L134.302 201.408ZM52.8973 222L53.4093 217.456L52.8973 212.896H59.9053C60.7799 212.896 61.4733 213.104 61.9853 213.52C62.4973 213.926 62.7533 214.48 62.7533 215.184C62.7533 215.846 62.4973 216.384 61.9853 216.8C61.4733 217.206 60.7586 217.446 59.8413 217.52L60.0333 217.072C61.0999 217.104 61.9106 217.328 62.4653 217.744C63.0306 218.15 63.3133 218.72 63.3133 219.456C63.3133 220.246 63.0253 220.87 62.4493 221.328C61.8839 221.776 61.1053 222 60.1133 222H52.8973ZM55.4733 221.408L54.4493 220.272H59.2973C59.7559 220.272 60.0919 220.182 60.3053 220C60.5186 219.808 60.6253 219.542 60.6253 219.2C60.6253 218.891 60.5079 218.64 60.2733 218.448C60.0386 218.246 59.6546 218.144 59.1213 218.144H54.9933V216.624H58.7693C59.2173 216.624 59.5426 216.534 59.7453 216.352C59.9586 216.171 60.0653 215.926 60.0653 215.616C60.0653 215.328 59.9693 215.094 59.7773 214.912C59.5959 214.731 59.2973 214.64 58.8813 214.64H54.4653L55.4733 213.504L55.9693 217.456L55.4733 221.408ZM69.4778 218.08H72.2298C72.2938 218.486 72.4698 218.843 72.7578 219.152C73.0564 219.451 73.4511 219.686 73.9418 219.856C74.4431 220.016 75.0191 220.096 75.6698 220.096C76.6191 220.096 77.3658 219.963 77.9098 219.696C78.4644 219.419 78.7418 219.035 78.7418 218.544C78.7418 218.16 78.5818 217.867 78.2618 217.664C77.9524 217.451 77.3711 217.296 76.5178 217.2L74.1018 216.928C72.5444 216.758 71.4138 216.395 70.7098 215.84C70.0164 215.275 69.6698 214.491 69.6698 213.488C69.6698 212.699 69.8991 212.027 70.3578 211.472C70.8271 210.918 71.4831 210.496 72.3258 210.208C73.1684 209.91 74.1604 209.76 75.3018 209.76C76.4111 209.76 77.3978 209.926 78.2618 210.256C79.1258 210.576 79.8138 211.03 80.3258 211.616C80.8378 212.192 81.1151 212.87 81.1578 213.648H78.4058C78.3524 213.296 78.1924 212.992 77.9258 212.736C77.6698 212.47 77.3124 212.267 76.8538 212.128C76.3951 211.979 75.8564 211.904 75.2378 211.904C74.3738 211.904 73.6858 212.032 73.1738 212.288C72.6618 212.544 72.4058 212.907 72.4058 213.376C72.4058 213.739 72.5551 214.022 72.8538 214.224C73.1631 214.416 73.7018 214.56 74.4698 214.656L76.9818 214.96C78.0911 215.078 78.9711 215.27 79.6218 215.536C80.2831 215.792 80.7524 216.139 81.0298 216.576C81.3178 217.014 81.4618 217.568 81.4618 218.24C81.4618 219.04 81.2164 219.744 80.7258 220.352C80.2458 220.95 79.5684 221.414 78.6938 221.744C77.8191 222.075 76.7951 222.24 75.6218 222.24C74.4271 222.24 73.3764 222.07 72.4698 221.728C71.5631 221.376 70.8484 220.891 70.3258 220.272C69.8031 219.643 69.5204 218.912 69.4778 218.08ZM87.3704 222.24C86.5277 222.24 85.8077 222.07 85.2104 221.728C84.6237 221.376 84.1704 220.88 83.8504 220.24C83.5411 219.6 83.3864 218.843 83.3864 217.968V212.896H86.0584V217.568C86.0584 218.379 86.2504 218.998 86.6344 219.424C87.0184 219.84 87.5624 220.048 88.2664 220.048C88.7891 220.048 89.2317 219.942 89.5944 219.728C89.9677 219.504 90.2557 219.184 90.4584 218.768C90.6611 218.352 90.7624 217.867 90.7624 217.312L91.6264 217.776C91.5197 218.715 91.2691 219.52 90.8744 220.192C90.4797 220.854 89.9784 221.36 89.3704 221.712C88.7731 222.064 88.1064 222.24 87.3704 222.24ZM91.3224 222L90.7624 218.544V212.896H93.4344V218.944L93.9944 222H91.3224ZM96.0569 209.68H98.7289V215.792L98.3609 216.512V218.496L98.7289 219.232V222H96.0569V209.68ZM97.7849 217.456C97.9556 216.486 98.2702 215.643 98.7289 214.928C99.1876 214.203 99.7582 213.643 100.441 213.248C101.124 212.854 101.892 212.656 102.745 212.656C103.63 212.656 104.414 212.859 105.097 213.264C105.78 213.659 106.313 214.219 106.697 214.944C107.081 215.659 107.273 216.496 107.273 217.456C107.273 218.406 107.081 219.243 106.697 219.968C106.313 220.683 105.78 221.243 105.097 221.648C104.414 222.043 103.63 222.24 102.745 222.24C101.892 222.24 101.124 222.043 100.441 221.648C99.7582 221.254 99.1876 220.699 98.7289 219.984C98.2809 219.259 97.9662 218.416 97.7849 217.456ZM104.553 217.456C104.553 216.923 104.441 216.454 104.217 216.048C104.004 215.632 103.705 215.312 103.321 215.088C102.937 214.854 102.5 214.736 102.009 214.736C101.508 214.736 101.033 214.854 100.585 215.088C100.137 215.312 99.7422 215.632 99.4009 216.048C99.0702 216.454 98.8089 216.923 98.6169 217.456C98.8089 217.99 99.0702 218.459 99.4009 218.864C99.7422 219.27 100.137 219.59 100.585 219.824C101.033 220.048 101.508 220.16 102.009 220.16C102.5 220.16 102.937 220.048 103.321 219.824C103.705 219.59 104.004 219.27 104.217 218.864C104.441 218.459 104.553 217.99 104.553 217.456ZM108.855 212.896H111.527L112.103 216.368V222H109.431V215.968L108.855 212.896ZM115.351 212.656C116.162 212.656 116.855 212.832 117.431 213.184C118.007 213.526 118.444 214.016 118.743 214.656C119.052 215.296 119.207 216.059 119.207 216.944V222H116.535V217.344C116.535 216.523 116.354 215.904 115.991 215.488C115.639 215.062 115.122 214.848 114.439 214.848C113.959 214.848 113.543 214.966 113.191 215.2C112.839 215.424 112.567 215.739 112.375 216.144C112.194 216.55 112.103 217.035 112.103 217.6L111.223 217.136C111.33 216.176 111.575 215.366 111.959 214.704C112.343 214.043 112.823 213.536 113.399 213.184C113.986 212.832 114.636 212.656 115.351 212.656ZM122.439 212.656C123.25 212.656 123.943 212.832 124.519 213.184C125.106 213.526 125.548 214.016 125.847 214.656C126.156 215.296 126.311 216.059 126.311 216.944V222H123.639V217.344C123.639 216.523 123.458 215.904 123.095 215.488C122.743 215.062 122.226 214.848 121.543 214.848C121.063 214.848 120.647 214.966 120.295 215.2C119.943 215.424 119.671 215.739 119.479 216.144C119.298 216.55 119.207 217.035 119.207 217.6L118.327 217.136C118.434 216.176 118.679 215.366 119.063 214.704C119.447 214.043 119.927 213.536 120.503 213.184C121.09 212.832 121.735 212.656 122.439 212.656ZM137.009 222L136.625 218.672L137.057 217.456L136.625 216.256L137.009 212.896H139.777L139.249 217.456L139.777 222H137.009ZM137.713 217.456C137.542 218.416 137.228 219.259 136.769 219.984C136.321 220.699 135.75 221.254 135.057 221.648C134.374 222.043 133.606 222.24 132.753 222.24C131.868 222.24 131.084 222.043 130.401 221.648C129.718 221.243 129.185 220.683 128.801 219.968C128.428 219.243 128.241 218.406 128.241 217.456C128.241 216.496 128.428 215.659 128.801 214.944C129.185 214.219 129.718 213.659 130.401 213.264C131.084 212.859 131.868 212.656 132.753 212.656C133.606 212.656 134.374 212.854 135.057 213.248C135.75 213.643 136.326 214.203 136.785 214.928C137.244 215.643 137.553 216.486 137.713 217.456ZM130.945 217.456C130.945 217.99 131.052 218.459 131.265 218.864C131.489 219.27 131.793 219.59 132.177 219.824C132.561 220.048 133.004 220.16 133.505 220.16C134.006 220.16 134.476 220.048 134.913 219.824C135.361 219.59 135.756 219.27 136.097 218.864C136.438 218.459 136.705 217.99 136.897 217.456C136.705 216.923 136.438 216.454 136.097 216.048C135.756 215.632 135.361 215.312 134.913 215.088C134.476 214.854 134.006 214.736 133.505 214.736C133.004 214.736 132.561 214.854 132.177 215.088C131.793 215.312 131.489 215.632 131.265 216.048C131.052 216.454 130.945 216.923 130.945 217.456ZM141.612 212.896H144.316L144.86 216.176V222H142.188V215.888L141.612 212.896ZM149.292 212.8V215.104C149.014 215.04 148.737 214.992 148.46 214.96C148.182 214.928 147.921 214.912 147.676 214.912C147.142 214.912 146.662 215.024 146.236 215.248C145.809 215.472 145.473 215.819 145.228 216.288C144.982 216.758 144.86 217.35 144.86 218.064L144.3 217.392C144.364 216.742 144.481 216.134 144.652 215.568C144.822 214.992 145.057 214.491 145.356 214.064C145.665 213.627 146.044 213.286 146.492 213.04C146.94 212.784 147.473 212.656 148.092 212.656C148.294 212.656 148.497 212.672 148.7 212.704C148.913 212.726 149.11 212.758 149.292 212.8ZM151.008 212.8L152.336 213.056L153.68 212.8V222H151.008V212.8ZM152.336 211.856C151.856 211.856 151.461 211.734 151.152 211.488C150.853 211.232 150.704 210.896 150.704 210.48C150.704 210.054 150.853 209.718 151.152 209.472C151.461 209.216 151.856 209.088 152.336 209.088C152.827 209.088 153.221 209.216 153.52 209.472C153.819 209.718 153.968 210.054 153.968 210.48C153.968 210.896 153.819 211.232 153.52 211.488C153.221 211.734 152.827 211.856 152.336 211.856ZM155.744 212.896H158.416L158.992 216.368V222H156.32V215.968L155.744 212.896ZM162.464 212.656C163.328 212.656 164.064 212.832 164.672 213.184C165.28 213.526 165.744 214.016 166.064 214.656C166.384 215.296 166.544 216.059 166.544 216.944V222H163.872V217.344C163.872 216.523 163.674 215.904 163.28 215.488C162.885 215.062 162.309 214.848 161.552 214.848C161.04 214.848 160.586 214.966 160.192 215.2C159.808 215.424 159.509 215.739 159.296 216.144C159.093 216.55 158.992 217.035 158.992 217.6L158.112 217.136C158.218 216.176 158.474 215.366 158.88 214.704C159.285 214.043 159.797 213.536 160.416 213.184C161.034 212.832 161.717 212.656 162.464 212.656ZM174.042 222.24C172.964 222.24 171.999 222.043 171.146 221.648C170.303 221.243 169.636 220.678 169.146 219.952C168.666 219.227 168.426 218.384 168.426 217.424C168.426 216.475 168.655 215.643 169.114 214.928C169.583 214.214 170.223 213.659 171.034 213.264C171.844 212.859 172.767 212.656 173.802 212.656C174.858 212.656 175.764 212.891 176.522 213.36C177.279 213.819 177.86 214.47 178.266 215.312C178.682 216.155 178.89 217.147 178.89 218.288H170.57V216.512H177.45L176.41 217.152C176.367 216.619 176.234 216.166 176.01 215.792C175.796 215.419 175.503 215.131 175.13 214.928C174.756 214.726 174.319 214.624 173.818 214.624C173.274 214.624 172.799 214.736 172.394 214.96C171.999 215.174 171.69 215.478 171.466 215.872C171.252 216.256 171.146 216.71 171.146 217.232C171.146 217.862 171.284 218.4 171.562 218.848C171.839 219.296 172.244 219.638 172.778 219.872C173.311 220.107 173.956 220.224 174.714 220.224C175.396 220.224 176.084 220.128 176.778 219.936C177.471 219.734 178.095 219.451 178.65 219.088V220.88C178.052 221.307 177.354 221.643 176.554 221.888C175.764 222.123 174.927 222.24 174.042 222.24ZM182.405 222.144C181.957 222.144 181.583 222 181.285 221.712C180.997 221.424 180.853 221.062 180.853 220.624C180.853 220.187 180.997 219.824 181.285 219.536C181.583 219.248 181.957 219.104 182.405 219.104C182.863 219.104 183.237 219.248 183.525 219.536C183.823 219.824 183.973 220.187 183.973 220.624C183.973 221.062 183.823 221.424 183.525 221.712C183.237 222 182.863 222.144 182.405 222.144ZM182.405 216.48C181.957 216.48 181.583 216.336 181.285 216.048C180.997 215.76 180.853 215.398 180.853 214.96C180.853 214.523 180.997 214.16 181.285 213.872C181.583 213.584 181.957 213.44 182.405 213.44C182.863 213.44 183.237 213.584 183.525 213.872C183.823 214.16 183.973 214.523 183.973 214.96C183.973 215.398 183.823 215.76 183.525 216.048C183.237 216.336 182.863 216.48 182.405 216.48Z" fill="white"/>
<path d="M268.753 161V159.992L272.785 155.928C273.937 154.776 274.513 153.79 274.513 152.968C274.513 152.254 274.289 151.699 273.841 151.304C273.404 150.899 272.876 150.696 272.257 150.696C271.105 150.696 270.268 151.224 269.745 152.28L268.801 151.72C269.153 151.027 269.633 150.504 270.241 150.152C270.849 149.79 271.521 149.608 272.257 149.608C273.153 149.608 273.937 149.912 274.609 150.52C275.292 151.118 275.633 151.934 275.633 152.968C275.633 153.619 275.452 154.243 275.089 154.84C274.727 155.438 274.215 156.067 273.553 156.728L270.353 159.912H275.873V161H268.753ZM277.64 161V159.992L281.672 155.928C282.824 154.776 283.4 153.79 283.4 152.968C283.4 152.254 283.176 151.699 282.728 151.304C282.29 150.899 281.762 150.696 281.144 150.696C279.992 150.696 279.154 151.224 278.632 152.28L277.688 151.72C278.04 151.027 278.52 150.504 279.128 150.152C279.736 149.79 280.408 149.608 281.144 149.608C282.04 149.608 282.824 149.912 283.496 150.52C284.178 151.118 284.52 151.934 284.52 152.968C284.52 153.619 284.338 154.243 283.976 154.84C283.613 155.438 283.101 156.067 282.44 156.728L279.24 159.912H284.76V161H277.64ZM293.566 154.888V155.912H290.718V158.76H289.694V155.912H286.846V154.888H289.694V152.04H290.718V154.888H293.566Z" fill="white"/>
<path d="M56.1613 258L58.2253 254.432H58.2573L63.1213 246H66.0653L59.1053 258H56.1613ZM58.2253 256.256L52.2413 246H55.2333L60.0973 254.368L58.2253 256.256ZM66.9662 248.896H76.3742V258H73.7022V249.696L74.9342 250.912H68.2942L69.4462 249.92C69.4995 250.571 69.5422 251.174 69.5742 251.728C69.6168 252.272 69.6382 252.763 69.6382 253.2C69.6382 254.95 69.3768 256.219 68.8542 257.008C68.3422 257.798 67.5102 258.192 66.3582 258.192C66.0382 258.192 65.7288 258.155 65.4302 258.08C65.1422 258.016 64.8595 257.904 64.5822 257.744V255.808C64.7742 255.883 64.9608 255.942 65.1422 255.984C65.3342 256.016 65.5102 256.032 65.6702 256.032C66.2142 256.032 66.6035 255.787 66.8382 255.296C67.0835 254.795 67.2062 253.974 67.2062 252.832C67.2062 252.32 67.1848 251.734 67.1422 251.072C67.1102 250.411 67.0515 249.686 66.9662 248.896ZM88.6705 258.24C87.5505 258.24 86.5692 258.043 85.7265 257.648C84.8839 257.243 84.2279 256.683 83.7585 255.968C83.2999 255.243 83.0705 254.406 83.0705 253.456C83.0705 252.496 83.2999 251.659 83.7585 250.944C84.2279 250.219 84.8839 249.659 85.7265 249.264C86.5692 248.859 87.5505 248.656 88.6705 248.656C89.7905 248.656 90.7719 248.859 91.6145 249.264C92.4572 249.659 93.1132 250.219 93.5825 250.944C94.0519 251.659 94.2865 252.496 94.2865 253.456C94.2865 254.406 94.0519 255.243 93.5825 255.968C93.1132 256.683 92.4572 257.243 91.6145 257.648C90.7719 258.043 89.7905 258.24 88.6705 258.24ZM78.8625 258V248.896H81.5345V258H78.8625ZM80.3665 254.368V252.368H84.7665V254.368H80.3665ZM88.6705 256.208C89.2785 256.208 89.7959 256.096 90.2225 255.872C90.6599 255.648 90.9959 255.334 91.2305 254.928C91.4652 254.512 91.5825 254.022 91.5825 253.456C91.5825 252.88 91.4652 252.39 91.2305 251.984C90.9959 251.568 90.6599 251.248 90.2225 251.024C89.7959 250.8 89.2785 250.688 88.6705 250.688C88.0732 250.688 87.5559 250.8 87.1185 251.024C86.6812 251.248 86.3452 251.568 86.1105 251.984C85.8759 252.39 85.7585 252.88 85.7585 253.456C85.7585 254.022 85.8759 254.512 86.1105 254.928C86.3452 255.334 86.6812 255.648 87.1185 255.872C87.5559 256.096 88.0732 256.208 88.6705 256.208ZM101.895 258.24C100.647 258.24 99.5806 258.006 98.6953 257.536C97.8099 257.056 97.1326 256.368 96.6633 255.472C96.1939 254.576 95.9593 253.494 95.9593 252.224C95.9593 250.336 96.4659 248.848 97.4793 247.76C98.4926 246.672 99.9433 246.048 101.831 245.888C102.599 245.824 103.234 245.771 103.735 245.728C104.237 245.686 104.647 245.643 104.967 245.6C105.298 245.547 105.575 245.494 105.799 245.44C106.023 245.376 106.242 245.307 106.455 245.232V247.456C106.231 247.542 105.943 247.622 105.591 247.696C105.25 247.76 104.813 247.814 104.279 247.856C103.757 247.899 103.111 247.942 102.343 247.984C100.946 248.048 99.9059 248.432 99.2233 249.136C98.5406 249.84 98.1993 250.854 98.1993 252.176V252.608L98.1033 252.416C98.3166 251.84 98.6419 251.344 99.0793 250.928C99.5166 250.512 100.039 250.198 100.647 249.984C101.266 249.76 101.933 249.648 102.647 249.648C103.575 249.648 104.386 249.824 105.079 250.176C105.773 250.518 106.311 251.003 106.695 251.632C107.09 252.262 107.287 252.998 107.287 253.84C107.287 254.726 107.063 255.499 106.615 256.16C106.167 256.822 105.538 257.334 104.727 257.696C103.927 258.059 102.983 258.24 101.895 258.24ZM101.959 256.208C102.493 256.208 102.957 256.112 103.351 255.92C103.746 255.728 104.05 255.456 104.263 255.104C104.477 254.752 104.583 254.342 104.583 253.872C104.583 253.403 104.477 252.998 104.263 252.656C104.05 252.304 103.746 252.032 103.351 251.84C102.957 251.648 102.493 251.552 101.959 251.552C101.223 251.552 100.573 251.75 100.007 252.144C99.4419 252.528 99.0153 253.067 98.7273 253.76C98.8979 254.507 99.2713 255.104 99.8473 255.552C100.434 255.99 101.138 256.208 101.959 256.208ZM110.672 248.896H120.08V258H117.408V249.696L118.64 250.912H112L113.152 249.92C113.205 250.571 113.248 251.174 113.28 251.728C113.322 252.272 113.344 252.763 113.344 253.2C113.344 254.95 113.082 256.219 112.56 257.008C112.048 257.798 111.216 258.192 110.064 258.192C109.744 258.192 109.434 258.155 109.136 258.08C108.848 258.016 108.565 257.904 108.288 257.744V255.808C108.48 255.883 108.666 255.942 108.848 255.984C109.04 256.016 109.216 256.032 109.376 256.032C109.92 256.032 110.309 255.787 110.544 255.296C110.789 254.795 110.912 253.974 110.912 252.832C110.912 252.32 110.89 251.734 110.848 251.072C110.816 250.411 110.757 249.686 110.672 248.896ZM127.704 258.24C126.627 258.24 125.661 258.043 124.808 257.648C123.965 257.243 123.299 256.678 122.808 255.952C122.328 255.227 122.088 254.384 122.088 253.424C122.088 252.475 122.317 251.643 122.776 250.928C123.245 250.214 123.885 249.659 124.696 249.264C125.507 248.859 126.429 248.656 127.464 248.656C128.52 248.656 129.427 248.891 130.184 249.36C130.941 249.819 131.523 250.47 131.928 251.312C132.344 252.155 132.552 253.147 132.552 254.288H124.232V252.512H131.112L130.072 253.152C130.029 252.619 129.896 252.166 129.672 251.792C129.459 251.419 129.165 251.131 128.792 250.928C128.419 250.726 127.981 250.624 127.48 250.624C126.936 250.624 126.461 250.736 126.056 250.96C125.661 251.174 125.352 251.478 125.128 251.872C124.915 252.256 124.808 252.71 124.808 253.232C124.808 253.862 124.947 254.4 125.224 254.848C125.501 255.296 125.907 255.638 126.44 255.872C126.973 256.107 127.619 256.224 128.376 256.224C129.059 256.224 129.747 256.128 130.44 255.936C131.133 255.734 131.757 255.451 132.312 255.088V256.88C131.715 257.307 131.016 257.643 130.216 257.888C129.427 258.123 128.589 258.24 127.704 258.24ZM134.595 248.896H137.251V258H134.595V248.896ZM142.227 248.896H144.883V258H142.227V248.896ZM136.115 252.352H143.267V254.368H136.115V252.352ZM147.372 248.8L148.7 249.056L150.044 248.8V258H147.372V248.8ZM148.7 247.856C148.22 247.856 147.825 247.734 147.516 247.488C147.217 247.232 147.068 246.896 147.068 246.48C147.068 246.054 147.217 245.718 147.516 245.472C147.825 245.216 148.22 245.088 148.7 245.088C149.191 245.088 149.585 245.216 149.884 245.472C150.183 245.718 150.332 246.054 150.332 246.48C150.332 246.896 150.183 247.232 149.884 247.488C149.585 247.734 149.191 247.856 148.7 247.856ZM167.337 248.896V258H164.665V249.696L165.897 250.912H158.553L159.785 249.696V258H157.113V248.896H167.337ZM169.828 248.896H172.5V251.792L172.388 252.144V254.336L172.5 254.992V260.64H169.828V248.896ZM171.572 253.456C171.753 252.486 172.068 251.643 172.516 250.928C172.974 250.203 173.545 249.643 174.228 249.248C174.921 248.854 175.689 248.656 176.532 248.656C177.428 248.656 178.212 248.859 178.884 249.264C179.566 249.659 180.1 250.219 180.484 250.944C180.868 251.659 181.06 252.496 181.06 253.456C181.06 254.406 180.868 255.243 180.484 255.968C180.1 256.683 179.566 257.243 178.884 257.648C178.212 258.043 177.428 258.24 176.532 258.24C175.678 258.24 174.91 258.043 174.228 257.648C173.556 257.254 172.99 256.699 172.532 255.984C172.073 255.259 171.753 254.416 171.572 253.456ZM178.356 253.456C178.356 252.923 178.244 252.454 178.02 252.048C177.806 251.632 177.508 251.312 177.124 251.088C176.74 250.854 176.297 250.736 175.796 250.736C175.294 250.736 174.82 250.854 174.372 251.088C173.924 251.312 173.529 251.632 173.188 252.048C172.857 252.454 172.596 252.923 172.404 253.456C172.596 253.99 172.857 254.459 173.188 254.864C173.529 255.27 173.924 255.59 174.372 255.824C174.82 256.048 175.294 256.16 175.796 256.16C176.297 256.16 176.74 256.048 177.124 255.824C177.508 255.59 177.806 255.27 178.02 254.864C178.244 254.459 178.356 253.99 178.356 253.456ZM188.32 258.24C187.19 258.24 186.198 258.043 185.344 257.648C184.491 257.243 183.824 256.683 183.344 255.968C182.864 255.243 182.624 254.406 182.624 253.456C182.624 252.496 182.864 251.659 183.344 250.944C183.824 250.219 184.491 249.659 185.344 249.264C186.198 248.859 187.19 248.656 188.32 248.656C189.451 248.656 190.443 248.859 191.296 249.264C192.15 249.659 192.811 250.219 193.28 250.944C193.76 251.659 194 252.496 194 253.456C194 254.406 193.76 255.243 193.28 255.968C192.811 256.683 192.15 257.243 191.296 257.648C190.443 258.043 189.451 258.24 188.32 258.24ZM188.32 256.208C188.939 256.208 189.467 256.096 189.904 255.872C190.352 255.648 190.694 255.334 190.928 254.928C191.174 254.512 191.296 254.022 191.296 253.456C191.296 252.88 191.174 252.39 190.928 251.984C190.694 251.568 190.352 251.248 189.904 251.024C189.467 250.8 188.939 250.688 188.32 250.688C187.712 250.688 187.184 250.8 186.736 251.024C186.288 251.248 185.942 251.568 185.696 251.984C185.462 252.39 185.344 252.88 185.344 253.456C185.344 254.022 185.462 254.512 185.696 254.928C185.942 255.334 186.288 255.648 186.736 255.872C187.184 256.096 187.712 256.208 188.32 256.208ZM201.174 258.24C200.096 258.24 199.131 258.043 198.278 257.648C197.435 257.243 196.768 256.678 196.278 255.952C195.798 255.227 195.558 254.384 195.558 253.424C195.558 252.475 195.787 251.643 196.246 250.928C196.715 250.214 197.355 249.659 198.166 249.264C198.976 248.859 199.899 248.656 200.934 248.656C201.99 248.656 202.896 248.891 203.654 249.36C204.411 249.819 204.992 250.47 205.398 251.312C205.814 252.155 206.022 253.147 206.022 254.288H197.702V252.512H204.582L203.542 253.152C203.499 252.619 203.366 252.166 203.142 251.792C202.928 251.419 202.635 251.131 202.262 250.928C201.888 250.726 201.451 250.624 200.95 250.624C200.406 250.624 199.931 250.736 199.526 250.96C199.131 251.174 198.822 251.478 198.598 251.872C198.384 252.256 198.278 252.71 198.278 253.232C198.278 253.862 198.416 254.4 198.694 254.848C198.971 255.296 199.376 255.638 199.91 255.872C200.443 256.107 201.088 256.224 201.846 256.224C202.528 256.224 203.216 256.128 203.91 255.936C204.603 255.734 205.227 255.451 205.782 255.088V256.88C205.184 257.307 204.486 257.643 203.686 257.888C202.896 258.123 202.059 258.24 201.174 258.24ZM208.064 258V248.896H210.736V255.84L209.952 255.568L215.376 248.896H218.288L210.464 258H208.064ZM215.504 258L212.784 253.536L214.752 252.016L218.56 258H215.504ZM222.783 249.824H225.455V258H222.783V249.824ZM219.167 248.896H229.071V250.944H219.167V248.896ZM230.774 258V248.896H233.398V256.592L232.742 256.416L238.23 248.896H241.67V258H239.046V250.16L239.702 250.352L234.118 258H230.774ZM245.633 258.144C245.185 258.144 244.811 258 244.513 257.712C244.225 257.424 244.081 257.062 244.081 256.624C244.081 256.187 244.225 255.824 244.513 255.536C244.811 255.248 245.185 255.104 245.633 255.104C246.091 255.104 246.465 255.248 246.753 255.536C247.051 255.824 247.201 256.187 247.201 256.624C247.201 257.062 247.051 257.424 246.753 257.712C246.465 258 246.091 258.144 245.633 258.144ZM245.633 252.48C245.185 252.48 244.811 252.336 244.513 252.048C244.225 251.76 244.081 251.398 244.081 250.96C244.081 250.523 244.225 250.16 244.513 249.872C244.811 249.584 245.185 249.44 245.633 249.44C246.091 249.44 246.465 249.584 246.753 249.872C247.051 250.16 247.201 250.523 247.201 250.96C247.201 251.398 247.051 251.76 246.753 252.048C246.465 252.336 246.091 252.48 245.633 252.48Z" fill="white"/>
<path d="M278.657 255.512C277.537 256.632 276.167 257.192 274.545 257.192C272.924 257.192 271.553 256.632 270.433 255.512C269.313 254.382 268.753 253.011 268.753 251.4C268.753 249.79 269.313 248.424 270.433 247.304C271.553 246.174 272.924 245.608 274.545 245.608C276.167 245.608 277.537 246.174 278.657 247.304C279.777 248.424 280.337 249.79 280.337 251.4C280.337 253.011 279.777 254.382 278.657 255.512ZM271.217 254.744C272.113 255.651 273.223 256.104 274.545 256.104C275.868 256.104 276.977 255.651 277.873 254.744C278.769 253.827 279.217 252.712 279.217 251.4C279.217 250.088 278.769 248.979 277.873 248.072C276.977 247.155 275.868 246.696 274.545 246.696C273.223 246.696 272.113 247.155 271.217 248.072C270.321 248.979 269.873 250.088 269.873 251.4C269.873 252.712 270.321 253.827 271.217 254.744ZM289.037 257H287.629L283.629 253.144V257H282.573V245.8H283.629V252.536L287.437 249H288.877L284.749 252.84L289.037 257ZM297.423 257H296.015L292.015 253.144V257H290.959V245.8H292.015V252.536L295.823 249H297.263L293.135 252.84L297.423 257ZM305.252 255.992C304.442 256.792 303.45 257.192 302.276 257.192C301.103 257.192 300.106 256.792 299.284 255.992C298.474 255.182 298.068 254.184 298.068 253C298.068 251.816 298.474 250.824 299.284 250.024C300.106 249.214 301.103 248.808 302.276 248.808C303.45 248.808 304.442 249.214 305.252 250.024C306.074 250.824 306.484 251.816 306.484 253C306.484 254.184 306.074 255.182 305.252 255.992ZM300.036 255.256C300.644 255.864 301.391 256.168 302.276 256.168C303.162 256.168 303.908 255.864 304.516 255.256C305.124 254.638 305.428 253.886 305.428 253C305.428 252.115 305.124 251.368 304.516 250.76C303.908 250.142 303.162 249.832 302.276 249.832C301.391 249.832 300.644 250.142 300.036 250.76C299.428 251.368 299.124 252.115 299.124 253C299.124 253.886 299.428 254.638 300.036 255.256ZM309.851 255.64L308.891 259.24H307.931L308.571 255.64H309.851ZM320.575 257.192C319.551 257.192 318.671 256.952 317.935 256.472C317.209 255.982 316.703 255.31 316.415 254.456L317.375 253.896C317.577 254.59 317.951 255.134 318.495 255.528C319.039 255.912 319.737 256.104 320.591 256.104C321.423 256.104 322.068 255.923 322.527 255.56C322.996 255.187 323.231 254.696 323.231 254.088C323.231 253.502 323.017 253.059 322.591 252.76C322.164 252.462 321.46 252.152 320.479 251.832C319.316 251.448 318.548 251.139 318.175 250.904C317.321 250.392 316.895 249.651 316.895 248.68C316.895 247.731 317.225 246.984 317.887 246.44C318.548 245.886 319.364 245.608 320.335 245.608C321.209 245.608 321.967 245.838 322.607 246.296C323.247 246.744 323.721 247.32 324.031 248.024L323.087 248.552C322.575 247.315 321.657 246.696 320.335 246.696C319.641 246.696 319.081 246.867 318.655 247.208C318.228 247.55 318.015 248.024 318.015 248.632C318.015 249.187 318.207 249.603 318.591 249.88C318.975 250.158 319.609 250.44 320.495 250.728C320.9 250.867 321.188 250.968 321.359 251.032C321.54 251.086 321.796 251.182 322.127 251.32C322.468 251.448 322.719 251.566 322.879 251.672C323.039 251.768 323.231 251.907 323.455 252.088C323.689 252.259 323.855 252.435 323.951 252.616C324.057 252.787 324.148 253 324.223 253.256C324.308 253.502 324.351 253.768 324.351 254.056C324.351 255.006 324.004 255.768 323.311 256.344C322.617 256.91 321.705 257.192 320.575 257.192ZM333.454 255.992C332.643 256.792 331.651 257.192 330.478 257.192C329.304 257.192 328.307 256.792 327.486 255.992C326.675 255.182 326.27 254.184 326.27 253C326.27 251.816 326.675 250.824 327.486 250.024C328.307 249.214 329.304 248.808 330.478 248.808C331.651 248.808 332.643 249.214 333.454 250.024C334.275 250.824 334.686 251.816 334.686 253C334.686 254.184 334.275 255.182 333.454 255.992ZM328.238 255.256C328.846 255.864 329.592 256.168 330.478 256.168C331.363 256.168 332.11 255.864 332.718 255.256C333.326 254.638 333.63 253.886 333.63 253C333.63 252.115 333.326 251.368 332.718 250.76C332.11 250.142 331.363 249.832 330.478 249.832C329.592 249.832 328.846 250.142 328.238 250.76C327.63 251.368 327.326 252.115 327.326 253C327.326 253.886 327.63 254.638 328.238 255.256ZM336.933 257V245.32H337.989V257H336.933ZM341.782 247.08C341.632 247.23 341.451 247.304 341.238 247.304C341.024 247.304 340.843 247.23 340.694 247.08C340.544 246.931 340.47 246.75 340.47 246.536C340.47 246.323 340.544 246.142 340.694 245.992C340.843 245.843 341.024 245.768 341.238 245.768C341.451 245.768 341.632 245.843 341.782 245.992C341.931 246.142 342.006 246.323 342.006 246.536C342.006 246.75 341.931 246.931 341.782 247.08ZM340.71 257V249H341.766V257H340.71ZM351.366 245.8H352.422V257H351.366V255.432C350.63 256.606 349.553 257.192 348.134 257.192C346.993 257.192 346.017 256.787 345.206 255.976C344.406 255.166 344.006 254.174 344.006 253C344.006 251.827 344.406 250.835 345.206 250.024C346.017 249.214 346.993 248.808 348.134 248.808C349.553 248.808 350.63 249.395 351.366 250.568V245.8ZM345.974 255.256C346.582 255.864 347.329 256.168 348.214 256.168C349.1 256.168 349.846 255.864 350.454 255.256C351.062 254.638 351.366 253.886 351.366 253C351.366 252.115 351.062 251.368 350.454 250.76C349.846 250.142 349.1 249.832 348.214 249.832C347.329 249.832 346.582 250.142 345.974 250.76C345.366 251.368 345.062 252.115 345.062 253C345.062 253.886 345.366 254.638 345.974 255.256Z" fill="white"/>
<path d="M52.3693 296.448V291.6H54.6093L55.7613 291.632H64.4013L65.0573 291.6H68.2893V296.448H65.7453V294H54.9133V296.448H52.3693ZM54.9453 282H66.1933V293.136H63.4893V283.152L64.7053 284.368H56.4013L57.5373 283.488C57.6013 284.022 57.6439 284.55 57.6653 285.072C57.6866 285.595 57.6973 286.086 57.6973 286.544C57.6973 287.846 57.5959 288.95 57.3933 289.856C57.1906 290.752 56.8866 291.435 56.4813 291.904C56.0759 292.363 55.5746 292.592 54.9773 292.592L53.8573 291.648C54.3053 291.136 54.6359 290.416 54.8493 289.488C55.0733 288.55 55.1853 287.382 55.1853 285.984C55.1853 285.366 55.1639 284.72 55.1213 284.048C55.0786 283.376 55.0199 282.694 54.9453 282ZM75.1767 294.24C74.046 294.24 73.054 294.043 72.2007 293.648C71.3473 293.243 70.6807 292.683 70.2007 291.968C69.7207 291.243 69.4807 290.406 69.4807 289.456C69.4807 288.496 69.7207 287.659 70.2007 286.944C70.6807 286.219 71.3473 285.659 72.2007 285.264C73.054 284.859 74.046 284.656 75.1767 284.656C76.3073 284.656 77.2993 284.859 78.1527 285.264C79.006 285.659 79.6673 286.219 80.1367 286.944C80.6167 287.659 80.8567 288.496 80.8567 289.456C80.8567 290.406 80.6167 291.243 80.1367 291.968C79.6673 292.683 79.006 293.243 78.1527 293.648C77.2993 294.043 76.3073 294.24 75.1767 294.24ZM75.1767 292.208C75.7953 292.208 76.3233 292.096 76.7607 291.872C77.2087 291.648 77.55 291.334 77.7847 290.928C78.03 290.512 78.1527 290.022 78.1527 289.456C78.1527 288.88 78.03 288.39 77.7847 287.984C77.55 287.568 77.2087 287.248 76.7607 287.024C76.3233 286.8 75.7953 286.688 75.1767 286.688C74.5687 286.688 74.0407 286.8 73.5927 287.024C73.1447 287.248 72.798 287.568 72.5527 287.984C72.318 288.39 72.2007 288.88 72.2007 289.456C72.2007 290.022 72.318 290.512 72.5527 290.928C72.798 291.334 73.1447 291.648 73.5927 291.872C74.0407 292.096 74.5687 292.208 75.1767 292.208ZM93.3418 290.288C93.2351 291.067 92.9311 291.755 92.4298 292.352C91.9391 292.95 91.3044 293.414 90.5258 293.744C89.7471 294.075 88.8778 294.24 87.9178 294.24C86.8298 294.24 85.8698 294.043 85.0378 293.648C84.2164 293.243 83.5711 292.678 83.1018 291.952C82.6431 291.227 82.4138 290.395 82.4138 289.456C82.4138 288.507 82.6431 287.675 83.1018 286.96C83.5711 286.235 84.2164 285.67 85.0378 285.264C85.8698 284.859 86.8298 284.656 87.9178 284.656C88.8778 284.656 89.7471 284.827 90.5258 285.168C91.3044 285.499 91.9391 285.963 92.4298 286.56C92.9311 287.147 93.2351 287.835 93.3418 288.624H90.6698C90.5311 288.006 90.2111 287.531 89.7098 287.2C89.2191 286.859 88.6218 286.688 87.9178 286.688C87.3524 286.688 86.8564 286.8 86.4298 287.024C86.0138 287.238 85.6938 287.552 85.4698 287.968C85.2458 288.374 85.1338 288.87 85.1338 289.456C85.1338 290.032 85.2458 290.528 85.4698 290.944C85.6938 291.35 86.0138 291.664 86.4298 291.888C86.8564 292.102 87.3524 292.208 87.9178 292.208C88.6324 292.208 89.2351 292.032 89.7258 291.68C90.2271 291.328 90.5418 290.864 90.6698 290.288H93.3418ZM95.0092 294L95.5212 289.456L95.0092 284.896H102.017C102.892 284.896 103.585 285.104 104.097 285.52C104.609 285.926 104.865 286.48 104.865 287.184C104.865 287.846 104.609 288.384 104.097 288.8C103.585 289.206 102.87 289.446 101.953 289.52L102.145 289.072C103.212 289.104 104.022 289.328 104.577 289.744C105.142 290.15 105.425 290.72 105.425 291.456C105.425 292.246 105.137 292.87 104.561 293.328C103.996 293.776 103.217 294 102.225 294H95.0092ZM97.5852 293.408L96.5612 292.272H101.409C101.868 292.272 102.204 292.182 102.417 292C102.63 291.808 102.737 291.542 102.737 291.2C102.737 290.891 102.62 290.64 102.385 290.448C102.15 290.246 101.766 290.144 101.233 290.144H97.1052V288.624H100.881C101.329 288.624 101.654 288.534 101.857 288.352C102.07 288.171 102.177 287.926 102.177 287.616C102.177 287.328 102.081 287.094 101.889 286.912C101.708 286.731 101.409 286.64 100.993 286.64H96.5772L97.5852 285.504L98.0812 289.456L97.5852 293.408ZM107.432 284.8L108.76 285.056L110.104 284.8V294H107.432V284.8ZM108.76 283.856C108.28 283.856 107.885 283.734 107.576 283.488C107.277 283.232 107.128 282.896 107.128 282.48C107.128 282.054 107.277 281.718 107.576 281.472C107.885 281.216 108.28 281.088 108.76 281.088C109.251 281.088 109.645 281.216 109.944 281.472C110.243 281.718 110.392 282.054 110.392 282.48C110.392 282.896 110.243 283.232 109.944 283.488C109.645 283.734 109.251 283.856 108.76 283.856ZM124.967 291.984V296.24H122.647V294H114.135V296.24H111.815V291.984H114.359L114.951 292.032H121.575L122.103 291.984H124.967ZM113.783 284.896H123.287V293.392H120.615V285.664L121.847 286.896H115.111L116.183 285.936C116.279 286.395 116.338 286.832 116.359 287.248C116.381 287.654 116.391 288.032 116.391 288.384C116.391 289.899 116.162 291.083 115.703 291.936C115.245 292.779 114.599 293.2 113.767 293.2L112.679 292.288C113.533 291.67 113.959 290.192 113.959 287.856C113.959 287.398 113.943 286.923 113.911 286.432C113.879 285.931 113.837 285.419 113.783 284.896ZM128.333 294.144C127.885 294.144 127.511 294 127.213 293.712C126.925 293.424 126.781 293.062 126.781 292.624C126.781 292.187 126.925 291.824 127.213 291.536C127.511 291.248 127.885 291.104 128.333 291.104C128.791 291.104 129.165 291.248 129.453 291.536C129.751 291.824 129.901 292.187 129.901 292.624C129.901 293.062 129.751 293.424 129.453 293.712C129.165 294 128.791 294.144 128.333 294.144ZM128.333 288.48C127.885 288.48 127.511 288.336 127.213 288.048C126.925 287.76 126.781 287.398 126.781 286.96C126.781 286.523 126.925 286.16 127.213 285.872C127.511 285.584 127.885 285.44 128.333 285.44C128.791 285.44 129.165 285.584 129.453 285.872C129.751 286.16 129.901 286.523 129.901 286.96C129.901 287.398 129.751 287.76 129.453 288.048C129.165 288.336 128.791 288.48 128.333 288.48Z" fill="white"/>
<path d="M272.865 286.456C273.761 286.574 274.497 286.92 275.073 287.496C275.66 288.062 275.953 288.814 275.953 289.752C275.953 290.819 275.585 291.662 274.849 292.28C274.124 292.888 273.239 293.192 272.193 293.192C271.361 293.192 270.62 293 269.969 292.616C269.319 292.232 268.86 291.683 268.593 290.968L269.521 290.424C269.703 290.979 270.028 291.4 270.497 291.688C270.967 291.966 271.532 292.104 272.193 292.104C272.961 292.104 273.591 291.902 274.081 291.496C274.583 291.08 274.833 290.499 274.833 289.752C274.833 289.006 274.583 288.43 274.081 288.024C273.591 287.608 272.961 287.4 272.193 287.4V287.384L272.177 287.4H271.873L271.393 286.664L274.177 282.856H268.913V281.8H275.473V282.856L272.865 286.456ZM284.758 286.888V287.912H281.91V290.76H280.886V287.912H278.038V286.888H280.886V284.04H281.91V286.888H284.758ZM296.086 284.808C297.228 284.808 298.198 285.214 298.998 286.024C299.809 286.835 300.214 287.827 300.214 289C300.214 290.174 299.809 291.166 298.998 291.976C298.198 292.787 297.228 293.192 296.086 293.192C294.668 293.192 293.59 292.606 292.854 291.432V296.2H291.798V285H292.854V286.568C293.59 285.395 294.668 284.808 296.086 284.808ZM293.766 291.256C294.374 291.864 295.121 292.168 296.006 292.168C296.892 292.168 297.638 291.864 298.246 291.256C298.854 290.638 299.158 289.886 299.158 289C299.158 288.115 298.854 287.368 298.246 286.76C297.638 286.142 296.892 285.832 296.006 285.832C295.121 285.832 294.374 286.142 293.766 286.76C293.158 287.368 292.854 288.115 292.854 289C292.854 289.886 293.158 290.638 293.766 291.256ZM309.154 291.992C308.343 292.792 307.351 293.192 306.178 293.192C305.005 293.192 304.007 292.792 303.186 291.992C302.375 291.182 301.97 290.184 301.97 289C301.97 287.816 302.375 286.824 303.186 286.024C304.007 285.214 305.005 284.808 306.178 284.808C307.351 284.808 308.343 285.214 309.154 286.024C309.975 286.824 310.386 287.816 310.386 289C310.386 290.184 309.975 291.182 309.154 291.992ZM303.938 291.256C304.546 291.864 305.293 292.168 306.178 292.168C307.063 292.168 307.81 291.864 308.418 291.256C309.026 290.638 309.33 289.886 309.33 289C309.33 288.115 309.026 287.368 308.418 286.76C307.81 286.142 307.063 285.832 306.178 285.832C305.293 285.832 304.546 286.142 303.938 286.76C303.33 287.368 303.026 288.115 303.026 289C303.026 289.886 303.33 290.638 303.938 291.256ZM319.097 293H317.689L313.689 289.144V293H312.633V285H313.689V288.536L317.497 285H318.937L314.809 288.84L319.097 293ZM326.844 285H327.74V293H326.684V286.84L321.916 293H321.02V285H322.076V291.16L326.844 285Z" fill="white"/>
<path d="M56.1613 330L58.2253 326.432H58.2573L63.1213 318H66.0653L59.1053 330H56.1613ZM58.2253 328.256L52.2413 318H55.2333L60.0973 326.368L58.2253 328.256ZM66.9662 320.896H76.3742V330H73.7022V321.696L74.9342 322.912H68.2942L69.4462 321.92C69.4995 322.571 69.5422 323.174 69.5742 323.728C69.6168 324.272 69.6382 324.763 69.6382 325.2C69.6382 326.95 69.3768 328.219 68.8542 329.008C68.3422 329.798 67.5102 330.192 66.3582 330.192C66.0382 330.192 65.7288 330.155 65.4302 330.08C65.1422 330.016 64.8595 329.904 64.5822 329.744V327.808C64.7742 327.883 64.9608 327.942 65.1422 327.984C65.3342 328.016 65.5102 328.032 65.6702 328.032C66.2142 328.032 66.6035 327.787 66.8382 327.296C67.0835 326.795 67.2062 325.974 67.2062 324.832C67.2062 324.32 67.1848 323.734 67.1422 323.072C67.1102 322.411 67.0515 321.686 66.9662 320.896ZM88.6705 330.24C87.5505 330.24 86.5692 330.043 85.7265 329.648C84.8839 329.243 84.2279 328.683 83.7585 327.968C83.2999 327.243 83.0705 326.406 83.0705 325.456C83.0705 324.496 83.2999 323.659 83.7585 322.944C84.2279 322.219 84.8839 321.659 85.7265 321.264C86.5692 320.859 87.5505 320.656 88.6705 320.656C89.7905 320.656 90.7719 320.859 91.6145 321.264C92.4572 321.659 93.1132 322.219 93.5825 322.944C94.0519 323.659 94.2865 324.496 94.2865 325.456C94.2865 326.406 94.0519 327.243 93.5825 327.968C93.1132 328.683 92.4572 329.243 91.6145 329.648C90.7719 330.043 89.7905 330.24 88.6705 330.24ZM78.8625 330V320.896H81.5345V330H78.8625ZM80.3665 326.368V324.368H84.7665V326.368H80.3665ZM88.6705 328.208C89.2785 328.208 89.7959 328.096 90.2225 327.872C90.6599 327.648 90.9959 327.334 91.2305 326.928C91.4652 326.512 91.5825 326.022 91.5825 325.456C91.5825 324.88 91.4652 324.39 91.2305 323.984C90.9959 323.568 90.6599 323.248 90.2225 323.024C89.7959 322.8 89.2785 322.688 88.6705 322.688C88.0732 322.688 87.5559 322.8 87.1185 323.024C86.6812 323.248 86.3452 323.568 86.1105 323.984C85.8759 324.39 85.7585 324.88 85.7585 325.456C85.7585 326.022 85.8759 326.512 86.1105 326.928C86.3452 327.334 86.6812 327.648 87.1185 327.872C87.5559 328.096 88.0732 328.208 88.6705 328.208ZM101.895 330.24C100.647 330.24 99.5806 330.006 98.6953 329.536C97.8099 329.056 97.1326 328.368 96.6633 327.472C96.1939 326.576 95.9593 325.494 95.9593 324.224C95.9593 322.336 96.4659 320.848 97.4793 319.76C98.4926 318.672 99.9433 318.048 101.831 317.888C102.599 317.824 103.234 317.771 103.735 317.728C104.237 317.686 104.647 317.643 104.967 317.6C105.298 317.547 105.575 317.494 105.799 317.44C106.023 317.376 106.242 317.307 106.455 317.232V319.456C106.231 319.542 105.943 319.622 105.591 319.696C105.25 319.76 104.813 319.814 104.279 319.856C103.757 319.899 103.111 319.942 102.343 319.984C100.946 320.048 99.9059 320.432 99.2233 321.136C98.5406 321.84 98.1993 322.854 98.1993 324.176V324.608L98.1033 324.416C98.3166 323.84 98.6419 323.344 99.0793 322.928C99.5166 322.512 100.039 322.198 100.647 321.984C101.266 321.76 101.933 321.648 102.647 321.648C103.575 321.648 104.386 321.824 105.079 322.176C105.773 322.518 106.311 323.003 106.695 323.632C107.09 324.262 107.287 324.998 107.287 325.84C107.287 326.726 107.063 327.499 106.615 328.16C106.167 328.822 105.538 329.334 104.727 329.696C103.927 330.059 102.983 330.24 101.895 330.24ZM101.959 328.208C102.493 328.208 102.957 328.112 103.351 327.92C103.746 327.728 104.05 327.456 104.263 327.104C104.477 326.752 104.583 326.342 104.583 325.872C104.583 325.403 104.477 324.998 104.263 324.656C104.05 324.304 103.746 324.032 103.351 323.84C102.957 323.648 102.493 323.552 101.959 323.552C101.223 323.552 100.573 323.75 100.007 324.144C99.4419 324.528 99.0153 325.067 98.7273 325.76C98.8979 326.507 99.2713 327.104 99.8473 327.552C100.434 327.99 101.138 328.208 101.959 328.208ZM110.672 320.896H120.08V330H117.408V321.696L118.64 322.912H112L113.152 321.92C113.205 322.571 113.248 323.174 113.28 323.728C113.322 324.272 113.344 324.763 113.344 325.2C113.344 326.95 113.082 328.219 112.56 329.008C112.048 329.798 111.216 330.192 110.064 330.192C109.744 330.192 109.434 330.155 109.136 330.08C108.848 330.016 108.565 329.904 108.288 329.744V327.808C108.48 327.883 108.666 327.942 108.848 327.984C109.04 328.016 109.216 328.032 109.376 328.032C109.92 328.032 110.309 327.787 110.544 327.296C110.789 326.795 110.912 325.974 110.912 324.832C110.912 324.32 110.89 323.734 110.848 323.072C110.816 322.411 110.757 321.686 110.672 320.896ZM127.704 330.24C126.627 330.24 125.661 330.043 124.808 329.648C123.965 329.243 123.299 328.678 122.808 327.952C122.328 327.227 122.088 326.384 122.088 325.424C122.088 324.475 122.317 323.643 122.776 322.928C123.245 322.214 123.885 321.659 124.696 321.264C125.507 320.859 126.429 320.656 127.464 320.656C128.52 320.656 129.427 320.891 130.184 321.36C130.941 321.819 131.523 322.47 131.928 323.312C132.344 324.155 132.552 325.147 132.552 326.288H124.232V324.512H131.112L130.072 325.152C130.029 324.619 129.896 324.166 129.672 323.792C129.459 323.419 129.165 323.131 128.792 322.928C128.419 322.726 127.981 322.624 127.48 322.624C126.936 322.624 126.461 322.736 126.056 322.96C125.661 323.174 125.352 323.478 125.128 323.872C124.915 324.256 124.808 324.71 124.808 325.232C124.808 325.862 124.947 326.4 125.224 326.848C125.501 327.296 125.907 327.638 126.44 327.872C126.973 328.107 127.619 328.224 128.376 328.224C129.059 328.224 129.747 328.128 130.44 327.936C131.133 327.734 131.757 327.451 132.312 327.088V328.88C131.715 329.307 131.016 329.643 130.216 329.888C129.427 330.123 128.589 330.24 127.704 330.24ZM134.595 320.896H137.251V330H134.595V320.896ZM142.227 320.896H144.883V330H142.227V320.896ZM136.115 324.352H143.267V326.368H136.115V324.352ZM147.372 330V320.896H149.996V328.592L149.34 328.416L154.828 320.896H158.268V330H155.644V322.16L156.3 322.352L150.716 330H147.372ZM160.758 330V320.896H163.382V328.592L162.726 328.416L168.214 320.896H171.654V330H169.03V322.16L169.686 322.352L164.102 330H160.758ZM166.134 320.064C165.099 320.064 164.267 319.814 163.638 319.312C163.009 318.8 162.619 318.059 162.47 317.088H164.566C164.641 317.547 164.811 317.899 165.078 318.144C165.355 318.379 165.707 318.496 166.134 318.496C166.561 318.496 166.907 318.379 167.174 318.144C167.441 317.899 167.617 317.547 167.702 317.088H169.782C169.643 318.059 169.254 318.8 168.614 319.312C167.985 319.814 167.158 320.064 166.134 320.064ZM186.27 320.896V322.944H180.158L181.39 321.728V330H178.718V320.896H186.27ZM190.54 332.88C189.942 332.88 189.404 332.806 188.924 332.656C188.444 332.507 187.99 332.288 187.564 332V330.08C188.012 330.368 188.438 330.576 188.844 330.704C189.249 330.832 189.697 330.896 190.188 330.896C190.625 330.896 191.014 330.795 191.356 330.592C191.697 330.4 191.98 330.054 192.204 329.552L195.996 320.896H198.828L194.284 330.416C194.006 331.014 193.67 331.494 193.276 331.856C192.881 332.219 192.449 332.48 191.98 332.64C191.521 332.8 191.041 332.88 190.54 332.88ZM191.116 329.424L187.1 320.896H190.044L193.724 329.424H191.116ZM200.381 320.896H203.053V323.792L202.941 324.144V326.336L203.053 326.992V332.64H200.381V320.896ZM202.125 325.456C202.307 324.486 202.621 323.643 203.069 322.928C203.528 322.203 204.099 321.643 204.781 321.248C205.475 320.854 206.243 320.656 207.085 320.656C207.981 320.656 208.765 320.859 209.437 321.264C210.12 321.659 210.653 322.219 211.037 322.944C211.421 323.659 211.613 324.496 211.613 325.456C211.613 326.406 211.421 327.243 211.037 327.968C210.653 328.683 210.12 329.243 209.437 329.648C208.765 330.043 207.981 330.24 207.085 330.24C206.232 330.24 205.464 330.043 204.781 329.648C204.109 329.254 203.544 328.699 203.085 327.984C202.627 327.259 202.307 326.416 202.125 325.456ZM208.909 325.456C208.909 324.923 208.797 324.454 208.573 324.048C208.36 323.632 208.061 323.312 207.677 323.088C207.293 322.854 206.851 322.736 206.349 322.736C205.848 322.736 205.373 322.854 204.925 323.088C204.477 323.312 204.083 323.632 203.741 324.048C203.411 324.454 203.149 324.923 202.957 325.456C203.149 325.99 203.411 326.459 203.741 326.864C204.083 327.27 204.477 327.59 204.925 327.824C205.373 328.048 205.848 328.16 206.349 328.16C206.851 328.16 207.293 328.048 207.677 327.824C208.061 327.59 208.36 327.27 208.573 326.864C208.797 326.459 208.909 325.99 208.909 325.456ZM216.162 321.824H218.834V330H216.162V321.824ZM212.546 320.896H222.45V322.944H212.546V320.896ZM225.626 330.144C225.178 330.144 224.804 330 224.506 329.712C224.218 329.424 224.074 329.062 224.074 328.624C224.074 328.187 224.218 327.824 224.506 327.536C224.804 327.248 225.178 327.104 225.626 327.104C226.084 327.104 226.458 327.248 226.746 327.536C227.044 327.824 227.194 328.187 227.194 328.624C227.194 329.062 227.044 329.424 226.746 329.712C226.458 330 226.084 330.144 225.626 330.144ZM225.626 324.48C225.178 324.48 224.804 324.336 224.506 324.048C224.218 323.76 224.074 323.398 224.074 322.96C224.074 322.523 224.218 322.16 224.506 321.872C224.804 321.584 225.178 321.44 225.626 321.44C226.084 321.44 226.458 321.584 226.746 321.872C227.044 322.16 227.194 322.523 227.194 322.96C227.194 323.398 227.044 323.76 226.746 324.048C226.458 324.336 226.084 324.48 225.626 324.48Z" fill="white"/>
<path d="M277.233 329H275.761L270.513 323.576V329H269.393V317.8H270.513V322.92L275.601 317.8H277.073L271.697 323.24L277.233 329ZM280.067 319.08C279.917 319.23 279.736 319.304 279.523 319.304C279.309 319.304 279.128 319.23 278.979 319.08C278.829 318.931 278.755 318.75 278.755 318.536C278.755 318.323 278.829 318.142 278.979 317.992C279.128 317.843 279.309 317.768 279.523 317.768C279.736 317.768 279.917 317.843 280.067 317.992C280.216 318.142 280.291 318.323 280.291 318.536C280.291 318.75 280.216 318.931 280.067 319.08ZM278.995 329V321H280.051V329H278.995ZM283.603 323.096C283.603 323.459 283.763 323.747 284.083 323.96C284.403 324.174 284.793 324.339 285.251 324.456C285.71 324.574 286.169 324.707 286.627 324.856C287.086 324.995 287.475 325.235 287.795 325.576C288.115 325.907 288.275 326.344 288.275 326.888C288.275 327.571 288.003 328.126 287.459 328.552C286.926 328.979 286.233 329.192 285.379 329.192C284.611 329.192 283.955 329.022 283.411 328.68C282.878 328.339 282.505 327.896 282.291 327.352L283.187 326.824C283.337 327.24 283.603 327.571 283.987 327.816C284.382 328.051 284.846 328.168 285.379 328.168C285.902 328.168 286.339 328.067 286.691 327.864C287.043 327.651 287.219 327.326 287.219 326.888C287.219 326.526 287.059 326.238 286.739 326.024C286.419 325.811 286.03 325.646 285.571 325.528C285.113 325.411 284.654 325.283 284.195 325.144C283.737 324.995 283.347 324.755 283.027 324.424C282.707 324.083 282.547 323.64 282.547 323.096C282.547 322.446 282.803 321.902 283.315 321.464C283.838 321.027 284.494 320.808 285.283 320.808C285.934 320.808 286.505 320.958 286.995 321.256C287.486 321.544 287.849 321.939 288.083 322.44L287.203 322.952C286.894 322.206 286.254 321.832 285.283 321.832C284.825 321.832 284.43 321.944 284.099 322.168C283.769 322.382 283.603 322.691 283.603 323.096ZM290.865 323.096C290.865 323.459 291.025 323.747 291.345 323.96C291.665 324.174 292.054 324.339 292.513 324.456C292.971 324.574 293.43 324.707 293.889 324.856C294.347 324.995 294.737 325.235 295.057 325.576C295.377 325.907 295.537 326.344 295.537 326.888C295.537 327.571 295.265 328.126 294.721 328.552C294.187 328.979 293.494 329.192 292.641 329.192C291.873 329.192 291.217 329.022 290.673 328.68C290.139 328.339 289.766 327.896 289.553 327.352L290.449 326.824C290.598 327.24 290.865 327.571 291.249 327.816C291.643 328.051 292.107 328.168 292.641 328.168C293.163 328.168 293.601 328.067 293.953 327.864C294.305 327.651 294.481 327.326 294.481 326.888C294.481 326.526 294.321 326.238 294.001 326.024C293.681 325.811 293.291 325.646 292.833 325.528C292.374 325.411 291.915 325.283 291.457 325.144C290.998 324.995 290.609 324.755 290.289 324.424C289.969 324.083 289.809 323.64 289.809 323.096C289.809 322.446 290.065 321.902 290.577 321.464C291.099 321.027 291.755 320.808 292.545 320.808C293.195 320.808 293.766 320.958 294.257 321.256C294.747 321.544 295.11 321.939 295.345 322.44L294.465 322.952C294.155 322.206 293.515 321.832 292.545 321.832C292.086 321.832 291.691 321.944 291.361 322.168C291.03 322.382 290.865 322.691 290.865 323.096ZM299.382 327.64L298.422 331.24H297.462L298.102 327.64H299.382ZM318.586 329H317.274L312.666 323.528V329H311.546V323.528L306.938 329H305.626L310.442 323.24L305.786 317.8H307.098L311.546 322.968V317.8H312.666V322.968L317.114 317.8H318.426L313.77 323.24L318.586 329ZM326.661 321H327.717V329H326.661V327.432C325.925 328.606 324.847 329.192 323.429 329.192C322.287 329.192 321.311 328.787 320.501 327.976C319.701 327.166 319.301 326.174 319.301 325C319.301 323.827 319.701 322.835 320.501 322.024C321.311 321.214 322.287 320.808 323.429 320.808C324.847 320.808 325.925 321.395 326.661 322.568V321ZM321.269 327.256C321.877 327.864 322.623 328.168 323.509 328.168C324.394 328.168 325.141 327.864 325.749 327.256C326.357 326.638 326.661 325.886 326.661 325C326.661 324.115 326.357 323.368 325.749 322.76C325.141 322.142 324.394 321.832 323.509 321.832C322.623 321.832 321.877 322.142 321.269 322.76C320.661 323.368 320.357 324.115 320.357 325C320.357 325.886 320.661 326.638 321.269 327.256ZM337.153 327.976H338.273V331.144H337.217V329H330.689V331.144H329.633V327.976H330.609C331.153 327.262 331.425 326.254 331.425 324.952V321H337.153V327.976ZM331.889 327.976H336.097V322.024H332.481V324.952C332.481 326.179 332.283 327.187 331.889 327.976ZM346.918 321H347.974V329H346.918V327.432C346.182 328.606 345.104 329.192 343.686 329.192C342.544 329.192 341.568 328.787 340.758 327.976C339.958 327.166 339.558 326.174 339.558 325C339.558 323.827 339.958 322.835 340.758 322.024C341.568 321.214 342.544 320.808 343.686 320.808C345.104 320.808 346.182 321.395 346.918 322.568V321ZM341.526 327.256C342.134 327.864 342.88 328.168 343.766 328.168C344.651 328.168 345.398 327.864 346.006 327.256C346.614 326.638 346.918 325.886 346.918 325C346.918 324.115 346.614 323.368 346.006 322.76C345.398 322.142 344.651 321.832 343.766 321.832C342.88 321.832 342.134 322.142 341.526 322.76C340.918 323.368 340.614 324.115 340.614 325C340.614 325.886 340.918 326.638 341.526 327.256ZM356.354 321H357.41V329H356.354V325.512H351.746V329H350.69V321H351.746V324.488H356.354V321ZM270.305 339.08C270.156 339.23 269.975 339.304 269.761 339.304C269.548 339.304 269.367 339.23 269.217 339.08C269.068 338.931 268.993 338.75 268.993 338.536C268.993 338.323 269.068 338.142 269.217 337.992C269.367 337.843 269.548 337.768 269.761 337.768C269.975 337.768 270.156 337.843 270.305 337.992C270.455 338.142 270.529 338.323 270.529 338.536C270.529 338.75 270.455 338.931 270.305 339.08ZM269.233 349V341H270.289V349H269.233ZM282.882 349.192C281.186 349.192 279.783 348.632 278.674 347.512C277.565 346.392 277.01 345.022 277.01 343.4C277.01 341.779 277.565 340.408 278.674 339.288C279.783 338.168 281.186 337.608 282.882 337.608C283.917 337.608 284.866 337.859 285.73 338.36C286.594 338.851 287.261 339.518 287.73 340.36L286.738 340.936C286.386 340.254 285.863 339.71 285.17 339.304C284.477 338.899 283.714 338.696 282.882 338.696C281.485 338.696 280.343 339.15 279.458 340.056C278.573 340.963 278.13 342.078 278.13 343.4C278.13 344.723 278.573 345.838 279.458 346.744C280.343 347.651 281.485 348.104 282.882 348.104C283.714 348.104 284.477 347.902 285.17 347.496C285.863 347.091 286.386 346.547 286.738 345.864L287.73 346.424C287.271 347.267 286.605 347.939 285.73 348.44C284.866 348.942 283.917 349.192 282.882 349.192ZM296.518 347.992C295.707 348.792 294.715 349.192 293.542 349.192C292.369 349.192 291.371 348.792 290.55 347.992C289.739 347.182 289.334 346.184 289.334 345C289.334 343.816 289.739 342.824 290.55 342.024C291.371 341.214 292.369 340.808 293.542 340.808C294.715 340.808 295.707 341.214 296.518 342.024C297.339 342.824 297.75 343.816 297.75 345C297.75 346.184 297.339 347.182 296.518 347.992ZM291.302 347.256C291.91 347.864 292.657 348.168 293.542 348.168C294.427 348.168 295.174 347.864 295.782 347.256C296.39 346.638 296.694 345.886 296.694 345C296.694 344.115 296.39 343.368 295.782 342.76C295.174 342.142 294.427 341.832 293.542 341.832C292.657 341.832 291.91 342.142 291.302 342.76C290.694 343.368 290.39 344.115 290.39 345C290.39 345.886 290.694 346.638 291.302 347.256ZM303.549 349.192C302.397 349.192 301.437 348.814 300.669 348.056C299.901 347.288 299.517 346.296 299.517 345.08C299.517 343.715 299.72 342.67 300.125 341.944C300.53 341.208 301.352 340.542 302.589 339.944C302.824 339.827 303.133 339.688 303.517 339.528C303.912 339.368 304.205 339.24 304.397 339.144C304.6 339.048 304.818 338.926 305.053 338.776C305.288 338.616 305.464 338.44 305.581 338.248C305.698 338.056 305.773 337.827 305.805 337.56L306.637 338.04C306.594 338.296 306.509 338.536 306.381 338.76C306.253 338.984 306.12 339.166 305.981 339.304C305.853 339.443 305.645 339.598 305.357 339.768C305.08 339.928 304.861 340.046 304.701 340.12C304.552 340.184 304.285 340.296 303.901 340.456C303.528 340.616 303.277 340.723 303.149 340.776C302.402 341.096 301.853 341.432 301.501 341.784C301.149 342.126 300.898 342.574 300.749 343.128C301.112 342.648 301.57 342.296 302.125 342.072C302.69 341.838 303.24 341.72 303.773 341.72C304.84 341.72 305.72 342.072 306.413 342.776C307.117 343.47 307.469 344.36 307.469 345.448C307.469 346.526 307.096 347.422 306.349 348.136C305.613 348.84 304.68 349.192 303.549 349.192ZM303.549 348.136C304.381 348.136 305.064 347.886 305.597 347.384C306.141 346.872 306.413 346.227 306.413 345.448C306.413 344.659 306.157 344.014 305.645 343.512C305.144 343 304.472 342.744 303.629 342.744C302.872 342.744 302.184 342.984 301.565 343.464C300.946 343.934 300.637 344.563 300.637 345.352C300.637 346.163 300.914 346.83 301.469 347.352C302.034 347.875 302.728 348.136 303.549 348.136ZM316.435 341H317.491V349H316.435V347.432C315.699 348.606 314.622 349.192 313.203 349.192C312.062 349.192 311.086 348.787 310.275 347.976C309.475 347.166 309.075 346.174 309.075 345C309.075 343.827 309.475 342.835 310.275 342.024C311.086 341.214 312.062 340.808 313.203 340.808C314.622 340.808 315.699 341.395 316.435 342.568V341ZM311.043 347.256C311.651 347.864 312.398 348.168 313.283 348.168C314.168 348.168 314.915 347.864 315.523 347.256C316.131 346.638 316.435 345.886 316.435 345C316.435 344.115 316.131 343.368 315.523 342.76C314.915 342.142 314.168 341.832 313.283 341.832C312.398 341.832 311.651 342.142 311.043 342.76C310.435 343.368 310.131 344.115 310.131 345C310.131 345.886 310.435 346.638 311.043 347.256ZM326.671 349H325.263L321.263 345.144V349H320.207V341H321.263V344.536L325.071 341H326.511L322.383 344.84L326.671 349ZM334.417 341H335.313V349H334.257V342.84L329.489 349H328.593V341H329.649V347.16L334.417 341Z" fill="white"/>
</svg>
