<svg width="450" height="545" viewBox="0 0 450 545" fill="none" xmlns="http://www.w3.org/2000/svg">
<path d="M2.63033 304.636L45.2599 501.117C50.6756 526.078 74.0338 542.944 99.4314 540.233L395.665 508.604C420.494 505.953 439.561 485.391 440.333 460.433L449.826 153.596C449.942 149.857 449.637 146.118 448.919 142.447L429.322 42.3116C424.564 17.9991 402.721 0.836536 377.973 1.9665L251.733 7.7305L121.533 1.80691C98.2835 0.749125 77.3784 15.8731 71.1091 38.2867L3.34162 280.566C1.14714 288.412 0.902962 296.674 2.63033 304.636Z" fill="#C0B7EE"/>
<path d="M53.232 162V150H55.936V159.792L55.168 159.248L62.592 150H65.488L55.68 162H53.232ZM58.96 156.128L60.912 154.384L65.664 162H62.56L58.96 156.128ZM67.0974 152.8L68.4254 153.056L69.7694 152.8V162H67.0974V152.8ZM68.4254 151.856C67.9454 151.856 67.5507 151.733 67.2414 151.488C66.9427 151.232 66.7934 150.896 66.7934 150.48C66.7934 150.053 66.9427 149.717 67.2414 149.472C67.5507 149.216 67.9454 149.088 68.4254 149.088C68.916 149.088 69.3107 149.216 69.6094 149.472C69.908 149.717 70.0574 150.053 70.0574 150.48C70.0574 150.896 69.908 151.232 69.6094 151.488C69.3107 151.733 68.916 151.856 68.4254 151.856ZM73.8329 152.896H83.2409V162H80.5689V153.696L81.8009 154.912H75.1609L76.3129 153.92C76.3662 154.571 76.4089 155.173 76.4409 155.728C76.4835 156.272 76.5049 156.763 76.5049 157.2C76.5049 158.949 76.2435 160.219 75.7209 161.008C75.2089 161.797 74.3769 162.192 73.2249 162.192C72.9049 162.192 72.5955 162.155 72.2969 162.08C72.0089 162.016 71.7262 161.904 71.4489 161.744V159.808C71.6409 159.883 71.8275 159.941 72.0089 159.984C72.2009 160.016 72.3769 160.032 72.5369 160.032C73.0809 160.032 73.4702 159.787 73.7049 159.296C73.9502 158.795 74.0729 157.973 74.0729 156.832C74.0729 156.32 74.0515 155.733 74.0089 155.072C73.9769 154.411 73.9182 153.685 73.8329 152.896ZM85.7292 162V152.896H88.3852V161.312L87.5212 160.08H91.0732C91.5639 160.08 91.9426 159.963 92.2092 159.728C92.4759 159.483 92.6092 159.152 92.6092 158.736C92.6092 158.299 92.4759 157.963 92.2092 157.728C91.9426 157.483 91.5639 157.36 91.0732 157.36H87.5372V155.52H91.4732C92.2519 155.52 92.9239 155.659 93.4892 155.936C94.0652 156.203 94.5132 156.581 94.8332 157.072C95.1532 157.552 95.3132 158.117 95.3132 158.768C95.3132 159.408 95.1532 159.973 94.8332 160.464C94.5132 160.955 94.0706 161.333 93.5052 161.6C92.9399 161.867 92.2732 162 91.5052 162H85.7292ZM97.0999 162V152.896H99.7719V159.84L98.9879 159.568L104.412 152.896H107.324L99.4999 162H97.0999ZM104.54 162L101.82 157.536L103.788 156.016L107.596 162H104.54ZM108.986 152.8L110.314 153.056L111.658 152.8V162H108.986V152.8ZM110.314 151.856C109.834 151.856 109.439 151.733 109.13 151.488C108.831 151.232 108.682 150.896 108.682 150.48C108.682 150.053 108.831 149.717 109.13 149.472C109.439 149.216 109.834 149.088 110.314 149.088C110.805 149.088 111.199 149.216 111.498 149.472C111.797 149.717 111.946 150.053 111.946 150.48C111.946 150.896 111.797 151.232 111.498 151.488C111.199 151.733 110.805 151.856 110.314 151.856ZM124.602 158.288C124.495 159.067 124.191 159.755 123.69 160.352C123.199 160.949 122.564 161.413 121.786 161.744C121.007 162.075 120.138 162.24 119.178 162.24C118.09 162.24 117.13 162.043 116.298 161.648C115.476 161.243 114.831 160.677 114.362 159.952C113.903 159.227 113.674 158.395 113.674 157.456C113.674 156.507 113.903 155.675 114.362 154.96C114.831 154.235 115.476 153.669 116.298 153.264C117.13 152.859 118.09 152.656 119.178 152.656C120.138 152.656 121.007 152.827 121.786 153.168C122.564 153.499 123.199 153.963 123.69 154.56C124.191 155.147 124.495 155.835 124.602 156.624H121.93C121.791 156.005 121.471 155.531 120.97 155.2C120.479 154.859 119.882 154.688 119.178 154.688C118.612 154.688 118.116 154.8 117.69 155.024C117.274 155.237 116.954 155.552 116.73 155.968C116.506 156.373 116.394 156.869 116.394 157.456C116.394 158.032 116.506 158.528 116.73 158.944C116.954 159.349 117.274 159.664 117.69 159.888C118.116 160.101 118.612 160.208 119.178 160.208C119.892 160.208 120.495 160.032 120.986 159.68C121.487 159.328 121.802 158.864 121.93 158.288H124.602ZM129.013 153.824H131.685V162H129.013V153.824ZM125.397 152.896H135.301V154.944H125.397V152.896ZM137.004 162V152.896H139.66V161.312L138.796 160.08H142.348C142.839 160.08 143.218 159.963 143.484 159.728C143.751 159.483 143.884 159.152 143.884 158.736C143.884 158.299 143.751 157.963 143.484 157.728C143.218 157.483 142.839 157.36 142.348 157.36H138.812V155.52H142.748C143.527 155.52 144.199 155.659 144.764 155.936C145.34 156.203 145.788 156.581 146.108 157.072C146.428 157.552 146.588 158.117 146.588 158.768C146.588 159.408 146.428 159.973 146.108 160.464C145.788 160.955 145.346 161.333 144.78 161.6C144.215 161.867 143.548 162 142.78 162H137.004ZM53.008 172.896H55.68V175.792L55.568 176.144V178.336L55.68 178.992V184.64H53.008V172.896ZM54.752 177.456C54.9333 176.485 55.248 175.643 55.696 174.928C56.1547 174.203 56.7253 173.643 57.408 173.248C58.1013 172.853 58.8693 172.656 59.712 172.656C60.608 172.656 61.392 172.859 62.064 173.264C62.7467 173.659 63.28 174.219 63.664 174.944C64.048 175.659 64.24 176.496 64.24 177.456C64.24 178.405 64.048 179.243 63.664 179.968C63.28 180.683 62.7467 181.243 62.064 181.648C61.392 182.043 60.608 182.24 59.712 182.24C58.8587 182.24 58.0907 182.043 57.408 181.648C56.736 181.253 56.1707 180.699 55.712 179.984C55.2533 179.259 54.9333 178.416 54.752 177.456ZM61.536 177.456C61.536 176.923 61.424 176.453 61.2 176.048C60.9867 175.632 60.688 175.312 60.304 175.088C59.92 174.853 59.4773 174.736 58.976 174.736C58.4747 174.736 58 174.853 57.552 175.088C57.104 175.312 56.7093 175.632 56.368 176.048C56.0373 176.453 55.776 176.923 55.584 177.456C55.776 177.989 56.0373 178.459 56.368 178.864C56.7093 179.269 57.104 179.589 57.552 179.824C58 180.048 58.4747 180.16 58.976 180.16C59.4773 180.16 59.92 180.048 60.304 179.824C60.688 179.589 60.9867 179.269 61.2 178.864C61.424 178.459 61.536 177.989 61.536 177.456ZM71.4209 182.24C70.3435 182.24 69.3782 182.043 68.5249 181.648C67.6822 181.243 67.0155 180.677 66.5249 179.952C66.0449 179.227 65.8049 178.384 65.8049 177.424C65.8049 176.475 66.0342 175.643 66.4929 174.928C66.9622 174.213 67.6022 173.659 68.4129 173.264C69.2235 172.859 70.1462 172.656 71.1809 172.656C72.2369 172.656 73.1435 172.891 73.9009 173.36C74.6582 173.819 75.2395 174.469 75.6449 175.312C76.0609 176.155 76.2689 177.147 76.2689 178.288H67.9489V176.512H74.8289L73.7889 177.152C73.7462 176.619 73.6129 176.165 73.3889 175.792C73.1755 175.419 72.8822 175.131 72.5089 174.928C72.1355 174.725 71.6982 174.624 71.1969 174.624C70.6529 174.624 70.1782 174.736 69.7729 174.96C69.3782 175.173 69.0689 175.477 68.8449 175.872C68.6315 176.256 68.5249 176.709 68.5249 177.232C68.5249 177.861 68.6635 178.4 68.9409 178.848C69.2182 179.296 69.6235 179.637 70.1569 179.872C70.6902 180.107 71.3355 180.224 72.0929 180.224C72.7755 180.224 73.4635 180.128 74.1569 179.936C74.8502 179.733 75.4742 179.451 76.0289 179.088V180.88C75.4315 181.307 74.7329 181.643 73.9329 181.888C73.1435 182.123 72.3062 182.24 71.4209 182.24ZM86.6477 182L86.2637 178.672L86.6957 177.456L86.2637 176.256L86.6477 172.896H89.4157L88.8877 177.456L89.4157 182H86.6477ZM87.3517 177.456C87.1811 178.416 86.8664 179.259 86.4077 179.984C85.9597 180.699 85.3891 181.253 84.6957 181.648C84.0131 182.043 83.2451 182.24 82.3917 182.24C81.5064 182.24 80.7224 182.043 80.0397 181.648C79.3571 181.243 78.8237 180.683 78.4397 179.968C78.0664 179.243 77.8797 178.405 77.8797 177.456C77.8797 176.496 78.0664 175.659 78.4397 174.944C78.8237 174.219 79.3571 173.659 80.0397 173.264C80.7224 172.859 81.5064 172.656 82.3917 172.656C83.2451 172.656 84.0131 172.853 84.6957 173.248C85.3891 173.643 85.9651 174.203 86.4237 174.928C86.8824 175.643 87.1917 176.485 87.3517 177.456ZM80.5837 177.456C80.5837 177.989 80.6904 178.459 80.9037 178.864C81.1277 179.269 81.4317 179.589 81.8157 179.824C82.1997 180.048 82.6424 180.16 83.1437 180.16C83.6451 180.16 84.1144 180.048 84.5517 179.824C84.9997 179.589 85.3944 179.269 85.7357 178.864C86.0771 178.459 86.3437 177.989 86.5357 177.456C86.3437 176.923 86.0771 176.453 85.7357 176.048C85.3944 175.632 84.9997 175.312 84.5517 175.088C84.1144 174.853 83.6451 174.736 83.1437 174.736C82.6424 174.736 82.1997 174.853 81.8157 175.088C81.4317 175.312 81.1277 175.632 80.9037 176.048C80.6904 176.453 80.5837 176.923 80.5837 177.456ZM93.2504 172.896H102.658V182H99.9864V173.696L101.218 174.912H94.5784L95.7304 173.92C95.7837 174.571 95.8264 175.173 95.8584 175.728C95.901 176.272 95.9224 176.763 95.9224 177.2C95.9224 178.949 95.661 180.219 95.1384 181.008C94.6264 181.797 93.7944 182.192 92.6424 182.192C92.3224 182.192 92.013 182.155 91.7144 182.08C91.4264 182.016 91.1437 181.904 90.8664 181.744V179.808C91.0584 179.883 91.245 179.941 91.4264 179.984C91.6184 180.016 91.7944 180.032 91.9544 180.032C92.4984 180.032 92.8877 179.787 93.1224 179.296C93.3677 178.795 93.4904 177.973 93.4904 176.832C93.4904 176.32 93.469 175.733 93.4264 175.072C93.3944 174.411 93.3357 173.685 93.2504 172.896ZM105.147 172.8L106.475 173.056L107.819 172.8V182H105.147V172.8ZM106.475 171.856C105.995 171.856 105.6 171.733 105.291 171.488C104.992 171.232 104.843 170.896 104.843 170.48C104.843 170.053 104.992 169.717 105.291 169.472C105.6 169.216 105.995 169.088 106.475 169.088C106.965 169.088 107.36 169.216 107.659 169.472C107.957 169.717 108.107 170.053 108.107 170.48C108.107 170.896 107.957 171.232 107.659 171.488C107.36 171.733 106.965 171.856 106.475 171.856ZM114.81 182.24C113.797 182.24 112.912 182.112 112.154 181.856C111.397 181.589 110.805 181.211 110.378 180.72C109.952 180.219 109.717 179.632 109.674 178.96H112.266C112.341 179.408 112.597 179.749 113.034 179.984C113.472 180.219 114.064 180.336 114.81 180.336C115.525 180.336 116.08 180.245 116.474 180.064C116.88 179.872 117.082 179.579 117.082 179.184C117.082 178.864 116.912 178.629 116.57 178.48C116.24 178.32 115.706 178.24 114.97 178.24H113.274V176.64H114.922C115.584 176.64 116.069 176.544 116.378 176.352C116.698 176.16 116.858 175.92 116.858 175.632C116.858 175.28 116.672 175.013 116.298 174.832C115.936 174.651 115.445 174.56 114.826 174.56C114.144 174.56 113.594 174.667 113.178 174.88C112.762 175.093 112.517 175.413 112.442 175.84H109.866C109.909 175.253 110.133 174.72 110.538 174.24C110.944 173.76 111.514 173.376 112.25 173.088C112.997 172.8 113.893 172.656 114.938 172.656C115.866 172.656 116.677 172.768 117.37 172.992C118.064 173.216 118.602 173.525 118.986 173.92C119.37 174.315 119.562 174.768 119.562 175.28C119.562 175.685 119.434 176.059 119.178 176.4C118.933 176.741 118.533 177.013 117.978 177.216C117.434 177.419 116.72 177.52 115.834 177.52V177.248C117.104 177.195 118.08 177.349 118.762 177.712C119.456 178.075 119.802 178.629 119.802 179.376C119.802 179.92 119.605 180.411 119.21 180.848C118.826 181.285 118.261 181.627 117.514 181.872C116.768 182.117 115.866 182.24 114.81 182.24ZM127.073 182.24C125.942 182.24 124.95 182.043 124.097 181.648C123.243 181.243 122.577 180.683 122.097 179.968C121.617 179.243 121.377 178.405 121.377 177.456C121.377 176.496 121.617 175.659 122.097 174.944C122.577 174.219 123.243 173.659 124.097 173.264C124.95 172.859 125.942 172.656 127.073 172.656C128.203 172.656 129.195 172.859 130.049 173.264C130.902 173.659 131.563 174.219 132.033 174.944C132.513 175.659 132.753 176.496 132.753 177.456C132.753 178.405 132.513 179.243 132.033 179.968C131.563 180.683 130.902 181.243 130.049 181.648C129.195 182.043 128.203 182.24 127.073 182.24ZM127.073 180.208C127.691 180.208 128.219 180.096 128.657 179.872C129.105 179.648 129.446 179.333 129.681 178.928C129.926 178.512 130.049 178.021 130.049 177.456C130.049 176.88 129.926 176.389 129.681 175.984C129.446 175.568 129.105 175.248 128.657 175.024C128.219 174.8 127.691 174.688 127.073 174.688C126.465 174.688 125.937 174.8 125.489 175.024C125.041 175.248 124.694 175.568 124.449 175.984C124.214 176.389 124.097 176.88 124.097 177.456C124.097 178.021 124.214 178.512 124.449 178.928C124.694 179.333 125.041 179.648 125.489 179.872C125.937 180.096 126.465 180.208 127.073 180.208ZM134.535 182L135.047 177.456L134.535 172.896H141.543C142.417 172.896 143.111 173.104 143.623 173.52C144.135 173.925 144.391 174.48 144.391 175.184C144.391 175.845 144.135 176.384 143.623 176.8C143.111 177.205 142.396 177.445 141.479 177.52L141.671 177.072C142.737 177.104 143.548 177.328 144.103 177.744C144.668 178.149 144.951 178.72 144.951 179.456C144.951 180.245 144.663 180.869 144.087 181.328C143.521 181.776 142.743 182 141.751 182H134.535ZM137.111 181.408L136.087 180.272H140.935C141.393 180.272 141.729 180.181 141.943 180C142.156 179.808 142.263 179.541 142.263 179.2C142.263 178.891 142.145 178.64 141.911 178.448C141.676 178.245 141.292 178.144 140.759 178.144H136.631V176.624H140.407C140.855 176.624 141.18 176.533 141.383 176.352C141.596 176.171 141.703 175.925 141.703 175.616C141.703 175.328 141.607 175.093 141.415 174.912C141.233 174.731 140.935 174.64 140.519 174.64H136.103L137.111 173.504L137.607 177.456L137.111 181.408ZM155.293 182L154.909 178.672L155.341 177.456L154.909 176.256L155.293 172.896H158.061L157.533 177.456L158.061 182H155.293ZM155.997 177.456C155.827 178.416 155.512 179.259 155.053 179.984C154.605 180.699 154.035 181.253 153.341 181.648C152.659 182.043 151.891 182.24 151.037 182.24C150.152 182.24 149.368 182.043 148.685 181.648C148.003 181.243 147.469 180.683 147.085 179.968C146.712 179.243 146.525 178.405 146.525 177.456C146.525 176.496 146.712 175.659 147.085 174.944C147.469 174.219 148.003 173.659 148.685 173.264C149.368 172.859 150.152 172.656 151.037 172.656C151.891 172.656 152.659 172.853 153.341 173.248C154.035 173.643 154.611 174.203 155.069 174.928C155.528 175.643 155.837 176.485 155.997 177.456ZM149.229 177.456C149.229 177.989 149.336 178.459 149.549 178.864C149.773 179.269 150.077 179.589 150.461 179.824C150.845 180.048 151.288 180.16 151.789 180.16C152.291 180.16 152.76 180.048 153.197 179.824C153.645 179.589 154.04 179.269 154.381 178.864C154.723 178.459 154.989 177.989 155.181 177.456C154.989 176.923 154.723 176.453 154.381 176.048C154.04 175.632 153.645 175.312 153.197 175.088C152.76 174.853 152.291 174.736 151.789 174.736C151.288 174.736 150.845 174.853 150.461 175.088C150.077 175.312 149.773 175.632 149.549 176.048C149.336 176.453 149.229 176.923 149.229 177.456ZM160.328 172.896H162.984V182H160.328V172.896ZM167.96 172.896H170.616V182H167.96V172.896ZM161.848 176.352H169V178.368H161.848V176.352ZM173.105 182V172.896H175.729V180.592L175.073 180.416L180.561 172.896H184.001V182H181.377V174.16L182.033 174.352L176.449 182H173.105ZM185.339 182L189.643 176.848L189.627 177.84L185.595 172.896H188.587L191.435 176.32H190.507L193.371 172.896H196.315L192.155 177.888L192.027 176.64L196.555 182H193.515L190.411 178.32H191.387L188.315 182H185.339ZM63.232 192.896V202H60.56V193.696L61.792 194.912H54.448L55.68 193.696V202H53.008V192.896H63.232ZM65.7224 192.896H68.3944V195.792L68.2824 196.144V198.336L68.3944 198.992V204.64H65.7224V192.896ZM67.4664 197.456C67.6477 196.485 67.9624 195.643 68.4104 194.928C68.869 194.203 69.4397 193.643 70.1224 193.248C70.8157 192.853 71.5837 192.656 72.4264 192.656C73.3224 192.656 74.1064 192.859 74.7784 193.264C75.461 193.659 75.9944 194.219 76.3784 194.944C76.7624 195.659 76.9544 196.496 76.9544 197.456C76.9544 198.405 76.7624 199.243 76.3784 199.968C75.9944 200.683 75.461 201.243 74.7784 201.648C74.1064 202.043 73.3224 202.24 72.4264 202.24C71.573 202.24 70.805 202.043 70.1224 201.648C69.4504 201.253 68.885 200.699 68.4264 199.984C67.9677 199.259 67.6477 198.416 67.4664 197.456ZM74.2504 197.456C74.2504 196.923 74.1384 196.453 73.9144 196.048C73.701 195.632 73.4024 195.312 73.0184 195.088C72.6344 194.853 72.1917 194.736 71.6904 194.736C71.189 194.736 70.7144 194.853 70.2664 195.088C69.8184 195.312 69.4237 195.632 69.0824 196.048C68.7517 196.453 68.4904 196.923 68.2984 197.456C68.4904 197.989 68.7517 198.459 69.0824 198.864C69.4237 199.269 69.8184 199.589 70.2664 199.824C70.7144 200.048 71.189 200.16 71.6904 200.16C72.1917 200.16 72.6344 200.048 73.0184 199.824C73.4024 199.589 73.701 199.269 73.9144 198.864C74.1384 198.459 74.2504 197.989 74.2504 197.456ZM84.2152 202.24C83.0846 202.24 82.0926 202.043 81.2392 201.648C80.3859 201.243 79.7192 200.683 79.2392 199.968C78.7592 199.243 78.5192 198.405 78.5192 197.456C78.5192 196.496 78.7592 195.659 79.2392 194.944C79.7192 194.219 80.3859 193.659 81.2392 193.264C82.0926 192.859 83.0846 192.656 84.2152 192.656C85.3459 192.656 86.3379 192.859 87.1912 193.264C88.0446 193.659 88.7059 194.219 89.1753 194.944C89.6552 195.659 89.8952 196.496 89.8952 197.456C89.8952 198.405 89.6552 199.243 89.1753 199.968C88.7059 200.683 88.0446 201.243 87.1912 201.648C86.3379 202.043 85.3459 202.24 84.2152 202.24ZM84.2152 200.208C84.8339 200.208 85.3619 200.096 85.7992 199.872C86.2472 199.648 86.5886 199.333 86.8232 198.928C87.0686 198.512 87.1912 198.021 87.1912 197.456C87.1912 196.88 87.0686 196.389 86.8232 195.984C86.5886 195.568 86.2472 195.248 85.7992 195.024C85.3619 194.8 84.8339 194.688 84.2152 194.688C83.6072 194.688 83.0792 194.8 82.6312 195.024C82.1832 195.248 81.8366 195.568 81.5912 195.984C81.3566 196.389 81.2392 196.88 81.2392 197.456C81.2392 198.021 81.3566 198.512 81.5912 198.928C81.8366 199.333 82.1832 199.648 82.6312 199.872C83.0792 200.096 83.6072 200.208 84.2152 200.208ZM96.9884 202.24C95.9004 202.24 94.935 202.043 94.0924 201.648C93.2604 201.243 92.6097 200.677 92.1404 199.952C91.6817 199.227 91.4524 198.395 91.4524 197.456C91.4524 196.507 91.6817 195.675 92.1404 194.96C92.6097 194.235 93.2604 193.669 94.0924 193.264C94.935 192.859 95.9004 192.656 96.9884 192.656C97.9484 192.656 98.8124 192.816 99.5804 193.136C100.348 193.456 100.978 193.899 101.468 194.464C101.97 195.019 102.284 195.669 102.412 196.416H99.8044C99.6444 195.872 99.3084 195.429 98.7964 195.088C98.2844 194.736 97.6817 194.56 96.9884 194.56C96.391 194.56 95.8737 194.677 95.4364 194.912C94.999 195.136 94.6577 195.467 94.4124 195.904C94.1777 196.331 94.0604 196.848 94.0604 197.456C94.0604 198.053 94.1777 198.571 94.4124 199.008C94.6577 199.435 94.999 199.765 95.4364 200C95.8737 200.224 96.391 200.336 96.9884 200.336C97.6817 200.336 98.2844 200.165 98.7964 199.824C99.3084 199.483 99.6444 199.035 99.8044 198.48H102.412C102.284 199.227 101.97 199.883 101.468 200.448C100.978 201.003 100.348 201.44 99.5804 201.76C98.8124 202.08 97.9484 202.24 96.9884 202.24ZM92.8444 198.272V196.624H98.3484V198.272H92.8444ZM104.319 202V192.896H106.991V199.84L106.207 199.568L111.631 192.896H114.543L106.719 202H104.319ZM111.759 202L109.039 197.536L111.007 196.016L114.815 202H111.759ZM119.037 193.824H121.709V202H119.037V193.824ZM115.421 192.896H125.325V194.944H115.421V192.896ZM127.029 192.8L128.357 193.056L129.701 192.8V202H127.029V192.8ZM128.357 191.856C127.877 191.856 127.482 191.733 127.173 191.488C126.874 191.232 126.725 190.896 126.725 190.48C126.725 190.053 126.874 189.717 127.173 189.472C127.482 189.216 127.877 189.088 128.357 189.088C128.847 189.088 129.242 189.216 129.541 189.472C129.839 189.717 129.989 190.053 129.989 190.48C129.989 190.896 129.839 191.232 129.541 191.488C129.242 191.733 128.847 191.856 128.357 191.856ZM131.972 202L132.484 197.456L131.972 192.896H138.98C139.855 192.896 140.548 193.104 141.06 193.52C141.572 193.925 141.828 194.48 141.828 195.184C141.828 195.845 141.572 196.384 141.06 196.8C140.548 197.205 139.833 197.445 138.916 197.52L139.108 197.072C140.175 197.104 140.985 197.328 141.54 197.744C142.105 198.149 142.388 198.72 142.388 199.456C142.388 200.245 142.1 200.869 141.524 201.328C140.959 201.776 140.18 202 139.188 202H131.972ZM134.548 201.408L133.524 200.272H138.372C138.831 200.272 139.167 200.181 139.38 200C139.593 199.808 139.7 199.541 139.7 199.2C139.7 198.891 139.583 198.64 139.348 198.448C139.113 198.245 138.729 198.144 138.196 198.144H134.068V196.624H137.844C138.292 196.624 138.617 196.533 138.82 196.352C139.033 196.171 139.14 195.925 139.14 195.616C139.14 195.328 139.044 195.093 138.852 194.912C138.671 194.731 138.372 194.64 137.956 194.64H133.54L134.548 193.504L135.044 197.456L134.548 201.408ZM52.784 222L53.296 217.456L52.784 212.896H59.792C60.6667 212.896 61.36 213.104 61.872 213.52C62.384 213.925 62.64 214.48 62.64 215.184C62.64 215.845 62.384 216.384 61.872 216.8C61.36 217.205 60.6453 217.445 59.728 217.52L59.92 217.072C60.9867 217.104 61.7973 217.328 62.352 217.744C62.9173 218.149 63.2 218.72 63.2 219.456C63.2 220.245 62.912 220.869 62.336 221.328C61.7707 221.776 60.992 222 60 222H52.784ZM55.36 221.408L54.336 220.272H59.184C59.6427 220.272 59.9787 220.181 60.192 220C60.4053 219.808 60.512 219.541 60.512 219.2C60.512 218.891 60.3947 218.64 60.16 218.448C59.9253 218.245 59.5413 218.144 59.008 218.144H54.88V216.624H58.656C59.104 216.624 59.4293 216.533 59.632 216.352C59.8453 216.171 59.952 215.925 59.952 215.616C59.952 215.328 59.856 215.093 59.664 214.912C59.4827 214.731 59.184 214.64 58.768 214.64H54.352L55.36 213.504L55.856 217.456L55.36 221.408ZM69.3645 218.08H72.1165C72.1805 218.485 72.3565 218.843 72.6445 219.152C72.9432 219.451 73.3378 219.685 73.8285 219.856C74.3298 220.016 74.9058 220.096 75.5565 220.096C76.5058 220.096 77.2525 219.963 77.7965 219.696C78.3512 219.419 78.6285 219.035 78.6285 218.544C78.6285 218.16 78.4685 217.867 78.1485 217.664C77.8392 217.451 77.2578 217.296 76.4045 217.2L73.9885 216.928C72.4312 216.757 71.3005 216.395 70.5965 215.84C69.9032 215.275 69.5565 214.491 69.5565 213.488C69.5565 212.699 69.7858 212.027 70.2445 211.472C70.7138 210.917 71.3698 210.496 72.2125 210.208C73.0552 209.909 74.0472 209.76 75.1885 209.76C76.2978 209.76 77.2845 209.925 78.1485 210.256C79.0125 210.576 79.7005 211.029 80.2125 211.616C80.7245 212.192 81.0018 212.869 81.0445 213.648H78.2925C78.2392 213.296 78.0792 212.992 77.8125 212.736C77.5565 212.469 77.1992 212.267 76.7405 212.128C76.2818 211.979 75.7432 211.904 75.1245 211.904C74.2605 211.904 73.5725 212.032 73.0605 212.288C72.5485 212.544 72.2925 212.907 72.2925 213.376C72.2925 213.739 72.4418 214.021 72.7405 214.224C73.0498 214.416 73.5885 214.56 74.3565 214.656L76.8685 214.96C77.9778 215.077 78.8578 215.269 79.5085 215.536C80.1698 215.792 80.6392 216.139 80.9165 216.576C81.2045 217.013 81.3485 217.568 81.3485 218.24C81.3485 219.04 81.1032 219.744 80.6125 220.352C80.1325 220.949 79.4552 221.413 78.5805 221.744C77.7058 222.075 76.6818 222.24 75.5085 222.24C74.3138 222.24 73.2632 222.069 72.3565 221.728C71.4498 221.376 70.7352 220.891 70.2125 220.272C69.6898 219.643 69.4072 218.912 69.3645 218.08ZM87.2571 222.24C86.4145 222.24 85.6945 222.069 85.0971 221.728C84.5105 221.376 84.0571 220.88 83.7371 220.24C83.4278 219.6 83.2731 218.843 83.2731 217.968V212.896H85.9451V217.568C85.9451 218.379 86.1371 218.997 86.5211 219.424C86.9051 219.84 87.4491 220.048 88.1531 220.048C88.6758 220.048 89.1185 219.941 89.4811 219.728C89.8545 219.504 90.1425 219.184 90.3451 218.768C90.5478 218.352 90.6491 217.867 90.6491 217.312L91.5131 217.776C91.4065 218.715 91.1558 219.52 90.7611 220.192C90.3665 220.853 89.8651 221.36 89.2571 221.712C88.6598 222.064 87.9931 222.24 87.2571 222.24ZM91.2091 222L90.6491 218.544V212.896H93.3211V218.944L93.8811 222H91.2091ZM95.9436 209.68H98.6156V215.792L98.2476 216.512V218.496L98.6156 219.232V222H95.9436V209.68ZM97.6716 217.456C97.8423 216.485 98.157 215.643 98.6156 214.928C99.0743 214.203 99.645 213.643 100.328 213.248C101.01 212.853 101.778 212.656 102.632 212.656C103.517 212.656 104.301 212.859 104.984 213.264C105.666 213.659 106.2 214.219 106.584 214.944C106.968 215.659 107.16 216.496 107.16 217.456C107.16 218.405 106.968 219.243 106.584 219.968C106.2 220.683 105.666 221.243 104.984 221.648C104.301 222.043 103.517 222.24 102.632 222.24C101.778 222.24 101.01 222.043 100.328 221.648C99.645 221.253 99.0743 220.699 98.6156 219.984C98.1676 219.259 97.853 218.416 97.6716 217.456ZM104.44 217.456C104.44 216.923 104.328 216.453 104.104 216.048C103.89 215.632 103.592 215.312 103.208 215.088C102.824 214.853 102.386 214.736 101.896 214.736C101.394 214.736 100.92 214.853 100.472 215.088C100.024 215.312 99.629 215.632 99.2876 216.048C98.957 216.453 98.6956 216.923 98.5036 217.456C98.6956 217.989 98.957 218.459 99.2876 218.864C99.629 219.269 100.024 219.589 100.472 219.824C100.92 220.048 101.394 220.16 101.896 220.16C102.386 220.16 102.824 220.048 103.208 219.824C103.592 219.589 103.89 219.269 104.104 218.864C104.328 218.459 104.44 217.989 104.44 217.456ZM108.742 212.896H111.414L111.99 216.368V222H109.318V215.968L108.742 212.896ZM115.238 212.656C116.048 212.656 116.742 212.832 117.318 213.184C117.894 213.525 118.331 214.016 118.63 214.656C118.939 215.296 119.094 216.059 119.094 216.944V222H116.422V217.344C116.422 216.523 116.24 215.904 115.878 215.488C115.526 215.061 115.008 214.848 114.326 214.848C113.846 214.848 113.43 214.965 113.078 215.2C112.726 215.424 112.454 215.739 112.262 216.144C112.08 216.549 111.99 217.035 111.99 217.6L111.11 217.136C111.216 216.176 111.462 215.365 111.846 214.704C112.23 214.043 112.71 213.536 113.286 213.184C113.872 212.832 114.523 212.656 115.238 212.656ZM122.326 212.656C123.136 212.656 123.83 212.832 124.406 213.184C124.992 213.525 125.435 214.016 125.734 214.656C126.043 215.296 126.198 216.059 126.198 216.944V222H123.526V217.344C123.526 216.523 123.344 215.904 122.982 215.488C122.63 215.061 122.112 214.848 121.43 214.848C120.95 214.848 120.534 214.965 120.182 215.2C119.83 215.424 119.558 215.739 119.366 216.144C119.184 216.549 119.094 217.035 119.094 217.6L118.214 217.136C118.32 216.176 118.566 215.365 118.95 214.704C119.334 214.043 119.814 213.536 120.39 213.184C120.976 212.832 121.622 212.656 122.326 212.656ZM136.896 222L136.512 218.672L136.944 217.456L136.512 216.256L136.896 212.896H139.664L139.136 217.456L139.664 222H136.896ZM137.6 217.456C137.429 218.416 137.115 219.259 136.656 219.984C136.208 220.699 135.637 221.253 134.944 221.648C134.261 222.043 133.493 222.24 132.64 222.24C131.755 222.24 130.971 222.043 130.288 221.648C129.605 221.243 129.072 220.683 128.688 219.968C128.315 219.243 128.128 218.405 128.128 217.456C128.128 216.496 128.315 215.659 128.688 214.944C129.072 214.219 129.605 213.659 130.288 213.264C130.971 212.859 131.755 212.656 132.64 212.656C133.493 212.656 134.261 212.853 134.944 213.248C135.637 213.643 136.213 214.203 136.672 214.928C137.131 215.643 137.44 216.485 137.6 217.456ZM130.832 217.456C130.832 217.989 130.939 218.459 131.152 218.864C131.376 219.269 131.68 219.589 132.064 219.824C132.448 220.048 132.891 220.16 133.392 220.16C133.893 220.16 134.363 220.048 134.8 219.824C135.248 219.589 135.643 219.269 135.984 218.864C136.325 218.459 136.592 217.989 136.784 217.456C136.592 216.923 136.325 216.453 135.984 216.048C135.643 215.632 135.248 215.312 134.8 215.088C134.363 214.853 133.893 214.736 133.392 214.736C132.891 214.736 132.448 214.853 132.064 215.088C131.68 215.312 131.376 215.632 131.152 216.048C130.939 216.453 130.832 216.923 130.832 217.456ZM141.499 212.896H144.203L144.747 216.176V222H142.075V215.888L141.499 212.896ZM149.179 212.8V215.104C148.901 215.04 148.624 214.992 148.347 214.96C148.069 214.928 147.808 214.912 147.563 214.912C147.029 214.912 146.549 215.024 146.123 215.248C145.696 215.472 145.36 215.819 145.115 216.288C144.869 216.757 144.747 217.349 144.747 218.064L144.187 217.392C144.251 216.741 144.368 216.133 144.539 215.568C144.709 214.992 144.944 214.491 145.243 214.064C145.552 213.627 145.931 213.285 146.379 213.04C146.827 212.784 147.36 212.656 147.979 212.656C148.181 212.656 148.384 212.672 148.587 212.704C148.8 212.725 148.997 212.757 149.179 212.8ZM150.895 212.8L152.223 213.056L153.567 212.8V222H150.895V212.8ZM152.223 211.856C151.743 211.856 151.348 211.733 151.039 211.488C150.74 211.232 150.591 210.896 150.591 210.48C150.591 210.053 150.74 209.717 151.039 209.472C151.348 209.216 151.743 209.088 152.223 209.088C152.714 209.088 153.108 209.216 153.407 209.472C153.706 209.717 153.855 210.053 153.855 210.48C153.855 210.896 153.706 211.232 153.407 211.488C153.108 211.733 152.714 211.856 152.223 211.856ZM155.63 212.896H158.302L158.878 216.368V222H156.206V215.968L155.63 212.896ZM162.35 212.656C163.214 212.656 163.95 212.832 164.558 213.184C165.166 213.525 165.63 214.016 165.95 214.656C166.27 215.296 166.43 216.059 166.43 216.944V222H163.758V217.344C163.758 216.523 163.561 215.904 163.166 215.488C162.772 215.061 162.196 214.848 161.438 214.848C160.926 214.848 160.473 214.965 160.078 215.2C159.694 215.424 159.396 215.739 159.182 216.144C158.98 216.549 158.878 217.035 158.878 217.6L157.998 217.136C158.105 216.176 158.361 215.365 158.766 214.704C159.172 214.043 159.684 213.536 160.302 213.184C160.921 212.832 161.604 212.656 162.35 212.656ZM173.928 222.24C172.851 222.24 171.886 222.043 171.032 221.648C170.19 221.243 169.523 220.677 169.032 219.952C168.552 219.227 168.312 218.384 168.312 217.424C168.312 216.475 168.542 215.643 169 214.928C169.47 214.213 170.11 213.659 170.92 213.264C171.731 212.859 172.654 212.656 173.688 212.656C174.744 212.656 175.651 212.891 176.408 213.36C177.166 213.819 177.747 214.469 178.152 215.312C178.568 216.155 178.776 217.147 178.776 218.288H170.456V216.512H177.336L176.296 217.152C176.254 216.619 176.12 216.165 175.896 215.792C175.683 215.419 175.39 215.131 175.016 214.928C174.643 214.725 174.206 214.624 173.704 214.624C173.16 214.624 172.686 214.736 172.28 214.96C171.886 215.173 171.576 215.477 171.352 215.872C171.139 216.256 171.032 216.709 171.032 217.232C171.032 217.861 171.171 218.4 171.448 218.848C171.726 219.296 172.131 219.637 172.664 219.872C173.198 220.107 173.843 220.224 174.6 220.224C175.283 220.224 175.971 220.128 176.664 219.936C177.358 219.733 177.982 219.451 178.536 219.088V220.88C177.939 221.307 177.24 221.643 176.44 221.888C175.651 222.123 174.814 222.24 173.928 222.24ZM182.291 222.144C181.843 222.144 181.47 222 181.171 221.712C180.883 221.424 180.739 221.061 180.739 220.624C180.739 220.187 180.883 219.824 181.171 219.536C181.47 219.248 181.843 219.104 182.291 219.104C182.75 219.104 183.123 219.248 183.411 219.536C183.71 219.824 183.859 220.187 183.859 220.624C183.859 221.061 183.71 221.424 183.411 221.712C183.123 222 182.75 222.144 182.291 222.144ZM182.291 216.48C181.843 216.48 181.47 216.336 181.171 216.048C180.883 215.76 180.739 215.397 180.739 214.96C180.739 214.523 180.883 214.16 181.171 213.872C181.47 213.584 181.843 213.44 182.291 213.44C182.75 213.44 183.123 213.584 183.411 213.872C183.71 214.16 183.859 214.523 183.859 214.96C183.859 215.397 183.71 215.76 183.411 216.048C183.123 216.336 182.75 216.48 182.291 216.48Z" fill="white"/>
<path d="M268.64 161V159.992L272.672 155.928C273.824 154.776 274.4 153.789 274.4 152.968C274.4 152.253 274.176 151.699 273.728 151.304C273.291 150.899 272.763 150.696 272.144 150.696C270.992 150.696 270.155 151.224 269.632 152.28L268.688 151.72C269.04 151.027 269.52 150.504 270.128 150.152C270.736 149.789 271.408 149.608 272.144 149.608C273.04 149.608 273.824 149.912 274.496 150.52C275.179 151.117 275.52 151.933 275.52 152.968C275.52 153.619 275.339 154.243 274.976 154.84C274.613 155.437 274.101 156.067 273.44 156.728L270.24 159.912H275.76V161H268.64ZM277.526 161V159.992L281.558 155.928C282.71 154.776 283.286 153.789 283.286 152.968C283.286 152.253 283.062 151.699 282.614 151.304C282.177 150.899 281.649 150.696 281.03 150.696C279.878 150.696 279.041 151.224 278.518 152.28L277.574 151.72C277.926 151.027 278.406 150.504 279.014 150.152C279.622 149.789 280.294 149.608 281.03 149.608C281.926 149.608 282.71 149.912 283.382 150.52C284.065 151.117 284.406 151.933 284.406 152.968C284.406 153.619 284.225 154.243 283.862 154.84C283.5 155.437 282.988 156.067 282.326 156.728L279.126 159.912H284.646V161H277.526ZM293.452 154.888V155.912H290.604V158.76H289.58V155.912H286.732V154.888H289.58V152.04H290.604V154.888H293.452Z" fill="white"/>
<path d="M56.048 258L58.112 254.432H58.144L63.008 246H65.952L58.992 258H56.048ZM58.112 256.256L52.128 246H55.12L59.984 254.368L58.112 256.256ZM66.8529 248.896H76.2609V258H73.5889V249.696L74.8209 250.912H68.1809L69.3329 249.92C69.3862 250.571 69.4289 251.173 69.4609 251.728C69.5035 252.272 69.5249 252.763 69.5249 253.2C69.5249 254.949 69.2635 256.219 68.7409 257.008C68.2289 257.797 67.3969 258.192 66.2449 258.192C65.9249 258.192 65.6155 258.155 65.3169 258.08C65.0289 258.016 64.7462 257.904 64.4689 257.744V255.808C64.6609 255.883 64.8475 255.941 65.0289 255.984C65.2209 256.016 65.3969 256.032 65.5569 256.032C66.1009 256.032 66.4902 255.787 66.7249 255.296C66.9702 254.795 67.0929 253.973 67.0929 252.832C67.0929 252.32 67.0715 251.733 67.0289 251.072C66.9969 250.411 66.9382 249.685 66.8529 248.896ZM88.5573 258.24C87.4372 258.24 86.4559 258.043 85.6132 257.648C84.7706 257.243 84.1146 256.683 83.6452 255.968C83.1866 255.243 82.9572 254.405 82.9572 253.456C82.9572 252.496 83.1866 251.659 83.6452 250.944C84.1146 250.219 84.7706 249.659 85.6132 249.264C86.4559 248.859 87.4372 248.656 88.5573 248.656C89.6772 248.656 90.6586 248.859 91.5012 249.264C92.3439 249.659 92.9999 250.219 93.4692 250.944C93.9386 251.659 94.1733 252.496 94.1733 253.456C94.1733 254.405 93.9386 255.243 93.4692 255.968C92.9999 256.683 92.3439 257.243 91.5012 257.648C90.6586 258.043 89.6772 258.24 88.5573 258.24ZM78.7492 258V248.896H81.4212V258H78.7492ZM80.2532 254.368V252.368H84.6532V254.368H80.2532ZM88.5573 256.208C89.1652 256.208 89.6826 256.096 90.1093 255.872C90.5466 255.648 90.8826 255.333 91.1172 254.928C91.3519 254.512 91.4692 254.021 91.4692 253.456C91.4692 252.88 91.3519 252.389 91.1172 251.984C90.8826 251.568 90.5466 251.248 90.1093 251.024C89.6826 250.8 89.1652 250.688 88.5573 250.688C87.9599 250.688 87.4426 250.8 87.0052 251.024C86.5679 251.248 86.2319 251.568 85.9972 251.984C85.7626 252.389 85.6452 252.88 85.6452 253.456C85.6452 254.021 85.7626 254.512 85.9972 254.928C86.2319 255.333 86.5679 255.648 87.0052 255.872C87.4426 256.096 87.9599 256.208 88.5573 256.208ZM101.782 258.24C100.534 258.24 99.4673 258.005 98.582 257.536C97.6967 257.056 97.0193 256.368 96.55 255.472C96.0807 254.576 95.846 253.493 95.846 252.224C95.846 250.336 96.3527 248.848 97.366 247.76C98.3793 246.672 99.83 246.048 101.718 245.888C102.486 245.824 103.121 245.771 103.622 245.728C104.123 245.685 104.534 245.643 104.854 245.6C105.185 245.547 105.462 245.493 105.686 245.44C105.91 245.376 106.129 245.307 106.342 245.232V247.456C106.118 247.541 105.83 247.621 105.478 247.696C105.137 247.76 104.699 247.813 104.166 247.856C103.643 247.899 102.998 247.941 102.23 247.984C100.833 248.048 99.7927 248.432 99.11 249.136C98.4273 249.84 98.086 250.853 98.086 252.176V252.608L97.99 252.416C98.2033 251.84 98.5287 251.344 98.966 250.928C99.4033 250.512 99.926 250.197 100.534 249.984C101.153 249.76 101.819 249.648 102.534 249.648C103.462 249.648 104.273 249.824 104.966 250.176C105.659 250.517 106.198 251.003 106.582 251.632C106.977 252.261 107.174 252.997 107.174 253.84C107.174 254.725 106.95 255.499 106.502 256.16C106.054 256.821 105.425 257.333 104.614 257.696C103.814 258.059 102.87 258.24 101.782 258.24ZM101.846 256.208C102.379 256.208 102.843 256.112 103.238 255.92C103.633 255.728 103.937 255.456 104.15 255.104C104.363 254.752 104.47 254.341 104.47 253.872C104.47 253.403 104.363 252.997 104.15 252.656C103.937 252.304 103.633 252.032 103.238 251.84C102.843 251.648 102.379 251.552 101.846 251.552C101.11 251.552 100.459 251.749 99.894 252.144C99.3287 252.528 98.902 253.067 98.614 253.76C98.7847 254.507 99.158 255.104 99.734 255.552C100.321 255.989 101.025 256.208 101.846 256.208ZM110.558 248.896H119.966V258H117.294V249.696L118.526 250.912H111.886L113.038 249.92C113.092 250.571 113.134 251.173 113.166 251.728C113.209 252.272 113.23 252.763 113.23 253.2C113.23 254.949 112.969 256.219 112.446 257.008C111.934 257.797 111.102 258.192 109.95 258.192C109.63 258.192 109.321 258.155 109.022 258.08C108.734 258.016 108.452 257.904 108.174 257.744V255.808C108.366 255.883 108.553 255.941 108.734 255.984C108.926 256.016 109.102 256.032 109.262 256.032C109.806 256.032 110.196 255.787 110.43 255.296C110.676 254.795 110.798 253.973 110.798 252.832C110.798 252.32 110.777 251.733 110.734 251.072C110.702 250.411 110.644 249.685 110.558 248.896ZM127.591 258.24C126.514 258.24 125.548 258.043 124.695 257.648C123.852 257.243 123.186 256.677 122.695 255.952C122.215 255.227 121.975 254.384 121.975 253.424C121.975 252.475 122.204 251.643 122.663 250.928C123.132 250.213 123.772 249.659 124.583 249.264C125.394 248.859 126.316 248.656 127.351 248.656C128.407 248.656 129.314 248.891 130.071 249.36C130.828 249.819 131.41 250.469 131.815 251.312C132.231 252.155 132.439 253.147 132.439 254.288H124.119V252.512H130.999L129.959 253.152C129.916 252.619 129.783 252.165 129.559 251.792C129.346 251.419 129.052 251.131 128.679 250.928C128.306 250.725 127.868 250.624 127.367 250.624C126.823 250.624 126.348 250.736 125.943 250.96C125.548 251.173 125.239 251.477 125.015 251.872C124.802 252.256 124.695 252.709 124.695 253.232C124.695 253.861 124.834 254.4 125.111 254.848C125.388 255.296 125.794 255.637 126.327 255.872C126.86 256.107 127.506 256.224 128.263 256.224C128.946 256.224 129.634 256.128 130.327 255.936C131.02 255.733 131.644 255.451 132.199 255.088V256.88C131.602 257.307 130.903 257.643 130.103 257.888C129.314 258.123 128.476 258.24 127.591 258.24ZM134.482 248.896H137.138V258H134.482V248.896ZM142.114 248.896H144.77V258H142.114V248.896ZM136.002 252.352H143.154V254.368H136.002V252.352ZM147.259 248.8L148.587 249.056L149.931 248.8V258H147.259V248.8ZM148.587 247.856C148.107 247.856 147.712 247.733 147.403 247.488C147.104 247.232 146.955 246.896 146.955 246.48C146.955 246.053 147.104 245.717 147.403 245.472C147.712 245.216 148.107 245.088 148.587 245.088C149.077 245.088 149.472 245.216 149.771 245.472C150.069 245.717 150.219 246.053 150.219 246.48C150.219 246.896 150.069 247.232 149.771 247.488C149.472 247.733 149.077 247.856 148.587 247.856ZM167.224 248.896V258H164.552V249.696L165.784 250.912H158.44L159.672 249.696V258H157V248.896H167.224ZM169.714 248.896H172.386V251.792L172.274 252.144V254.336L172.386 254.992V260.64H169.714V248.896ZM171.458 253.456C171.64 252.485 171.954 251.643 172.402 250.928C172.861 250.203 173.432 249.643 174.114 249.248C174.808 248.853 175.576 248.656 176.418 248.656C177.314 248.656 178.098 248.859 178.77 249.264C179.453 249.659 179.986 250.219 180.37 250.944C180.754 251.659 180.946 252.496 180.946 253.456C180.946 254.405 180.754 255.243 180.37 255.968C179.986 256.683 179.453 257.243 178.77 257.648C178.098 258.043 177.314 258.24 176.418 258.24C175.565 258.24 174.797 258.043 174.114 257.648C173.442 257.253 172.877 256.699 172.418 255.984C171.96 255.259 171.64 254.416 171.458 253.456ZM178.242 253.456C178.242 252.923 178.13 252.453 177.906 252.048C177.693 251.632 177.394 251.312 177.01 251.088C176.626 250.853 176.184 250.736 175.682 250.736C175.181 250.736 174.706 250.853 174.258 251.088C173.81 251.312 173.416 251.632 173.074 252.048C172.744 252.453 172.482 252.923 172.29 253.456C172.482 253.989 172.744 254.459 173.074 254.864C173.416 255.269 173.81 255.589 174.258 255.824C174.706 256.048 175.181 256.16 175.682 256.16C176.184 256.16 176.626 256.048 177.01 255.824C177.394 255.589 177.693 255.269 177.906 254.864C178.13 254.459 178.242 253.989 178.242 253.456ZM188.207 258.24C187.076 258.24 186.084 258.043 185.231 257.648C184.378 257.243 183.711 256.683 183.231 255.968C182.751 255.243 182.511 254.405 182.511 253.456C182.511 252.496 182.751 251.659 183.231 250.944C183.711 250.219 184.378 249.659 185.231 249.264C186.084 248.859 187.076 248.656 188.207 248.656C189.338 248.656 190.33 248.859 191.183 249.264C192.036 249.659 192.698 250.219 193.167 250.944C193.647 251.659 193.887 252.496 193.887 253.456C193.887 254.405 193.647 255.243 193.167 255.968C192.698 256.683 192.036 257.243 191.183 257.648C190.33 258.043 189.338 258.24 188.207 258.24ZM188.207 256.208C188.826 256.208 189.354 256.096 189.791 255.872C190.239 255.648 190.58 255.333 190.815 254.928C191.06 254.512 191.183 254.021 191.183 253.456C191.183 252.88 191.06 252.389 190.815 251.984C190.58 251.568 190.239 251.248 189.791 251.024C189.354 250.8 188.826 250.688 188.207 250.688C187.599 250.688 187.071 250.8 186.623 251.024C186.175 251.248 185.828 251.568 185.583 251.984C185.348 252.389 185.231 252.88 185.231 253.456C185.231 254.021 185.348 254.512 185.583 254.928C185.828 255.333 186.175 255.648 186.623 255.872C187.071 256.096 187.599 256.208 188.207 256.208ZM200.98 258.24C199.892 258.24 198.927 258.043 198.084 257.648C197.252 257.243 196.602 256.677 196.132 255.952C195.674 255.227 195.444 254.395 195.444 253.456C195.444 252.507 195.674 251.675 196.132 250.96C196.602 250.235 197.252 249.669 198.084 249.264C198.927 248.859 199.892 248.656 200.98 248.656C201.94 248.656 202.804 248.816 203.572 249.136C204.34 249.456 204.97 249.899 205.46 250.464C205.962 251.019 206.276 251.669 206.404 252.416H203.796C203.636 251.872 203.3 251.429 202.788 251.088C202.276 250.736 201.674 250.56 200.98 250.56C200.383 250.56 199.866 250.677 199.428 250.912C198.991 251.136 198.65 251.467 198.404 251.904C198.17 252.331 198.052 252.848 198.052 253.456C198.052 254.053 198.17 254.571 198.404 255.008C198.65 255.435 198.991 255.765 199.428 256C199.866 256.224 200.383 256.336 200.98 256.336C201.674 256.336 202.276 256.165 202.788 255.824C203.3 255.483 203.636 255.035 203.796 254.48H206.404C206.276 255.227 205.962 255.883 205.46 256.448C204.97 257.003 204.34 257.44 203.572 257.76C202.804 258.08 201.94 258.24 200.98 258.24ZM196.836 254.272V252.624H202.34V254.272H196.836ZM208.311 258V248.896H210.983V255.84L210.199 255.568L215.623 248.896H218.535L210.711 258H208.311ZM215.751 258L213.031 253.536L214.999 252.016L218.807 258H215.751ZM223.029 249.824H225.701V258H223.029V249.824ZM219.413 248.896H229.317V250.944H219.413V248.896ZM231.02 258V248.896H233.644V256.592L232.988 256.416L238.476 248.896H241.916V258H239.292V250.16L239.948 250.352L234.364 258H231.02ZM245.879 258.144C245.431 258.144 245.057 258 244.759 257.712C244.471 257.424 244.327 257.061 244.327 256.624C244.327 256.187 244.471 255.824 244.759 255.536C245.057 255.248 245.431 255.104 245.879 255.104C246.337 255.104 246.711 255.248 246.999 255.536C247.297 255.824 247.447 256.187 247.447 256.624C247.447 257.061 247.297 257.424 246.999 257.712C246.711 258 246.337 258.144 245.879 258.144ZM245.879 252.48C245.431 252.48 245.057 252.336 244.759 252.048C244.471 251.76 244.327 251.397 244.327 250.96C244.327 250.523 244.471 250.16 244.759 249.872C245.057 249.584 245.431 249.44 245.879 249.44C246.337 249.44 246.711 249.584 246.999 249.872C247.297 250.16 247.447 250.523 247.447 250.96C247.447 251.397 247.297 251.76 246.999 252.048C246.711 252.336 246.337 252.48 245.879 252.48Z" fill="white"/>
<path d="M278.544 255.512C277.424 256.632 276.053 257.192 274.432 257.192C272.811 257.192 271.44 256.632 270.32 255.512C269.2 254.381 268.64 253.011 268.64 251.4C268.64 249.789 269.2 248.424 270.32 247.304C271.44 246.173 272.811 245.608 274.432 245.608C276.053 245.608 277.424 246.173 278.544 247.304C279.664 248.424 280.224 249.789 280.224 251.4C280.224 253.011 279.664 254.381 278.544 255.512ZM271.104 254.744C272 255.651 273.109 256.104 274.432 256.104C275.755 256.104 276.864 255.651 277.76 254.744C278.656 253.827 279.104 252.712 279.104 251.4C279.104 250.088 278.656 248.979 277.76 248.072C276.864 247.155 275.755 246.696 274.432 246.696C273.109 246.696 272 247.155 271.104 248.072C270.208 248.979 269.76 250.088 269.76 251.4C269.76 252.712 270.208 253.827 271.104 254.744ZM288.923 257H287.515L283.515 253.144V257H282.459V245.8H283.515V252.536L287.323 249H288.763L284.635 252.84L288.923 257ZM297.31 257H295.902L291.902 253.144V257H290.846V245.8H291.902V252.536L295.71 249H297.15L293.022 252.84L297.31 257ZM305.139 255.992C304.328 256.792 303.336 257.192 302.163 257.192C300.99 257.192 299.992 256.792 299.171 255.992C298.36 255.181 297.955 254.184 297.955 253C297.955 251.816 298.36 250.824 299.171 250.024C299.992 249.213 300.99 248.808 302.163 248.808C303.336 248.808 304.328 249.213 305.139 250.024C305.96 250.824 306.371 251.816 306.371 253C306.371 254.184 305.96 255.181 305.139 255.992ZM299.923 255.256C300.531 255.864 301.278 256.168 302.163 256.168C303.048 256.168 303.795 255.864 304.403 255.256C305.011 254.637 305.315 253.885 305.315 253C305.315 252.115 305.011 251.368 304.403 250.76C303.795 250.141 303.048 249.832 302.163 249.832C301.278 249.832 300.531 250.141 299.923 250.76C299.315 251.368 299.011 252.115 299.011 253C299.011 253.885 299.315 254.637 299.923 255.256ZM309.737 255.64L308.777 259.24H307.817L308.457 255.64H309.737ZM320.461 257.192C319.437 257.192 318.557 256.952 317.821 256.472C317.096 255.981 316.589 255.309 316.301 254.456L317.261 253.896C317.464 254.589 317.837 255.133 318.381 255.528C318.925 255.912 319.624 256.104 320.477 256.104C321.309 256.104 321.955 255.923 322.413 255.56C322.883 255.187 323.117 254.696 323.117 254.088C323.117 253.501 322.904 253.059 322.477 252.76C322.051 252.461 321.347 252.152 320.365 251.832C319.203 251.448 318.435 251.139 318.061 250.904C317.208 250.392 316.781 249.651 316.781 248.68C316.781 247.731 317.112 246.984 317.773 246.44C318.435 245.885 319.251 245.608 320.221 245.608C321.096 245.608 321.853 245.837 322.493 246.296C323.133 246.744 323.608 247.32 323.917 248.024L322.973 248.552C322.461 247.315 321.544 246.696 320.221 246.696C319.528 246.696 318.968 246.867 318.541 247.208C318.115 247.549 317.901 248.024 317.901 248.632C317.901 249.187 318.093 249.603 318.477 249.88C318.861 250.157 319.496 250.44 320.381 250.728C320.787 250.867 321.075 250.968 321.245 251.032C321.427 251.085 321.683 251.181 322.013 251.32C322.355 251.448 322.605 251.565 322.765 251.672C322.925 251.768 323.117 251.907 323.341 252.088C323.576 252.259 323.741 252.435 323.837 252.616C323.944 252.787 324.035 253 324.109 253.256C324.195 253.501 324.237 253.768 324.237 254.056C324.237 255.005 323.891 255.768 323.197 256.344C322.504 256.909 321.592 257.192 320.461 257.192ZM333.34 255.992C332.53 256.792 331.538 257.192 330.364 257.192C329.191 257.192 328.194 256.792 327.372 255.992C326.562 255.181 326.156 254.184 326.156 253C326.156 251.816 326.562 250.824 327.372 250.024C328.194 249.213 329.191 248.808 330.364 248.808C331.538 248.808 332.53 249.213 333.34 250.024C334.162 250.824 334.572 251.816 334.572 253C334.572 254.184 334.162 255.181 333.34 255.992ZM328.124 255.256C328.732 255.864 329.479 256.168 330.364 256.168C331.25 256.168 331.996 255.864 332.604 255.256C333.212 254.637 333.516 253.885 333.516 253C333.516 252.115 333.212 251.368 332.604 250.76C331.996 250.141 331.25 249.832 330.364 249.832C329.479 249.832 328.732 250.141 328.124 250.76C327.516 251.368 327.212 252.115 327.212 253C327.212 253.885 327.516 254.637 328.124 255.256ZM336.819 257V245.32H337.875V257H336.819ZM341.668 247.08C341.519 247.229 341.338 247.304 341.124 247.304C340.911 247.304 340.73 247.229 340.58 247.08C340.431 246.931 340.356 246.749 340.356 246.536C340.356 246.323 340.431 246.141 340.58 245.992C340.73 245.843 340.911 245.768 341.124 245.768C341.338 245.768 341.519 245.843 341.668 245.992C341.818 246.141 341.892 246.323 341.892 246.536C341.892 246.749 341.818 246.931 341.668 247.08ZM340.596 257V249H341.652V257H340.596ZM351.253 245.8H352.309V257H351.253V255.432C350.517 256.605 349.44 257.192 348.021 257.192C346.88 257.192 345.904 256.787 345.093 255.976C344.293 255.165 343.893 254.173 343.893 253C343.893 251.827 344.293 250.835 345.093 250.024C345.904 249.213 346.88 248.808 348.021 248.808C349.44 248.808 350.517 249.395 351.253 250.568V245.8ZM345.861 255.256C346.469 255.864 347.216 256.168 348.101 256.168C348.986 256.168 349.733 255.864 350.341 255.256C350.949 254.637 351.253 253.885 351.253 253C351.253 252.115 350.949 251.368 350.341 250.76C349.733 250.141 348.986 249.832 348.101 249.832C347.216 249.832 346.469 250.141 345.861 250.76C345.253 251.368 344.949 252.115 344.949 253C344.949 253.885 345.253 254.637 345.861 255.256Z" fill="white"/>
<path d="M52.256 296.448V291.6H54.496L55.648 291.632H64.288L64.944 291.6H68.176V296.448H65.632V294H54.8V296.448H52.256ZM54.832 282H66.08V293.136H63.376V283.152L64.592 284.368H56.288L57.424 283.488C57.488 284.021 57.5307 284.549 57.552 285.072C57.5733 285.595 57.584 286.085 57.584 286.544C57.584 287.845 57.4827 288.949 57.28 289.856C57.0773 290.752 56.7733 291.435 56.368 291.904C55.9627 292.363 55.4613 292.592 54.864 292.592L53.744 291.648C54.192 291.136 54.5227 290.416 54.736 289.488C54.96 288.549 55.072 287.381 55.072 285.984C55.072 285.365 55.0507 284.72 55.008 284.048C54.9653 283.376 54.9067 282.693 54.832 282ZM75.0634 294.24C73.9327 294.24 72.9407 294.043 72.0874 293.648C71.234 293.243 70.5674 292.683 70.0874 291.968C69.6074 291.243 69.3674 290.405 69.3674 289.456C69.3674 288.496 69.6074 287.659 70.0874 286.944C70.5674 286.219 71.234 285.659 72.0874 285.264C72.9407 284.859 73.9327 284.656 75.0634 284.656C76.194 284.656 77.186 284.859 78.0394 285.264C78.8927 285.659 79.554 286.219 80.0234 286.944C80.5034 287.659 80.7434 288.496 80.7434 289.456C80.7434 290.405 80.5034 291.243 80.0234 291.968C79.554 292.683 78.8927 293.243 78.0394 293.648C77.186 294.043 76.194 294.24 75.0634 294.24ZM75.0634 292.208C75.682 292.208 76.21 292.096 76.6474 291.872C77.0954 291.648 77.4367 291.333 77.6714 290.928C77.9167 290.512 78.0394 290.021 78.0394 289.456C78.0394 288.88 77.9167 288.389 77.6714 287.984C77.4367 287.568 77.0954 287.248 76.6474 287.024C76.21 286.8 75.682 286.688 75.0634 286.688C74.4554 286.688 73.9274 286.8 73.4794 287.024C73.0314 287.248 72.6847 287.568 72.4394 287.984C72.2047 288.389 72.0874 288.88 72.0874 289.456C72.0874 290.021 72.2047 290.512 72.4394 290.928C72.6847 291.333 73.0314 291.648 73.4794 291.872C73.9274 292.096 74.4554 292.208 75.0634 292.208ZM93.2285 290.288C93.1218 291.067 92.8178 291.755 92.3165 292.352C91.8258 292.949 91.1912 293.413 90.4125 293.744C89.6338 294.075 88.7645 294.24 87.8045 294.24C86.7165 294.24 85.7565 294.043 84.9245 293.648C84.1032 293.243 83.4578 292.677 82.9885 291.952C82.5298 291.227 82.3005 290.395 82.3005 289.456C82.3005 288.507 82.5298 287.675 82.9885 286.96C83.4578 286.235 84.1032 285.669 84.9245 285.264C85.7565 284.859 86.7165 284.656 87.8045 284.656C88.7645 284.656 89.6338 284.827 90.4125 285.168C91.1912 285.499 91.8258 285.963 92.3165 286.56C92.8178 287.147 93.1218 287.835 93.2285 288.624H90.5565C90.4178 288.005 90.0978 287.531 89.5965 287.2C89.1058 286.859 88.5085 286.688 87.8045 286.688C87.2392 286.688 86.7432 286.8 86.3165 287.024C85.9005 287.237 85.5805 287.552 85.3565 287.968C85.1325 288.373 85.0205 288.869 85.0205 289.456C85.0205 290.032 85.1325 290.528 85.3565 290.944C85.5805 291.349 85.9005 291.664 86.3165 291.888C86.7432 292.101 87.2392 292.208 87.8045 292.208C88.5192 292.208 89.1218 292.032 89.6125 291.68C90.1138 291.328 90.4285 290.864 90.5565 290.288H93.2285ZM94.8959 294L95.4079 289.456L94.8959 284.896H101.904C102.779 284.896 103.472 285.104 103.984 285.52C104.496 285.925 104.752 286.48 104.752 287.184C104.752 287.845 104.496 288.384 103.984 288.8C103.472 289.205 102.757 289.445 101.84 289.52L102.032 289.072C103.099 289.104 103.909 289.328 104.464 289.744C105.029 290.149 105.312 290.72 105.312 291.456C105.312 292.245 105.024 292.869 104.448 293.328C103.883 293.776 103.104 294 102.112 294H94.8959ZM97.4719 293.408L96.4479 292.272H101.296C101.755 292.272 102.091 292.181 102.304 292C102.517 291.808 102.624 291.541 102.624 291.2C102.624 290.891 102.507 290.64 102.272 290.448C102.037 290.245 101.653 290.144 101.12 290.144H96.9919V288.624H100.768C101.216 288.624 101.541 288.533 101.744 288.352C101.957 288.171 102.064 287.925 102.064 287.616C102.064 287.328 101.968 287.093 101.776 286.912C101.595 286.731 101.296 286.64 100.88 286.64H96.4639L97.4719 285.504L97.9679 289.456L97.4719 293.408ZM107.319 284.8L108.647 285.056L109.991 284.8V294H107.319V284.8ZM108.647 283.856C108.167 283.856 107.772 283.733 107.463 283.488C107.164 283.232 107.015 282.896 107.015 282.48C107.015 282.053 107.164 281.717 107.463 281.472C107.772 281.216 108.167 281.088 108.647 281.088C109.137 281.088 109.532 281.216 109.831 281.472C110.129 281.717 110.279 282.053 110.279 282.48C110.279 282.896 110.129 283.232 109.831 283.488C109.532 283.733 109.137 283.856 108.647 283.856ZM124.854 291.984V296.24H122.534V294H114.022V296.24H111.702V291.984H114.246L114.838 292.032H121.462L121.99 291.984H124.854ZM113.67 284.896H123.174V293.392H120.502V285.664L121.734 286.896H114.998L116.07 285.936C116.166 286.395 116.225 286.832 116.246 287.248C116.267 287.653 116.278 288.032 116.278 288.384C116.278 289.899 116.049 291.083 115.59 291.936C115.131 292.779 114.486 293.2 113.654 293.2L112.566 292.288C113.419 291.669 113.846 290.192 113.846 287.856C113.846 287.397 113.83 286.923 113.798 286.432C113.766 285.931 113.723 285.419 113.67 284.896ZM128.219 294.144C127.771 294.144 127.398 294 127.099 293.712C126.811 293.424 126.667 293.061 126.667 292.624C126.667 292.187 126.811 291.824 127.099 291.536C127.398 291.248 127.771 291.104 128.219 291.104C128.678 291.104 129.051 291.248 129.339 291.536C129.638 291.824 129.787 292.187 129.787 292.624C129.787 293.061 129.638 293.424 129.339 293.712C129.051 294 128.678 294.144 128.219 294.144ZM128.219 288.48C127.771 288.48 127.398 288.336 127.099 288.048C126.811 287.76 126.667 287.397 126.667 286.96C126.667 286.523 126.811 286.16 127.099 285.872C127.398 285.584 127.771 285.44 128.219 285.44C128.678 285.44 129.051 285.584 129.339 285.872C129.638 286.16 129.787 286.523 129.787 286.96C129.787 287.397 129.638 287.76 129.339 288.048C129.051 288.336 128.678 288.48 128.219 288.48Z" fill="white"/>
<path d="M272.752 286.456C273.648 286.573 274.384 286.92 274.96 287.496C275.547 288.061 275.84 288.813 275.84 289.752C275.84 290.819 275.472 291.661 274.736 292.28C274.011 292.888 273.125 293.192 272.08 293.192C271.248 293.192 270.507 293 269.856 292.616C269.205 292.232 268.747 291.683 268.48 290.968L269.408 290.424C269.589 290.979 269.915 291.4 270.384 291.688C270.853 291.965 271.419 292.104 272.08 292.104C272.848 292.104 273.477 291.901 273.968 291.496C274.469 291.08 274.72 290.499 274.72 289.752C274.72 289.005 274.469 288.429 273.968 288.024C273.477 287.608 272.848 287.4 272.08 287.4V287.384L272.064 287.4H271.76L271.28 286.664L274.064 282.856H268.8V281.8H275.36V282.856L272.752 286.456ZM284.644 286.888V287.912H281.796V290.76H280.772V287.912H277.924V286.888H280.772V284.04H281.796V286.888H284.644ZM295.973 284.808C297.114 284.808 298.085 285.213 298.885 286.024C299.696 286.835 300.101 287.827 300.101 289C300.101 290.173 299.696 291.165 298.885 291.976C298.085 292.787 297.114 293.192 295.973 293.192C294.554 293.192 293.477 292.605 292.741 291.432V296.2H291.685V285H292.741V286.568C293.477 285.395 294.554 284.808 295.973 284.808ZM293.653 291.256C294.261 291.864 295.008 292.168 295.893 292.168C296.778 292.168 297.525 291.864 298.133 291.256C298.741 290.637 299.045 289.885 299.045 289C299.045 288.115 298.741 287.368 298.133 286.76C297.525 286.141 296.778 285.832 295.893 285.832C295.008 285.832 294.261 286.141 293.653 286.76C293.045 287.368 292.741 288.115 292.741 289C292.741 289.885 293.045 290.637 293.653 291.256ZM309.041 291.992C308.23 292.792 307.238 293.192 306.065 293.192C304.892 293.192 303.894 292.792 303.073 291.992C302.262 291.181 301.857 290.184 301.857 289C301.857 287.816 302.262 286.824 303.073 286.024C303.894 285.213 304.892 284.808 306.065 284.808C307.238 284.808 308.23 285.213 309.041 286.024C309.862 286.824 310.273 287.816 310.273 289C310.273 290.184 309.862 291.181 309.041 291.992ZM303.825 291.256C304.433 291.864 305.18 292.168 306.065 292.168C306.95 292.168 307.697 291.864 308.305 291.256C308.913 290.637 309.217 289.885 309.217 289C309.217 288.115 308.913 287.368 308.305 286.76C307.697 286.141 306.95 285.832 306.065 285.832C305.18 285.832 304.433 286.141 303.825 286.76C303.217 287.368 302.913 288.115 302.913 289C302.913 289.885 303.217 290.637 303.825 291.256ZM318.984 293H317.576L313.576 289.144V293H312.52V285H313.576V288.536L317.384 285H318.824L314.696 288.84L318.984 293ZM326.73 285H327.626V293H326.57V286.84L321.802 293H320.906V285H321.962V291.16L326.73 285Z" fill="white"/>
<path d="M56.048 330L58.112 326.432H58.144L63.008 318H65.952L58.992 330H56.048ZM58.112 328.256L52.128 318H55.12L59.984 326.368L58.112 328.256ZM66.8529 320.896H76.2609V330H73.5889V321.696L74.8209 322.912H68.1809L69.3329 321.92C69.3862 322.571 69.4289 323.173 69.4609 323.728C69.5035 324.272 69.5249 324.763 69.5249 325.2C69.5249 326.949 69.2635 328.219 68.7409 329.008C68.2289 329.797 67.3969 330.192 66.2449 330.192C65.9249 330.192 65.6155 330.155 65.3169 330.08C65.0289 330.016 64.7462 329.904 64.4689 329.744V327.808C64.6609 327.883 64.8475 327.941 65.0289 327.984C65.2209 328.016 65.3969 328.032 65.5569 328.032C66.1009 328.032 66.4902 327.787 66.7249 327.296C66.9702 326.795 67.0929 325.973 67.0929 324.832C67.0929 324.32 67.0715 323.733 67.0289 323.072C66.9969 322.411 66.9382 321.685 66.8529 320.896ZM88.5573 330.24C87.4372 330.24 86.4559 330.043 85.6132 329.648C84.7706 329.243 84.1146 328.683 83.6452 327.968C83.1866 327.243 82.9572 326.405 82.9572 325.456C82.9572 324.496 83.1866 323.659 83.6452 322.944C84.1146 322.219 84.7706 321.659 85.6132 321.264C86.4559 320.859 87.4372 320.656 88.5573 320.656C89.6772 320.656 90.6586 320.859 91.5012 321.264C92.3439 321.659 92.9999 322.219 93.4692 322.944C93.9386 323.659 94.1733 324.496 94.1733 325.456C94.1733 326.405 93.9386 327.243 93.4692 327.968C92.9999 328.683 92.3439 329.243 91.5012 329.648C90.6586 330.043 89.6772 330.24 88.5573 330.24ZM78.7492 330V320.896H81.4212V330H78.7492ZM80.2532 326.368V324.368H84.6532V326.368H80.2532ZM88.5573 328.208C89.1652 328.208 89.6826 328.096 90.1093 327.872C90.5466 327.648 90.8826 327.333 91.1172 326.928C91.3519 326.512 91.4692 326.021 91.4692 325.456C91.4692 324.88 91.3519 324.389 91.1172 323.984C90.8826 323.568 90.5466 323.248 90.1093 323.024C89.6826 322.8 89.1652 322.688 88.5573 322.688C87.9599 322.688 87.4426 322.8 87.0052 323.024C86.5679 323.248 86.2319 323.568 85.9972 323.984C85.7626 324.389 85.6452 324.88 85.6452 325.456C85.6452 326.021 85.7626 326.512 85.9972 326.928C86.2319 327.333 86.5679 327.648 87.0052 327.872C87.4426 328.096 87.9599 328.208 88.5573 328.208ZM101.782 330.24C100.534 330.24 99.4673 330.005 98.582 329.536C97.6967 329.056 97.0193 328.368 96.55 327.472C96.0807 326.576 95.846 325.493 95.846 324.224C95.846 322.336 96.3527 320.848 97.366 319.76C98.3793 318.672 99.83 318.048 101.718 317.888C102.486 317.824 103.121 317.771 103.622 317.728C104.123 317.685 104.534 317.643 104.854 317.6C105.185 317.547 105.462 317.493 105.686 317.44C105.91 317.376 106.129 317.307 106.342 317.232V319.456C106.118 319.541 105.83 319.621 105.478 319.696C105.137 319.76 104.699 319.813 104.166 319.856C103.643 319.899 102.998 319.941 102.23 319.984C100.833 320.048 99.7927 320.432 99.11 321.136C98.4273 321.84 98.086 322.853 98.086 324.176V324.608L97.99 324.416C98.2033 323.84 98.5287 323.344 98.966 322.928C99.4033 322.512 99.926 322.197 100.534 321.984C101.153 321.76 101.819 321.648 102.534 321.648C103.462 321.648 104.273 321.824 104.966 322.176C105.659 322.517 106.198 323.003 106.582 323.632C106.977 324.261 107.174 324.997 107.174 325.84C107.174 326.725 106.95 327.499 106.502 328.16C106.054 328.821 105.425 329.333 104.614 329.696C103.814 330.059 102.87 330.24 101.782 330.24ZM101.846 328.208C102.379 328.208 102.843 328.112 103.238 327.92C103.633 327.728 103.937 327.456 104.15 327.104C104.363 326.752 104.47 326.341 104.47 325.872C104.47 325.403 104.363 324.997 104.15 324.656C103.937 324.304 103.633 324.032 103.238 323.84C102.843 323.648 102.379 323.552 101.846 323.552C101.11 323.552 100.459 323.749 99.894 324.144C99.3287 324.528 98.902 325.067 98.614 325.76C98.7847 326.507 99.158 327.104 99.734 327.552C100.321 327.989 101.025 328.208 101.846 328.208ZM110.558 320.896H119.966V330H117.294V321.696L118.526 322.912H111.886L113.038 321.92C113.092 322.571 113.134 323.173 113.166 323.728C113.209 324.272 113.23 324.763 113.23 325.2C113.23 326.949 112.969 328.219 112.446 329.008C111.934 329.797 111.102 330.192 109.95 330.192C109.63 330.192 109.321 330.155 109.022 330.08C108.734 330.016 108.452 329.904 108.174 329.744V327.808C108.366 327.883 108.553 327.941 108.734 327.984C108.926 328.016 109.102 328.032 109.262 328.032C109.806 328.032 110.196 327.787 110.43 327.296C110.676 326.795 110.798 325.973 110.798 324.832C110.798 324.32 110.777 323.733 110.734 323.072C110.702 322.411 110.644 321.685 110.558 320.896ZM127.591 330.24C126.514 330.24 125.548 330.043 124.695 329.648C123.852 329.243 123.186 328.677 122.695 327.952C122.215 327.227 121.975 326.384 121.975 325.424C121.975 324.475 122.204 323.643 122.663 322.928C123.132 322.213 123.772 321.659 124.583 321.264C125.394 320.859 126.316 320.656 127.351 320.656C128.407 320.656 129.314 320.891 130.071 321.36C130.828 321.819 131.41 322.469 131.815 323.312C132.231 324.155 132.439 325.147 132.439 326.288H124.119V324.512H130.999L129.959 325.152C129.916 324.619 129.783 324.165 129.559 323.792C129.346 323.419 129.052 323.131 128.679 322.928C128.306 322.725 127.868 322.624 127.367 322.624C126.823 322.624 126.348 322.736 125.943 322.96C125.548 323.173 125.239 323.477 125.015 323.872C124.802 324.256 124.695 324.709 124.695 325.232C124.695 325.861 124.834 326.4 125.111 326.848C125.388 327.296 125.794 327.637 126.327 327.872C126.86 328.107 127.506 328.224 128.263 328.224C128.946 328.224 129.634 328.128 130.327 327.936C131.02 327.733 131.644 327.451 132.199 327.088V328.88C131.602 329.307 130.903 329.643 130.103 329.888C129.314 330.123 128.476 330.24 127.591 330.24ZM134.482 320.896H137.138V330H134.482V320.896ZM142.114 320.896H144.77V330H142.114V320.896ZM136.002 324.352H143.154V326.368H136.002V324.352ZM147.259 330V320.896H149.883V328.592L149.227 328.416L154.715 320.896H158.155V330H155.531V322.16L156.187 322.352L150.603 330H147.259ZM160.645 330V320.896H163.269V328.592L162.613 328.416L168.101 320.896H171.541V330H168.917V322.16L169.573 322.352L163.989 330H160.645ZM166.021 320.064C164.986 320.064 164.154 319.813 163.525 319.312C162.896 318.8 162.506 318.059 162.357 317.088H164.453C164.528 317.547 164.698 317.899 164.965 318.144C165.242 318.379 165.594 318.496 166.021 318.496C166.448 318.496 166.794 318.379 167.061 318.144C167.328 317.899 167.504 317.547 167.589 317.088H169.669C169.53 318.059 169.141 318.8 168.501 319.312C167.872 319.813 167.045 320.064 166.021 320.064ZM186.157 320.896V322.944H180.045L181.277 321.728V330H178.605V320.896H186.157ZM190.426 332.88C189.829 332.88 189.29 332.805 188.81 332.656C188.33 332.507 187.877 332.288 187.45 332V330.08C187.898 330.368 188.325 330.576 188.73 330.704C189.136 330.832 189.584 330.896 190.074 330.896C190.512 330.896 190.901 330.795 191.242 330.592C191.584 330.4 191.866 330.053 192.09 329.552L195.882 320.896H198.714L194.17 330.416C193.893 331.013 193.557 331.493 193.162 331.856C192.768 332.219 192.336 332.48 191.866 332.64C191.408 332.8 190.928 332.88 190.426 332.88ZM191.002 329.424L186.986 320.896H189.93L193.61 329.424H191.002ZM200.268 320.896H202.94V323.792L202.828 324.144V326.336L202.94 326.992V332.64H200.268V320.896ZM202.012 325.456C202.193 324.485 202.508 323.643 202.956 322.928C203.415 322.203 203.985 321.643 204.668 321.248C205.361 320.853 206.129 320.656 206.972 320.656C207.868 320.656 208.652 320.859 209.324 321.264C210.007 321.659 210.54 322.219 210.924 322.944C211.308 323.659 211.5 324.496 211.5 325.456C211.5 326.405 211.308 327.243 210.924 327.968C210.54 328.683 210.007 329.243 209.324 329.648C208.652 330.043 207.868 330.24 206.972 330.24C206.119 330.24 205.351 330.043 204.668 329.648C203.996 329.253 203.431 328.699 202.972 327.984C202.513 327.259 202.193 326.416 202.012 325.456ZM208.796 325.456C208.796 324.923 208.684 324.453 208.46 324.048C208.247 323.632 207.948 323.312 207.564 323.088C207.18 322.853 206.737 322.736 206.236 322.736C205.735 322.736 205.26 322.853 204.812 323.088C204.364 323.312 203.969 323.632 203.628 324.048C203.297 324.453 203.036 324.923 202.844 325.456C203.036 325.989 203.297 326.459 203.628 326.864C203.969 327.269 204.364 327.589 204.812 327.824C205.26 328.048 205.735 328.16 206.236 328.16C206.737 328.16 207.18 328.048 207.564 327.824C207.948 327.589 208.247 327.269 208.46 326.864C208.684 326.459 208.796 325.989 208.796 325.456ZM216.049 321.824H218.721V330H216.049V321.824ZM212.433 320.896H222.337V322.944H212.433V320.896ZM225.513 330.144C225.065 330.144 224.691 330 224.393 329.712C224.105 329.424 223.961 329.061 223.961 328.624C223.961 328.187 224.105 327.824 224.393 327.536C224.691 327.248 225.065 327.104 225.513 327.104C225.971 327.104 226.345 327.248 226.633 327.536C226.931 327.824 227.081 328.187 227.081 328.624C227.081 329.061 226.931 329.424 226.633 329.712C226.345 330 225.971 330.144 225.513 330.144ZM225.513 324.48C225.065 324.48 224.691 324.336 224.393 324.048C224.105 323.76 223.961 323.397 223.961 322.96C223.961 322.523 224.105 322.16 224.393 321.872C224.691 321.584 225.065 321.44 225.513 321.44C225.971 321.44 226.345 321.584 226.633 321.872C226.931 322.16 227.081 322.523 227.081 322.96C227.081 323.397 226.931 323.76 226.633 324.048C226.345 324.336 225.971 324.48 225.513 324.48Z" fill="white"/>
<path d="M277.12 329H275.648L270.4 323.576V329H269.28V317.8H270.4V322.92L275.488 317.8H276.96L271.584 323.24L277.12 329ZM279.953 319.08C279.804 319.229 279.623 319.304 279.409 319.304C279.196 319.304 279.015 319.229 278.865 319.08C278.716 318.931 278.641 318.749 278.641 318.536C278.641 318.323 278.716 318.141 278.865 317.992C279.015 317.843 279.196 317.768 279.409 317.768C279.623 317.768 279.804 317.843 279.953 317.992C280.103 318.141 280.177 318.323 280.177 318.536C280.177 318.749 280.103 318.931 279.953 319.08ZM278.881 329V321H279.937V329H278.881ZM283.49 323.096C283.49 323.459 283.65 323.747 283.97 323.96C284.29 324.173 284.679 324.339 285.138 324.456C285.597 324.573 286.055 324.707 286.514 324.856C286.973 324.995 287.362 325.235 287.682 325.576C288.002 325.907 288.162 326.344 288.162 326.888C288.162 327.571 287.89 328.125 287.346 328.552C286.813 328.979 286.119 329.192 285.266 329.192C284.498 329.192 283.842 329.021 283.298 328.68C282.765 328.339 282.391 327.896 282.178 327.352L283.074 326.824C283.223 327.24 283.49 327.571 283.874 327.816C284.269 328.051 284.733 328.168 285.266 328.168C285.789 328.168 286.226 328.067 286.578 327.864C286.93 327.651 287.106 327.325 287.106 326.888C287.106 326.525 286.946 326.237 286.626 326.024C286.306 325.811 285.917 325.645 285.458 325.528C284.999 325.411 284.541 325.283 284.082 325.144C283.623 324.995 283.234 324.755 282.914 324.424C282.594 324.083 282.434 323.64 282.434 323.096C282.434 322.445 282.69 321.901 283.202 321.464C283.725 321.027 284.381 320.808 285.17 320.808C285.821 320.808 286.391 320.957 286.882 321.256C287.373 321.544 287.735 321.939 287.97 322.44L287.09 322.952C286.781 322.205 286.141 321.832 285.17 321.832C284.711 321.832 284.317 321.944 283.986 322.168C283.655 322.381 283.49 322.691 283.49 323.096ZM290.751 323.096C290.751 323.459 290.911 323.747 291.231 323.96C291.551 324.173 291.941 324.339 292.399 324.456C292.858 324.573 293.317 324.707 293.775 324.856C294.234 324.995 294.623 325.235 294.943 325.576C295.263 325.907 295.423 326.344 295.423 326.888C295.423 327.571 295.151 328.125 294.607 328.552C294.074 328.979 293.381 329.192 292.527 329.192C291.759 329.192 291.103 329.021 290.559 328.68C290.026 328.339 289.653 327.896 289.439 327.352L290.335 326.824C290.485 327.24 290.751 327.571 291.135 327.816C291.53 328.051 291.994 328.168 292.527 328.168C293.05 328.168 293.487 328.067 293.839 327.864C294.191 327.651 294.367 327.325 294.367 326.888C294.367 326.525 294.207 326.237 293.887 326.024C293.567 325.811 293.178 325.645 292.719 325.528C292.261 325.411 291.802 325.283 291.343 325.144C290.885 324.995 290.495 324.755 290.175 324.424C289.855 324.083 289.695 323.64 289.695 323.096C289.695 322.445 289.951 321.901 290.463 321.464C290.986 321.027 291.642 320.808 292.431 320.808C293.082 320.808 293.653 320.957 294.143 321.256C294.634 321.544 294.997 321.939 295.231 322.44L294.351 322.952C294.042 322.205 293.402 321.832 292.431 321.832C291.973 321.832 291.578 321.944 291.247 322.168C290.917 322.381 290.751 322.691 290.751 323.096ZM299.269 327.64L298.309 331.24H297.349L297.989 327.64H299.269ZM318.473 329H317.161L312.553 323.528V329H311.433V323.528L306.825 329H305.513L310.329 323.24L305.673 317.8H306.985L311.433 322.968V317.8H312.553V322.968L317.001 317.8H318.313L313.657 323.24L318.473 329ZM326.548 321H327.604V329H326.548V327.432C325.812 328.605 324.734 329.192 323.316 329.192C322.174 329.192 321.198 328.787 320.388 327.976C319.588 327.165 319.188 326.173 319.188 325C319.188 323.827 319.588 322.835 320.388 322.024C321.198 321.213 322.174 320.808 323.316 320.808C324.734 320.808 325.812 321.395 326.548 322.568V321ZM321.156 327.256C321.764 327.864 322.51 328.168 323.396 328.168C324.281 328.168 325.028 327.864 325.636 327.256C326.244 326.637 326.548 325.885 326.548 325C326.548 324.115 326.244 323.368 325.636 322.76C325.028 322.141 324.281 321.832 323.396 321.832C322.51 321.832 321.764 322.141 321.156 322.76C320.548 323.368 320.244 324.115 320.244 325C320.244 325.885 320.548 326.637 321.156 327.256ZM337.039 327.976H338.159V331.144H337.103V329H330.575V331.144H329.519V327.976H330.495C331.039 327.261 331.311 326.253 331.311 324.952V321H337.039V327.976ZM331.775 327.976H335.983V322.024H332.367V324.952C332.367 326.179 332.17 327.187 331.775 327.976ZM346.804 321H347.86V329H346.804V327.432C346.068 328.605 344.991 329.192 343.572 329.192C342.431 329.192 341.455 328.787 340.644 327.976C339.844 327.165 339.444 326.173 339.444 325C339.444 323.827 339.844 322.835 340.644 322.024C341.455 321.213 342.431 320.808 343.572 320.808C344.991 320.808 346.068 321.395 346.804 322.568V321ZM341.412 327.256C342.02 327.864 342.767 328.168 343.652 328.168C344.538 328.168 345.284 327.864 345.892 327.256C346.5 326.637 346.804 325.885 346.804 325C346.804 324.115 346.5 323.368 345.892 322.76C345.284 322.141 344.538 321.832 343.652 321.832C342.767 321.832 342.02 322.141 341.412 322.76C340.804 323.368 340.5 324.115 340.5 325C340.5 325.885 340.804 326.637 341.412 327.256ZM356.24 321H357.296V329H356.24V325.512H351.632V329H350.576V321H351.632V324.488H356.24V321ZM270.192 339.08C270.043 339.229 269.861 339.304 269.648 339.304C269.435 339.304 269.253 339.229 269.104 339.08C268.955 338.931 268.88 338.749 268.88 338.536C268.88 338.323 268.955 338.141 269.104 337.992C269.253 337.843 269.435 337.768 269.648 337.768C269.861 337.768 270.043 337.843 270.192 337.992C270.341 338.141 270.416 338.323 270.416 338.536C270.416 338.749 270.341 338.931 270.192 339.08ZM269.12 349V341H270.176V349H269.12ZM282.769 349.192C281.073 349.192 279.67 348.632 278.561 347.512C277.452 346.392 276.897 345.021 276.897 343.4C276.897 341.779 277.452 340.408 278.561 339.288C279.67 338.168 281.073 337.608 282.769 337.608C283.804 337.608 284.753 337.859 285.617 338.36C286.481 338.851 287.148 339.517 287.617 340.36L286.625 340.936C286.273 340.253 285.75 339.709 285.057 339.304C284.364 338.899 283.601 338.696 282.769 338.696C281.372 338.696 280.23 339.149 279.345 340.056C278.46 340.963 278.017 342.077 278.017 343.4C278.017 344.723 278.46 345.837 279.345 346.744C280.23 347.651 281.372 348.104 282.769 348.104C283.601 348.104 284.364 347.901 285.057 347.496C285.75 347.091 286.273 346.547 286.625 345.864L287.617 346.424C287.158 347.267 286.492 347.939 285.617 348.44C284.753 348.941 283.804 349.192 282.769 349.192ZM296.405 347.992C295.594 348.792 294.602 349.192 293.429 349.192C292.255 349.192 291.258 348.792 290.437 347.992C289.626 347.181 289.221 346.184 289.221 345C289.221 343.816 289.626 342.824 290.437 342.024C291.258 341.213 292.255 340.808 293.429 340.808C294.602 340.808 295.594 341.213 296.405 342.024C297.226 342.824 297.637 343.816 297.637 345C297.637 346.184 297.226 347.181 296.405 347.992ZM291.189 347.256C291.797 347.864 292.543 348.168 293.429 348.168C294.314 348.168 295.061 347.864 295.669 347.256C296.277 346.637 296.581 345.885 296.581 345C296.581 344.115 296.277 343.368 295.669 342.76C295.061 342.141 294.314 341.832 293.429 341.832C292.543 341.832 291.797 342.141 291.189 342.76C290.581 343.368 290.277 344.115 290.277 345C290.277 345.885 290.581 346.637 291.189 347.256ZM303.436 349.192C302.284 349.192 301.324 348.813 300.556 348.056C299.788 347.288 299.404 346.296 299.404 345.08C299.404 343.715 299.606 342.669 300.012 341.944C300.417 341.208 301.238 340.541 302.476 339.944C302.71 339.827 303.02 339.688 303.404 339.528C303.798 339.368 304.092 339.24 304.284 339.144C304.486 339.048 304.705 338.925 304.94 338.776C305.174 338.616 305.35 338.44 305.468 338.248C305.585 338.056 305.66 337.827 305.692 337.56L306.524 338.04C306.481 338.296 306.396 338.536 306.268 338.76C306.14 338.984 306.006 339.165 305.868 339.304C305.74 339.443 305.532 339.597 305.244 339.768C304.966 339.928 304.748 340.045 304.588 340.12C304.438 340.184 304.172 340.296 303.788 340.456C303.414 340.616 303.164 340.723 303.036 340.776C302.289 341.096 301.74 341.432 301.388 341.784C301.036 342.125 300.785 342.573 300.636 343.128C300.998 342.648 301.457 342.296 302.012 342.072C302.577 341.837 303.126 341.72 303.66 341.72C304.726 341.72 305.606 342.072 306.3 342.776C307.004 343.469 307.356 344.36 307.356 345.448C307.356 346.525 306.982 347.421 306.236 348.136C305.5 348.84 304.566 349.192 303.436 349.192ZM303.436 348.136C304.268 348.136 304.95 347.885 305.484 347.384C306.028 346.872 306.3 346.227 306.3 345.448C306.3 344.659 306.044 344.013 305.532 343.512C305.03 343 304.358 342.744 303.516 342.744C302.758 342.744 302.07 342.984 301.452 343.464C300.833 343.933 300.524 344.563 300.524 345.352C300.524 346.163 300.801 346.829 301.356 347.352C301.921 347.875 302.614 348.136 303.436 348.136ZM316.322 341H317.378V349H316.322V347.432C315.586 348.605 314.509 349.192 313.09 349.192C311.949 349.192 310.973 348.787 310.162 347.976C309.362 347.165 308.962 346.173 308.962 345C308.962 343.827 309.362 342.835 310.162 342.024C310.973 341.213 311.949 340.808 313.09 340.808C314.509 340.808 315.586 341.395 316.322 342.568V341ZM310.93 347.256C311.538 347.864 312.285 348.168 313.17 348.168C314.055 348.168 314.802 347.864 315.41 347.256C316.018 346.637 316.322 345.885 316.322 345C316.322 344.115 316.018 343.368 315.41 342.76C314.802 342.141 314.055 341.832 313.17 341.832C312.285 341.832 311.538 342.141 310.93 342.76C310.322 343.368 310.018 344.115 310.018 345C310.018 345.885 310.322 346.637 310.93 347.256ZM326.558 349H325.15L321.15 345.144V349H320.094V341H321.15V344.536L324.958 341H326.398L322.27 344.84L326.558 349ZM334.304 341H335.2V349H334.144V342.84L329.376 349H328.48V341H329.536V347.16L334.304 341Z" fill="white"/>
</svg>
