<svg width="451" height="545" viewBox="0 0 451 545" fill="none" xmlns="http://www.w3.org/2000/svg">
<path d="M1.31199 360.099L32.8947 501.725C38.4016 526.42 61.4876 543.109 86.6637 540.595L396.286 509.68C425.304 506.782 445.695 479.768 440.527 451.067L399.864 225.238C398.399 217.101 398.975 208.727 401.54 200.866L428.461 118.367C433.365 103.341 430.874 86.8808 421.745 73.9775L387.145 25.0723C376.264 9.69248 357.661 1.73466 339.024 4.48688L221.037 21.9098L42.1582 50.7371C17.9273 54.642 0.113281 75.5567 0.113281 100.1V349.216C0.113281 352.877 0.515258 356.526 1.31199 360.099Z" fill="#C0B7EE"/>
<path d="M36.3453 174V162H39.0493V171.792L38.2813 171.248L45.7053 162H48.6013L38.7933 174H36.3453ZM42.0733 168.128L44.0253 166.384L48.7773 174H45.6733L42.0733 168.128ZM50.2107 164.8L51.5387 165.056L52.8827 164.8V174H50.2107V164.8ZM51.5387 163.856C51.0587 163.856 50.664 163.734 50.3547 163.488C50.056 163.232 49.9067 162.896 49.9067 162.48C49.9067 162.054 50.056 161.718 50.3547 161.472C50.664 161.216 51.0587 161.088 51.5387 161.088C52.0293 161.088 52.424 161.216 52.7227 161.472C53.0213 161.718 53.1707 162.054 53.1707 162.48C53.1707 162.896 53.0213 163.232 52.7227 163.488C52.424 163.734 52.0293 163.856 51.5387 163.856ZM56.9462 164.896H66.3542V174H63.6822V165.696L64.9142 166.912H58.2742L59.4262 165.92C59.4795 166.571 59.5222 167.174 59.5542 167.728C59.5968 168.272 59.6182 168.763 59.6182 169.2C59.6182 170.95 59.3568 172.219 58.8342 173.008C58.3222 173.798 57.4902 174.192 56.3382 174.192C56.0182 174.192 55.7088 174.155 55.4102 174.08C55.1222 174.016 54.8395 173.904 54.5622 173.744V171.808C54.7542 171.883 54.9408 171.942 55.1222 171.984C55.3142 172.016 55.4902 172.032 55.6502 172.032C56.1942 172.032 56.5835 171.787 56.8182 171.296C57.0635 170.795 57.1862 169.974 57.1862 168.832C57.1862 168.32 57.1648 167.734 57.1222 167.072C57.0902 166.411 57.0315 165.686 56.9462 164.896ZM68.8425 174V164.896H71.4985V173.312L70.6345 172.08H74.1865C74.6772 172.08 75.0559 171.963 75.3225 171.728C75.5892 171.483 75.7225 171.152 75.7225 170.736C75.7225 170.299 75.5892 169.963 75.3225 169.728C75.0559 169.483 74.6772 169.36 74.1865 169.36H70.6505V167.52H74.5865C75.3652 167.52 76.0372 167.659 76.6025 167.936C77.1785 168.203 77.6265 168.582 77.9465 169.072C78.2665 169.552 78.4265 170.118 78.4265 170.768C78.4265 171.408 78.2665 171.974 77.9465 172.464C77.6265 172.955 77.1839 173.334 76.6185 173.6C76.0532 173.867 75.3865 174 74.6185 174H68.8425ZM80.2132 174V164.896H82.8852V171.84L82.1012 171.568L87.5252 164.896H90.4372L82.6132 174H80.2132ZM87.6532 174L84.9332 169.536L86.9012 168.016L90.7092 174H87.6532ZM92.0994 164.8L93.4274 165.056L94.7714 164.8V174H92.0994V164.8ZM93.4274 163.856C92.9474 163.856 92.5527 163.734 92.2434 163.488C91.9447 163.232 91.7954 162.896 91.7954 162.48C91.7954 162.054 91.9447 161.718 92.2434 161.472C92.5527 161.216 92.9474 161.088 93.4274 161.088C93.9181 161.088 94.3127 161.216 94.6114 161.472C94.9101 161.718 95.0594 162.054 95.0594 162.48C95.0594 162.896 94.9101 163.232 94.6114 163.488C94.3127 163.734 93.9181 163.856 93.4274 163.856ZM107.715 170.288C107.608 171.067 107.304 171.755 106.803 172.352C106.312 172.95 105.678 173.414 104.899 173.744C104.12 174.075 103.251 174.24 102.291 174.24C101.203 174.24 100.243 174.043 99.4109 173.648C98.5896 173.243 97.9442 172.678 97.4749 171.952C97.0162 171.227 96.7869 170.395 96.7869 169.456C96.7869 168.507 97.0162 167.675 97.4749 166.96C97.9442 166.235 98.5896 165.67 99.4109 165.264C100.243 164.859 101.203 164.656 102.291 164.656C103.251 164.656 104.12 164.827 104.899 165.168C105.678 165.499 106.312 165.963 106.803 166.56C107.304 167.147 107.608 167.835 107.715 168.624H105.043C104.904 168.006 104.584 167.531 104.083 167.2C103.592 166.859 102.995 166.688 102.291 166.688C101.726 166.688 101.23 166.8 100.803 167.024C100.387 167.238 100.067 167.552 99.8429 167.968C99.6189 168.374 99.5069 168.87 99.5069 169.456C99.5069 170.032 99.6189 170.528 99.8429 170.944C100.067 171.35 100.387 171.664 100.803 171.888C101.23 172.102 101.726 172.208 102.291 172.208C103.006 172.208 103.608 172.032 104.099 171.68C104.6 171.328 104.915 170.864 105.043 170.288H107.715ZM112.126 165.824H114.798V174H112.126V165.824ZM108.51 164.896H118.414V166.944H108.51V164.896ZM120.118 174V164.896H122.774V173.312L121.91 172.08H125.462C125.952 172.08 126.331 171.963 126.598 171.728C126.864 171.483 126.998 171.152 126.998 170.736C126.998 170.299 126.864 169.963 126.598 169.728C126.331 169.483 125.952 169.36 125.462 169.36H121.926V167.52H125.862C126.64 167.52 127.312 167.659 127.878 167.936C128.454 168.203 128.902 168.582 129.222 169.072C129.542 169.552 129.702 170.118 129.702 170.768C129.702 171.408 129.542 171.974 129.222 172.464C128.902 172.955 128.459 173.334 127.894 173.6C127.328 173.867 126.662 174 125.894 174H120.118ZM36.1213 184.896H38.7933V187.792L38.6813 188.144V190.336L38.7933 190.992V196.64H36.1213V184.896ZM37.8653 189.456C38.0466 188.486 38.3613 187.643 38.8093 186.928C39.2679 186.203 39.8386 185.643 40.5213 185.248C41.2146 184.854 41.9826 184.656 42.8253 184.656C43.7213 184.656 44.5053 184.859 45.1773 185.264C45.8599 185.659 46.3933 186.219 46.7773 186.944C47.1613 187.659 47.3533 188.496 47.3533 189.456C47.3533 190.406 47.1613 191.243 46.7773 191.968C46.3933 192.683 45.8599 193.243 45.1773 193.648C44.5053 194.043 43.7213 194.24 42.8253 194.24C41.9719 194.24 41.2039 194.043 40.5213 193.648C39.8493 193.254 39.2839 192.699 38.8253 191.984C38.3666 191.259 38.0466 190.416 37.8653 189.456ZM44.6493 189.456C44.6493 188.923 44.5373 188.454 44.3133 188.048C44.0999 187.632 43.8013 187.312 43.4173 187.088C43.0333 186.854 42.5906 186.736 42.0893 186.736C41.5879 186.736 41.1133 186.854 40.6653 187.088C40.2173 187.312 39.8226 187.632 39.4813 188.048C39.1506 188.454 38.8893 188.923 38.6973 189.456C38.8893 189.99 39.1506 190.459 39.4813 190.864C39.8226 191.27 40.2173 191.59 40.6653 191.824C41.1133 192.048 41.5879 192.16 42.0893 192.16C42.5906 192.16 43.0333 192.048 43.4173 191.824C43.8013 191.59 44.0999 191.27 44.3133 190.864C44.5373 190.459 44.6493 189.99 44.6493 189.456ZM54.5342 194.24C53.4568 194.24 52.4915 194.043 51.6382 193.648C50.7955 193.243 50.1288 192.678 49.6382 191.952C49.1582 191.227 48.9182 190.384 48.9182 189.424C48.9182 188.475 49.1475 187.643 49.6062 186.928C50.0755 186.214 50.7155 185.659 51.5262 185.264C52.3368 184.859 53.2595 184.656 54.2942 184.656C55.3502 184.656 56.2568 184.891 57.0142 185.36C57.7715 185.819 58.3528 186.47 58.7582 187.312C59.1742 188.155 59.3822 189.147 59.3822 190.288H51.0622V188.512H57.9422L56.9022 189.152C56.8595 188.619 56.7262 188.166 56.5022 187.792C56.2888 187.419 55.9955 187.131 55.6222 186.928C55.2488 186.726 54.8115 186.624 54.3102 186.624C53.7662 186.624 53.2915 186.736 52.8862 186.96C52.4915 187.174 52.1822 187.478 51.9582 187.872C51.7448 188.256 51.6382 188.71 51.6382 189.232C51.6382 189.862 51.7768 190.4 52.0542 190.848C52.3315 191.296 52.7368 191.638 53.2702 191.872C53.8035 192.107 54.4488 192.224 55.2062 192.224C55.8888 192.224 56.5768 192.128 57.2702 191.936C57.9635 191.734 58.5875 191.451 59.1422 191.088V192.88C58.5448 193.307 57.8462 193.643 57.0462 193.888C56.2568 194.123 55.4195 194.24 54.5342 194.24ZM69.761 194L69.377 190.672L69.809 189.456L69.377 188.256L69.761 184.896H72.529L72.001 189.456L72.529 194H69.761ZM70.465 189.456C70.2944 190.416 69.9797 191.259 69.521 191.984C69.073 192.699 68.5024 193.254 67.809 193.648C67.1264 194.043 66.3584 194.24 65.505 194.24C64.6197 194.24 63.8357 194.043 63.153 193.648C62.4704 193.243 61.937 192.683 61.553 191.968C61.1797 191.243 60.993 190.406 60.993 189.456C60.993 188.496 61.1797 187.659 61.553 186.944C61.937 186.219 62.4704 185.659 63.153 185.264C63.8357 184.859 64.6197 184.656 65.505 184.656C66.3584 184.656 67.1264 184.854 67.809 185.248C68.5024 185.643 69.0784 186.203 69.537 186.928C69.9957 187.643 70.305 188.486 70.465 189.456ZM63.697 189.456C63.697 189.99 63.8037 190.459 64.017 190.864C64.241 191.27 64.545 191.59 64.929 191.824C65.313 192.048 65.7557 192.16 66.257 192.16C66.7584 192.16 67.2277 192.048 67.665 191.824C68.113 191.59 68.5077 191.27 68.849 190.864C69.1904 190.459 69.457 189.99 69.649 189.456C69.457 188.923 69.1904 188.454 68.849 188.048C68.5077 187.632 68.113 187.312 67.665 187.088C67.2277 186.854 66.7584 186.736 66.257 186.736C65.7557 186.736 65.313 186.854 64.929 187.088C64.545 187.312 64.241 187.632 64.017 188.048C63.8037 188.454 63.697 188.923 63.697 189.456ZM76.3637 184.896H85.7717V194H83.0997V185.696L84.3317 186.912H77.6917L78.8437 185.92C78.897 186.571 78.9397 187.174 78.9717 187.728C79.0143 188.272 79.0357 188.763 79.0357 189.2C79.0357 190.95 78.7743 192.219 78.2517 193.008C77.7397 193.798 76.9077 194.192 75.7557 194.192C75.4357 194.192 75.1263 194.155 74.8277 194.08C74.5397 194.016 74.257 193.904 73.9797 193.744V191.808C74.1717 191.883 74.3583 191.942 74.5397 191.984C74.7317 192.016 74.9077 192.032 75.0677 192.032C75.6117 192.032 76.001 191.787 76.2357 191.296C76.481 190.795 76.6037 189.974 76.6037 188.832C76.6037 188.32 76.5823 187.734 76.5397 187.072C76.5077 186.411 76.449 185.686 76.3637 184.896ZM88.26 184.8L89.588 185.056L90.932 184.8V194H88.26V184.8ZM89.588 183.856C89.108 183.856 88.7134 183.734 88.404 183.488C88.1054 183.232 87.956 182.896 87.956 182.48C87.956 182.054 88.1054 181.718 88.404 181.472C88.7134 181.216 89.108 181.088 89.588 181.088C90.0787 181.088 90.4734 181.216 90.772 181.472C91.0707 181.718 91.22 182.054 91.22 182.48C91.22 182.896 91.0707 183.232 90.772 183.488C90.4734 183.734 90.0787 183.856 89.588 183.856ZM97.9235 194.24C96.9102 194.24 96.0249 194.112 95.2675 193.856C94.5102 193.59 93.9182 193.211 93.4915 192.72C93.0649 192.219 92.8302 191.632 92.7875 190.96H95.3795C95.4542 191.408 95.7102 191.75 96.1475 191.984C96.5849 192.219 97.1769 192.336 97.9235 192.336C98.6382 192.336 99.1929 192.246 99.5875 192.064C99.9929 191.872 100.196 191.579 100.196 191.184C100.196 190.864 100.025 190.63 99.6835 190.48C99.3529 190.32 98.8195 190.24 98.0835 190.24H96.3875V188.64H98.0355C98.6969 188.64 99.1822 188.544 99.4915 188.352C99.8115 188.16 99.9715 187.92 99.9715 187.632C99.9715 187.28 99.7849 187.014 99.4115 186.832C99.0489 186.651 98.5582 186.56 97.9395 186.56C97.2569 186.56 96.7075 186.667 96.2915 186.88C95.8755 187.094 95.6302 187.414 95.5555 187.84H92.9795C93.0222 187.254 93.2462 186.72 93.6515 186.24C94.0569 185.76 94.6275 185.376 95.3635 185.088C96.1102 184.8 97.0062 184.656 98.0515 184.656C98.9795 184.656 99.7902 184.768 100.484 184.992C101.177 185.216 101.716 185.526 102.1 185.92C102.484 186.315 102.676 186.768 102.676 187.28C102.676 187.686 102.548 188.059 102.292 188.4C102.046 188.742 101.646 189.014 101.092 189.216C100.548 189.419 99.8329 189.52 98.9475 189.52V189.248C100.217 189.195 101.193 189.35 101.876 189.712C102.569 190.075 102.916 190.63 102.916 191.376C102.916 191.92 102.718 192.411 102.324 192.848C101.94 193.286 101.374 193.627 100.628 193.872C99.8809 194.118 98.9795 194.24 97.9235 194.24ZM110.186 194.24C109.055 194.24 108.063 194.043 107.21 193.648C106.357 193.243 105.69 192.683 105.21 191.968C104.73 191.243 104.49 190.406 104.49 189.456C104.49 188.496 104.73 187.659 105.21 186.944C105.69 186.219 106.357 185.659 107.21 185.264C108.063 184.859 109.055 184.656 110.186 184.656C111.317 184.656 112.309 184.859 113.162 185.264C114.015 185.659 114.677 186.219 115.146 186.944C115.626 187.659 115.866 188.496 115.866 189.456C115.866 190.406 115.626 191.243 115.146 191.968C114.677 192.683 114.015 193.243 113.162 193.648C112.309 194.043 111.317 194.24 110.186 194.24ZM110.186 192.208C110.805 192.208 111.333 192.096 111.77 191.872C112.218 191.648 112.559 191.334 112.794 190.928C113.039 190.512 113.162 190.022 113.162 189.456C113.162 188.88 113.039 188.39 112.794 187.984C112.559 187.568 112.218 187.248 111.77 187.024C111.333 186.8 110.805 186.688 110.186 186.688C109.578 186.688 109.05 186.8 108.602 187.024C108.154 187.248 107.807 187.568 107.562 187.984C107.327 188.39 107.21 188.88 107.21 189.456C107.21 190.022 107.327 190.512 107.562 190.928C107.807 191.334 108.154 191.648 108.602 191.872C109.05 192.096 109.578 192.208 110.186 192.208ZM117.648 194L118.16 189.456L117.648 184.896H124.656C125.531 184.896 126.224 185.104 126.736 185.52C127.248 185.926 127.504 186.48 127.504 187.184C127.504 187.846 127.248 188.384 126.736 188.8C126.224 189.206 125.509 189.446 124.592 189.52L124.784 189.072C125.851 189.104 126.661 189.328 127.216 189.744C127.781 190.15 128.064 190.72 128.064 191.456C128.064 192.246 127.776 192.87 127.2 193.328C126.635 193.776 125.856 194 124.864 194H117.648ZM120.224 193.408L119.2 192.272H124.048C124.507 192.272 124.843 192.182 125.056 192C125.269 191.808 125.376 191.542 125.376 191.2C125.376 190.891 125.259 190.64 125.024 190.448C124.789 190.246 124.405 190.144 123.872 190.144H119.744V188.624H123.52C123.968 188.624 124.293 188.534 124.496 188.352C124.709 188.171 124.816 187.926 124.816 187.616C124.816 187.328 124.72 187.094 124.528 186.912C124.347 186.731 124.048 186.64 123.632 186.64H119.216L120.224 185.504L120.72 189.456L120.224 193.408ZM138.407 194L138.023 190.672L138.455 189.456L138.023 188.256L138.407 184.896H141.175L140.647 189.456L141.175 194H138.407ZM139.111 189.456C138.94 190.416 138.625 191.259 138.167 191.984C137.719 192.699 137.148 193.254 136.455 193.648C135.772 194.043 135.004 194.24 134.151 194.24C133.265 194.24 132.481 194.043 131.799 193.648C131.116 193.243 130.583 192.683 130.199 191.968C129.825 191.243 129.639 190.406 129.639 189.456C129.639 188.496 129.825 187.659 130.199 186.944C130.583 186.219 131.116 185.659 131.799 185.264C132.481 184.859 133.265 184.656 134.151 184.656C135.004 184.656 135.772 184.854 136.455 185.248C137.148 185.643 137.724 186.203 138.183 186.928C138.641 187.643 138.951 188.486 139.111 189.456ZM132.343 189.456C132.343 189.99 132.449 190.459 132.663 190.864C132.887 191.27 133.191 191.59 133.575 191.824C133.959 192.048 134.401 192.16 134.903 192.16C135.404 192.16 135.873 192.048 136.311 191.824C136.759 191.59 137.153 191.27 137.495 190.864C137.836 190.459 138.103 189.99 138.295 189.456C138.103 188.923 137.836 188.454 137.495 188.048C137.153 187.632 136.759 187.312 136.311 187.088C135.873 186.854 135.404 186.736 134.903 186.736C134.401 186.736 133.959 186.854 133.575 187.088C133.191 187.312 132.887 187.632 132.663 188.048C132.449 188.454 132.343 188.923 132.343 189.456ZM143.441 184.896H146.097V194H143.441V184.896ZM151.073 184.896H153.729V194H151.073V184.896ZM144.961 188.352H152.113V190.368H144.961V188.352ZM156.218 194V184.896H158.842V192.592L158.186 192.416L163.674 184.896H167.114V194H164.49V186.16L165.146 186.352L159.562 194H156.218ZM168.452 194L172.756 188.848L172.74 189.84L168.708 184.896H171.7L174.548 188.32H173.62L176.484 184.896H179.428L175.268 189.888L175.14 188.64L179.668 194H176.628L173.524 190.32H174.5L171.428 194H168.452ZM46.3453 204.896V214H43.6733V205.696L44.9053 206.912H37.5613L38.7933 205.696V214H36.1213V204.896H46.3453ZM48.8357 204.896H51.5077V207.792L51.3957 208.144V210.336L51.5077 210.992V216.64H48.8357V204.896ZM50.5797 209.456C50.761 208.486 51.0757 207.643 51.5237 206.928C51.9823 206.203 52.553 205.643 53.2357 205.248C53.929 204.854 54.697 204.656 55.5397 204.656C56.4357 204.656 57.2197 204.859 57.8917 205.264C58.5743 205.659 59.1077 206.219 59.4917 206.944C59.8757 207.659 60.0677 208.496 60.0677 209.456C60.0677 210.406 59.8757 211.243 59.4917 211.968C59.1077 212.683 58.5743 213.243 57.8917 213.648C57.2197 214.043 56.4357 214.24 55.5397 214.24C54.6863 214.24 53.9183 214.043 53.2357 213.648C52.5637 213.254 51.9983 212.699 51.5397 211.984C51.081 211.259 50.761 210.416 50.5797 209.456ZM57.3637 209.456C57.3637 208.923 57.2517 208.454 57.0277 208.048C56.8143 207.632 56.5157 207.312 56.1317 207.088C55.7477 206.854 55.305 206.736 54.8037 206.736C54.3023 206.736 53.8277 206.854 53.3797 207.088C52.9317 207.312 52.537 207.632 52.1957 208.048C51.865 208.454 51.6037 208.923 51.4117 209.456C51.6037 209.99 51.865 210.459 52.1957 210.864C52.537 211.27 52.9317 211.59 53.3797 211.824C53.8277 212.048 54.3023 212.16 54.8037 212.16C55.305 212.16 55.7477 212.048 56.1317 211.824C56.5157 211.59 56.8143 211.27 57.0277 210.864C57.2517 210.459 57.3637 209.99 57.3637 209.456ZM67.3285 214.24C66.1979 214.24 65.2059 214.043 64.3525 213.648C63.4992 213.243 62.8325 212.683 62.3525 211.968C61.8725 211.243 61.6325 210.406 61.6325 209.456C61.6325 208.496 61.8725 207.659 62.3525 206.944C62.8325 206.219 63.4992 205.659 64.3525 205.264C65.2059 204.859 66.1979 204.656 67.3285 204.656C68.4592 204.656 69.4512 204.859 70.3045 205.264C71.1579 205.659 71.8192 206.219 72.2885 206.944C72.7685 207.659 73.0085 208.496 73.0085 209.456C73.0085 210.406 72.7685 211.243 72.2885 211.968C71.8192 212.683 71.1579 213.243 70.3045 213.648C69.4512 214.043 68.4592 214.24 67.3285 214.24ZM67.3285 212.208C67.9472 212.208 68.4752 212.096 68.9125 211.872C69.3605 211.648 69.7019 211.334 69.9365 210.928C70.1819 210.512 70.3045 210.022 70.3045 209.456C70.3045 208.88 70.1819 208.39 69.9365 207.984C69.7019 207.568 69.3605 207.248 68.9125 207.024C68.4752 206.8 67.9472 206.688 67.3285 206.688C66.7205 206.688 66.1925 206.8 65.7445 207.024C65.2965 207.248 64.9499 207.568 64.7045 207.984C64.4699 208.39 64.3525 208.88 64.3525 209.456C64.3525 210.022 64.4699 210.512 64.7045 210.928C64.9499 211.334 65.2965 211.648 65.7445 211.872C66.1925 212.096 66.7205 212.208 67.3285 212.208ZM80.1817 214.24C79.1043 214.24 78.139 214.043 77.2857 213.648C76.443 213.243 75.7763 212.678 75.2857 211.952C74.8057 211.227 74.5657 210.384 74.5657 209.424C74.5657 208.475 74.795 207.643 75.2537 206.928C75.723 206.214 76.363 205.659 77.1737 205.264C77.9843 204.859 78.907 204.656 79.9417 204.656C80.9977 204.656 81.9043 204.891 82.6617 205.36C83.419 205.819 84.0003 206.47 84.4057 207.312C84.8217 208.155 85.0297 209.147 85.0297 210.288H76.7097V208.512H83.5897L82.5497 209.152C82.507 208.619 82.3737 208.166 82.1497 207.792C81.9363 207.419 81.643 207.131 81.2697 206.928C80.8963 206.726 80.459 206.624 79.9577 206.624C79.4137 206.624 78.939 206.736 78.5337 206.96C78.139 207.174 77.8297 207.478 77.6057 207.872C77.3923 208.256 77.2857 208.71 77.2857 209.232C77.2857 209.862 77.4243 210.4 77.7017 210.848C77.979 211.296 78.3843 211.638 78.9177 211.872C79.451 212.107 80.0963 212.224 80.8537 212.224C81.5363 212.224 82.2243 212.128 82.9177 211.936C83.611 211.734 84.235 211.451 84.7897 211.088V212.88C84.1923 213.307 83.4937 213.643 82.6937 213.888C81.9043 214.123 81.067 214.24 80.1817 214.24ZM87.0725 214V204.896H89.7445V211.84L88.9605 211.568L94.3845 204.896H97.2965L89.4725 214H87.0725ZM94.5125 214L91.7925 209.536L93.7605 208.016L97.5685 214H94.5125ZM101.791 205.824H104.463V214H101.791V205.824ZM98.1748 204.896H108.079V206.944H98.1748V204.896ZM109.783 204.8L111.111 205.056L112.455 204.8V214H109.783V204.8ZM111.111 203.856C110.631 203.856 110.236 203.734 109.927 203.488C109.628 203.232 109.479 202.896 109.479 202.48C109.479 202.054 109.628 201.718 109.927 201.472C110.236 201.216 110.631 201.088 111.111 201.088C111.601 201.088 111.996 201.216 112.295 201.472C112.593 201.718 112.743 202.054 112.743 202.48C112.743 202.896 112.593 203.232 112.295 203.488C111.996 203.734 111.601 203.856 111.111 203.856ZM114.726 214L115.238 209.456L114.726 204.896H121.734C122.609 204.896 123.302 205.104 123.814 205.52C124.326 205.926 124.582 206.48 124.582 207.184C124.582 207.846 124.326 208.384 123.814 208.8C123.302 209.206 122.587 209.446 121.67 209.52L121.862 209.072C122.929 209.104 123.739 209.328 124.294 209.744C124.859 210.15 125.142 210.72 125.142 211.456C125.142 212.246 124.854 212.87 124.278 213.328C123.713 213.776 122.934 214 121.942 214H114.726ZM117.302 213.408L116.278 212.272H121.126C121.585 212.272 121.921 212.182 122.134 212C122.347 211.808 122.454 211.542 122.454 211.2C122.454 210.891 122.337 210.64 122.102 210.448C121.867 210.246 121.483 210.144 120.95 210.144H116.822V208.624H120.598C121.046 208.624 121.371 208.534 121.574 208.352C121.787 208.171 121.894 207.926 121.894 207.616C121.894 207.328 121.798 207.094 121.606 206.912C121.425 206.731 121.126 206.64 120.71 206.64H116.294L117.302 205.504L117.798 209.456L117.302 213.408ZM35.8973 234L36.4093 229.456L35.8973 224.896H42.9053C43.7799 224.896 44.4733 225.104 44.9853 225.52C45.4973 225.926 45.7533 226.48 45.7533 227.184C45.7533 227.846 45.4973 228.384 44.9853 228.8C44.4733 229.206 43.7586 229.446 42.8413 229.52L43.0333 229.072C44.0999 229.104 44.9106 229.328 45.4653 229.744C46.0306 230.15 46.3133 230.72 46.3133 231.456C46.3133 232.246 46.0253 232.87 45.4493 233.328C44.8839 233.776 44.1053 234 43.1133 234H35.8973ZM38.4733 233.408L37.4493 232.272H42.2973C42.7559 232.272 43.0919 232.182 43.3053 232C43.5186 231.808 43.6253 231.542 43.6253 231.2C43.6253 230.891 43.5079 230.64 43.2733 230.448C43.0386 230.246 42.6546 230.144 42.1213 230.144H37.9933V228.624H41.7693C42.2173 228.624 42.5426 228.534 42.7453 228.352C42.9586 228.171 43.0653 227.926 43.0653 227.616C43.0653 227.328 42.9693 227.094 42.7773 226.912C42.5959 226.731 42.2973 226.64 41.8813 226.64H37.4653L38.4733 225.504L38.9693 229.456L38.4733 233.408ZM52.4778 230.08H55.2298C55.2938 230.486 55.4698 230.843 55.7578 231.152C56.0564 231.451 56.4511 231.686 56.9418 231.856C57.4431 232.016 58.0191 232.096 58.6698 232.096C59.6191 232.096 60.3658 231.963 60.9098 231.696C61.4644 231.419 61.7418 231.035 61.7418 230.544C61.7418 230.16 61.5818 229.867 61.2618 229.664C60.9524 229.451 60.3711 229.296 59.5178 229.2L57.1018 228.928C55.5444 228.758 54.4138 228.395 53.7098 227.84C53.0164 227.275 52.6698 226.491 52.6698 225.488C52.6698 224.699 52.8991 224.027 53.3578 223.472C53.8271 222.918 54.4831 222.496 55.3258 222.208C56.1684 221.91 57.1604 221.76 58.3018 221.76C59.4111 221.76 60.3978 221.926 61.2618 222.256C62.1258 222.576 62.8138 223.03 63.3258 223.616C63.8378 224.192 64.1151 224.87 64.1578 225.648H61.4058C61.3524 225.296 61.1924 224.992 60.9258 224.736C60.6698 224.47 60.3124 224.267 59.8538 224.128C59.3951 223.979 58.8564 223.904 58.2378 223.904C57.3738 223.904 56.6858 224.032 56.1738 224.288C55.6618 224.544 55.4058 224.907 55.4058 225.376C55.4058 225.739 55.5551 226.022 55.8538 226.224C56.1631 226.416 56.7018 226.56 57.4698 226.656L59.9818 226.96C61.0911 227.078 61.9711 227.27 62.6218 227.536C63.2831 227.792 63.7524 228.139 64.0298 228.576C64.3178 229.014 64.4618 229.568 64.4618 230.24C64.4618 231.04 64.2164 231.744 63.7258 232.352C63.2458 232.95 62.5684 233.414 61.6938 233.744C60.8191 234.075 59.7951 234.24 58.6218 234.24C57.4271 234.24 56.3764 234.07 55.4698 233.728C54.5631 233.376 53.8484 232.891 53.3258 232.272C52.8031 231.643 52.5204 230.912 52.4778 230.08ZM70.3704 234.24C69.5277 234.24 68.8077 234.07 68.2104 233.728C67.6237 233.376 67.1704 232.88 66.8504 232.24C66.5411 231.6 66.3864 230.843 66.3864 229.968V224.896H69.0584V229.568C69.0584 230.379 69.2504 230.998 69.6344 231.424C70.0184 231.84 70.5624 232.048 71.2664 232.048C71.7891 232.048 72.2317 231.942 72.5944 231.728C72.9677 231.504 73.2557 231.184 73.4584 230.768C73.6611 230.352 73.7624 229.867 73.7624 229.312L74.6264 229.776C74.5197 230.715 74.2691 231.52 73.8744 232.192C73.4797 232.854 72.9784 233.36 72.3704 233.712C71.7731 234.064 71.1064 234.24 70.3704 234.24ZM74.3224 234L73.7624 230.544V224.896H76.4344V230.944L76.9944 234H74.3224ZM79.0569 221.68H81.7289V227.792L81.3609 228.512V230.496L81.7289 231.232V234H79.0569V221.68ZM80.7849 229.456C80.9556 228.486 81.2702 227.643 81.7289 226.928C82.1876 226.203 82.7582 225.643 83.4409 225.248C84.1236 224.854 84.8916 224.656 85.7449 224.656C86.6302 224.656 87.4142 224.859 88.0969 225.264C88.7796 225.659 89.3129 226.219 89.6969 226.944C90.0809 227.659 90.2729 228.496 90.2729 229.456C90.2729 230.406 90.0809 231.243 89.6969 231.968C89.3129 232.683 88.7796 233.243 88.0969 233.648C87.4142 234.043 86.6302 234.24 85.7449 234.24C84.8916 234.24 84.1236 234.043 83.4409 233.648C82.7582 233.254 82.1876 232.699 81.7289 231.984C81.2809 231.259 80.9662 230.416 80.7849 229.456ZM87.5529 229.456C87.5529 228.923 87.4409 228.454 87.2169 228.048C87.0036 227.632 86.7049 227.312 86.3209 227.088C85.9369 226.854 85.4996 226.736 85.0089 226.736C84.5076 226.736 84.0329 226.854 83.5849 227.088C83.1369 227.312 82.7422 227.632 82.4009 228.048C82.0702 228.454 81.8089 228.923 81.6169 229.456C81.8089 229.99 82.0702 230.459 82.4009 230.864C82.7422 231.27 83.1369 231.59 83.5849 231.824C84.0329 232.048 84.5076 232.16 85.0089 232.16C85.4996 232.16 85.9369 232.048 86.3209 231.824C86.7049 231.59 87.0036 231.27 87.2169 230.864C87.4409 230.459 87.5529 229.99 87.5529 229.456ZM91.8549 224.896H94.5269L95.1029 228.368V234H92.4309V227.968L91.8549 224.896ZM98.3509 224.656C99.1616 224.656 99.8549 224.832 100.431 225.184C101.007 225.526 101.444 226.016 101.743 226.656C102.052 227.296 102.207 228.059 102.207 228.944V234H99.5349V229.344C99.5349 228.523 99.3536 227.904 98.9909 227.488C98.6389 227.062 98.1216 226.848 97.4389 226.848C96.9589 226.848 96.5429 226.966 96.1909 227.2C95.8389 227.424 95.5669 227.739 95.3749 228.144C95.1936 228.55 95.1029 229.035 95.1029 229.6L94.2229 229.136C94.3296 228.176 94.5749 227.366 94.9589 226.704C95.3429 226.043 95.8229 225.536 96.3989 225.184C96.9856 224.832 97.6362 224.656 98.3509 224.656ZM105.439 224.656C106.25 224.656 106.943 224.832 107.519 225.184C108.106 225.526 108.548 226.016 108.847 226.656C109.156 227.296 109.311 228.059 109.311 228.944V234H106.639V229.344C106.639 228.523 106.458 227.904 106.095 227.488C105.743 227.062 105.226 226.848 104.543 226.848C104.063 226.848 103.647 226.966 103.295 227.2C102.943 227.424 102.671 227.739 102.479 228.144C102.298 228.55 102.207 229.035 102.207 229.6L101.327 229.136C101.434 228.176 101.679 227.366 102.063 226.704C102.447 226.043 102.927 225.536 103.503 225.184C104.09 224.832 104.735 224.656 105.439 224.656ZM120.009 234L119.625 230.672L120.057 229.456L119.625 228.256L120.009 224.896H122.777L122.249 229.456L122.777 234H120.009ZM120.713 229.456C120.542 230.416 120.228 231.259 119.769 231.984C119.321 232.699 118.75 233.254 118.057 233.648C117.374 234.043 116.606 234.24 115.753 234.24C114.868 234.24 114.084 234.043 113.401 233.648C112.718 233.243 112.185 232.683 111.801 231.968C111.428 231.243 111.241 230.406 111.241 229.456C111.241 228.496 111.428 227.659 111.801 226.944C112.185 226.219 112.718 225.659 113.401 225.264C114.084 224.859 114.868 224.656 115.753 224.656C116.606 224.656 117.374 224.854 118.057 225.248C118.75 225.643 119.326 226.203 119.785 226.928C120.244 227.643 120.553 228.486 120.713 229.456ZM113.945 229.456C113.945 229.99 114.052 230.459 114.265 230.864C114.489 231.27 114.793 231.59 115.177 231.824C115.561 232.048 116.004 232.16 116.505 232.16C117.006 232.16 117.476 232.048 117.913 231.824C118.361 231.59 118.756 231.27 119.097 230.864C119.438 230.459 119.705 229.99 119.897 229.456C119.705 228.923 119.438 228.454 119.097 228.048C118.756 227.632 118.361 227.312 117.913 227.088C117.476 226.854 117.006 226.736 116.505 226.736C116.004 226.736 115.561 226.854 115.177 227.088C114.793 227.312 114.489 227.632 114.265 228.048C114.052 228.454 113.945 228.923 113.945 229.456ZM124.612 224.896H127.316L127.86 228.176V234H125.188V227.888L124.612 224.896ZM132.292 224.8V227.104C132.014 227.04 131.737 226.992 131.46 226.96C131.182 226.928 130.921 226.912 130.676 226.912C130.142 226.912 129.662 227.024 129.236 227.248C128.809 227.472 128.473 227.819 128.228 228.288C127.982 228.758 127.86 229.35 127.86 230.064L127.3 229.392C127.364 228.742 127.481 228.134 127.652 227.568C127.822 226.992 128.057 226.491 128.356 226.064C128.665 225.627 129.044 225.286 129.492 225.04C129.94 224.784 130.473 224.656 131.092 224.656C131.294 224.656 131.497 224.672 131.7 224.704C131.913 224.726 132.11 224.758 132.292 224.8ZM134.008 224.8L135.336 225.056L136.68 224.8V234H134.008V224.8ZM135.336 223.856C134.856 223.856 134.461 223.734 134.152 223.488C133.853 223.232 133.704 222.896 133.704 222.48C133.704 222.054 133.853 221.718 134.152 221.472C134.461 221.216 134.856 221.088 135.336 221.088C135.827 221.088 136.221 221.216 136.52 221.472C136.819 221.718 136.968 222.054 136.968 222.48C136.968 222.896 136.819 223.232 136.52 223.488C136.221 223.734 135.827 223.856 135.336 223.856ZM138.744 224.896H141.416L141.992 228.368V234H139.32V227.968L138.744 224.896ZM145.464 224.656C146.328 224.656 147.064 224.832 147.672 225.184C148.28 225.526 148.744 226.016 149.064 226.656C149.384 227.296 149.544 228.059 149.544 228.944V234H146.872V229.344C146.872 228.523 146.674 227.904 146.28 227.488C145.885 227.062 145.309 226.848 144.552 226.848C144.04 226.848 143.586 226.966 143.192 227.2C142.808 227.424 142.509 227.739 142.296 228.144C142.093 228.55 141.992 229.035 141.992 229.6L141.112 229.136C141.218 228.176 141.474 227.366 141.88 226.704C142.285 226.043 142.797 225.536 143.416 225.184C144.034 224.832 144.717 224.656 145.464 224.656ZM157.042 234.24C155.964 234.24 154.999 234.043 154.146 233.648C153.303 233.243 152.636 232.678 152.146 231.952C151.666 231.227 151.426 230.384 151.426 229.424C151.426 228.475 151.655 227.643 152.114 226.928C152.583 226.214 153.223 225.659 154.034 225.264C154.844 224.859 155.767 224.656 156.802 224.656C157.858 224.656 158.764 224.891 159.522 225.36C160.279 225.819 160.86 226.47 161.266 227.312C161.682 228.155 161.89 229.147 161.89 230.288H153.57V228.512H160.45L159.41 229.152C159.367 228.619 159.234 228.166 159.01 227.792C158.796 227.419 158.503 227.131 158.13 226.928C157.756 226.726 157.319 226.624 156.818 226.624C156.274 226.624 155.799 226.736 155.394 226.96C154.999 227.174 154.69 227.478 154.466 227.872C154.252 228.256 154.146 228.71 154.146 229.232C154.146 229.862 154.284 230.4 154.562 230.848C154.839 231.296 155.244 231.638 155.778 231.872C156.311 232.107 156.956 232.224 157.714 232.224C158.396 232.224 159.084 232.128 159.778 231.936C160.471 231.734 161.095 231.451 161.65 231.088V232.88C161.052 233.307 160.354 233.643 159.554 233.888C158.764 234.123 157.927 234.24 157.042 234.24ZM165.405 234.144C164.957 234.144 164.583 234 164.285 233.712C163.997 233.424 163.853 233.062 163.853 232.624C163.853 232.187 163.997 231.824 164.285 231.536C164.583 231.248 164.957 231.104 165.405 231.104C165.863 231.104 166.237 231.248 166.525 231.536C166.823 231.824 166.973 232.187 166.973 232.624C166.973 233.062 166.823 233.424 166.525 233.712C166.237 234 165.863 234.144 165.405 234.144ZM165.405 228.48C164.957 228.48 164.583 228.336 164.285 228.048C163.997 227.76 163.853 227.398 163.853 226.96C163.853 226.523 163.997 226.16 164.285 225.872C164.583 225.584 164.957 225.44 165.405 225.44C165.863 225.44 166.237 225.584 166.525 225.872C166.823 226.16 166.973 226.523 166.973 226.96C166.973 227.398 166.823 227.76 166.525 228.048C166.237 228.336 165.863 228.48 165.405 228.48Z" fill="white"/>
<path d="M255.353 166.312C256.399 166.312 257.284 166.622 258.009 167.24C258.745 167.848 259.113 168.686 259.113 169.752C259.113 170.819 258.745 171.662 258.009 172.28C257.284 172.888 256.399 173.192 255.353 173.192C254.511 173.192 253.759 172.99 253.097 172.584C252.436 172.168 251.988 171.576 251.753 170.808L252.697 170.264C252.857 170.862 253.172 171.32 253.641 171.64C254.121 171.95 254.692 172.104 255.353 172.104C256.121 172.104 256.751 171.902 257.241 171.496C257.743 171.08 257.993 170.499 257.993 169.752C257.993 169.006 257.743 168.43 257.241 168.024C256.751 167.608 256.121 167.4 255.353 167.4H252.313L252.713 161.8H258.713V162.856H253.705L253.465 166.312H255.353ZM268.238 171.624C267.502 172.67 266.462 173.192 265.118 173.192C263.774 173.192 262.728 172.67 261.982 171.624C261.246 170.568 260.878 169.16 260.878 167.4C260.878 165.64 261.246 164.238 261.982 163.192C262.728 162.136 263.774 161.608 265.118 161.608C266.462 161.608 267.502 162.136 268.238 163.192C268.984 164.238 269.358 165.64 269.358 167.4C269.358 169.16 268.984 170.568 268.238 171.624ZM262.814 170.872C263.368 171.694 264.136 172.104 265.118 172.104C266.099 172.104 266.862 171.694 267.406 170.872C267.96 170.051 268.238 168.894 268.238 167.4C268.238 165.907 267.96 164.75 267.406 163.928C266.862 163.107 266.099 162.696 265.118 162.696C264.136 162.696 263.368 163.107 262.814 163.928C262.27 164.75 261.998 165.907 261.998 167.4C261.998 168.894 262.27 170.051 262.814 170.872ZM278.316 166.888V167.912H275.468V170.76H274.444V167.912H271.596V166.888H274.444V164.04H275.468V166.888H278.316Z" fill="white"/>
<path d="M39.1613 270L41.2253 266.432H41.2573L46.1213 258H49.0653L42.1053 270H39.1613ZM41.2253 268.256L35.2413 258H38.2333L43.0973 266.368L41.2253 268.256ZM49.9662 260.896H59.3742V270H56.7022V261.696L57.9342 262.912H51.2942L52.4462 261.92C52.4995 262.571 52.5422 263.174 52.5742 263.728C52.6168 264.272 52.6382 264.763 52.6382 265.2C52.6382 266.95 52.3768 268.219 51.8542 269.008C51.3422 269.798 50.5102 270.192 49.3582 270.192C49.0382 270.192 48.7288 270.155 48.4302 270.08C48.1422 270.016 47.8595 269.904 47.5822 269.744V267.808C47.7742 267.883 47.9608 267.942 48.1422 267.984C48.3342 268.016 48.5102 268.032 48.6702 268.032C49.2142 268.032 49.6035 267.787 49.8382 267.296C50.0835 266.795 50.2062 265.974 50.2062 264.832C50.2062 264.32 50.1848 263.734 50.1422 263.072C50.1102 262.411 50.0515 261.686 49.9662 260.896ZM71.6705 270.24C70.5505 270.24 69.5692 270.043 68.7265 269.648C67.8839 269.243 67.2279 268.683 66.7585 267.968C66.2999 267.243 66.0705 266.406 66.0705 265.456C66.0705 264.496 66.2999 263.659 66.7585 262.944C67.2279 262.219 67.8839 261.659 68.7265 261.264C69.5692 260.859 70.5505 260.656 71.6705 260.656C72.7905 260.656 73.7719 260.859 74.6145 261.264C75.4572 261.659 76.1132 262.219 76.5825 262.944C77.0519 263.659 77.2865 264.496 77.2865 265.456C77.2865 266.406 77.0519 267.243 76.5825 267.968C76.1132 268.683 75.4572 269.243 74.6145 269.648C73.7719 270.043 72.7905 270.24 71.6705 270.24ZM61.8625 270V260.896H64.5345V270H61.8625ZM63.3665 266.368V264.368H67.7665V266.368H63.3665ZM71.6705 268.208C72.2785 268.208 72.7959 268.096 73.2225 267.872C73.6599 267.648 73.9959 267.334 74.2305 266.928C74.4652 266.512 74.5825 266.022 74.5825 265.456C74.5825 264.88 74.4652 264.39 74.2305 263.984C73.9959 263.568 73.6599 263.248 73.2225 263.024C72.7959 262.8 72.2785 262.688 71.6705 262.688C71.0732 262.688 70.5559 262.8 70.1185 263.024C69.6812 263.248 69.3452 263.568 69.1105 263.984C68.8759 264.39 68.7585 264.88 68.7585 265.456C68.7585 266.022 68.8759 266.512 69.1105 266.928C69.3452 267.334 69.6812 267.648 70.1185 267.872C70.5559 268.096 71.0732 268.208 71.6705 268.208ZM84.8953 270.24C83.6473 270.24 82.5806 270.006 81.6953 269.536C80.8099 269.056 80.1326 268.368 79.6633 267.472C79.1939 266.576 78.9593 265.494 78.9593 264.224C78.9593 262.336 79.4659 260.848 80.4793 259.76C81.4926 258.672 82.9433 258.048 84.8313 257.888C85.5993 257.824 86.2339 257.771 86.7353 257.728C87.2366 257.686 87.6473 257.643 87.9673 257.6C88.2979 257.547 88.5753 257.494 88.7993 257.44C89.0233 257.376 89.2419 257.307 89.4553 257.232V259.456C89.2313 259.542 88.9433 259.622 88.5913 259.696C88.2499 259.76 87.8126 259.814 87.2793 259.856C86.7566 259.899 86.1113 259.942 85.3433 259.984C83.9459 260.048 82.9059 260.432 82.2233 261.136C81.5406 261.84 81.1993 262.854 81.1993 264.176V264.608L81.1033 264.416C81.3166 263.84 81.6419 263.344 82.0793 262.928C82.5166 262.512 83.0393 262.198 83.6473 261.984C84.2659 261.76 84.9326 261.648 85.6473 261.648C86.5753 261.648 87.3859 261.824 88.0793 262.176C88.7726 262.518 89.3113 263.003 89.6953 263.632C90.0899 264.262 90.2873 264.998 90.2873 265.84C90.2873 266.726 90.0633 267.499 89.6153 268.16C89.1673 268.822 88.5379 269.334 87.7273 269.696C86.9273 270.059 85.9833 270.24 84.8953 270.24ZM84.9593 268.208C85.4926 268.208 85.9566 268.112 86.3513 267.92C86.7459 267.728 87.0499 267.456 87.2633 267.104C87.4766 266.752 87.5833 266.342 87.5833 265.872C87.5833 265.403 87.4766 264.998 87.2633 264.656C87.0499 264.304 86.7459 264.032 86.3513 263.84C85.9566 263.648 85.4926 263.552 84.9593 263.552C84.2233 263.552 83.5726 263.75 83.0073 264.144C82.4419 264.528 82.0153 265.067 81.7273 265.76C81.8979 266.507 82.2713 267.104 82.8473 267.552C83.4339 267.99 84.1379 268.208 84.9593 268.208ZM93.6718 260.896H103.08V270H100.408V261.696L101.64 262.912H94.9998L96.1518 261.92C96.2051 262.571 96.2478 263.174 96.2798 263.728C96.3224 264.272 96.3438 264.763 96.3438 265.2C96.3438 266.95 96.0824 268.219 95.5598 269.008C95.0478 269.798 94.2158 270.192 93.0638 270.192C92.7438 270.192 92.4344 270.155 92.1358 270.08C91.8478 270.016 91.5651 269.904 91.2878 269.744V267.808C91.4798 267.883 91.6664 267.942 91.8478 267.984C92.0398 268.016 92.2158 268.032 92.3758 268.032C92.9198 268.032 93.3091 267.787 93.5438 267.296C93.7891 266.795 93.9118 265.974 93.9118 264.832C93.9118 264.32 93.8904 263.734 93.8478 263.072C93.8158 262.411 93.7571 261.686 93.6718 260.896ZM110.704 270.24C109.627 270.24 108.661 270.043 107.808 269.648C106.965 269.243 106.299 268.678 105.808 267.952C105.328 267.227 105.088 266.384 105.088 265.424C105.088 264.475 105.317 263.643 105.776 262.928C106.245 262.214 106.885 261.659 107.696 261.264C108.507 260.859 109.429 260.656 110.464 260.656C111.52 260.656 112.427 260.891 113.184 261.36C113.941 261.819 114.523 262.47 114.928 263.312C115.344 264.155 115.552 265.147 115.552 266.288H107.232V264.512H114.112L113.072 265.152C113.029 264.619 112.896 264.166 112.672 263.792C112.459 263.419 112.165 263.131 111.792 262.928C111.419 262.726 110.981 262.624 110.48 262.624C109.936 262.624 109.461 262.736 109.056 262.96C108.661 263.174 108.352 263.478 108.128 263.872C107.915 264.256 107.808 264.71 107.808 265.232C107.808 265.862 107.947 266.4 108.224 266.848C108.501 267.296 108.907 267.638 109.44 267.872C109.973 268.107 110.619 268.224 111.376 268.224C112.059 268.224 112.747 268.128 113.44 267.936C114.133 267.734 114.757 267.451 115.312 267.088V268.88C114.715 269.307 114.016 269.643 113.216 269.888C112.427 270.123 111.589 270.24 110.704 270.24ZM117.595 260.896H120.251V270H117.595V260.896ZM125.227 260.896H127.883V270H125.227V260.896ZM119.115 264.352H126.267V266.368H119.115V264.352ZM130.372 260.8L131.7 261.056L133.044 260.8V270H130.372V260.8ZM131.7 259.856C131.22 259.856 130.825 259.734 130.516 259.488C130.217 259.232 130.068 258.896 130.068 258.48C130.068 258.054 130.217 257.718 130.516 257.472C130.825 257.216 131.22 257.088 131.7 257.088C132.191 257.088 132.585 257.216 132.884 257.472C133.183 257.718 133.332 258.054 133.332 258.48C133.332 258.896 133.183 259.232 132.884 259.488C132.585 259.734 132.191 259.856 131.7 259.856ZM150.337 260.896V270H147.665V261.696L148.897 262.912H141.553L142.785 261.696V270H140.113V260.896H150.337ZM152.828 260.896H155.5V263.792L155.388 264.144V266.336L155.5 266.992V272.64H152.828V260.896ZM154.572 265.456C154.753 264.486 155.068 263.643 155.516 262.928C155.974 262.203 156.545 261.643 157.228 261.248C157.921 260.854 158.689 260.656 159.532 260.656C160.428 260.656 161.212 260.859 161.884 261.264C162.566 261.659 163.1 262.219 163.484 262.944C163.868 263.659 164.06 264.496 164.06 265.456C164.06 266.406 163.868 267.243 163.484 267.968C163.1 268.683 162.566 269.243 161.884 269.648C161.212 270.043 160.428 270.24 159.532 270.24C158.678 270.24 157.91 270.043 157.228 269.648C156.556 269.254 155.99 268.699 155.532 267.984C155.073 267.259 154.753 266.416 154.572 265.456ZM161.356 265.456C161.356 264.923 161.244 264.454 161.02 264.048C160.806 263.632 160.508 263.312 160.124 263.088C159.74 262.854 159.297 262.736 158.796 262.736C158.294 262.736 157.82 262.854 157.372 263.088C156.924 263.312 156.529 263.632 156.188 264.048C155.857 264.454 155.596 264.923 155.404 265.456C155.596 265.99 155.857 266.459 156.188 266.864C156.529 267.27 156.924 267.59 157.372 267.824C157.82 268.048 158.294 268.16 158.796 268.16C159.297 268.16 159.74 268.048 160.124 267.824C160.508 267.59 160.806 267.27 161.02 266.864C161.244 266.459 161.356 265.99 161.356 265.456ZM171.32 270.24C170.19 270.24 169.198 270.043 168.344 269.648C167.491 269.243 166.824 268.683 166.344 267.968C165.864 267.243 165.624 266.406 165.624 265.456C165.624 264.496 165.864 263.659 166.344 262.944C166.824 262.219 167.491 261.659 168.344 261.264C169.198 260.859 170.19 260.656 171.32 260.656C172.451 260.656 173.443 260.859 174.296 261.264C175.15 261.659 175.811 262.219 176.28 262.944C176.76 263.659 177 264.496 177 265.456C177 266.406 176.76 267.243 176.28 267.968C175.811 268.683 175.15 269.243 174.296 269.648C173.443 270.043 172.451 270.24 171.32 270.24ZM171.32 268.208C171.939 268.208 172.467 268.096 172.904 267.872C173.352 267.648 173.694 267.334 173.928 266.928C174.174 266.512 174.296 266.022 174.296 265.456C174.296 264.88 174.174 264.39 173.928 263.984C173.694 263.568 173.352 263.248 172.904 263.024C172.467 262.8 171.939 262.688 171.32 262.688C170.712 262.688 170.184 262.8 169.736 263.024C169.288 263.248 168.942 263.568 168.696 263.984C168.462 264.39 168.344 264.88 168.344 265.456C168.344 266.022 168.462 266.512 168.696 266.928C168.942 267.334 169.288 267.648 169.736 267.872C170.184 268.096 170.712 268.208 171.32 268.208ZM184.174 270.24C183.096 270.24 182.131 270.043 181.278 269.648C180.435 269.243 179.768 268.678 179.278 267.952C178.798 267.227 178.558 266.384 178.558 265.424C178.558 264.475 178.787 263.643 179.246 262.928C179.715 262.214 180.355 261.659 181.166 261.264C181.976 260.859 182.899 260.656 183.934 260.656C184.99 260.656 185.896 260.891 186.654 261.36C187.411 261.819 187.992 262.47 188.398 263.312C188.814 264.155 189.022 265.147 189.022 266.288H180.702V264.512H187.582L186.542 265.152C186.499 264.619 186.366 264.166 186.142 263.792C185.928 263.419 185.635 263.131 185.262 262.928C184.888 262.726 184.451 262.624 183.95 262.624C183.406 262.624 182.931 262.736 182.526 262.96C182.131 263.174 181.822 263.478 181.598 263.872C181.384 264.256 181.278 264.71 181.278 265.232C181.278 265.862 181.416 266.4 181.694 266.848C181.971 267.296 182.376 267.638 182.91 267.872C183.443 268.107 184.088 268.224 184.846 268.224C185.528 268.224 186.216 268.128 186.91 267.936C187.603 267.734 188.227 267.451 188.782 267.088V268.88C188.184 269.307 187.486 269.643 186.686 269.888C185.896 270.123 185.059 270.24 184.174 270.24ZM191.064 270V260.896H193.736V267.84L192.952 267.568L198.376 260.896H201.288L193.464 270H191.064ZM198.504 270L195.784 265.536L197.752 264.016L201.56 270H198.504ZM205.783 261.824H208.455V270H205.783V261.824ZM202.167 260.896H212.071V262.944H202.167V260.896ZM213.774 270V260.896H216.398V268.592L215.742 268.416L221.23 260.896H224.67V270H222.046V262.16L222.702 262.352L217.118 270H213.774ZM228.633 270.144C228.185 270.144 227.811 270 227.513 269.712C227.225 269.424 227.081 269.062 227.081 268.624C227.081 268.187 227.225 267.824 227.513 267.536C227.811 267.248 228.185 267.104 228.633 267.104C229.091 267.104 229.465 267.248 229.753 267.536C230.051 267.824 230.201 268.187 230.201 268.624C230.201 269.062 230.051 269.424 229.753 269.712C229.465 270 229.091 270.144 228.633 270.144ZM228.633 264.48C228.185 264.48 227.811 264.336 227.513 264.048C227.225 263.76 227.081 263.398 227.081 262.96C227.081 262.523 227.225 262.16 227.513 261.872C227.811 261.584 228.185 261.44 228.633 261.44C229.091 261.44 229.465 261.584 229.753 261.872C230.051 262.16 230.201 262.523 230.201 262.96C230.201 263.398 230.051 263.76 229.753 264.048C229.465 264.336 229.091 264.48 228.633 264.48Z" fill="white"/>
<path d="M255.785 269.192C254.633 269.192 253.673 268.814 252.905 268.056C252.137 267.288 251.753 266.296 251.753 265.08C251.753 263.715 251.956 262.67 252.361 261.944C252.767 261.208 253.588 260.542 254.825 259.944C255.06 259.827 255.369 259.688 255.753 259.528C256.148 259.368 256.441 259.24 256.633 259.144C256.836 259.048 257.055 258.926 257.289 258.776C257.524 258.616 257.7 258.44 257.817 258.248C257.935 258.056 258.009 257.827 258.041 257.56L258.873 258.04C258.831 258.296 258.745 258.536 258.617 258.76C258.489 258.984 258.356 259.166 258.217 259.304C258.089 259.443 257.881 259.598 257.593 259.768C257.316 259.928 257.097 260.046 256.937 260.12C256.788 260.184 256.521 260.296 256.137 260.456C255.764 260.616 255.513 260.723 255.385 260.776C254.639 261.096 254.089 261.432 253.737 261.784C253.385 262.126 253.135 262.574 252.985 263.128C253.348 262.648 253.807 262.296 254.361 262.072C254.927 261.838 255.476 261.72 256.009 261.72C257.076 261.72 257.956 262.072 258.649 262.776C259.353 263.47 259.705 264.36 259.705 265.448C259.705 266.526 259.332 267.422 258.585 268.136C257.849 268.84 256.916 269.192 255.785 269.192ZM255.785 268.136C256.617 268.136 257.3 267.886 257.833 267.384C258.377 266.872 258.649 266.227 258.649 265.448C258.649 264.659 258.393 264.014 257.881 263.512C257.38 263 256.708 262.744 255.865 262.744C255.108 262.744 254.42 262.984 253.801 263.464C253.183 263.934 252.873 264.563 252.873 265.352C252.873 266.163 253.151 266.83 253.705 267.352C254.271 267.875 254.964 268.136 255.785 268.136ZM266.079 260.808C267.221 260.808 268.191 261.214 268.991 262.024C269.802 262.835 270.207 263.827 270.207 265C270.207 266.174 269.802 267.166 268.991 267.976C268.191 268.787 267.221 269.192 266.079 269.192C264.661 269.192 263.583 268.606 262.847 267.432V272.2H261.791V261H262.847V262.568C263.583 261.395 264.661 260.808 266.079 260.808ZM263.759 267.256C264.367 267.864 265.114 268.168 265.999 268.168C266.885 268.168 267.631 267.864 268.239 267.256C268.847 266.638 269.151 265.886 269.151 265C269.151 264.115 268.847 263.368 268.239 262.76C267.631 262.142 266.885 261.832 265.999 261.832C265.114 261.832 264.367 262.142 263.759 262.76C263.151 263.368 262.847 264.115 262.847 265C262.847 265.886 263.151 266.638 263.759 267.256ZM276.139 260.808C277.323 260.808 278.278 261.23 279.003 262.072C279.739 262.904 280.107 263.891 280.107 265.032C280.107 265.15 280.097 265.315 280.075 265.528H273.051C273.158 266.339 273.499 266.984 274.075 267.464C274.662 267.934 275.382 268.168 276.235 268.168C276.843 268.168 277.366 268.046 277.803 267.8C278.251 267.544 278.587 267.214 278.811 266.808L279.739 267.352C279.387 267.918 278.907 268.366 278.299 268.696C277.691 269.027 276.998 269.192 276.219 269.192C274.961 269.192 273.937 268.798 273.147 268.008C272.358 267.219 271.963 266.216 271.963 265C271.963 263.806 272.353 262.808 273.131 262.008C273.91 261.208 274.913 260.808 276.139 260.808ZM276.139 261.832C275.307 261.832 274.609 262.083 274.043 262.584C273.489 263.075 273.158 263.715 273.051 264.504H279.019C278.913 263.662 278.587 263.006 278.043 262.536C277.499 262.067 276.865 261.832 276.139 261.832ZM287.931 261H288.987V269H287.931V265.512H283.323V269H282.267V261H283.323V264.488H287.931V261ZM298.42 267.976H299.54V271.144H298.484V269H291.956V271.144H290.9V267.976H291.876C292.42 267.262 292.692 266.254 292.692 264.952V261H298.42V267.976ZM293.156 267.976H297.364V262.024H293.748V264.952C293.748 266.179 293.551 267.187 293.156 267.976ZM302.69 259.08C302.54 259.23 302.359 259.304 302.146 259.304C301.932 259.304 301.751 259.23 301.602 259.08C301.452 258.931 301.378 258.75 301.378 258.536C301.378 258.323 301.452 258.142 301.602 257.992C301.751 257.843 301.932 257.768 302.146 257.768C302.359 257.768 302.54 257.843 302.69 257.992C302.839 258.142 302.914 258.323 302.914 258.536C302.914 258.75 302.839 258.931 302.69 259.08ZM301.618 269V261H302.674V269H301.618ZM311.059 261H312.115V269H311.059V265.512H306.451V269H305.395V261H306.451V264.488H311.059V261ZM319.948 261V262.024H315.884V269H314.828V261H319.948ZM329.874 269.192C328.85 269.192 327.97 268.952 327.234 268.472C326.509 267.982 326.002 267.31 325.714 266.456L326.674 265.896C326.877 266.59 327.25 267.134 327.794 267.528C328.338 267.912 329.037 268.104 329.89 268.104C330.722 268.104 331.367 267.923 331.826 267.56C332.295 267.187 332.53 266.696 332.53 266.088C332.53 265.502 332.317 265.059 331.89 264.76C331.463 264.462 330.759 264.152 329.778 263.832C328.615 263.448 327.847 263.139 327.474 262.904C326.621 262.392 326.194 261.651 326.194 260.68C326.194 259.731 326.525 258.984 327.186 258.44C327.847 257.886 328.663 257.608 329.634 257.608C330.509 257.608 331.266 257.838 331.906 258.296C332.546 258.744 333.021 259.32 333.33 260.024L332.386 260.552C331.874 259.315 330.957 258.696 329.634 258.696C328.941 258.696 328.381 258.867 327.954 259.208C327.527 259.55 327.314 260.024 327.314 260.632C327.314 261.187 327.506 261.603 327.89 261.88C328.274 262.158 328.909 262.44 329.794 262.728C330.199 262.867 330.487 262.968 330.658 263.032C330.839 263.086 331.095 263.182 331.426 263.32C331.767 263.448 332.018 263.566 332.178 263.672C332.338 263.768 332.53 263.907 332.754 264.088C332.989 264.259 333.154 264.435 333.25 264.616C333.357 264.787 333.447 265 333.522 265.256C333.607 265.502 333.65 265.768 333.65 266.056C333.65 267.006 333.303 267.768 332.61 268.344C331.917 268.91 331.005 269.192 329.874 269.192ZM342.929 261H343.985V269H342.929V267.432C342.193 268.606 341.116 269.192 339.697 269.192C338.556 269.192 337.58 268.787 336.769 267.976C335.969 267.166 335.569 266.174 335.569 265C335.569 263.827 335.969 262.835 336.769 262.024C337.58 261.214 338.556 260.808 339.697 260.808C341.116 260.808 342.193 261.395 342.929 262.568V261ZM337.537 267.256C338.145 267.864 338.892 268.168 339.777 268.168C340.662 268.168 341.409 267.864 342.017 267.256C342.625 266.638 342.929 265.886 342.929 265C342.929 264.115 342.625 263.368 342.017 262.76C341.409 262.142 340.662 261.832 339.777 261.832C338.892 261.832 338.145 262.142 337.537 262.76C336.929 263.368 336.625 264.115 336.625 265C336.625 265.886 336.929 266.638 337.537 267.256ZM353.165 269H351.757L347.757 265.144V269H346.701V257.8H347.757V264.536L351.565 261H353.005L348.877 264.84L353.165 269ZM361.17 261H362.226V269H361.17V267.432C360.434 268.606 359.357 269.192 357.938 269.192C356.797 269.192 355.821 268.787 355.01 267.976C354.21 267.166 353.81 266.174 353.81 265C353.81 263.827 354.21 262.835 355.01 262.024C355.821 261.214 356.797 260.808 357.938 260.808C359.357 260.808 360.434 261.395 361.17 262.568V261ZM355.778 267.256C356.386 267.864 357.133 268.168 358.018 268.168C358.903 268.168 359.65 267.864 360.258 267.256C360.866 266.638 361.17 265.886 361.17 265C361.17 264.115 360.866 263.368 360.258 262.76C359.65 262.142 358.903 261.832 358.018 261.832C357.133 261.832 356.386 262.142 355.778 262.76C355.17 263.368 354.866 264.115 354.866 265C354.866 265.886 355.17 266.638 355.778 267.256ZM368.686 260.808C369.657 260.808 370.419 261.107 370.974 261.704C371.539 262.291 371.822 263.086 371.822 264.088V269H370.766V264.088C370.766 263.374 370.574 262.819 370.19 262.424C369.817 262.03 369.283 261.832 368.59 261.832C367.822 261.832 367.198 262.078 366.718 262.568C366.238 263.048 365.998 263.795 365.998 264.808V269H364.942V261H365.998V262.248C366.595 261.288 367.491 260.808 368.686 260.808ZM381.224 261H382.28V269H381.224V267.432C380.488 268.606 379.411 269.192 377.992 269.192C376.851 269.192 375.875 268.787 375.064 267.976C374.264 267.166 373.864 266.174 373.864 265C373.864 263.827 374.264 262.835 375.064 262.024C375.875 261.214 376.851 260.808 377.992 260.808C379.411 260.808 380.488 261.395 381.224 262.568V261ZM375.832 267.256C376.44 267.864 377.187 268.168 378.072 268.168C378.957 268.168 379.704 267.864 380.312 267.256C380.92 266.638 381.224 265.886 381.224 265C381.224 264.115 380.92 263.368 380.312 262.76C379.704 262.142 378.957 261.832 378.072 261.832C377.187 261.832 376.44 262.142 375.832 262.76C375.224 263.368 374.92 264.115 374.92 265C374.92 265.886 375.224 266.638 375.832 267.256Z" fill="white"/>
<path d="M35.3693 308.448V303.6H37.6093L38.7613 303.632H47.4013L48.0573 303.6H51.2893V308.448H48.7453V306H37.9133V308.448H35.3693ZM37.9453 294H49.1933V305.136H46.4893V295.152L47.7053 296.368H39.4013L40.5373 295.488C40.6013 296.022 40.6439 296.55 40.6653 297.072C40.6866 297.595 40.6973 298.086 40.6973 298.544C40.6973 299.846 40.5959 300.95 40.3933 301.856C40.1906 302.752 39.8866 303.435 39.4813 303.904C39.0759 304.363 38.5746 304.592 37.9773 304.592L36.8573 303.648C37.3053 303.136 37.6359 302.416 37.8493 301.488C38.0733 300.55 38.1853 299.382 38.1853 297.984C38.1853 297.366 38.1639 296.72 38.1213 296.048C38.0786 295.376 38.0199 294.694 37.9453 294ZM58.1767 306.24C57.046 306.24 56.054 306.043 55.2007 305.648C54.3473 305.243 53.6807 304.683 53.2007 303.968C52.7207 303.243 52.4807 302.406 52.4807 301.456C52.4807 300.496 52.7207 299.659 53.2007 298.944C53.6807 298.219 54.3473 297.659 55.2007 297.264C56.054 296.859 57.046 296.656 58.1767 296.656C59.3073 296.656 60.2993 296.859 61.1527 297.264C62.006 297.659 62.6673 298.219 63.1367 298.944C63.6167 299.659 63.8567 300.496 63.8567 301.456C63.8567 302.406 63.6167 303.243 63.1367 303.968C62.6673 304.683 62.006 305.243 61.1527 305.648C60.2993 306.043 59.3073 306.24 58.1767 306.24ZM58.1767 304.208C58.7953 304.208 59.3233 304.096 59.7607 303.872C60.2087 303.648 60.55 303.334 60.7847 302.928C61.03 302.512 61.1527 302.022 61.1527 301.456C61.1527 300.88 61.03 300.39 60.7847 299.984C60.55 299.568 60.2087 299.248 59.7607 299.024C59.3233 298.8 58.7953 298.688 58.1767 298.688C57.5687 298.688 57.0407 298.8 56.5927 299.024C56.1447 299.248 55.798 299.568 55.5527 299.984C55.318 300.39 55.2007 300.88 55.2007 301.456C55.2007 302.022 55.318 302.512 55.5527 302.928C55.798 303.334 56.1447 303.648 56.5927 303.872C57.0407 304.096 57.5687 304.208 58.1767 304.208ZM76.3418 302.288C76.2351 303.067 75.9311 303.755 75.4298 304.352C74.9391 304.95 74.3044 305.414 73.5258 305.744C72.7471 306.075 71.8778 306.24 70.9178 306.24C69.8298 306.24 68.8698 306.043 68.0378 305.648C67.2164 305.243 66.5711 304.678 66.1018 303.952C65.6431 303.227 65.4138 302.395 65.4138 301.456C65.4138 300.507 65.6431 299.675 66.1018 298.96C66.5711 298.235 67.2164 297.67 68.0378 297.264C68.8698 296.859 69.8298 296.656 70.9178 296.656C71.8778 296.656 72.7471 296.827 73.5258 297.168C74.3044 297.499 74.9391 297.963 75.4298 298.56C75.9311 299.147 76.2351 299.835 76.3418 300.624H73.6698C73.5311 300.006 73.2111 299.531 72.7098 299.2C72.2191 298.859 71.6218 298.688 70.9178 298.688C70.3524 298.688 69.8564 298.8 69.4298 299.024C69.0138 299.238 68.6938 299.552 68.4698 299.968C68.2458 300.374 68.1338 300.87 68.1338 301.456C68.1338 302.032 68.2458 302.528 68.4698 302.944C68.6938 303.35 69.0138 303.664 69.4298 303.888C69.8564 304.102 70.3524 304.208 70.9178 304.208C71.6324 304.208 72.2351 304.032 72.7258 303.68C73.2271 303.328 73.5418 302.864 73.6698 302.288H76.3418ZM78.0092 306L78.5212 301.456L78.0092 296.896H85.0172C85.8918 296.896 86.5852 297.104 87.0972 297.52C87.6092 297.926 87.8652 298.48 87.8652 299.184C87.8652 299.846 87.6092 300.384 87.0972 300.8C86.5852 301.206 85.8705 301.446 84.9532 301.52L85.1452 301.072C86.2118 301.104 87.0225 301.328 87.5772 301.744C88.1425 302.15 88.4252 302.72 88.4252 303.456C88.4252 304.246 88.1372 304.87 87.5612 305.328C86.9958 305.776 86.2172 306 85.2252 306H78.0092ZM80.5852 305.408L79.5612 304.272H84.4092C84.8678 304.272 85.2038 304.182 85.4172 304C85.6305 303.808 85.7372 303.542 85.7372 303.2C85.7372 302.891 85.6198 302.64 85.3852 302.448C85.1505 302.246 84.7665 302.144 84.2332 302.144H80.1052V300.624H83.8812C84.3292 300.624 84.6545 300.534 84.8572 300.352C85.0705 300.171 85.1772 299.926 85.1772 299.616C85.1772 299.328 85.0812 299.094 84.8892 298.912C84.7078 298.731 84.4092 298.64 83.9932 298.64H79.5772L80.5852 297.504L81.0812 301.456L80.5852 305.408ZM90.4319 296.8L91.7599 297.056L93.1039 296.8V306H90.4319V296.8ZM91.7599 295.856C91.2799 295.856 90.8852 295.734 90.5759 295.488C90.2772 295.232 90.1279 294.896 90.1279 294.48C90.1279 294.054 90.2772 293.718 90.5759 293.472C90.8852 293.216 91.2799 293.088 91.7599 293.088C92.2506 293.088 92.6452 293.216 92.9439 293.472C93.2426 293.718 93.3919 294.054 93.3919 294.48C93.3919 294.896 93.2426 295.232 92.9439 295.488C92.6452 295.734 92.2506 295.856 91.7599 295.856ZM107.967 303.984V308.24H105.647V306H97.1354V308.24H94.8154V303.984H97.3594L97.9514 304.032H104.575L105.103 303.984H107.967ZM96.7834 296.896H106.287V305.392H103.615V297.664L104.847 298.896H98.1114L99.1834 297.936C99.2794 298.395 99.3381 298.832 99.3594 299.248C99.3807 299.654 99.3914 300.032 99.3914 300.384C99.3914 301.899 99.1621 303.083 98.7034 303.936C98.2447 304.779 97.5994 305.2 96.7674 305.2L95.6794 304.288C96.5327 303.67 96.9594 302.192 96.9594 299.856C96.9594 299.398 96.9434 298.923 96.9114 298.432C96.8794 297.931 96.8367 297.419 96.7834 296.896ZM111.333 306.144C110.885 306.144 110.511 306 110.213 305.712C109.925 305.424 109.781 305.062 109.781 304.624C109.781 304.187 109.925 303.824 110.213 303.536C110.511 303.248 110.885 303.104 111.333 303.104C111.791 303.104 112.165 303.248 112.453 303.536C112.751 303.824 112.901 304.187 112.901 304.624C112.901 305.062 112.751 305.424 112.453 305.712C112.165 306 111.791 306.144 111.333 306.144ZM111.333 300.48C110.885 300.48 110.511 300.336 110.213 300.048C109.925 299.76 109.781 299.398 109.781 298.96C109.781 298.523 109.925 298.16 110.213 297.872C110.511 297.584 110.885 297.44 111.333 297.44C111.791 297.44 112.165 297.584 112.453 297.872C112.751 298.16 112.901 298.523 112.901 298.96C112.901 299.398 112.751 299.76 112.453 300.048C112.165 300.336 111.791 300.48 111.333 300.48Z" fill="white"/>
<path d="M255.353 297.8C256.452 297.8 257.353 298.147 258.057 298.84C258.761 299.523 259.113 300.408 259.113 301.496C259.113 302.584 258.761 303.475 258.057 304.168C257.353 304.851 256.452 305.192 255.353 305.192C254.255 305.192 253.353 304.851 252.649 304.168C251.945 303.475 251.593 302.584 251.593 301.496C251.593 300.654 251.823 299.907 252.281 299.256L255.945 293.8H257.209L254.457 297.896C254.745 297.832 255.044 297.8 255.353 297.8ZM253.433 303.384C253.924 303.864 254.564 304.104 255.353 304.104C256.143 304.104 256.777 303.864 257.257 303.384C257.748 302.904 257.993 302.275 257.993 301.496C257.993 300.718 257.748 300.088 257.257 299.608C256.777 299.128 256.143 298.888 255.353 298.888C254.564 298.888 253.924 299.128 253.433 299.608C252.953 300.088 252.713 300.718 252.713 301.496C252.713 302.275 252.953 302.904 253.433 303.384ZM267.758 298.888V299.912H264.91V302.76H263.886V299.912H261.038V298.888H263.886V296.04H264.91V298.888H267.758ZM279.086 296.808C280.228 296.808 281.198 297.214 281.998 298.024C282.809 298.835 283.214 299.827 283.214 301C283.214 302.174 282.809 303.166 281.998 303.976C281.198 304.787 280.228 305.192 279.086 305.192C277.668 305.192 276.59 304.606 275.854 303.432V308.2H274.798V297H275.854V298.568C276.59 297.395 277.668 296.808 279.086 296.808ZM276.766 303.256C277.374 303.864 278.121 304.168 279.006 304.168C279.892 304.168 280.638 303.864 281.246 303.256C281.854 302.638 282.158 301.886 282.158 301C282.158 300.115 281.854 299.368 281.246 298.76C280.638 298.142 279.892 297.832 279.006 297.832C278.121 297.832 277.374 298.142 276.766 298.76C276.158 299.368 275.854 300.115 275.854 301C275.854 301.886 276.158 302.638 276.766 303.256ZM292.154 303.992C291.343 304.792 290.351 305.192 289.178 305.192C288.005 305.192 287.007 304.792 286.186 303.992C285.375 303.182 284.97 302.184 284.97 301C284.97 299.816 285.375 298.824 286.186 298.024C287.007 297.214 288.005 296.808 289.178 296.808C290.351 296.808 291.343 297.214 292.154 298.024C292.975 298.824 293.386 299.816 293.386 301C293.386 302.184 292.975 303.182 292.154 303.992ZM286.938 303.256C287.546 303.864 288.293 304.168 289.178 304.168C290.063 304.168 290.81 303.864 291.418 303.256C292.026 302.638 292.33 301.886 292.33 301C292.33 300.115 292.026 299.368 291.418 298.76C290.81 298.142 290.063 297.832 289.178 297.832C288.293 297.832 287.546 298.142 286.938 298.76C286.33 299.368 286.026 300.115 286.026 301C286.026 301.886 286.33 302.638 286.938 303.256ZM302.097 305H300.689L296.689 301.144V305H295.633V297H296.689V300.536L300.497 297H301.937L297.809 300.84L302.097 305ZM305.092 295.08C304.942 295.23 304.761 295.304 304.548 295.304C304.334 295.304 304.153 295.23 304.004 295.08C303.854 294.931 303.78 294.75 303.78 294.536C303.78 294.323 303.854 294.142 304.004 293.992C304.153 293.843 304.334 293.768 304.548 293.768C304.761 293.768 304.942 293.843 305.092 293.992C305.241 294.142 305.316 294.323 305.316 294.536C305.316 294.75 305.241 294.931 305.092 295.08ZM304.02 305V297H305.076V305H304.02ZM312.884 300.888C313.759 301.208 314.196 301.832 314.196 302.76C314.196 303.411 313.978 303.95 313.54 304.376C313.114 304.792 312.495 305 311.684 305H307.796V297H311.364C312.143 297 312.746 297.203 313.172 297.608C313.599 298.003 313.812 298.515 313.812 299.144C313.812 299.944 313.503 300.526 312.884 300.888ZM311.364 298.024H308.852V300.456H311.364C312.292 300.456 312.756 300.04 312.756 299.208C312.756 298.835 312.634 298.547 312.388 298.344C312.154 298.131 311.812 298.024 311.364 298.024ZM311.684 303.976C312.154 303.976 312.511 303.864 312.756 303.64C313.012 303.416 313.14 303.102 313.14 302.696C313.14 302.323 313.012 302.03 312.756 301.816C312.511 301.592 312.154 301.48 311.684 301.48H308.852V303.976H311.684Z" fill="white"/>
<path d="M39.1613 342L41.2253 338.432H41.2573L46.1213 330H49.0653L42.1053 342H39.1613ZM41.2253 340.256L35.2413 330H38.2333L43.0973 338.368L41.2253 340.256ZM49.9662 332.896H59.3742V342H56.7022V333.696L57.9342 334.912H51.2942L52.4462 333.92C52.4995 334.571 52.5422 335.174 52.5742 335.728C52.6168 336.272 52.6382 336.763 52.6382 337.2C52.6382 338.95 52.3768 340.219 51.8542 341.008C51.3422 341.798 50.5102 342.192 49.3582 342.192C49.0382 342.192 48.7288 342.155 48.4302 342.08C48.1422 342.016 47.8595 341.904 47.5822 341.744V339.808C47.7742 339.883 47.9608 339.942 48.1422 339.984C48.3342 340.016 48.5102 340.032 48.6702 340.032C49.2142 340.032 49.6035 339.787 49.8382 339.296C50.0835 338.795 50.2062 337.974 50.2062 336.832C50.2062 336.32 50.1848 335.734 50.1422 335.072C50.1102 334.411 50.0515 333.686 49.9662 332.896ZM71.6705 342.24C70.5505 342.24 69.5692 342.043 68.7265 341.648C67.8839 341.243 67.2279 340.683 66.7585 339.968C66.2999 339.243 66.0705 338.406 66.0705 337.456C66.0705 336.496 66.2999 335.659 66.7585 334.944C67.2279 334.219 67.8839 333.659 68.7265 333.264C69.5692 332.859 70.5505 332.656 71.6705 332.656C72.7905 332.656 73.7719 332.859 74.6145 333.264C75.4572 333.659 76.1132 334.219 76.5825 334.944C77.0519 335.659 77.2865 336.496 77.2865 337.456C77.2865 338.406 77.0519 339.243 76.5825 339.968C76.1132 340.683 75.4572 341.243 74.6145 341.648C73.7719 342.043 72.7905 342.24 71.6705 342.24ZM61.8625 342V332.896H64.5345V342H61.8625ZM63.3665 338.368V336.368H67.7665V338.368H63.3665ZM71.6705 340.208C72.2785 340.208 72.7959 340.096 73.2225 339.872C73.6599 339.648 73.9959 339.334 74.2305 338.928C74.4652 338.512 74.5825 338.022 74.5825 337.456C74.5825 336.88 74.4652 336.39 74.2305 335.984C73.9959 335.568 73.6599 335.248 73.2225 335.024C72.7959 334.8 72.2785 334.688 71.6705 334.688C71.0732 334.688 70.5559 334.8 70.1185 335.024C69.6812 335.248 69.3452 335.568 69.1105 335.984C68.8759 336.39 68.7585 336.88 68.7585 337.456C68.7585 338.022 68.8759 338.512 69.1105 338.928C69.3452 339.334 69.6812 339.648 70.1185 339.872C70.5559 340.096 71.0732 340.208 71.6705 340.208ZM84.8953 342.24C83.6473 342.24 82.5806 342.006 81.6953 341.536C80.8099 341.056 80.1326 340.368 79.6633 339.472C79.1939 338.576 78.9593 337.494 78.9593 336.224C78.9593 334.336 79.4659 332.848 80.4793 331.76C81.4926 330.672 82.9433 330.048 84.8313 329.888C85.5993 329.824 86.2339 329.771 86.7353 329.728C87.2366 329.686 87.6473 329.643 87.9673 329.6C88.2979 329.547 88.5753 329.494 88.7993 329.44C89.0233 329.376 89.2419 329.307 89.4553 329.232V331.456C89.2313 331.542 88.9433 331.622 88.5913 331.696C88.2499 331.76 87.8126 331.814 87.2793 331.856C86.7566 331.899 86.1113 331.942 85.3433 331.984C83.9459 332.048 82.9059 332.432 82.2233 333.136C81.5406 333.84 81.1993 334.854 81.1993 336.176V336.608L81.1033 336.416C81.3166 335.84 81.6419 335.344 82.0793 334.928C82.5166 334.512 83.0393 334.198 83.6473 333.984C84.2659 333.76 84.9326 333.648 85.6473 333.648C86.5753 333.648 87.3859 333.824 88.0793 334.176C88.7726 334.518 89.3113 335.003 89.6953 335.632C90.0899 336.262 90.2873 336.998 90.2873 337.84C90.2873 338.726 90.0633 339.499 89.6153 340.16C89.1673 340.822 88.5379 341.334 87.7273 341.696C86.9273 342.059 85.9833 342.24 84.8953 342.24ZM84.9593 340.208C85.4926 340.208 85.9566 340.112 86.3513 339.92C86.7459 339.728 87.0499 339.456 87.2633 339.104C87.4766 338.752 87.5833 338.342 87.5833 337.872C87.5833 337.403 87.4766 336.998 87.2633 336.656C87.0499 336.304 86.7459 336.032 86.3513 335.84C85.9566 335.648 85.4926 335.552 84.9593 335.552C84.2233 335.552 83.5726 335.75 83.0073 336.144C82.4419 336.528 82.0153 337.067 81.7273 337.76C81.8979 338.507 82.2713 339.104 82.8473 339.552C83.4339 339.99 84.1379 340.208 84.9593 340.208ZM93.6718 332.896H103.08V342H100.408V333.696L101.64 334.912H94.9998L96.1518 333.92C96.2051 334.571 96.2478 335.174 96.2798 335.728C96.3224 336.272 96.3438 336.763 96.3438 337.2C96.3438 338.95 96.0824 340.219 95.5598 341.008C95.0478 341.798 94.2158 342.192 93.0638 342.192C92.7438 342.192 92.4344 342.155 92.1358 342.08C91.8478 342.016 91.5651 341.904 91.2878 341.744V339.808C91.4798 339.883 91.6664 339.942 91.8478 339.984C92.0398 340.016 92.2158 340.032 92.3758 340.032C92.9198 340.032 93.3091 339.787 93.5438 339.296C93.7891 338.795 93.9118 337.974 93.9118 336.832C93.9118 336.32 93.8904 335.734 93.8478 335.072C93.8158 334.411 93.7571 333.686 93.6718 332.896ZM110.704 342.24C109.627 342.24 108.661 342.043 107.808 341.648C106.965 341.243 106.299 340.678 105.808 339.952C105.328 339.227 105.088 338.384 105.088 337.424C105.088 336.475 105.317 335.643 105.776 334.928C106.245 334.214 106.885 333.659 107.696 333.264C108.507 332.859 109.429 332.656 110.464 332.656C111.52 332.656 112.427 332.891 113.184 333.36C113.941 333.819 114.523 334.47 114.928 335.312C115.344 336.155 115.552 337.147 115.552 338.288H107.232V336.512H114.112L113.072 337.152C113.029 336.619 112.896 336.166 112.672 335.792C112.459 335.419 112.165 335.131 111.792 334.928C111.419 334.726 110.981 334.624 110.48 334.624C109.936 334.624 109.461 334.736 109.056 334.96C108.661 335.174 108.352 335.478 108.128 335.872C107.915 336.256 107.808 336.71 107.808 337.232C107.808 337.862 107.947 338.4 108.224 338.848C108.501 339.296 108.907 339.638 109.44 339.872C109.973 340.107 110.619 340.224 111.376 340.224C112.059 340.224 112.747 340.128 113.44 339.936C114.133 339.734 114.757 339.451 115.312 339.088V340.88C114.715 341.307 114.016 341.643 113.216 341.888C112.427 342.123 111.589 342.24 110.704 342.24ZM117.595 332.896H120.251V342H117.595V332.896ZM125.227 332.896H127.883V342H125.227V332.896ZM119.115 336.352H126.267V338.368H119.115V336.352ZM130.372 342V332.896H132.996V340.592L132.34 340.416L137.828 332.896H141.268V342H138.644V334.16L139.3 334.352L133.716 342H130.372ZM143.758 342V332.896H146.382V340.592L145.726 340.416L151.214 332.896H154.654V342H152.03V334.16L152.686 334.352L147.102 342H143.758ZM149.134 332.064C148.099 332.064 147.267 331.814 146.638 331.312C146.009 330.8 145.619 330.059 145.47 329.088H147.566C147.641 329.547 147.811 329.899 148.078 330.144C148.355 330.379 148.707 330.496 149.134 330.496C149.561 330.496 149.907 330.379 150.174 330.144C150.441 329.899 150.617 329.547 150.702 329.088H152.782C152.643 330.059 152.254 330.8 151.614 331.312C150.985 331.814 150.158 332.064 149.134 332.064ZM169.27 332.896V334.944H163.158L164.39 333.728V342H161.718V332.896H169.27ZM173.54 344.88C172.942 344.88 172.404 344.806 171.924 344.656C171.444 344.507 170.99 344.288 170.564 344V342.08C171.012 342.368 171.438 342.576 171.844 342.704C172.249 342.832 172.697 342.896 173.188 342.896C173.625 342.896 174.014 342.795 174.356 342.592C174.697 342.4 174.98 342.054 175.204 341.552L178.996 332.896H181.828L177.284 342.416C177.006 343.014 176.67 343.494 176.276 343.856C175.881 344.219 175.449 344.48 174.98 344.64C174.521 344.8 174.041 344.88 173.54 344.88ZM174.116 341.424L170.1 332.896H173.044L176.724 341.424H174.116ZM183.381 332.896H186.053V335.792L185.941 336.144V338.336L186.053 338.992V344.64H183.381V332.896ZM185.125 337.456C185.307 336.486 185.621 335.643 186.069 334.928C186.528 334.203 187.099 333.643 187.781 333.248C188.475 332.854 189.243 332.656 190.085 332.656C190.981 332.656 191.765 332.859 192.437 333.264C193.12 333.659 193.653 334.219 194.037 334.944C194.421 335.659 194.613 336.496 194.613 337.456C194.613 338.406 194.421 339.243 194.037 339.968C193.653 340.683 193.12 341.243 192.437 341.648C191.765 342.043 190.981 342.24 190.085 342.24C189.232 342.24 188.464 342.043 187.781 341.648C187.109 341.254 186.544 340.699 186.085 339.984C185.627 339.259 185.307 338.416 185.125 337.456ZM191.909 337.456C191.909 336.923 191.797 336.454 191.573 336.048C191.36 335.632 191.061 335.312 190.677 335.088C190.293 334.854 189.851 334.736 189.349 334.736C188.848 334.736 188.373 334.854 187.925 335.088C187.477 335.312 187.083 335.632 186.741 336.048C186.411 336.454 186.149 336.923 185.957 337.456C186.149 337.99 186.411 338.459 186.741 338.864C187.083 339.27 187.477 339.59 187.925 339.824C188.373 340.048 188.848 340.16 189.349 340.16C189.851 340.16 190.293 340.048 190.677 339.824C191.061 339.59 191.36 339.27 191.573 338.864C191.797 338.459 191.909 337.99 191.909 337.456ZM199.162 333.824H201.834V342H199.162V333.824ZM195.546 332.896H205.45V334.944H195.546V332.896ZM208.626 342.144C208.178 342.144 207.804 342 207.506 341.712C207.218 341.424 207.074 341.062 207.074 340.624C207.074 340.187 207.218 339.824 207.506 339.536C207.804 339.248 208.178 339.104 208.626 339.104C209.084 339.104 209.458 339.248 209.746 339.536C210.044 339.824 210.194 340.187 210.194 340.624C210.194 341.062 210.044 341.424 209.746 341.712C209.458 342 209.084 342.144 208.626 342.144ZM208.626 336.48C208.178 336.48 207.804 336.336 207.506 336.048C207.218 335.76 207.074 335.398 207.074 334.96C207.074 334.523 207.218 334.16 207.506 333.872C207.804 333.584 208.178 333.44 208.626 333.44C209.084 333.44 209.458 333.584 209.746 333.872C210.044 334.16 210.194 334.523 210.194 334.96C210.194 335.398 210.044 335.76 209.746 336.048C209.458 336.336 209.084 336.48 208.626 336.48Z" fill="white"/>
<path d="M259.849 341L258.809 338.248H253.497L252.457 341H251.273L255.577 329.8H256.729L261.033 341H259.849ZM253.897 337.192H258.409L256.153 331.192L253.897 337.192ZM262.791 341V329.32H263.847V341H262.791ZM270.808 334.024H268.504V338.872C268.504 339.31 268.59 339.624 268.76 339.816C268.931 339.998 269.187 340.094 269.528 340.104C269.87 340.104 270.296 340.094 270.808 340.072V341C269.688 341.171 268.846 341.091 268.28 340.76C267.726 340.43 267.448 339.8 267.448 338.872V334.024H265.768V333H267.448V331.08L268.504 330.76V333H270.808V334.024ZM273.052 336.568V335.544H278.812V336.568H273.052ZM283.972 341.192C283.193 341.192 282.495 341.032 281.876 340.712C281.268 340.382 280.831 339.902 280.564 339.272L281.508 338.712C281.86 339.64 282.681 340.104 283.972 340.104C284.751 340.104 285.369 339.918 285.828 339.544C286.297 339.171 286.532 338.6 286.532 337.832V329.8H287.652V337.832C287.652 338.92 287.3 339.752 286.596 340.328C285.903 340.904 285.028 341.192 283.972 341.192Z" fill="white"/>
</svg>
