<svg width="450" height="559" viewBox="0 0 450 559" fill="none" xmlns="http://www.w3.org/2000/svg">
<path d="M3.11718 241.203L48.6878 118.263C54.4961 102.593 67.7491 90.8608 84.0078 86.9961L360.375 21.3038C398.969 12.13 432.365 49.3992 419.027 86.7592L399.363 141.839C396.65 149.439 395.817 157.583 396.935 165.576L441.672 485.454C446.003 516.42 421.17 543.719 389.934 542.33L47.78 527.124C21.0554 525.936 0 503.924 0 477.173V258.581C0 252.649 1.05552 246.765 3.11718 241.203Z" fill="#C0B7EE"/>
<path d="M36.232 211V199H38.936V208.792L38.168 208.248L45.592 199H48.488L38.68 211H36.232ZM41.96 205.128L43.912 203.384L48.664 211H45.56L41.96 205.128ZM50.0974 201.8L51.4254 202.056L52.7694 201.8V211H50.0974V201.8ZM51.4254 200.856C50.9454 200.856 50.5507 200.733 50.2414 200.488C49.9427 200.232 49.7934 199.896 49.7934 199.48C49.7934 199.053 49.9427 198.717 50.2414 198.472C50.5507 198.216 50.9454 198.088 51.4254 198.088C51.916 198.088 52.3107 198.216 52.6094 198.472C52.908 198.717 53.0574 199.053 53.0574 199.48C53.0574 199.896 52.908 200.232 52.6094 200.488C52.3107 200.733 51.916 200.856 51.4254 200.856ZM56.8329 201.896H66.2409V211H63.5689V202.696L64.8009 203.912H58.1609L59.3129 202.92C59.3662 203.571 59.4089 204.173 59.4409 204.728C59.4835 205.272 59.5049 205.763 59.5049 206.2C59.5049 207.949 59.2435 209.219 58.7209 210.008C58.2089 210.797 57.3769 211.192 56.2249 211.192C55.9049 211.192 55.5955 211.155 55.2969 211.08C55.0089 211.016 54.7262 210.904 54.4489 210.744V208.808C54.6409 208.883 54.8275 208.941 55.0089 208.984C55.2009 209.016 55.3769 209.032 55.5369 209.032C56.0809 209.032 56.4702 208.787 56.7049 208.296C56.9502 207.795 57.0729 206.973 57.0729 205.832C57.0729 205.32 57.0515 204.733 57.0089 204.072C56.9769 203.411 56.9182 202.685 56.8329 201.896ZM68.7292 211V201.896H71.3852V210.312L70.5212 209.08H74.0732C74.5639 209.08 74.9426 208.963 75.2092 208.728C75.4759 208.483 75.6092 208.152 75.6092 207.736C75.6092 207.299 75.4759 206.963 75.2092 206.728C74.9426 206.483 74.5639 206.36 74.0732 206.36H70.5372V204.52H74.4732C75.2519 204.52 75.9239 204.659 76.4892 204.936C77.0652 205.203 77.5132 205.581 77.8332 206.072C78.1532 206.552 78.3132 207.117 78.3132 207.768C78.3132 208.408 78.1532 208.973 77.8332 209.464C77.5132 209.955 77.0706 210.333 76.5052 210.6C75.9399 210.867 75.2732 211 74.5052 211H68.7292ZM80.0999 211V201.896H82.7719V208.84L81.9879 208.568L87.4119 201.896H90.3239L82.4999 211H80.0999ZM87.5399 211L84.8199 206.536L86.7879 205.016L90.5959 211H87.5399ZM91.9861 201.8L93.3141 202.056L94.6581 201.8V211H91.9861V201.8ZM93.3141 200.856C92.8341 200.856 92.4395 200.733 92.1301 200.488C91.8315 200.232 91.6821 199.896 91.6821 199.48C91.6821 199.053 91.8315 198.717 92.1301 198.472C92.4395 198.216 92.8341 198.088 93.3141 198.088C93.8048 198.088 94.1995 198.216 94.4981 198.472C94.7968 198.717 94.9461 199.053 94.9461 199.48C94.9461 199.896 94.7968 200.232 94.4981 200.488C94.1995 200.733 93.8048 200.856 93.3141 200.856ZM107.602 207.288C107.495 208.067 107.191 208.755 106.69 209.352C106.199 209.949 105.564 210.413 104.786 210.744C104.007 211.075 103.138 211.24 102.178 211.24C101.09 211.24 100.13 211.043 99.2976 210.648C98.4763 210.243 97.831 209.677 97.3616 208.952C96.903 208.227 96.6736 207.395 96.6736 206.456C96.6736 205.507 96.903 204.675 97.3616 203.96C97.831 203.235 98.4763 202.669 99.2976 202.264C100.13 201.859 101.09 201.656 102.178 201.656C103.138 201.656 104.007 201.827 104.786 202.168C105.564 202.499 106.199 202.963 106.69 203.56C107.191 204.147 107.495 204.835 107.602 205.624H104.93C104.791 205.005 104.471 204.531 103.97 204.2C103.479 203.859 102.882 203.688 102.178 203.688C101.612 203.688 101.116 203.8 100.69 204.024C100.274 204.237 99.9536 204.552 99.7296 204.968C99.5056 205.373 99.3936 205.869 99.3936 206.456C99.3936 207.032 99.5056 207.528 99.7296 207.944C99.9536 208.349 100.274 208.664 100.69 208.888C101.116 209.101 101.612 209.208 102.178 209.208C102.892 209.208 103.495 209.032 103.986 208.68C104.487 208.328 104.802 207.864 104.93 207.288H107.602ZM112.013 202.824H114.685V211H112.013V202.824ZM108.397 201.896H118.301V203.944H108.397V201.896ZM120.004 211V201.896H122.66V210.312L121.796 209.08H125.348C125.839 209.08 126.218 208.963 126.484 208.728C126.751 208.483 126.884 208.152 126.884 207.736C126.884 207.299 126.751 206.963 126.484 206.728C126.218 206.483 125.839 206.36 125.348 206.36H121.812V204.52H125.748C126.527 204.52 127.199 204.659 127.764 204.936C128.34 205.203 128.788 205.581 129.108 206.072C129.428 206.552 129.588 207.117 129.588 207.768C129.588 208.408 129.428 208.973 129.108 209.464C128.788 209.955 128.346 210.333 127.78 210.6C127.215 210.867 126.548 211 125.78 211H120.004ZM36.008 221.896H38.68V224.792L38.568 225.144V227.336L38.68 227.992V233.64H36.008V221.896ZM37.752 226.456C37.9333 225.485 38.248 224.643 38.696 223.928C39.1547 223.203 39.7253 222.643 40.408 222.248C41.1013 221.853 41.8693 221.656 42.712 221.656C43.608 221.656 44.392 221.859 45.064 222.264C45.7467 222.659 46.28 223.219 46.664 223.944C47.048 224.659 47.24 225.496 47.24 226.456C47.24 227.405 47.048 228.243 46.664 228.968C46.28 229.683 45.7467 230.243 45.064 230.648C44.392 231.043 43.608 231.24 42.712 231.24C41.8587 231.24 41.0907 231.043 40.408 230.648C39.736 230.253 39.1707 229.699 38.712 228.984C38.2533 228.259 37.9333 227.416 37.752 226.456ZM44.536 226.456C44.536 225.923 44.424 225.453 44.2 225.048C43.9867 224.632 43.688 224.312 43.304 224.088C42.92 223.853 42.4773 223.736 41.976 223.736C41.4747 223.736 41 223.853 40.552 224.088C40.104 224.312 39.7093 224.632 39.368 225.048C39.0373 225.453 38.776 225.923 38.584 226.456C38.776 226.989 39.0373 227.459 39.368 227.864C39.7093 228.269 40.104 228.589 40.552 228.824C41 229.048 41.4747 229.16 41.976 229.16C42.4773 229.16 42.92 229.048 43.304 228.824C43.688 228.589 43.9867 228.269 44.2 227.864C44.424 227.459 44.536 226.989 44.536 226.456ZM54.4209 231.24C53.3435 231.24 52.3782 231.043 51.5249 230.648C50.6822 230.243 50.0155 229.677 49.5249 228.952C49.0449 228.227 48.8049 227.384 48.8049 226.424C48.8049 225.475 49.0342 224.643 49.4929 223.928C49.9622 223.213 50.6022 222.659 51.4129 222.264C52.2235 221.859 53.1462 221.656 54.1809 221.656C55.2369 221.656 56.1435 221.891 56.9009 222.36C57.6582 222.819 58.2395 223.469 58.6449 224.312C59.0609 225.155 59.2689 226.147 59.2689 227.288H50.9489V225.512H57.8289L56.7889 226.152C56.7462 225.619 56.6129 225.165 56.3889 224.792C56.1755 224.419 55.8822 224.131 55.5089 223.928C55.1355 223.725 54.6982 223.624 54.1969 223.624C53.6529 223.624 53.1782 223.736 52.7729 223.96C52.3782 224.173 52.0689 224.477 51.8449 224.872C51.6315 225.256 51.5249 225.709 51.5249 226.232C51.5249 226.861 51.6635 227.4 51.9409 227.848C52.2182 228.296 52.6235 228.637 53.1569 228.872C53.6902 229.107 54.3355 229.224 55.0929 229.224C55.7755 229.224 56.4635 229.128 57.1569 228.936C57.8502 228.733 58.4742 228.451 59.0289 228.088V229.88C58.4315 230.307 57.7329 230.643 56.9329 230.888C56.1435 231.123 55.3062 231.24 54.4209 231.24ZM69.6477 231L69.2637 227.672L69.6957 226.456L69.2637 225.256L69.6477 221.896H72.4157L71.8877 226.456L72.4157 231H69.6477ZM70.3517 226.456C70.1811 227.416 69.8664 228.259 69.4077 228.984C68.9597 229.699 68.3891 230.253 67.6957 230.648C67.0131 231.043 66.2451 231.24 65.3917 231.24C64.5064 231.24 63.7224 231.043 63.0397 230.648C62.3571 230.243 61.8237 229.683 61.4397 228.968C61.0664 228.243 60.8797 227.405 60.8797 226.456C60.8797 225.496 61.0664 224.659 61.4397 223.944C61.8237 223.219 62.3571 222.659 63.0397 222.264C63.7224 221.859 64.5064 221.656 65.3917 221.656C66.2451 221.656 67.0131 221.853 67.6957 222.248C68.3891 222.643 68.9651 223.203 69.4237 223.928C69.8824 224.643 70.1917 225.485 70.3517 226.456ZM63.5837 226.456C63.5837 226.989 63.6904 227.459 63.9037 227.864C64.1277 228.269 64.4317 228.589 64.8157 228.824C65.1997 229.048 65.6424 229.16 66.1437 229.16C66.6451 229.16 67.1144 229.048 67.5517 228.824C67.9997 228.589 68.3944 228.269 68.7357 227.864C69.0771 227.459 69.3437 226.989 69.5357 226.456C69.3437 225.923 69.0771 225.453 68.7357 225.048C68.3944 224.632 67.9997 224.312 67.5517 224.088C67.1144 223.853 66.6451 223.736 66.1437 223.736C65.6424 223.736 65.1997 223.853 64.8157 224.088C64.4317 224.312 64.1277 224.632 63.9037 225.048C63.6904 225.453 63.5837 225.923 63.5837 226.456ZM76.2504 221.896H85.6584V231H82.9864V222.696L84.2184 223.912H77.5784L78.7304 222.92C78.7837 223.571 78.8264 224.173 78.8584 224.728C78.901 225.272 78.9224 225.763 78.9224 226.2C78.9224 227.949 78.661 229.219 78.1384 230.008C77.6264 230.797 76.7944 231.192 75.6424 231.192C75.3224 231.192 75.013 231.155 74.7144 231.08C74.4264 231.016 74.1437 230.904 73.8664 230.744V228.808C74.0584 228.883 74.245 228.941 74.4264 228.984C74.6184 229.016 74.7944 229.032 74.9544 229.032C75.4984 229.032 75.8877 228.787 76.1224 228.296C76.3677 227.795 76.4904 226.973 76.4904 225.832C76.4904 225.32 76.469 224.733 76.4264 224.072C76.3944 223.411 76.3357 222.685 76.2504 221.896ZM88.1467 221.8L89.4747 222.056L90.8187 221.8V231H88.1467V221.8ZM89.4747 220.856C88.9947 220.856 88.6001 220.733 88.2907 220.488C87.9921 220.232 87.8427 219.896 87.8427 219.48C87.8427 219.053 87.9921 218.717 88.2907 218.472C88.6001 218.216 88.9947 218.088 89.4747 218.088C89.9654 218.088 90.3601 218.216 90.6587 218.472C90.9574 218.717 91.1067 219.053 91.1067 219.48C91.1067 219.896 90.9574 220.232 90.6587 220.488C90.3601 220.733 89.9654 220.856 89.4747 220.856ZM97.8103 231.24C96.7969 231.24 95.9116 231.112 95.1543 230.856C94.3969 230.589 93.8049 230.211 93.3783 229.72C92.9516 229.219 92.7169 228.632 92.6743 227.96H95.2663C95.3409 228.408 95.5969 228.749 96.0343 228.984C96.4716 229.219 97.0636 229.336 97.8103 229.336C98.5249 229.336 99.0796 229.245 99.4743 229.064C99.8796 228.872 100.082 228.579 100.082 228.184C100.082 227.864 99.9116 227.629 99.5703 227.48C99.2396 227.32 98.7063 227.24 97.9703 227.24H96.2743V225.64H97.9223C98.5836 225.64 99.0689 225.544 99.3783 225.352C99.6983 225.16 99.8583 224.92 99.8583 224.632C99.8583 224.28 99.6716 224.013 99.2983 223.832C98.9356 223.651 98.4449 223.56 97.8263 223.56C97.1436 223.56 96.5943 223.667 96.1783 223.88C95.7623 224.093 95.5169 224.413 95.4423 224.84H92.8663C92.9089 224.253 93.1329 223.72 93.5383 223.24C93.9436 222.76 94.5143 222.376 95.2503 222.088C95.9969 221.8 96.8929 221.656 97.9383 221.656C98.8663 221.656 99.6769 221.768 100.37 221.992C101.064 222.216 101.602 222.525 101.986 222.92C102.37 223.315 102.562 223.768 102.562 224.28C102.562 224.685 102.434 225.059 102.178 225.4C101.933 225.741 101.533 226.013 100.978 226.216C100.434 226.419 99.7196 226.52 98.8343 226.52V226.248C100.104 226.195 101.08 226.349 101.762 226.712C102.456 227.075 102.802 227.629 102.802 228.376C102.802 228.92 102.605 229.411 102.21 229.848C101.826 230.285 101.261 230.627 100.514 230.872C99.7676 231.117 98.8663 231.24 97.8103 231.24ZM110.073 231.24C108.942 231.24 107.95 231.043 107.097 230.648C106.243 230.243 105.577 229.683 105.097 228.968C104.617 228.243 104.377 227.405 104.377 226.456C104.377 225.496 104.617 224.659 105.097 223.944C105.577 223.219 106.243 222.659 107.097 222.264C107.95 221.859 108.942 221.656 110.073 221.656C111.203 221.656 112.195 221.859 113.049 222.264C113.902 222.659 114.563 223.219 115.033 223.944C115.513 224.659 115.753 225.496 115.753 226.456C115.753 227.405 115.513 228.243 115.033 228.968C114.563 229.683 113.902 230.243 113.049 230.648C112.195 231.043 111.203 231.24 110.073 231.24ZM110.073 229.208C110.691 229.208 111.219 229.096 111.657 228.872C112.105 228.648 112.446 228.333 112.681 227.928C112.926 227.512 113.049 227.021 113.049 226.456C113.049 225.88 112.926 225.389 112.681 224.984C112.446 224.568 112.105 224.248 111.657 224.024C111.219 223.8 110.691 223.688 110.073 223.688C109.465 223.688 108.937 223.8 108.489 224.024C108.041 224.248 107.694 224.568 107.449 224.984C107.214 225.389 107.097 225.88 107.097 226.456C107.097 227.021 107.214 227.512 107.449 227.928C107.694 228.333 108.041 228.648 108.489 228.872C108.937 229.096 109.465 229.208 110.073 229.208ZM117.535 231L118.047 226.456L117.535 221.896H124.543C125.417 221.896 126.111 222.104 126.623 222.52C127.135 222.925 127.391 223.48 127.391 224.184C127.391 224.845 127.135 225.384 126.623 225.8C126.111 226.205 125.396 226.445 124.479 226.52L124.671 226.072C125.737 226.104 126.548 226.328 127.103 226.744C127.668 227.149 127.951 227.72 127.951 228.456C127.951 229.245 127.663 229.869 127.087 230.328C126.521 230.776 125.743 231 124.751 231H117.535ZM120.111 230.408L119.087 229.272H123.935C124.393 229.272 124.729 229.181 124.943 229C125.156 228.808 125.263 228.541 125.263 228.2C125.263 227.891 125.145 227.64 124.911 227.448C124.676 227.245 124.292 227.144 123.759 227.144H119.631V225.624H123.407C123.855 225.624 124.18 225.533 124.383 225.352C124.596 225.171 124.703 224.925 124.703 224.616C124.703 224.328 124.607 224.093 124.415 223.912C124.233 223.731 123.935 223.64 123.519 223.64H119.103L120.111 222.504L120.607 226.456L120.111 230.408ZM138.293 231L137.909 227.672L138.341 226.456L137.909 225.256L138.293 221.896H141.061L140.533 226.456L141.061 231H138.293ZM138.997 226.456C138.827 227.416 138.512 228.259 138.053 228.984C137.605 229.699 137.035 230.253 136.341 230.648C135.659 231.043 134.891 231.24 134.037 231.24C133.152 231.24 132.368 231.043 131.685 230.648C131.003 230.243 130.469 229.683 130.085 228.968C129.712 228.243 129.525 227.405 129.525 226.456C129.525 225.496 129.712 224.659 130.085 223.944C130.469 223.219 131.003 222.659 131.685 222.264C132.368 221.859 133.152 221.656 134.037 221.656C134.891 221.656 135.659 221.853 136.341 222.248C137.035 222.643 137.611 223.203 138.069 223.928C138.528 224.643 138.837 225.485 138.997 226.456ZM132.229 226.456C132.229 226.989 132.336 227.459 132.549 227.864C132.773 228.269 133.077 228.589 133.461 228.824C133.845 229.048 134.288 229.16 134.789 229.16C135.291 229.16 135.76 229.048 136.197 228.824C136.645 228.589 137.04 228.269 137.381 227.864C137.723 227.459 137.989 226.989 138.181 226.456C137.989 225.923 137.723 225.453 137.381 225.048C137.04 224.632 136.645 224.312 136.197 224.088C135.76 223.853 135.291 223.736 134.789 223.736C134.288 223.736 133.845 223.853 133.461 224.088C133.077 224.312 132.773 224.632 132.549 225.048C132.336 225.453 132.229 225.923 132.229 226.456ZM143.328 221.896H145.984V231H143.328V221.896ZM150.96 221.896H153.616V231H150.96V221.896ZM144.848 225.352H152V227.368H144.848V225.352ZM156.105 231V221.896H158.729V229.592L158.073 229.416L163.561 221.896H167.001V231H164.377V223.16L165.033 223.352L159.449 231H156.105ZM168.339 231L172.643 225.848L172.627 226.84L168.595 221.896H171.587L174.435 225.32H173.507L176.371 221.896H179.315L175.155 226.888L175.027 225.64L179.555 231H176.515L173.411 227.32H174.387L171.315 231H168.339ZM46.232 241.896V251H43.56V242.696L44.792 243.912H37.448L38.68 242.696V251H36.008V241.896H46.232ZM48.7224 241.896H51.3944V244.792L51.2824 245.144V247.336L51.3944 247.992V253.64H48.7224V241.896ZM50.4664 246.456C50.6477 245.485 50.9624 244.643 51.4104 243.928C51.869 243.203 52.4397 242.643 53.1224 242.248C53.8157 241.853 54.5837 241.656 55.4264 241.656C56.3224 241.656 57.1064 241.859 57.7784 242.264C58.461 242.659 58.9944 243.219 59.3784 243.944C59.7624 244.659 59.9544 245.496 59.9544 246.456C59.9544 247.405 59.7624 248.243 59.3784 248.968C58.9944 249.683 58.461 250.243 57.7784 250.648C57.1064 251.043 56.3224 251.24 55.4264 251.24C54.573 251.24 53.805 251.043 53.1224 250.648C52.4504 250.253 51.885 249.699 51.4264 248.984C50.9677 248.259 50.6477 247.416 50.4664 246.456ZM57.2504 246.456C57.2504 245.923 57.1384 245.453 56.9144 245.048C56.701 244.632 56.4024 244.312 56.0184 244.088C55.6344 243.853 55.1917 243.736 54.6904 243.736C54.189 243.736 53.7144 243.853 53.2664 244.088C52.8184 244.312 52.4237 244.632 52.0824 245.048C51.7517 245.453 51.4904 245.923 51.2984 246.456C51.4904 246.989 51.7517 247.459 52.0824 247.864C52.4237 248.269 52.8184 248.589 53.2664 248.824C53.7144 249.048 54.189 249.16 54.6904 249.16C55.1917 249.16 55.6344 249.048 56.0184 248.824C56.4024 248.589 56.701 248.269 56.9144 247.864C57.1384 247.459 57.2504 246.989 57.2504 246.456ZM67.2152 251.24C66.0846 251.24 65.0926 251.043 64.2392 250.648C63.3859 250.243 62.7192 249.683 62.2392 248.968C61.7592 248.243 61.5192 247.405 61.5192 246.456C61.5192 245.496 61.7592 244.659 62.2392 243.944C62.7192 243.219 63.3859 242.659 64.2392 242.264C65.0926 241.859 66.0846 241.656 67.2152 241.656C68.3459 241.656 69.3379 241.859 70.1912 242.264C71.0446 242.659 71.7059 243.219 72.1753 243.944C72.6552 244.659 72.8952 245.496 72.8952 246.456C72.8952 247.405 72.6552 248.243 72.1753 248.968C71.7059 249.683 71.0446 250.243 70.1912 250.648C69.3379 251.043 68.3459 251.24 67.2152 251.24ZM67.2152 249.208C67.8339 249.208 68.3619 249.096 68.7992 248.872C69.2472 248.648 69.5886 248.333 69.8232 247.928C70.0686 247.512 70.1912 247.021 70.1912 246.456C70.1912 245.88 70.0686 245.389 69.8232 244.984C69.5886 244.568 69.2472 244.248 68.7992 244.024C68.3619 243.8 67.8339 243.688 67.2152 243.688C66.6072 243.688 66.0792 243.8 65.6312 244.024C65.1832 244.248 64.8366 244.568 64.5912 244.984C64.3566 245.389 64.2392 245.88 64.2392 246.456C64.2392 247.021 64.3566 247.512 64.5912 247.928C64.8366 248.333 65.1832 248.648 65.6312 248.872C66.0792 249.096 66.6072 249.208 67.2152 249.208ZM79.9884 251.24C78.9004 251.24 77.935 251.043 77.0924 250.648C76.2604 250.243 75.6097 249.677 75.1404 248.952C74.6817 248.227 74.4524 247.395 74.4524 246.456C74.4524 245.507 74.6817 244.675 75.1404 243.96C75.6097 243.235 76.2604 242.669 77.0924 242.264C77.935 241.859 78.9004 241.656 79.9884 241.656C80.9484 241.656 81.8124 241.816 82.5804 242.136C83.3484 242.456 83.9777 242.899 84.4684 243.464C84.9697 244.019 85.2844 244.669 85.4124 245.416H82.8044C82.6444 244.872 82.3084 244.429 81.7964 244.088C81.2844 243.736 80.6817 243.56 79.9884 243.56C79.391 243.56 78.8737 243.677 78.4364 243.912C77.999 244.136 77.6577 244.467 77.4124 244.904C77.1777 245.331 77.0604 245.848 77.0604 246.456C77.0604 247.053 77.1777 247.571 77.4124 248.008C77.6577 248.435 77.999 248.765 78.4364 249C78.8737 249.224 79.391 249.336 79.9884 249.336C80.6817 249.336 81.2844 249.165 81.7964 248.824C82.3084 248.483 82.6444 248.035 82.8044 247.48H85.4124C85.2844 248.227 84.9697 248.883 84.4684 249.448C83.9777 250.003 83.3484 250.44 82.5804 250.76C81.8124 251.08 80.9484 251.24 79.9884 251.24ZM75.8444 247.272V245.624H81.3484V247.272H75.8444ZM87.3186 251V241.896H89.9906V248.84L89.2066 248.568L94.6306 241.896H97.5426L89.7186 251H87.3186ZM94.7586 251L92.0386 246.536L94.0066 245.016L97.8146 251H94.7586ZM102.037 242.824H104.709V251H102.037V242.824ZM98.4209 241.896H108.325V243.944H98.4209V241.896ZM110.029 241.8L111.357 242.056L112.701 241.8V251H110.029V241.8ZM111.357 240.856C110.877 240.856 110.482 240.733 110.173 240.488C109.874 240.232 109.725 239.896 109.725 239.48C109.725 239.053 109.874 238.717 110.173 238.472C110.482 238.216 110.877 238.088 111.357 238.088C111.847 238.088 112.242 238.216 112.541 238.472C112.839 238.717 112.989 239.053 112.989 239.48C112.989 239.896 112.839 240.232 112.541 240.488C112.242 240.733 111.847 240.856 111.357 240.856ZM114.972 251L115.484 246.456L114.972 241.896H121.98C122.855 241.896 123.548 242.104 124.06 242.52C124.572 242.925 124.828 243.48 124.828 244.184C124.828 244.845 124.572 245.384 124.06 245.8C123.548 246.205 122.833 246.445 121.916 246.52L122.108 246.072C123.175 246.104 123.985 246.328 124.54 246.744C125.105 247.149 125.388 247.72 125.388 248.456C125.388 249.245 125.1 249.869 124.524 250.328C123.959 250.776 123.18 251 122.188 251H114.972ZM117.548 250.408L116.524 249.272H121.372C121.831 249.272 122.167 249.181 122.38 249C122.593 248.808 122.7 248.541 122.7 248.2C122.7 247.891 122.583 247.64 122.348 247.448C122.113 247.245 121.729 247.144 121.196 247.144H117.068V245.624H120.844C121.292 245.624 121.617 245.533 121.82 245.352C122.033 245.171 122.14 244.925 122.14 244.616C122.14 244.328 122.044 244.093 121.852 243.912C121.671 243.731 121.372 243.64 120.956 243.64H116.54L117.548 242.504L118.044 246.456L117.548 250.408ZM35.784 271L36.296 266.456L35.784 261.896H42.792C43.6667 261.896 44.36 262.104 44.872 262.52C45.384 262.925 45.64 263.48 45.64 264.184C45.64 264.845 45.384 265.384 44.872 265.8C44.36 266.205 43.6453 266.445 42.728 266.52L42.92 266.072C43.9867 266.104 44.7973 266.328 45.352 266.744C45.9173 267.149 46.2 267.72 46.2 268.456C46.2 269.245 45.912 269.869 45.336 270.328C44.7707 270.776 43.992 271 43 271H35.784ZM38.36 270.408L37.336 269.272H42.184C42.6427 269.272 42.9787 269.181 43.192 269C43.4053 268.808 43.512 268.541 43.512 268.2C43.512 267.891 43.3947 267.64 43.16 267.448C42.9253 267.245 42.5413 267.144 42.008 267.144H37.88V265.624H41.656C42.104 265.624 42.4293 265.533 42.632 265.352C42.8453 265.171 42.952 264.925 42.952 264.616C42.952 264.328 42.856 264.093 42.664 263.912C42.4827 263.731 42.184 263.64 41.768 263.64H37.352L38.36 262.504L38.856 266.456L38.36 270.408ZM52.3645 267.08H55.1165C55.1805 267.485 55.3565 267.843 55.6445 268.152C55.9432 268.451 56.3378 268.685 56.8285 268.856C57.3298 269.016 57.9058 269.096 58.5565 269.096C59.5058 269.096 60.2525 268.963 60.7965 268.696C61.3512 268.419 61.6285 268.035 61.6285 267.544C61.6285 267.16 61.4685 266.867 61.1485 266.664C60.8392 266.451 60.2578 266.296 59.4045 266.2L56.9885 265.928C55.4312 265.757 54.3005 265.395 53.5965 264.84C52.9032 264.275 52.5565 263.491 52.5565 262.488C52.5565 261.699 52.7858 261.027 53.2445 260.472C53.7138 259.917 54.3698 259.496 55.2125 259.208C56.0552 258.909 57.0472 258.76 58.1885 258.76C59.2978 258.76 60.2845 258.925 61.1485 259.256C62.0125 259.576 62.7005 260.029 63.2125 260.616C63.7245 261.192 64.0018 261.869 64.0445 262.648H61.2925C61.2392 262.296 61.0792 261.992 60.8125 261.736C60.5565 261.469 60.1992 261.267 59.7405 261.128C59.2818 260.979 58.7432 260.904 58.1245 260.904C57.2605 260.904 56.5725 261.032 56.0605 261.288C55.5485 261.544 55.2925 261.907 55.2925 262.376C55.2925 262.739 55.4418 263.021 55.7405 263.224C56.0498 263.416 56.5885 263.56 57.3565 263.656L59.8685 263.96C60.9778 264.077 61.8578 264.269 62.5085 264.536C63.1698 264.792 63.6392 265.139 63.9165 265.576C64.2045 266.013 64.3485 266.568 64.3485 267.24C64.3485 268.04 64.1032 268.744 63.6125 269.352C63.1325 269.949 62.4552 270.413 61.5805 270.744C60.7058 271.075 59.6818 271.24 58.5085 271.24C57.3138 271.24 56.2632 271.069 55.3565 270.728C54.4498 270.376 53.7352 269.891 53.2125 269.272C52.6898 268.643 52.4072 267.912 52.3645 267.08ZM70.2571 271.24C69.4145 271.24 68.6945 271.069 68.0971 270.728C67.5105 270.376 67.0571 269.88 66.7371 269.24C66.4278 268.6 66.2731 267.843 66.2731 266.968V261.896H68.9451V266.568C68.9451 267.379 69.1371 267.997 69.5211 268.424C69.9051 268.84 70.4491 269.048 71.1531 269.048C71.6758 269.048 72.1185 268.941 72.4811 268.728C72.8545 268.504 73.1425 268.184 73.3451 267.768C73.5478 267.352 73.6491 266.867 73.6491 266.312L74.5131 266.776C74.4065 267.715 74.1558 268.52 73.7611 269.192C73.3665 269.853 72.8651 270.36 72.2571 270.712C71.6598 271.064 70.9931 271.24 70.2571 271.24ZM74.2091 271L73.6491 267.544V261.896H76.3211V267.944L76.8811 271H74.2091ZM78.9436 258.68H81.6156V264.792L81.2476 265.512V267.496L81.6156 268.232V271H78.9436V258.68ZM80.6716 266.456C80.8423 265.485 81.157 264.643 81.6156 263.928C82.0743 263.203 82.645 262.643 83.3276 262.248C84.0103 261.853 84.7783 261.656 85.6316 261.656C86.517 261.656 87.301 261.859 87.9836 262.264C88.6663 262.659 89.1996 263.219 89.5836 263.944C89.9676 264.659 90.1596 265.496 90.1596 266.456C90.1596 267.405 89.9676 268.243 89.5836 268.968C89.1996 269.683 88.6663 270.243 87.9836 270.648C87.301 271.043 86.517 271.24 85.6316 271.24C84.7783 271.24 84.0103 271.043 83.3276 270.648C82.645 270.253 82.0743 269.699 81.6156 268.984C81.1676 268.259 80.853 267.416 80.6716 266.456ZM87.4396 266.456C87.4396 265.923 87.3276 265.453 87.1036 265.048C86.8903 264.632 86.5916 264.312 86.2076 264.088C85.8236 263.853 85.3863 263.736 84.8956 263.736C84.3943 263.736 83.9196 263.853 83.4716 264.088C83.0236 264.312 82.629 264.632 82.2876 265.048C81.957 265.453 81.6956 265.923 81.5036 266.456C81.6956 266.989 81.957 267.459 82.2876 267.864C82.629 268.269 83.0236 268.589 83.4716 268.824C83.9196 269.048 84.3943 269.16 84.8956 269.16C85.3863 269.16 85.8236 269.048 86.2076 268.824C86.5916 268.589 86.8903 268.269 87.1036 267.864C87.3276 267.459 87.4396 266.989 87.4396 266.456ZM91.7416 261.896H94.4136L94.9896 265.368V271H92.3176V264.968L91.7416 261.896ZM98.2376 261.656C99.0483 261.656 99.7416 261.832 100.318 262.184C100.894 262.525 101.331 263.016 101.63 263.656C101.939 264.296 102.094 265.059 102.094 265.944V271H99.4216V266.344C99.4216 265.523 99.2403 264.904 98.8776 264.488C98.5256 264.061 98.0083 263.848 97.3256 263.848C96.8456 263.848 96.4296 263.965 96.0776 264.2C95.7256 264.424 95.4536 264.739 95.2616 265.144C95.0803 265.549 94.9896 266.035 94.9896 266.6L94.1096 266.136C94.2163 265.176 94.4616 264.365 94.8456 263.704C95.2296 263.043 95.7096 262.536 96.2856 262.184C96.8723 261.832 97.523 261.656 98.2376 261.656ZM105.326 261.656C106.136 261.656 106.83 261.832 107.406 262.184C107.992 262.525 108.435 263.016 108.734 263.656C109.043 264.296 109.198 265.059 109.198 265.944V271H106.526V266.344C106.526 265.523 106.344 264.904 105.982 264.488C105.63 264.061 105.112 263.848 104.43 263.848C103.95 263.848 103.534 263.965 103.182 264.2C102.83 264.424 102.558 264.739 102.366 265.144C102.184 265.549 102.094 266.035 102.094 266.6L101.214 266.136C101.32 265.176 101.566 264.365 101.95 263.704C102.334 263.043 102.814 262.536 103.39 262.184C103.976 261.832 104.622 261.656 105.326 261.656ZM119.896 271L119.512 267.672L119.944 266.456L119.512 265.256L119.896 261.896H122.664L122.136 266.456L122.664 271H119.896ZM120.6 266.456C120.429 267.416 120.115 268.259 119.656 268.984C119.208 269.699 118.637 270.253 117.944 270.648C117.261 271.043 116.493 271.24 115.64 271.24C114.755 271.24 113.971 271.043 113.288 270.648C112.605 270.243 112.072 269.683 111.688 268.968C111.315 268.243 111.128 267.405 111.128 266.456C111.128 265.496 111.315 264.659 111.688 263.944C112.072 263.219 112.605 262.659 113.288 262.264C113.971 261.859 114.755 261.656 115.64 261.656C116.493 261.656 117.261 261.853 117.944 262.248C118.637 262.643 119.213 263.203 119.672 263.928C120.131 264.643 120.44 265.485 120.6 266.456ZM113.832 266.456C113.832 266.989 113.939 267.459 114.152 267.864C114.376 268.269 114.68 268.589 115.064 268.824C115.448 269.048 115.891 269.16 116.392 269.16C116.893 269.16 117.363 269.048 117.8 268.824C118.248 268.589 118.643 268.269 118.984 267.864C119.325 267.459 119.592 266.989 119.784 266.456C119.592 265.923 119.325 265.453 118.984 265.048C118.643 264.632 118.248 264.312 117.8 264.088C117.363 263.853 116.893 263.736 116.392 263.736C115.891 263.736 115.448 263.853 115.064 264.088C114.68 264.312 114.376 264.632 114.152 265.048C113.939 265.453 113.832 265.923 113.832 266.456ZM124.499 261.896H127.203L127.747 265.176V271H125.075V264.888L124.499 261.896ZM132.179 261.8V264.104C131.901 264.04 131.624 263.992 131.347 263.96C131.069 263.928 130.808 263.912 130.563 263.912C130.029 263.912 129.549 264.024 129.123 264.248C128.696 264.472 128.36 264.819 128.115 265.288C127.869 265.757 127.747 266.349 127.747 267.064L127.187 266.392C127.251 265.741 127.368 265.133 127.539 264.568C127.709 263.992 127.944 263.491 128.243 263.064C128.552 262.627 128.931 262.285 129.379 262.04C129.827 261.784 130.36 261.656 130.979 261.656C131.181 261.656 131.384 261.672 131.587 261.704C131.8 261.725 131.997 261.757 132.179 261.8ZM133.895 261.8L135.223 262.056L136.567 261.8V271H133.895V261.8ZM135.223 260.856C134.743 260.856 134.348 260.733 134.039 260.488C133.74 260.232 133.591 259.896 133.591 259.48C133.591 259.053 133.74 258.717 134.039 258.472C134.348 258.216 134.743 258.088 135.223 258.088C135.714 258.088 136.108 258.216 136.407 258.472C136.706 258.717 136.855 259.053 136.855 259.48C136.855 259.896 136.706 260.232 136.407 260.488C136.108 260.733 135.714 260.856 135.223 260.856ZM138.63 261.896H141.302L141.878 265.368V271H139.206V264.968L138.63 261.896ZM145.35 261.656C146.214 261.656 146.95 261.832 147.558 262.184C148.166 262.525 148.63 263.016 148.95 263.656C149.27 264.296 149.43 265.059 149.43 265.944V271H146.758V266.344C146.758 265.523 146.561 264.904 146.166 264.488C145.772 264.061 145.196 263.848 144.438 263.848C143.926 263.848 143.473 263.965 143.078 264.2C142.694 264.424 142.396 264.739 142.182 265.144C141.98 265.549 141.878 266.035 141.878 266.6L140.998 266.136C141.105 265.176 141.361 264.365 141.766 263.704C142.172 263.043 142.684 262.536 143.302 262.184C143.921 261.832 144.604 261.656 145.35 261.656ZM156.928 271.24C155.851 271.24 154.886 271.043 154.032 270.648C153.19 270.243 152.523 269.677 152.032 268.952C151.552 268.227 151.312 267.384 151.312 266.424C151.312 265.475 151.542 264.643 152 263.928C152.47 263.213 153.11 262.659 153.92 262.264C154.731 261.859 155.654 261.656 156.688 261.656C157.744 261.656 158.651 261.891 159.408 262.36C160.166 262.819 160.747 263.469 161.152 264.312C161.568 265.155 161.776 266.147 161.776 267.288H153.456V265.512H160.336L159.296 266.152C159.254 265.619 159.12 265.165 158.896 264.792C158.683 264.419 158.39 264.131 158.016 263.928C157.643 263.725 157.206 263.624 156.704 263.624C156.16 263.624 155.686 263.736 155.28 263.96C154.886 264.173 154.576 264.477 154.352 264.872C154.139 265.256 154.032 265.709 154.032 266.232C154.032 266.861 154.171 267.4 154.448 267.848C154.726 268.296 155.131 268.637 155.664 268.872C156.198 269.107 156.843 269.224 157.6 269.224C158.283 269.224 158.971 269.128 159.664 268.936C160.358 268.733 160.982 268.451 161.536 268.088V269.88C160.939 270.307 160.24 270.643 159.44 270.888C158.651 271.123 157.814 271.24 156.928 271.24ZM165.291 271.144C164.843 271.144 164.47 271 164.171 270.712C163.883 270.424 163.739 270.061 163.739 269.624C163.739 269.187 163.883 268.824 164.171 268.536C164.47 268.248 164.843 268.104 165.291 268.104C165.75 268.104 166.123 268.248 166.411 268.536C166.71 268.824 166.859 269.187 166.859 269.624C166.859 270.061 166.71 270.424 166.411 270.712C166.123 271 165.75 271.144 165.291 271.144ZM165.291 265.48C164.843 265.48 164.47 265.336 164.171 265.048C163.883 264.76 163.739 264.397 163.739 263.96C163.739 263.523 163.883 263.16 164.171 262.872C164.47 262.584 164.843 262.44 165.291 262.44C165.75 262.44 166.123 262.584 166.411 262.872C166.71 263.16 166.859 263.523 166.859 263.96C166.859 264.397 166.71 264.76 166.411 265.048C166.123 265.336 165.75 265.48 165.291 265.48Z" fill="white"/>
<path d="M257.272 204.224C257.837 204.491 258.285 204.864 258.616 205.344C258.957 205.813 259.128 206.352 259.128 206.96C259.128 207.973 258.771 208.768 258.056 209.344C257.341 209.909 256.451 210.192 255.384 210.192C254.317 210.192 253.427 209.909 252.712 209.344C251.997 208.768 251.64 207.973 251.64 206.96C251.64 206.352 251.805 205.813 252.136 205.344C252.477 204.864 252.931 204.491 253.496 204.224C252.504 203.659 252.008 202.821 252.008 201.712C252.008 200.709 252.339 199.941 253 199.408C253.672 198.875 254.467 198.608 255.384 198.608C256.301 198.608 257.091 198.875 257.752 199.408C258.424 199.941 258.76 200.709 258.76 201.712C258.76 202.821 258.264 203.659 257.272 204.224ZM256.984 200.192C256.557 199.861 256.024 199.696 255.384 199.696C254.744 199.696 254.205 199.861 253.768 200.192C253.341 200.523 253.128 201.029 253.128 201.712C253.128 202.352 253.347 202.848 253.784 203.2C254.232 203.552 254.765 203.728 255.384 203.728C256.003 203.728 256.531 203.552 256.968 203.2C257.416 202.848 257.64 202.352 257.64 201.712C257.64 201.029 257.421 200.523 256.984 200.192ZM253.48 208.56C253.96 208.923 254.595 209.104 255.384 209.104C256.173 209.104 256.808 208.923 257.288 208.56C257.768 208.187 258.008 207.653 258.008 206.96C258.008 206.267 257.768 205.739 257.288 205.376C256.808 205.003 256.173 204.816 255.384 204.816C254.595 204.816 253.96 205.003 253.48 205.376C253 205.739 252.76 206.267 252.76 206.96C252.76 207.653 253 208.187 253.48 208.56ZM267.926 203.888V204.912H265.078V207.76H264.054V204.912H261.206V203.888H264.054V201.04H265.078V203.888H267.926Z" fill="white"/>
<path d="M39.048 307L41.112 303.432H41.144L46.008 295H48.952L41.992 307H39.048ZM41.112 305.256L35.128 295H38.12L42.984 303.368L41.112 305.256ZM49.8529 297.896H59.2609V307H56.5889V298.696L57.8209 299.912H51.1809L52.3329 298.92C52.3862 299.571 52.4289 300.173 52.4609 300.728C52.5035 301.272 52.5249 301.763 52.5249 302.2C52.5249 303.949 52.2635 305.219 51.7409 306.008C51.2289 306.797 50.3969 307.192 49.2449 307.192C48.9249 307.192 48.6155 307.155 48.3169 307.08C48.0289 307.016 47.7462 306.904 47.4689 306.744V304.808C47.6609 304.883 47.8475 304.941 48.0289 304.984C48.2209 305.016 48.3969 305.032 48.5569 305.032C49.1009 305.032 49.4902 304.787 49.7249 304.296C49.9702 303.795 50.0929 302.973 50.0929 301.832C50.0929 301.32 50.0715 300.733 50.0289 300.072C49.9969 299.411 49.9382 298.685 49.8529 297.896ZM71.5573 307.24C70.4372 307.24 69.4559 307.043 68.6132 306.648C67.7706 306.243 67.1146 305.683 66.6452 304.968C66.1866 304.243 65.9572 303.405 65.9572 302.456C65.9572 301.496 66.1866 300.659 66.6452 299.944C67.1146 299.219 67.7706 298.659 68.6132 298.264C69.4559 297.859 70.4372 297.656 71.5573 297.656C72.6772 297.656 73.6586 297.859 74.5012 298.264C75.3439 298.659 75.9999 299.219 76.4692 299.944C76.9386 300.659 77.1733 301.496 77.1733 302.456C77.1733 303.405 76.9386 304.243 76.4692 304.968C75.9999 305.683 75.3439 306.243 74.5012 306.648C73.6586 307.043 72.6772 307.24 71.5573 307.24ZM61.7492 307V297.896H64.4212V307H61.7492ZM63.2532 303.368V301.368H67.6532V303.368H63.2532ZM71.5573 305.208C72.1652 305.208 72.6826 305.096 73.1093 304.872C73.5466 304.648 73.8826 304.333 74.1172 303.928C74.3519 303.512 74.4692 303.021 74.4692 302.456C74.4692 301.88 74.3519 301.389 74.1172 300.984C73.8826 300.568 73.5466 300.248 73.1093 300.024C72.6826 299.8 72.1652 299.688 71.5573 299.688C70.9599 299.688 70.4426 299.8 70.0052 300.024C69.5679 300.248 69.2319 300.568 68.9972 300.984C68.7626 301.389 68.6452 301.88 68.6452 302.456C68.6452 303.021 68.7626 303.512 68.9972 303.928C69.2319 304.333 69.5679 304.648 70.0052 304.872C70.4426 305.096 70.9599 305.208 71.5573 305.208ZM84.782 307.24C83.534 307.24 82.4673 307.005 81.582 306.536C80.6967 306.056 80.0193 305.368 79.55 304.472C79.0807 303.576 78.846 302.493 78.846 301.224C78.846 299.336 79.3527 297.848 80.366 296.76C81.3793 295.672 82.83 295.048 84.718 294.888C85.486 294.824 86.1207 294.771 86.622 294.728C87.1233 294.685 87.534 294.643 87.854 294.6C88.1847 294.547 88.462 294.493 88.686 294.44C88.91 294.376 89.1287 294.307 89.342 294.232V296.456C89.118 296.541 88.83 296.621 88.478 296.696C88.1367 296.76 87.6993 296.813 87.166 296.856C86.6433 296.899 85.998 296.941 85.23 296.984C83.8327 297.048 82.7927 297.432 82.11 298.136C81.4273 298.84 81.086 299.853 81.086 301.176V301.608L80.99 301.416C81.2033 300.84 81.5287 300.344 81.966 299.928C82.4033 299.512 82.926 299.197 83.534 298.984C84.1527 298.76 84.8193 298.648 85.534 298.648C86.462 298.648 87.2727 298.824 87.966 299.176C88.6593 299.517 89.198 300.003 89.582 300.632C89.9767 301.261 90.174 301.997 90.174 302.84C90.174 303.725 89.95 304.499 89.502 305.16C89.054 305.821 88.4247 306.333 87.614 306.696C86.814 307.059 85.87 307.24 84.782 307.24ZM84.846 305.208C85.3793 305.208 85.8433 305.112 86.238 304.92C86.6327 304.728 86.9367 304.456 87.15 304.104C87.3633 303.752 87.47 303.341 87.47 302.872C87.47 302.403 87.3633 301.997 87.15 301.656C86.9367 301.304 86.6327 301.032 86.238 300.84C85.8433 300.648 85.3793 300.552 84.846 300.552C84.11 300.552 83.4593 300.749 82.894 301.144C82.3287 301.528 81.902 302.067 81.614 302.76C81.7847 303.507 82.158 304.104 82.734 304.552C83.3207 304.989 84.0247 305.208 84.846 305.208ZM93.5585 297.896H102.966V307H100.294V298.696L101.526 299.912H94.8865L96.0385 298.92C96.0918 299.571 96.1345 300.173 96.1665 300.728C96.2092 301.272 96.2305 301.763 96.2305 302.2C96.2305 303.949 95.9692 305.219 95.4465 306.008C94.9345 306.797 94.1025 307.192 92.9505 307.192C92.6305 307.192 92.3212 307.155 92.0225 307.08C91.7345 307.016 91.4518 306.904 91.1745 306.744V304.808C91.3665 304.883 91.5532 304.941 91.7345 304.984C91.9265 305.016 92.1025 305.032 92.2625 305.032C92.8065 305.032 93.1958 304.787 93.4305 304.296C93.6758 303.795 93.7985 302.973 93.7985 301.832C93.7985 301.32 93.7772 300.733 93.7345 300.072C93.7025 299.411 93.6438 298.685 93.5585 297.896ZM110.591 307.24C109.514 307.24 108.548 307.043 107.695 306.648C106.852 306.243 106.186 305.677 105.695 304.952C105.215 304.227 104.975 303.384 104.975 302.424C104.975 301.475 105.204 300.643 105.663 299.928C106.132 299.213 106.772 298.659 107.583 298.264C108.394 297.859 109.316 297.656 110.351 297.656C111.407 297.656 112.314 297.891 113.071 298.36C113.828 298.819 114.41 299.469 114.815 300.312C115.231 301.155 115.439 302.147 115.439 303.288H107.119V301.512H113.999L112.959 302.152C112.916 301.619 112.783 301.165 112.559 300.792C112.346 300.419 112.052 300.131 111.679 299.928C111.306 299.725 110.868 299.624 110.367 299.624C109.823 299.624 109.348 299.736 108.943 299.96C108.548 300.173 108.239 300.477 108.015 300.872C107.802 301.256 107.695 301.709 107.695 302.232C107.695 302.861 107.834 303.4 108.111 303.848C108.388 304.296 108.794 304.637 109.327 304.872C109.86 305.107 110.506 305.224 111.263 305.224C111.946 305.224 112.634 305.128 113.327 304.936C114.02 304.733 114.644 304.451 115.199 304.088V305.88C114.602 306.307 113.903 306.643 113.103 306.888C112.314 307.123 111.476 307.24 110.591 307.24ZM117.482 297.896H120.138V307H117.482V297.896ZM125.114 297.896H127.77V307H125.114V297.896ZM119.002 301.352H126.154V303.368H119.002V301.352ZM130.259 297.8L131.587 298.056L132.931 297.8V307H130.259V297.8ZM131.587 296.856C131.107 296.856 130.712 296.733 130.403 296.488C130.104 296.232 129.955 295.896 129.955 295.48C129.955 295.053 130.104 294.717 130.403 294.472C130.712 294.216 131.107 294.088 131.587 294.088C132.077 294.088 132.472 294.216 132.771 294.472C133.069 294.717 133.219 295.053 133.219 295.48C133.219 295.896 133.069 296.232 132.771 296.488C132.472 296.733 132.077 296.856 131.587 296.856ZM150.224 297.896V307H147.552V298.696L148.784 299.912H141.44L142.672 298.696V307H140V297.896H150.224ZM152.714 297.896H155.386V300.792L155.274 301.144V303.336L155.386 303.992V309.64H152.714V297.896ZM154.458 302.456C154.64 301.485 154.954 300.643 155.402 299.928C155.861 299.203 156.432 298.643 157.114 298.248C157.808 297.853 158.576 297.656 159.418 297.656C160.314 297.656 161.098 297.859 161.77 298.264C162.453 298.659 162.986 299.219 163.37 299.944C163.754 300.659 163.946 301.496 163.946 302.456C163.946 303.405 163.754 304.243 163.37 304.968C162.986 305.683 162.453 306.243 161.77 306.648C161.098 307.043 160.314 307.24 159.418 307.24C158.565 307.24 157.797 307.043 157.114 306.648C156.442 306.253 155.877 305.699 155.418 304.984C154.96 304.259 154.64 303.416 154.458 302.456ZM161.242 302.456C161.242 301.923 161.13 301.453 160.906 301.048C160.693 300.632 160.394 300.312 160.01 300.088C159.626 299.853 159.184 299.736 158.682 299.736C158.181 299.736 157.706 299.853 157.258 300.088C156.81 300.312 156.416 300.632 156.074 301.048C155.744 301.453 155.482 301.923 155.29 302.456C155.482 302.989 155.744 303.459 156.074 303.864C156.416 304.269 156.81 304.589 157.258 304.824C157.706 305.048 158.181 305.16 158.682 305.16C159.184 305.16 159.626 305.048 160.01 304.824C160.394 304.589 160.693 304.269 160.906 303.864C161.13 303.459 161.242 302.989 161.242 302.456ZM171.207 307.24C170.076 307.24 169.084 307.043 168.231 306.648C167.378 306.243 166.711 305.683 166.231 304.968C165.751 304.243 165.511 303.405 165.511 302.456C165.511 301.496 165.751 300.659 166.231 299.944C166.711 299.219 167.378 298.659 168.231 298.264C169.084 297.859 170.076 297.656 171.207 297.656C172.338 297.656 173.33 297.859 174.183 298.264C175.036 298.659 175.698 299.219 176.167 299.944C176.647 300.659 176.887 301.496 176.887 302.456C176.887 303.405 176.647 304.243 176.167 304.968C175.698 305.683 175.036 306.243 174.183 306.648C173.33 307.043 172.338 307.24 171.207 307.24ZM171.207 305.208C171.826 305.208 172.354 305.096 172.791 304.872C173.239 304.648 173.58 304.333 173.815 303.928C174.06 303.512 174.183 303.021 174.183 302.456C174.183 301.88 174.06 301.389 173.815 300.984C173.58 300.568 173.239 300.248 172.791 300.024C172.354 299.8 171.826 299.688 171.207 299.688C170.599 299.688 170.071 299.8 169.623 300.024C169.175 300.248 168.828 300.568 168.583 300.984C168.348 301.389 168.231 301.88 168.231 302.456C168.231 303.021 168.348 303.512 168.583 303.928C168.828 304.333 169.175 304.648 169.623 304.872C170.071 305.096 170.599 305.208 171.207 305.208ZM183.98 307.24C182.892 307.24 181.927 307.043 181.084 306.648C180.252 306.243 179.602 305.677 179.132 304.952C178.674 304.227 178.444 303.395 178.444 302.456C178.444 301.507 178.674 300.675 179.132 299.96C179.602 299.235 180.252 298.669 181.084 298.264C181.927 297.859 182.892 297.656 183.98 297.656C184.94 297.656 185.804 297.816 186.572 298.136C187.34 298.456 187.97 298.899 188.46 299.464C188.962 300.019 189.276 300.669 189.404 301.416H186.796C186.636 300.872 186.3 300.429 185.788 300.088C185.276 299.736 184.674 299.56 183.98 299.56C183.383 299.56 182.866 299.677 182.428 299.912C181.991 300.136 181.65 300.467 181.404 300.904C181.17 301.331 181.052 301.848 181.052 302.456C181.052 303.053 181.17 303.571 181.404 304.008C181.65 304.435 181.991 304.765 182.428 305C182.866 305.224 183.383 305.336 183.98 305.336C184.674 305.336 185.276 305.165 185.788 304.824C186.3 304.483 186.636 304.035 186.796 303.48H189.404C189.276 304.227 188.962 304.883 188.46 305.448C187.97 306.003 187.34 306.44 186.572 306.76C185.804 307.08 184.94 307.24 183.98 307.24ZM179.836 303.272V301.624H185.34V303.272H179.836ZM191.311 307V297.896H193.983V304.84L193.199 304.568L198.623 297.896H201.535L193.711 307H191.311ZM198.751 307L196.031 302.536L197.999 301.016L201.807 307H198.751ZM206.029 298.824H208.701V307H206.029V298.824ZM202.413 297.896H212.317V299.944H202.413V297.896ZM214.02 307V297.896H216.644V305.592L215.988 305.416L221.476 297.896H224.916V307H222.292V299.16L222.948 299.352L217.364 307H214.02ZM228.879 307.144C228.431 307.144 228.057 307 227.759 306.712C227.471 306.424 227.327 306.061 227.327 305.624C227.327 305.187 227.471 304.824 227.759 304.536C228.057 304.248 228.431 304.104 228.879 304.104C229.337 304.104 229.711 304.248 229.999 304.536C230.297 304.824 230.447 305.187 230.447 305.624C230.447 306.061 230.297 306.424 229.999 306.712C229.711 307 229.337 307.144 228.879 307.144ZM228.879 301.48C228.431 301.48 228.057 301.336 227.759 301.048C227.471 300.76 227.327 300.397 227.327 299.96C227.327 299.523 227.471 299.16 227.759 298.872C228.057 298.584 228.431 298.44 228.879 298.44C229.337 298.44 229.711 298.584 229.999 298.872C230.297 299.16 230.447 299.523 230.447 299.96C230.447 300.397 230.297 300.76 229.999 301.048C229.711 301.336 229.337 301.48 228.879 301.48Z" fill="white"/>
<path d="M258.488 300.192C259.032 300.427 259.464 300.784 259.784 301.264C260.115 301.733 260.28 302.272 260.28 302.88C260.28 303.744 259.976 304.48 259.368 305.088C258.76 305.696 258.024 306 257.16 306H252.28V294.8H256.792C257.624 294.8 258.333 295.099 258.92 295.696C259.507 296.283 259.8 296.987 259.8 297.808C259.8 298.853 259.363 299.648 258.488 300.192ZM256.792 295.856H253.4V299.76H256.792C257.315 299.76 257.757 299.573 258.12 299.2C258.493 298.816 258.68 298.352 258.68 297.808C258.68 297.275 258.493 296.816 258.12 296.432C257.757 296.048 257.315 295.856 256.792 295.856ZM257.16 304.944C257.715 304.944 258.184 304.747 258.568 304.352C258.963 303.947 259.16 303.456 259.16 302.88C259.16 302.315 258.963 301.829 258.568 301.424C258.184 301.019 257.715 300.816 257.16 300.816H253.4V304.944H257.16ZM269.402 298H270.458V306H269.402V304.432C268.666 305.605 267.589 306.192 266.17 306.192C265.029 306.192 264.053 305.787 263.242 304.976C262.442 304.165 262.042 303.173 262.042 302C262.042 300.827 262.442 299.835 263.242 299.024C264.053 298.213 265.029 297.808 266.17 297.808C267.589 297.808 268.666 298.395 269.402 299.568V298ZM264.01 304.256C264.618 304.864 265.365 305.168 266.25 305.168C267.135 305.168 267.882 304.864 268.49 304.256C269.098 303.637 269.402 302.885 269.402 302C269.402 301.115 269.098 300.368 268.49 299.76C267.882 299.141 267.135 298.832 266.25 298.832C265.365 298.832 264.618 299.141 264.01 299.76C263.402 300.368 263.098 301.115 263.098 302C263.098 302.885 263.402 303.637 264.01 304.256ZM274.23 299.328C274.72 298.357 275.563 297.872 276.758 297.872V298.896C276.032 298.896 275.43 299.109 274.95 299.536C274.47 299.963 274.23 300.635 274.23 301.552V306H273.174V298H274.23V299.328ZM282.973 297.808C284.114 297.808 285.085 298.213 285.885 299.024C286.696 299.835 287.101 300.827 287.101 302C287.101 303.173 286.696 304.165 285.885 304.976C285.085 305.787 284.114 306.192 282.973 306.192C281.554 306.192 280.477 305.605 279.741 304.432V306H278.685V294.8H279.741V299.568C280.477 298.395 281.554 297.808 282.973 297.808ZM280.653 304.256C281.261 304.864 282.008 305.168 282.893 305.168C283.778 305.168 284.525 304.864 285.133 304.256C285.741 303.637 286.045 302.885 286.045 302C286.045 301.115 285.741 300.368 285.133 299.76C284.525 299.141 283.778 298.832 282.893 298.832C282.008 298.832 281.261 299.141 280.653 299.76C280.045 300.368 279.741 301.115 279.741 302C279.741 302.885 280.045 303.637 280.653 304.256ZM293.033 297.808C294.217 297.808 295.172 298.229 295.897 299.072C296.633 299.904 297.001 300.891 297.001 302.032C297.001 302.149 296.99 302.315 296.969 302.528H289.945C290.052 303.339 290.393 303.984 290.969 304.464C291.556 304.933 292.276 305.168 293.129 305.168C293.737 305.168 294.26 305.045 294.697 304.8C295.145 304.544 295.481 304.213 295.705 303.808L296.633 304.352C296.281 304.917 295.801 305.365 295.193 305.696C294.585 306.027 293.892 306.192 293.113 306.192C291.854 306.192 290.83 305.797 290.041 305.008C289.252 304.219 288.857 303.216 288.857 302C288.857 300.805 289.246 299.808 290.025 299.008C290.804 298.208 291.806 297.808 293.033 297.808ZM293.033 298.832C292.201 298.832 291.502 299.083 290.937 299.584C290.382 300.075 290.052 300.715 289.945 301.504H295.913C295.806 300.661 295.481 300.005 294.937 299.536C294.393 299.067 293.758 298.832 293.033 298.832ZM300.217 299.328C300.707 298.357 301.55 297.872 302.745 297.872V298.896C302.019 298.896 301.417 299.109 300.937 299.536C300.457 299.963 300.217 300.635 300.217 301.552V306H299.161V298H300.217V299.328ZM255.848 326.192C254.643 326.192 253.64 325.792 252.84 324.992C252.04 324.181 251.64 323.184 251.64 322C251.64 320.816 252.04 319.824 252.84 319.024C253.64 318.213 254.643 317.808 255.848 317.808C256.637 317.808 257.347 318 257.976 318.384C258.605 318.757 259.064 319.264 259.352 319.904L258.488 320.4C258.275 319.92 257.928 319.541 257.448 319.264C256.979 318.976 256.445 318.832 255.848 318.832C254.963 318.832 254.216 319.141 253.608 319.76C253 320.368 252.696 321.115 252.696 322C252.696 322.885 253 323.637 253.608 324.256C254.216 324.864 254.963 325.168 255.848 325.168C256.445 325.168 256.979 325.029 257.448 324.752C257.917 324.464 258.285 324.08 258.552 323.6L259.432 324.112C259.101 324.752 258.616 325.259 257.976 325.632C257.336 326.005 256.627 326.192 255.848 326.192ZM268.054 324.992C267.243 325.792 266.251 326.192 265.078 326.192C263.905 326.192 262.907 325.792 262.086 324.992C261.275 324.181 260.87 323.184 260.87 322C260.87 320.816 261.275 319.824 262.086 319.024C262.907 318.213 263.905 317.808 265.078 317.808C266.251 317.808 267.243 318.213 268.054 319.024C268.875 319.824 269.286 320.816 269.286 322C269.286 323.184 268.875 324.181 268.054 324.992ZM262.838 324.256C263.446 324.864 264.193 325.168 265.078 325.168C265.963 325.168 266.71 324.864 267.318 324.256C267.926 323.637 268.23 322.885 268.23 322C268.23 321.115 267.926 320.368 267.318 319.76C266.71 319.141 265.963 318.832 265.078 318.832C264.193 318.832 263.446 319.141 262.838 319.76C262.23 320.368 261.926 321.115 261.926 322C261.926 322.885 262.23 323.637 262.838 324.256ZM280.061 317.808C280.957 317.808 281.677 318.096 282.221 318.672C282.776 319.248 283.053 320.027 283.053 321.008V326H281.997V321.008C281.997 320.315 281.816 319.781 281.453 319.408C281.101 319.024 280.632 318.832 280.045 318.832C279.384 318.832 278.845 319.056 278.429 319.504C278.024 319.941 277.821 320.629 277.821 321.568V326H276.765V321.008C276.765 320.304 276.594 319.765 276.253 319.392C275.922 319.019 275.469 318.832 274.893 318.832C274.253 318.832 273.709 319.056 273.261 319.504C272.813 319.952 272.589 320.64 272.589 321.568V326H271.533V318H272.589V319.168C273.165 318.261 273.981 317.808 275.037 317.808C276.189 317.808 277 318.293 277.469 319.264C278.045 318.293 278.909 317.808 280.061 317.808ZM289.864 317.808C291.005 317.808 291.976 318.213 292.776 319.024C293.586 319.835 293.992 320.827 293.992 322C293.992 323.173 293.586 324.165 292.776 324.976C291.976 325.787 291.005 326.192 289.864 326.192C288.445 326.192 287.368 325.605 286.632 324.432V329.2H285.576V318H286.632V319.568C287.368 318.395 288.445 317.808 289.864 317.808ZM287.544 324.256C288.152 324.864 288.898 325.168 289.784 325.168C290.669 325.168 291.416 324.864 292.024 324.256C292.632 323.637 292.936 322.885 292.936 322C292.936 321.115 292.632 320.368 292.024 319.76C291.416 319.141 290.669 318.832 289.784 318.832C288.898 318.832 288.152 319.141 287.544 319.76C286.936 320.368 286.632 321.115 286.632 322C286.632 322.885 286.936 323.637 287.544 324.256ZM303.107 318H304.163V326H303.107V324.432C302.371 325.605 301.294 326.192 299.875 326.192C298.734 326.192 297.758 325.787 296.947 324.976C296.147 324.165 295.747 323.173 295.747 322C295.747 320.827 296.147 319.835 296.947 319.024C297.758 318.213 298.734 317.808 299.875 317.808C301.294 317.808 302.371 318.395 303.107 319.568V318ZM297.715 324.256C298.323 324.864 299.07 325.168 299.955 325.168C300.841 325.168 301.587 324.864 302.195 324.256C302.803 323.637 303.107 322.885 303.107 322C303.107 321.115 302.803 320.368 302.195 319.76C301.587 319.141 300.841 318.832 299.955 318.832C299.07 318.832 298.323 319.141 297.715 319.76C297.107 320.368 296.803 321.115 296.803 322C296.803 322.885 297.107 323.637 297.715 324.256ZM310.623 317.808C311.594 317.808 312.357 318.107 312.911 318.704C313.477 319.291 313.759 320.085 313.759 321.088V326H312.703V321.088C312.703 320.373 312.511 319.819 312.127 319.424C311.754 319.029 311.221 318.832 310.527 318.832C309.759 318.832 309.135 319.077 308.655 319.568C308.175 320.048 307.935 320.795 307.935 321.808V326H306.879V318H307.935V319.248C308.533 318.288 309.429 317.808 310.623 317.808ZM321.885 318H323.005L319.581 326.736C319.272 327.525 318.829 328.144 318.253 328.592C317.688 329.051 317.053 329.253 316.349 329.2V328.208C317.309 328.315 318.04 327.76 318.541 326.544L318.749 326.048L315.165 318H316.285L319.293 324.704L321.885 318ZM325.084 324.64L324.124 328.24H323.164L323.804 324.64H325.084ZM337.519 326.192C335.823 326.192 334.421 325.632 333.311 324.512C332.202 323.392 331.647 322.021 331.647 320.4C331.647 318.779 332.202 317.408 333.311 316.288C334.421 315.168 335.823 314.608 337.519 314.608C338.554 314.608 339.503 314.859 340.368 315.36C341.231 315.851 341.898 316.517 342.368 317.36L341.375 317.936C341.023 317.253 340.501 316.709 339.807 316.304C339.114 315.899 338.351 315.696 337.519 315.696C336.122 315.696 334.981 316.149 334.095 317.056C333.21 317.963 332.767 319.077 332.767 320.4C332.767 321.723 333.21 322.837 334.095 323.744C334.981 324.651 336.122 325.104 337.519 325.104C338.351 325.104 339.114 324.901 339.807 324.496C340.501 324.091 341.023 323.547 341.375 322.864L342.368 323.424C341.909 324.267 341.242 324.939 340.368 325.44C339.503 325.941 338.554 326.192 337.519 326.192ZM345.585 319.328C346.076 318.357 346.919 317.872 348.113 317.872V318.896C347.388 318.896 346.785 319.109 346.305 319.536C345.825 319.963 345.585 320.635 345.585 321.552V326H344.529V318H345.585V319.328ZM353.252 317.808C354.436 317.808 355.391 318.229 356.116 319.072C356.852 319.904 357.22 320.891 357.22 322.032C357.22 322.149 357.21 322.315 357.188 322.528H350.164C350.271 323.339 350.612 323.984 351.188 324.464C351.775 324.933 352.495 325.168 353.348 325.168C353.956 325.168 354.479 325.045 354.916 324.8C355.364 324.544 355.7 324.213 355.924 323.808L356.852 324.352C356.5 324.917 356.02 325.365 355.412 325.696C354.804 326.027 354.111 326.192 353.332 326.192C352.074 326.192 351.05 325.797 350.26 325.008C349.471 324.219 349.076 323.216 349.076 322C349.076 320.805 349.466 319.808 350.244 319.008C351.023 318.208 352.026 317.808 353.252 317.808ZM353.252 318.832C352.42 318.832 351.722 319.083 351.156 319.584C350.602 320.075 350.271 320.715 350.164 321.504H356.132C356.026 320.661 355.7 320.005 355.156 319.536C354.612 319.067 353.978 318.832 353.252 318.832ZM366.26 318H367.316V326H366.26V324.432C365.524 325.605 364.447 326.192 363.028 326.192C361.887 326.192 360.911 325.787 360.1 324.976C359.3 324.165 358.9 323.173 358.9 322C358.9 320.827 359.3 319.835 360.1 319.024C360.911 318.213 361.887 317.808 363.028 317.808C364.447 317.808 365.524 318.395 366.26 319.568V318ZM360.868 324.256C361.476 324.864 362.223 325.168 363.108 325.168C363.993 325.168 364.74 324.864 365.348 324.256C365.956 323.637 366.26 322.885 366.26 322C366.26 321.115 365.956 320.368 365.348 319.76C364.74 319.141 363.993 318.832 363.108 318.832C362.223 318.832 361.476 319.141 360.868 319.76C360.26 320.368 359.956 321.115 359.956 322C359.956 322.885 360.26 323.637 360.868 324.256ZM378.56 317.808C379.456 317.808 380.176 318.096 380.72 318.672C381.275 319.248 381.552 320.027 381.552 321.008V326H380.496V321.008C380.496 320.315 380.315 319.781 379.952 319.408C379.6 319.024 379.131 318.832 378.544 318.832C377.883 318.832 377.344 319.056 376.928 319.504C376.523 319.941 376.32 320.629 376.32 321.568V326H375.264V321.008C375.264 320.304 375.093 319.765 374.752 319.392C374.421 319.019 373.968 318.832 373.392 318.832C372.752 318.832 372.208 319.056 371.76 319.504C371.312 319.952 371.088 320.64 371.088 321.568V326H370.032V318H371.088V319.168C371.664 318.261 372.48 317.808 373.536 317.808C374.688 317.808 375.499 318.293 375.968 319.264C376.544 318.293 377.408 317.808 378.56 317.808ZM385.834 324.64L384.874 328.24H383.914L384.554 324.64H385.834ZM257.208 341.888C258.083 342.208 258.52 342.832 258.52 343.76C258.52 344.411 258.301 344.949 257.864 345.376C257.437 345.792 256.819 346 256.008 346H252.12V338H255.688C256.467 338 257.069 338.203 257.496 338.608C257.923 339.003 258.136 339.515 258.136 340.144C258.136 340.944 257.827 341.525 257.208 341.888ZM255.688 339.024H253.176V341.456H255.688C256.616 341.456 257.08 341.04 257.08 340.208C257.08 339.835 256.957 339.547 256.712 339.344C256.477 339.131 256.136 339.024 255.688 339.024ZM256.008 344.976C256.477 344.976 256.835 344.864 257.08 344.64C257.336 344.416 257.464 344.101 257.464 343.696C257.464 343.323 257.336 343.029 257.08 342.816C256.835 342.592 256.477 342.48 256.008 342.48H253.176V344.976H256.008ZM261.672 336.08C261.523 336.229 261.341 336.304 261.128 336.304C260.915 336.304 260.733 336.229 260.584 336.08C260.435 335.931 260.36 335.749 260.36 335.536C260.36 335.323 260.435 335.141 260.584 334.992C260.733 334.843 260.915 334.768 261.128 334.768C261.341 334.768 261.523 334.843 261.672 334.992C261.821 335.141 261.896 335.323 261.896 335.536C261.896 335.749 261.821 335.931 261.672 336.08ZM260.6 346V338H261.656V346H260.6ZM271.097 344.976H272.217V348.144H271.161V346H264.633V348.144H263.577V344.976H264.553C265.097 344.261 265.369 343.253 265.369 341.952V338H271.097V344.976ZM265.833 344.976H270.041V339.024H266.425V341.952C266.425 343.179 266.228 344.187 265.833 344.976ZM277.678 337.808C278.862 337.808 279.817 338.229 280.542 339.072C281.278 339.904 281.646 340.891 281.646 342.032C281.646 342.149 281.635 342.315 281.614 342.528H274.59C274.697 343.339 275.038 343.984 275.614 344.464C276.201 344.933 276.921 345.168 277.774 345.168C278.382 345.168 278.905 345.045 279.342 344.8C279.79 344.544 280.126 344.213 280.35 343.808L281.278 344.352C280.926 344.917 280.446 345.365 279.838 345.696C279.23 346.027 278.537 346.192 277.758 346.192C276.499 346.192 275.475 345.797 274.686 345.008C273.897 344.219 273.502 343.216 273.502 342C273.502 340.805 273.891 339.808 274.67 339.008C275.449 338.208 276.451 337.808 277.678 337.808ZM277.678 338.832C276.846 338.832 276.147 339.083 275.582 339.584C275.027 340.075 274.697 340.715 274.59 341.504H280.558C280.451 340.661 280.126 340.005 279.582 339.536C279.038 339.067 278.403 338.832 277.678 338.832ZM290.51 344.992C289.699 345.792 288.707 346.192 287.534 346.192C286.36 346.192 285.363 345.792 284.542 344.992C283.731 344.181 283.326 343.184 283.326 342C283.326 340.816 283.731 339.824 284.542 339.024C285.363 338.213 286.36 337.808 287.534 337.808C288.707 337.808 289.699 338.213 290.51 339.024C291.331 339.824 291.742 340.816 291.742 342C291.742 343.184 291.331 344.181 290.51 344.992ZM285.294 344.256C285.902 344.864 286.648 345.168 287.534 345.168C288.419 345.168 289.166 344.864 289.774 344.256C290.382 343.637 290.686 342.885 290.686 342C290.686 341.115 290.382 340.368 289.774 339.76C289.166 339.141 288.419 338.832 287.534 338.832C286.648 338.832 285.902 339.141 285.294 339.76C284.686 340.368 284.382 341.115 284.382 342C284.382 342.885 284.686 343.637 285.294 344.256ZM298.277 337.808C299.418 337.808 300.389 338.213 301.189 339.024C301.999 339.835 302.405 340.827 302.405 342C302.405 343.173 301.999 344.165 301.189 344.976C300.389 345.787 299.418 346.192 298.277 346.192C296.858 346.192 295.781 345.605 295.045 344.432V349.2H293.989V338H295.045V339.568C295.781 338.395 296.858 337.808 298.277 337.808ZM295.957 344.256C296.565 344.864 297.311 345.168 298.197 345.168C299.082 345.168 299.829 344.864 300.437 344.256C301.045 343.637 301.349 342.885 301.349 342C301.349 341.115 301.045 340.368 300.437 339.76C299.829 339.141 299.082 338.832 298.197 338.832C297.311 338.832 296.565 339.141 295.957 339.76C295.349 340.368 295.045 341.115 295.045 342C295.045 342.885 295.349 343.637 295.957 344.256ZM311.345 344.992C310.534 345.792 309.542 346.192 308.369 346.192C307.195 346.192 306.198 345.792 305.377 344.992C304.566 344.181 304.161 343.184 304.161 342C304.161 340.816 304.566 339.824 305.377 339.024C306.198 338.213 307.195 337.808 308.369 337.808C309.542 337.808 310.534 338.213 311.345 339.024C312.166 339.824 312.577 340.816 312.577 342C312.577 343.184 312.166 344.181 311.345 344.992ZM306.129 344.256C306.737 344.864 307.483 345.168 308.369 345.168C309.254 345.168 310.001 344.864 310.609 344.256C311.217 343.637 311.521 342.885 311.521 342C311.521 341.115 311.217 340.368 310.609 339.76C310.001 339.141 309.254 338.832 308.369 338.832C307.483 338.832 306.737 339.141 306.129 339.76C305.521 340.368 305.217 341.115 305.217 342C305.217 342.885 305.521 343.637 306.129 344.256ZM321.071 338V346H320.015V339.024H316.399V342.592C316.399 343.925 316.143 344.843 315.631 345.344C315.13 345.845 314.437 346.064 313.551 346V345.008C314.159 345.072 314.607 344.928 314.895 344.576C315.194 344.224 315.343 343.563 315.343 342.592V338H321.071ZM329.612 338H330.508V346H329.452V339.84L324.684 346H323.788V338H324.844V344.16L329.612 338ZM339.685 346H338.277L334.277 342.144V346H333.221V338H334.277V341.536L338.085 338H339.525L335.397 341.84L339.685 346ZM257.784 358H258.84V366H257.784V362.512H253.176V366H252.12V358H253.176V361.488H257.784V358ZM268.433 358H269.489V366H268.433V364.432C267.697 365.605 266.62 366.192 265.201 366.192C264.06 366.192 263.084 365.787 262.273 364.976C261.473 364.165 261.073 363.173 261.073 362C261.073 360.827 261.473 359.835 262.273 359.024C263.084 358.213 264.06 357.808 265.201 357.808C266.62 357.808 267.697 358.395 268.433 359.568V358ZM263.041 364.256C263.649 364.864 264.396 365.168 265.281 365.168C266.166 365.168 266.913 364.864 267.521 364.256C268.129 363.637 268.433 362.885 268.433 362C268.433 361.115 268.129 360.368 267.521 359.76C266.913 359.141 266.166 358.832 265.281 358.832C264.396 358.832 263.649 359.141 263.041 359.76C262.433 360.368 262.129 361.115 262.129 362C262.129 362.885 262.433 363.637 263.041 364.256ZM287.085 354.8V366H285.965V356.496L282.045 363.056H281.885L277.965 356.496V366H276.845V354.8H278.237L281.965 361.04L285.693 354.8H287.085ZM296.842 358H297.898V366H296.842V364.432C296.106 365.605 295.029 366.192 293.61 366.192C292.469 366.192 291.493 365.787 290.682 364.976C289.882 364.165 289.482 363.173 289.482 362C289.482 360.827 289.882 359.835 290.682 359.024C291.493 358.213 292.469 357.808 293.61 357.808C295.029 357.808 296.106 358.395 296.842 359.568V358ZM291.45 364.256C292.058 364.864 292.805 365.168 293.69 365.168C294.575 365.168 295.322 364.864 295.93 364.256C296.538 363.637 296.842 362.885 296.842 362C296.842 361.115 296.538 360.368 295.93 359.76C295.322 359.141 294.575 358.832 293.69 358.832C292.805 358.832 292.058 359.141 291.45 359.76C290.842 360.368 290.538 361.115 290.538 362C290.538 362.885 290.842 363.637 291.45 364.256ZM309.142 357.808C310.038 357.808 310.758 358.096 311.302 358.672C311.856 359.248 312.134 360.027 312.134 361.008V366H311.078V361.008C311.078 360.315 310.896 359.781 310.534 359.408C310.182 359.024 309.712 358.832 309.126 358.832C308.464 358.832 307.926 359.056 307.51 359.504C307.104 359.941 306.902 360.629 306.902 361.568V366H305.846V361.008C305.846 360.304 305.675 359.765 305.334 359.392C305.003 359.019 304.55 358.832 303.974 358.832C303.334 358.832 302.79 359.056 302.342 359.504C301.894 359.952 301.67 360.64 301.67 361.568V366H300.614V358H301.67V359.168C302.246 358.261 303.062 357.808 304.118 357.808C305.27 357.808 306.08 358.293 306.55 359.264C307.126 358.293 307.99 357.808 309.142 357.808ZM321.536 358H322.592V366H321.536V364.432C320.8 365.605 319.723 366.192 318.304 366.192C317.163 366.192 316.187 365.787 315.376 364.976C314.576 364.165 314.176 363.173 314.176 362C314.176 360.827 314.576 359.835 315.376 359.024C316.187 358.213 317.163 357.808 318.304 357.808C319.723 357.808 320.8 358.395 321.536 359.568V358ZM316.144 364.256C316.752 364.864 317.499 365.168 318.384 365.168C319.27 365.168 320.016 364.864 320.624 364.256C321.232 363.637 321.536 362.885 321.536 362C321.536 361.115 321.232 360.368 320.624 359.76C320.016 359.141 319.27 358.832 318.384 358.832C317.499 358.832 316.752 359.141 316.144 359.76C315.536 360.368 315.232 361.115 315.232 362C315.232 362.885 315.536 363.637 316.144 364.256ZM326.14 360.096C326.14 360.459 326.3 360.747 326.62 360.96C326.94 361.173 327.329 361.339 327.788 361.456C328.247 361.573 328.705 361.707 329.164 361.856C329.623 361.995 330.012 362.235 330.332 362.576C330.652 362.907 330.812 363.344 330.812 363.888C330.812 364.571 330.54 365.125 329.996 365.552C329.463 365.979 328.769 366.192 327.916 366.192C327.148 366.192 326.492 366.021 325.948 365.68C325.415 365.339 325.041 364.896 324.828 364.352L325.724 363.824C325.873 364.24 326.14 364.571 326.524 364.816C326.919 365.051 327.383 365.168 327.916 365.168C328.439 365.168 328.876 365.067 329.228 364.864C329.58 364.651 329.756 364.325 329.756 363.888C329.756 363.525 329.596 363.237 329.276 363.024C328.956 362.811 328.567 362.645 328.108 362.528C327.649 362.411 327.191 362.283 326.732 362.144C326.273 361.995 325.884 361.755 325.564 361.424C325.244 361.083 325.084 360.64 325.084 360.096C325.084 359.445 325.34 358.901 325.852 358.464C326.375 358.027 327.031 357.808 327.82 357.808C328.471 357.808 329.041 357.957 329.532 358.256C330.023 358.544 330.385 358.939 330.62 359.44L329.74 359.952C329.431 359.205 328.791 358.832 327.82 358.832C327.361 358.832 326.967 358.944 326.636 359.168C326.305 359.381 326.14 359.691 326.14 360.096ZM336.72 357.808C337.69 357.808 338.453 358.107 339.008 358.704C339.573 359.291 339.856 360.085 339.856 361.088V366H338.8V361.088C338.8 360.373 338.608 359.819 338.224 359.424C337.85 359.029 337.317 358.832 336.624 358.832C335.856 358.832 335.232 359.077 334.752 359.568C334.272 360.048 334.032 360.795 334.032 361.808V366H332.976V354.8H334.032V359.248C334.629 358.288 335.525 357.808 336.72 357.808Z" fill="white"/>
<path d="M35.256 405.448V400.6H37.496L38.648 400.632H47.288L47.944 400.6H51.176V405.448H48.632V403H37.8V405.448H35.256ZM37.832 391H49.08V402.136H46.376V392.152L47.592 393.368H39.288L40.424 392.488C40.488 393.021 40.5307 393.549 40.552 394.072C40.5733 394.595 40.584 395.085 40.584 395.544C40.584 396.845 40.4827 397.949 40.28 398.856C40.0773 399.752 39.7733 400.435 39.368 400.904C38.9627 401.363 38.4613 401.592 37.864 401.592L36.744 400.648C37.192 400.136 37.5227 399.416 37.736 398.488C37.96 397.549 38.072 396.381 38.072 394.984C38.072 394.365 38.0507 393.72 38.008 393.048C37.9653 392.376 37.9067 391.693 37.832 391ZM58.0634 403.24C56.9327 403.24 55.9407 403.043 55.0874 402.648C54.234 402.243 53.5674 401.683 53.0874 400.968C52.6074 400.243 52.3674 399.405 52.3674 398.456C52.3674 397.496 52.6074 396.659 53.0874 395.944C53.5674 395.219 54.234 394.659 55.0874 394.264C55.9407 393.859 56.9327 393.656 58.0634 393.656C59.194 393.656 60.186 393.859 61.0394 394.264C61.8927 394.659 62.554 395.219 63.0234 395.944C63.5034 396.659 63.7434 397.496 63.7434 398.456C63.7434 399.405 63.5034 400.243 63.0234 400.968C62.554 401.683 61.8927 402.243 61.0394 402.648C60.186 403.043 59.194 403.24 58.0634 403.24ZM58.0634 401.208C58.682 401.208 59.21 401.096 59.6474 400.872C60.0954 400.648 60.4367 400.333 60.6714 399.928C60.9167 399.512 61.0394 399.021 61.0394 398.456C61.0394 397.88 60.9167 397.389 60.6714 396.984C60.4367 396.568 60.0954 396.248 59.6474 396.024C59.21 395.8 58.682 395.688 58.0634 395.688C57.4554 395.688 56.9274 395.8 56.4794 396.024C56.0314 396.248 55.6847 396.568 55.4394 396.984C55.2047 397.389 55.0874 397.88 55.0874 398.456C55.0874 399.021 55.2047 399.512 55.4394 399.928C55.6847 400.333 56.0314 400.648 56.4794 400.872C56.9274 401.096 57.4554 401.208 58.0634 401.208ZM76.2285 399.288C76.1218 400.067 75.8178 400.755 75.3165 401.352C74.8258 401.949 74.1912 402.413 73.4125 402.744C72.6338 403.075 71.7645 403.24 70.8045 403.24C69.7165 403.24 68.7565 403.043 67.9245 402.648C67.1032 402.243 66.4578 401.677 65.9885 400.952C65.5298 400.227 65.3005 399.395 65.3005 398.456C65.3005 397.507 65.5298 396.675 65.9885 395.96C66.4578 395.235 67.1032 394.669 67.9245 394.264C68.7565 393.859 69.7165 393.656 70.8045 393.656C71.7645 393.656 72.6338 393.827 73.4125 394.168C74.1912 394.499 74.8258 394.963 75.3165 395.56C75.8178 396.147 76.1218 396.835 76.2285 397.624H73.5565C73.4178 397.005 73.0978 396.531 72.5965 396.2C72.1058 395.859 71.5085 395.688 70.8045 395.688C70.2392 395.688 69.7432 395.8 69.3165 396.024C68.9005 396.237 68.5805 396.552 68.3565 396.968C68.1325 397.373 68.0205 397.869 68.0205 398.456C68.0205 399.032 68.1325 399.528 68.3565 399.944C68.5805 400.349 68.9005 400.664 69.3165 400.888C69.7432 401.101 70.2392 401.208 70.8045 401.208C71.5192 401.208 72.1218 401.032 72.6125 400.68C73.1138 400.328 73.4285 399.864 73.5565 399.288H76.2285ZM77.8959 403L78.4079 398.456L77.8959 393.896H84.9039C85.7785 393.896 86.4719 394.104 86.9839 394.52C87.4959 394.925 87.7519 395.48 87.7519 396.184C87.7519 396.845 87.4959 397.384 86.9839 397.8C86.4719 398.205 85.7572 398.445 84.8399 398.52L85.0319 398.072C86.0985 398.104 86.9092 398.328 87.4639 398.744C88.0292 399.149 88.3119 399.72 88.3119 400.456C88.3119 401.245 88.0239 401.869 87.4479 402.328C86.8825 402.776 86.1039 403 85.1119 403H77.8959ZM80.4719 402.408L79.4479 401.272H84.2959C84.7545 401.272 85.0905 401.181 85.3039 401C85.5172 400.808 85.6239 400.541 85.6239 400.2C85.6239 399.891 85.5065 399.64 85.2719 399.448C85.0372 399.245 84.6532 399.144 84.1199 399.144H79.9919V397.624H83.7679C84.2159 397.624 84.5412 397.533 84.7439 397.352C84.9572 397.171 85.0639 396.925 85.0639 396.616C85.0639 396.328 84.9679 396.093 84.7759 395.912C84.5945 395.731 84.2959 395.64 83.8799 395.64H79.4639L80.4719 394.504L80.9679 398.456L80.4719 402.408ZM90.3186 393.8L91.6466 394.056L92.9906 393.8V403H90.3186V393.8ZM91.6466 392.856C91.1666 392.856 90.772 392.733 90.4626 392.488C90.164 392.232 90.0146 391.896 90.0146 391.48C90.0146 391.053 90.164 390.717 90.4626 390.472C90.772 390.216 91.1666 390.088 91.6466 390.088C92.1373 390.088 92.532 390.216 92.8306 390.472C93.1293 390.717 93.2786 391.053 93.2786 391.48C93.2786 391.896 93.1293 392.232 92.8306 392.488C92.532 392.733 92.1373 392.856 91.6466 392.856ZM107.854 400.984V405.24H105.534V403H97.0221V405.24H94.7021V400.984H97.2461L97.8381 401.032H104.462L104.99 400.984H107.854ZM96.6701 393.896H106.174V402.392H103.502V394.664L104.734 395.896H97.9981L99.0701 394.936C99.1661 395.395 99.2248 395.832 99.2461 396.248C99.2675 396.653 99.2781 397.032 99.2781 397.384C99.2781 398.899 99.0488 400.083 98.5901 400.936C98.1315 401.779 97.4861 402.2 96.6541 402.2L95.5661 401.288C96.4195 400.669 96.8461 399.192 96.8461 396.856C96.8461 396.397 96.8301 395.923 96.7981 395.432C96.7661 394.931 96.7235 394.419 96.6701 393.896ZM111.219 403.144C110.771 403.144 110.398 403 110.099 402.712C109.811 402.424 109.667 402.061 109.667 401.624C109.667 401.187 109.811 400.824 110.099 400.536C110.398 400.248 110.771 400.104 111.219 400.104C111.678 400.104 112.051 400.248 112.339 400.536C112.638 400.824 112.787 401.187 112.787 401.624C112.787 402.061 112.638 402.424 112.339 402.712C112.051 403 111.678 403.144 111.219 403.144ZM111.219 397.48C110.771 397.48 110.398 397.336 110.099 397.048C109.811 396.76 109.667 396.397 109.667 395.96C109.667 395.523 109.811 395.16 110.099 394.872C110.398 394.584 110.771 394.44 111.219 394.44C111.678 394.44 112.051 394.584 112.339 394.872C112.638 395.16 112.787 395.523 112.787 395.96C112.787 396.397 112.638 396.76 112.339 397.048C112.051 397.336 111.678 397.48 111.219 397.48Z" fill="white"/>
<path d="M255.24 395.312C256.285 395.312 257.171 395.621 257.896 396.24C258.632 396.848 259 397.685 259 398.752C259 399.819 258.632 400.661 257.896 401.28C257.171 401.888 256.285 402.192 255.24 402.192C254.397 402.192 253.645 401.989 252.984 401.584C252.323 401.168 251.875 400.576 251.64 399.808L252.584 399.264C252.744 399.861 253.059 400.32 253.528 400.64C254.008 400.949 254.579 401.104 255.24 401.104C256.008 401.104 256.637 400.901 257.128 400.496C257.629 400.08 257.88 399.499 257.88 398.752C257.88 398.005 257.629 397.429 257.128 397.024C256.637 396.608 256.008 396.4 255.24 396.4H252.2L252.6 390.8H258.6V391.856H253.592L253.352 395.312H255.24ZM267.801 395.888V396.912H264.953V399.76H263.929V396.912H261.081V395.888H263.929V393.04H264.953V395.888H267.801ZM279.129 393.808C280.271 393.808 281.241 394.213 282.041 395.024C282.852 395.835 283.257 396.827 283.257 398C283.257 399.173 282.852 400.165 282.041 400.976C281.241 401.787 280.271 402.192 279.129 402.192C277.711 402.192 276.633 401.605 275.897 400.432V405.2H274.841V394H275.897V395.568C276.633 394.395 277.711 393.808 279.129 393.808ZM276.809 400.256C277.417 400.864 278.164 401.168 279.049 401.168C279.935 401.168 280.681 400.864 281.289 400.256C281.897 399.637 282.201 398.885 282.201 398C282.201 397.115 281.897 396.368 281.289 395.76C280.681 395.141 279.935 394.832 279.049 394.832C278.164 394.832 277.417 395.141 276.809 395.76C276.201 396.368 275.897 397.115 275.897 398C275.897 398.885 276.201 399.637 276.809 400.256ZM292.197 400.992C291.386 401.792 290.394 402.192 289.221 402.192C288.048 402.192 287.05 401.792 286.229 400.992C285.418 400.181 285.013 399.184 285.013 398C285.013 396.816 285.418 395.824 286.229 395.024C287.05 394.213 288.048 393.808 289.221 393.808C290.394 393.808 291.386 394.213 292.197 395.024C293.018 395.824 293.429 396.816 293.429 398C293.429 399.184 293.018 400.181 292.197 400.992ZM286.981 400.256C287.589 400.864 288.336 401.168 289.221 401.168C290.106 401.168 290.853 400.864 291.461 400.256C292.069 399.637 292.373 398.885 292.373 398C292.373 397.115 292.069 396.368 291.461 395.76C290.853 395.141 290.106 394.832 289.221 394.832C288.336 394.832 287.589 395.141 286.981 395.76C286.373 396.368 286.069 397.115 286.069 398C286.069 398.885 286.373 399.637 286.981 400.256ZM302.14 402H300.732L296.732 398.144V402H295.676V394H296.732V397.536L300.54 394H301.98L297.852 397.84L302.14 402ZM305.135 392.08C304.985 392.229 304.804 392.304 304.591 392.304C304.377 392.304 304.196 392.229 304.047 392.08C303.897 391.931 303.823 391.749 303.823 391.536C303.823 391.323 303.897 391.141 304.047 390.992C304.196 390.843 304.377 390.768 304.591 390.768C304.804 390.768 304.985 390.843 305.135 390.992C305.284 391.141 305.359 391.323 305.359 391.536C305.359 391.749 305.284 391.931 305.135 392.08ZM304.063 402V394H305.119V402H304.063ZM312.927 397.888C313.802 398.208 314.239 398.832 314.239 399.76C314.239 400.411 314.021 400.949 313.583 401.376C313.157 401.792 312.538 402 311.727 402H307.839V394H311.407C312.186 394 312.789 394.203 313.215 394.608C313.642 395.003 313.855 395.515 313.855 396.144C313.855 396.944 313.546 397.525 312.927 397.888ZM311.407 395.024H308.895V397.456H311.407C312.335 397.456 312.799 397.04 312.799 396.208C312.799 395.835 312.677 395.547 312.431 395.344C312.197 395.131 311.855 395.024 311.407 395.024ZM311.727 400.976C312.197 400.976 312.554 400.864 312.799 400.64C313.055 400.416 313.183 400.101 313.183 399.696C313.183 399.323 313.055 399.029 312.799 398.816C312.554 398.592 312.197 398.48 311.727 398.48H308.895V400.976H311.727Z" fill="white"/>
<path d="M39.048 439L41.112 435.432H41.144L46.008 427H48.952L41.992 439H39.048ZM41.112 437.256L35.128 427H38.12L42.984 435.368L41.112 437.256ZM49.8529 429.896H59.2609V439H56.5889V430.696L57.8209 431.912H51.1809L52.3329 430.92C52.3862 431.571 52.4289 432.173 52.4609 432.728C52.5035 433.272 52.5249 433.763 52.5249 434.2C52.5249 435.949 52.2635 437.219 51.7409 438.008C51.2289 438.797 50.3969 439.192 49.2449 439.192C48.9249 439.192 48.6155 439.155 48.3169 439.08C48.0289 439.016 47.7462 438.904 47.4689 438.744V436.808C47.6609 436.883 47.8475 436.941 48.0289 436.984C48.2209 437.016 48.3969 437.032 48.5569 437.032C49.1009 437.032 49.4902 436.787 49.7249 436.296C49.9702 435.795 50.0929 434.973 50.0929 433.832C50.0929 433.32 50.0715 432.733 50.0289 432.072C49.9969 431.411 49.9382 430.685 49.8529 429.896ZM71.5573 439.24C70.4372 439.24 69.4559 439.043 68.6132 438.648C67.7706 438.243 67.1146 437.683 66.6452 436.968C66.1866 436.243 65.9572 435.405 65.9572 434.456C65.9572 433.496 66.1866 432.659 66.6452 431.944C67.1146 431.219 67.7706 430.659 68.6132 430.264C69.4559 429.859 70.4372 429.656 71.5573 429.656C72.6772 429.656 73.6586 429.859 74.5012 430.264C75.3439 430.659 75.9999 431.219 76.4692 431.944C76.9386 432.659 77.1733 433.496 77.1733 434.456C77.1733 435.405 76.9386 436.243 76.4692 436.968C75.9999 437.683 75.3439 438.243 74.5012 438.648C73.6586 439.043 72.6772 439.24 71.5573 439.24ZM61.7492 439V429.896H64.4212V439H61.7492ZM63.2532 435.368V433.368H67.6532V435.368H63.2532ZM71.5573 437.208C72.1652 437.208 72.6826 437.096 73.1093 436.872C73.5466 436.648 73.8826 436.333 74.1172 435.928C74.3519 435.512 74.4692 435.021 74.4692 434.456C74.4692 433.88 74.3519 433.389 74.1172 432.984C73.8826 432.568 73.5466 432.248 73.1093 432.024C72.6826 431.8 72.1652 431.688 71.5573 431.688C70.9599 431.688 70.4426 431.8 70.0052 432.024C69.5679 432.248 69.2319 432.568 68.9972 432.984C68.7626 433.389 68.6452 433.88 68.6452 434.456C68.6452 435.021 68.7626 435.512 68.9972 435.928C69.2319 436.333 69.5679 436.648 70.0052 436.872C70.4426 437.096 70.9599 437.208 71.5573 437.208ZM84.782 439.24C83.534 439.24 82.4673 439.005 81.582 438.536C80.6967 438.056 80.0193 437.368 79.55 436.472C79.0807 435.576 78.846 434.493 78.846 433.224C78.846 431.336 79.3527 429.848 80.366 428.76C81.3793 427.672 82.83 427.048 84.718 426.888C85.486 426.824 86.1207 426.771 86.622 426.728C87.1233 426.685 87.534 426.643 87.854 426.6C88.1847 426.547 88.462 426.493 88.686 426.44C88.91 426.376 89.1287 426.307 89.342 426.232V428.456C89.118 428.541 88.83 428.621 88.478 428.696C88.1367 428.76 87.6993 428.813 87.166 428.856C86.6433 428.899 85.998 428.941 85.23 428.984C83.8327 429.048 82.7927 429.432 82.11 430.136C81.4273 430.84 81.086 431.853 81.086 433.176V433.608L80.99 433.416C81.2033 432.84 81.5287 432.344 81.966 431.928C82.4033 431.512 82.926 431.197 83.534 430.984C84.1527 430.76 84.8193 430.648 85.534 430.648C86.462 430.648 87.2727 430.824 87.966 431.176C88.6593 431.517 89.198 432.003 89.582 432.632C89.9767 433.261 90.174 433.997 90.174 434.84C90.174 435.725 89.95 436.499 89.502 437.16C89.054 437.821 88.4247 438.333 87.614 438.696C86.814 439.059 85.87 439.24 84.782 439.24ZM84.846 437.208C85.3793 437.208 85.8433 437.112 86.238 436.92C86.6327 436.728 86.9367 436.456 87.15 436.104C87.3633 435.752 87.47 435.341 87.47 434.872C87.47 434.403 87.3633 433.997 87.15 433.656C86.9367 433.304 86.6327 433.032 86.238 432.84C85.8433 432.648 85.3793 432.552 84.846 432.552C84.11 432.552 83.4593 432.749 82.894 433.144C82.3287 433.528 81.902 434.067 81.614 434.76C81.7847 435.507 82.158 436.104 82.734 436.552C83.3207 436.989 84.0247 437.208 84.846 437.208ZM93.5585 429.896H102.966V439H100.294V430.696L101.526 431.912H94.8865L96.0385 430.92C96.0918 431.571 96.1345 432.173 96.1665 432.728C96.2092 433.272 96.2305 433.763 96.2305 434.2C96.2305 435.949 95.9692 437.219 95.4465 438.008C94.9345 438.797 94.1025 439.192 92.9505 439.192C92.6305 439.192 92.3212 439.155 92.0225 439.08C91.7345 439.016 91.4518 438.904 91.1745 438.744V436.808C91.3665 436.883 91.5532 436.941 91.7345 436.984C91.9265 437.016 92.1025 437.032 92.2625 437.032C92.8065 437.032 93.1958 436.787 93.4305 436.296C93.6758 435.795 93.7985 434.973 93.7985 433.832C93.7985 433.32 93.7772 432.733 93.7345 432.072C93.7025 431.411 93.6438 430.685 93.5585 429.896ZM110.591 439.24C109.514 439.24 108.548 439.043 107.695 438.648C106.852 438.243 106.186 437.677 105.695 436.952C105.215 436.227 104.975 435.384 104.975 434.424C104.975 433.475 105.204 432.643 105.663 431.928C106.132 431.213 106.772 430.659 107.583 430.264C108.394 429.859 109.316 429.656 110.351 429.656C111.407 429.656 112.314 429.891 113.071 430.36C113.828 430.819 114.41 431.469 114.815 432.312C115.231 433.155 115.439 434.147 115.439 435.288H107.119V433.512H113.999L112.959 434.152C112.916 433.619 112.783 433.165 112.559 432.792C112.346 432.419 112.052 432.131 111.679 431.928C111.306 431.725 110.868 431.624 110.367 431.624C109.823 431.624 109.348 431.736 108.943 431.96C108.548 432.173 108.239 432.477 108.015 432.872C107.802 433.256 107.695 433.709 107.695 434.232C107.695 434.861 107.834 435.4 108.111 435.848C108.388 436.296 108.794 436.637 109.327 436.872C109.86 437.107 110.506 437.224 111.263 437.224C111.946 437.224 112.634 437.128 113.327 436.936C114.02 436.733 114.644 436.451 115.199 436.088V437.88C114.602 438.307 113.903 438.643 113.103 438.888C112.314 439.123 111.476 439.24 110.591 439.24ZM117.482 429.896H120.138V439H117.482V429.896ZM125.114 429.896H127.77V439H125.114V429.896ZM119.002 433.352H126.154V435.368H119.002V433.352ZM130.259 439V429.896H132.883V437.592L132.227 437.416L137.715 429.896H141.155V439H138.531V431.16L139.187 431.352L133.603 439H130.259ZM143.645 439V429.896H146.269V437.592L145.613 437.416L151.101 429.896H154.541V439H151.917V431.16L152.573 431.352L146.989 439H143.645ZM149.021 429.064C147.986 429.064 147.154 428.813 146.525 428.312C145.896 427.8 145.506 427.059 145.357 426.088H147.453C147.528 426.547 147.698 426.899 147.965 427.144C148.242 427.379 148.594 427.496 149.021 427.496C149.448 427.496 149.794 427.379 150.061 427.144C150.328 426.899 150.504 426.547 150.589 426.088H152.669C152.53 427.059 152.141 427.8 151.501 428.312C150.872 428.813 150.045 429.064 149.021 429.064ZM169.157 429.896V431.944H163.045L164.277 430.728V439H161.605V429.896H169.157ZM173.426 441.88C172.829 441.88 172.29 441.805 171.81 441.656C171.33 441.507 170.877 441.288 170.45 441V439.08C170.898 439.368 171.325 439.576 171.73 439.704C172.136 439.832 172.584 439.896 173.074 439.896C173.512 439.896 173.901 439.795 174.242 439.592C174.584 439.4 174.866 439.053 175.09 438.552L178.882 429.896H181.714L177.17 439.416C176.893 440.013 176.557 440.493 176.162 440.856C175.768 441.219 175.336 441.48 174.866 441.64C174.408 441.8 173.928 441.88 173.426 441.88ZM174.002 438.424L169.986 429.896H172.93L176.61 438.424H174.002ZM183.268 429.896H185.94V432.792L185.828 433.144V435.336L185.94 435.992V441.64H183.268V429.896ZM185.012 434.456C185.193 433.485 185.508 432.643 185.956 431.928C186.415 431.203 186.985 430.643 187.668 430.248C188.361 429.853 189.129 429.656 189.972 429.656C190.868 429.656 191.652 429.859 192.324 430.264C193.007 430.659 193.54 431.219 193.924 431.944C194.308 432.659 194.5 433.496 194.5 434.456C194.5 435.405 194.308 436.243 193.924 436.968C193.54 437.683 193.007 438.243 192.324 438.648C191.652 439.043 190.868 439.24 189.972 439.24C189.119 439.24 188.351 439.043 187.668 438.648C186.996 438.253 186.431 437.699 185.972 436.984C185.513 436.259 185.193 435.416 185.012 434.456ZM191.796 434.456C191.796 433.923 191.684 433.453 191.46 433.048C191.247 432.632 190.948 432.312 190.564 432.088C190.18 431.853 189.737 431.736 189.236 431.736C188.735 431.736 188.26 431.853 187.812 432.088C187.364 432.312 186.969 432.632 186.628 433.048C186.297 433.453 186.036 433.923 185.844 434.456C186.036 434.989 186.297 435.459 186.628 435.864C186.969 436.269 187.364 436.589 187.812 436.824C188.26 437.048 188.735 437.16 189.236 437.16C189.737 437.16 190.18 437.048 190.564 436.824C190.948 436.589 191.247 436.269 191.46 435.864C191.684 435.459 191.796 434.989 191.796 434.456ZM199.049 430.824H201.721V439H199.049V430.824ZM195.433 429.896H205.337V431.944H195.433V429.896ZM208.513 439.144C208.065 439.144 207.691 439 207.393 438.712C207.105 438.424 206.961 438.061 206.961 437.624C206.961 437.187 207.105 436.824 207.393 436.536C207.691 436.248 208.065 436.104 208.513 436.104C208.971 436.104 209.345 436.248 209.633 436.536C209.931 436.824 210.081 437.187 210.081 437.624C210.081 438.061 209.931 438.424 209.633 438.712C209.345 439 208.971 439.144 208.513 439.144ZM208.513 433.48C208.065 433.48 207.691 433.336 207.393 433.048C207.105 432.76 206.961 432.397 206.961 431.96C206.961 431.523 207.105 431.16 207.393 430.872C207.691 430.584 208.065 430.44 208.513 430.44C208.971 430.44 209.345 430.584 209.633 430.872C209.931 431.16 210.081 431.523 210.081 431.96C210.081 432.397 209.931 432.76 209.633 433.048C209.345 433.336 208.971 433.48 208.513 433.48Z" fill="white"/>
<path d="M257.512 438.192C255.816 438.192 254.413 437.632 253.304 436.512C252.195 435.392 251.64 434.021 251.64 432.4C251.64 430.779 252.195 429.408 253.304 428.288C254.413 427.168 255.816 426.608 257.512 426.608C258.547 426.608 259.496 426.859 260.36 427.36C261.224 427.851 261.891 428.517 262.36 429.36L261.368 429.936C261.016 429.253 260.493 428.709 259.8 428.304C259.107 427.899 258.344 427.696 257.512 427.696C256.115 427.696 254.973 428.149 254.088 429.056C253.203 429.963 252.76 431.077 252.76 432.4C252.76 433.723 253.203 434.837 254.088 435.744C254.973 436.651 256.115 437.104 257.512 437.104C258.344 437.104 259.107 436.901 259.8 436.496C260.493 436.091 261.016 435.547 261.368 434.864L262.36 435.424C261.901 436.267 261.235 436.939 260.36 437.44C259.496 437.941 258.547 438.192 257.512 438.192ZM271.148 436.992C270.337 437.792 269.345 438.192 268.172 438.192C266.998 438.192 266.001 437.792 265.18 436.992C264.369 436.181 263.964 435.184 263.964 434C263.964 432.816 264.369 431.824 265.18 431.024C266.001 430.213 266.998 429.808 268.172 429.808C269.345 429.808 270.337 430.213 271.148 431.024C271.969 431.824 272.38 432.816 272.38 434C272.38 435.184 271.969 436.181 271.148 436.992ZM265.932 436.256C266.54 436.864 267.286 437.168 268.172 437.168C269.057 437.168 269.804 436.864 270.412 436.256C271.02 435.637 271.324 434.885 271.324 434C271.324 433.115 271.02 432.368 270.412 431.76C269.804 431.141 269.057 430.832 268.172 430.832C267.286 430.832 266.54 431.141 265.932 431.76C265.324 432.368 265.02 433.115 265.02 434C265.02 434.885 265.324 435.637 265.932 436.256ZM274.627 438V426.32H275.683V438H274.627ZM285.284 426.8H286.34V438H285.284V436.432C284.548 437.605 283.47 438.192 282.052 438.192C280.91 438.192 279.934 437.787 279.124 436.976C278.324 436.165 277.924 435.173 277.924 434C277.924 432.827 278.324 431.835 279.124 431.024C279.934 430.213 280.91 429.808 282.052 429.808C283.47 429.808 284.548 430.395 285.284 431.568V426.8ZM279.892 436.256C280.5 436.864 281.246 437.168 282.132 437.168C283.017 437.168 283.764 436.864 284.372 436.256C284.98 435.637 285.284 434.885 285.284 434C285.284 433.115 284.98 432.368 284.372 431.76C283.764 431.141 283.017 430.832 282.132 430.832C281.246 430.832 280.5 431.141 279.892 431.76C279.284 432.368 278.98 433.115 278.98 434C278.98 434.885 279.284 435.637 279.892 436.256ZM293.344 429.808C294.485 429.808 295.456 430.213 296.256 431.024C297.066 431.835 297.472 432.827 297.472 434C297.472 435.173 297.066 436.165 296.256 436.976C295.456 437.787 294.485 438.192 293.344 438.192C291.925 438.192 290.848 437.605 290.112 436.432V441.2H289.056V430H290.112V431.568C290.848 430.395 291.925 429.808 293.344 429.808ZM291.024 436.256C291.632 436.864 292.378 437.168 293.264 437.168C294.149 437.168 294.896 436.864 295.504 436.256C296.112 435.637 296.416 434.885 296.416 434C296.416 433.115 296.112 432.368 295.504 431.76C294.896 431.141 294.149 430.832 293.264 430.832C292.378 430.832 291.632 431.141 291.024 431.76C290.416 432.368 290.112 433.115 290.112 434C290.112 434.885 290.416 435.637 291.024 436.256ZM299.708 438V426.32H300.764V438H299.708ZM310.364 430H311.42V438H310.364V436.432C309.628 437.605 308.551 438.192 307.132 438.192C305.991 438.192 305.015 437.787 304.204 436.976C303.404 436.165 303.004 435.173 303.004 434C303.004 432.827 303.404 431.835 304.204 431.024C305.015 430.213 305.991 429.808 307.132 429.808C308.551 429.808 309.628 430.395 310.364 431.568V430ZM304.972 436.256C305.58 436.864 306.327 437.168 307.212 437.168C308.098 437.168 308.844 436.864 309.452 436.256C310.06 435.637 310.364 434.885 310.364 434C310.364 433.115 310.06 432.368 309.452 431.76C308.844 431.141 308.098 430.832 307.212 430.832C306.327 430.832 305.58 431.141 304.972 431.76C304.364 432.368 304.06 433.115 304.06 434C304.06 434.885 304.364 435.637 304.972 436.256ZM319.896 430H321.016L317.592 438.736C317.283 439.525 316.84 440.144 316.264 440.592C315.699 441.051 315.064 441.253 314.36 441.2V440.208C315.32 440.315 316.051 439.76 316.552 438.544L316.76 438.048L313.176 430H314.296L317.304 436.704L319.896 430Z" fill="white"/>
</svg>
