<svg width="451" height="559" viewBox="0 0 451 559" fill="none" xmlns="http://www.w3.org/2000/svg">
<path d="M3.23047 241.203L48.801 118.263C54.6094 102.593 67.8624 90.861 84.1211 86.9963L360.488 21.304C399.082 12.1303 432.478 49.3994 419.14 86.7595L399.477 141.84C396.764 149.44 395.93 157.584 397.048 165.576L441.785 485.454C446.116 516.42 421.283 543.719 390.047 542.331L47.8933 527.124C21.1687 525.936 0.113281 503.924 0.113281 477.173V258.581C0.113281 252.649 1.1688 246.765 3.23047 241.203Z" fill="#C0B7EE"/>
<path d="M36.3453 211V199H39.0493V208.792L38.2813 208.248L45.7053 199H48.6013L38.7933 211H36.3453ZM42.0733 205.128L44.0253 203.384L48.7773 211H45.6733L42.0733 205.128ZM50.2107 201.8L51.5387 202.056L52.8827 201.8V211H50.2107V201.8ZM51.5387 200.856C51.0587 200.856 50.664 200.734 50.3547 200.488C50.056 200.232 49.9067 199.896 49.9067 199.48C49.9067 199.054 50.056 198.718 50.3547 198.472C50.664 198.216 51.0587 198.088 51.5387 198.088C52.0293 198.088 52.424 198.216 52.7227 198.472C53.0213 198.718 53.1707 199.054 53.1707 199.48C53.1707 199.896 53.0213 200.232 52.7227 200.488C52.424 200.734 52.0293 200.856 51.5387 200.856ZM56.9462 201.896H66.3542V211H63.6822V202.696L64.9142 203.912H58.2742L59.4262 202.92C59.4795 203.571 59.5222 204.174 59.5542 204.728C59.5968 205.272 59.6182 205.763 59.6182 206.2C59.6182 207.95 59.3568 209.219 58.8342 210.008C58.3222 210.798 57.4902 211.192 56.3382 211.192C56.0182 211.192 55.7088 211.155 55.4102 211.08C55.1222 211.016 54.8395 210.904 54.5622 210.744V208.808C54.7542 208.883 54.9408 208.942 55.1222 208.984C55.3142 209.016 55.4902 209.032 55.6502 209.032C56.1942 209.032 56.5835 208.787 56.8182 208.296C57.0635 207.795 57.1862 206.974 57.1862 205.832C57.1862 205.32 57.1648 204.734 57.1222 204.072C57.0902 203.411 57.0315 202.686 56.9462 201.896ZM68.8425 211V201.896H71.4985V210.312L70.6345 209.08H74.1865C74.6772 209.08 75.0559 208.963 75.3225 208.728C75.5892 208.483 75.7225 208.152 75.7225 207.736C75.7225 207.299 75.5892 206.963 75.3225 206.728C75.0559 206.483 74.6772 206.36 74.1865 206.36H70.6505V204.52H74.5865C75.3652 204.52 76.0372 204.659 76.6025 204.936C77.1785 205.203 77.6265 205.582 77.9465 206.072C78.2665 206.552 78.4265 207.118 78.4265 207.768C78.4265 208.408 78.2665 208.974 77.9465 209.464C77.6265 209.955 77.1839 210.334 76.6185 210.6C76.0532 210.867 75.3865 211 74.6185 211H68.8425ZM80.2132 211V201.896H82.8852V208.84L82.1012 208.568L87.5252 201.896H90.4372L82.6132 211H80.2132ZM87.6532 211L84.9332 206.536L86.9012 205.016L90.7092 211H87.6532ZM92.0994 201.8L93.4274 202.056L94.7714 201.8V211H92.0994V201.8ZM93.4274 200.856C92.9474 200.856 92.5527 200.734 92.2434 200.488C91.9447 200.232 91.7954 199.896 91.7954 199.48C91.7954 199.054 91.9447 198.718 92.2434 198.472C92.5527 198.216 92.9474 198.088 93.4274 198.088C93.9181 198.088 94.3127 198.216 94.6114 198.472C94.9101 198.718 95.0594 199.054 95.0594 199.48C95.0594 199.896 94.9101 200.232 94.6114 200.488C94.3127 200.734 93.9181 200.856 93.4274 200.856ZM107.715 207.288C107.608 208.067 107.304 208.755 106.803 209.352C106.312 209.95 105.678 210.414 104.899 210.744C104.12 211.075 103.251 211.24 102.291 211.24C101.203 211.24 100.243 211.043 99.4109 210.648C98.5896 210.243 97.9442 209.678 97.4749 208.952C97.0162 208.227 96.7869 207.395 96.7869 206.456C96.7869 205.507 97.0162 204.675 97.4749 203.96C97.9442 203.235 98.5896 202.67 99.4109 202.264C100.243 201.859 101.203 201.656 102.291 201.656C103.251 201.656 104.12 201.827 104.899 202.168C105.678 202.499 106.312 202.963 106.803 203.56C107.304 204.147 107.608 204.835 107.715 205.624H105.043C104.904 205.006 104.584 204.531 104.083 204.2C103.592 203.859 102.995 203.688 102.291 203.688C101.726 203.688 101.23 203.8 100.803 204.024C100.387 204.238 100.067 204.552 99.8429 204.968C99.6189 205.374 99.5069 205.87 99.5069 206.456C99.5069 207.032 99.6189 207.528 99.8429 207.944C100.067 208.35 100.387 208.664 100.803 208.888C101.23 209.102 101.726 209.208 102.291 209.208C103.006 209.208 103.608 209.032 104.099 208.68C104.6 208.328 104.915 207.864 105.043 207.288H107.715ZM112.126 202.824H114.798V211H112.126V202.824ZM108.51 201.896H118.414V203.944H108.51V201.896ZM120.118 211V201.896H122.774V210.312L121.91 209.08H125.462C125.952 209.08 126.331 208.963 126.598 208.728C126.864 208.483 126.998 208.152 126.998 207.736C126.998 207.299 126.864 206.963 126.598 206.728C126.331 206.483 125.952 206.36 125.462 206.36H121.926V204.52H125.862C126.64 204.52 127.312 204.659 127.878 204.936C128.454 205.203 128.902 205.582 129.222 206.072C129.542 206.552 129.702 207.118 129.702 207.768C129.702 208.408 129.542 208.974 129.222 209.464C128.902 209.955 128.459 210.334 127.894 210.6C127.328 210.867 126.662 211 125.894 211H120.118ZM36.1213 221.896H38.7933V224.792L38.6813 225.144V227.336L38.7933 227.992V233.64H36.1213V221.896ZM37.8653 226.456C38.0466 225.486 38.3613 224.643 38.8093 223.928C39.2679 223.203 39.8386 222.643 40.5213 222.248C41.2146 221.854 41.9826 221.656 42.8253 221.656C43.7213 221.656 44.5053 221.859 45.1773 222.264C45.8599 222.659 46.3933 223.219 46.7773 223.944C47.1613 224.659 47.3533 225.496 47.3533 226.456C47.3533 227.406 47.1613 228.243 46.7773 228.968C46.3933 229.683 45.8599 230.243 45.1773 230.648C44.5053 231.043 43.7213 231.24 42.8253 231.24C41.9719 231.24 41.2039 231.043 40.5213 230.648C39.8493 230.254 39.2839 229.699 38.8253 228.984C38.3666 228.259 38.0466 227.416 37.8653 226.456ZM44.6493 226.456C44.6493 225.923 44.5373 225.454 44.3133 225.048C44.0999 224.632 43.8013 224.312 43.4173 224.088C43.0333 223.854 42.5906 223.736 42.0893 223.736C41.5879 223.736 41.1133 223.854 40.6653 224.088C40.2173 224.312 39.8226 224.632 39.4813 225.048C39.1506 225.454 38.8893 225.923 38.6973 226.456C38.8893 226.99 39.1506 227.459 39.4813 227.864C39.8226 228.27 40.2173 228.59 40.6653 228.824C41.1133 229.048 41.5879 229.16 42.0893 229.16C42.5906 229.16 43.0333 229.048 43.4173 228.824C43.8013 228.59 44.0999 228.27 44.3133 227.864C44.5373 227.459 44.6493 226.99 44.6493 226.456ZM54.5342 231.24C53.4568 231.24 52.4915 231.043 51.6382 230.648C50.7955 230.243 50.1288 229.678 49.6382 228.952C49.1582 228.227 48.9182 227.384 48.9182 226.424C48.9182 225.475 49.1475 224.643 49.6062 223.928C50.0755 223.214 50.7155 222.659 51.5262 222.264C52.3368 221.859 53.2595 221.656 54.2942 221.656C55.3502 221.656 56.2568 221.891 57.0142 222.36C57.7715 222.819 58.3528 223.47 58.7582 224.312C59.1742 225.155 59.3822 226.147 59.3822 227.288H51.0622V225.512H57.9422L56.9022 226.152C56.8595 225.619 56.7262 225.166 56.5022 224.792C56.2888 224.419 55.9955 224.131 55.6222 223.928C55.2488 223.726 54.8115 223.624 54.3102 223.624C53.7662 223.624 53.2915 223.736 52.8862 223.96C52.4915 224.174 52.1822 224.478 51.9582 224.872C51.7448 225.256 51.6382 225.71 51.6382 226.232C51.6382 226.862 51.7768 227.4 52.0542 227.848C52.3315 228.296 52.7368 228.638 53.2702 228.872C53.8035 229.107 54.4488 229.224 55.2062 229.224C55.8888 229.224 56.5768 229.128 57.2702 228.936C57.9635 228.734 58.5875 228.451 59.1422 228.088V229.88C58.5448 230.307 57.8462 230.643 57.0462 230.888C56.2568 231.123 55.4195 231.24 54.5342 231.24ZM69.761 231L69.377 227.672L69.809 226.456L69.377 225.256L69.761 221.896H72.529L72.001 226.456L72.529 231H69.761ZM70.465 226.456C70.2944 227.416 69.9797 228.259 69.521 228.984C69.073 229.699 68.5024 230.254 67.809 230.648C67.1264 231.043 66.3584 231.24 65.505 231.24C64.6197 231.24 63.8357 231.043 63.153 230.648C62.4704 230.243 61.937 229.683 61.553 228.968C61.1797 228.243 60.993 227.406 60.993 226.456C60.993 225.496 61.1797 224.659 61.553 223.944C61.937 223.219 62.4704 222.659 63.153 222.264C63.8357 221.859 64.6197 221.656 65.505 221.656C66.3584 221.656 67.1264 221.854 67.809 222.248C68.5024 222.643 69.0784 223.203 69.537 223.928C69.9957 224.643 70.305 225.486 70.465 226.456ZM63.697 226.456C63.697 226.99 63.8037 227.459 64.017 227.864C64.241 228.27 64.545 228.59 64.929 228.824C65.313 229.048 65.7557 229.16 66.257 229.16C66.7584 229.16 67.2277 229.048 67.665 228.824C68.113 228.59 68.5077 228.27 68.849 227.864C69.1904 227.459 69.457 226.99 69.649 226.456C69.457 225.923 69.1904 225.454 68.849 225.048C68.5077 224.632 68.113 224.312 67.665 224.088C67.2277 223.854 66.7584 223.736 66.257 223.736C65.7557 223.736 65.313 223.854 64.929 224.088C64.545 224.312 64.241 224.632 64.017 225.048C63.8037 225.454 63.697 225.923 63.697 226.456ZM76.3637 221.896H85.7717V231H83.0997V222.696L84.3317 223.912H77.6917L78.8437 222.92C78.897 223.571 78.9397 224.174 78.9717 224.728C79.0143 225.272 79.0357 225.763 79.0357 226.2C79.0357 227.95 78.7743 229.219 78.2517 230.008C77.7397 230.798 76.9077 231.192 75.7557 231.192C75.4357 231.192 75.1263 231.155 74.8277 231.08C74.5397 231.016 74.257 230.904 73.9797 230.744V228.808C74.1717 228.883 74.3583 228.942 74.5397 228.984C74.7317 229.016 74.9077 229.032 75.0677 229.032C75.6117 229.032 76.001 228.787 76.2357 228.296C76.481 227.795 76.6037 226.974 76.6037 225.832C76.6037 225.32 76.5823 224.734 76.5397 224.072C76.5077 223.411 76.449 222.686 76.3637 221.896ZM88.26 221.8L89.588 222.056L90.932 221.8V231H88.26V221.8ZM89.588 220.856C89.108 220.856 88.7134 220.734 88.404 220.488C88.1054 220.232 87.956 219.896 87.956 219.48C87.956 219.054 88.1054 218.718 88.404 218.472C88.7134 218.216 89.108 218.088 89.588 218.088C90.0787 218.088 90.4734 218.216 90.772 218.472C91.0707 218.718 91.22 219.054 91.22 219.48C91.22 219.896 91.0707 220.232 90.772 220.488C90.4734 220.734 90.0787 220.856 89.588 220.856ZM97.9235 231.24C96.9102 231.24 96.0249 231.112 95.2675 230.856C94.5102 230.59 93.9182 230.211 93.4915 229.72C93.0649 229.219 92.8302 228.632 92.7875 227.96H95.3795C95.4542 228.408 95.7102 228.75 96.1475 228.984C96.5849 229.219 97.1769 229.336 97.9235 229.336C98.6382 229.336 99.1929 229.246 99.5875 229.064C99.9929 228.872 100.196 228.579 100.196 228.184C100.196 227.864 100.025 227.63 99.6835 227.48C99.3529 227.32 98.8195 227.24 98.0835 227.24H96.3875V225.64H98.0355C98.6969 225.64 99.1822 225.544 99.4915 225.352C99.8115 225.16 99.9715 224.92 99.9715 224.632C99.9715 224.28 99.7849 224.014 99.4115 223.832C99.0489 223.651 98.5582 223.56 97.9395 223.56C97.2569 223.56 96.7075 223.667 96.2915 223.88C95.8755 224.094 95.6302 224.414 95.5555 224.84H92.9795C93.0222 224.254 93.2462 223.72 93.6515 223.24C94.0569 222.76 94.6275 222.376 95.3635 222.088C96.1102 221.8 97.0062 221.656 98.0515 221.656C98.9795 221.656 99.7902 221.768 100.484 221.992C101.177 222.216 101.716 222.526 102.1 222.92C102.484 223.315 102.676 223.768 102.676 224.28C102.676 224.686 102.548 225.059 102.292 225.4C102.046 225.742 101.646 226.014 101.092 226.216C100.548 226.419 99.8329 226.52 98.9475 226.52V226.248C100.217 226.195 101.193 226.35 101.876 226.712C102.569 227.075 102.916 227.63 102.916 228.376C102.916 228.92 102.718 229.411 102.324 229.848C101.94 230.286 101.374 230.627 100.628 230.872C99.8809 231.118 98.9795 231.24 97.9235 231.24ZM110.186 231.24C109.055 231.24 108.063 231.043 107.21 230.648C106.357 230.243 105.69 229.683 105.21 228.968C104.73 228.243 104.49 227.406 104.49 226.456C104.49 225.496 104.73 224.659 105.21 223.944C105.69 223.219 106.357 222.659 107.21 222.264C108.063 221.859 109.055 221.656 110.186 221.656C111.317 221.656 112.309 221.859 113.162 222.264C114.015 222.659 114.677 223.219 115.146 223.944C115.626 224.659 115.866 225.496 115.866 226.456C115.866 227.406 115.626 228.243 115.146 228.968C114.677 229.683 114.015 230.243 113.162 230.648C112.309 231.043 111.317 231.24 110.186 231.24ZM110.186 229.208C110.805 229.208 111.333 229.096 111.77 228.872C112.218 228.648 112.559 228.334 112.794 227.928C113.039 227.512 113.162 227.022 113.162 226.456C113.162 225.88 113.039 225.39 112.794 224.984C112.559 224.568 112.218 224.248 111.77 224.024C111.333 223.8 110.805 223.688 110.186 223.688C109.578 223.688 109.05 223.8 108.602 224.024C108.154 224.248 107.807 224.568 107.562 224.984C107.327 225.39 107.21 225.88 107.21 226.456C107.21 227.022 107.327 227.512 107.562 227.928C107.807 228.334 108.154 228.648 108.602 228.872C109.05 229.096 109.578 229.208 110.186 229.208ZM117.648 231L118.16 226.456L117.648 221.896H124.656C125.531 221.896 126.224 222.104 126.736 222.52C127.248 222.926 127.504 223.48 127.504 224.184C127.504 224.846 127.248 225.384 126.736 225.8C126.224 226.206 125.509 226.446 124.592 226.52L124.784 226.072C125.851 226.104 126.661 226.328 127.216 226.744C127.781 227.15 128.064 227.72 128.064 228.456C128.064 229.246 127.776 229.87 127.2 230.328C126.635 230.776 125.856 231 124.864 231H117.648ZM120.224 230.408L119.2 229.272H124.048C124.507 229.272 124.843 229.182 125.056 229C125.269 228.808 125.376 228.542 125.376 228.2C125.376 227.891 125.259 227.64 125.024 227.448C124.789 227.246 124.405 227.144 123.872 227.144H119.744V225.624H123.52C123.968 225.624 124.293 225.534 124.496 225.352C124.709 225.171 124.816 224.926 124.816 224.616C124.816 224.328 124.72 224.094 124.528 223.912C124.347 223.731 124.048 223.64 123.632 223.64H119.216L120.224 222.504L120.72 226.456L120.224 230.408ZM138.407 231L138.023 227.672L138.455 226.456L138.023 225.256L138.407 221.896H141.175L140.647 226.456L141.175 231H138.407ZM139.111 226.456C138.94 227.416 138.625 228.259 138.167 228.984C137.719 229.699 137.148 230.254 136.455 230.648C135.772 231.043 135.004 231.24 134.151 231.24C133.265 231.24 132.481 231.043 131.799 230.648C131.116 230.243 130.583 229.683 130.199 228.968C129.825 228.243 129.639 227.406 129.639 226.456C129.639 225.496 129.825 224.659 130.199 223.944C130.583 223.219 131.116 222.659 131.799 222.264C132.481 221.859 133.265 221.656 134.151 221.656C135.004 221.656 135.772 221.854 136.455 222.248C137.148 222.643 137.724 223.203 138.183 223.928C138.641 224.643 138.951 225.486 139.111 226.456ZM132.343 226.456C132.343 226.99 132.449 227.459 132.663 227.864C132.887 228.27 133.191 228.59 133.575 228.824C133.959 229.048 134.401 229.16 134.903 229.16C135.404 229.16 135.873 229.048 136.311 228.824C136.759 228.59 137.153 228.27 137.495 227.864C137.836 227.459 138.103 226.99 138.295 226.456C138.103 225.923 137.836 225.454 137.495 225.048C137.153 224.632 136.759 224.312 136.311 224.088C135.873 223.854 135.404 223.736 134.903 223.736C134.401 223.736 133.959 223.854 133.575 224.088C133.191 224.312 132.887 224.632 132.663 225.048C132.449 225.454 132.343 225.923 132.343 226.456ZM143.441 221.896H146.097V231H143.441V221.896ZM151.073 221.896H153.729V231H151.073V221.896ZM144.961 225.352H152.113V227.368H144.961V225.352ZM156.218 231V221.896H158.842V229.592L158.186 229.416L163.674 221.896H167.114V231H164.49V223.16L165.146 223.352L159.562 231H156.218ZM168.452 231L172.756 225.848L172.74 226.84L168.708 221.896H171.7L174.548 225.32H173.62L176.484 221.896H179.428L175.268 226.888L175.14 225.64L179.668 231H176.628L173.524 227.32H174.5L171.428 231H168.452ZM46.3453 241.896V251H43.6733V242.696L44.9053 243.912H37.5613L38.7933 242.696V251H36.1213V241.896H46.3453ZM48.8357 241.896H51.5077V244.792L51.3957 245.144V247.336L51.5077 247.992V253.64H48.8357V241.896ZM50.5797 246.456C50.761 245.486 51.0757 244.643 51.5237 243.928C51.9823 243.203 52.553 242.643 53.2357 242.248C53.929 241.854 54.697 241.656 55.5397 241.656C56.4357 241.656 57.2197 241.859 57.8917 242.264C58.5743 242.659 59.1077 243.219 59.4917 243.944C59.8757 244.659 60.0677 245.496 60.0677 246.456C60.0677 247.406 59.8757 248.243 59.4917 248.968C59.1077 249.683 58.5743 250.243 57.8917 250.648C57.2197 251.043 56.4357 251.24 55.5397 251.24C54.6863 251.24 53.9183 251.043 53.2357 250.648C52.5637 250.254 51.9983 249.699 51.5397 248.984C51.081 248.259 50.761 247.416 50.5797 246.456ZM57.3637 246.456C57.3637 245.923 57.2517 245.454 57.0277 245.048C56.8143 244.632 56.5157 244.312 56.1317 244.088C55.7477 243.854 55.305 243.736 54.8037 243.736C54.3023 243.736 53.8277 243.854 53.3797 244.088C52.9317 244.312 52.537 244.632 52.1957 245.048C51.865 245.454 51.6037 245.923 51.4117 246.456C51.6037 246.99 51.865 247.459 52.1957 247.864C52.537 248.27 52.9317 248.59 53.3797 248.824C53.8277 249.048 54.3023 249.16 54.8037 249.16C55.305 249.16 55.7477 249.048 56.1317 248.824C56.5157 248.59 56.8143 248.27 57.0277 247.864C57.2517 247.459 57.3637 246.99 57.3637 246.456ZM67.3285 251.24C66.1979 251.24 65.2059 251.043 64.3525 250.648C63.4992 250.243 62.8325 249.683 62.3525 248.968C61.8725 248.243 61.6325 247.406 61.6325 246.456C61.6325 245.496 61.8725 244.659 62.3525 243.944C62.8325 243.219 63.4992 242.659 64.3525 242.264C65.2059 241.859 66.1979 241.656 67.3285 241.656C68.4592 241.656 69.4512 241.859 70.3045 242.264C71.1579 242.659 71.8192 243.219 72.2885 243.944C72.7685 244.659 73.0085 245.496 73.0085 246.456C73.0085 247.406 72.7685 248.243 72.2885 248.968C71.8192 249.683 71.1579 250.243 70.3045 250.648C69.4512 251.043 68.4592 251.24 67.3285 251.24ZM67.3285 249.208C67.9472 249.208 68.4752 249.096 68.9125 248.872C69.3605 248.648 69.7019 248.334 69.9365 247.928C70.1819 247.512 70.3045 247.022 70.3045 246.456C70.3045 245.88 70.1819 245.39 69.9365 244.984C69.7019 244.568 69.3605 244.248 68.9125 244.024C68.4752 243.8 67.9472 243.688 67.3285 243.688C66.7205 243.688 66.1925 243.8 65.7445 244.024C65.2965 244.248 64.9499 244.568 64.7045 244.984C64.4699 245.39 64.3525 245.88 64.3525 246.456C64.3525 247.022 64.4699 247.512 64.7045 247.928C64.9499 248.334 65.2965 248.648 65.7445 248.872C66.1925 249.096 66.7205 249.208 67.3285 249.208ZM80.1817 251.24C79.1043 251.24 78.139 251.043 77.2857 250.648C76.443 250.243 75.7763 249.678 75.2857 248.952C74.8057 248.227 74.5657 247.384 74.5657 246.424C74.5657 245.475 74.795 244.643 75.2537 243.928C75.723 243.214 76.363 242.659 77.1737 242.264C77.9843 241.859 78.907 241.656 79.9417 241.656C80.9977 241.656 81.9043 241.891 82.6617 242.36C83.419 242.819 84.0003 243.47 84.4057 244.312C84.8217 245.155 85.0297 246.147 85.0297 247.288H76.7097V245.512H83.5897L82.5497 246.152C82.507 245.619 82.3737 245.166 82.1497 244.792C81.9363 244.419 81.643 244.131 81.2697 243.928C80.8963 243.726 80.459 243.624 79.9577 243.624C79.4137 243.624 78.939 243.736 78.5337 243.96C78.139 244.174 77.8297 244.478 77.6057 244.872C77.3923 245.256 77.2857 245.71 77.2857 246.232C77.2857 246.862 77.4243 247.4 77.7017 247.848C77.979 248.296 78.3843 248.638 78.9177 248.872C79.451 249.107 80.0963 249.224 80.8537 249.224C81.5363 249.224 82.2243 249.128 82.9177 248.936C83.611 248.734 84.235 248.451 84.7897 248.088V249.88C84.1923 250.307 83.4937 250.643 82.6937 250.888C81.9043 251.123 81.067 251.24 80.1817 251.24ZM87.0725 251V241.896H89.7445V248.84L88.9605 248.568L94.3845 241.896H97.2965L89.4725 251H87.0725ZM94.5125 251L91.7925 246.536L93.7605 245.016L97.5685 251H94.5125ZM101.791 242.824H104.463V251H101.791V242.824ZM98.1748 241.896H108.079V243.944H98.1748V241.896ZM109.783 241.8L111.111 242.056L112.455 241.8V251H109.783V241.8ZM111.111 240.856C110.631 240.856 110.236 240.734 109.927 240.488C109.628 240.232 109.479 239.896 109.479 239.48C109.479 239.054 109.628 238.718 109.927 238.472C110.236 238.216 110.631 238.088 111.111 238.088C111.601 238.088 111.996 238.216 112.295 238.472C112.593 238.718 112.743 239.054 112.743 239.48C112.743 239.896 112.593 240.232 112.295 240.488C111.996 240.734 111.601 240.856 111.111 240.856ZM114.726 251L115.238 246.456L114.726 241.896H121.734C122.609 241.896 123.302 242.104 123.814 242.52C124.326 242.926 124.582 243.48 124.582 244.184C124.582 244.846 124.326 245.384 123.814 245.8C123.302 246.206 122.587 246.446 121.67 246.52L121.862 246.072C122.929 246.104 123.739 246.328 124.294 246.744C124.859 247.15 125.142 247.72 125.142 248.456C125.142 249.246 124.854 249.87 124.278 250.328C123.713 250.776 122.934 251 121.942 251H114.726ZM117.302 250.408L116.278 249.272H121.126C121.585 249.272 121.921 249.182 122.134 249C122.347 248.808 122.454 248.542 122.454 248.2C122.454 247.891 122.337 247.64 122.102 247.448C121.867 247.246 121.483 247.144 120.95 247.144H116.822V245.624H120.598C121.046 245.624 121.371 245.534 121.574 245.352C121.787 245.171 121.894 244.926 121.894 244.616C121.894 244.328 121.798 244.094 121.606 243.912C121.425 243.731 121.126 243.64 120.71 243.64H116.294L117.302 242.504L117.798 246.456L117.302 250.408ZM35.8973 271L36.4093 266.456L35.8973 261.896H42.9053C43.7799 261.896 44.4733 262.104 44.9853 262.52C45.4973 262.926 45.7533 263.48 45.7533 264.184C45.7533 264.846 45.4973 265.384 44.9853 265.8C44.4733 266.206 43.7586 266.446 42.8413 266.52L43.0333 266.072C44.0999 266.104 44.9106 266.328 45.4653 266.744C46.0306 267.15 46.3133 267.72 46.3133 268.456C46.3133 269.246 46.0253 269.87 45.4493 270.328C44.8839 270.776 44.1053 271 43.1133 271H35.8973ZM38.4733 270.408L37.4493 269.272H42.2973C42.7559 269.272 43.0919 269.182 43.3053 269C43.5186 268.808 43.6253 268.542 43.6253 268.2C43.6253 267.891 43.5079 267.64 43.2733 267.448C43.0386 267.246 42.6546 267.144 42.1213 267.144H37.9933V265.624H41.7693C42.2173 265.624 42.5426 265.534 42.7453 265.352C42.9586 265.171 43.0653 264.926 43.0653 264.616C43.0653 264.328 42.9693 264.094 42.7773 263.912C42.5959 263.731 42.2973 263.64 41.8813 263.64H37.4653L38.4733 262.504L38.9693 266.456L38.4733 270.408ZM52.4778 267.08H55.2298C55.2938 267.486 55.4698 267.843 55.7578 268.152C56.0564 268.451 56.4511 268.686 56.9418 268.856C57.4431 269.016 58.0191 269.096 58.6698 269.096C59.6191 269.096 60.3658 268.963 60.9098 268.696C61.4644 268.419 61.7418 268.035 61.7418 267.544C61.7418 267.16 61.5818 266.867 61.2618 266.664C60.9524 266.451 60.3711 266.296 59.5178 266.2L57.1018 265.928C55.5444 265.758 54.4138 265.395 53.7098 264.84C53.0164 264.275 52.6698 263.491 52.6698 262.488C52.6698 261.699 52.8991 261.027 53.3578 260.472C53.8271 259.918 54.4831 259.496 55.3258 259.208C56.1684 258.91 57.1604 258.76 58.3018 258.76C59.4111 258.76 60.3978 258.926 61.2618 259.256C62.1258 259.576 62.8138 260.03 63.3258 260.616C63.8378 261.192 64.1151 261.87 64.1578 262.648H61.4058C61.3524 262.296 61.1924 261.992 60.9258 261.736C60.6698 261.47 60.3124 261.267 59.8538 261.128C59.3951 260.979 58.8564 260.904 58.2378 260.904C57.3738 260.904 56.6858 261.032 56.1738 261.288C55.6618 261.544 55.4058 261.907 55.4058 262.376C55.4058 262.739 55.5551 263.022 55.8538 263.224C56.1631 263.416 56.7018 263.56 57.4698 263.656L59.9818 263.96C61.0911 264.078 61.9711 264.27 62.6218 264.536C63.2831 264.792 63.7524 265.139 64.0298 265.576C64.3178 266.014 64.4618 266.568 64.4618 267.24C64.4618 268.04 64.2164 268.744 63.7258 269.352C63.2458 269.95 62.5684 270.414 61.6938 270.744C60.8191 271.075 59.7951 271.24 58.6218 271.24C57.4271 271.24 56.3764 271.07 55.4698 270.728C54.5631 270.376 53.8484 269.891 53.3258 269.272C52.8031 268.643 52.5204 267.912 52.4778 267.08ZM70.3704 271.24C69.5277 271.24 68.8077 271.07 68.2104 270.728C67.6237 270.376 67.1704 269.88 66.8504 269.24C66.5411 268.6 66.3864 267.843 66.3864 266.968V261.896H69.0584V266.568C69.0584 267.379 69.2504 267.998 69.6344 268.424C70.0184 268.84 70.5624 269.048 71.2664 269.048C71.7891 269.048 72.2317 268.942 72.5944 268.728C72.9677 268.504 73.2557 268.184 73.4584 267.768C73.6611 267.352 73.7624 266.867 73.7624 266.312L74.6264 266.776C74.5197 267.715 74.2691 268.52 73.8744 269.192C73.4797 269.854 72.9784 270.36 72.3704 270.712C71.7731 271.064 71.1064 271.24 70.3704 271.24ZM74.3224 271L73.7624 267.544V261.896H76.4344V267.944L76.9944 271H74.3224ZM79.0569 258.68H81.7289V264.792L81.3609 265.512V267.496L81.7289 268.232V271H79.0569V258.68ZM80.7849 266.456C80.9556 265.486 81.2702 264.643 81.7289 263.928C82.1876 263.203 82.7582 262.643 83.4409 262.248C84.1236 261.854 84.8916 261.656 85.7449 261.656C86.6302 261.656 87.4142 261.859 88.0969 262.264C88.7796 262.659 89.3129 263.219 89.6969 263.944C90.0809 264.659 90.2729 265.496 90.2729 266.456C90.2729 267.406 90.0809 268.243 89.6969 268.968C89.3129 269.683 88.7796 270.243 88.0969 270.648C87.4142 271.043 86.6302 271.24 85.7449 271.24C84.8916 271.24 84.1236 271.043 83.4409 270.648C82.7582 270.254 82.1876 269.699 81.7289 268.984C81.2809 268.259 80.9662 267.416 80.7849 266.456ZM87.5529 266.456C87.5529 265.923 87.4409 265.454 87.2169 265.048C87.0036 264.632 86.7049 264.312 86.3209 264.088C85.9369 263.854 85.4996 263.736 85.0089 263.736C84.5076 263.736 84.0329 263.854 83.5849 264.088C83.1369 264.312 82.7422 264.632 82.4009 265.048C82.0702 265.454 81.8089 265.923 81.6169 266.456C81.8089 266.99 82.0702 267.459 82.4009 267.864C82.7422 268.27 83.1369 268.59 83.5849 268.824C84.0329 269.048 84.5076 269.16 85.0089 269.16C85.4996 269.16 85.9369 269.048 86.3209 268.824C86.7049 268.59 87.0036 268.27 87.2169 267.864C87.4409 267.459 87.5529 266.99 87.5529 266.456ZM91.8549 261.896H94.5269L95.1029 265.368V271H92.4309V264.968L91.8549 261.896ZM98.3509 261.656C99.1616 261.656 99.8549 261.832 100.431 262.184C101.007 262.526 101.444 263.016 101.743 263.656C102.052 264.296 102.207 265.059 102.207 265.944V271H99.5349V266.344C99.5349 265.523 99.3536 264.904 98.9909 264.488C98.6389 264.062 98.1216 263.848 97.4389 263.848C96.9589 263.848 96.5429 263.966 96.1909 264.2C95.8389 264.424 95.5669 264.739 95.3749 265.144C95.1936 265.55 95.1029 266.035 95.1029 266.6L94.2229 266.136C94.3296 265.176 94.5749 264.366 94.9589 263.704C95.3429 263.043 95.8229 262.536 96.3989 262.184C96.9856 261.832 97.6362 261.656 98.3509 261.656ZM105.439 261.656C106.25 261.656 106.943 261.832 107.519 262.184C108.106 262.526 108.548 263.016 108.847 263.656C109.156 264.296 109.311 265.059 109.311 265.944V271H106.639V266.344C106.639 265.523 106.458 264.904 106.095 264.488C105.743 264.062 105.226 263.848 104.543 263.848C104.063 263.848 103.647 263.966 103.295 264.2C102.943 264.424 102.671 264.739 102.479 265.144C102.298 265.55 102.207 266.035 102.207 266.6L101.327 266.136C101.434 265.176 101.679 264.366 102.063 263.704C102.447 263.043 102.927 262.536 103.503 262.184C104.09 261.832 104.735 261.656 105.439 261.656ZM120.009 271L119.625 267.672L120.057 266.456L119.625 265.256L120.009 261.896H122.777L122.249 266.456L122.777 271H120.009ZM120.713 266.456C120.542 267.416 120.228 268.259 119.769 268.984C119.321 269.699 118.75 270.254 118.057 270.648C117.374 271.043 116.606 271.24 115.753 271.24C114.868 271.24 114.084 271.043 113.401 270.648C112.718 270.243 112.185 269.683 111.801 268.968C111.428 268.243 111.241 267.406 111.241 266.456C111.241 265.496 111.428 264.659 111.801 263.944C112.185 263.219 112.718 262.659 113.401 262.264C114.084 261.859 114.868 261.656 115.753 261.656C116.606 261.656 117.374 261.854 118.057 262.248C118.75 262.643 119.326 263.203 119.785 263.928C120.244 264.643 120.553 265.486 120.713 266.456ZM113.945 266.456C113.945 266.99 114.052 267.459 114.265 267.864C114.489 268.27 114.793 268.59 115.177 268.824C115.561 269.048 116.004 269.16 116.505 269.16C117.006 269.16 117.476 269.048 117.913 268.824C118.361 268.59 118.756 268.27 119.097 267.864C119.438 267.459 119.705 266.99 119.897 266.456C119.705 265.923 119.438 265.454 119.097 265.048C118.756 264.632 118.361 264.312 117.913 264.088C117.476 263.854 117.006 263.736 116.505 263.736C116.004 263.736 115.561 263.854 115.177 264.088C114.793 264.312 114.489 264.632 114.265 265.048C114.052 265.454 113.945 265.923 113.945 266.456ZM124.612 261.896H127.316L127.86 265.176V271H125.188V264.888L124.612 261.896ZM132.292 261.8V264.104C132.014 264.04 131.737 263.992 131.46 263.96C131.182 263.928 130.921 263.912 130.676 263.912C130.142 263.912 129.662 264.024 129.236 264.248C128.809 264.472 128.473 264.819 128.228 265.288C127.982 265.758 127.86 266.35 127.86 267.064L127.3 266.392C127.364 265.742 127.481 265.134 127.652 264.568C127.822 263.992 128.057 263.491 128.356 263.064C128.665 262.627 129.044 262.286 129.492 262.04C129.94 261.784 130.473 261.656 131.092 261.656C131.294 261.656 131.497 261.672 131.7 261.704C131.913 261.726 132.11 261.758 132.292 261.8ZM134.008 261.8L135.336 262.056L136.68 261.8V271H134.008V261.8ZM135.336 260.856C134.856 260.856 134.461 260.734 134.152 260.488C133.853 260.232 133.704 259.896 133.704 259.48C133.704 259.054 133.853 258.718 134.152 258.472C134.461 258.216 134.856 258.088 135.336 258.088C135.827 258.088 136.221 258.216 136.52 258.472C136.819 258.718 136.968 259.054 136.968 259.48C136.968 259.896 136.819 260.232 136.52 260.488C136.221 260.734 135.827 260.856 135.336 260.856ZM138.744 261.896H141.416L141.992 265.368V271H139.32V264.968L138.744 261.896ZM145.464 261.656C146.328 261.656 147.064 261.832 147.672 262.184C148.28 262.526 148.744 263.016 149.064 263.656C149.384 264.296 149.544 265.059 149.544 265.944V271H146.872V266.344C146.872 265.523 146.674 264.904 146.28 264.488C145.885 264.062 145.309 263.848 144.552 263.848C144.04 263.848 143.586 263.966 143.192 264.2C142.808 264.424 142.509 264.739 142.296 265.144C142.093 265.55 141.992 266.035 141.992 266.6L141.112 266.136C141.218 265.176 141.474 264.366 141.88 263.704C142.285 263.043 142.797 262.536 143.416 262.184C144.034 261.832 144.717 261.656 145.464 261.656ZM157.042 271.24C155.964 271.24 154.999 271.043 154.146 270.648C153.303 270.243 152.636 269.678 152.146 268.952C151.666 268.227 151.426 267.384 151.426 266.424C151.426 265.475 151.655 264.643 152.114 263.928C152.583 263.214 153.223 262.659 154.034 262.264C154.844 261.859 155.767 261.656 156.802 261.656C157.858 261.656 158.764 261.891 159.522 262.36C160.279 262.819 160.86 263.47 161.266 264.312C161.682 265.155 161.89 266.147 161.89 267.288H153.57V265.512H160.45L159.41 266.152C159.367 265.619 159.234 265.166 159.01 264.792C158.796 264.419 158.503 264.131 158.13 263.928C157.756 263.726 157.319 263.624 156.818 263.624C156.274 263.624 155.799 263.736 155.394 263.96C154.999 264.174 154.69 264.478 154.466 264.872C154.252 265.256 154.146 265.71 154.146 266.232C154.146 266.862 154.284 267.4 154.562 267.848C154.839 268.296 155.244 268.638 155.778 268.872C156.311 269.107 156.956 269.224 157.714 269.224C158.396 269.224 159.084 269.128 159.778 268.936C160.471 268.734 161.095 268.451 161.65 268.088V269.88C161.052 270.307 160.354 270.643 159.554 270.888C158.764 271.123 157.927 271.24 157.042 271.24ZM165.405 271.144C164.957 271.144 164.583 271 164.285 270.712C163.997 270.424 163.853 270.062 163.853 269.624C163.853 269.187 163.997 268.824 164.285 268.536C164.583 268.248 164.957 268.104 165.405 268.104C165.863 268.104 166.237 268.248 166.525 268.536C166.823 268.824 166.973 269.187 166.973 269.624C166.973 270.062 166.823 270.424 166.525 270.712C166.237 271 165.863 271.144 165.405 271.144ZM165.405 265.48C164.957 265.48 164.583 265.336 164.285 265.048C163.997 264.76 163.853 264.398 163.853 263.96C163.853 263.523 163.997 263.16 164.285 262.872C164.583 262.584 164.957 262.44 165.405 262.44C165.863 262.44 166.237 262.584 166.525 262.872C166.823 263.16 166.973 263.523 166.973 263.96C166.973 264.398 166.823 264.76 166.525 265.048C166.237 265.336 165.863 265.48 165.405 265.48Z" fill="white"/>
<path d="M257.385 204.224C257.951 204.491 258.399 204.864 258.729 205.344C259.071 205.814 259.241 206.352 259.241 206.96C259.241 207.974 258.884 208.768 258.169 209.344C257.455 209.91 256.564 210.192 255.497 210.192C254.431 210.192 253.54 209.91 252.825 209.344C252.111 208.768 251.753 207.974 251.753 206.96C251.753 206.352 251.919 205.814 252.249 205.344C252.591 204.864 253.044 204.491 253.609 204.224C252.617 203.659 252.121 202.822 252.121 201.712C252.121 200.71 252.452 199.942 253.113 199.408C253.785 198.875 254.58 198.608 255.497 198.608C256.415 198.608 257.204 198.875 257.865 199.408C258.537 199.942 258.873 200.71 258.873 201.712C258.873 202.822 258.377 203.659 257.385 204.224ZM257.097 200.192C256.671 199.862 256.137 199.696 255.497 199.696C254.857 199.696 254.319 199.862 253.881 200.192C253.455 200.523 253.241 201.03 253.241 201.712C253.241 202.352 253.46 202.848 253.897 203.2C254.345 203.552 254.879 203.728 255.497 203.728C256.116 203.728 256.644 203.552 257.081 203.2C257.529 202.848 257.753 202.352 257.753 201.712C257.753 201.03 257.535 200.523 257.097 200.192ZM253.593 208.56C254.073 208.923 254.708 209.104 255.497 209.104C256.287 209.104 256.921 208.923 257.401 208.56C257.881 208.187 258.121 207.654 258.121 206.96C258.121 206.267 257.881 205.739 257.401 205.376C256.921 205.003 256.287 204.816 255.497 204.816C254.708 204.816 254.073 205.003 253.593 205.376C253.113 205.739 252.873 206.267 252.873 206.96C252.873 207.654 253.113 208.187 253.593 208.56ZM268.039 203.888V204.912H265.191V207.76H264.167V204.912H261.319V203.888H264.167V201.04H265.191V203.888H268.039Z" fill="white"/>
<path d="M39.1613 307L41.2253 303.432H41.2573L46.1213 295H49.0653L42.1053 307H39.1613ZM41.2253 305.256L35.2413 295H38.2333L43.0973 303.368L41.2253 305.256ZM49.9662 297.896H59.3742V307H56.7022V298.696L57.9342 299.912H51.2942L52.4462 298.92C52.4995 299.571 52.5422 300.174 52.5742 300.728C52.6168 301.272 52.6382 301.763 52.6382 302.2C52.6382 303.95 52.3768 305.219 51.8542 306.008C51.3422 306.798 50.5102 307.192 49.3582 307.192C49.0382 307.192 48.7288 307.155 48.4302 307.08C48.1422 307.016 47.8595 306.904 47.5822 306.744V304.808C47.7742 304.883 47.9608 304.942 48.1422 304.984C48.3342 305.016 48.5102 305.032 48.6702 305.032C49.2142 305.032 49.6035 304.787 49.8382 304.296C50.0835 303.795 50.2062 302.974 50.2062 301.832C50.2062 301.32 50.1848 300.734 50.1422 300.072C50.1102 299.411 50.0515 298.686 49.9662 297.896ZM71.6705 307.24C70.5505 307.24 69.5692 307.043 68.7265 306.648C67.8839 306.243 67.2279 305.683 66.7585 304.968C66.2999 304.243 66.0705 303.406 66.0705 302.456C66.0705 301.496 66.2999 300.659 66.7585 299.944C67.2279 299.219 67.8839 298.659 68.7265 298.264C69.5692 297.859 70.5505 297.656 71.6705 297.656C72.7905 297.656 73.7719 297.859 74.6145 298.264C75.4572 298.659 76.1132 299.219 76.5825 299.944C77.0519 300.659 77.2865 301.496 77.2865 302.456C77.2865 303.406 77.0519 304.243 76.5825 304.968C76.1132 305.683 75.4572 306.243 74.6145 306.648C73.7719 307.043 72.7905 307.24 71.6705 307.24ZM61.8625 307V297.896H64.5345V307H61.8625ZM63.3665 303.368V301.368H67.7665V303.368H63.3665ZM71.6705 305.208C72.2785 305.208 72.7959 305.096 73.2225 304.872C73.6599 304.648 73.9959 304.334 74.2305 303.928C74.4652 303.512 74.5825 303.022 74.5825 302.456C74.5825 301.88 74.4652 301.39 74.2305 300.984C73.9959 300.568 73.6599 300.248 73.2225 300.024C72.7959 299.8 72.2785 299.688 71.6705 299.688C71.0732 299.688 70.5559 299.8 70.1185 300.024C69.6812 300.248 69.3452 300.568 69.1105 300.984C68.8759 301.39 68.7585 301.88 68.7585 302.456C68.7585 303.022 68.8759 303.512 69.1105 303.928C69.3452 304.334 69.6812 304.648 70.1185 304.872C70.5559 305.096 71.0732 305.208 71.6705 305.208ZM84.8953 307.24C83.6473 307.24 82.5806 307.006 81.6953 306.536C80.8099 306.056 80.1326 305.368 79.6633 304.472C79.1939 303.576 78.9593 302.494 78.9593 301.224C78.9593 299.336 79.4659 297.848 80.4793 296.76C81.4926 295.672 82.9433 295.048 84.8313 294.888C85.5993 294.824 86.2339 294.771 86.7353 294.728C87.2366 294.686 87.6473 294.643 87.9673 294.6C88.2979 294.547 88.5753 294.494 88.7993 294.44C89.0233 294.376 89.2419 294.307 89.4553 294.232V296.456C89.2313 296.542 88.9433 296.622 88.5913 296.696C88.2499 296.76 87.8126 296.814 87.2793 296.856C86.7566 296.899 86.1113 296.942 85.3433 296.984C83.9459 297.048 82.9059 297.432 82.2233 298.136C81.5406 298.84 81.1993 299.854 81.1993 301.176V301.608L81.1033 301.416C81.3166 300.84 81.6419 300.344 82.0793 299.928C82.5166 299.512 83.0393 299.198 83.6473 298.984C84.2659 298.76 84.9326 298.648 85.6473 298.648C86.5753 298.648 87.3859 298.824 88.0793 299.176C88.7726 299.518 89.3113 300.003 89.6953 300.632C90.0899 301.262 90.2873 301.998 90.2873 302.84C90.2873 303.726 90.0633 304.499 89.6153 305.16C89.1673 305.822 88.5379 306.334 87.7273 306.696C86.9273 307.059 85.9833 307.24 84.8953 307.24ZM84.9593 305.208C85.4926 305.208 85.9566 305.112 86.3513 304.92C86.7459 304.728 87.0499 304.456 87.2633 304.104C87.4766 303.752 87.5833 303.342 87.5833 302.872C87.5833 302.403 87.4766 301.998 87.2633 301.656C87.0499 301.304 86.7459 301.032 86.3513 300.84C85.9566 300.648 85.4926 300.552 84.9593 300.552C84.2233 300.552 83.5726 300.75 83.0073 301.144C82.4419 301.528 82.0153 302.067 81.7273 302.76C81.8979 303.507 82.2713 304.104 82.8473 304.552C83.4339 304.99 84.1379 305.208 84.9593 305.208ZM93.6718 297.896H103.08V307H100.408V298.696L101.64 299.912H94.9998L96.1518 298.92C96.2051 299.571 96.2478 300.174 96.2798 300.728C96.3224 301.272 96.3438 301.763 96.3438 302.2C96.3438 303.95 96.0824 305.219 95.5598 306.008C95.0478 306.798 94.2158 307.192 93.0638 307.192C92.7438 307.192 92.4344 307.155 92.1358 307.08C91.8478 307.016 91.5651 306.904 91.2878 306.744V304.808C91.4798 304.883 91.6664 304.942 91.8478 304.984C92.0398 305.016 92.2158 305.032 92.3758 305.032C92.9198 305.032 93.3091 304.787 93.5438 304.296C93.7891 303.795 93.9118 302.974 93.9118 301.832C93.9118 301.32 93.8904 300.734 93.8478 300.072C93.8158 299.411 93.7571 298.686 93.6718 297.896ZM110.704 307.24C109.627 307.24 108.661 307.043 107.808 306.648C106.965 306.243 106.299 305.678 105.808 304.952C105.328 304.227 105.088 303.384 105.088 302.424C105.088 301.475 105.317 300.643 105.776 299.928C106.245 299.214 106.885 298.659 107.696 298.264C108.507 297.859 109.429 297.656 110.464 297.656C111.52 297.656 112.427 297.891 113.184 298.36C113.941 298.819 114.523 299.47 114.928 300.312C115.344 301.155 115.552 302.147 115.552 303.288H107.232V301.512H114.112L113.072 302.152C113.029 301.619 112.896 301.166 112.672 300.792C112.459 300.419 112.165 300.131 111.792 299.928C111.419 299.726 110.981 299.624 110.48 299.624C109.936 299.624 109.461 299.736 109.056 299.96C108.661 300.174 108.352 300.478 108.128 300.872C107.915 301.256 107.808 301.71 107.808 302.232C107.808 302.862 107.947 303.4 108.224 303.848C108.501 304.296 108.907 304.638 109.44 304.872C109.973 305.107 110.619 305.224 111.376 305.224C112.059 305.224 112.747 305.128 113.44 304.936C114.133 304.734 114.757 304.451 115.312 304.088V305.88C114.715 306.307 114.016 306.643 113.216 306.888C112.427 307.123 111.589 307.24 110.704 307.24ZM117.595 297.896H120.251V307H117.595V297.896ZM125.227 297.896H127.883V307H125.227V297.896ZM119.115 301.352H126.267V303.368H119.115V301.352ZM130.372 297.8L131.7 298.056L133.044 297.8V307H130.372V297.8ZM131.7 296.856C131.22 296.856 130.825 296.734 130.516 296.488C130.217 296.232 130.068 295.896 130.068 295.48C130.068 295.054 130.217 294.718 130.516 294.472C130.825 294.216 131.22 294.088 131.7 294.088C132.191 294.088 132.585 294.216 132.884 294.472C133.183 294.718 133.332 295.054 133.332 295.48C133.332 295.896 133.183 296.232 132.884 296.488C132.585 296.734 132.191 296.856 131.7 296.856ZM150.337 297.896V307H147.665V298.696L148.897 299.912H141.553L142.785 298.696V307H140.113V297.896H150.337ZM152.828 297.896H155.5V300.792L155.388 301.144V303.336L155.5 303.992V309.64H152.828V297.896ZM154.572 302.456C154.753 301.486 155.068 300.643 155.516 299.928C155.974 299.203 156.545 298.643 157.228 298.248C157.921 297.854 158.689 297.656 159.532 297.656C160.428 297.656 161.212 297.859 161.884 298.264C162.566 298.659 163.1 299.219 163.484 299.944C163.868 300.659 164.06 301.496 164.06 302.456C164.06 303.406 163.868 304.243 163.484 304.968C163.1 305.683 162.566 306.243 161.884 306.648C161.212 307.043 160.428 307.24 159.532 307.24C158.678 307.24 157.91 307.043 157.228 306.648C156.556 306.254 155.99 305.699 155.532 304.984C155.073 304.259 154.753 303.416 154.572 302.456ZM161.356 302.456C161.356 301.923 161.244 301.454 161.02 301.048C160.806 300.632 160.508 300.312 160.124 300.088C159.74 299.854 159.297 299.736 158.796 299.736C158.294 299.736 157.82 299.854 157.372 300.088C156.924 300.312 156.529 300.632 156.188 301.048C155.857 301.454 155.596 301.923 155.404 302.456C155.596 302.99 155.857 303.459 156.188 303.864C156.529 304.27 156.924 304.59 157.372 304.824C157.82 305.048 158.294 305.16 158.796 305.16C159.297 305.16 159.74 305.048 160.124 304.824C160.508 304.59 160.806 304.27 161.02 303.864C161.244 303.459 161.356 302.99 161.356 302.456ZM171.32 307.24C170.19 307.24 169.198 307.043 168.344 306.648C167.491 306.243 166.824 305.683 166.344 304.968C165.864 304.243 165.624 303.406 165.624 302.456C165.624 301.496 165.864 300.659 166.344 299.944C166.824 299.219 167.491 298.659 168.344 298.264C169.198 297.859 170.19 297.656 171.32 297.656C172.451 297.656 173.443 297.859 174.296 298.264C175.15 298.659 175.811 299.219 176.28 299.944C176.76 300.659 177 301.496 177 302.456C177 303.406 176.76 304.243 176.28 304.968C175.811 305.683 175.15 306.243 174.296 306.648C173.443 307.043 172.451 307.24 171.32 307.24ZM171.32 305.208C171.939 305.208 172.467 305.096 172.904 304.872C173.352 304.648 173.694 304.334 173.928 303.928C174.174 303.512 174.296 303.022 174.296 302.456C174.296 301.88 174.174 301.39 173.928 300.984C173.694 300.568 173.352 300.248 172.904 300.024C172.467 299.8 171.939 299.688 171.32 299.688C170.712 299.688 170.184 299.8 169.736 300.024C169.288 300.248 168.942 300.568 168.696 300.984C168.462 301.39 168.344 301.88 168.344 302.456C168.344 303.022 168.462 303.512 168.696 303.928C168.942 304.334 169.288 304.648 169.736 304.872C170.184 305.096 170.712 305.208 171.32 305.208ZM184.174 307.24C183.096 307.24 182.131 307.043 181.278 306.648C180.435 306.243 179.768 305.678 179.278 304.952C178.798 304.227 178.558 303.384 178.558 302.424C178.558 301.475 178.787 300.643 179.246 299.928C179.715 299.214 180.355 298.659 181.166 298.264C181.976 297.859 182.899 297.656 183.934 297.656C184.99 297.656 185.896 297.891 186.654 298.36C187.411 298.819 187.992 299.47 188.398 300.312C188.814 301.155 189.022 302.147 189.022 303.288H180.702V301.512H187.582L186.542 302.152C186.499 301.619 186.366 301.166 186.142 300.792C185.928 300.419 185.635 300.131 185.262 299.928C184.888 299.726 184.451 299.624 183.95 299.624C183.406 299.624 182.931 299.736 182.526 299.96C182.131 300.174 181.822 300.478 181.598 300.872C181.384 301.256 181.278 301.71 181.278 302.232C181.278 302.862 181.416 303.4 181.694 303.848C181.971 304.296 182.376 304.638 182.91 304.872C183.443 305.107 184.088 305.224 184.846 305.224C185.528 305.224 186.216 305.128 186.91 304.936C187.603 304.734 188.227 304.451 188.782 304.088V305.88C188.184 306.307 187.486 306.643 186.686 306.888C185.896 307.123 185.059 307.24 184.174 307.24ZM191.064 307V297.896H193.736V304.84L192.952 304.568L198.376 297.896H201.288L193.464 307H191.064ZM198.504 307L195.784 302.536L197.752 301.016L201.56 307H198.504ZM205.783 298.824H208.455V307H205.783V298.824ZM202.167 297.896H212.071V299.944H202.167V297.896ZM213.774 307V297.896H216.398V305.592L215.742 305.416L221.23 297.896H224.67V307H222.046V299.16L222.702 299.352L217.118 307H213.774ZM228.633 307.144C228.185 307.144 227.811 307 227.513 306.712C227.225 306.424 227.081 306.062 227.081 305.624C227.081 305.187 227.225 304.824 227.513 304.536C227.811 304.248 228.185 304.104 228.633 304.104C229.091 304.104 229.465 304.248 229.753 304.536C230.051 304.824 230.201 305.187 230.201 305.624C230.201 306.062 230.051 306.424 229.753 306.712C229.465 307 229.091 307.144 228.633 307.144ZM228.633 301.48C228.185 301.48 227.811 301.336 227.513 301.048C227.225 300.76 227.081 300.398 227.081 299.96C227.081 299.523 227.225 299.16 227.513 298.872C227.811 298.584 228.185 298.44 228.633 298.44C229.091 298.44 229.465 298.584 229.753 298.872C230.051 299.16 230.201 299.523 230.201 299.96C230.201 300.398 230.051 300.76 229.753 301.048C229.465 301.336 229.091 301.48 228.633 301.48Z" fill="white"/>
<path d="M258.601 300.192C259.145 300.427 259.577 300.784 259.897 301.264C260.228 301.734 260.393 302.272 260.393 302.88C260.393 303.744 260.089 304.48 259.481 305.088C258.873 305.696 258.137 306 257.273 306H252.393V294.8H256.905C257.737 294.8 258.447 295.099 259.033 295.696C259.62 296.283 259.913 296.987 259.913 297.808C259.913 298.854 259.476 299.648 258.601 300.192ZM256.905 295.856H253.513V299.76H256.905C257.428 299.76 257.871 299.574 258.233 299.2C258.607 298.816 258.793 298.352 258.793 297.808C258.793 297.275 258.607 296.816 258.233 296.432C257.871 296.048 257.428 295.856 256.905 295.856ZM257.273 304.944C257.828 304.944 258.297 304.747 258.681 304.352C259.076 303.947 259.273 303.456 259.273 302.88C259.273 302.315 259.076 301.83 258.681 301.424C258.297 301.019 257.828 300.816 257.273 300.816H253.513V304.944H257.273ZM269.515 298H270.571V306H269.515V304.432C268.779 305.606 267.702 306.192 266.283 306.192C265.142 306.192 264.166 305.787 263.355 304.976C262.555 304.166 262.155 303.174 262.155 302C262.155 300.827 262.555 299.835 263.355 299.024C264.166 298.214 265.142 297.808 266.283 297.808C267.702 297.808 268.779 298.395 269.515 299.568V298ZM264.123 304.256C264.731 304.864 265.478 305.168 266.363 305.168C267.248 305.168 267.995 304.864 268.603 304.256C269.211 303.638 269.515 302.886 269.515 302C269.515 301.115 269.211 300.368 268.603 299.76C267.995 299.142 267.248 298.832 266.363 298.832C265.478 298.832 264.731 299.142 264.123 299.76C263.515 300.368 263.211 301.115 263.211 302C263.211 302.886 263.515 303.638 264.123 304.256ZM274.343 299.328C274.834 298.358 275.676 297.872 276.871 297.872V298.896C276.146 298.896 275.543 299.11 275.063 299.536C274.583 299.963 274.343 300.635 274.343 301.552V306H273.287V298H274.343V299.328ZM283.086 297.808C284.228 297.808 285.198 298.214 285.998 299.024C286.809 299.835 287.214 300.827 287.214 302C287.214 303.174 286.809 304.166 285.998 304.976C285.198 305.787 284.228 306.192 283.086 306.192C281.668 306.192 280.59 305.606 279.854 304.432V306H278.798V294.8H279.854V299.568C280.59 298.395 281.668 297.808 283.086 297.808ZM280.766 304.256C281.374 304.864 282.121 305.168 283.006 305.168C283.892 305.168 284.638 304.864 285.246 304.256C285.854 303.638 286.158 302.886 286.158 302C286.158 301.115 285.854 300.368 285.246 299.76C284.638 299.142 283.892 298.832 283.006 298.832C282.121 298.832 281.374 299.142 280.766 299.76C280.158 300.368 279.854 301.115 279.854 302C279.854 302.886 280.158 303.638 280.766 304.256ZM293.146 297.808C294.33 297.808 295.285 298.23 296.01 299.072C296.746 299.904 297.114 300.891 297.114 302.032C297.114 302.15 297.103 302.315 297.082 302.528H290.058C290.165 303.339 290.506 303.984 291.082 304.464C291.669 304.934 292.389 305.168 293.242 305.168C293.85 305.168 294.373 305.046 294.81 304.8C295.258 304.544 295.594 304.214 295.818 303.808L296.746 304.352C296.394 304.918 295.914 305.366 295.306 305.696C294.698 306.027 294.005 306.192 293.226 306.192C291.967 306.192 290.943 305.798 290.154 305.008C289.365 304.219 288.97 303.216 288.97 302C288.97 300.806 289.359 299.808 290.138 299.008C290.917 298.208 291.919 297.808 293.146 297.808ZM293.146 298.832C292.314 298.832 291.615 299.083 291.05 299.584C290.495 300.075 290.165 300.715 290.058 301.504H296.026C295.919 300.662 295.594 300.006 295.05 299.536C294.506 299.067 293.871 298.832 293.146 298.832ZM300.33 299.328C300.821 298.358 301.663 297.872 302.858 297.872V298.896C302.133 298.896 301.53 299.11 301.05 299.536C300.57 299.963 300.33 300.635 300.33 301.552V306H299.274V298H300.33V299.328ZM255.961 326.192C254.756 326.192 253.753 325.792 252.953 324.992C252.153 324.182 251.753 323.184 251.753 322C251.753 320.816 252.153 319.824 252.953 319.024C253.753 318.214 254.756 317.808 255.961 317.808C256.751 317.808 257.46 318 258.089 318.384C258.719 318.758 259.177 319.264 259.465 319.904L258.601 320.4C258.388 319.92 258.041 319.542 257.561 319.264C257.092 318.976 256.559 318.832 255.961 318.832C255.076 318.832 254.329 319.142 253.721 319.76C253.113 320.368 252.809 321.115 252.809 322C252.809 322.886 253.113 323.638 253.721 324.256C254.329 324.864 255.076 325.168 255.961 325.168C256.559 325.168 257.092 325.03 257.561 324.752C258.031 324.464 258.399 324.08 258.665 323.6L259.545 324.112C259.215 324.752 258.729 325.259 258.089 325.632C257.449 326.006 256.74 326.192 255.961 326.192ZM268.167 324.992C267.357 325.792 266.365 326.192 265.191 326.192C264.018 326.192 263.021 325.792 262.199 324.992C261.389 324.182 260.983 323.184 260.983 322C260.983 320.816 261.389 319.824 262.199 319.024C263.021 318.214 264.018 317.808 265.191 317.808C266.365 317.808 267.357 318.214 268.167 319.024C268.989 319.824 269.399 320.816 269.399 322C269.399 323.184 268.989 324.182 268.167 324.992ZM262.951 324.256C263.559 324.864 264.306 325.168 265.191 325.168C266.077 325.168 266.823 324.864 267.431 324.256C268.039 323.638 268.343 322.886 268.343 322C268.343 321.115 268.039 320.368 267.431 319.76C266.823 319.142 266.077 318.832 265.191 318.832C264.306 318.832 263.559 319.142 262.951 319.76C262.343 320.368 262.039 321.115 262.039 322C262.039 322.886 262.343 323.638 262.951 324.256ZM280.174 317.808C281.07 317.808 281.79 318.096 282.334 318.672C282.889 319.248 283.166 320.027 283.166 321.008V326H282.11V321.008C282.11 320.315 281.929 319.782 281.566 319.408C281.214 319.024 280.745 318.832 280.158 318.832C279.497 318.832 278.958 319.056 278.542 319.504C278.137 319.942 277.934 320.63 277.934 321.568V326H276.878V321.008C276.878 320.304 276.708 319.766 276.366 319.392C276.036 319.019 275.582 318.832 275.006 318.832C274.366 318.832 273.822 319.056 273.374 319.504C272.926 319.952 272.702 320.64 272.702 321.568V326H271.646V318H272.702V319.168C273.278 318.262 274.094 317.808 275.15 317.808C276.302 317.808 277.113 318.294 277.582 319.264C278.158 318.294 279.022 317.808 280.174 317.808ZM289.977 317.808C291.118 317.808 292.089 318.214 292.889 319.024C293.7 319.835 294.105 320.827 294.105 322C294.105 323.174 293.7 324.166 292.889 324.976C292.089 325.787 291.118 326.192 289.977 326.192C288.558 326.192 287.481 325.606 286.745 324.432V329.2H285.689V318H286.745V319.568C287.481 318.395 288.558 317.808 289.977 317.808ZM287.657 324.256C288.265 324.864 289.012 325.168 289.897 325.168C290.782 325.168 291.529 324.864 292.137 324.256C292.745 323.638 293.049 322.886 293.049 322C293.049 321.115 292.745 320.368 292.137 319.76C291.529 319.142 290.782 318.832 289.897 318.832C289.012 318.832 288.265 319.142 287.657 319.76C287.049 320.368 286.745 321.115 286.745 322C286.745 322.886 287.049 323.638 287.657 324.256ZM303.221 318H304.277V326H303.221V324.432C302.485 325.606 301.407 326.192 299.989 326.192C298.847 326.192 297.871 325.787 297.061 324.976C296.261 324.166 295.861 323.174 295.861 322C295.861 320.827 296.261 319.835 297.061 319.024C297.871 318.214 298.847 317.808 299.989 317.808C301.407 317.808 302.485 318.395 303.221 319.568V318ZM297.829 324.256C298.437 324.864 299.183 325.168 300.069 325.168C300.954 325.168 301.701 324.864 302.309 324.256C302.917 323.638 303.221 322.886 303.221 322C303.221 321.115 302.917 320.368 302.309 319.76C301.701 319.142 300.954 318.832 300.069 318.832C299.183 318.832 298.437 319.142 297.829 319.76C297.221 320.368 296.917 321.115 296.917 322C296.917 322.886 297.221 323.638 297.829 324.256ZM310.737 317.808C311.707 317.808 312.47 318.107 313.025 318.704C313.59 319.291 313.873 320.086 313.873 321.088V326H312.817V321.088C312.817 320.374 312.625 319.819 312.241 319.424C311.867 319.03 311.334 318.832 310.641 318.832C309.873 318.832 309.249 319.078 308.769 319.568C308.289 320.048 308.049 320.795 308.049 321.808V326H306.993V318H308.049V319.248C308.646 318.288 309.542 317.808 310.737 317.808ZM321.998 318H323.118L319.694 326.736C319.385 327.526 318.942 328.144 318.366 328.592C317.801 329.051 317.166 329.254 316.462 329.2V328.208C317.422 328.315 318.153 327.76 318.654 326.544L318.862 326.048L315.278 318H316.398L319.406 324.704L321.998 318ZM325.197 324.64L324.237 328.24H323.277L323.917 324.64H325.197ZM337.633 326.192C335.937 326.192 334.534 325.632 333.425 324.512C332.315 323.392 331.761 322.022 331.761 320.4C331.761 318.779 332.315 317.408 333.425 316.288C334.534 315.168 335.937 314.608 337.633 314.608C338.667 314.608 339.617 314.859 340.481 315.36C341.345 315.851 342.011 316.518 342.481 317.36L341.489 317.936C341.137 317.254 340.614 316.71 339.921 316.304C339.227 315.899 338.465 315.696 337.633 315.696C336.235 315.696 335.094 316.15 334.209 317.056C333.323 317.963 332.881 319.078 332.881 320.4C332.881 321.723 333.323 322.838 334.209 323.744C335.094 324.651 336.235 325.104 337.633 325.104C338.465 325.104 339.227 324.902 339.921 324.496C340.614 324.091 341.137 323.547 341.489 322.864L342.481 323.424C342.022 324.267 341.355 324.939 340.481 325.44C339.617 325.942 338.667 326.192 337.633 326.192ZM345.699 319.328C346.189 318.358 347.032 317.872 348.227 317.872V318.896C347.501 318.896 346.899 319.11 346.419 319.536C345.939 319.963 345.699 320.635 345.699 321.552V326H344.643V318H345.699V319.328ZM353.366 317.808C354.55 317.808 355.504 318.23 356.23 319.072C356.966 319.904 357.334 320.891 357.334 322.032C357.334 322.15 357.323 322.315 357.302 322.528H350.278C350.384 323.339 350.726 323.984 351.302 324.464C351.888 324.934 352.608 325.168 353.462 325.168C354.07 325.168 354.592 325.046 355.03 324.8C355.478 324.544 355.814 324.214 356.038 323.808L356.966 324.352C356.614 324.918 356.134 325.366 355.526 325.696C354.918 326.027 354.224 326.192 353.446 326.192C352.187 326.192 351.163 325.798 350.374 325.008C349.584 324.219 349.19 323.216 349.19 322C349.19 320.806 349.579 319.808 350.358 319.008C351.136 318.208 352.139 317.808 353.366 317.808ZM353.366 318.832C352.534 318.832 351.835 319.083 351.27 319.584C350.715 320.075 350.384 320.715 350.278 321.504H356.246C356.139 320.662 355.814 320.006 355.27 319.536C354.726 319.067 354.091 318.832 353.366 318.832ZM366.373 318H367.429V326H366.373V324.432C365.637 325.606 364.56 326.192 363.141 326.192C362 326.192 361.024 325.787 360.213 324.976C359.413 324.166 359.013 323.174 359.013 322C359.013 320.827 359.413 319.835 360.213 319.024C361.024 318.214 362 317.808 363.141 317.808C364.56 317.808 365.637 318.395 366.373 319.568V318ZM360.981 324.256C361.589 324.864 362.336 325.168 363.221 325.168C364.107 325.168 364.853 324.864 365.461 324.256C366.069 323.638 366.373 322.886 366.373 322C366.373 321.115 366.069 320.368 365.461 319.76C364.853 319.142 364.107 318.832 363.221 318.832C362.336 318.832 361.589 319.142 360.981 319.76C360.373 320.368 360.069 321.115 360.069 322C360.069 322.886 360.373 323.638 360.981 324.256ZM378.673 317.808C379.569 317.808 380.289 318.096 380.833 318.672C381.388 319.248 381.665 320.027 381.665 321.008V326H380.609V321.008C380.609 320.315 380.428 319.782 380.065 319.408C379.713 319.024 379.244 318.832 378.657 318.832C377.996 318.832 377.457 319.056 377.041 319.504C376.636 319.942 376.433 320.63 376.433 321.568V326H375.377V321.008C375.377 320.304 375.206 319.766 374.865 319.392C374.534 319.019 374.081 318.832 373.505 318.832C372.865 318.832 372.321 319.056 371.873 319.504C371.425 319.952 371.201 320.64 371.201 321.568V326H370.145V318H371.201V319.168C371.777 318.262 372.593 317.808 373.649 317.808C374.801 317.808 375.612 318.294 376.081 319.264C376.657 318.294 377.521 317.808 378.673 317.808ZM385.948 324.64L384.988 328.24H384.028L384.668 324.64H385.948ZM257.321 341.888C258.196 342.208 258.633 342.832 258.633 343.76C258.633 344.411 258.415 344.95 257.977 345.376C257.551 345.792 256.932 346 256.121 346H252.233V338H255.801C256.58 338 257.183 338.203 257.609 338.608C258.036 339.003 258.249 339.515 258.249 340.144C258.249 340.944 257.94 341.526 257.321 341.888ZM255.801 339.024H253.289V341.456H255.801C256.729 341.456 257.193 341.04 257.193 340.208C257.193 339.835 257.071 339.547 256.825 339.344C256.591 339.131 256.249 339.024 255.801 339.024ZM256.121 344.976C256.591 344.976 256.948 344.864 257.193 344.64C257.449 344.416 257.577 344.102 257.577 343.696C257.577 343.323 257.449 343.03 257.193 342.816C256.948 342.592 256.591 342.48 256.121 342.48H253.289V344.976H256.121ZM261.785 336.08C261.636 336.23 261.455 336.304 261.241 336.304C261.028 336.304 260.847 336.23 260.697 336.08C260.548 335.931 260.473 335.75 260.473 335.536C260.473 335.323 260.548 335.142 260.697 334.992C260.847 334.843 261.028 334.768 261.241 334.768C261.455 334.768 261.636 334.843 261.785 334.992C261.935 335.142 262.009 335.323 262.009 335.536C262.009 335.75 261.935 335.931 261.785 336.08ZM260.713 346V338H261.769V346H260.713ZM271.21 344.976H272.33V348.144H271.274V346H264.746V348.144H263.69V344.976H264.666C265.21 344.262 265.482 343.254 265.482 341.952V338H271.21V344.976ZM265.946 344.976H270.154V339.024H266.538V341.952C266.538 343.179 266.341 344.187 265.946 344.976ZM277.791 337.808C278.975 337.808 279.93 338.23 280.655 339.072C281.391 339.904 281.759 340.891 281.759 342.032C281.759 342.15 281.748 342.315 281.727 342.528H274.703C274.81 343.339 275.151 343.984 275.727 344.464C276.314 344.934 277.034 345.168 277.887 345.168C278.495 345.168 279.018 345.046 279.455 344.8C279.903 344.544 280.239 344.214 280.463 343.808L281.391 344.352C281.039 344.918 280.559 345.366 279.951 345.696C279.343 346.027 278.65 346.192 277.871 346.192C276.612 346.192 275.588 345.798 274.799 345.008C274.01 344.219 273.615 343.216 273.615 342C273.615 340.806 274.004 339.808 274.783 339.008C275.562 338.208 276.564 337.808 277.791 337.808ZM277.791 338.832C276.959 338.832 276.26 339.083 275.695 339.584C275.14 340.075 274.81 340.715 274.703 341.504H280.671C280.564 340.662 280.239 340.006 279.695 339.536C279.151 339.067 278.516 338.832 277.791 338.832ZM290.623 344.992C289.812 345.792 288.82 346.192 287.647 346.192C286.474 346.192 285.476 345.792 284.655 344.992C283.844 344.182 283.439 343.184 283.439 342C283.439 340.816 283.844 339.824 284.655 339.024C285.476 338.214 286.474 337.808 287.647 337.808C288.82 337.808 289.812 338.214 290.623 339.024C291.444 339.824 291.855 340.816 291.855 342C291.855 343.184 291.444 344.182 290.623 344.992ZM285.407 344.256C286.015 344.864 286.762 345.168 287.647 345.168C288.532 345.168 289.279 344.864 289.887 344.256C290.495 343.638 290.799 342.886 290.799 342C290.799 341.115 290.495 340.368 289.887 339.76C289.279 339.142 288.532 338.832 287.647 338.832C286.762 338.832 286.015 339.142 285.407 339.76C284.799 340.368 284.495 341.115 284.495 342C284.495 342.886 284.799 343.638 285.407 344.256ZM298.39 337.808C299.531 337.808 300.502 338.214 301.302 339.024C302.113 339.835 302.518 340.827 302.518 342C302.518 343.174 302.113 344.166 301.302 344.976C300.502 345.787 299.531 346.192 298.39 346.192C296.971 346.192 295.894 345.606 295.158 344.432V349.2H294.102V338H295.158V339.568C295.894 338.395 296.971 337.808 298.39 337.808ZM296.07 344.256C296.678 344.864 297.425 345.168 298.31 345.168C299.195 345.168 299.942 344.864 300.55 344.256C301.158 343.638 301.462 342.886 301.462 342C301.462 341.115 301.158 340.368 300.55 339.76C299.942 339.142 299.195 338.832 298.31 338.832C297.425 338.832 296.678 339.142 296.07 339.76C295.462 340.368 295.158 341.115 295.158 342C295.158 342.886 295.462 343.638 296.07 344.256ZM311.458 344.992C310.647 345.792 309.655 346.192 308.482 346.192C307.309 346.192 306.311 345.792 305.49 344.992C304.679 344.182 304.274 343.184 304.274 342C304.274 340.816 304.679 339.824 305.49 339.024C306.311 338.214 307.309 337.808 308.482 337.808C309.655 337.808 310.647 338.214 311.458 339.024C312.279 339.824 312.69 340.816 312.69 342C312.69 343.184 312.279 344.182 311.458 344.992ZM306.242 344.256C306.85 344.864 307.597 345.168 308.482 345.168C309.367 345.168 310.114 344.864 310.722 344.256C311.33 343.638 311.634 342.886 311.634 342C311.634 341.115 311.33 340.368 310.722 339.76C310.114 339.142 309.367 338.832 308.482 338.832C307.597 338.832 306.85 339.142 306.242 339.76C305.634 340.368 305.33 341.115 305.33 342C305.33 342.886 305.634 343.638 306.242 344.256ZM321.185 338V346H320.129V339.024H316.513V342.592C316.513 343.926 316.257 344.843 315.745 345.344C315.243 345.846 314.55 346.064 313.665 346V345.008C314.273 345.072 314.721 344.928 315.009 344.576C315.307 344.224 315.457 343.563 315.457 342.592V338H321.185ZM329.725 338H330.621V346H329.565V339.84L324.797 346H323.901V338H324.957V344.16L329.725 338ZM339.799 346H338.391L334.391 342.144V346H333.335V338H334.391V341.536L338.199 338H339.639L335.511 341.84L339.799 346ZM257.897 358H258.953V366H257.897V362.512H253.289V366H252.233V358H253.289V361.488H257.897V358ZM268.546 358H269.602V366H268.546V364.432C267.81 365.606 266.733 366.192 265.314 366.192C264.173 366.192 263.197 365.787 262.386 364.976C261.586 364.166 261.186 363.174 261.186 362C261.186 360.827 261.586 359.835 262.386 359.024C263.197 358.214 264.173 357.808 265.314 357.808C266.733 357.808 267.81 358.395 268.546 359.568V358ZM263.154 364.256C263.762 364.864 264.509 365.168 265.394 365.168C266.28 365.168 267.026 364.864 267.634 364.256C268.242 363.638 268.546 362.886 268.546 362C268.546 361.115 268.242 360.368 267.634 359.76C267.026 359.142 266.28 358.832 265.394 358.832C264.509 358.832 263.762 359.142 263.154 359.76C262.546 360.368 262.242 361.115 262.242 362C262.242 362.886 262.546 363.638 263.154 364.256ZM287.198 354.8V366H286.078V356.496L282.158 363.056H281.998L278.078 356.496V366H276.958V354.8H278.35L282.078 361.04L285.806 354.8H287.198ZM296.955 358H298.011V366H296.955V364.432C296.219 365.606 295.142 366.192 293.723 366.192C292.582 366.192 291.606 365.787 290.795 364.976C289.995 364.166 289.595 363.174 289.595 362C289.595 360.827 289.995 359.835 290.795 359.024C291.606 358.214 292.582 357.808 293.723 357.808C295.142 357.808 296.219 358.395 296.955 359.568V358ZM291.563 364.256C292.171 364.864 292.918 365.168 293.803 365.168C294.688 365.168 295.435 364.864 296.043 364.256C296.651 363.638 296.955 362.886 296.955 362C296.955 361.115 296.651 360.368 296.043 359.76C295.435 359.142 294.688 358.832 293.803 358.832C292.918 358.832 292.171 359.142 291.563 359.76C290.955 360.368 290.651 361.115 290.651 362C290.651 362.886 290.955 363.638 291.563 364.256ZM309.255 357.808C310.151 357.808 310.871 358.096 311.415 358.672C311.97 359.248 312.247 360.027 312.247 361.008V366H311.191V361.008C311.191 360.315 311.01 359.782 310.647 359.408C310.295 359.024 309.826 358.832 309.239 358.832C308.578 358.832 308.039 359.056 307.623 359.504C307.218 359.942 307.015 360.63 307.015 361.568V366H305.959V361.008C305.959 360.304 305.788 359.766 305.447 359.392C305.116 359.019 304.663 358.832 304.087 358.832C303.447 358.832 302.903 359.056 302.455 359.504C302.007 359.952 301.783 360.64 301.783 361.568V366H300.727V358H301.783V359.168C302.359 358.262 303.175 357.808 304.231 357.808C305.383 357.808 306.194 358.294 306.663 359.264C307.239 358.294 308.103 357.808 309.255 357.808ZM321.65 358H322.706V366H321.65V364.432C320.914 365.606 319.836 366.192 318.418 366.192C317.276 366.192 316.3 365.787 315.49 364.976C314.69 364.166 314.29 363.174 314.29 362C314.29 360.827 314.69 359.835 315.49 359.024C316.3 358.214 317.276 357.808 318.418 357.808C319.836 357.808 320.914 358.395 321.65 359.568V358ZM316.258 364.256C316.866 364.864 317.612 365.168 318.498 365.168C319.383 365.168 320.13 364.864 320.738 364.256C321.346 363.638 321.65 362.886 321.65 362C321.65 361.115 321.346 360.368 320.738 359.76C320.13 359.142 319.383 358.832 318.498 358.832C317.612 358.832 316.866 359.142 316.258 359.76C315.65 360.368 315.346 361.115 315.346 362C315.346 362.886 315.65 363.638 316.258 364.256ZM326.253 360.096C326.253 360.459 326.413 360.747 326.733 360.96C327.053 361.174 327.443 361.339 327.901 361.456C328.36 361.574 328.819 361.707 329.277 361.856C329.736 361.995 330.125 362.235 330.445 362.576C330.765 362.907 330.925 363.344 330.925 363.888C330.925 364.571 330.653 365.126 330.109 365.552C329.576 365.979 328.883 366.192 328.029 366.192C327.261 366.192 326.605 366.022 326.061 365.68C325.528 365.339 325.155 364.896 324.941 364.352L325.837 363.824C325.987 364.24 326.253 364.571 326.637 364.816C327.032 365.051 327.496 365.168 328.029 365.168C328.552 365.168 328.989 365.067 329.341 364.864C329.693 364.651 329.869 364.326 329.869 363.888C329.869 363.526 329.709 363.238 329.389 363.024C329.069 362.811 328.68 362.646 328.221 362.528C327.763 362.411 327.304 362.283 326.845 362.144C326.387 361.995 325.997 361.755 325.677 361.424C325.357 361.083 325.197 360.64 325.197 360.096C325.197 359.446 325.453 358.902 325.965 358.464C326.488 358.027 327.144 357.808 327.933 357.808C328.584 357.808 329.155 357.958 329.645 358.256C330.136 358.544 330.499 358.939 330.733 359.44L329.853 359.952C329.544 359.206 328.904 358.832 327.933 358.832C327.475 358.832 327.08 358.944 326.749 359.168C326.419 359.382 326.253 359.691 326.253 360.096ZM336.833 357.808C337.804 357.808 338.566 358.107 339.121 358.704C339.686 359.291 339.969 360.086 339.969 361.088V366H338.913V361.088C338.913 360.374 338.721 359.819 338.337 359.424C337.964 359.03 337.43 358.832 336.737 358.832C335.969 358.832 335.345 359.078 334.865 359.568C334.385 360.048 334.145 360.795 334.145 361.808V366H333.089V354.8H334.145V359.248C334.742 358.288 335.638 357.808 336.833 357.808Z" fill="white"/>
<path d="M35.3693 405.448V400.6H37.6093L38.7613 400.632H47.4013L48.0573 400.6H51.2893V405.448H48.7453V403H37.9133V405.448H35.3693ZM37.9453 391H49.1933V402.136H46.4893V392.152L47.7053 393.368H39.4013L40.5373 392.488C40.6013 393.022 40.6439 393.55 40.6653 394.072C40.6866 394.595 40.6973 395.086 40.6973 395.544C40.6973 396.846 40.5959 397.95 40.3933 398.856C40.1906 399.752 39.8866 400.435 39.4813 400.904C39.0759 401.363 38.5746 401.592 37.9773 401.592L36.8573 400.648C37.3053 400.136 37.6359 399.416 37.8493 398.488C38.0733 397.55 38.1853 396.382 38.1853 394.984C38.1853 394.366 38.1639 393.72 38.1213 393.048C38.0786 392.376 38.0199 391.694 37.9453 391ZM58.1767 403.24C57.046 403.24 56.054 403.043 55.2007 402.648C54.3473 402.243 53.6807 401.683 53.2007 400.968C52.7207 400.243 52.4807 399.406 52.4807 398.456C52.4807 397.496 52.7207 396.659 53.2007 395.944C53.6807 395.219 54.3473 394.659 55.2007 394.264C56.054 393.859 57.046 393.656 58.1767 393.656C59.3073 393.656 60.2993 393.859 61.1527 394.264C62.006 394.659 62.6673 395.219 63.1367 395.944C63.6167 396.659 63.8567 397.496 63.8567 398.456C63.8567 399.406 63.6167 400.243 63.1367 400.968C62.6673 401.683 62.006 402.243 61.1527 402.648C60.2993 403.043 59.3073 403.24 58.1767 403.24ZM58.1767 401.208C58.7953 401.208 59.3233 401.096 59.7607 400.872C60.2087 400.648 60.55 400.334 60.7847 399.928C61.03 399.512 61.1527 399.022 61.1527 398.456C61.1527 397.88 61.03 397.39 60.7847 396.984C60.55 396.568 60.2087 396.248 59.7607 396.024C59.3233 395.8 58.7953 395.688 58.1767 395.688C57.5687 395.688 57.0407 395.8 56.5927 396.024C56.1447 396.248 55.798 396.568 55.5527 396.984C55.318 397.39 55.2007 397.88 55.2007 398.456C55.2007 399.022 55.318 399.512 55.5527 399.928C55.798 400.334 56.1447 400.648 56.5927 400.872C57.0407 401.096 57.5687 401.208 58.1767 401.208ZM76.3418 399.288C76.2351 400.067 75.9311 400.755 75.4298 401.352C74.9391 401.95 74.3044 402.414 73.5258 402.744C72.7471 403.075 71.8778 403.24 70.9178 403.24C69.8298 403.24 68.8698 403.043 68.0378 402.648C67.2164 402.243 66.5711 401.678 66.1018 400.952C65.6431 400.227 65.4138 399.395 65.4138 398.456C65.4138 397.507 65.6431 396.675 66.1018 395.96C66.5711 395.235 67.2164 394.67 68.0378 394.264C68.8698 393.859 69.8298 393.656 70.9178 393.656C71.8778 393.656 72.7471 393.827 73.5258 394.168C74.3044 394.499 74.9391 394.963 75.4298 395.56C75.9311 396.147 76.2351 396.835 76.3418 397.624H73.6698C73.5311 397.006 73.2111 396.531 72.7098 396.2C72.2191 395.859 71.6218 395.688 70.9178 395.688C70.3524 395.688 69.8564 395.8 69.4298 396.024C69.0138 396.238 68.6938 396.552 68.4698 396.968C68.2458 397.374 68.1338 397.87 68.1338 398.456C68.1338 399.032 68.2458 399.528 68.4698 399.944C68.6938 400.35 69.0138 400.664 69.4298 400.888C69.8564 401.102 70.3524 401.208 70.9178 401.208C71.6324 401.208 72.2351 401.032 72.7258 400.68C73.2271 400.328 73.5418 399.864 73.6698 399.288H76.3418ZM78.0092 403L78.5212 398.456L78.0092 393.896H85.0172C85.8918 393.896 86.5852 394.104 87.0972 394.52C87.6092 394.926 87.8652 395.48 87.8652 396.184C87.8652 396.846 87.6092 397.384 87.0972 397.8C86.5852 398.206 85.8705 398.446 84.9532 398.52L85.1452 398.072C86.2118 398.104 87.0225 398.328 87.5772 398.744C88.1425 399.15 88.4252 399.72 88.4252 400.456C88.4252 401.246 88.1372 401.87 87.5612 402.328C86.9958 402.776 86.2172 403 85.2252 403H78.0092ZM80.5852 402.408L79.5612 401.272H84.4092C84.8678 401.272 85.2038 401.182 85.4172 401C85.6305 400.808 85.7372 400.542 85.7372 400.2C85.7372 399.891 85.6198 399.64 85.3852 399.448C85.1505 399.246 84.7665 399.144 84.2332 399.144H80.1052V397.624H83.8812C84.3292 397.624 84.6545 397.534 84.8572 397.352C85.0705 397.171 85.1772 396.926 85.1772 396.616C85.1772 396.328 85.0812 396.094 84.8892 395.912C84.7078 395.731 84.4092 395.64 83.9932 395.64H79.5772L80.5852 394.504L81.0812 398.456L80.5852 402.408ZM90.4319 393.8L91.7599 394.056L93.1039 393.8V403H90.4319V393.8ZM91.7599 392.856C91.2799 392.856 90.8852 392.734 90.5759 392.488C90.2772 392.232 90.1279 391.896 90.1279 391.48C90.1279 391.054 90.2772 390.718 90.5759 390.472C90.8852 390.216 91.2799 390.088 91.7599 390.088C92.2506 390.088 92.6452 390.216 92.9439 390.472C93.2426 390.718 93.3919 391.054 93.3919 391.48C93.3919 391.896 93.2426 392.232 92.9439 392.488C92.6452 392.734 92.2506 392.856 91.7599 392.856ZM107.967 400.984V405.24H105.647V403H97.1354V405.24H94.8154V400.984H97.3594L97.9514 401.032H104.575L105.103 400.984H107.967ZM96.7834 393.896H106.287V402.392H103.615V394.664L104.847 395.896H98.1114L99.1834 394.936C99.2794 395.395 99.3381 395.832 99.3594 396.248C99.3807 396.654 99.3914 397.032 99.3914 397.384C99.3914 398.899 99.1621 400.083 98.7034 400.936C98.2447 401.779 97.5994 402.2 96.7674 402.2L95.6794 401.288C96.5327 400.67 96.9594 399.192 96.9594 396.856C96.9594 396.398 96.9434 395.923 96.9114 395.432C96.8794 394.931 96.8367 394.419 96.7834 393.896ZM111.333 403.144C110.885 403.144 110.511 403 110.213 402.712C109.925 402.424 109.781 402.062 109.781 401.624C109.781 401.187 109.925 400.824 110.213 400.536C110.511 400.248 110.885 400.104 111.333 400.104C111.791 400.104 112.165 400.248 112.453 400.536C112.751 400.824 112.901 401.187 112.901 401.624C112.901 402.062 112.751 402.424 112.453 402.712C112.165 403 111.791 403.144 111.333 403.144ZM111.333 397.48C110.885 397.48 110.511 397.336 110.213 397.048C109.925 396.76 109.781 396.398 109.781 395.96C109.781 395.523 109.925 395.16 110.213 394.872C110.511 394.584 110.885 394.44 111.333 394.44C111.791 394.44 112.165 394.584 112.453 394.872C112.751 395.16 112.901 395.523 112.901 395.96C112.901 396.398 112.751 396.76 112.453 397.048C112.165 397.336 111.791 397.48 111.333 397.48Z" fill="white"/>
<path d="M255.353 395.312C256.399 395.312 257.284 395.622 258.009 396.24C258.745 396.848 259.113 397.686 259.113 398.752C259.113 399.819 258.745 400.662 258.009 401.28C257.284 401.888 256.399 402.192 255.353 402.192C254.511 402.192 253.759 401.99 253.097 401.584C252.436 401.168 251.988 400.576 251.753 399.808L252.697 399.264C252.857 399.862 253.172 400.32 253.641 400.64C254.121 400.95 254.692 401.104 255.353 401.104C256.121 401.104 256.751 400.902 257.241 400.496C257.743 400.08 257.993 399.499 257.993 398.752C257.993 398.006 257.743 397.43 257.241 397.024C256.751 396.608 256.121 396.4 255.353 396.4H252.313L252.713 390.8H258.713V391.856H253.705L253.465 395.312H255.353ZM267.914 395.888V396.912H265.066V399.76H264.042V396.912H261.194V395.888H264.042V393.04H265.066V395.888H267.914ZM279.243 393.808C280.384 393.808 281.355 394.214 282.155 395.024C282.965 395.835 283.371 396.827 283.371 398C283.371 399.174 282.965 400.166 282.155 400.976C281.355 401.787 280.384 402.192 279.243 402.192C277.824 402.192 276.747 401.606 276.011 400.432V405.2H274.955V394H276.011V395.568C276.747 394.395 277.824 393.808 279.243 393.808ZM276.923 400.256C277.531 400.864 278.277 401.168 279.163 401.168C280.048 401.168 280.795 400.864 281.403 400.256C282.011 399.638 282.315 398.886 282.315 398C282.315 397.115 282.011 396.368 281.403 395.76C280.795 395.142 280.048 394.832 279.163 394.832C278.277 394.832 277.531 395.142 276.923 395.76C276.315 396.368 276.011 397.115 276.011 398C276.011 398.886 276.315 399.638 276.923 400.256ZM292.31 400.992C291.5 401.792 290.508 402.192 289.334 402.192C288.161 402.192 287.164 401.792 286.342 400.992C285.532 400.182 285.126 399.184 285.126 398C285.126 396.816 285.532 395.824 286.342 395.024C287.164 394.214 288.161 393.808 289.334 393.808C290.508 393.808 291.5 394.214 292.31 395.024C293.132 395.824 293.542 396.816 293.542 398C293.542 399.184 293.132 400.182 292.31 400.992ZM287.094 400.256C287.702 400.864 288.449 401.168 289.334 401.168C290.22 401.168 290.966 400.864 291.574 400.256C292.182 399.638 292.486 398.886 292.486 398C292.486 397.115 292.182 396.368 291.574 395.76C290.966 395.142 290.22 394.832 289.334 394.832C288.449 394.832 287.702 395.142 287.094 395.76C286.486 396.368 286.182 397.115 286.182 398C286.182 398.886 286.486 399.638 287.094 400.256ZM302.254 402H300.846L296.846 398.144V402H295.79V394H296.846V397.536L300.654 394H302.094L297.966 397.84L302.254 402ZM305.248 392.08C305.098 392.23 304.917 392.304 304.704 392.304C304.49 392.304 304.309 392.23 304.16 392.08C304.01 391.931 303.936 391.75 303.936 391.536C303.936 391.323 304.01 391.142 304.16 390.992C304.309 390.843 304.49 390.768 304.704 390.768C304.917 390.768 305.098 390.843 305.248 390.992C305.397 391.142 305.472 391.323 305.472 391.536C305.472 391.75 305.397 391.931 305.248 392.08ZM304.176 402V394H305.232V402H304.176ZM313.041 397.888C313.915 398.208 314.353 398.832 314.353 399.76C314.353 400.411 314.134 400.95 313.697 401.376C313.27 401.792 312.651 402 311.841 402H307.953V394H311.521C312.299 394 312.902 394.203 313.329 394.608C313.755 395.003 313.969 395.515 313.969 396.144C313.969 396.944 313.659 397.526 313.041 397.888ZM311.521 395.024H309.009V397.456H311.521C312.449 397.456 312.913 397.04 312.913 396.208C312.913 395.835 312.79 395.547 312.545 395.344C312.31 395.131 311.969 395.024 311.521 395.024ZM311.841 400.976C312.31 400.976 312.667 400.864 312.913 400.64C313.169 400.416 313.297 400.102 313.297 399.696C313.297 399.323 313.169 399.03 312.913 398.816C312.667 398.592 312.31 398.48 311.841 398.48H309.009V400.976H311.841Z" fill="white"/>
<path d="M39.1613 439L41.2253 435.432H41.2573L46.1213 427H49.0653L42.1053 439H39.1613ZM41.2253 437.256L35.2413 427H38.2333L43.0973 435.368L41.2253 437.256ZM49.9662 429.896H59.3742V439H56.7022V430.696L57.9342 431.912H51.2942L52.4462 430.92C52.4995 431.571 52.5422 432.174 52.5742 432.728C52.6168 433.272 52.6382 433.763 52.6382 434.2C52.6382 435.95 52.3768 437.219 51.8542 438.008C51.3422 438.798 50.5102 439.192 49.3582 439.192C49.0382 439.192 48.7288 439.155 48.4302 439.08C48.1422 439.016 47.8595 438.904 47.5822 438.744V436.808C47.7742 436.883 47.9608 436.942 48.1422 436.984C48.3342 437.016 48.5102 437.032 48.6702 437.032C49.2142 437.032 49.6035 436.787 49.8382 436.296C50.0835 435.795 50.2062 434.974 50.2062 433.832C50.2062 433.32 50.1848 432.734 50.1422 432.072C50.1102 431.411 50.0515 430.686 49.9662 429.896ZM71.6705 439.24C70.5505 439.24 69.5692 439.043 68.7265 438.648C67.8839 438.243 67.2279 437.683 66.7585 436.968C66.2999 436.243 66.0705 435.406 66.0705 434.456C66.0705 433.496 66.2999 432.659 66.7585 431.944C67.2279 431.219 67.8839 430.659 68.7265 430.264C69.5692 429.859 70.5505 429.656 71.6705 429.656C72.7905 429.656 73.7719 429.859 74.6145 430.264C75.4572 430.659 76.1132 431.219 76.5825 431.944C77.0519 432.659 77.2865 433.496 77.2865 434.456C77.2865 435.406 77.0519 436.243 76.5825 436.968C76.1132 437.683 75.4572 438.243 74.6145 438.648C73.7719 439.043 72.7905 439.24 71.6705 439.24ZM61.8625 439V429.896H64.5345V439H61.8625ZM63.3665 435.368V433.368H67.7665V435.368H63.3665ZM71.6705 437.208C72.2785 437.208 72.7959 437.096 73.2225 436.872C73.6599 436.648 73.9959 436.334 74.2305 435.928C74.4652 435.512 74.5825 435.022 74.5825 434.456C74.5825 433.88 74.4652 433.39 74.2305 432.984C73.9959 432.568 73.6599 432.248 73.2225 432.024C72.7959 431.8 72.2785 431.688 71.6705 431.688C71.0732 431.688 70.5559 431.8 70.1185 432.024C69.6812 432.248 69.3452 432.568 69.1105 432.984C68.8759 433.39 68.7585 433.88 68.7585 434.456C68.7585 435.022 68.8759 435.512 69.1105 435.928C69.3452 436.334 69.6812 436.648 70.1185 436.872C70.5559 437.096 71.0732 437.208 71.6705 437.208ZM84.8953 439.24C83.6473 439.24 82.5806 439.006 81.6953 438.536C80.8099 438.056 80.1326 437.368 79.6633 436.472C79.1939 435.576 78.9593 434.494 78.9593 433.224C78.9593 431.336 79.4659 429.848 80.4793 428.76C81.4926 427.672 82.9433 427.048 84.8313 426.888C85.5993 426.824 86.2339 426.771 86.7353 426.728C87.2366 426.686 87.6473 426.643 87.9673 426.6C88.2979 426.547 88.5753 426.494 88.7993 426.44C89.0233 426.376 89.2419 426.307 89.4553 426.232V428.456C89.2313 428.542 88.9433 428.622 88.5913 428.696C88.2499 428.76 87.8126 428.814 87.2793 428.856C86.7566 428.899 86.1113 428.942 85.3433 428.984C83.9459 429.048 82.9059 429.432 82.2233 430.136C81.5406 430.84 81.1993 431.854 81.1993 433.176V433.608L81.1033 433.416C81.3166 432.84 81.6419 432.344 82.0793 431.928C82.5166 431.512 83.0393 431.198 83.6473 430.984C84.2659 430.76 84.9326 430.648 85.6473 430.648C86.5753 430.648 87.3859 430.824 88.0793 431.176C88.7726 431.518 89.3113 432.003 89.6953 432.632C90.0899 433.262 90.2873 433.998 90.2873 434.84C90.2873 435.726 90.0633 436.499 89.6153 437.16C89.1673 437.822 88.5379 438.334 87.7273 438.696C86.9273 439.059 85.9833 439.24 84.8953 439.24ZM84.9593 437.208C85.4926 437.208 85.9566 437.112 86.3513 436.92C86.7459 436.728 87.0499 436.456 87.2633 436.104C87.4766 435.752 87.5833 435.342 87.5833 434.872C87.5833 434.403 87.4766 433.998 87.2633 433.656C87.0499 433.304 86.7459 433.032 86.3513 432.84C85.9566 432.648 85.4926 432.552 84.9593 432.552C84.2233 432.552 83.5726 432.75 83.0073 433.144C82.4419 433.528 82.0153 434.067 81.7273 434.76C81.8979 435.507 82.2713 436.104 82.8473 436.552C83.4339 436.99 84.1379 437.208 84.9593 437.208ZM93.6718 429.896H103.08V439H100.408V430.696L101.64 431.912H94.9998L96.1518 430.92C96.2051 431.571 96.2478 432.174 96.2798 432.728C96.3224 433.272 96.3438 433.763 96.3438 434.2C96.3438 435.95 96.0824 437.219 95.5598 438.008C95.0478 438.798 94.2158 439.192 93.0638 439.192C92.7438 439.192 92.4344 439.155 92.1358 439.08C91.8478 439.016 91.5651 438.904 91.2878 438.744V436.808C91.4798 436.883 91.6664 436.942 91.8478 436.984C92.0398 437.016 92.2158 437.032 92.3758 437.032C92.9198 437.032 93.3091 436.787 93.5438 436.296C93.7891 435.795 93.9118 434.974 93.9118 433.832C93.9118 433.32 93.8904 432.734 93.8478 432.072C93.8158 431.411 93.7571 430.686 93.6718 429.896ZM110.704 439.24C109.627 439.24 108.661 439.043 107.808 438.648C106.965 438.243 106.299 437.678 105.808 436.952C105.328 436.227 105.088 435.384 105.088 434.424C105.088 433.475 105.317 432.643 105.776 431.928C106.245 431.214 106.885 430.659 107.696 430.264C108.507 429.859 109.429 429.656 110.464 429.656C111.52 429.656 112.427 429.891 113.184 430.36C113.941 430.819 114.523 431.47 114.928 432.312C115.344 433.155 115.552 434.147 115.552 435.288H107.232V433.512H114.112L113.072 434.152C113.029 433.619 112.896 433.166 112.672 432.792C112.459 432.419 112.165 432.131 111.792 431.928C111.419 431.726 110.981 431.624 110.48 431.624C109.936 431.624 109.461 431.736 109.056 431.96C108.661 432.174 108.352 432.478 108.128 432.872C107.915 433.256 107.808 433.71 107.808 434.232C107.808 434.862 107.947 435.4 108.224 435.848C108.501 436.296 108.907 436.638 109.44 436.872C109.973 437.107 110.619 437.224 111.376 437.224C112.059 437.224 112.747 437.128 113.44 436.936C114.133 436.734 114.757 436.451 115.312 436.088V437.88C114.715 438.307 114.016 438.643 113.216 438.888C112.427 439.123 111.589 439.24 110.704 439.24ZM117.595 429.896H120.251V439H117.595V429.896ZM125.227 429.896H127.883V439H125.227V429.896ZM119.115 433.352H126.267V435.368H119.115V433.352ZM130.372 439V429.896H132.996V437.592L132.34 437.416L137.828 429.896H141.268V439H138.644V431.16L139.3 431.352L133.716 439H130.372ZM143.758 439V429.896H146.382V437.592L145.726 437.416L151.214 429.896H154.654V439H152.03V431.16L152.686 431.352L147.102 439H143.758ZM149.134 429.064C148.099 429.064 147.267 428.814 146.638 428.312C146.009 427.8 145.619 427.059 145.47 426.088H147.566C147.641 426.547 147.811 426.899 148.078 427.144C148.355 427.379 148.707 427.496 149.134 427.496C149.561 427.496 149.907 427.379 150.174 427.144C150.441 426.899 150.617 426.547 150.702 426.088H152.782C152.643 427.059 152.254 427.8 151.614 428.312C150.985 428.814 150.158 429.064 149.134 429.064ZM169.27 429.896V431.944H163.158L164.39 430.728V439H161.718V429.896H169.27ZM173.54 441.88C172.942 441.88 172.404 441.806 171.924 441.656C171.444 441.507 170.99 441.288 170.564 441V439.08C171.012 439.368 171.438 439.576 171.844 439.704C172.249 439.832 172.697 439.896 173.188 439.896C173.625 439.896 174.014 439.795 174.356 439.592C174.697 439.4 174.98 439.054 175.204 438.552L178.996 429.896H181.828L177.284 439.416C177.006 440.014 176.67 440.494 176.276 440.856C175.881 441.219 175.449 441.48 174.98 441.64C174.521 441.8 174.041 441.88 173.54 441.88ZM174.116 438.424L170.1 429.896H173.044L176.724 438.424H174.116ZM183.381 429.896H186.053V432.792L185.941 433.144V435.336L186.053 435.992V441.64H183.381V429.896ZM185.125 434.456C185.307 433.486 185.621 432.643 186.069 431.928C186.528 431.203 187.099 430.643 187.781 430.248C188.475 429.854 189.243 429.656 190.085 429.656C190.981 429.656 191.765 429.859 192.437 430.264C193.12 430.659 193.653 431.219 194.037 431.944C194.421 432.659 194.613 433.496 194.613 434.456C194.613 435.406 194.421 436.243 194.037 436.968C193.653 437.683 193.12 438.243 192.437 438.648C191.765 439.043 190.981 439.24 190.085 439.24C189.232 439.24 188.464 439.043 187.781 438.648C187.109 438.254 186.544 437.699 186.085 436.984C185.627 436.259 185.307 435.416 185.125 434.456ZM191.909 434.456C191.909 433.923 191.797 433.454 191.573 433.048C191.36 432.632 191.061 432.312 190.677 432.088C190.293 431.854 189.851 431.736 189.349 431.736C188.848 431.736 188.373 431.854 187.925 432.088C187.477 432.312 187.083 432.632 186.741 433.048C186.411 433.454 186.149 433.923 185.957 434.456C186.149 434.99 186.411 435.459 186.741 435.864C187.083 436.27 187.477 436.59 187.925 436.824C188.373 437.048 188.848 437.16 189.349 437.16C189.851 437.16 190.293 437.048 190.677 436.824C191.061 436.59 191.36 436.27 191.573 435.864C191.797 435.459 191.909 434.99 191.909 434.456ZM199.162 430.824H201.834V439H199.162V430.824ZM195.546 429.896H205.45V431.944H195.546V429.896ZM208.626 439.144C208.178 439.144 207.804 439 207.506 438.712C207.218 438.424 207.074 438.062 207.074 437.624C207.074 437.187 207.218 436.824 207.506 436.536C207.804 436.248 208.178 436.104 208.626 436.104C209.084 436.104 209.458 436.248 209.746 436.536C210.044 436.824 210.194 437.187 210.194 437.624C210.194 438.062 210.044 438.424 209.746 438.712C209.458 439 209.084 439.144 208.626 439.144ZM208.626 433.48C208.178 433.48 207.804 433.336 207.506 433.048C207.218 432.76 207.074 432.398 207.074 431.96C207.074 431.523 207.218 431.16 207.506 430.872C207.804 430.584 208.178 430.44 208.626 430.44C209.084 430.44 209.458 430.584 209.746 430.872C210.044 431.16 210.194 431.523 210.194 431.96C210.194 432.398 210.044 432.76 209.746 433.048C209.458 433.336 209.084 433.48 208.626 433.48Z" fill="white"/>
<path d="M257.625 438.192C255.929 438.192 254.527 437.632 253.417 436.512C252.308 435.392 251.753 434.022 251.753 432.4C251.753 430.779 252.308 429.408 253.417 428.288C254.527 427.168 255.929 426.608 257.625 426.608C258.66 426.608 259.609 426.859 260.473 427.36C261.337 427.851 262.004 428.518 262.473 429.36L261.481 429.936C261.129 429.254 260.607 428.71 259.913 428.304C259.22 427.899 258.457 427.696 257.625 427.696C256.228 427.696 255.087 428.15 254.201 429.056C253.316 429.963 252.873 431.078 252.873 432.4C252.873 433.723 253.316 434.838 254.201 435.744C255.087 436.651 256.228 437.104 257.625 437.104C258.457 437.104 259.22 436.902 259.913 436.496C260.607 436.091 261.129 435.547 261.481 434.864L262.473 435.424C262.015 436.267 261.348 436.939 260.473 437.44C259.609 437.942 258.66 438.192 257.625 438.192ZM271.261 436.992C270.45 437.792 269.458 438.192 268.285 438.192C267.112 438.192 266.114 437.792 265.293 436.992C264.482 436.182 264.077 435.184 264.077 434C264.077 432.816 264.482 431.824 265.293 431.024C266.114 430.214 267.112 429.808 268.285 429.808C269.458 429.808 270.45 430.214 271.261 431.024C272.082 431.824 272.493 432.816 272.493 434C272.493 435.184 272.082 436.182 271.261 436.992ZM266.045 436.256C266.653 436.864 267.4 437.168 268.285 437.168C269.17 437.168 269.917 436.864 270.525 436.256C271.133 435.638 271.437 434.886 271.437 434C271.437 433.115 271.133 432.368 270.525 431.76C269.917 431.142 269.17 430.832 268.285 430.832C267.4 430.832 266.653 431.142 266.045 431.76C265.437 432.368 265.133 433.115 265.133 434C265.133 434.886 265.437 435.638 266.045 436.256ZM274.74 438V426.32H275.796V438H274.74ZM285.397 426.8H286.453V438H285.397V436.432C284.661 437.606 283.584 438.192 282.165 438.192C281.024 438.192 280.048 437.787 279.237 436.976C278.437 436.166 278.037 435.174 278.037 434C278.037 432.827 278.437 431.835 279.237 431.024C280.048 430.214 281.024 429.808 282.165 429.808C283.584 429.808 284.661 430.395 285.397 431.568V426.8ZM280.005 436.256C280.613 436.864 281.36 437.168 282.245 437.168C283.13 437.168 283.877 436.864 284.485 436.256C285.093 435.638 285.397 434.886 285.397 434C285.397 433.115 285.093 432.368 284.485 431.76C283.877 431.142 283.13 430.832 282.245 430.832C281.36 430.832 280.613 431.142 280.005 431.76C279.397 432.368 279.093 433.115 279.093 434C279.093 434.886 279.397 435.638 280.005 436.256ZM293.457 429.808C294.598 429.808 295.569 430.214 296.369 431.024C297.18 431.835 297.585 432.827 297.585 434C297.585 435.174 297.18 436.166 296.369 436.976C295.569 437.787 294.598 438.192 293.457 438.192C292.038 438.192 290.961 437.606 290.225 436.432V441.2H289.169V430H290.225V431.568C290.961 430.395 292.038 429.808 293.457 429.808ZM291.137 436.256C291.745 436.864 292.492 437.168 293.377 437.168C294.262 437.168 295.009 436.864 295.617 436.256C296.225 435.638 296.529 434.886 296.529 434C296.529 433.115 296.225 432.368 295.617 431.76C295.009 431.142 294.262 430.832 293.377 430.832C292.492 430.832 291.745 431.142 291.137 431.76C290.529 432.368 290.225 433.115 290.225 434C290.225 434.886 290.529 435.638 291.137 436.256ZM299.821 438V426.32H300.877V438H299.821ZM310.478 430H311.534V438H310.478V436.432C309.742 437.606 308.664 438.192 307.246 438.192C306.104 438.192 305.128 437.787 304.318 436.976C303.518 436.166 303.118 435.174 303.118 434C303.118 432.827 303.518 431.835 304.318 431.024C305.128 430.214 306.104 429.808 307.246 429.808C308.664 429.808 309.742 430.395 310.478 431.568V430ZM305.086 436.256C305.694 436.864 306.44 437.168 307.326 437.168C308.211 437.168 308.958 436.864 309.566 436.256C310.174 435.638 310.478 434.886 310.478 434C310.478 433.115 310.174 432.368 309.566 431.76C308.958 431.142 308.211 430.832 307.326 430.832C306.44 430.832 305.694 431.142 305.086 431.76C304.478 432.368 304.174 433.115 304.174 434C304.174 434.886 304.478 435.638 305.086 436.256ZM320.01 430H321.13L317.706 438.736C317.396 439.526 316.954 440.144 316.378 440.592C315.812 441.051 315.178 441.254 314.474 441.2V440.208C315.434 440.315 316.164 439.76 316.666 438.544L316.874 438.048L313.29 430H314.41L317.418 436.704L320.01 430Z" fill="white"/>
</svg>
