<svg width="480" height="484" viewBox="0 0 480 484" fill="none" xmlns="http://www.w3.org/2000/svg">
<path d="M53.0947 275.457L26.7177 423.368C21.175 454.449 45.4699 482.824 77.0338 482.134L417.578 474.69C449.592 473.99 472.705 443.797 465.026 412.71L402.319 158.877C400.787 152.676 400.457 146.24 401.348 139.916L412.644 59.666C417.008 28.6623 392.128 1.32068 360.851 2.74875L251.733 7.73099L63.2765 1.94366C30.9935 0.952272 6.25464 30.3712 12.7695 62.0056L52.8436 256.593C54.1235 262.808 54.2087 269.21 53.0947 275.457Z" fill="#D1C1CD"/>
<path d="M132.944 158.934V165.974H120.336V203.734H112.976V165.974H100.304V158.934H132.944ZM154.381 171.734H161.741L149.453 204.758C147.96 208.812 145.869 211.841 143.181 213.846C140.493 215.852 137.379 216.748 133.837 216.534V210.07C136.013 210.198 137.763 209.75 139.085 208.726C140.451 207.745 141.539 206.145 142.349 203.926L142.541 203.478L129.101 171.734H136.461L146.189 195.03L154.381 171.734ZM190.824 171.734V178.39H180.392V203.734H173.48V178.39H162.984V171.734H190.824ZM244.141 171.734V203.734H237.421V182.678L228.205 197.334H227.373L218.221 182.742V203.734H211.501V171.734H218.541L227.821 186.518L237.101 171.734H244.141ZM267.23 204.566C262.536 204.566 258.547 202.945 255.262 199.702C251.976 196.46 250.334 192.47 250.334 187.734C250.334 182.998 251.976 179.009 255.262 175.766C258.547 172.524 262.536 170.902 267.23 170.902C271.966 170.902 275.955 172.524 279.198 175.766C282.483 179.009 284.126 182.998 284.126 187.734C284.126 192.47 282.483 196.46 279.198 199.702C275.955 202.945 271.966 204.566 267.23 204.566ZM260.126 194.966C262.046 196.886 264.414 197.846 267.23 197.846C270.046 197.846 272.414 196.886 274.334 194.966C276.254 193.046 277.214 190.636 277.214 187.734C277.214 184.833 276.254 182.422 274.334 180.502C272.414 178.582 270.046 177.622 267.23 177.622C264.414 177.622 262.046 178.582 260.126 180.502C258.206 182.422 257.246 184.833 257.246 187.734C257.246 190.636 258.206 193.046 260.126 194.966ZM329.029 203.734H321.157L310.277 188.95V203.734H303.493V189.078L292.613 203.734H284.741L297.221 187.414L285.381 171.734H293.253L303.493 185.75V171.734H310.277V185.814L320.517 171.734H328.389L316.549 187.414L329.029 203.734ZM336.878 190.678C337.39 193.11 338.564 194.988 340.398 196.31C342.233 197.59 344.473 198.23 347.118 198.23C350.788 198.23 353.54 196.908 355.374 194.262L361.07 197.59C357.913 202.241 353.241 204.566 347.054 204.566C341.849 204.566 337.646 202.988 334.446 199.83C331.246 196.63 329.646 192.598 329.646 187.734C329.646 182.956 331.225 178.966 334.382 175.766C337.54 172.524 341.593 170.902 346.542 170.902C351.236 170.902 355.076 172.545 358.062 175.83C361.092 179.116 362.606 183.105 362.606 187.798C362.606 188.524 362.521 189.484 362.35 190.678H336.878ZM336.814 185.046H355.63C355.161 182.444 354.073 180.481 352.366 179.158C350.702 177.836 348.74 177.174 346.478 177.174C343.918 177.174 341.785 177.878 340.078 179.286C338.372 180.694 337.284 182.614 336.814 185.046ZM183.755 264.566C178.848 264.566 174.838 262.988 171.723 259.83C168.651 256.63 167.115 252.556 167.115 247.606C167.115 242.188 167.926 238.006 169.547 235.062C171.168 232.076 174.454 229.366 179.403 226.934C180.214 226.55 181.408 225.996 182.987 225.27C184.608 224.545 185.718 224.033 186.315 223.734C186.912 223.393 187.659 222.924 188.555 222.326C189.451 221.686 190.112 221.025 190.539 220.342C190.966 219.617 191.307 218.764 191.563 217.782L197.195 221.046C197.024 221.985 196.747 222.86 196.363 223.67C195.979 224.438 195.424 225.164 194.699 225.846C193.974 226.529 193.334 227.084 192.779 227.51C192.267 227.937 191.392 228.449 190.155 229.046C188.918 229.644 188 230.07 187.403 230.326C186.848 230.582 185.782 231.03 184.203 231.67C181.387 232.78 179.318 233.932 177.995 235.126C176.715 236.278 175.819 237.729 175.307 239.478C177.867 236.577 181.344 235.126 185.739 235.126C189.494 235.126 192.758 236.47 195.531 239.158C198.347 241.846 199.755 245.324 199.755 249.59C199.755 253.942 198.262 257.526 195.275 260.342C192.331 263.158 188.491 264.566 183.755 264.566ZM183.691 258.102C186.379 258.102 188.576 257.313 190.283 255.734C191.99 254.113 192.843 252.065 192.843 249.59C192.843 247.073 191.99 245.004 190.283 243.382C188.619 241.761 186.443 240.95 183.755 240.95C181.366 240.95 179.211 241.718 177.291 243.254C175.371 244.748 174.411 246.753 174.411 249.27C174.411 251.83 175.307 253.942 177.099 255.606C178.891 257.27 181.088 258.102 183.691 258.102ZM225.538 231.734H232.898L220.61 264.758C219.116 268.812 217.026 271.841 214.338 273.846C211.65 275.852 208.535 276.748 204.994 276.534V270.07C207.17 270.198 208.919 269.75 210.242 268.726C211.607 267.745 212.695 266.145 213.506 263.926L213.698 263.478L200.258 231.734H207.618L217.346 255.03L225.538 231.734ZM261.98 231.734V238.39H251.548V263.734H244.636V238.39H234.14V231.734H261.98ZM289.825 231.734H295.137V263.734H288.353V243.382L271.969 263.734H266.657V231.734H273.441V252.022L289.825 231.734ZM120.011 291.734V298.39H109.579V323.734H102.667V298.39H92.1713V291.734H120.011ZM146.832 307.286C149.99 308.737 151.568 311.19 151.568 314.646C151.568 317.334 150.651 319.532 148.816 321.238C147.024 322.902 144.443 323.734 141.072 323.734H124.688V291.734H139.792C143.078 291.734 145.616 292.566 147.408 294.23C149.243 295.852 150.16 297.964 150.16 300.566C150.16 303.596 149.051 305.836 146.832 307.286ZM139.28 297.622H131.28V304.726H139.28C142.096 304.726 143.504 303.532 143.504 301.142C143.504 298.796 142.096 297.622 139.28 297.622ZM140.432 317.718C143.334 317.718 144.784 316.46 144.784 313.942C144.784 312.833 144.4 311.98 143.632 311.382C142.864 310.742 141.798 310.422 140.432 310.422H131.28V317.718H140.432ZM172.292 324.566C167.599 324.566 163.61 322.945 160.324 319.702C157.039 316.46 155.396 312.47 155.396 307.734C155.396 302.998 157.039 299.009 160.324 295.766C163.61 292.524 167.599 290.902 172.292 290.902C177.028 290.902 181.018 292.524 184.26 295.766C187.546 299.009 189.188 302.998 189.188 307.734C189.188 312.47 187.546 316.46 184.26 319.702C181.018 322.945 177.028 324.566 172.292 324.566ZM165.188 314.966C167.108 316.886 169.476 317.846 172.292 317.846C175.108 317.846 177.476 316.886 179.396 314.966C181.316 313.046 182.276 310.636 182.276 307.734C182.276 304.833 181.316 302.422 179.396 300.502C177.476 298.582 175.108 297.622 172.292 297.622C169.476 297.622 167.108 298.582 165.188 300.502C163.268 302.422 162.308 304.833 162.308 307.734C162.308 310.636 163.268 313.046 165.188 314.966ZM218.99 312.854L224.878 316.182C223.598 318.742 221.678 320.79 219.118 322.326C216.558 323.82 213.593 324.566 210.222 324.566C205.358 324.566 201.369 322.988 198.254 319.83C195.182 316.673 193.646 312.641 193.646 307.734C193.646 302.785 195.182 298.753 198.254 295.638C201.326 292.481 205.294 290.902 210.158 290.902C213.401 290.902 216.302 291.649 218.862 293.142C221.422 294.593 223.385 296.598 224.75 299.158L218.798 302.55C218.073 301.014 216.942 299.798 215.406 298.902C213.913 297.964 212.142 297.494 210.094 297.494C207.833 297.494 205.892 298.134 204.27 299.414C202.649 300.694 201.54 302.401 200.942 304.534H213.614V310.87H200.942C201.54 312.961 202.649 314.668 204.27 315.99C205.934 317.27 207.897 317.91 210.158 317.91C214.638 317.91 217.582 316.225 218.99 312.854ZM278.772 296.662C281.673 299.692 283.124 303.382 283.124 307.734C283.124 312.086 281.673 315.777 278.772 318.806C275.87 321.836 271.945 323.67 266.996 324.31V336.534H260.212V324.31C255.262 323.67 251.337 321.836 248.436 318.806C245.534 315.777 244.084 312.086 244.084 307.734C244.084 303.382 245.534 299.692 248.436 296.662C251.337 293.633 255.262 291.798 260.212 291.158V278.934H266.996V291.158C271.945 291.798 275.87 293.633 278.772 296.662ZM266.996 317.718C269.94 317.164 272.222 316.012 273.844 314.262C275.465 312.47 276.276 310.294 276.276 307.734C276.276 305.174 275.465 303.02 273.844 301.27C272.222 299.478 269.94 298.305 266.996 297.75V317.718ZM253.364 301.27C251.742 303.062 250.932 305.217 250.932 307.734C250.932 310.252 251.742 312.406 253.364 314.198C254.985 315.99 257.268 317.164 260.212 317.718V297.75C257.268 298.305 254.985 299.478 253.364 301.27ZM304.48 324.566C299.786 324.566 295.797 322.945 292.512 319.702C289.226 316.46 287.584 312.47 287.584 307.734C287.584 302.998 289.226 299.009 292.512 295.766C295.797 292.524 299.786 290.902 304.48 290.902C309.216 290.902 313.205 292.524 316.448 295.766C319.733 299.009 321.376 302.998 321.376 307.734C321.376 312.47 319.733 316.46 316.448 319.702C313.205 322.945 309.216 324.566 304.48 324.566ZM297.376 314.966C299.296 316.886 301.664 317.846 304.48 317.846C307.296 317.846 309.664 316.886 311.584 314.966C313.504 313.046 314.464 310.636 314.464 307.734C314.464 304.833 313.504 302.422 311.584 300.502C309.664 298.582 307.296 297.622 304.48 297.622C301.664 297.622 299.296 298.582 297.376 300.502C295.456 302.422 294.496 304.833 294.496 307.734C294.496 310.636 295.456 313.046 297.376 314.966ZM350.824 291.734V298.39H340.392V323.734H333.48V298.39H322.984V291.734H350.824ZM369.355 324.566C364.661 324.566 360.672 322.945 357.387 319.702C354.101 316.46 352.459 312.47 352.459 307.734C352.459 302.998 354.101 299.009 357.387 295.766C360.672 292.524 364.661 290.902 369.355 290.902C374.091 290.902 378.08 292.524 381.323 295.766C384.608 299.009 386.251 302.998 386.251 307.734C386.251 312.47 384.608 316.46 381.323 319.702C378.08 322.945 374.091 324.566 369.355 324.566ZM362.251 314.966C364.171 316.886 366.539 317.846 369.355 317.846C372.171 317.846 374.539 316.886 376.459 314.966C378.379 313.046 379.339 310.636 379.339 307.734C379.339 304.833 378.379 302.422 376.459 300.502C374.539 298.582 372.171 297.622 369.355 297.622C366.539 297.622 364.171 298.582 362.251 300.502C360.331 302.422 359.371 304.833 359.371 307.734C359.371 310.636 360.331 313.046 362.251 314.966Z" fill="white"/>
</svg>
