<?xml version="1.0" encoding="utf-8"?>
<svg width="451" height="545" fill="none" viewBox="0 0 451 545" xmlns="http://www.w3.org/2000/svg">
  <defs/>
  <path fill="#C0B7EE" d="M73.094 37.879 2.06 284.958a50.004 50.004 0 0 0-1.947 13.815v173.096a50 50 0 0 0 27.454 44.628l43.026 21.738a49.992 49.992 0 0 0 28.295 5.04l306.973-35.526c25.222-2.919 44.252-24.278 44.252-49.669V149.035L437.381 45.878c-3.196-25.9-25.772-44.984-51.842-43.826L258.162 7.71 123.359 1.743C100.265.721 79.481 15.663 73.094 37.88Z"/>
  <path fill="#fff" d="M 57.345 164 L 57.345 152 L 60.049 152 L 60.049 161.792 L 59.281 161.248 L 66.705 152 L 69.601 152 L 59.793 164 L 57.345 164 Z M 63.073 158.128 L 65.025 156.384 L 69.777 164 L 66.673 164 L 63.073 158.128 Z M 71.211 154.8 L 72.539 155.056 L 73.883 154.8 L 73.883 164 L 71.21 164 L 71.21 154.8 L 71.211 154.8 Z M 72.539 153.856 C 72.059 153.856 71.664 153.734 71.355 153.488 C 71.056 153.232 70.907 152.896 70.907 152.48 C 70.907 152.054 71.056 151.718 71.355 151.472 C 71.664 151.216 72.059 151.088 72.539 151.088 C 73.029 151.088 73.424 151.216 73.723 151.472 C 74.021 151.718 74.171 152.054 74.171 152.48 C 74.171 152.896 74.021 153.232 73.723 153.488 C 73.424 153.734 73.029 153.856 72.539 153.856 Z M 77.946 154.896 L 87.354 154.896 L 87.354 164 L 84.682 164 L 84.682 155.696 L 85.914 156.912 L 79.274 156.912 L 80.426 155.92 C 80.479 156.571 80.522 157.174 80.554 157.728 C 80.597 158.272 80.618 158.763 80.618 159.2 C 80.618 160.95 80.357 162.219 79.834 163.008 C 79.322 163.798 78.49 164.192 77.338 164.192 C 77.018 164.192 76.708 164.155 76.41 164.08 C 76.112 164.012 75.826 163.899 75.562 163.744 L 75.562 161.808 C 75.754 161.883 75.941 161.942 76.122 161.984 C 76.314 162.016 76.49 162.032 76.65 162.032 C 77.194 162.032 77.583 161.787 77.818 161.296 C 78.064 160.795 78.186 159.974 78.186 158.832 C 78.186 158.32 78.165 157.734 78.122 157.072 C 78.085 156.345 78.026 155.619 77.946 154.896 Z M 89.843 164 L 89.843 154.896 L 92.499 154.896 L 92.499 163.312 L 91.635 162.08 L 95.186 162.08 C 95.677 162.08 96.056 161.963 96.322 161.728 C 96.589 161.483 96.722 161.152 96.722 160.736 C 96.722 160.299 96.589 159.963 96.322 159.728 C 96.056 159.483 95.677 159.36 95.186 159.36 L 91.65 159.36 L 91.65 157.52 L 95.586 157.52 C 96.366 157.52 97.037 157.659 97.603 157.936 C 98.15 158.179 98.617 158.573 98.947 159.072 C 99.267 159.552 99.427 160.118 99.427 160.768 C 99.427 161.408 99.267 161.974 98.947 162.464 C 98.62 162.961 98.16 163.355 97.618 163.6 C 97.053 163.867 96.387 164 95.618 164 L 89.843 164 Z M 101.213 164 L 101.213 154.896 L 103.885 154.896 L 103.885 161.84 L 103.101 161.568 L 108.525 154.896 L 111.437 154.896 L 103.613 164 L 101.213 164 Z M 108.653 164 L 105.933 159.536 L 107.901 158.016 L 111.709 164 L 108.653 164 Z M 113.099 154.8 L 114.427 155.056 L 115.771 154.8 L 115.771 164 L 113.099 164 L 113.099 154.8 Z M 114.427 153.856 C 113.947 153.856 113.553 153.734 113.243 153.488 C 112.945 153.232 112.795 152.896 112.795 152.48 C 112.795 152.054 112.945 151.718 113.243 151.472 C 113.553 151.216 113.947 151.088 114.427 151.088 C 114.918 151.088 115.313 151.216 115.611 151.472 C 115.91 151.718 116.059 152.054 116.059 152.48 C 116.059 152.896 115.91 153.232 115.611 153.488 C 115.313 153.734 114.918 153.856 114.427 153.856 Z M 128.715 160.288 C 128.616 161.049 128.299 161.766 127.803 162.352 C 127.312 162.95 126.678 163.414 125.899 163.744 C 125.12 164.075 124.251 164.24 123.291 164.24 C 122.203 164.24 121.243 164.043 120.411 163.648 C 119.59 163.243 118.944 162.678 118.475 161.952 C 118.016 161.227 117.787 160.395 117.787 159.456 C 117.787 158.507 118.016 157.675 118.475 156.96 C 118.944 156.235 119.59 155.67 120.411 155.264 C 121.243 154.859 122.203 154.656 123.291 154.656 C 124.251 154.656 125.12 154.827 125.899 155.168 C 126.678 155.499 127.312 155.963 127.803 156.56 C 128.304 157.147 128.608 157.835 128.715 158.624 L 126.043 158.624 C 125.904 158.006 125.584 157.531 125.083 157.2 C 124.592 156.859 123.995 156.688 123.291 156.688 C 122.726 156.688 122.23 156.8 121.803 157.024 C 121.393 157.232 121.058 157.562 120.843 157.968 C 120.619 158.374 120.507 158.87 120.507 159.456 C 120.507 160.032 120.619 160.528 120.843 160.944 C 121.067 161.35 121.387 161.664 121.803 161.888 C 122.23 162.102 122.726 162.208 123.291 162.208 C 124.006 162.208 124.608 162.032 125.099 161.68 C 125.6 161.328 125.915 160.864 126.043 160.288 L 128.715 160.288 Z M 133.126 155.824 L 135.798 155.824 L 135.798 164 L 133.126 164 L 133.126 155.824 Z M 129.51 154.896 L 139.414 154.896 L 139.414 156.944 L 129.51 156.944 L 129.51 154.896 Z M 141.118 164 L 141.118 154.896 L 143.774 154.896 L 143.774 163.312 L 142.91 162.08 L 146.462 162.08 C 146.952 162.08 147.331 161.963 147.598 161.728 C 147.864 161.483 147.998 161.152 147.998 160.736 C 147.998 160.299 147.864 159.963 147.598 159.728 C 147.331 159.483 146.952 159.36 146.462 159.36 L 142.926 159.36 L 142.926 157.52 L 146.862 157.52 C 147.64 157.52 148.312 157.659 148.878 157.936 C 149.425 158.179 149.892 158.573 150.222 159.072 C 150.542 159.552 150.702 160.118 150.702 160.768 C 150.702 161.408 150.542 161.974 150.222 162.464 C 149.902 162.955 149.459 163.334 148.894 163.6 C 148.328 163.867 147.662 164 146.894 164 L 141.118 164 Z M 57.121 174.896 L 59.793 174.896 L 59.793 177.792 L 59.681 178.144 L 59.681 180.336 L 59.793 180.992 L 59.793 186.64 L 57.121 186.64 L 57.121 174.896 Z M 58.865 179.456 C 59.047 178.486 59.361 177.643 59.809 176.928 C 60.268 176.203 60.839 175.643 61.521 175.248 C 62.223 174.851 63.018 174.647 63.825 174.656 C 64.721 174.656 65.505 174.859 66.177 175.264 C 66.86 175.659 67.415 176.242 67.777 176.944 C 68.161 177.659 68.353 178.496 68.353 179.456 C 68.353 180.406 68.161 181.243 67.777 181.968 C 67.41 182.665 66.856 183.247 66.177 183.648 C 65.505 184.043 64.721 184.24 63.825 184.24 C 62.972 184.24 62.204 184.043 61.521 183.648 C 60.849 183.254 60.284 182.699 59.825 181.984 C 59.367 181.259 59.047 180.416 58.865 179.456 Z M 65.649 179.456 C 65.649 178.923 65.537 178.454 65.313 178.048 C 65.114 177.648 64.803 177.314 64.417 177.088 C 64.016 176.849 63.556 176.727 63.089 176.736 C 62.588 176.736 62.113 176.854 61.665 177.088 C 61.207 177.32 60.803 177.648 60.481 178.048 C 60.142 178.47 59.877 178.946 59.697 179.456 C 59.889 179.99 60.151 180.459 60.481 180.864 C 60.823 181.27 61.217 181.59 61.665 181.824 C 62.113 182.048 62.588 182.16 63.089 182.16 C 63.591 182.16 64.033 182.048 64.417 181.824 C 64.798 181.593 65.109 181.26 65.313 180.864 C 65.537 180.459 65.649 179.99 65.649 179.456 Z M 75.534 184.24 C 74.457 184.24 73.491 184.043 72.638 183.648 C 71.795 183.243 71.128 182.678 70.638 181.952 C 70.158 181.227 69.918 180.384 69.918 179.424 C 69.918 178.475 70.148 177.643 70.606 176.928 C 71.082 176.208 71.746 175.633 72.526 175.264 C 73.336 174.859 74.26 174.656 75.294 174.656 C 76.35 174.656 77.257 174.891 78.014 175.36 C 78.772 175.819 79.353 176.47 79.758 177.312 C 80.174 178.155 80.382 179.147 80.382 180.288 L 72.062 180.288 L 72.062 178.512 L 78.942 178.512 L 77.902 179.152 C 77.859 178.619 77.726 178.166 77.502 177.792 C 77.296 177.427 76.991 177.127 76.622 176.928 C 76.249 176.726 75.812 176.624 75.31 176.624 C 74.766 176.624 74.291 176.736 73.886 176.96 C 73.496 177.169 73.174 177.486 72.958 177.872 C 72.745 178.256 72.638 178.71 72.638 179.232 C 72.638 179.862 72.777 180.4 73.054 180.848 C 73.332 181.296 73.737 181.638 74.27 181.872 C 74.804 182.107 75.449 182.224 76.206 182.224 C 76.889 182.224 77.576 182.128 78.27 181.936 C 78.933 181.748 79.564 181.462 80.142 181.088 L 80.142 182.88 C 79.503 183.327 78.795 183.668 78.046 183.888 C 77.23 184.127 76.384 184.245 75.534 184.24 Z M 90.761 184 L 90.377 180.672 L 90.809 179.456 L 90.377 178.256 L 90.761 174.896 L 93.529 174.896 L 93.001 179.456 L 93.529 184 L 90.761 184 Z M 91.465 179.456 C 91.295 180.416 90.98 181.259 90.521 181.984 C 90.099 182.674 89.51 183.246 88.809 183.648 C 88.126 184.043 87.359 184.24 86.505 184.24 C 85.62 184.24 84.835 184.043 84.153 183.648 C 83.474 183.247 82.92 182.665 82.553 181.968 C 82.18 181.243 81.993 180.406 81.993 179.456 C 81.993 178.496 82.18 177.659 82.553 176.944 C 82.915 176.242 83.47 175.659 84.153 175.264 C 84.836 174.859 85.62 174.656 86.505 174.656 C 87.358 174.656 88.126 174.854 88.809 175.248 C 89.502 175.643 90.079 176.203 90.537 176.928 C 90.996 177.643 91.305 178.486 91.465 179.456 Z M 84.697 179.456 C 84.697 179.99 84.804 180.459 85.017 180.864 C 85.241 181.27 85.545 181.59 85.929 181.824 C 86.313 182.048 86.756 182.16 87.257 182.16 C 87.758 182.16 88.227 182.048 88.665 181.824 C 89.119 181.585 89.521 181.259 89.849 180.864 C 90.198 180.446 90.469 179.969 90.649 179.456 C 90.468 178.943 90.197 178.466 89.849 178.048 C 89.527 177.648 89.123 177.32 88.665 177.088 C 88.232 176.855 87.748 176.734 87.257 176.736 C 86.756 176.736 86.313 176.854 85.929 177.088 C 85.541 177.316 85.225 177.649 85.017 178.048 C 84.804 178.454 84.697 178.923 84.697 179.456 Z M 97.364 174.896 L 106.772 174.896 L 106.772 184 L 104.1 184 L 104.1 175.696 L 105.332 176.912 L 98.692 176.912 L 99.844 175.92 C 99.897 176.571 99.94 177.174 99.972 177.728 C 100.014 178.272 100.036 178.763 100.036 179.2 C 100.036 180.95 99.774 182.219 99.252 183.008 C 98.74 183.798 97.908 184.192 96.756 184.192 C 96.436 184.192 96.126 184.155 95.828 184.08 C 95.53 184.012 95.244 183.899 94.98 183.744 L 94.98 181.808 C 95.172 181.883 95.358 181.942 95.54 181.984 C 95.732 182.016 95.908 182.032 96.068 182.032 C 96.612 182.032 97.001 181.787 97.236 181.296 C 97.481 180.795 97.604 179.974 97.604 178.832 C 97.604 178.32 97.582 177.734 97.54 177.072 C 97.503 176.345 97.444 175.619 97.364 174.896 Z M 109.26 174.8 L 110.588 175.056 L 111.932 174.8 L 111.932 184 L 109.26 184 L 109.26 174.8 Z M 110.588 173.856 C 110.108 173.856 109.713 173.734 109.404 173.488 C 109.105 173.232 108.956 172.896 108.956 172.48 C 108.956 172.054 109.105 171.718 109.404 171.472 C 109.713 171.216 110.108 171.088 110.588 171.088 C 111.079 171.088 111.473 171.216 111.772 171.472 C 112.071 171.718 112.22 172.054 112.22 172.48 C 112.22 172.896 112.071 173.232 111.772 173.488 C 111.473 173.734 111.079 173.856 110.588 173.856 Z M 118.924 184.24 C 117.91 184.24 117.025 184.112 116.268 183.856 C 115.51 183.59 114.918 183.211 114.492 182.72 C 114.068 182.228 113.821 181.609 113.788 180.96 L 116.38 180.96 C 116.454 181.408 116.71 181.75 117.148 181.984 C 117.585 182.219 118.177 182.336 118.924 182.336 C 119.638 182.336 120.193 182.246 120.588 182.064 C 120.993 181.872 121.196 181.579 121.196 181.184 C 121.196 180.864 121.025 180.63 120.684 180.48 C 120.353 180.32 119.82 180.24 119.084 180.24 L 117.388 180.24 L 117.388 178.64 L 119.036 178.64 C 119.697 178.64 120.182 178.544 120.492 178.352 C 120.812 178.16 120.972 177.92 120.972 177.632 C 120.972 177.28 120.785 177.014 120.412 176.832 C 120.049 176.651 119.558 176.56 118.94 176.56 C 118.257 176.56 117.708 176.667 117.292 176.88 C 116.876 177.094 116.63 177.414 116.556 177.84 L 113.98 177.84 C 114.022 177.254 114.246 176.72 114.652 176.24 C 115.057 175.76 115.628 175.376 116.364 175.088 C 117.11 174.8 118.006 174.656 119.052 174.656 C 119.98 174.656 120.79 174.768 121.484 174.992 C 122.177 175.216 122.716 175.526 123.1 175.92 C 123.484 176.315 123.676 176.768 123.676 177.28 C 123.676 177.686 123.548 178.059 123.292 178.4 C 123.046 178.742 122.646 179.014 122.092 179.216 C 121.548 179.419 120.833 179.52 119.948 179.52 L 119.948 179.248 C 121.217 179.195 122.193 179.35 122.876 179.712 C 123.569 180.075 123.916 180.63 123.916 181.376 C 123.916 181.92 123.718 182.411 123.324 182.848 C 122.94 183.286 122.374 183.627 121.628 183.872 C 120.881 184.118 119.98 184.24 118.924 184.24 Z M 131.186 184.24 C 130.055 184.24 129.063 184.043 128.21 183.648 C 127.357 183.243 126.69 182.683 126.21 181.968 C 125.73 181.243 125.49 180.406 125.49 179.456 C 125.49 178.496 125.73 177.659 126.21 176.944 C 126.69 176.219 127.357 175.659 128.21 175.264 C 129.063 174.859 130.055 174.656 131.186 174.656 C 132.317 174.656 133.309 174.859 134.162 175.264 C 135.015 175.659 135.677 176.219 136.146 176.944 C 136.626 177.659 136.866 178.496 136.866 179.456 C 136.866 180.406 136.626 181.243 136.146 181.968 C 135.677 182.683 135.015 183.243 134.162 183.648 C 133.309 184.043 132.317 184.24 131.186 184.24 Z M 131.186 182.208 C 131.805 182.208 132.333 182.096 132.77 181.872 C 133.198 181.667 133.555 181.338 133.794 180.928 C 134.039 180.512 134.162 180.022 134.162 179.456 C 134.162 178.88 134.039 178.39 133.794 177.984 C 133.558 177.567 133.201 177.232 132.77 177.024 C 132.333 176.8 131.805 176.688 131.186 176.688 C 130.578 176.688 130.05 176.8 129.602 177.024 C 129.168 177.235 128.807 177.569 128.562 177.984 C 128.327 178.39 128.21 178.88 128.21 179.456 C 128.21 180.022 128.327 180.512 128.562 180.928 C 128.807 181.334 129.154 181.648 129.602 181.872 C 130.05 182.096 130.578 182.208 131.186 182.208 Z M 138.648 184 L 139.16 179.456 L 138.648 174.896 L 145.656 174.896 C 146.531 174.896 147.224 175.104 147.736 175.52 C 148.248 175.926 148.504 176.48 148.504 177.184 C 148.504 177.846 148.248 178.384 147.736 178.8 C 147.224 179.206 146.509 179.446 145.592 179.52 L 145.784 179.072 C 146.851 179.104 147.661 179.328 148.216 179.744 C 148.781 180.15 149.064 180.72 149.064 181.456 C 149.064 182.246 148.776 182.87 148.2 183.328 C 147.635 183.776 146.856 184 145.864 184 L 138.648 184 Z M 141.224 183.408 L 140.2 182.272 L 145.048 182.272 C 145.507 182.272 145.843 182.182 146.056 182 C 146.269 181.808 146.376 181.542 146.376 181.2 C 146.384 180.908 146.254 180.629 146.024 180.448 C 145.789 180.246 145.405 180.144 144.872 180.144 L 140.744 180.144 L 140.744 178.624 L 144.52 178.624 C 144.968 178.624 145.293 178.534 145.496 178.352 C 145.709 178.171 145.816 177.926 145.816 177.616 C 145.825 177.351 145.72 177.095 145.528 176.912 C 145.347 176.731 145.048 176.64 144.632 176.64 L 140.216 176.64 L 141.224 175.504 L 141.72 179.456 L 141.224 183.408 Z M 159.407 184 L 159.023 180.672 L 159.455 179.456 L 159.023 178.256 L 159.407 174.896 L 162.175 174.896 L 161.647 179.456 L 162.175 184 L 159.407 184 Z M 160.111 179.456 C 159.94 180.416 159.625 181.259 159.167 181.984 C 158.745 182.674 158.156 183.246 157.455 183.648 C 156.772 184.043 156.004 184.24 155.151 184.24 C 154.265 184.24 153.481 184.043 152.799 183.648 C 152.12 183.247 151.566 182.666 151.199 181.968 C 150.825 181.243 150.639 180.406 150.639 179.456 C 150.639 178.496 150.825 177.659 151.199 176.944 C 151.561 176.242 152.116 175.659 152.799 175.264 C 153.481 174.859 154.265 174.656 155.151 174.656 C 156.004 174.656 156.772 174.854 157.455 175.248 C 158.148 175.643 158.724 176.203 159.183 176.928 C 159.641 177.643 159.951 178.486 160.111 179.456 Z M 153.343 179.456 C 153.343 179.99 153.449 180.459 153.663 180.864 C 153.887 181.27 154.191 181.59 154.575 181.824 C 154.959 182.048 155.401 182.16 155.903 182.16 C 156.404 182.16 156.873 182.048 157.311 181.824 C 157.765 181.585 158.167 181.259 158.495 180.864 C 158.836 180.459 159.103 179.99 159.295 179.456 C 159.114 178.943 158.843 178.466 158.495 178.048 C 158.173 177.648 157.769 177.321 157.311 177.088 C 156.878 176.855 156.394 176.734 155.903 176.736 C 155.436 176.727 154.976 176.849 154.575 177.088 C 154.187 177.316 153.871 177.649 153.663 178.048 C 153.449 178.454 153.343 178.923 153.343 179.456 Z M 164.441 174.896 L 167.097 174.896 L 167.097 184 L 164.441 184 L 164.441 174.896 Z M 172.073 174.896 L 174.729 174.896 L 174.729 184 L 172.073 184 L 172.073 174.896 Z M 165.961 178.352 L 173.113 178.352 L 173.113 180.368 L 165.961 180.368 L 165.961 178.352 Z M 177.218 184 L 177.218 174.896 L 179.842 174.896 L 179.842 182.592 L 179.186 182.416 L 184.674 174.896 L 188.114 174.896 L 188.114 184 L 185.49 184 L 185.49 176.16 L 186.146 176.352 L 180.562 184 L 177.218 184 Z M 189.452 184 L 193.756 178.848 L 193.74 179.84 L 189.708 174.896 L 192.7 174.896 L 195.548 178.32 L 194.62 178.32 L 197.484 174.896 L 200.428 174.896 L 196.268 179.888 L 196.14 178.64 L 200.668 184 L 197.628 184 L 194.524 180.32 L 195.5 180.32 L 192.428 184 L 189.452 184 Z M 67.345 194.896 L 67.345 204 L 64.673 204 L 64.673 195.696 L 65.905 196.912 L 58.561 196.912 L 59.793 195.696 L 59.793 204 L 57.121 204 L 57.121 194.896 L 67.345 194.896 Z M 69.835 194.896 L 72.508 194.896 L 72.508 197.792 L 72.396 198.144 L 72.396 200.336 L 72.508 200.992 L 72.508 206.64 L 69.836 206.64 L 69.836 194.896 L 69.835 194.896 Z M 71.58 199.456 C 71.761 198.486 72.076 197.643 72.524 196.928 C 72.982 196.203 73.553 195.643 74.236 195.248 C 74.938 194.851 75.733 194.647 76.54 194.656 C 77.436 194.656 78.22 194.859 78.892 195.264 C 79.575 195.659 80.13 196.242 80.492 196.944 C 80.876 197.659 81.068 198.496 81.068 199.456 C 81.068 200.406 80.876 201.243 80.492 201.968 C 80.125 202.665 79.571 203.247 78.892 203.648 C 78.22 204.043 77.436 204.24 76.54 204.24 C 75.686 204.24 74.918 204.043 74.236 203.648 C 73.564 203.254 72.998 202.699 72.54 201.984 C 72.081 201.259 71.761 200.416 71.58 199.456 Z M 78.364 199.456 C 78.364 198.923 78.252 198.454 78.028 198.048 C 77.829 197.648 77.518 197.314 77.132 197.088 C 76.731 196.849 76.271 196.727 75.804 196.736 C 75.302 196.736 74.828 196.854 74.38 197.088 C 73.922 197.32 73.518 197.648 73.196 198.048 C 72.856 198.469 72.591 198.945 72.412 199.456 C 72.604 199.99 72.865 200.459 73.196 200.864 C 73.523 201.259 73.926 201.585 74.38 201.824 C 74.822 202.047 75.309 202.162 75.804 202.16 C 76.305 202.16 76.748 202.048 77.132 201.824 C 77.513 201.593 77.824 201.26 78.028 200.864 C 78.252 200.459 78.364 199.99 78.364 199.456 Z M 88.329 204.24 C 87.198 204.24 86.206 204.043 85.353 203.648 C 84.499 203.243 83.833 202.683 83.353 201.968 C 82.873 201.243 82.633 200.406 82.633 199.456 C 82.633 198.496 82.873 197.659 83.353 196.944 C 83.833 196.219 84.499 195.659 85.353 195.264 C 86.206 194.859 87.198 194.656 88.329 194.656 C 89.459 194.656 90.451 194.859 91.305 195.264 C 92.158 195.659 92.819 196.219 93.288 196.944 C 93.768 197.659 94.008 198.496 94.008 199.456 C 94.008 200.406 93.768 201.243 93.288 201.968 C 92.819 202.683 92.158 203.243 91.305 203.648 C 90.451 204.043 89.459 204.24 88.328 204.24 L 88.329 204.24 Z M 88.329 202.208 C 88.947 202.208 89.475 202.096 89.913 201.872 C 90.341 201.667 90.697 201.338 90.936 200.928 C 91.182 200.512 91.304 200.022 91.304 199.456 C 91.304 198.88 91.182 198.39 90.936 197.984 C 90.7 197.567 90.343 197.232 89.912 197.024 C 89.475 196.8 88.947 196.688 88.328 196.688 C 87.72 196.688 87.192 196.8 86.744 197.024 C 86.31 197.235 85.949 197.569 85.704 197.984 C 85.47 198.39 85.353 198.88 85.353 199.456 C 85.353 200.022 85.47 200.512 85.705 200.928 C 85.95 201.334 86.296 201.648 86.745 201.872 C 87.192 202.096 87.72 202.208 88.329 202.208 Z M 101.182 204.24 C 100.104 204.24 99.139 204.043 98.286 203.648 C 97.443 203.243 96.776 202.678 96.286 201.952 C 95.806 201.227 95.566 200.384 95.566 199.424 C 95.566 198.475 95.795 197.643 96.254 196.928 C 96.73 196.208 97.394 195.633 98.174 195.264 C 98.984 194.859 99.907 194.656 100.942 194.656 C 101.998 194.656 102.904 194.891 103.662 195.36 C 104.419 195.819 105 196.47 105.406 197.312 C 105.822 198.155 106.03 199.147 106.03 200.288 L 97.71 200.288 L 97.71 198.512 L 104.59 198.512 L 103.55 199.152 C 103.507 198.619 103.374 198.166 103.15 197.792 C 102.944 197.427 102.639 197.127 102.27 196.928 C 101.896 196.726 101.459 196.624 100.958 196.624 C 100.414 196.624 99.939 196.736 99.534 196.96 C 99.144 197.169 98.822 197.486 98.606 197.872 C 98.392 198.256 98.286 198.71 98.286 199.232 C 98.286 199.862 98.424 200.4 98.702 200.848 C 98.979 201.296 99.384 201.638 99.918 201.872 C 100.451 202.107 101.096 202.224 101.854 202.224 C 102.536 202.224 103.224 202.128 103.918 201.936 C 104.581 201.748 105.211 201.462 105.79 201.088 L 105.79 202.88 C 105.151 203.327 104.443 203.668 103.694 203.888 C 102.878 204.127 102.032 204.245 101.182 204.24 Z M 108.073 204 L 108.073 194.896 L 110.745 194.896 L 110.745 201.84 L 109.961 201.568 L 115.385 194.896 L 118.297 194.896 L 110.473 204 L 108.073 204 Z M 115.513 204 L 112.793 199.536 L 114.761 198.016 L 118.569 204 L 115.513 204 Z M 122.791 195.824 L 125.463 195.824 L 125.463 204 L 122.791 204 L 122.791 195.824 Z M 119.175 194.896 L 129.079 194.896 L 129.079 196.944 L 119.175 196.944 L 119.175 194.896 Z M 130.783 194.8 L 132.111 195.056 L 133.455 194.8 L 133.455 204 L 130.783 204 L 130.783 194.8 Z M 132.111 193.856 C 131.631 193.856 131.236 193.734 130.927 193.488 C 130.628 193.232 130.479 192.896 130.479 192.48 C 130.479 192.054 130.628 191.718 130.927 191.472 C 131.236 191.216 131.631 191.088 132.111 191.088 C 132.601 191.088 132.996 191.216 133.295 191.472 C 133.593 191.718 133.743 192.054 133.743 192.48 C 133.743 192.896 133.593 193.232 133.295 193.488 C 132.996 193.734 132.601 193.856 132.111 193.856 Z M 135.726 204 L 136.238 199.456 L 135.726 194.896 L 142.734 194.896 C 143.609 194.896 144.302 195.104 144.814 195.52 C 145.326 195.926 145.582 196.48 145.582 197.184 C 145.582 197.846 145.326 198.384 144.814 198.8 C 144.302 199.206 143.587 199.446 142.67 199.52 L 142.862 199.072 C 143.929 199.104 144.739 199.328 145.294 199.744 C 145.859 200.15 146.142 200.72 146.142 201.456 C 146.142 202.246 145.854 202.87 145.278 203.328 C 144.713 203.776 143.934 204 142.942 204 L 135.726 204 Z M 138.302 203.408 L 137.278 202.272 L 142.126 202.272 C 142.585 202.272 142.921 202.182 143.134 202 C 143.347 201.808 143.454 201.542 143.454 201.2 C 143.462 200.908 143.332 200.629 143.102 200.448 C 142.867 200.246 142.483 200.144 141.95 200.144 L 137.822 200.144 L 137.822 198.624 L 141.598 198.624 C 142.046 198.624 142.371 198.534 142.574 198.352 C 142.787 198.171 142.894 197.926 142.894 197.616 C 142.903 197.351 142.798 197.095 142.606 196.912 C 142.425 196.731 142.126 196.64 141.71 196.64 L 137.294 196.64 L 138.302 195.504 L 138.798 199.456 L 138.302 203.408 Z M 56.897 224 L 57.409 219.456 L 56.897 214.896 L 63.905 214.896 C 64.78 214.896 65.473 215.104 65.985 215.52 C 66.497 215.926 66.753 216.48 66.753 217.184 C 66.753 217.846 66.497 218.384 65.985 218.8 C 65.473 219.206 64.759 219.446 63.841 219.52 L 64.033 219.072 C 65.1 219.104 65.911 219.328 66.465 219.744 C 67.031 220.15 67.313 220.72 67.313 221.456 C 67.313 222.246 67.025 222.87 66.449 223.328 C 65.884 223.776 65.105 224 64.113 224 L 56.897 224 Z M 59.473 223.408 L 58.449 222.272 L 63.297 222.272 C 63.756 222.272 64.092 222.182 64.305 222 C 64.519 221.808 64.625 221.542 64.625 221.2 C 64.633 220.908 64.502 220.629 64.273 220.448 C 64.039 220.246 63.655 220.144 63.121 220.144 L 58.993 220.144 L 58.993 218.624 L 62.769 218.624 C 63.217 218.624 63.543 218.534 63.745 218.352 C 63.959 218.171 64.065 217.926 64.065 217.616 C 64.074 217.351 63.969 217.095 63.777 216.912 C 63.596 216.731 63.297 216.64 62.881 216.64 L 58.465 216.64 L 59.473 215.504 L 59.969 219.456 L 59.473 223.408 Z M 73.478 220.08 L 76.23 220.08 C 76.294 220.486 76.47 220.843 76.758 221.152 C 77.056 221.451 77.451 221.686 77.942 221.856 C 78.443 222.016 79.019 222.096 79.67 222.096 C 80.62 222.096 81.366 221.963 81.91 221.696 C 82.464 221.419 82.742 221.035 82.742 220.544 C 82.755 220.185 82.571 219.847 82.262 219.664 C 81.952 219.451 81.372 219.296 80.518 219.2 L 78.102 218.928 C 76.544 218.758 75.414 218.395 74.71 217.84 C 74.016 217.275 73.67 216.491 73.67 215.488 C 73.67 214.699 73.9 214.027 74.358 213.472 C 74.828 212.918 75.483 212.496 76.326 212.208 C 77.168 211.91 78.16 211.76 79.302 211.76 C 80.412 211.76 81.398 211.926 82.262 212.256 C 83.126 212.576 83.814 213.03 84.326 213.616 C 84.838 214.192 85.116 214.87 85.158 215.648 L 82.406 215.648 C 82.354 215.298 82.185 214.977 81.926 214.736 C 81.67 214.47 81.312 214.267 80.854 214.128 C 80.395 213.979 79.856 213.904 79.238 213.904 C 78.374 213.904 77.686 214.032 77.174 214.288 C 76.662 214.544 76.406 214.907 76.406 215.376 C 76.406 215.739 76.556 216.022 76.854 216.224 C 77.164 216.416 77.702 216.56 78.47 216.656 L 80.982 216.96 C 82.092 217.078 82.972 217.27 83.622 217.536 C 84.283 217.792 84.752 218.139 85.03 218.576 C 85.318 219.014 85.462 219.568 85.462 220.24 C 85.462 221.04 85.216 221.744 84.726 222.352 C 84.246 222.95 83.568 223.414 82.694 223.744 C 81.819 224.075 80.795 224.24 79.622 224.24 C 78.427 224.24 77.376 224.07 76.47 223.728 C 75.563 223.376 74.848 222.891 74.326 222.272 C 73.808 221.656 73.51 220.884 73.478 220.08 Z M 91.37 224.24 C 90.528 224.24 89.808 224.07 89.21 223.728 C 88.622 223.374 88.149 222.857 87.85 222.24 C 87.541 221.6 87.386 220.843 87.386 219.968 L 87.386 214.896 L 90.058 214.896 L 90.058 219.568 C 90.058 220.379 90.25 220.998 90.634 221.424 C 91.018 221.84 91.562 222.048 92.266 222.048 C 92.789 222.048 93.232 221.942 93.594 221.728 C 93.968 221.504 94.256 221.184 94.458 220.768 C 94.661 220.352 94.762 219.867 94.762 219.312 L 95.626 219.776 C 95.52 220.715 95.269 221.52 94.874 222.192 C 94.48 222.854 93.978 223.36 93.37 223.712 C 92.764 224.066 92.072 224.249 91.37 224.24 Z M 95.322 224 L 94.762 220.544 L 94.762 214.896 L 97.434 214.896 L 97.434 220.944 L 97.994 224 L 95.322 224 Z M 100.057 211.68 L 102.729 211.68 L 102.729 217.792 L 102.361 218.512 L 102.361 220.496 L 102.729 221.232 L 102.729 224 L 100.057 224 L 100.057 211.68 Z M 101.785 219.456 C 101.956 218.486 102.27 217.643 102.729 216.928 C 103.188 216.203 103.758 215.643 104.441 215.248 C 105.124 214.854 105.892 214.656 106.745 214.656 C 107.63 214.656 108.414 214.859 109.097 215.264 C 109.78 215.659 110.335 216.242 110.697 216.944 C 111.081 217.659 111.273 218.496 111.273 219.456 C 111.273 220.406 111.081 221.243 110.697 221.968 C 110.33 222.666 109.776 223.247 109.097 223.648 C 108.414 224.043 107.63 224.24 106.745 224.24 C 105.892 224.24 105.124 224.043 104.441 223.648 C 103.758 223.254 103.188 222.699 102.729 221.984 C 102.281 221.259 101.966 220.416 101.785 219.456 Z M 108.553 219.456 C 108.553 218.923 108.441 218.454 108.217 218.048 C 108.018 217.647 107.707 217.314 107.321 217.088 C 106.925 216.85 106.471 216.728 106.009 216.736 C 105.508 216.736 105.033 216.854 104.585 217.088 C 104.127 217.32 103.723 217.648 103.401 218.048 C 103.061 218.469 102.796 218.945 102.617 219.456 C 102.809 219.99 103.07 220.459 103.401 220.864 C 103.728 221.259 104.131 221.585 104.585 221.824 C 105.033 222.048 105.508 222.16 106.009 222.16 C 106.5 222.16 106.937 222.048 107.321 221.824 C 107.705 221.59 108.004 221.27 108.217 220.864 C 108.441 220.459 108.553 219.99 108.553 219.456 Z M 112.855 214.896 L 115.527 214.896 L 116.103 218.368 L 116.103 224 L 113.431 224 L 113.431 217.968 L 112.855 214.896 Z M 119.351 214.656 C 120.162 214.656 120.855 214.832 121.431 215.184 C 122.009 215.528 122.467 216.042 122.743 216.656 C 123.052 217.296 123.207 218.059 123.207 218.944 L 123.207 224 L 120.535 224 L 120.535 219.344 C 120.535 218.523 120.354 217.904 119.991 217.488 C 119.639 217.062 119.122 216.848 118.439 216.848 C 117.554 216.828 116.742 217.338 116.375 218.144 C 116.194 218.55 116.103 219.035 116.103 219.6 L 115.223 219.136 C 115.33 218.176 115.575 217.366 115.959 216.704 C 116.343 216.043 116.823 215.536 117.399 215.184 C 117.988 214.831 118.664 214.648 119.351 214.656 Z M 126.439 214.656 C 127.25 214.656 127.943 214.832 128.519 215.184 C 129.104 215.524 129.569 216.039 129.847 216.656 C 130.156 217.296 130.311 218.059 130.311 218.944 L 130.311 224 L 127.639 224 L 127.639 219.344 C 127.639 218.523 127.458 217.904 127.095 217.488 C 126.743 217.062 126.226 216.848 125.543 216.848 C 124.658 216.828 123.846 217.338 123.479 218.144 C 123.298 218.55 123.207 219.035 123.207 219.6 L 122.327 219.136 C 122.434 218.176 122.679 217.366 123.063 216.704 C 123.447 216.043 123.927 215.536 124.503 215.184 C 125.087 214.833 125.757 214.65 126.439 214.656 Z M 141.009 224 L 140.625 220.672 L 141.057 219.456 L 140.625 218.256 L 141.009 214.896 L 143.777 214.896 L 143.249 219.456 L 143.777 224 L 141.009 224 Z M 141.713 219.456 C 141.542 220.416 141.228 221.259 140.769 221.984 C 140.347 222.674 139.758 223.246 139.057 223.648 C 138.374 224.043 137.606 224.24 136.753 224.24 C 135.868 224.24 135.084 224.043 134.401 223.648 C 133.722 223.247 133.168 222.666 132.801 221.968 C 132.428 221.243 132.241 220.406 132.241 219.456 C 132.241 218.496 132.428 217.659 132.801 216.944 C 133.163 216.242 133.718 215.659 134.401 215.264 C 135.084 214.859 135.868 214.656 136.753 214.656 C 137.606 214.656 138.374 214.854 139.057 215.248 C 139.75 215.643 140.326 216.203 140.785 216.928 C 141.244 217.643 141.553 218.486 141.713 219.456 Z M 134.945 219.456 C 134.945 219.99 135.052 220.459 135.265 220.864 C 135.489 221.27 135.793 221.59 136.177 221.824 C 136.561 222.048 137.004 222.16 137.505 222.16 C 138.006 222.16 138.476 222.048 138.913 221.824 C 139.367 221.585 139.77 221.259 140.097 220.864 C 140.438 220.459 140.705 219.99 140.897 219.456 C 140.716 218.943 140.445 218.466 140.097 218.048 C 139.775 217.648 139.371 217.32 138.913 217.088 C 138.48 216.855 137.996 216.734 137.505 216.736 C 137.004 216.736 136.561 216.854 136.177 217.088 C 135.789 217.316 135.473 217.649 135.265 218.048 C 135.052 218.454 134.945 218.923 134.945 219.456 Z M 145.612 214.896 L 148.316 214.896 L 148.86 218.176 L 148.86 224 L 146.188 224 L 146.188 217.888 L 145.612 214.896 Z M 153.292 214.8 L 153.292 217.104 C 152.762 216.982 152.22 216.918 151.676 216.912 C 151.142 216.912 150.662 217.024 150.236 217.248 C 149.809 217.472 149.473 217.819 149.228 218.288 C 148.982 218.758 148.86 219.35 148.86 220.064 L 148.3 219.392 C 148.364 218.742 148.481 218.134 148.652 217.568 C 148.822 216.992 149.057 216.491 149.356 216.064 C 149.651 215.64 150.04 215.29 150.492 215.04 C 150.94 214.784 151.473 214.656 152.092 214.656 C 152.294 214.656 152.497 214.672 152.7 214.704 C 152.913 214.726 153.11 214.758 153.292 214.8 Z M 155.008 214.8 L 156.336 215.056 L 157.68 214.8 L 157.68 224 L 155.008 224 L 155.008 214.8 Z M 156.336 213.856 C 155.856 213.856 155.461 213.734 155.152 213.488 C 154.853 213.232 154.704 212.896 154.704 212.48 C 154.704 212.054 154.853 211.718 155.152 211.472 C 155.461 211.216 155.856 211.088 156.336 211.088 C 156.827 211.088 157.221 211.216 157.52 211.472 C 157.819 211.718 157.968 212.054 157.968 212.48 C 157.968 212.896 157.819 213.232 157.52 213.488 C 157.221 213.734 156.827 213.856 156.336 213.856 Z M 159.744 214.896 L 162.416 214.896 L 162.992 218.368 L 162.992 224 L 160.32 224 L 160.32 217.968 L 159.744 214.896 Z M 166.464 214.656 C 167.328 214.656 168.064 214.832 168.672 215.184 C 169.276 215.521 169.761 216.035 170.064 216.656 C 170.384 217.296 170.544 218.059 170.544 218.944 L 170.544 224 L 167.872 224 L 167.872 219.344 C 167.872 218.523 167.674 217.904 167.28 217.488 C 166.885 217.062 166.309 216.848 165.552 216.848 C 165.04 216.848 164.586 216.966 164.192 217.2 C 163.809 217.423 163.498 217.75 163.296 218.144 C 163.093 218.55 162.992 219.035 162.992 219.6 L 162.112 219.136 C 162.218 218.176 162.474 217.366 162.88 216.704 C 163.285 216.043 163.797 215.536 164.416 215.184 C 165.04 214.83 165.747 214.648 166.464 214.656 Z M 178.042 224.24 C 176.964 224.24 175.999 224.043 175.146 223.648 C 174.303 223.243 173.636 222.678 173.146 221.952 C 172.666 221.227 172.426 220.384 172.426 219.424 C 172.426 218.475 172.655 217.643 173.114 216.928 C 173.59 216.208 174.254 215.632 175.034 215.264 C 175.844 214.859 176.767 214.656 177.802 214.656 C 178.858 214.656 179.764 214.891 180.522 215.36 C 181.279 215.819 181.86 216.47 182.266 217.312 C 182.682 218.155 182.89 219.147 182.89 220.288 L 174.57 220.288 L 174.57 218.512 L 181.45 218.512 L 180.41 219.152 C 180.367 218.619 180.234 218.166 180.01 217.792 C 179.804 217.427 179.499 217.127 179.13 216.928 C 178.756 216.726 178.319 216.624 177.818 216.624 C 177.274 216.624 176.799 216.736 176.394 216.96 C 176.004 217.169 175.682 217.486 175.466 217.872 C 175.252 218.256 175.146 218.71 175.146 219.232 C 175.146 219.862 175.284 220.4 175.562 220.848 C 175.839 221.296 176.244 221.638 176.778 221.872 C 177.311 222.107 177.956 222.224 178.714 222.224 C 179.396 222.224 180.084 222.128 180.778 221.936 C 181.441 221.748 182.071 221.462 182.65 221.088 L 182.65 222.88 C 182.011 223.327 181.303 223.668 180.554 223.888 C 179.738 224.127 178.892 224.245 178.042 224.24 Z M 186.405 224.144 C 185.957 224.144 185.583 224 185.285 223.712 C 184.997 223.424 184.853 223.062 184.853 222.624 C 184.853 222.187 184.997 221.824 185.285 221.536 C 185.583 221.248 185.957 221.104 186.405 221.104 C 186.863 221.104 187.237 221.248 187.525 221.536 C 187.823 221.824 187.973 222.187 187.973 222.624 C 187.973 223.062 187.823 223.424 187.525 223.712 C 187.237 224 186.863 224.144 186.405 224.144 Z M 186.405 218.48 C 185.957 218.48 185.583 218.336 185.285 218.048 C 184.997 217.76 184.853 217.398 184.853 216.96 C 184.853 216.523 184.997 216.16 185.285 215.872 C 185.583 215.584 185.957 215.44 186.405 215.44 C 186.863 215.44 187.237 215.584 187.525 215.872 C 187.823 216.16 187.973 216.523 187.973 216.96 C 187.973 217.398 187.823 217.76 187.525 218.048 C 187.237 218.336 186.863 218.48 186.405 218.48 Z M 276.353 156.312 C 277.399 156.312 278.284 156.622 279.009 157.24 C 279.745 157.848 280.113 158.686 280.113 159.752 C 280.113 160.819 279.745 161.662 279.009 162.28 C 278.284 162.888 277.399 163.192 276.353 163.192 C 275.511 163.192 274.759 162.99 274.097 162.584 C 273.444 162.179 272.965 161.546 272.753 160.808 L 273.697 160.264 C 273.857 160.862 274.172 161.32 274.641 161.64 C 275.121 161.95 275.692 162.104 276.353 162.104 C 277.121 162.104 277.751 161.902 278.241 161.496 C 278.743 161.08 278.993 160.499 278.993 159.752 C 278.993 159.006 278.743 158.43 278.241 158.024 C 277.751 157.608 277.121 157.4 276.353 157.4 L 273.313 157.4 L 273.713 151.8 L 279.713 151.8 L 279.713 152.856 L 274.705 152.856 L 274.465 156.312 L 276.353 156.312 Z M 288.914 156.888 L 288.914 157.912 L 286.066 157.912 L 286.066 160.76 L 285.042 160.76 L 285.042 157.912 L 282.194 157.912 L 282.194 156.888 L 285.042 156.888 L 285.042 154.04 L 286.066 154.04 L 286.066 156.888 L 288.914 156.888 Z M 60.161 260 L 62.225 256.432 L 62.257 256.432 L 67.121 248 L 70.065 248 L 63.105 260 L 60.161 260 Z M 62.225 258.256 L 56.241 248 L 59.233 248 L 64.097 256.368 L 62.225 258.256 Z M 70.966 250.896 L 80.374 250.896 L 80.374 260 L 77.702 260 L 77.702 251.696 L 78.934 252.912 L 72.294 252.912 L 73.446 251.92 C 73.499 252.571 73.542 253.174 73.574 253.728 C 73.617 254.272 73.638 254.763 73.638 255.2 C 73.638 256.95 73.377 258.219 72.854 259.008 C 72.342 259.798 71.51 260.192 70.358 260.192 C 70.038 260.192 69.728 260.155 69.43 260.08 C 69.132 260.012 68.846 259.899 68.582 259.744 L 68.582 257.808 C 68.774 257.883 68.961 257.942 69.142 257.984 C 69.334 258.016 69.51 258.032 69.67 258.032 C 70.214 258.032 70.603 257.787 70.838 257.296 C 71.084 256.795 71.206 255.974 71.206 254.832 C 71.206 254.32 71.185 253.734 71.142 253.072 C 71.105 252.345 71.046 251.619 70.966 250.896 Z M 92.671 260.24 C 91.551 260.24 90.569 260.043 89.726 259.648 C 88.884 259.243 88.228 258.683 87.758 257.968 C 87.3 257.243 87.07 256.406 87.07 255.456 C 87.07 254.496 87.3 253.659 87.759 252.944 C 88.228 252.219 88.884 251.659 89.727 251.264 C 90.569 250.859 91.55 250.656 92.671 250.656 C 93.791 250.656 94.771 250.859 95.615 251.264 C 96.457 251.659 97.113 252.219 97.583 252.944 C 98.052 253.659 98.287 254.496 98.287 255.456 C 98.287 256.406 98.052 257.243 97.582 257.968 C 97.113 258.683 96.457 259.243 95.615 259.648 C 94.772 260.043 93.79 260.24 92.671 260.24 Z M 82.862 260 L 82.862 250.896 L 85.534 250.896 L 85.534 260 L 82.862 260 Z M 84.367 256.368 L 84.367 254.368 L 88.767 254.368 L 88.767 256.368 L 84.367 256.368 Z M 92.67 258.208 C 93.278 258.208 93.796 258.096 94.222 257.872 C 94.644 257.663 94.995 257.335 95.231 256.928 C 95.465 256.512 95.583 256.022 95.583 255.456 C 95.583 254.88 95.465 254.39 95.231 253.984 C 94.999 253.57 94.648 253.236 94.223 253.024 C 93.796 252.8 93.278 252.688 92.671 252.688 C 92.073 252.688 91.556 252.8 91.118 253.024 C 90.694 253.236 90.343 253.57 90.111 253.984 C 89.876 254.39 89.758 254.88 89.758 255.456 C 89.758 256.022 89.876 256.512 90.111 256.928 C 90.345 257.334 90.681 257.648 91.118 257.872 C 91.556 258.096 92.073 258.208 92.671 258.208 L 92.67 258.208 Z M 105.895 260.24 C 104.647 260.24 103.581 260.006 102.695 259.536 C 101.824 259.07 101.115 258.35 100.663 257.472 C 100.194 256.576 99.959 255.494 99.959 254.224 C 99.959 252.336 100.466 250.848 101.479 249.76 C 102.493 248.672 103.943 248.048 105.831 247.888 L 107.735 247.728 C 108.237 247.686 108.647 247.643 108.967 247.6 C 109.246 247.557 109.524 247.504 109.799 247.44 C 110.023 247.376 110.242 247.307 110.455 247.232 L 110.455 249.456 C 110.174 249.558 109.885 249.638 109.591 249.696 C 109.25 249.76 108.813 249.814 108.279 249.856 C 107.634 249.907 106.989 249.95 106.343 249.984 C 104.946 250.048 103.906 250.432 103.223 251.136 C 102.541 251.84 102.199 252.854 102.199 254.176 L 102.199 254.608 L 102.103 254.416 C 102.309 253.851 102.643 253.342 103.079 252.928 C 103.528 252.505 104.063 252.183 104.647 251.984 C 105.289 251.756 105.966 251.642 106.647 251.648 C 107.575 251.648 108.386 251.824 109.079 252.176 C 109.747 252.495 110.309 253.001 110.695 253.632 C 111.09 254.262 111.287 254.998 111.287 255.84 C 111.287 256.726 111.063 257.499 110.615 258.16 C 110.167 258.822 109.538 259.334 108.727 259.696 C 107.927 260.059 106.983 260.24 105.895 260.24 Z M 105.959 258.208 C 106.493 258.208 106.957 258.112 107.351 257.92 C 107.729 257.744 108.046 257.46 108.263 257.104 C 108.477 256.752 108.583 256.342 108.583 255.872 C 108.583 255.403 108.477 254.998 108.263 254.656 C 108.046 254.3 107.729 254.016 107.351 253.84 C 106.957 253.648 106.493 253.552 105.959 253.552 C 105.223 253.552 104.573 253.75 104.007 254.144 C 103.442 254.528 103.015 255.067 102.727 255.76 C 102.898 256.507 103.271 257.104 103.847 257.552 C 104.434 257.99 105.138 258.208 105.959 258.208 Z M 114.672 250.896 L 124.08 250.896 L 124.08 260 L 121.408 260 L 121.408 251.696 L 122.64 252.912 L 116 252.912 L 117.152 251.92 C 117.205 252.571 117.248 253.174 117.28 253.728 C 117.322 254.272 117.344 254.763 117.344 255.2 C 117.344 256.95 117.082 258.219 116.56 259.008 C 116.048 259.798 115.216 260.192 114.064 260.192 C 113.744 260.192 113.434 260.155 113.136 260.08 C 112.838 260.012 112.552 259.899 112.288 259.744 L 112.288 257.808 C 112.48 257.883 112.666 257.942 112.848 257.984 C 113.04 258.016 113.216 258.032 113.376 258.032 C 113.92 258.032 114.309 257.787 114.544 257.296 C 114.789 256.795 114.912 255.974 114.912 254.832 C 114.912 254.32 114.89 253.734 114.848 253.072 C 114.811 252.345 114.752 251.619 114.672 250.896 Z M 131.704 260.24 C 130.627 260.24 129.661 260.043 128.808 259.648 C 127.965 259.243 127.299 258.678 126.808 257.952 C 126.328 257.227 126.088 256.384 126.088 255.424 C 126.088 254.475 126.317 253.643 126.776 252.928 C 127.252 252.208 127.916 251.632 128.696 251.264 C 129.507 250.859 130.429 250.656 131.464 250.656 C 132.52 250.656 133.427 250.891 134.184 251.36 C 134.941 251.819 135.523 252.47 135.928 253.312 C 136.344 254.155 136.552 255.147 136.552 256.288 L 128.232 256.288 L 128.232 254.512 L 135.112 254.512 L 134.072 255.152 C 134.029 254.619 133.896 254.166 133.672 253.792 C 133.466 253.427 133.161 253.127 132.792 252.928 C 132.419 252.726 131.981 252.624 131.48 252.624 C 130.936 252.624 130.461 252.736 130.056 252.96 C 129.666 253.169 129.344 253.486 129.128 253.872 C 128.915 254.256 128.808 254.71 128.808 255.232 C 128.808 255.862 128.947 256.4 129.224 256.848 C 129.501 257.296 129.907 257.638 130.44 257.872 C 130.973 258.107 131.619 258.224 132.376 258.224 C 133.059 258.224 133.747 258.128 134.44 257.936 C 135.103 257.748 135.733 257.462 136.312 257.088 L 136.312 258.88 C 135.715 259.307 135.016 259.643 134.216 259.888 C 133.4 260.127 132.554 260.245 131.704 260.24 Z M 138.595 250.896 L 141.251 250.896 L 141.251 260 L 138.595 260 L 138.595 250.896 Z M 146.227 250.896 L 148.883 250.896 L 148.883 260 L 146.227 260 L 146.227 250.896 Z M 140.115 254.352 L 147.267 254.352 L 147.267 256.368 L 140.115 256.368 L 140.115 254.352 Z M 151.372 250.8 L 152.7 251.056 L 154.044 250.8 L 154.044 260 L 151.372 260 L 151.372 250.8 Z M 152.7 249.856 C 152.22 249.856 151.825 249.734 151.516 249.488 C 151.217 249.232 151.068 248.896 151.068 248.48 C 151.068 248.054 151.217 247.718 151.516 247.472 C 151.825 247.216 152.22 247.088 152.7 247.088 C 153.191 247.088 153.585 247.216 153.884 247.472 C 154.183 247.718 154.332 248.054 154.332 248.48 C 154.332 248.896 154.183 249.232 153.884 249.488 C 153.585 249.734 153.191 249.856 152.7 249.856 Z M 171.337 250.896 L 171.337 260 L 168.665 260 L 168.665 251.696 L 169.897 252.912 L 162.553 252.912 L 163.785 251.696 L 163.785 260 L 161.113 260 L 161.113 250.896 L 171.337 250.896 Z M 173.828 250.896 L 176.5 250.896 L 176.5 253.792 L 176.388 254.144 L 176.388 256.336 L 176.5 256.992 L 176.5 262.64 L 173.828 262.64 L 173.828 250.896 Z M 175.572 255.456 C 175.753 254.486 176.068 253.643 176.516 252.928 C 176.974 252.203 177.545 251.643 178.228 251.248 C 178.93 250.851 179.725 250.647 180.532 250.656 C 181.428 250.656 182.212 250.859 182.884 251.264 C 183.567 251.66 184.122 252.243 184.484 252.944 C 184.868 253.659 185.06 254.496 185.06 255.456 C 185.06 256.406 184.868 257.243 184.484 257.968 C 184.116 258.665 183.563 259.247 182.884 259.648 C 182.212 260.043 181.428 260.24 180.532 260.24 C 179.678 260.24 178.91 260.043 178.228 259.648 C 177.556 259.254 176.99 258.699 176.532 257.984 C 176.073 257.259 175.753 256.416 175.572 255.456 Z M 182.356 255.456 C 182.356 254.923 182.244 254.454 182.02 254.048 C 181.821 253.648 181.51 253.314 181.124 253.088 C 180.723 252.849 180.263 252.727 179.796 252.736 C 179.294 252.736 178.82 252.854 178.372 253.088 C 177.914 253.32 177.51 253.648 177.188 254.048 C 176.848 254.469 176.583 254.945 176.404 255.456 C 176.596 255.99 176.857 256.459 177.188 256.864 C 177.515 257.259 177.918 257.585 178.372 257.824 C 178.814 258.047 179.301 258.162 179.796 258.16 C 180.297 258.16 180.74 258.048 181.124 257.824 C 181.508 257.59 181.806 257.27 182.02 256.864 C 182.244 256.459 182.356 255.99 182.356 255.456 Z M 192.32 260.24 C 191.19 260.24 190.198 260.043 189.344 259.648 C 188.491 259.243 187.824 258.683 187.344 257.968 C 186.864 257.243 186.624 256.406 186.624 255.456 C 186.624 254.496 186.864 253.659 187.344 252.944 C 187.824 252.219 188.491 251.659 189.344 251.264 C 190.198 250.859 191.19 250.656 192.32 250.656 C 193.451 250.656 194.443 250.859 195.296 251.264 C 196.15 251.659 196.811 252.219 197.28 252.944 C 197.76 253.659 198 254.496 198 255.456 C 198 256.406 197.76 257.243 197.28 257.968 C 196.811 258.683 196.15 259.243 195.296 259.648 C 194.443 260.043 193.451 260.24 192.32 260.24 Z M 192.32 258.208 C 192.939 258.208 193.467 258.096 193.904 257.872 C 194.332 257.667 194.689 257.338 194.928 256.928 C 195.174 256.512 195.296 256.022 195.296 255.456 C 195.296 254.88 195.174 254.39 194.928 253.984 C 194.693 253.567 194.335 253.232 193.904 253.024 C 193.467 252.8 192.939 252.688 192.32 252.688 C 191.712 252.688 191.184 252.8 190.736 253.024 C 190.303 253.235 189.941 253.569 189.696 253.984 C 189.462 254.39 189.344 254.88 189.344 255.456 C 189.344 256.022 189.462 256.512 189.696 256.928 C 189.942 257.334 190.288 257.648 190.736 257.872 C 191.184 258.096 191.712 258.208 192.32 258.208 Z M 205.174 260.24 C 204.096 260.24 203.131 260.043 202.278 259.648 C 201.435 259.243 200.768 258.678 200.278 257.952 C 199.798 257.227 199.558 256.384 199.558 255.424 C 199.558 254.475 199.787 253.643 200.246 252.928 C 200.722 252.208 201.386 251.632 202.166 251.264 C 202.976 250.859 203.899 250.656 204.934 250.656 C 205.99 250.656 206.896 250.891 207.654 251.36 C 208.411 251.819 208.992 252.47 209.398 253.312 C 209.814 254.155 210.022 255.147 210.022 256.288 L 201.702 256.288 L 201.702 254.512 L 208.582 254.512 L 207.542 255.152 C 207.499 254.619 207.366 254.166 207.142 253.792 C 206.936 253.427 206.631 253.127 206.262 252.928 C 205.888 252.726 205.451 252.624 204.95 252.624 C 204.406 252.624 203.931 252.736 203.526 252.96 C 203.136 253.169 202.814 253.486 202.598 253.872 C 202.384 254.256 202.278 254.71 202.278 255.232 C 202.278 255.862 202.416 256.4 202.694 256.848 C 202.971 257.296 203.376 257.638 203.91 257.872 C 204.443 258.107 205.088 258.224 205.846 258.224 C 206.528 258.224 207.216 258.128 207.91 257.936 C 208.573 257.748 209.203 257.462 209.782 257.088 L 209.782 258.88 C 209.143 259.327 208.435 259.668 207.686 259.888 C 206.87 260.127 206.024 260.245 205.174 260.24 Z M 212.064 260 L 212.064 250.896 L 214.736 250.896 L 214.736 257.84 L 213.952 257.568 L 219.376 250.896 L 222.288 250.896 L 214.464 260 L 212.064 260 Z M 219.504 260 L 216.784 255.536 L 218.752 254.016 L 222.56 260 L 219.504 260 Z M 226.783 251.824 L 229.455 251.824 L 229.455 260 L 226.783 260 L 226.783 251.824 Z M 223.167 250.896 L 233.071 250.896 L 233.071 252.944 L 223.167 252.944 L 223.167 250.896 Z M 234.774 260 L 234.774 250.896 L 237.398 250.896 L 237.398 258.592 L 236.742 258.416 L 242.23 250.896 L 245.67 250.896 L 245.67 260 L 243.046 260 L 243.046 252.16 L 243.702 252.352 L 238.118 260 L 234.774 260 Z M 249.633 260.144 C 249.185 260.144 248.811 260 248.513 259.712 C 248.225 259.424 248.081 259.062 248.081 258.624 C 248.081 258.187 248.225 257.824 248.513 257.536 C 248.811 257.248 249.185 257.104 249.633 257.104 C 250.091 257.104 250.465 257.248 250.753 257.536 C 251.051 257.824 251.201 258.187 251.201 258.624 C 251.201 259.062 251.051 259.424 250.753 259.712 C 250.465 260 250.091 260.144 249.633 260.144 Z M 249.633 254.48 C 249.185 254.48 248.811 254.336 248.513 254.048 C 248.225 253.76 248.081 253.398 248.081 252.96 C 248.081 252.523 248.225 252.16 248.513 251.872 C 248.811 251.584 249.185 251.44 249.633 251.44 C 250.091 251.44 250.465 251.584 250.753 251.872 C 251.051 252.16 251.201 252.523 251.201 252.96 C 251.201 253.398 251.051 253.76 250.753 254.048 C 250.465 254.336 250.091 254.48 249.633 254.48 Z M 280.593 247.8 L 281.713 247.8 L 281.713 259 L 280.593 259 L 280.593 253.768 L 274.513 253.768 L 274.513 259 L 273.393 259 L 273.393 247.8 L 274.513 247.8 L 274.513 252.712 L 280.593 252.712 L 280.593 247.8 Z M 291.468 251 L 292.524 251 L 292.524 259 L 291.468 259 L 291.468 257.432 C 290.732 258.606 289.655 259.192 288.236 259.192 C 287.095 259.192 286.119 258.787 285.308 257.976 C 284.508 257.166 284.108 256.174 284.108 255 C 284.108 253.827 284.508 252.835 285.308 252.024 C 286.119 251.214 287.095 250.808 288.236 250.808 C 289.655 250.808 290.732 251.395 291.468 252.568 L 291.468 251 Z M 286.076 257.256 C 286.684 257.864 287.431 258.168 288.316 258.168 C 289.202 258.168 289.948 257.864 290.556 257.256 C 291.164 256.638 291.468 255.886 291.468 255 C 291.468 254.115 291.164 253.368 290.556 252.76 C 289.948 252.142 289.202 251.832 288.316 251.832 C 287.431 251.832 286.684 252.142 286.076 252.76 C 285.468 253.368 285.164 254.115 285.164 255 C 285.164 255.886 285.468 256.638 286.076 257.256 Z M 296.52 249.72 L 296.52 248.792 L 300.68 248.792 L 300.68 249.72 L 296.52 249.72 Z M 301.064 251 L 301.96 251 L 301.96 259 L 300.904 259 L 300.904 252.84 L 296.136 259 L 295.24 259 L 295.24 251 L 296.296 251 L 296.296 257.16 L 301.064 251 Z M 308.225 259.192 C 307.073 259.192 306.113 258.814 305.345 258.056 C 304.577 257.288 304.193 256.296 304.193 255.08 C 304.193 253.715 304.396 252.67 304.801 251.944 C 305.207 251.208 306.028 250.542 307.265 249.944 C 307.5 249.827 307.809 249.688 308.193 249.528 C 308.588 249.368 308.881 249.24 309.073 249.144 C 309.276 249.048 309.495 248.926 309.729 248.776 C 309.964 248.616 310.14 248.44 310.257 248.248 C 310.375 248.056 310.449 247.827 310.481 247.56 L 311.313 248.04 C 311.272 248.293 311.185 248.537 311.057 248.76 C 310.948 248.958 310.814 249.141 310.657 249.304 C 310.529 249.443 310.321 249.598 310.033 249.768 C 309.756 249.928 309.537 250.046 309.377 250.12 C 309.228 250.184 308.961 250.296 308.577 250.456 C 308.204 250.616 307.953 250.723 307.825 250.776 C 307.079 251.096 306.529 251.432 306.177 251.784 C 305.825 252.126 305.575 252.574 305.425 253.128 C 305.778 252.656 306.254 252.291 306.801 252.072 C 307.367 251.838 307.916 251.72 308.449 251.72 C 309.516 251.72 310.396 252.072 311.089 252.776 C 311.793 253.47 312.145 254.36 312.145 255.448 C 312.145 256.526 311.772 257.422 311.025 258.136 C 310.289 258.84 309.356 259.192 308.225 259.192 Z M 308.225 258.136 C 309.057 258.136 309.74 257.886 310.273 257.384 C 310.817 256.872 311.089 256.227 311.089 255.448 C 311.089 254.659 310.833 254.014 310.321 253.512 C 309.82 253 309.148 252.744 308.305 252.744 C 307.548 252.744 306.86 252.984 306.241 253.464 C 305.623 253.934 305.313 254.563 305.313 255.352 C 305.313 256.163 305.591 256.83 306.145 257.352 C 306.711 257.875 307.404 258.136 308.225 258.136 Z M 315.303 249.08 C 315.161 249.227 314.964 249.308 314.759 249.304 C 314.555 249.308 314.358 249.227 314.215 249.08 C 314.068 248.937 313.987 248.74 313.991 248.536 C 313.991 248.323 314.066 248.142 314.215 247.992 C 314.358 247.846 314.555 247.765 314.759 247.768 C 314.963 247.764 315.16 247.845 315.303 247.992 C 315.45 248.135 315.531 248.332 315.527 248.536 C 315.531 248.741 315.45 248.938 315.303 249.08 Z M 314.231 259 L 314.231 251 L 315.287 251 L 315.287 259 L 314.231 259 Z M 324.568 251 L 324.568 259 L 323.512 259 L 323.512 252.024 L 319.896 252.024 L 319.896 255.592 C 319.896 256.926 319.64 257.843 319.128 258.344 C 318.627 258.846 317.934 259.064 317.048 259 L 317.048 258.008 C 317.656 258.072 318.104 257.928 318.392 257.576 C 318.691 257.224 318.84 256.563 318.84 255.592 L 318.84 251 L 324.568 251 Z M 330.533 254.04 C 331.28 254.04 331.909 254.275 332.421 254.744 C 332.944 255.203 333.205 255.795 333.205 256.52 C 333.205 257.246 332.944 257.843 332.421 258.312 C 331.909 258.771 331.28 259 330.533 259 L 327.285 259 L 327.285 251 L 328.341 251 L 328.341 254.04 L 330.533 254.04 Z M 330.533 257.976 C 330.981 257.976 331.36 257.843 331.669 257.576 C 331.989 257.31 332.149 256.958 332.149 256.52 C 332.149 256.083 331.989 255.731 331.669 255.464 C 331.36 255.198 330.981 255.064 330.533 255.064 L 328.341 255.064 L 328.341 257.976 L 330.533 257.976 Z M 344.945 251 L 346.001 251 L 346.001 259 L 335.281 259 L 335.281 251 L 336.337 251 L 336.337 257.976 L 340.113 257.976 L 340.113 251 L 341.169 251 L 341.169 257.976 L 344.945 257.976 L 344.945 251 Z M 352.41 250.808 C 353.594 250.808 354.549 251.23 355.274 252.072 C 356.01 252.904 356.378 253.891 356.378 255.032 C 356.378 255.15 356.367 255.315 356.346 255.528 L 349.322 255.528 C 349.429 256.339 349.77 256.984 350.346 257.464 C 350.933 257.934 351.653 258.168 352.506 258.168 C 353.114 258.168 353.637 258.046 354.074 257.8 C 354.522 257.544 354.858 257.214 355.082 256.808 L 356.01 257.352 C 355.657 257.919 355.16 258.383 354.57 258.696 C 353.962 259.027 353.269 259.192 352.49 259.192 C 351.231 259.192 350.207 258.798 349.418 258.008 C 348.629 257.219 348.234 256.216 348.234 255 C 348.234 253.806 348.623 252.808 349.402 252.008 C 350.181 251.208 351.183 250.808 352.41 250.808 Z M 352.41 251.832 C 351.578 251.832 350.879 252.083 350.314 252.584 C 349.759 253.075 349.429 253.715 349.322 254.504 L 355.29 254.504 C 355.183 253.662 354.858 253.006 354.314 252.536 C 353.788 252.074 353.11 251.823 352.41 251.832 Z M 369.738 251 L 369.738 259 L 368.682 259 L 368.682 252.024 L 364.074 252.024 L 364.074 259 L 363.018 259 L 363.018 251 L 369.738 251 Z M 378.275 251 L 379.171 251 L 379.171 259 L 378.115 259 L 378.115 252.84 L 373.347 259 L 372.451 259 L 372.451 251 L 373.507 251 L 373.507 257.16 L 378.275 251 Z M 391.548 251 L 392.604 251 L 392.604 259 L 381.884 259 L 381.884 251 L 382.94 251 L 382.94 257.976 L 386.716 257.976 L 386.716 251 L 387.772 251 L 387.772 257.976 L 391.548 257.976 L 391.548 251 Z M 402.197 251 L 403.253 251 L 403.253 259 L 402.197 259 L 402.197 257.432 C 401.461 258.606 400.384 259.192 398.965 259.192 C 397.824 259.192 396.848 258.787 396.037 257.976 C 395.237 257.166 394.837 256.174 394.837 255 C 394.837 253.827 395.237 252.835 396.037 252.024 C 396.848 251.214 397.824 250.808 398.965 250.808 C 400.384 250.808 401.461 251.395 402.197 252.568 L 402.197 251 Z M 396.805 257.256 C 397.413 257.864 398.16 258.168 399.045 258.168 C 399.93 258.168 400.677 257.864 401.285 257.256 C 401.893 256.638 402.197 255.886 402.197 255 C 402.197 254.115 401.893 253.368 401.285 252.76 C 400.677 252.142 399.93 251.832 399.045 251.832 C 398.16 251.832 397.413 252.142 396.805 252.76 C 396.197 253.368 395.893 254.115 395.893 255 C 395.893 255.886 396.197 256.638 396.805 257.256 Z M 412.801 250.808 C 413.974 250.808 414.966 251.214 415.777 252.024 C 416.598 252.824 417.009 253.816 417.009 255 C 417.009 256.184 416.598 257.182 415.777 257.992 C 414.966 258.792 413.974 259.192 412.801 259.192 C 411.724 259.192 410.796 258.846 410.017 258.152 C 409.249 257.448 408.806 256.568 408.689 255.512 L 407.025 255.512 L 407.025 259 L 405.969 259 L 405.969 251 L 407.025 251 L 407.025 254.488 L 408.689 254.488 C 408.806 253.432 409.249 252.558 410.017 251.864 C 410.796 251.16 411.724 250.808 412.801 250.808 Z M 410.561 257.256 C 411.169 257.864 411.916 258.168 412.801 258.168 C 413.686 258.168 414.433 257.864 415.041 257.256 C 415.649 256.638 415.953 255.886 415.953 255 C 415.953 254.115 415.649 253.368 415.041 252.76 C 414.433 252.142 413.686 251.832 412.801 251.832 C 411.916 251.832 411.169 252.142 410.561 252.76 C 409.953 253.368 409.649 254.115 409.649 255 C 409.649 255.886 409.953 256.638 410.561 257.256 Z M 422.974 259.192 C 421.768 259.192 420.766 258.792 419.966 257.992 C 419.166 257.182 418.766 256.184 418.766 255 C 418.766 253.816 419.166 252.824 419.966 252.024 C 420.766 251.214 421.768 250.808 422.974 250.808 C 423.763 250.808 424.472 251 425.102 251.384 C 425.709 251.733 426.191 252.265 426.478 252.904 L 425.614 253.4 C 425.399 252.919 425.034 252.52 424.574 252.264 C 424.092 251.973 423.537 251.823 422.974 251.832 C 422.088 251.832 421.342 252.142 420.734 252.76 C 420.126 253.368 419.822 254.115 419.822 255 C 419.822 255.886 420.126 256.638 420.734 257.256 C 421.342 257.864 422.088 258.168 422.974 258.168 C 423.571 258.168 424.104 258.03 424.574 257.752 C 425.036 257.471 425.417 257.074 425.678 256.6 L 426.558 257.112 C 426.23 257.749 425.724 258.277 425.102 258.632 C 424.462 259.006 423.752 259.192 422.974 259.192 Z M 431.802 254.04 C 432.549 254.04 433.178 254.275 433.69 254.744 C 434.213 255.203 434.474 255.795 434.474 256.52 C 434.474 257.246 434.213 257.843 433.69 258.312 C 433.178 258.771 432.549 259 431.802 259 L 428.554 259 L 428.554 251 L 429.61 251 L 429.61 254.04 L 431.802 254.04 Z M 431.802 257.976 C 432.25 257.976 432.629 257.843 432.938 257.576 C 433.258 257.31 433.418 256.958 433.418 256.52 C 433.418 256.083 433.258 255.731 432.938 255.464 C 432.629 255.198 432.25 255.064 431.802 255.064 L 429.61 255.064 L 429.61 257.976 L 431.802 257.976 Z M 278.897 271 L 279.953 271 L 279.953 279 L 278.897 279 L 278.897 275.512 L 274.289 275.512 L 274.289 279 L 273.233 279 L 273.233 271 L 274.289 271 L 274.289 274.488 L 278.897 274.488 L 278.897 271 Z M 289.546 271 L 290.602 271 L 290.602 279 L 289.546 279 L 289.546 277.432 C 288.81 278.606 287.733 279.192 286.314 279.192 C 285.173 279.192 284.197 278.787 283.386 277.976 C 282.586 277.166 282.186 276.174 282.186 275 C 282.186 273.827 282.586 272.835 283.386 272.024 C 284.197 271.214 285.173 270.808 286.314 270.808 C 287.733 270.808 288.81 271.395 289.546 272.568 L 289.546 271 Z M 284.154 277.256 C 284.762 277.864 285.509 278.168 286.394 278.168 C 287.28 278.168 288.026 277.864 288.634 277.256 C 289.242 276.638 289.546 275.886 289.546 275 C 289.546 274.115 289.242 273.368 288.634 272.76 C 288.026 272.142 287.28 271.832 286.394 271.832 C 285.509 271.832 284.762 272.142 284.154 272.76 C 283.546 273.368 283.242 274.115 283.242 275 C 283.242 275.886 283.546 276.638 284.154 277.256 Z M 302.982 271 L 304.038 271 L 304.038 279 L 293.318 279 L 293.318 271 L 294.374 271 L 294.374 277.976 L 298.15 277.976 L 298.15 271 L 299.206 271 L 299.206 277.976 L 302.982 277.976 L 302.982 271 Z M 313.455 277.992 C 312.645 278.792 311.653 279.192 310.479 279.192 C 309.306 279.192 308.309 278.792 307.487 277.992 C 306.677 277.182 306.271 276.184 306.271 275 C 306.271 273.816 306.677 272.824 307.487 272.024 C 308.309 271.214 309.306 270.808 310.479 270.808 C 311.653 270.808 312.645 271.214 313.455 272.024 C 314.277 272.824 314.687 273.816 314.687 275 C 314.687 276.184 314.277 277.182 313.455 277.992 Z M 308.239 277.256 C 308.847 277.864 309.594 278.168 310.479 278.168 C 311.365 278.168 312.111 277.864 312.719 277.256 C 313.327 276.638 313.631 275.886 313.631 275 C 313.631 274.115 313.327 273.368 312.719 272.76 C 312.111 272.142 311.365 271.832 310.479 271.832 C 309.594 271.832 308.847 272.142 308.239 272.76 C 307.631 273.368 307.327 274.115 307.327 275 C 307.327 275.886 307.631 276.638 308.239 277.256 Z M 323.767 270.808 C 324.94 270.808 325.932 271.214 326.743 272.024 C 327.564 272.824 327.975 273.816 327.975 275 C 327.975 276.184 327.564 277.182 326.743 277.992 C 325.932 278.792 324.94 279.192 323.767 279.192 C 322.689 279.192 321.761 278.846 320.983 278.152 C 320.215 277.448 319.772 276.568 319.655 275.512 L 317.991 275.512 L 317.991 279 L 316.935 279 L 316.935 271 L 317.991 271 L 317.991 274.488 L 319.655 274.488 C 319.772 273.432 320.215 272.558 320.983 271.864 C 321.761 271.16 322.689 270.808 323.767 270.808 Z M 321.527 277.256 C 322.135 277.864 322.881 278.168 323.767 278.168 C 324.652 278.168 325.399 277.864 326.007 277.256 C 326.615 276.638 326.919 275.886 326.919 275 C 326.919 274.115 326.615 273.368 326.007 272.76 C 325.399 272.142 324.652 271.832 323.767 271.832 C 322.881 271.832 322.135 272.142 321.527 272.76 C 320.919 273.368 320.615 274.115 320.615 275 C 320.615 275.886 320.919 276.638 321.527 277.256 Z M 338.419 279.192 C 337.214 279.192 336.211 278.792 335.411 277.992 C 334.611 277.182 334.211 276.184 334.211 275 C 334.211 273.816 334.611 272.824 335.411 272.024 C 336.211 271.214 337.214 270.808 338.419 270.808 C 339.209 270.808 339.918 271 340.547 271.384 C 341.177 271.758 341.635 272.264 341.923 272.904 L 341.059 273.4 C 340.844 272.919 340.479 272.52 340.019 272.264 C 339.537 271.972 338.982 271.823 338.419 271.832 C 337.534 271.832 336.787 272.142 336.179 272.76 C 335.571 273.368 335.267 274.115 335.267 275 C 335.267 275.886 335.571 276.638 336.179 277.256 C 336.787 277.864 337.534 278.168 338.419 278.168 C 339.017 278.168 339.55 278.03 340.019 277.752 C 340.489 277.464 340.857 277.08 341.123 276.6 L 342.003 277.112 C 341.675 277.749 341.17 278.277 340.547 278.632 C 339.907 279.006 339.198 279.192 338.419 279.192 Z M 350.72 271 L 350.72 279 L 349.664 279 L 349.664 272.024 L 345.056 272.024 L 345.056 279 L 344 279 L 344 271 L 350.72 271 Z M 354.505 269.08 C 354.362 269.227 354.165 269.308 353.961 269.304 C 353.756 269.308 353.559 269.227 353.417 269.08 C 353.27 268.938 353.189 268.741 353.193 268.536 C 353.189 268.332 353.27 268.135 353.417 267.992 C 353.56 267.845 353.757 267.764 353.961 267.768 C 354.174 267.768 354.355 267.843 354.505 267.992 C 354.654 268.142 354.729 268.323 354.729 268.536 C 354.733 268.74 354.652 268.937 354.505 269.08 Z M 353.433 279 L 353.433 271 L 354.489 271 L 354.489 279 L 353.433 279 Z M 363.77 271 L 363.77 279 L 362.714 279 L 362.714 272.024 L 359.098 272.024 L 359.098 275.592 C 359.098 276.926 358.842 277.843 358.33 278.344 C 357.828 278.846 357.135 279.064 356.25 279 L 356.25 278.008 C 356.858 278.072 357.306 277.928 357.594 277.576 C 357.892 277.224 358.042 276.563 358.042 275.592 L 358.042 271 L 363.77 271 Z M 369.734 274.04 C 370.481 274.04 371.11 274.275 371.622 274.744 C 372.145 275.203 372.406 275.795 372.406 276.52 C 372.406 277.246 372.145 277.843 371.622 278.312 C 371.11 278.771 370.481 279 369.734 279 L 366.486 279 L 366.486 271 L 367.542 271 L 367.542 274.04 L 369.734 274.04 Z M 369.734 277.976 C 370.182 277.976 370.561 277.843 370.87 277.576 C 371.19 277.31 371.35 276.958 371.35 276.52 C 371.35 276.083 371.19 275.731 370.87 275.464 C 370.561 275.198 370.182 275.064 369.734 275.064 L 367.542 275.064 L 367.542 277.976 L 369.734 277.976 Z M 380.146 271 L 381.202 271 L 381.202 279 L 380.146 279 L 380.146 275.512 L 375.538 275.512 L 375.538 279 L 374.482 279 L 374.482 271 L 375.538 271 L 375.538 274.488 L 380.146 274.488 L 380.146 271 Z M 390.619 277.992 C 389.808 278.792 388.816 279.192 387.643 279.192 C 386.47 279.192 385.472 278.792 384.651 277.992 C 383.84 277.182 383.435 276.184 383.435 275 C 383.435 273.816 383.84 272.824 384.651 272.024 C 385.472 271.214 386.47 270.808 387.643 270.808 C 388.816 270.808 389.808 271.214 390.619 272.024 C 391.44 272.824 391.851 273.816 391.851 275 C 391.851 276.184 391.44 277.182 390.619 277.992 Z M 385.403 277.256 C 386.011 277.864 386.758 278.168 387.643 278.168 C 388.528 278.168 389.275 277.864 389.883 277.256 C 390.491 276.638 390.795 275.886 390.795 275 C 390.795 274.115 390.491 273.368 389.883 272.76 C 389.275 272.142 388.528 271.832 387.643 271.832 C 386.758 271.832 386.011 272.142 385.403 272.76 C 384.795 273.368 384.491 274.115 384.491 275 C 384.491 275.886 384.795 276.638 385.403 277.256 Z M 400.93 270.808 C 402.104 270.808 403.096 271.214 403.906 272.024 C 404.728 272.824 405.138 273.816 405.138 275 C 405.138 276.184 404.728 277.182 403.906 277.992 C 403.096 278.792 402.104 279.192 400.93 279.192 C 399.853 279.192 398.925 278.846 398.146 278.152 C 397.378 277.448 396.936 276.568 396.818 275.512 L 395.154 275.512 L 395.154 279 L 394.098 279 L 394.098 271 L 395.154 271 L 395.154 274.488 L 396.818 274.488 C 396.936 273.432 397.378 272.558 398.146 271.864 C 398.925 271.16 399.853 270.808 400.93 270.808 Z M 398.69 277.256 C 399.298 277.864 400.045 278.168 400.93 278.168 C 401.816 278.168 402.562 277.864 403.17 277.256 C 403.778 276.638 404.082 275.886 404.082 275 C 404.082 274.115 403.778 273.368 403.17 272.76 C 402.562 272.142 401.816 271.832 400.93 271.832 C 400.045 271.832 399.298 272.142 398.69 272.76 C 398.082 273.368 397.778 274.115 397.778 275 C 397.778 275.886 398.082 276.638 398.69 277.256 Z M 281.393 297.944 L 282.593 297.944 L 282.593 301.144 L 281.473 301.144 L 281.473 299 L 273.473 299 L 273.473 301.144 L 272.353 301.144 L 272.353 297.944 L 273.265 297.944 C 274.001 297.08 274.369 295.747 274.369 293.944 L 274.369 287.8 L 281.393 287.8 L 281.393 297.944 Z M 274.593 297.944 L 280.273 297.944 L 280.273 288.856 L 275.489 288.856 L 275.489 293.976 C 275.489 295.747 275.191 297.07 274.593 297.944 Z M 294.104 299 L 292.824 299 L 289.56 295.144 L 289.56 299 L 288.504 299 L 288.504 295.144 L 285.24 299 L 283.96 299 L 287.544 294.84 L 284.12 291 L 285.4 291 L 288.504 294.552 L 288.504 291 L 289.56 291 L 289.56 294.552 L 292.664 291 L 293.944 291 L 290.52 294.84 L 294.104 299 Z M 301.845 291 L 302.741 291 L 302.741 299 L 301.685 299 L 301.685 292.84 L 296.917 299 L 296.021 299 L 296.021 291 L 297.077 291 L 297.077 297.16 L 301.845 291 Z M 309.743 290.808 C 310.884 290.808 311.855 291.214 312.655 292.024 C 313.465 292.835 313.871 293.827 313.871 295 C 313.871 296.174 313.465 297.166 312.655 297.976 C 311.855 298.787 310.884 299.192 309.743 299.192 C 308.324 299.192 307.247 298.606 306.511 297.432 L 306.511 302.2 L 305.455 302.2 L 305.455 291 L 306.511 291 L 306.511 292.568 C 307.247 291.395 308.324 290.808 309.743 290.808 Z M 307.423 297.256 C 308.031 297.864 308.777 298.168 309.663 298.168 C 310.548 298.168 311.295 297.864 311.903 297.256 C 312.511 296.638 312.815 295.886 312.815 295 C 312.815 294.115 312.511 293.368 311.903 292.76 C 311.295 292.142 310.548 291.832 309.663 291.832 C 308.777 291.832 308.031 292.142 307.423 292.76 C 306.815 293.368 306.511 294.115 306.511 295 C 306.511 295.886 306.815 296.638 307.423 297.256 Z M 322.81 297.992 C 322 298.792 321.008 299.192 319.834 299.192 C 318.661 299.192 317.664 298.792 316.842 297.992 C 316.032 297.182 315.626 296.184 315.626 295 C 315.626 293.816 316.032 292.824 316.842 292.024 C 317.664 291.214 318.661 290.808 319.834 290.808 C 321.008 290.808 322 291.214 322.81 292.024 C 323.632 292.824 324.042 293.816 324.042 295 C 324.042 296.184 323.632 297.182 322.81 297.992 Z M 317.594 297.256 C 318.202 297.864 318.949 298.168 319.834 298.168 C 320.72 298.168 321.466 297.864 322.074 297.256 C 322.682 296.638 322.986 295.886 322.986 295 C 322.986 294.115 322.682 293.368 322.074 292.76 C 321.466 292.142 320.72 291.832 319.834 291.832 C 318.949 291.832 318.202 292.142 317.594 292.76 C 316.986 293.368 316.682 294.115 316.682 295 C 316.682 295.886 316.986 296.638 317.594 297.256 Z M 333.122 290.808 C 334.295 290.808 335.287 291.214 336.098 292.024 C 336.919 292.824 337.33 293.816 337.33 295 C 337.33 296.184 336.919 297.182 336.098 297.992 C 335.287 298.792 334.295 299.192 333.122 299.192 C 332.044 299.192 331.116 298.846 330.338 298.152 C 329.57 297.448 329.127 296.568 329.01 295.512 L 327.346 295.512 L 327.346 299 L 326.29 299 L 326.29 291 L 327.346 291 L 327.346 294.488 L 329.01 294.488 C 329.127 293.432 329.57 292.558 330.338 291.864 C 331.116 291.16 332.044 290.808 333.122 290.808 Z M 330.882 297.256 C 331.49 297.864 332.236 298.168 333.122 298.168 C 334.007 298.168 334.754 297.864 335.362 297.256 C 335.97 296.638 336.274 295.886 336.274 295 C 336.274 294.115 335.97 293.368 335.362 292.76 C 334.754 292.142 334.007 291.832 333.122 291.832 C 332.236 291.832 331.49 292.142 330.882 292.76 C 330.274 293.368 329.97 294.115 329.97 295 C 329.97 295.886 330.274 296.638 330.882 297.256 Z M 56.37 338.448 L 56.37 333.6 L 58.61 333.6 L 59.761 333.632 L 68.401 333.632 L 69.057 333.6 L 72.289 333.6 L 72.289 338.448 L 69.745 338.448 L 69.745 336 L 58.913 336 L 58.913 338.448 L 56.37 338.448 Z M 58.944 324 L 70.192 324 L 70.192 335.136 L 67.49 335.136 L 67.49 325.152 L 68.706 326.368 L 60.402 326.368 L 61.538 325.488 C 61.602 326.014 61.644 326.543 61.666 327.072 C 61.688 327.595 61.698 328.086 61.698 328.544 C 61.698 329.846 61.597 330.95 61.394 331.856 C 61.192 332.752 60.888 333.435 60.482 333.904 C 60.077 334.363 59.576 334.592 58.978 334.592 L 57.858 333.648 C 58.306 333.136 58.637 332.416 58.85 331.488 C 59.074 330.55 59.186 329.382 59.186 327.984 C 59.186 327.366 59.165 326.72 59.122 326.048 C 59.078 325.364 59.02 324.681 58.946 324 L 58.944 324 Z M 79.176 336.24 C 78.045 336.24 77.053 336.043 76.2 335.648 C 75.346 335.243 74.68 334.683 74.2 333.968 C 73.72 333.243 73.48 332.406 73.48 331.456 C 73.48 330.496 73.72 329.659 74.2 328.944 C 74.68 328.219 75.346 327.659 76.2 327.264 C 77.053 326.859 78.045 326.656 79.176 326.656 C 80.306 326.656 81.298 326.859 82.152 327.264 C 83.005 327.659 83.666 328.219 84.136 328.944 C 84.616 329.659 84.856 330.496 84.856 331.456 C 84.856 332.406 84.616 333.243 84.136 333.968 C 83.666 334.683 83.005 335.243 82.152 335.648 C 81.298 336.043 80.306 336.24 79.176 336.24 Z M 79.176 334.208 C 79.794 334.208 80.322 334.096 80.76 333.872 C 81.188 333.667 81.545 333.338 81.784 332.928 C 82.029 332.512 82.152 332.022 82.152 331.456 C 82.152 330.88 82.029 330.39 81.784 329.984 C 81.548 329.567 81.191 329.232 80.76 329.024 C 80.322 328.8 79.794 328.688 79.176 328.688 C 78.568 328.688 78.04 328.8 77.592 329.024 C 77.158 329.235 76.797 329.569 76.552 329.984 C 76.317 330.39 76.2 330.88 76.2 331.456 C 76.2 332.022 76.317 332.512 76.552 332.928 C 76.797 333.334 77.144 333.648 77.592 333.872 C 78.04 334.096 78.568 334.208 79.176 334.208 Z M 97.341 332.288 C 97.242 333.049 96.925 333.766 96.429 334.352 C 95.939 334.95 95.303 335.414 94.525 335.744 C 93.746 336.075 92.877 336.24 91.917 336.24 C 90.829 336.24 89.869 336.043 89.037 335.648 C 88.215 335.243 87.57 334.678 87.101 333.952 C 86.642 333.227 86.413 332.395 86.413 331.456 C 86.413 330.507 86.643 329.675 87.101 328.96 C 87.571 328.235 88.215 327.67 89.037 327.264 C 89.869 326.859 90.829 326.656 91.917 326.656 C 92.877 326.656 93.747 326.827 94.525 327.168 C 95.303 327.499 95.938 327.963 96.429 328.56 C 96.93 329.147 97.234 329.835 97.341 330.624 L 94.67 330.624 C 94.531 330.006 94.211 329.531 93.71 329.2 C 93.22 328.859 92.622 328.688 91.918 328.688 C 91.352 328.688 90.856 328.8 90.43 329.024 C 90.02 329.232 89.685 329.562 89.47 329.968 C 89.246 330.374 89.134 330.87 89.134 331.456 C 89.134 332.032 89.246 332.528 89.47 332.944 C 89.694 333.35 90.014 333.664 90.43 333.888 C 90.856 334.102 91.352 334.208 91.918 334.208 C 92.632 334.208 93.235 334.032 93.726 333.68 C 94.209 333.355 94.547 332.857 94.67 332.288 L 97.342 332.288 L 97.341 332.288 Z M 99.009 336 L 99.521 331.456 L 99.009 326.896 L 106.017 326.896 C 106.892 326.896 107.585 327.104 108.097 327.52 C 108.609 327.926 108.865 328.48 108.865 329.184 C 108.865 329.846 108.609 330.384 108.097 330.8 C 107.585 331.206 106.87 331.446 105.953 331.52 L 106.145 331.072 C 107.212 331.104 108.022 331.328 108.577 331.744 C 109.142 332.15 109.425 332.72 109.425 333.456 C 109.425 334.246 109.137 334.87 108.561 335.328 C 107.996 335.776 107.217 336 106.225 336 L 99.009 336 Z M 101.585 335.408 L 100.561 334.272 L 105.409 334.272 C 105.868 334.272 106.204 334.182 106.417 334 C 106.63 333.808 106.737 333.542 106.737 333.2 C 106.745 332.908 106.615 332.629 106.385 332.448 C 106.15 332.246 105.766 332.144 105.233 332.144 L 101.105 332.144 L 101.105 330.624 L 104.881 330.624 C 105.329 330.624 105.654 330.534 105.857 330.352 C 106.07 330.171 106.177 329.926 106.177 329.616 C 106.186 329.351 106.081 329.095 105.889 328.912 C 105.708 328.731 105.409 328.64 104.993 328.64 L 100.577 328.64 L 101.585 327.504 L 102.081 331.456 L 101.585 335.408 Z M 111.432 326.8 L 112.76 327.056 L 114.104 326.8 L 114.104 336 L 111.432 336 L 111.432 326.8 Z M 112.76 325.856 C 112.28 325.856 111.885 325.734 111.576 325.488 C 111.277 325.232 111.128 324.896 111.128 324.48 C 111.128 324.054 111.277 323.718 111.576 323.472 C 111.885 323.216 112.28 323.088 112.76 323.088 C 113.251 323.088 113.645 323.216 113.944 323.472 C 114.243 323.718 114.392 324.054 114.392 324.48 C 114.392 324.896 114.243 325.232 113.944 325.488 C 113.645 325.734 113.251 325.856 112.76 325.856 Z M 128.967 333.984 L 128.967 338.24 L 126.647 338.24 L 126.647 336 L 118.135 336 L 118.135 338.24 L 115.815 338.24 L 115.815 333.984 L 118.359 333.984 L 118.951 334.032 L 125.575 334.032 L 126.103 333.984 L 128.967 333.984 Z M 117.783 326.896 L 127.287 326.896 L 127.287 335.392 L 124.615 335.392 L 124.615 327.664 L 125.847 328.896 L 119.111 328.896 L 120.183 327.936 C 120.279 328.395 120.338 328.832 120.359 329.248 C 120.381 329.654 120.391 330.032 120.391 330.384 C 120.391 331.899 120.162 333.083 119.703 333.936 C 119.245 334.779 118.599 335.2 117.767 335.2 L 116.679 334.288 C 117.533 333.67 117.959 332.192 117.959 329.856 C 117.959 329.398 117.943 328.923 117.911 328.432 C 117.878 327.919 117.836 327.407 117.783 326.896 Z M 132.333 336.144 C 131.885 336.144 131.511 336 131.213 335.712 C 130.925 335.424 130.781 335.062 130.781 334.624 C 130.781 334.187 130.925 333.824 131.213 333.536 C 131.511 333.248 131.885 333.104 132.333 333.104 C 132.791 333.104 133.165 333.248 133.453 333.536 C 133.751 333.824 133.901 334.187 133.901 334.624 C 133.901 335.062 133.751 335.424 133.453 335.712 C 133.165 336 132.791 336.144 132.333 336.144 Z M 132.333 330.48 C 131.885 330.48 131.511 330.336 131.213 330.048 C 130.925 329.76 130.781 329.398 130.781 328.96 C 130.781 328.523 130.925 328.16 131.213 327.872 C 131.511 327.584 131.885 327.44 132.333 327.44 C 132.791 327.44 133.165 327.584 133.453 327.872 C 133.751 328.16 133.901 328.523 133.901 328.96 C 133.901 329.398 133.751 329.76 133.453 330.048 C 133.165 330.336 132.791 330.48 132.333 330.48 Z M 280.993 331.704 L 280.993 332.76 L 279.553 332.76 L 279.553 335 L 278.433 335 L 278.433 332.76 L 272.513 332.76 L 272.513 331.704 L 276.673 323.8 L 277.905 323.8 L 273.745 331.704 L 278.433 331.704 L 278.433 328.28 L 279.553 328.28 L 279.553 331.704 L 280.993 331.704 Z M 289.555 328.888 L 289.555 329.912 L 286.707 329.912 L 286.707 332.76 L 285.683 332.76 L 285.683 329.912 L 282.835 329.912 L 282.835 328.888 L 285.683 328.888 L 285.683 326.04 L 286.707 326.04 L 286.707 328.888 L 289.555 328.888 Z M 300.883 326.808 C 302.024 326.808 302.995 327.214 303.795 328.024 C 304.606 328.835 305.011 329.827 305.011 331 C 305.011 332.174 304.606 333.166 303.795 333.976 C 302.995 334.787 302.024 335.192 300.883 335.192 C 299.464 335.192 298.387 334.606 297.651 333.432 L 297.651 338.2 L 296.595 338.2 L 296.595 327 L 297.651 327 L 297.651 328.568 C 298.387 327.395 299.464 326.808 300.883 326.808 Z M 298.563 333.256 C 299.171 333.864 299.918 334.168 300.803 334.168 C 301.688 334.168 302.435 333.864 303.043 333.256 C 303.651 332.638 303.955 331.886 303.955 331 C 303.955 330.115 303.651 329.368 303.043 328.76 C 302.435 328.142 301.688 327.832 300.803 327.832 C 299.918 327.832 299.171 328.142 298.563 328.76 C 297.955 329.368 297.651 330.115 297.651 331 C 297.651 331.886 297.955 332.638 298.563 333.256 Z M 313.951 333.992 C 313.14 334.792 312.148 335.192 310.975 335.192 C 309.802 335.192 308.804 334.792 307.983 333.992 C 307.172 333.182 306.767 332.184 306.767 331 C 306.767 329.816 307.172 328.824 307.983 328.024 C 308.804 327.214 309.802 326.808 310.975 326.808 C 312.148 326.808 313.14 327.214 313.951 328.024 C 314.772 328.824 315.183 329.816 315.183 331 C 315.183 332.184 314.772 333.182 313.951 333.992 Z M 308.735 333.256 C 309.343 333.864 310.09 334.168 310.975 334.168 C 311.86 334.168 312.607 333.864 313.215 333.256 C 313.823 332.638 314.127 331.886 314.127 331 C 314.127 330.115 313.823 329.368 313.215 328.76 C 312.607 328.142 311.86 327.832 310.975 327.832 C 310.09 327.832 309.343 328.142 308.735 328.76 C 308.127 329.368 307.823 330.115 307.823 331 C 307.823 331.886 308.127 332.638 308.735 333.256 Z M 323.894 335 L 322.486 335 L 318.486 331.144 L 318.486 335 L 317.43 335 L 317.43 327 L 318.486 327 L 318.486 330.536 L 322.294 327 L 323.734 327 L 319.606 330.84 L 323.894 335 Z M 331.64 327 L 332.536 327 L 332.536 335 L 331.48 335 L 331.48 328.84 L 326.712 335 L 325.816 335 L 325.816 327 L 326.872 327 L 326.872 333.16 L 331.64 327 Z M 60.161 372 L 62.225 368.432 L 62.257 368.432 L 67.121 360 L 70.065 360 L 63.105 372 L 60.161 372 Z M 62.225 370.256 L 56.241 360 L 59.233 360 L 64.097 368.368 L 62.225 370.256 Z M 70.966 362.896 L 80.374 362.896 L 80.374 372 L 77.702 372 L 77.702 363.696 L 78.934 364.912 L 72.294 364.912 L 73.446 363.92 C 73.499 364.571 73.542 365.174 73.574 365.728 C 73.617 366.272 73.638 366.763 73.638 367.2 C 73.638 368.95 73.377 370.219 72.854 371.008 C 72.342 371.798 71.51 372.192 70.358 372.192 C 70.038 372.192 69.728 372.155 69.43 372.08 C 69.132 372.012 68.846 371.899 68.582 371.744 L 68.582 369.808 C 68.774 369.883 68.961 369.942 69.142 369.984 C 69.334 370.016 69.51 370.032 69.67 370.032 C 70.214 370.032 70.603 369.787 70.838 369.296 C 71.084 368.795 71.206 367.974 71.206 366.832 C 71.206 366.32 71.185 365.734 71.142 365.072 C 71.105 364.345 71.046 363.619 70.966 362.896 Z M 92.671 372.24 C 91.551 372.24 90.569 372.043 89.726 371.648 C 88.884 371.243 88.228 370.683 87.758 369.968 C 87.3 369.243 87.07 368.406 87.07 367.456 C 87.07 366.496 87.3 365.659 87.759 364.944 C 88.228 364.219 88.884 363.659 89.727 363.264 C 90.569 362.859 91.55 362.656 92.671 362.656 C 93.791 362.656 94.771 362.859 95.615 363.264 C 96.457 363.659 97.113 364.219 97.583 364.944 C 98.052 365.659 98.287 366.496 98.287 367.456 C 98.287 368.406 98.052 369.243 97.582 369.968 C 97.113 370.683 96.457 371.243 95.615 371.648 C 94.772 372.043 93.79 372.24 92.671 372.24 Z M 82.862 372 L 82.862 362.896 L 85.534 362.896 L 85.534 372 L 82.862 372 Z M 84.367 368.368 L 84.367 366.368 L 88.767 366.368 L 88.767 368.368 L 84.367 368.368 Z M 92.67 370.208 C 93.278 370.208 93.796 370.096 94.222 369.872 C 94.644 369.663 94.995 369.335 95.231 368.928 C 95.465 368.512 95.583 368.022 95.583 367.456 C 95.583 366.88 95.465 366.39 95.231 365.984 C 94.999 365.57 94.648 365.236 94.223 365.024 C 93.796 364.8 93.278 364.688 92.671 364.688 C 92.073 364.688 91.556 364.8 91.118 365.024 C 90.694 365.236 90.343 365.57 90.111 365.984 C 89.876 366.39 89.758 366.88 89.758 367.456 C 89.758 368.022 89.876 368.512 90.111 368.928 C 90.345 369.334 90.681 369.648 91.118 369.872 C 91.556 370.096 92.073 370.208 92.671 370.208 L 92.67 370.208 Z M 105.895 372.24 C 104.647 372.24 103.581 372.006 102.695 371.536 C 101.824 371.07 101.115 370.35 100.663 369.472 C 100.194 368.576 99.959 367.494 99.959 366.224 C 99.959 364.336 100.466 362.848 101.479 361.76 C 102.493 360.672 103.943 360.048 105.831 359.888 L 107.735 359.728 C 108.237 359.686 108.647 359.643 108.967 359.6 C 109.246 359.557 109.524 359.504 109.799 359.44 C 110.023 359.376 110.242 359.307 110.455 359.232 L 110.455 361.456 C 110.174 361.558 109.885 361.638 109.591 361.696 C 109.25 361.76 108.813 361.814 108.279 361.856 C 107.634 361.907 106.989 361.95 106.343 361.984 C 104.946 362.048 103.906 362.432 103.223 363.136 C 102.541 363.84 102.199 364.854 102.199 366.176 L 102.199 366.608 L 102.103 366.416 C 102.309 365.851 102.643 365.342 103.079 364.928 C 103.528 364.505 104.063 364.183 104.647 363.984 C 105.289 363.756 105.966 363.642 106.647 363.648 C 107.575 363.648 108.386 363.824 109.079 364.176 C 109.747 364.495 110.309 365.001 110.695 365.632 C 111.09 366.262 111.287 366.998 111.287 367.84 C 111.287 368.726 111.063 369.499 110.615 370.16 C 110.167 370.822 109.538 371.334 108.727 371.696 C 107.927 372.059 106.983 372.24 105.895 372.24 Z M 105.959 370.208 C 106.493 370.208 106.957 370.112 107.351 369.92 C 107.729 369.744 108.046 369.46 108.263 369.104 C 108.477 368.752 108.583 368.342 108.583 367.872 C 108.583 367.403 108.477 366.998 108.263 366.656 C 108.046 366.3 107.729 366.016 107.351 365.84 C 106.957 365.648 106.493 365.552 105.959 365.552 C 105.223 365.552 104.573 365.75 104.007 366.144 C 103.442 366.528 103.015 367.067 102.727 367.76 C 102.898 368.507 103.271 369.104 103.847 369.552 C 104.434 369.99 105.138 370.208 105.959 370.208 Z M 114.672 362.896 L 124.08 362.896 L 124.08 372 L 121.408 372 L 121.408 363.696 L 122.64 364.912 L 116 364.912 L 117.152 363.92 C 117.205 364.571 117.248 365.174 117.28 365.728 C 117.322 366.272 117.344 366.763 117.344 367.2 C 117.344 368.95 117.082 370.219 116.56 371.008 C 116.048 371.798 115.216 372.192 114.064 372.192 C 113.744 372.192 113.434 372.155 113.136 372.08 C 112.838 372.012 112.552 371.899 112.288 371.744 L 112.288 369.808 C 112.48 369.883 112.666 369.942 112.848 369.984 C 113.04 370.016 113.216 370.032 113.376 370.032 C 113.92 370.032 114.309 369.787 114.544 369.296 C 114.789 368.795 114.912 367.974 114.912 366.832 C 114.912 366.32 114.89 365.734 114.848 365.072 C 114.811 364.345 114.752 363.619 114.672 362.896 Z M 131.704 372.24 C 130.627 372.24 129.661 372.043 128.808 371.648 C 127.965 371.243 127.299 370.678 126.808 369.952 C 126.328 369.227 126.088 368.384 126.088 367.424 C 126.088 366.475 126.317 365.643 126.776 364.928 C 127.252 364.208 127.916 363.632 128.696 363.264 C 129.507 362.859 130.429 362.656 131.464 362.656 C 132.52 362.656 133.427 362.891 134.184 363.36 C 134.941 363.819 135.523 364.47 135.928 365.312 C 136.344 366.155 136.552 367.147 136.552 368.288 L 128.232 368.288 L 128.232 366.512 L 135.112 366.512 L 134.072 367.152 C 134.029 366.619 133.896 366.166 133.672 365.792 C 133.466 365.427 133.161 365.127 132.792 364.928 C 132.419 364.726 131.981 364.624 131.48 364.624 C 130.936 364.624 130.461 364.736 130.056 364.96 C 129.666 365.169 129.344 365.486 129.128 365.872 C 128.915 366.256 128.808 366.71 128.808 367.232 C 128.808 367.862 128.947 368.4 129.224 368.848 C 129.501 369.296 129.907 369.638 130.44 369.872 C 130.973 370.107 131.619 370.224 132.376 370.224 C 133.059 370.224 133.747 370.128 134.44 369.936 C 135.103 369.748 135.733 369.462 136.312 369.088 L 136.312 370.88 C 135.715 371.307 135.016 371.643 134.216 371.888 C 133.4 372.127 132.554 372.245 131.704 372.24 Z M 138.595 362.896 L 141.251 362.896 L 141.251 372 L 138.595 372 L 138.595 362.896 Z M 146.227 362.896 L 148.883 362.896 L 148.883 372 L 146.227 372 L 146.227 362.896 Z M 140.115 366.352 L 147.267 366.352 L 147.267 368.368 L 140.115 368.368 L 140.115 366.352 Z M 151.372 372 L 151.372 362.896 L 153.996 362.896 L 153.996 370.592 L 153.34 370.416 L 158.828 362.896 L 162.268 362.896 L 162.268 372 L 159.644 372 L 159.644 364.16 L 160.3 364.352 L 154.716 372 L 151.372 372 Z M 164.758 372 L 164.758 362.896 L 167.382 362.896 L 167.382 370.592 L 166.726 370.416 L 172.214 362.896 L 175.654 362.896 L 175.654 372 L 173.03 372 L 173.03 364.16 L 173.686 364.352 L 168.102 372 L 164.758 372 Z M 170.134 362.064 C 169.099 362.064 168.267 361.814 167.638 361.312 C 167.009 360.8 166.619 360.059 166.47 359.088 L 168.566 359.088 C 168.641 359.547 168.811 359.899 169.078 360.144 C 169.355 360.379 169.707 360.496 170.134 360.496 C 170.561 360.496 170.907 360.379 171.174 360.144 C 171.441 359.899 171.617 359.547 171.702 359.088 L 173.782 359.088 C 173.643 360.059 173.254 360.8 172.614 361.312 C 171.985 361.814 171.158 362.064 170.134 362.064 Z M 190.27 362.896 L 190.27 364.944 L 184.158 364.944 L 185.39 363.728 L 185.39 372 L 182.718 372 L 182.718 362.896 L 190.27 362.896 Z M 194.54 374.88 C 193.993 374.888 193.448 374.812 192.924 374.656 C 192.441 374.505 191.983 374.284 191.564 374 L 191.564 372.08 C 192.012 372.368 192.438 372.576 192.844 372.704 C 193.249 372.832 193.697 372.896 194.188 372.896 C 194.625 372.896 195.014 372.795 195.356 372.592 C 195.697 372.4 195.98 372.054 196.204 371.552 L 199.996 362.896 L 202.828 362.896 L 198.284 372.416 C 198.006 373.014 197.67 373.494 197.276 373.856 C 196.904 374.205 196.462 374.472 195.98 374.64 C 195.521 374.8 195.041 374.88 194.54 374.88 Z M 195.116 371.424 L 191.1 362.896 L 194.044 362.896 L 197.724 371.424 L 195.116 371.424 Z M 204.381 362.896 L 207.053 362.896 L 207.053 365.792 L 206.941 366.144 L 206.941 368.336 L 207.053 368.992 L 207.053 374.64 L 204.381 374.64 L 204.381 362.896 Z M 206.125 367.456 C 206.307 366.486 206.621 365.643 207.069 364.928 C 207.528 364.203 208.099 363.643 208.781 363.248 C 209.484 362.851 210.278 362.647 211.085 362.656 C 211.981 362.656 212.765 362.859 213.437 363.264 C 214.12 363.659 214.675 364.242 215.037 364.944 C 215.421 365.659 215.613 366.496 215.613 367.456 C 215.613 368.406 215.421 369.243 215.037 369.968 C 214.67 370.666 214.116 371.247 213.437 371.648 C 212.765 372.043 211.981 372.24 211.085 372.24 C 210.232 372.24 209.464 372.043 208.781 371.648 C 208.109 371.254 207.544 370.699 207.085 369.984 C 206.627 369.259 206.307 368.416 206.125 367.456 Z M 212.909 367.456 C 212.909 366.923 212.797 366.454 212.573 366.048 C 212.374 365.647 212.063 365.314 211.677 365.088 C 211.276 364.849 210.816 364.727 210.349 364.736 C 209.848 364.736 209.373 364.854 208.925 365.088 C 208.467 365.321 208.063 365.648 207.741 366.048 C 207.402 366.47 207.137 366.946 206.957 367.456 C 207.149 367.99 207.411 368.459 207.741 368.864 C 208.083 369.27 208.477 369.59 208.925 369.824 C 209.373 370.048 209.848 370.16 210.349 370.16 C 210.851 370.16 211.293 370.048 211.677 369.824 C 212.061 369.59 212.36 369.27 212.573 368.864 C 212.797 368.459 212.909 367.99 212.909 367.456 Z M 220.162 363.824 L 222.834 363.824 L 222.834 372 L 220.162 372 L 220.162 363.824 Z M 216.546 362.896 L 226.45 362.896 L 226.45 364.944 L 216.546 364.944 L 216.546 362.896 Z M 229.626 372.144 C 229.178 372.144 228.804 372 228.506 371.712 C 228.218 371.424 228.074 371.062 228.074 370.624 C 228.074 370.187 228.218 369.824 228.506 369.536 C 228.804 369.248 229.178 369.104 229.626 369.104 C 230.084 369.104 230.458 369.248 230.746 369.536 C 231.044 369.824 231.194 370.187 231.194 370.624 C 231.194 371.062 231.044 371.424 230.746 371.712 C 230.458 372 230.084 372.144 229.626 372.144 Z M 229.626 366.48 C 229.178 366.48 228.804 366.336 228.506 366.048 C 228.218 365.76 228.074 365.398 228.074 364.96 C 228.074 364.523 228.218 364.16 228.506 363.872 C 228.804 363.584 229.178 363.44 229.626 363.44 C 230.084 363.44 230.458 363.584 230.746 363.872 C 231.044 364.16 231.194 364.523 231.194 364.96 C 231.194 365.398 231.044 365.76 230.746 366.048 C 230.458 366.336 230.084 366.48 229.626 366.48 Z M 280.849 371 L 279.809 368.248 L 274.497 368.248 L 273.457 371 L 272.273 371 L 276.577 359.8 L 277.729 359.8 L 282.033 371 L 280.849 371 Z M 274.897 367.192 L 279.409 367.192 L 277.153 361.192 L 274.897 367.192 Z M 288.777 371.192 C 287.081 371.192 285.678 370.632 284.569 369.512 C 283.46 368.392 282.905 367.022 282.905 365.4 C 282.905 363.779 283.46 362.408 284.569 361.288 C 285.678 360.168 287.081 359.608 288.777 359.608 C 289.812 359.608 290.761 359.859 291.625 360.36 C 292.465 360.827 293.158 361.52 293.625 362.36 L 292.633 362.936 C 292.279 362.252 291.734 361.685 291.065 361.304 C 290.371 360.899 289.581 360.689 288.777 360.696 C 287.38 360.696 286.238 361.15 285.353 362.056 C 284.468 362.963 284.025 364.078 284.025 365.4 C 284.025 366.723 284.468 367.838 285.353 368.744 C 286.238 369.651 287.38 370.104 288.777 370.104 C 289.609 370.104 290.372 369.902 291.065 369.496 C 291.735 369.115 292.28 368.548 292.633 367.864 L 293.625 368.424 C 293.166 369.267 292.5 369.939 291.625 370.44 C 290.76 370.942 289.777 371.202 288.777 371.192 Z M 296.107 372.6 L 295.307 372.6 L 301.707 358.2 L 302.507 358.2 L 296.107 372.6 Z M 309.231 359.8 C 310.757 359.8 312.015 360.344 313.007 361.432 C 314.01 362.51 314.511 363.832 314.511 365.4 C 314.511 366.968 314.01 368.296 313.007 369.384 C 312.015 370.462 310.757 371 309.231 371 L 304.911 371 L 304.911 359.8 L 309.231 359.8 Z M 309.231 369.944 C 310.458 369.944 311.461 369.507 312.239 368.632 C 313.029 367.758 313.423 366.68 313.423 365.4 C 313.423 364.12 313.029 363.043 312.239 362.168 C 311.461 361.294 310.458 360.856 309.231 360.856 L 306.031 360.856 L 306.031 369.944 L 309.231 369.944 Z M 322.139 371.192 C 320.443 371.192 319.04 370.632 317.931 369.512 C 316.822 368.392 316.267 367.022 316.267 365.4 C 316.267 363.779 316.822 362.408 317.931 361.288 C 319.04 360.168 320.443 359.608 322.139 359.608 C 323.174 359.608 324.123 359.859 324.987 360.36 C 325.827 360.827 326.52 361.52 326.987 362.36 L 325.995 362.936 C 325.641 362.252 325.096 361.685 324.427 361.304 C 323.733 360.899 322.943 360.689 322.139 360.696 C 320.742 360.696 319.6 361.15 318.715 362.056 C 317.83 362.963 317.387 364.078 317.387 365.4 C 317.387 366.723 317.83 367.838 318.715 368.744 C 319.6 369.651 320.742 370.104 322.139 370.104 C 322.971 370.104 323.734 369.902 324.427 369.496 C 325.097 369.115 325.642 368.548 325.995 367.864 L 326.987 368.424 C 326.528 369.267 325.862 369.939 324.987 370.44 C 324.122 370.942 323.139 371.202 322.139 371.192 Z"/>
</svg>
