<?xml version="1.0" encoding="utf-8"?>
<svg width="450" height="545" viewBox="0 0 450 545" fill="none" xmlns="http://www.w3.org/2000/svg">
  <defs/>
  <path d="M72.981 37.8787L1.94649 284.958C0.655208 289.449 0 294.1 0 298.773V471.869C0 490.733 10.6165 507.991 27.4535 516.497L70.4798 538.235C79.2149 542.648 89.0529 544.4 98.7746 543.275L405.748 507.749C430.97 504.83 450 483.471 450 458.08V149.035L437.268 45.8775C434.072 19.9787 411.495 0.893345 385.426 2.05141L258.049 7.70977L123.245 1.74288C100.152 0.720667 79.3681 15.6624 72.981 37.8787Z" fill="#C0B7EE"/>
  <path d="M57.232 164V152H59.936V161.792L59.168 161.248L66.592 152H69.488L59.68 164H57.232ZM62.96 158.128L64.912 156.384L69.664 164H66.56L62.96 158.128ZM71.0974 154.8L72.4254 155.056L73.7694 154.8V164H71.0974V154.8ZM72.4254 153.856C71.9454 153.856 71.5507 153.733 71.2414 153.488C70.9427 153.232 70.7934 152.896 70.7934 152.48C70.7934 152.053 70.9427 151.717 71.2414 151.472C71.5507 151.216 71.9454 151.088 72.4254 151.088C72.916 151.088 73.3107 151.216 73.6094 151.472C73.908 151.717 74.0574 152.053 74.0574 152.48C74.0574 152.896 73.908 153.232 73.6094 153.488C73.3107 153.733 72.916 153.856 72.4254 153.856ZM77.8329 154.896H87.2409V164H84.5689V155.696L85.8009 156.912H79.1609L80.3129 155.92C80.3662 156.571 80.4089 157.173 80.4409 157.728C80.4835 158.272 80.5049 158.763 80.5049 159.2C80.5049 160.949 80.2435 162.219 79.7209 163.008C79.2089 163.797 78.3769 164.192 77.2249 164.192C76.9049 164.192 76.5955 164.155 76.2969 164.08C76.0089 164.016 75.7262 163.904 75.4489 163.744V161.808C75.6409 161.883 75.8275 161.941 76.0089 161.984C76.2009 162.016 76.3769 162.032 76.5369 162.032C77.0809 162.032 77.4702 161.787 77.7049 161.296C77.9502 160.795 78.0729 159.973 78.0729 158.832C78.0729 158.32 78.0515 157.733 78.0089 157.072C77.9769 156.411 77.9182 155.685 77.8329 154.896ZM89.7292 164V154.896H92.3852V163.312L91.5212 162.08H95.0732C95.5639 162.08 95.9426 161.963 96.2092 161.728C96.4759 161.483 96.6092 161.152 96.6092 160.736C96.6092 160.299 96.4759 159.963 96.2092 159.728C95.9426 159.483 95.5639 159.36 95.0732 159.36H91.5372V157.52H95.4732C96.2519 157.52 96.9239 157.659 97.4892 157.936C98.0652 158.203 98.5132 158.581 98.8332 159.072C99.1532 159.552 99.3132 160.117 99.3132 160.768C99.3132 161.408 99.1532 161.973 98.8332 162.464C98.5132 162.955 98.0706 163.333 97.5052 163.6C96.9399 163.867 96.2732 164 95.5052 164H89.7292ZM101.1 164V154.896H103.772V161.84L102.988 161.568L108.412 154.896H111.324L103.5 164H101.1ZM108.54 164L105.82 159.536L107.788 158.016L111.596 164H108.54ZM112.986 154.8L114.314 155.056L115.658 154.8V164H112.986V154.8ZM114.314 153.856C113.834 153.856 113.439 153.733 113.13 153.488C112.831 153.232 112.682 152.896 112.682 152.48C112.682 152.053 112.831 151.717 113.13 151.472C113.439 151.216 113.834 151.088 114.314 151.088C114.805 151.088 115.199 151.216 115.498 151.472C115.797 151.717 115.946 152.053 115.946 152.48C115.946 152.896 115.797 153.232 115.498 153.488C115.199 153.733 114.805 153.856 114.314 153.856ZM128.602 160.288C128.495 161.067 128.191 161.755 127.69 162.352C127.199 162.949 126.564 163.413 125.786 163.744C125.007 164.075 124.138 164.24 123.178 164.24C122.09 164.24 121.13 164.043 120.298 163.648C119.476 163.243 118.831 162.677 118.362 161.952C117.903 161.227 117.674 160.395 117.674 159.456C117.674 158.507 117.903 157.675 118.362 156.96C118.831 156.235 119.476 155.669 120.298 155.264C121.13 154.859 122.09 154.656 123.178 154.656C124.138 154.656 125.007 154.827 125.786 155.168C126.564 155.499 127.199 155.963 127.69 156.56C128.191 157.147 128.495 157.835 128.602 158.624H125.93C125.791 158.005 125.471 157.531 124.97 157.2C124.479 156.859 123.882 156.688 123.178 156.688C122.612 156.688 122.116 156.8 121.69 157.024C121.274 157.237 120.954 157.552 120.73 157.968C120.506 158.373 120.394 158.869 120.394 159.456C120.394 160.032 120.506 160.528 120.73 160.944C120.954 161.349 121.274 161.664 121.69 161.888C122.116 162.101 122.612 162.208 123.178 162.208C123.892 162.208 124.495 162.032 124.986 161.68C125.487 161.328 125.802 160.864 125.93 160.288H128.602ZM133.013 155.824H135.685V164H133.013V155.824ZM129.397 154.896H139.301V156.944H129.397V154.896ZM141.004 164V154.896H143.66V163.312L142.796 162.08H146.348C146.839 162.08 147.218 161.963 147.484 161.728C147.751 161.483 147.884 161.152 147.884 160.736C147.884 160.299 147.751 159.963 147.484 159.728C147.218 159.483 146.839 159.36 146.348 159.36H142.812V157.52H146.748C147.527 157.52 148.199 157.659 148.764 157.936C149.34 158.203 149.788 158.581 150.108 159.072C150.428 159.552 150.588 160.117 150.588 160.768C150.588 161.408 150.428 161.973 150.108 162.464C149.788 162.955 149.346 163.333 148.78 163.6C148.215 163.867 147.548 164 146.78 164H141.004ZM57.008 174.896H59.68V177.792L59.568 178.144V180.336L59.68 180.992V186.64H57.008V174.896ZM58.752 179.456C58.9333 178.485 59.248 177.643 59.696 176.928C60.1547 176.203 60.7253 175.643 61.408 175.248C62.1013 174.853 62.8693 174.656 63.712 174.656C64.608 174.656 65.392 174.859 66.064 175.264C66.7467 175.659 67.28 176.219 67.664 176.944C68.048 177.659 68.24 178.496 68.24 179.456C68.24 180.405 68.048 181.243 67.664 181.968C67.28 182.683 66.7467 183.243 66.064 183.648C65.392 184.043 64.608 184.24 63.712 184.24C62.8587 184.24 62.0907 184.043 61.408 183.648C60.736 183.253 60.1707 182.699 59.712 181.984C59.2533 181.259 58.9333 180.416 58.752 179.456ZM65.536 179.456C65.536 178.923 65.424 178.453 65.2 178.048C64.9867 177.632 64.688 177.312 64.304 177.088C63.92 176.853 63.4773 176.736 62.976 176.736C62.4747 176.736 62 176.853 61.552 177.088C61.104 177.312 60.7093 177.632 60.368 178.048C60.0373 178.453 59.776 178.923 59.584 179.456C59.776 179.989 60.0373 180.459 60.368 180.864C60.7093 181.269 61.104 181.589 61.552 181.824C62 182.048 62.4747 182.16 62.976 182.16C63.4773 182.16 63.92 182.048 64.304 181.824C64.688 181.589 64.9867 181.269 65.2 180.864C65.424 180.459 65.536 179.989 65.536 179.456ZM75.4209 184.24C74.3435 184.24 73.3782 184.043 72.5249 183.648C71.6822 183.243 71.0155 182.677 70.5249 181.952C70.0449 181.227 69.8049 180.384 69.8049 179.424C69.8049 178.475 70.0342 177.643 70.4929 176.928C70.9622 176.213 71.6022 175.659 72.4129 175.264C73.2235 174.859 74.1462 174.656 75.1809 174.656C76.2369 174.656 77.1435 174.891 77.9009 175.36C78.6582 175.819 79.2395 176.469 79.6449 177.312C80.0609 178.155 80.2689 179.147 80.2689 180.288H71.9489V178.512H78.8289L77.7889 179.152C77.7462 178.619 77.6129 178.165 77.3889 177.792C77.1755 177.419 76.8822 177.131 76.5089 176.928C76.1355 176.725 75.6982 176.624 75.1969 176.624C74.6529 176.624 74.1782 176.736 73.7729 176.96C73.3782 177.173 73.0689 177.477 72.8449 177.872C72.6315 178.256 72.5249 178.709 72.5249 179.232C72.5249 179.861 72.6635 180.4 72.9409 180.848C73.2182 181.296 73.6235 181.637 74.1569 181.872C74.6902 182.107 75.3355 182.224 76.0929 182.224C76.7755 182.224 77.4635 182.128 78.1569 181.936C78.8502 181.733 79.4742 181.451 80.0289 181.088V182.88C79.4315 183.307 78.7329 183.643 77.9329 183.888C77.1435 184.123 76.3062 184.24 75.4209 184.24ZM90.6477 184L90.2637 180.672L90.6957 179.456L90.2637 178.256L90.6477 174.896H93.4157L92.8877 179.456L93.4157 184H90.6477ZM91.3517 179.456C91.1811 180.416 90.8664 181.259 90.4077 181.984C89.9597 182.699 89.3891 183.253 88.6957 183.648C88.0131 184.043 87.2451 184.24 86.3917 184.24C85.5064 184.24 84.7224 184.043 84.0397 183.648C83.3571 183.243 82.8237 182.683 82.4397 181.968C82.0664 181.243 81.8797 180.405 81.8797 179.456C81.8797 178.496 82.0664 177.659 82.4397 176.944C82.8237 176.219 83.3571 175.659 84.0397 175.264C84.7224 174.859 85.5064 174.656 86.3917 174.656C87.2451 174.656 88.0131 174.853 88.6957 175.248C89.3891 175.643 89.9651 176.203 90.4237 176.928C90.8824 177.643 91.1917 178.485 91.3517 179.456ZM84.5837 179.456C84.5837 179.989 84.6904 180.459 84.9037 180.864C85.1277 181.269 85.4317 181.589 85.8157 181.824C86.1997 182.048 86.6424 182.16 87.1437 182.16C87.6451 182.16 88.1144 182.048 88.5517 181.824C88.9997 181.589 89.3944 181.269 89.7357 180.864C90.0771 180.459 90.3437 179.989 90.5357 179.456C90.3437 178.923 90.0771 178.453 89.7357 178.048C89.3944 177.632 88.9997 177.312 88.5517 177.088C88.1144 176.853 87.6451 176.736 87.1437 176.736C86.6424 176.736 86.1997 176.853 85.8157 177.088C85.4317 177.312 85.1277 177.632 84.9037 178.048C84.6904 178.453 84.5837 178.923 84.5837 179.456ZM97.2504 174.896H106.658V184H103.986V175.696L105.218 176.912H98.5784L99.7304 175.92C99.7837 176.571 99.8264 177.173 99.8584 177.728C99.901 178.272 99.9224 178.763 99.9224 179.2C99.9224 180.949 99.661 182.219 99.1384 183.008C98.6264 183.797 97.7944 184.192 96.6424 184.192C96.3224 184.192 96.013 184.155 95.7144 184.08C95.4264 184.016 95.1437 183.904 94.8664 183.744V181.808C95.0584 181.883 95.245 181.941 95.4264 181.984C95.6184 182.016 95.7944 182.032 95.9544 182.032C96.4984 182.032 96.8877 181.787 97.1224 181.296C97.3677 180.795 97.4904 179.973 97.4904 178.832C97.4904 178.32 97.469 177.733 97.4264 177.072C97.3944 176.411 97.3357 175.685 97.2504 174.896ZM109.147 174.8L110.475 175.056L111.819 174.8V184H109.147V174.8ZM110.475 173.856C109.995 173.856 109.6 173.733 109.291 173.488C108.992 173.232 108.843 172.896 108.843 172.48C108.843 172.053 108.992 171.717 109.291 171.472C109.6 171.216 109.995 171.088 110.475 171.088C110.965 171.088 111.36 171.216 111.659 171.472C111.957 171.717 112.107 172.053 112.107 172.48C112.107 172.896 111.957 173.232 111.659 173.488C111.36 173.733 110.965 173.856 110.475 173.856ZM118.81 184.24C117.797 184.24 116.912 184.112 116.154 183.856C115.397 183.589 114.805 183.211 114.378 182.72C113.952 182.219 113.717 181.632 113.674 180.96H116.266C116.341 181.408 116.597 181.749 117.034 181.984C117.472 182.219 118.064 182.336 118.81 182.336C119.525 182.336 120.08 182.245 120.474 182.064C120.88 181.872 121.082 181.579 121.082 181.184C121.082 180.864 120.912 180.629 120.57 180.48C120.24 180.32 119.706 180.24 118.97 180.24H117.274V178.64H118.922C119.584 178.64 120.069 178.544 120.378 178.352C120.698 178.16 120.858 177.92 120.858 177.632C120.858 177.28 120.672 177.013 120.298 176.832C119.936 176.651 119.445 176.56 118.826 176.56C118.144 176.56 117.594 176.667 117.178 176.88C116.762 177.093 116.517 177.413 116.442 177.84H113.866C113.909 177.253 114.133 176.72 114.538 176.24C114.944 175.76 115.514 175.376 116.25 175.088C116.997 174.8 117.893 174.656 118.938 174.656C119.866 174.656 120.677 174.768 121.37 174.992C122.064 175.216 122.602 175.525 122.986 175.92C123.37 176.315 123.562 176.768 123.562 177.28C123.562 177.685 123.434 178.059 123.178 178.4C122.933 178.741 122.533 179.013 121.978 179.216C121.434 179.419 120.72 179.52 119.834 179.52V179.248C121.104 179.195 122.08 179.349 122.762 179.712C123.456 180.075 123.802 180.629 123.802 181.376C123.802 181.92 123.605 182.411 123.21 182.848C122.826 183.285 122.261 183.627 121.514 183.872C120.768 184.117 119.866 184.24 118.81 184.24ZM131.073 184.24C129.942 184.24 128.95 184.043 128.097 183.648C127.243 183.243 126.577 182.683 126.097 181.968C125.617 181.243 125.377 180.405 125.377 179.456C125.377 178.496 125.617 177.659 126.097 176.944C126.577 176.219 127.243 175.659 128.097 175.264C128.95 174.859 129.942 174.656 131.073 174.656C132.203 174.656 133.195 174.859 134.049 175.264C134.902 175.659 135.563 176.219 136.033 176.944C136.513 177.659 136.753 178.496 136.753 179.456C136.753 180.405 136.513 181.243 136.033 181.968C135.563 182.683 134.902 183.243 134.049 183.648C133.195 184.043 132.203 184.24 131.073 184.24ZM131.073 182.208C131.691 182.208 132.219 182.096 132.657 181.872C133.105 181.648 133.446 181.333 133.681 180.928C133.926 180.512 134.049 180.021 134.049 179.456C134.049 178.88 133.926 178.389 133.681 177.984C133.446 177.568 133.105 177.248 132.657 177.024C132.219 176.8 131.691 176.688 131.073 176.688C130.465 176.688 129.937 176.8 129.489 177.024C129.041 177.248 128.694 177.568 128.449 177.984C128.214 178.389 128.097 178.88 128.097 179.456C128.097 180.021 128.214 180.512 128.449 180.928C128.694 181.333 129.041 181.648 129.489 181.872C129.937 182.096 130.465 182.208 131.073 182.208ZM138.535 184L139.047 179.456L138.535 174.896H145.543C146.417 174.896 147.111 175.104 147.623 175.52C148.135 175.925 148.391 176.48 148.391 177.184C148.391 177.845 148.135 178.384 147.623 178.8C147.111 179.205 146.396 179.445 145.479 179.52L145.671 179.072C146.737 179.104 147.548 179.328 148.103 179.744C148.668 180.149 148.951 180.72 148.951 181.456C148.951 182.245 148.663 182.869 148.087 183.328C147.521 183.776 146.743 184 145.751 184H138.535ZM141.111 183.408L140.087 182.272H144.935C145.393 182.272 145.729 182.181 145.943 182C146.156 181.808 146.263 181.541 146.263 181.2C146.263 180.891 146.145 180.64 145.911 180.448C145.676 180.245 145.292 180.144 144.759 180.144H140.631V178.624H144.407C144.855 178.624 145.18 178.533 145.383 178.352C145.596 178.171 145.703 177.925 145.703 177.616C145.703 177.328 145.607 177.093 145.415 176.912C145.233 176.731 144.935 176.64 144.519 176.64H140.103L141.111 175.504L141.607 179.456L141.111 183.408ZM159.293 184L158.909 180.672L159.341 179.456L158.909 178.256L159.293 174.896H162.061L161.533 179.456L162.061 184H159.293ZM159.997 179.456C159.827 180.416 159.512 181.259 159.053 181.984C158.605 182.699 158.035 183.253 157.341 183.648C156.659 184.043 155.891 184.24 155.037 184.24C154.152 184.24 153.368 184.043 152.685 183.648C152.003 183.243 151.469 182.683 151.085 181.968C150.712 181.243 150.525 180.405 150.525 179.456C150.525 178.496 150.712 177.659 151.085 176.944C151.469 176.219 152.003 175.659 152.685 175.264C153.368 174.859 154.152 174.656 155.037 174.656C155.891 174.656 156.659 174.853 157.341 175.248C158.035 175.643 158.611 176.203 159.069 176.928C159.528 177.643 159.837 178.485 159.997 179.456ZM153.229 179.456C153.229 179.989 153.336 180.459 153.549 180.864C153.773 181.269 154.077 181.589 154.461 181.824C154.845 182.048 155.288 182.16 155.789 182.16C156.291 182.16 156.76 182.048 157.197 181.824C157.645 181.589 158.04 181.269 158.381 180.864C158.723 180.459 158.989 179.989 159.181 179.456C158.989 178.923 158.723 178.453 158.381 178.048C158.04 177.632 157.645 177.312 157.197 177.088C156.76 176.853 156.291 176.736 155.789 176.736C155.288 176.736 154.845 176.853 154.461 177.088C154.077 177.312 153.773 177.632 153.549 178.048C153.336 178.453 153.229 178.923 153.229 179.456ZM164.328 174.896H166.984V184H164.328V174.896ZM171.96 174.896H174.616V184H171.96V174.896ZM165.848 178.352H173V180.368H165.848V178.352ZM177.105 184V174.896H179.729V182.592L179.073 182.416L184.561 174.896H188.001V184H185.377V176.16L186.033 176.352L180.449 184H177.105ZM189.339 184L193.643 178.848L193.627 179.84L189.595 174.896H192.587L195.435 178.32H194.507L197.371 174.896H200.315L196.155 179.888L196.027 178.64L200.555 184H197.515L194.411 180.32H195.387L192.315 184H189.339ZM67.232 194.896V204H64.56V195.696L65.792 196.912H58.448L59.68 195.696V204H57.008V194.896H67.232ZM69.7224 194.896H72.3944V197.792L72.2824 198.144V200.336L72.3944 200.992V206.64H69.7224V194.896ZM71.4664 199.456C71.6477 198.485 71.9624 197.643 72.4104 196.928C72.869 196.203 73.4397 195.643 74.1224 195.248C74.8157 194.853 75.5837 194.656 76.4264 194.656C77.3224 194.656 78.1064 194.859 78.7784 195.264C79.461 195.659 79.9944 196.219 80.3784 196.944C80.7624 197.659 80.9544 198.496 80.9544 199.456C80.9544 200.405 80.7624 201.243 80.3784 201.968C79.9944 202.683 79.461 203.243 78.7784 203.648C78.1064 204.043 77.3224 204.24 76.4264 204.24C75.573 204.24 74.805 204.043 74.1224 203.648C73.4504 203.253 72.885 202.699 72.4264 201.984C71.9677 201.259 71.6477 200.416 71.4664 199.456ZM78.2504 199.456C78.2504 198.923 78.1384 198.453 77.9144 198.048C77.701 197.632 77.4024 197.312 77.0184 197.088C76.6344 196.853 76.1917 196.736 75.6904 196.736C75.189 196.736 74.7144 196.853 74.2664 197.088C73.8184 197.312 73.4237 197.632 73.0824 198.048C72.7517 198.453 72.4904 198.923 72.2984 199.456C72.4904 199.989 72.7517 200.459 73.0824 200.864C73.4237 201.269 73.8184 201.589 74.2664 201.824C74.7144 202.048 75.189 202.16 75.6904 202.16C76.1917 202.16 76.6344 202.048 77.0184 201.824C77.4024 201.589 77.701 201.269 77.9144 200.864C78.1384 200.459 78.2504 199.989 78.2504 199.456ZM88.2152 204.24C87.0846 204.24 86.0926 204.043 85.2392 203.648C84.3859 203.243 83.7192 202.683 83.2392 201.968C82.7592 201.243 82.5192 200.405 82.5192 199.456C82.5192 198.496 82.7592 197.659 83.2392 196.944C83.7192 196.219 84.3859 195.659 85.2392 195.264C86.0926 194.859 87.0846 194.656 88.2152 194.656C89.3459 194.656 90.3379 194.859 91.1912 195.264C92.0446 195.659 92.7059 196.219 93.1753 196.944C93.6552 197.659 93.8952 198.496 93.8952 199.456C93.8952 200.405 93.6552 201.243 93.1753 201.968C92.7059 202.683 92.0446 203.243 91.1912 203.648C90.3379 204.043 89.3459 204.24 88.2152 204.24ZM88.2152 202.208C88.8339 202.208 89.3619 202.096 89.7992 201.872C90.2472 201.648 90.5886 201.333 90.8232 200.928C91.0686 200.512 91.1912 200.021 91.1912 199.456C91.1912 198.88 91.0686 198.389 90.8232 197.984C90.5886 197.568 90.2472 197.248 89.7992 197.024C89.3619 196.8 88.8339 196.688 88.2152 196.688C87.6072 196.688 87.0792 196.8 86.6312 197.024C86.1832 197.248 85.8366 197.568 85.5912 197.984C85.3566 198.389 85.2392 198.88 85.2392 199.456C85.2392 200.021 85.3566 200.512 85.5912 200.928C85.8366 201.333 86.1832 201.648 86.6312 201.872C87.0792 202.096 87.6072 202.208 88.2152 202.208ZM100.988 204.24C99.9004 204.24 98.935 204.043 98.0924 203.648C97.2604 203.243 96.6097 202.677 96.1404 201.952C95.6817 201.227 95.4524 200.395 95.4524 199.456C95.4524 198.507 95.6817 197.675 96.1404 196.96C96.6097 196.235 97.2604 195.669 98.0924 195.264C98.935 194.859 99.9004 194.656 100.988 194.656C101.948 194.656 102.812 194.816 103.58 195.136C104.348 195.456 104.978 195.899 105.468 196.464C105.97 197.019 106.284 197.669 106.412 198.416H103.804C103.644 197.872 103.308 197.429 102.796 197.088C102.284 196.736 101.682 196.56 100.988 196.56C100.391 196.56 99.8737 196.677 99.4364 196.912C98.999 197.136 98.6577 197.467 98.4124 197.904C98.1777 198.331 98.0604 198.848 98.0604 199.456C98.0604 200.053 98.1777 200.571 98.4124 201.008C98.6577 201.435 98.999 201.765 99.4364 202C99.8737 202.224 100.391 202.336 100.988 202.336C101.682 202.336 102.284 202.165 102.796 201.824C103.308 201.483 103.644 201.035 103.804 200.48H106.412C106.284 201.227 105.97 201.883 105.468 202.448C104.978 203.003 104.348 203.44 103.58 203.76C102.812 204.08 101.948 204.24 100.988 204.24ZM96.8444 200.272V198.624H102.348V200.272H96.8444ZM108.319 204V194.896H110.991V201.84L110.207 201.568L115.631 194.896H118.543L110.719 204H108.319ZM115.759 204L113.039 199.536L115.007 198.016L118.815 204H115.759ZM123.037 195.824H125.709V204H123.037V195.824ZM119.421 194.896H129.325V196.944H119.421V194.896ZM131.029 194.8L132.357 195.056L133.701 194.8V204H131.029V194.8ZM132.357 193.856C131.877 193.856 131.482 193.733 131.173 193.488C130.874 193.232 130.725 192.896 130.725 192.48C130.725 192.053 130.874 191.717 131.173 191.472C131.482 191.216 131.877 191.088 132.357 191.088C132.847 191.088 133.242 191.216 133.541 191.472C133.839 191.717 133.989 192.053 133.989 192.48C133.989 192.896 133.839 193.232 133.541 193.488C133.242 193.733 132.847 193.856 132.357 193.856ZM135.972 204L136.484 199.456L135.972 194.896H142.98C143.855 194.896 144.548 195.104 145.06 195.52C145.572 195.925 145.828 196.48 145.828 197.184C145.828 197.845 145.572 198.384 145.06 198.8C144.548 199.205 143.833 199.445 142.916 199.52L143.108 199.072C144.175 199.104 144.985 199.328 145.54 199.744C146.105 200.149 146.388 200.72 146.388 201.456C146.388 202.245 146.1 202.869 145.524 203.328C144.959 203.776 144.18 204 143.188 204H135.972ZM138.548 203.408L137.524 202.272H142.372C142.831 202.272 143.167 202.181 143.38 202C143.593 201.808 143.7 201.541 143.7 201.2C143.7 200.891 143.583 200.64 143.348 200.448C143.113 200.245 142.729 200.144 142.196 200.144H138.068V198.624H141.844C142.292 198.624 142.617 198.533 142.82 198.352C143.033 198.171 143.14 197.925 143.14 197.616C143.14 197.328 143.044 197.093 142.852 196.912C142.671 196.731 142.372 196.64 141.956 196.64H137.54L138.548 195.504L139.044 199.456L138.548 203.408ZM56.784 224L57.296 219.456L56.784 214.896H63.792C64.6667 214.896 65.36 215.104 65.872 215.52C66.384 215.925 66.64 216.48 66.64 217.184C66.64 217.845 66.384 218.384 65.872 218.8C65.36 219.205 64.6453 219.445 63.728 219.52L63.92 219.072C64.9867 219.104 65.7973 219.328 66.352 219.744C66.9173 220.149 67.2 220.72 67.2 221.456C67.2 222.245 66.912 222.869 66.336 223.328C65.7707 223.776 64.992 224 64 224H56.784ZM59.36 223.408L58.336 222.272H63.184C63.6427 222.272 63.9787 222.181 64.192 222C64.4053 221.808 64.512 221.541 64.512 221.2C64.512 220.891 64.3947 220.64 64.16 220.448C63.9253 220.245 63.5413 220.144 63.008 220.144H58.88V218.624H62.656C63.104 218.624 63.4293 218.533 63.632 218.352C63.8453 218.171 63.952 217.925 63.952 217.616C63.952 217.328 63.856 217.093 63.664 216.912C63.4827 216.731 63.184 216.64 62.768 216.64H58.352L59.36 215.504L59.856 219.456L59.36 223.408ZM73.3645 220.08H76.1165C76.1805 220.485 76.3565 220.843 76.6445 221.152C76.9432 221.451 77.3378 221.685 77.8285 221.856C78.3298 222.016 78.9058 222.096 79.5565 222.096C80.5058 222.096 81.2525 221.963 81.7965 221.696C82.3512 221.419 82.6285 221.035 82.6285 220.544C82.6285 220.16 82.4685 219.867 82.1485 219.664C81.8392 219.451 81.2578 219.296 80.4045 219.2L77.9885 218.928C76.4312 218.757 75.3005 218.395 74.5965 217.84C73.9032 217.275 73.5565 216.491 73.5565 215.488C73.5565 214.699 73.7858 214.027 74.2445 213.472C74.7138 212.917 75.3698 212.496 76.2125 212.208C77.0552 211.909 78.0472 211.76 79.1885 211.76C80.2978 211.76 81.2845 211.925 82.1485 212.256C83.0125 212.576 83.7005 213.029 84.2125 213.616C84.7245 214.192 85.0018 214.869 85.0445 215.648H82.2925C82.2392 215.296 82.0792 214.992 81.8125 214.736C81.5565 214.469 81.1992 214.267 80.7405 214.128C80.2818 213.979 79.7432 213.904 79.1245 213.904C78.2605 213.904 77.5725 214.032 77.0605 214.288C76.5485 214.544 76.2925 214.907 76.2925 215.376C76.2925 215.739 76.4418 216.021 76.7405 216.224C77.0498 216.416 77.5885 216.56 78.3565 216.656L80.8685 216.96C81.9778 217.077 82.8578 217.269 83.5085 217.536C84.1698 217.792 84.6392 218.139 84.9165 218.576C85.2045 219.013 85.3485 219.568 85.3485 220.24C85.3485 221.04 85.1032 221.744 84.6125 222.352C84.1325 222.949 83.4552 223.413 82.5805 223.744C81.7058 224.075 80.6818 224.24 79.5085 224.24C78.3138 224.24 77.2632 224.069 76.3565 223.728C75.4498 223.376 74.7352 222.891 74.2125 222.272C73.6898 221.643 73.4072 220.912 73.3645 220.08ZM91.2571 224.24C90.4145 224.24 89.6945 224.069 89.0971 223.728C88.5105 223.376 88.0571 222.88 87.7371 222.24C87.4278 221.6 87.2731 220.843 87.2731 219.968V214.896H89.9451V219.568C89.9451 220.379 90.1371 220.997 90.5211 221.424C90.9051 221.84 91.4491 222.048 92.1531 222.048C92.6758 222.048 93.1185 221.941 93.4811 221.728C93.8545 221.504 94.1425 221.184 94.3451 220.768C94.5478 220.352 94.6491 219.867 94.6491 219.312L95.5131 219.776C95.4065 220.715 95.1558 221.52 94.7611 222.192C94.3665 222.853 93.8651 223.36 93.2571 223.712C92.6598 224.064 91.9931 224.24 91.2571 224.24ZM95.2091 224L94.6491 220.544V214.896H97.3211V220.944L97.8811 224H95.2091ZM99.9436 211.68H102.616V217.792L102.248 218.512V220.496L102.616 221.232V224H99.9436V211.68ZM101.672 219.456C101.842 218.485 102.157 217.643 102.616 216.928C103.074 216.203 103.645 215.643 104.328 215.248C105.01 214.853 105.778 214.656 106.632 214.656C107.517 214.656 108.301 214.859 108.984 215.264C109.666 215.659 110.2 216.219 110.584 216.944C110.968 217.659 111.16 218.496 111.16 219.456C111.16 220.405 110.968 221.243 110.584 221.968C110.2 222.683 109.666 223.243 108.984 223.648C108.301 224.043 107.517 224.24 106.632 224.24C105.778 224.24 105.01 224.043 104.328 223.648C103.645 223.253 103.074 222.699 102.616 221.984C102.168 221.259 101.853 220.416 101.672 219.456ZM108.44 219.456C108.44 218.923 108.328 218.453 108.104 218.048C107.89 217.632 107.592 217.312 107.208 217.088C106.824 216.853 106.386 216.736 105.896 216.736C105.394 216.736 104.92 216.853 104.472 217.088C104.024 217.312 103.629 217.632 103.288 218.048C102.957 218.453 102.696 218.923 102.504 219.456C102.696 219.989 102.957 220.459 103.288 220.864C103.629 221.269 104.024 221.589 104.472 221.824C104.92 222.048 105.394 222.16 105.896 222.16C106.386 222.16 106.824 222.048 107.208 221.824C107.592 221.589 107.89 221.269 108.104 220.864C108.328 220.459 108.44 219.989 108.44 219.456ZM112.742 214.896H115.414L115.99 218.368V224H113.318V217.968L112.742 214.896ZM119.238 214.656C120.048 214.656 120.742 214.832 121.318 215.184C121.894 215.525 122.331 216.016 122.63 216.656C122.939 217.296 123.094 218.059 123.094 218.944V224H120.422V219.344C120.422 218.523 120.24 217.904 119.878 217.488C119.526 217.061 119.008 216.848 118.326 216.848C117.846 216.848 117.43 216.965 117.078 217.2C116.726 217.424 116.454 217.739 116.262 218.144C116.08 218.549 115.99 219.035 115.99 219.6L115.11 219.136C115.216 218.176 115.462 217.365 115.846 216.704C116.23 216.043 116.71 215.536 117.286 215.184C117.872 214.832 118.523 214.656 119.238 214.656ZM126.326 214.656C127.136 214.656 127.83 214.832 128.406 215.184C128.992 215.525 129.435 216.016 129.734 216.656C130.043 217.296 130.198 218.059 130.198 218.944V224H127.526V219.344C127.526 218.523 127.344 217.904 126.982 217.488C126.63 217.061 126.112 216.848 125.43 216.848C124.95 216.848 124.534 216.965 124.182 217.2C123.83 217.424 123.558 217.739 123.366 218.144C123.184 218.549 123.094 219.035 123.094 219.6L122.214 219.136C122.32 218.176 122.566 217.365 122.95 216.704C123.334 216.043 123.814 215.536 124.39 215.184C124.976 214.832 125.622 214.656 126.326 214.656ZM140.896 224L140.512 220.672L140.944 219.456L140.512 218.256L140.896 214.896H143.664L143.136 219.456L143.664 224H140.896ZM141.6 219.456C141.429 220.416 141.115 221.259 140.656 221.984C140.208 222.699 139.637 223.253 138.944 223.648C138.261 224.043 137.493 224.24 136.64 224.24C135.755 224.24 134.971 224.043 134.288 223.648C133.605 223.243 133.072 222.683 132.688 221.968C132.315 221.243 132.128 220.405 132.128 219.456C132.128 218.496 132.315 217.659 132.688 216.944C133.072 216.219 133.605 215.659 134.288 215.264C134.971 214.859 135.755 214.656 136.64 214.656C137.493 214.656 138.261 214.853 138.944 215.248C139.637 215.643 140.213 216.203 140.672 216.928C141.131 217.643 141.44 218.485 141.6 219.456ZM134.832 219.456C134.832 219.989 134.939 220.459 135.152 220.864C135.376 221.269 135.68 221.589 136.064 221.824C136.448 222.048 136.891 222.16 137.392 222.16C137.893 222.16 138.363 222.048 138.8 221.824C139.248 221.589 139.643 221.269 139.984 220.864C140.325 220.459 140.592 219.989 140.784 219.456C140.592 218.923 140.325 218.453 139.984 218.048C139.643 217.632 139.248 217.312 138.8 217.088C138.363 216.853 137.893 216.736 137.392 216.736C136.891 216.736 136.448 216.853 136.064 217.088C135.68 217.312 135.376 217.632 135.152 218.048C134.939 218.453 134.832 218.923 134.832 219.456ZM145.499 214.896H148.203L148.747 218.176V224H146.075V217.888L145.499 214.896ZM153.179 214.8V217.104C152.901 217.04 152.624 216.992 152.347 216.96C152.069 216.928 151.808 216.912 151.563 216.912C151.029 216.912 150.549 217.024 150.123 217.248C149.696 217.472 149.36 217.819 149.115 218.288C148.869 218.757 148.747 219.349 148.747 220.064L148.187 219.392C148.251 218.741 148.368 218.133 148.539 217.568C148.709 216.992 148.944 216.491 149.243 216.064C149.552 215.627 149.931 215.285 150.379 215.04C150.827 214.784 151.36 214.656 151.979 214.656C152.181 214.656 152.384 214.672 152.587 214.704C152.8 214.725 152.997 214.757 153.179 214.8ZM154.895 214.8L156.223 215.056L157.567 214.8V224H154.895V214.8ZM156.223 213.856C155.743 213.856 155.348 213.733 155.039 213.488C154.74 213.232 154.591 212.896 154.591 212.48C154.591 212.053 154.74 211.717 155.039 211.472C155.348 211.216 155.743 211.088 156.223 211.088C156.714 211.088 157.108 211.216 157.407 211.472C157.706 211.717 157.855 212.053 157.855 212.48C157.855 212.896 157.706 213.232 157.407 213.488C157.108 213.733 156.714 213.856 156.223 213.856ZM159.63 214.896H162.302L162.878 218.368V224H160.206V217.968L159.63 214.896ZM166.35 214.656C167.214 214.656 167.95 214.832 168.558 215.184C169.166 215.525 169.63 216.016 169.95 216.656C170.27 217.296 170.43 218.059 170.43 218.944V224H167.758V219.344C167.758 218.523 167.561 217.904 167.166 217.488C166.772 217.061 166.196 216.848 165.438 216.848C164.926 216.848 164.473 216.965 164.078 217.2C163.694 217.424 163.396 217.739 163.182 218.144C162.98 218.549 162.878 219.035 162.878 219.6L161.998 219.136C162.105 218.176 162.361 217.365 162.766 216.704C163.172 216.043 163.684 215.536 164.302 215.184C164.921 214.832 165.604 214.656 166.35 214.656ZM177.928 224.24C176.851 224.24 175.886 224.043 175.032 223.648C174.19 223.243 173.523 222.677 173.032 221.952C172.552 221.227 172.312 220.384 172.312 219.424C172.312 218.475 172.542 217.643 173 216.928C173.47 216.213 174.11 215.659 174.92 215.264C175.731 214.859 176.654 214.656 177.688 214.656C178.744 214.656 179.651 214.891 180.408 215.36C181.166 215.819 181.747 216.469 182.152 217.312C182.568 218.155 182.776 219.147 182.776 220.288H174.456V218.512H181.336L180.296 219.152C180.254 218.619 180.12 218.165 179.896 217.792C179.683 217.419 179.39 217.131 179.016 216.928C178.643 216.725 178.206 216.624 177.704 216.624C177.16 216.624 176.686 216.736 176.28 216.96C175.886 217.173 175.576 217.477 175.352 217.872C175.139 218.256 175.032 218.709 175.032 219.232C175.032 219.861 175.171 220.4 175.448 220.848C175.726 221.296 176.131 221.637 176.664 221.872C177.198 222.107 177.843 222.224 178.6 222.224C179.283 222.224 179.971 222.128 180.664 221.936C181.358 221.733 181.982 221.451 182.536 221.088V222.88C181.939 223.307 181.24 223.643 180.44 223.888C179.651 224.123 178.814 224.24 177.928 224.24ZM186.291 224.144C185.843 224.144 185.47 224 185.171 223.712C184.883 223.424 184.739 223.061 184.739 222.624C184.739 222.187 184.883 221.824 185.171 221.536C185.47 221.248 185.843 221.104 186.291 221.104C186.75 221.104 187.123 221.248 187.411 221.536C187.71 221.824 187.859 222.187 187.859 222.624C187.859 223.061 187.71 223.424 187.411 223.712C187.123 224 186.75 224.144 186.291 224.144ZM186.291 218.48C185.843 218.48 185.47 218.336 185.171 218.048C184.883 217.76 184.739 217.397 184.739 216.96C184.739 216.523 184.883 216.16 185.171 215.872C185.47 215.584 185.843 215.44 186.291 215.44C186.75 215.44 187.123 215.584 187.411 215.872C187.71 216.16 187.859 216.523 187.859 216.96C187.859 217.397 187.71 217.76 187.411 218.048C187.123 218.336 186.75 218.48 186.291 218.48Z" fill="white"/>
  <path d="M276.24 156.312C277.285 156.312 278.171 156.621 278.896 157.24C279.632 157.848 280 158.685 280 159.752C280 160.819 279.632 161.661 278.896 162.28C278.171 162.888 277.285 163.192 276.24 163.192C275.397 163.192 274.645 162.989 273.984 162.584C273.323 162.168 272.875 161.576 272.64 160.808L273.584 160.264C273.744 160.861 274.059 161.32 274.528 161.64C275.008 161.949 275.579 162.104 276.24 162.104C277.008 162.104 277.637 161.901 278.128 161.496C278.629 161.08 278.88 160.499 278.88 159.752C278.88 159.005 278.629 158.429 278.128 158.024C277.637 157.608 277.008 157.4 276.24 157.4H273.2L273.6 151.8H279.6V152.856H274.592L274.352 156.312H276.24ZM288.801 156.888V157.912H285.953V160.76H284.929V157.912H282.081V156.888H284.929V154.04H285.953V156.888H288.801Z" fill="white"/>
  <path d="M60.048 260L62.112 256.432H62.144L67.008 248H69.952L62.992 260H60.048ZM62.112 258.256L56.128 248H59.12L63.984 256.368L62.112 258.256ZM70.8529 250.896H80.2609V260H77.5889V251.696L78.8209 252.912H72.1809L73.3329 251.92C73.3862 252.571 73.4289 253.173 73.4609 253.728C73.5035 254.272 73.5249 254.763 73.5249 255.2C73.5249 256.949 73.2635 258.219 72.7409 259.008C72.2289 259.797 71.3969 260.192 70.2449 260.192C69.9249 260.192 69.6155 260.155 69.3169 260.08C69.0289 260.016 68.7462 259.904 68.4689 259.744V257.808C68.6609 257.883 68.8475 257.941 69.0289 257.984C69.2209 258.016 69.3969 258.032 69.5569 258.032C70.1009 258.032 70.4902 257.787 70.7249 257.296C70.9702 256.795 71.0929 255.973 71.0929 254.832C71.0929 254.32 71.0715 253.733 71.0289 253.072C70.9969 252.411 70.9382 251.685 70.8529 250.896ZM92.5573 260.24C91.4372 260.24 90.4559 260.043 89.6132 259.648C88.7706 259.243 88.1146 258.683 87.6452 257.968C87.1866 257.243 86.9572 256.405 86.9572 255.456C86.9572 254.496 87.1866 253.659 87.6452 252.944C88.1146 252.219 88.7706 251.659 89.6132 251.264C90.4559 250.859 91.4372 250.656 92.5573 250.656C93.6772 250.656 94.6586 250.859 95.5012 251.264C96.3439 251.659 96.9999 252.219 97.4692 252.944C97.9386 253.659 98.1733 254.496 98.1733 255.456C98.1733 256.405 97.9386 257.243 97.4692 257.968C96.9999 258.683 96.3439 259.243 95.5012 259.648C94.6586 260.043 93.6772 260.24 92.5573 260.24ZM82.7492 260V250.896H85.4212V260H82.7492ZM84.2532 256.368V254.368H88.6532V256.368H84.2532ZM92.5573 258.208C93.1652 258.208 93.6826 258.096 94.1093 257.872C94.5466 257.648 94.8826 257.333 95.1172 256.928C95.3519 256.512 95.4692 256.021 95.4692 255.456C95.4692 254.88 95.3519 254.389 95.1172 253.984C94.8826 253.568 94.5466 253.248 94.1093 253.024C93.6826 252.8 93.1652 252.688 92.5573 252.688C91.9599 252.688 91.4426 252.8 91.0052 253.024C90.5679 253.248 90.2319 253.568 89.9972 253.984C89.7626 254.389 89.6452 254.88 89.6452 255.456C89.6452 256.021 89.7626 256.512 89.9972 256.928C90.2319 257.333 90.5679 257.648 91.0052 257.872C91.4426 258.096 91.9599 258.208 92.5573 258.208ZM105.782 260.24C104.534 260.24 103.467 260.005 102.582 259.536C101.697 259.056 101.019 258.368 100.55 257.472C100.081 256.576 99.846 255.493 99.846 254.224C99.846 252.336 100.353 250.848 101.366 249.76C102.379 248.672 103.83 248.048 105.718 247.888C106.486 247.824 107.121 247.771 107.622 247.728C108.123 247.685 108.534 247.643 108.854 247.6C109.185 247.547 109.462 247.493 109.686 247.44C109.91 247.376 110.129 247.307 110.342 247.232V249.456C110.118 249.541 109.83 249.621 109.478 249.696C109.137 249.76 108.699 249.813 108.166 249.856C107.643 249.899 106.998 249.941 106.23 249.984C104.833 250.048 103.793 250.432 103.11 251.136C102.427 251.84 102.086 252.853 102.086 254.176V254.608L101.99 254.416C102.203 253.84 102.529 253.344 102.966 252.928C103.403 252.512 103.926 252.197 104.534 251.984C105.153 251.76 105.819 251.648 106.534 251.648C107.462 251.648 108.273 251.824 108.966 252.176C109.659 252.517 110.198 253.003 110.582 253.632C110.977 254.261 111.174 254.997 111.174 255.84C111.174 256.725 110.95 257.499 110.502 258.16C110.054 258.821 109.425 259.333 108.614 259.696C107.814 260.059 106.87 260.24 105.782 260.24ZM105.846 258.208C106.379 258.208 106.843 258.112 107.238 257.92C107.633 257.728 107.937 257.456 108.15 257.104C108.363 256.752 108.47 256.341 108.47 255.872C108.47 255.403 108.363 254.997 108.15 254.656C107.937 254.304 107.633 254.032 107.238 253.84C106.843 253.648 106.379 253.552 105.846 253.552C105.11 253.552 104.459 253.749 103.894 254.144C103.329 254.528 102.902 255.067 102.614 255.76C102.785 256.507 103.158 257.104 103.734 257.552C104.321 257.989 105.025 258.208 105.846 258.208ZM114.558 250.896H123.966V260H121.294V251.696L122.526 252.912H115.886L117.038 251.92C117.092 252.571 117.134 253.173 117.166 253.728C117.209 254.272 117.23 254.763 117.23 255.2C117.23 256.949 116.969 258.219 116.446 259.008C115.934 259.797 115.102 260.192 113.95 260.192C113.63 260.192 113.321 260.155 113.022 260.08C112.734 260.016 112.452 259.904 112.174 259.744V257.808C112.366 257.883 112.553 257.941 112.734 257.984C112.926 258.016 113.102 258.032 113.262 258.032C113.806 258.032 114.196 257.787 114.43 257.296C114.676 256.795 114.798 255.973 114.798 254.832C114.798 254.32 114.777 253.733 114.734 253.072C114.702 252.411 114.644 251.685 114.558 250.896ZM131.591 260.24C130.514 260.24 129.548 260.043 128.695 259.648C127.852 259.243 127.186 258.677 126.695 257.952C126.215 257.227 125.975 256.384 125.975 255.424C125.975 254.475 126.204 253.643 126.663 252.928C127.132 252.213 127.772 251.659 128.583 251.264C129.394 250.859 130.316 250.656 131.351 250.656C132.407 250.656 133.314 250.891 134.071 251.36C134.828 251.819 135.41 252.469 135.815 253.312C136.231 254.155 136.439 255.147 136.439 256.288H128.119V254.512H134.999L133.959 255.152C133.916 254.619 133.783 254.165 133.559 253.792C133.346 253.419 133.052 253.131 132.679 252.928C132.306 252.725 131.868 252.624 131.367 252.624C130.823 252.624 130.348 252.736 129.943 252.96C129.548 253.173 129.239 253.477 129.015 253.872C128.802 254.256 128.695 254.709 128.695 255.232C128.695 255.861 128.834 256.4 129.111 256.848C129.388 257.296 129.794 257.637 130.327 257.872C130.86 258.107 131.506 258.224 132.263 258.224C132.946 258.224 133.634 258.128 134.327 257.936C135.02 257.733 135.644 257.451 136.199 257.088V258.88C135.602 259.307 134.903 259.643 134.103 259.888C133.314 260.123 132.476 260.24 131.591 260.24ZM138.482 250.896H141.138V260H138.482V250.896ZM146.114 250.896H148.77V260H146.114V250.896ZM140.002 254.352H147.154V256.368H140.002V254.352ZM151.259 250.8L152.587 251.056L153.931 250.8V260H151.259V250.8ZM152.587 249.856C152.107 249.856 151.712 249.733 151.403 249.488C151.104 249.232 150.955 248.896 150.955 248.48C150.955 248.053 151.104 247.717 151.403 247.472C151.712 247.216 152.107 247.088 152.587 247.088C153.077 247.088 153.472 247.216 153.771 247.472C154.069 247.717 154.219 248.053 154.219 248.48C154.219 248.896 154.069 249.232 153.771 249.488C153.472 249.733 153.077 249.856 152.587 249.856ZM171.224 250.896V260H168.552V251.696L169.784 252.912H162.44L163.672 251.696V260H161V250.896H171.224ZM173.714 250.896H176.386V253.792L176.274 254.144V256.336L176.386 256.992V262.64H173.714V250.896ZM175.458 255.456C175.64 254.485 175.954 253.643 176.402 252.928C176.861 252.203 177.432 251.643 178.114 251.248C178.808 250.853 179.576 250.656 180.418 250.656C181.314 250.656 182.098 250.859 182.77 251.264C183.453 251.659 183.986 252.219 184.37 252.944C184.754 253.659 184.946 254.496 184.946 255.456C184.946 256.405 184.754 257.243 184.37 257.968C183.986 258.683 183.453 259.243 182.77 259.648C182.098 260.043 181.314 260.24 180.418 260.24C179.565 260.24 178.797 260.043 178.114 259.648C177.442 259.253 176.877 258.699 176.418 257.984C175.96 257.259 175.64 256.416 175.458 255.456ZM182.242 255.456C182.242 254.923 182.13 254.453 181.906 254.048C181.693 253.632 181.394 253.312 181.01 253.088C180.626 252.853 180.184 252.736 179.682 252.736C179.181 252.736 178.706 252.853 178.258 253.088C177.81 253.312 177.416 253.632 177.074 254.048C176.744 254.453 176.482 254.923 176.29 255.456C176.482 255.989 176.744 256.459 177.074 256.864C177.416 257.269 177.81 257.589 178.258 257.824C178.706 258.048 179.181 258.16 179.682 258.16C180.184 258.16 180.626 258.048 181.01 257.824C181.394 257.589 181.693 257.269 181.906 256.864C182.13 256.459 182.242 255.989 182.242 255.456ZM192.207 260.24C191.076 260.24 190.084 260.043 189.231 259.648C188.378 259.243 187.711 258.683 187.231 257.968C186.751 257.243 186.511 256.405 186.511 255.456C186.511 254.496 186.751 253.659 187.231 252.944C187.711 252.219 188.378 251.659 189.231 251.264C190.084 250.859 191.076 250.656 192.207 250.656C193.338 250.656 194.33 250.859 195.183 251.264C196.036 251.659 196.698 252.219 197.167 252.944C197.647 253.659 197.887 254.496 197.887 255.456C197.887 256.405 197.647 257.243 197.167 257.968C196.698 258.683 196.036 259.243 195.183 259.648C194.33 260.043 193.338 260.24 192.207 260.24ZM192.207 258.208C192.826 258.208 193.354 258.096 193.791 257.872C194.239 257.648 194.58 257.333 194.815 256.928C195.06 256.512 195.183 256.021 195.183 255.456C195.183 254.88 195.06 254.389 194.815 253.984C194.58 253.568 194.239 253.248 193.791 253.024C193.354 252.8 192.826 252.688 192.207 252.688C191.599 252.688 191.071 252.8 190.623 253.024C190.175 253.248 189.828 253.568 189.583 253.984C189.348 254.389 189.231 254.88 189.231 255.456C189.231 256.021 189.348 256.512 189.583 256.928C189.828 257.333 190.175 257.648 190.623 257.872C191.071 258.096 191.599 258.208 192.207 258.208ZM204.98 260.24C203.892 260.24 202.927 260.043 202.084 259.648C201.252 259.243 200.602 258.677 200.132 257.952C199.674 257.227 199.444 256.395 199.444 255.456C199.444 254.507 199.674 253.675 200.132 252.96C200.602 252.235 201.252 251.669 202.084 251.264C202.927 250.859 203.892 250.656 204.98 250.656C205.94 250.656 206.804 250.816 207.572 251.136C208.34 251.456 208.97 251.899 209.46 252.464C209.962 253.019 210.276 253.669 210.404 254.416H207.796C207.636 253.872 207.3 253.429 206.788 253.088C206.276 252.736 205.674 252.56 204.98 252.56C204.383 252.56 203.866 252.677 203.428 252.912C202.991 253.136 202.65 253.467 202.404 253.904C202.17 254.331 202.052 254.848 202.052 255.456C202.052 256.053 202.17 256.571 202.404 257.008C202.65 257.435 202.991 257.765 203.428 258C203.866 258.224 204.383 258.336 204.98 258.336C205.674 258.336 206.276 258.165 206.788 257.824C207.3 257.483 207.636 257.035 207.796 256.48H210.404C210.276 257.227 209.962 257.883 209.46 258.448C208.97 259.003 208.34 259.44 207.572 259.76C206.804 260.08 205.94 260.24 204.98 260.24ZM200.836 256.272V254.624H206.34V256.272H200.836ZM212.311 260V250.896H214.983V257.84L214.199 257.568L219.623 250.896H222.535L214.711 260H212.311ZM219.751 260L217.031 255.536L218.999 254.016L222.807 260H219.751ZM227.029 251.824H229.701V260H227.029V251.824ZM223.413 250.896H233.317V252.944H223.413V250.896ZM235.02 260V250.896H237.644V258.592L236.988 258.416L242.476 250.896H245.916V260H243.292V252.16L243.948 252.352L238.364 260H235.02ZM249.879 260.144C249.431 260.144 249.057 260 248.759 259.712C248.471 259.424 248.327 259.061 248.327 258.624C248.327 258.187 248.471 257.824 248.759 257.536C249.057 257.248 249.431 257.104 249.879 257.104C250.337 257.104 250.711 257.248 250.999 257.536C251.297 257.824 251.447 258.187 251.447 258.624C251.447 259.061 251.297 259.424 250.999 259.712C250.711 260 250.337 260.144 249.879 260.144ZM249.879 254.48C249.431 254.48 249.057 254.336 248.759 254.048C248.471 253.76 248.327 253.397 248.327 252.96C248.327 252.523 248.471 252.16 248.759 251.872C249.057 251.584 249.431 251.44 249.879 251.44C250.337 251.44 250.711 251.584 250.999 251.872C251.297 252.16 251.447 252.523 251.447 252.96C251.447 253.397 251.297 253.76 250.999 254.048C250.711 254.336 250.337 254.48 249.879 254.48Z" fill="white"/>
  <path d="M 280.48 247.8 L 281.6 247.8 L 281.6 259 L 280.48 259 L 280.48 253.768 L 274.4 253.768 L 274.4 259 L 273.28 259 L 273.28 247.8 L 274.4 247.8 L 274.4 252.712 L 280.48 252.712 L 280.48 247.8 Z M 291.355 251 L 292.411 251 L 292.411 259 L 291.355 259 L 291.355 257.432 C 290.619 258.605 289.542 259.192 288.123 259.192 C 286.982 259.192 286.006 258.787 285.195 257.976 C 284.395 257.165 283.995 256.173 283.995 255 C 283.995 253.827 284.395 252.835 285.195 252.024 C 286.006 251.213 286.982 250.808 288.123 250.808 C 289.542 250.808 290.619 251.395 291.355 252.568 L 291.355 251 Z M 285.963 257.256 C 286.571 257.864 287.318 258.168 288.203 258.168 C 289.088 258.168 289.835 257.864 290.443 257.256 C 291.051 256.637 291.355 255.885 291.355 255 C 291.355 254.115 291.051 253.368 290.443 252.76 C 289.835 252.141 289.088 251.832 288.203 251.832 C 287.318 251.832 286.571 252.141 285.963 252.76 C 285.355 253.368 285.051 254.115 285.051 255 C 285.051 255.885 285.355 256.637 285.963 257.256 Z M 296.407 249.72 L 296.407 248.792 L 300.567 248.792 L 300.567 249.72 L 296.407 249.72 Z M 300.951 251 L 301.847 251 L 301.847 259 L 300.791 259 L 300.791 252.84 L 296.023 259 L 295.127 259 L 295.127 251 L 296.183 251 L 296.183 257.16 L 300.951 251 Z M 308.112 259.192 C 306.96 259.192 306 258.813 305.232 258.056 C 304.464 257.288 304.08 256.296 304.08 255.08 C 304.08 253.715 304.283 252.669 304.688 251.944 C 305.093 251.208 305.915 250.541 307.152 249.944 C 307.387 249.827 307.696 249.688 308.08 249.528 C 308.475 249.368 308.768 249.24 308.96 249.144 C 309.163 249.048 309.381 248.925 309.616 248.776 C 309.851 248.616 310.027 248.44 310.144 248.248 C 310.261 248.056 310.336 247.827 310.368 247.56 L 311.2 248.04 C 311.157 248.296 311.072 248.536 310.944 248.76 C 310.816 248.984 310.683 249.165 310.544 249.304 C 310.416 249.443 310.208 249.597 309.92 249.768 C 309.643 249.928 309.424 250.045 309.264 250.12 C 309.115 250.184 308.848 250.296 308.464 250.456 C 308.091 250.616 307.84 250.723 307.712 250.776 C 306.965 251.096 306.416 251.432 306.064 251.784 C 305.712 252.125 305.461 252.573 305.312 253.128 C 305.675 252.648 306.133 252.296 306.688 252.072 C 307.253 251.837 307.803 251.72 308.336 251.72 C 309.403 251.72 310.283 252.072 310.976 252.776 C 311.68 253.469 312.032 254.36 312.032 255.448 C 312.032 256.525 311.659 257.421 310.912 258.136 C 310.176 258.84 309.243 259.192 308.112 259.192 Z M 308.112 258.136 C 308.944 258.136 309.627 257.885 310.16 257.384 C 310.704 256.872 310.976 256.227 310.976 255.448 C 310.976 254.659 310.72 254.013 310.208 253.512 C 309.707 253 309.035 252.744 308.192 252.744 C 307.435 252.744 306.747 252.984 306.128 253.464 C 305.509 253.933 305.2 254.563 305.2 255.352 C 305.2 256.163 305.477 256.829 306.032 257.352 C 306.597 257.875 307.291 258.136 308.112 258.136 Z M 315.19 249.08 C 315.041 249.229 314.859 249.304 314.646 249.304 C 314.433 249.304 314.251 249.229 314.102 249.08 C 313.953 248.931 313.878 248.749 313.878 248.536 C 313.878 248.323 313.953 248.141 314.102 247.992 C 314.251 247.843 314.433 247.768 314.646 247.768 C 314.859 247.768 315.041 247.843 315.19 247.992 C 315.339 248.141 315.414 248.323 315.414 248.536 C 315.414 248.749 315.339 248.931 315.19 249.08 Z M 314.118 259 L 314.118 251 L 315.174 251 L 315.174 259 L 314.118 259 Z M 324.455 251 L 324.455 259 L 323.399 259 L 323.399 252.024 L 319.783 252.024 L 319.783 255.592 C 319.783 256.925 319.527 257.843 319.015 258.344 C 318.514 258.845 317.82 259.064 316.935 259 L 316.935 258.008 C 317.543 258.072 317.991 257.928 318.279 257.576 C 318.578 257.224 318.727 256.563 318.727 255.592 L 318.727 251 L 324.455 251 Z M 330.42 254.04 C 331.167 254.04 331.796 254.275 332.308 254.744 C 332.831 255.203 333.092 255.795 333.092 256.52 C 333.092 257.245 332.831 257.843 332.308 258.312 C 331.796 258.771 331.167 259 330.42 259 L 327.172 259 L 327.172 251 L 328.228 251 L 328.228 254.04 L 330.42 254.04 Z M 330.42 257.976 C 330.868 257.976 331.247 257.843 331.556 257.576 C 331.876 257.309 332.036 256.957 332.036 256.52 C 332.036 256.083 331.876 255.731 331.556 255.464 C 331.247 255.197 330.868 255.064 330.42 255.064 L 328.228 255.064 L 328.228 257.976 L 330.42 257.976 Z M 344.832 251 L 345.888 251 L 345.888 259 L 335.168 259 L 335.168 251 L 336.224 251 L 336.224 257.976 L 340 257.976 L 340 251 L 341.056 251 L 341.056 257.976 L 344.832 257.976 L 344.832 251 Z M 352.297 250.808 C 353.481 250.808 354.435 251.229 355.161 252.072 C 355.897 252.904 356.265 253.891 356.265 255.032 C 356.265 255.149 356.254 255.315 356.233 255.528 L 349.209 255.528 C 349.315 256.339 349.657 256.984 350.233 257.464 C 350.819 257.933 351.539 258.168 352.393 258.168 C 353.001 258.168 353.523 258.045 353.961 257.8 C 354.409 257.544 354.745 257.213 354.969 256.808 L 355.897 257.352 C 355.545 257.917 355.065 258.365 354.457 258.696 C 353.849 259.027 353.155 259.192 352.377 259.192 C 351.118 259.192 350.094 258.797 349.305 258.008 C 348.515 257.219 348.121 256.216 348.121 255 C 348.121 253.805 348.51 252.808 349.289 252.008 C 350.067 251.208 351.07 250.808 352.297 250.808 Z M 352.297 251.832 C 351.465 251.832 350.766 252.083 350.201 252.584 C 349.646 253.075 349.315 253.715 349.209 254.504 L 355.177 254.504 C 355.07 253.661 354.745 253.005 354.201 252.536 C 353.657 252.067 353.022 251.832 352.297 251.832 Z M 369.624 251 L 369.624 259 L 368.568 259 L 368.568 252.024 L 363.96 252.024 L 363.96 259 L 362.904 259 L 362.904 251 L 369.624 251 Z M 378.161 251 L 379.057 251 L 379.057 259 L 378.001 259 L 378.001 252.84 L 373.233 259 L 372.337 259 L 372.337 251 L 373.393 251 L 373.393 257.16 L 378.161 251 Z M 391.435 251 L 392.491 251 L 392.491 259 L 381.771 259 L 381.771 251 L 382.827 251 L 382.827 257.976 L 386.603 257.976 L 386.603 251 L 387.659 251 L 387.659 257.976 L 391.435 257.976 L 391.435 251 Z M 402.084 251 L 403.14 251 L 403.14 259 L 402.084 259 L 402.084 257.432 C 401.348 258.605 400.27 259.192 398.852 259.192 C 397.71 259.192 396.734 258.787 395.924 257.976 C 395.124 257.165 394.724 256.173 394.724 255 C 394.724 253.827 395.124 252.835 395.924 252.024 C 396.734 251.213 397.71 250.808 398.852 250.808 C 400.27 250.808 401.348 251.395 402.084 252.568 L 402.084 251 Z M 396.692 257.256 C 397.3 257.864 398.046 258.168 398.932 258.168 C 399.817 258.168 400.564 257.864 401.172 257.256 C 401.78 256.637 402.084 255.885 402.084 255 C 402.084 254.115 401.78 253.368 401.172 252.76 C 400.564 252.141 399.817 251.832 398.932 251.832 C 398.046 251.832 397.3 252.141 396.692 252.76 C 396.084 253.368 395.78 254.115 395.78 255 C 395.78 255.885 396.084 256.637 396.692 257.256 Z M 412.688 250.808 C 413.861 250.808 414.853 251.213 415.664 252.024 C 416.485 252.824 416.896 253.816 416.896 255 C 416.896 256.184 416.485 257.181 415.664 257.992 C 414.853 258.792 413.861 259.192 412.688 259.192 C 411.61 259.192 410.682 258.845 409.904 258.152 C 409.136 257.448 408.693 256.568 408.576 255.512 L 406.912 255.512 L 406.912 259 L 405.856 259 L 405.856 251 L 406.912 251 L 406.912 254.488 L 408.576 254.488 C 408.693 253.432 409.136 252.557 409.904 251.864 C 410.682 251.16 411.61 250.808 412.688 250.808 Z M 410.448 257.256 C 411.056 257.864 411.802 258.168 412.688 258.168 C 413.573 258.168 414.32 257.864 414.928 257.256 C 415.536 256.637 415.84 255.885 415.84 255 C 415.84 254.115 415.536 253.368 414.928 252.76 C 414.32 252.141 413.573 251.832 412.688 251.832 C 411.802 251.832 411.056 252.141 410.448 252.76 C 409.84 253.368 409.536 254.115 409.536 255 C 409.536 255.885 409.84 256.637 410.448 257.256 Z M 422.86 259.192 C 421.655 259.192 420.652 258.792 419.852 257.992 C 419.052 257.181 418.652 256.184 418.652 255 C 418.652 253.816 419.052 252.824 419.852 252.024 C 420.652 251.213 421.655 250.808 422.86 250.808 C 423.65 250.808 424.359 251 424.988 251.384 C 425.618 251.757 426.076 252.264 426.364 252.904 L 425.5 253.4 C 425.287 252.92 424.94 252.541 424.46 252.264 C 423.991 251.976 423.458 251.832 422.86 251.832 C 421.975 251.832 421.228 252.141 420.62 252.76 C 420.012 253.368 419.708 254.115 419.708 255 C 419.708 255.885 420.012 256.637 420.62 257.256 C 421.228 257.864 421.975 258.168 422.86 258.168 C 423.458 258.168 423.991 258.029 424.46 257.752 C 424.93 257.464 425.298 257.08 425.564 256.6 L 426.444 257.112 C 426.114 257.752 425.628 258.259 424.988 258.632 C 424.348 259.005 423.639 259.192 422.86 259.192 Z M 431.689 254.04 C 432.435 254.04 433.065 254.275 433.577 254.744 C 434.099 255.203 434.361 255.795 434.361 256.52 C 434.361 257.245 434.099 257.843 433.577 258.312 C 433.065 258.771 432.435 259 431.689 259 L 428.441 259 L 428.441 251 L 429.497 251 L 429.497 254.04 L 431.689 254.04 Z M 431.689 257.976 C 432.137 257.976 432.515 257.843 432.825 257.576 C 433.145 257.309 433.305 256.957 433.305 256.52 C 433.305 256.083 433.145 255.731 432.825 255.464 C 432.515 255.197 432.137 255.064 431.689 255.064 L 429.497 255.064 L 429.497 257.976 L 431.689 257.976 Z M 278.784 271 L 279.84 271 L 279.84 279 L 278.784 279 L 278.784 275.512 L 274.176 275.512 L 274.176 279 L 273.12 279 L 273.12 271 L 274.176 271 L 274.176 274.488 L 278.784 274.488 L 278.784 271 Z M 289.433 271 L 290.489 271 L 290.489 279 L 289.433 279 L 289.433 277.432 C 288.697 278.605 287.62 279.192 286.201 279.192 C 285.06 279.192 284.084 278.787 283.273 277.976 C 282.473 277.165 282.073 276.173 282.073 275 C 282.073 273.827 282.473 272.835 283.273 272.024 C 284.084 271.213 285.06 270.808 286.201 270.808 C 287.62 270.808 288.697 271.395 289.433 272.568 L 289.433 271 Z M 284.041 277.256 C 284.649 277.864 285.396 278.168 286.281 278.168 C 287.166 278.168 287.913 277.864 288.521 277.256 C 289.129 276.637 289.433 275.885 289.433 275 C 289.433 274.115 289.129 273.368 288.521 272.76 C 287.913 272.141 287.166 271.832 286.281 271.832 C 285.396 271.832 284.649 272.141 284.041 272.76 C 283.433 273.368 283.129 274.115 283.129 275 C 283.129 275.885 283.433 276.637 284.041 277.256 Z M 302.869 271 L 303.925 271 L 303.925 279 L 293.205 279 L 293.205 271 L 294.261 271 L 294.261 277.976 L 298.037 277.976 L 298.037 271 L 299.093 271 L 299.093 277.976 L 302.869 277.976 L 302.869 271 Z M 313.342 277.992 C 312.531 278.792 311.539 279.192 310.366 279.192 C 309.193 279.192 308.195 278.792 307.374 277.992 C 306.563 277.181 306.158 276.184 306.158 275 C 306.158 273.816 306.563 272.824 307.374 272.024 C 308.195 271.213 309.193 270.808 310.366 270.808 C 311.539 270.808 312.531 271.213 313.342 272.024 C 314.163 272.824 314.574 273.816 314.574 275 C 314.574 276.184 314.163 277.181 313.342 277.992 Z M 308.126 277.256 C 308.734 277.864 309.481 278.168 310.366 278.168 C 311.251 278.168 311.998 277.864 312.606 277.256 C 313.214 276.637 313.518 275.885 313.518 275 C 313.518 274.115 313.214 273.368 312.606 272.76 C 311.998 272.141 311.251 271.832 310.366 271.832 C 309.481 271.832 308.734 272.141 308.126 272.76 C 307.518 273.368 307.214 274.115 307.214 275 C 307.214 275.885 307.518 276.637 308.126 277.256 Z M 323.653 270.808 C 324.827 270.808 325.819 271.213 326.629 272.024 C 327.451 272.824 327.861 273.816 327.861 275 C 327.861 276.184 327.451 277.181 326.629 277.992 C 325.819 278.792 324.827 279.192 323.653 279.192 C 322.576 279.192 321.648 278.845 320.869 278.152 C 320.101 277.448 319.659 276.568 319.541 275.512 L 317.877 275.512 L 317.877 279 L 316.821 279 L 316.821 271 L 317.877 271 L 317.877 274.488 L 319.541 274.488 C 319.659 273.432 320.101 272.557 320.869 271.864 C 321.648 271.16 322.576 270.808 323.653 270.808 Z M 321.413 277.256 C 322.021 277.864 322.768 278.168 323.653 278.168 C 324.539 278.168 325.285 277.864 325.893 277.256 C 326.501 276.637 326.805 275.885 326.805 275 C 326.805 274.115 326.501 273.368 325.893 272.76 C 325.285 272.141 324.539 271.832 323.653 271.832 C 322.768 271.832 322.021 272.141 321.413 272.76 C 320.805 273.368 320.501 274.115 320.501 275 C 320.501 275.885 320.805 276.637 321.413 277.256 Z M 338.306 279.192 C 337.101 279.192 336.098 278.792 335.298 277.992 C 334.498 277.181 334.098 276.184 334.098 275 C 334.098 273.816 334.498 272.824 335.298 272.024 C 336.098 271.213 337.101 270.808 338.306 270.808 C 339.095 270.808 339.805 271 340.434 271.384 C 341.063 271.757 341.522 272.264 341.81 272.904 L 340.946 273.4 C 340.733 272.92 340.386 272.541 339.906 272.264 C 339.437 271.976 338.903 271.832 338.306 271.832 C 337.421 271.832 336.674 272.141 336.066 272.76 C 335.458 273.368 335.154 274.115 335.154 275 C 335.154 275.885 335.458 276.637 336.066 277.256 C 336.674 277.864 337.421 278.168 338.306 278.168 C 338.903 278.168 339.437 278.029 339.906 277.752 C 340.375 277.464 340.743 277.08 341.01 276.6 L 341.89 277.112 C 341.559 277.752 341.074 278.259 340.434 278.632 C 339.794 279.005 339.085 279.192 338.306 279.192 Z M 350.606 271 L 350.606 279 L 349.55 279 L 349.55 272.024 L 344.942 272.024 L 344.942 279 L 343.886 279 L 343.886 271 L 350.606 271 Z M 354.391 269.08 C 354.242 269.229 354.061 269.304 353.847 269.304 C 353.634 269.304 353.453 269.229 353.303 269.08 C 353.154 268.931 353.079 268.749 353.079 268.536 C 353.079 268.323 353.154 268.141 353.303 267.992 C 353.453 267.843 353.634 267.768 353.847 267.768 C 354.061 267.768 354.242 267.843 354.391 267.992 C 354.541 268.141 354.615 268.323 354.615 268.536 C 354.615 268.749 354.541 268.931 354.391 269.08 Z M 353.319 279 L 353.319 271 L 354.375 271 L 354.375 279 L 353.319 279 Z M 363.656 271 L 363.656 279 L 362.6 279 L 362.6 272.024 L 358.984 272.024 L 358.984 275.592 C 358.984 276.925 358.728 277.843 358.216 278.344 C 357.715 278.845 357.022 279.064 356.136 279 L 356.136 278.008 C 356.744 278.072 357.192 277.928 357.48 277.576 C 357.779 277.224 357.928 276.563 357.928 275.592 L 357.928 271 L 363.656 271 Z M 369.621 274.04 C 370.368 274.04 370.997 274.275 371.509 274.744 C 372.032 275.203 372.293 275.795 372.293 276.52 C 372.293 277.245 372.032 277.843 371.509 278.312 C 370.997 278.771 370.368 279 369.621 279 L 366.373 279 L 366.373 271 L 367.429 271 L 367.429 274.04 L 369.621 274.04 Z M 369.621 277.976 C 370.069 277.976 370.448 277.843 370.757 277.576 C 371.077 277.309 371.237 276.957 371.237 276.52 C 371.237 276.083 371.077 275.731 370.757 275.464 C 370.448 275.197 370.069 275.064 369.621 275.064 L 367.429 275.064 L 367.429 277.976 L 369.621 277.976 Z M 380.033 271 L 381.089 271 L 381.089 279 L 380.033 279 L 380.033 275.512 L 375.425 275.512 L 375.425 279 L 374.369 279 L 374.369 271 L 375.425 271 L 375.425 274.488 L 380.033 274.488 L 380.033 271 Z M 390.506 277.992 C 389.695 278.792 388.703 279.192 387.53 279.192 C 386.357 279.192 385.359 278.792 384.538 277.992 C 383.727 277.181 383.322 276.184 383.322 275 C 383.322 273.816 383.727 272.824 384.538 272.024 C 385.359 271.213 386.357 270.808 387.53 270.808 C 388.703 270.808 389.695 271.213 390.506 272.024 C 391.327 272.824 391.738 273.816 391.738 275 C 391.738 276.184 391.327 277.181 390.506 277.992 Z M 385.29 277.256 C 385.898 277.864 386.645 278.168 387.53 278.168 C 388.415 278.168 389.162 277.864 389.77 277.256 C 390.378 276.637 390.682 275.885 390.682 275 C 390.682 274.115 390.378 273.368 389.77 272.76 C 389.162 272.141 388.415 271.832 387.53 271.832 C 386.645 271.832 385.898 272.141 385.29 272.76 C 384.682 273.368 384.378 274.115 384.378 275 C 384.378 275.885 384.682 276.637 385.29 277.256 Z M 400.817 270.808 C 401.99 270.808 402.982 271.213 403.793 272.024 C 404.614 272.824 405.025 273.816 405.025 275 C 405.025 276.184 404.614 277.181 403.793 277.992 C 402.982 278.792 401.99 279.192 400.817 279.192 C 399.74 279.192 398.812 278.845 398.033 278.152 C 397.265 277.448 396.822 276.568 396.705 275.512 L 395.041 275.512 L 395.041 279 L 393.985 279 L 393.985 271 L 395.041 271 L 395.041 274.488 L 396.705 274.488 C 396.822 273.432 397.265 272.557 398.033 271.864 C 398.812 271.16 399.74 270.808 400.817 270.808 Z M 398.577 277.256 C 399.185 277.864 399.932 278.168 400.817 278.168 C 401.702 278.168 402.449 277.864 403.057 277.256 C 403.665 276.637 403.969 275.885 403.969 275 C 403.969 274.115 403.665 273.368 403.057 272.76 C 402.449 272.141 401.702 271.832 400.817 271.832 C 399.932 271.832 399.185 272.141 398.577 272.76 C 397.969 273.368 397.665 274.115 397.665 275 C 397.665 275.885 397.969 276.637 398.577 277.256 Z M 281.28 297.944 L 282.48 297.944 L 282.48 301.144 L 281.36 301.144 L 281.36 299 L 273.36 299 L 273.36 301.144 L 272.24 301.144 L 272.24 297.944 L 273.152 297.944 C 273.888 297.08 274.256 295.747 274.256 293.944 L 274.256 287.8 L 281.28 287.8 L 281.28 297.944 Z M 274.48 297.944 L 280.16 297.944 L 280.16 288.856 L 275.376 288.856 L 275.376 293.976 C 275.376 295.747 275.077 297.069 274.48 297.944 Z M 293.991 299 L 292.711 299 L 289.447 295.144 L 289.447 299 L 288.391 299 L 288.391 295.144 L 285.127 299 L 283.847 299 L 287.431 294.84 L 284.007 291 L 285.287 291 L 288.391 294.552 L 288.391 291 L 289.447 291 L 289.447 294.552 L 292.551 291 L 293.831 291 L 290.407 294.84 L 293.991 299 Z M 301.732 291 L 302.628 291 L 302.628 299 L 301.572 299 L 301.572 292.84 L 296.804 299 L 295.908 299 L 295.908 291 L 296.964 291 L 296.964 297.16 L 301.732 291 Z M 309.629 290.808 C 310.771 290.808 311.741 291.213 312.541 292.024 C 313.352 292.835 313.757 293.827 313.757 295 C 313.757 296.173 313.352 297.165 312.541 297.976 C 311.741 298.787 310.771 299.192 309.629 299.192 C 308.211 299.192 307.133 298.605 306.397 297.432 L 306.397 302.2 L 305.341 302.2 L 305.341 291 L 306.397 291 L 306.397 292.568 C 307.133 291.395 308.211 290.808 309.629 290.808 Z M 307.309 297.256 C 307.917 297.864 308.664 298.168 309.549 298.168 C 310.435 298.168 311.181 297.864 311.789 297.256 C 312.397 296.637 312.701 295.885 312.701 295 C 312.701 294.115 312.397 293.368 311.789 292.76 C 311.181 292.141 310.435 291.832 309.549 291.832 C 308.664 291.832 307.917 292.141 307.309 292.76 C 306.701 293.368 306.397 294.115 306.397 295 C 306.397 295.885 306.701 296.637 307.309 297.256 Z M 322.697 297.992 C 321.886 298.792 320.894 299.192 319.721 299.192 C 318.548 299.192 317.55 298.792 316.729 297.992 C 315.918 297.181 315.513 296.184 315.513 295 C 315.513 293.816 315.918 292.824 316.729 292.024 C 317.55 291.213 318.548 290.808 319.721 290.808 C 320.894 290.808 321.886 291.213 322.697 292.024 C 323.518 292.824 323.929 293.816 323.929 295 C 323.929 296.184 323.518 297.181 322.697 297.992 Z M 317.481 297.256 C 318.089 297.864 318.836 298.168 319.721 298.168 C 320.606 298.168 321.353 297.864 321.961 297.256 C 322.569 296.637 322.873 295.885 322.873 295 C 322.873 294.115 322.569 293.368 321.961 292.76 C 321.353 292.141 320.606 291.832 319.721 291.832 C 318.836 291.832 318.089 292.141 317.481 292.76 C 316.873 293.368 316.569 294.115 316.569 295 C 316.569 295.885 316.873 296.637 317.481 297.256 Z M 333.008 290.808 C 334.182 290.808 335.174 291.213 335.984 292.024 C 336.806 292.824 337.216 293.816 337.216 295 C 337.216 296.184 336.806 297.181 335.984 297.992 C 335.174 298.792 334.182 299.192 333.008 299.192 C 331.931 299.192 331.003 298.845 330.224 298.152 C 329.456 297.448 329.014 296.568 328.896 295.512 L 327.232 295.512 L 327.232 299 L 326.176 299 L 326.176 291 L 327.232 291 L 327.232 294.488 L 328.896 294.488 C 329.014 293.432 329.456 292.557 330.224 291.864 C 331.003 291.16 331.931 290.808 333.008 290.808 Z M 330.768 297.256 C 331.376 297.864 332.123 298.168 333.008 298.168 C 333.894 298.168 334.64 297.864 335.248 297.256 C 335.856 296.637 336.16 295.885 336.16 295 C 336.16 294.115 335.856 293.368 335.248 292.76 C 334.64 292.141 333.894 291.832 333.008 291.832 C 332.123 291.832 331.376 292.141 330.768 292.76 C 330.16 293.368 329.856 294.115 329.856 295 C 329.856 295.885 330.16 296.637 330.768 297.256 Z" fill="white"/>
  <path d="M56.256 338.448V333.6H58.496L59.648 333.632H68.288L68.944 333.6H72.176V338.448H69.632V336H58.8V338.448H56.256ZM58.832 324H70.08V335.136H67.376V325.152L68.592 326.368H60.288L61.424 325.488C61.488 326.021 61.5307 326.549 61.552 327.072C61.5733 327.595 61.584 328.085 61.584 328.544C61.584 329.845 61.4827 330.949 61.28 331.856C61.0773 332.752 60.7733 333.435 60.368 333.904C59.9627 334.363 59.4613 334.592 58.864 334.592L57.744 333.648C58.192 333.136 58.5227 332.416 58.736 331.488C58.96 330.549 59.072 329.381 59.072 327.984C59.072 327.365 59.0507 326.72 59.008 326.048C58.9653 325.376 58.9067 324.693 58.832 324ZM79.0634 336.24C77.9327 336.24 76.9407 336.043 76.0874 335.648C75.234 335.243 74.5674 334.683 74.0874 333.968C73.6074 333.243 73.3674 332.405 73.3674 331.456C73.3674 330.496 73.6074 329.659 74.0874 328.944C74.5674 328.219 75.234 327.659 76.0874 327.264C76.9407 326.859 77.9327 326.656 79.0634 326.656C80.194 326.656 81.186 326.859 82.0394 327.264C82.8927 327.659 83.554 328.219 84.0234 328.944C84.5034 329.659 84.7434 330.496 84.7434 331.456C84.7434 332.405 84.5034 333.243 84.0234 333.968C83.554 334.683 82.8927 335.243 82.0394 335.648C81.186 336.043 80.194 336.24 79.0634 336.24ZM79.0634 334.208C79.682 334.208 80.21 334.096 80.6474 333.872C81.0954 333.648 81.4367 333.333 81.6714 332.928C81.9167 332.512 82.0394 332.021 82.0394 331.456C82.0394 330.88 81.9167 330.389 81.6714 329.984C81.4367 329.568 81.0954 329.248 80.6474 329.024C80.21 328.8 79.682 328.688 79.0634 328.688C78.4554 328.688 77.9274 328.8 77.4794 329.024C77.0314 329.248 76.6847 329.568 76.4394 329.984C76.2047 330.389 76.0874 330.88 76.0874 331.456C76.0874 332.021 76.2047 332.512 76.4394 332.928C76.6847 333.333 77.0314 333.648 77.4794 333.872C77.9274 334.096 78.4554 334.208 79.0634 334.208ZM97.2285 332.288C97.1218 333.067 96.8178 333.755 96.3165 334.352C95.8258 334.949 95.1912 335.413 94.4125 335.744C93.6338 336.075 92.7645 336.24 91.8045 336.24C90.7165 336.24 89.7565 336.043 88.9245 335.648C88.1032 335.243 87.4578 334.677 86.9885 333.952C86.5298 333.227 86.3005 332.395 86.3005 331.456C86.3005 330.507 86.5298 329.675 86.9885 328.96C87.4578 328.235 88.1032 327.669 88.9245 327.264C89.7565 326.859 90.7165 326.656 91.8045 326.656C92.7645 326.656 93.6338 326.827 94.4125 327.168C95.1912 327.499 95.8258 327.963 96.3165 328.56C96.8178 329.147 97.1218 329.835 97.2285 330.624H94.5565C94.4178 330.005 94.0978 329.531 93.5965 329.2C93.1058 328.859 92.5085 328.688 91.8045 328.688C91.2392 328.688 90.7432 328.8 90.3165 329.024C89.9005 329.237 89.5805 329.552 89.3565 329.968C89.1325 330.373 89.0205 330.869 89.0205 331.456C89.0205 332.032 89.1325 332.528 89.3565 332.944C89.5805 333.349 89.9005 333.664 90.3165 333.888C90.7432 334.101 91.2392 334.208 91.8045 334.208C92.5192 334.208 93.1218 334.032 93.6125 333.68C94.1138 333.328 94.4285 332.864 94.5565 332.288H97.2285ZM98.8959 336L99.4079 331.456L98.8959 326.896H105.904C106.779 326.896 107.472 327.104 107.984 327.52C108.496 327.925 108.752 328.48 108.752 329.184C108.752 329.845 108.496 330.384 107.984 330.8C107.472 331.205 106.757 331.445 105.84 331.52L106.032 331.072C107.099 331.104 107.909 331.328 108.464 331.744C109.029 332.149 109.312 332.72 109.312 333.456C109.312 334.245 109.024 334.869 108.448 335.328C107.883 335.776 107.104 336 106.112 336H98.8959ZM101.472 335.408L100.448 334.272H105.296C105.755 334.272 106.091 334.181 106.304 334C106.517 333.808 106.624 333.541 106.624 333.2C106.624 332.891 106.507 332.64 106.272 332.448C106.037 332.245 105.653 332.144 105.12 332.144H100.992V330.624H104.768C105.216 330.624 105.541 330.533 105.744 330.352C105.957 330.171 106.064 329.925 106.064 329.616C106.064 329.328 105.968 329.093 105.776 328.912C105.595 328.731 105.296 328.64 104.88 328.64H100.464L101.472 327.504L101.968 331.456L101.472 335.408ZM111.319 326.8L112.647 327.056L113.991 326.8V336H111.319V326.8ZM112.647 325.856C112.167 325.856 111.772 325.733 111.463 325.488C111.164 325.232 111.015 324.896 111.015 324.48C111.015 324.053 111.164 323.717 111.463 323.472C111.772 323.216 112.167 323.088 112.647 323.088C113.137 323.088 113.532 323.216 113.831 323.472C114.129 323.717 114.279 324.053 114.279 324.48C114.279 324.896 114.129 325.232 113.831 325.488C113.532 325.733 113.137 325.856 112.647 325.856ZM128.854 333.984V338.24H126.534V336H118.022V338.24H115.702V333.984H118.246L118.838 334.032H125.462L125.99 333.984H128.854ZM117.67 326.896H127.174V335.392H124.502V327.664L125.734 328.896H118.998L120.07 327.936C120.166 328.395 120.225 328.832 120.246 329.248C120.267 329.653 120.278 330.032 120.278 330.384C120.278 331.899 120.049 333.083 119.59 333.936C119.131 334.779 118.486 335.2 117.654 335.2L116.566 334.288C117.419 333.669 117.846 332.192 117.846 329.856C117.846 329.397 117.83 328.923 117.798 328.432C117.766 327.931 117.723 327.419 117.67 326.896ZM132.219 336.144C131.771 336.144 131.398 336 131.099 335.712C130.811 335.424 130.667 335.061 130.667 334.624C130.667 334.187 130.811 333.824 131.099 333.536C131.398 333.248 131.771 333.104 132.219 333.104C132.678 333.104 133.051 333.248 133.339 333.536C133.638 333.824 133.787 334.187 133.787 334.624C133.787 335.061 133.638 335.424 133.339 335.712C133.051 336 132.678 336.144 132.219 336.144ZM132.219 330.48C131.771 330.48 131.398 330.336 131.099 330.048C130.811 329.76 130.667 329.397 130.667 328.96C130.667 328.523 130.811 328.16 131.099 327.872C131.398 327.584 131.771 327.44 132.219 327.44C132.678 327.44 133.051 327.584 133.339 327.872C133.638 328.16 133.787 328.523 133.787 328.96C133.787 329.397 133.638 329.76 133.339 330.048C133.051 330.336 132.678 330.48 132.219 330.48Z" fill="white"/>
  <path d="M280.88 331.704V332.76H279.44V335H278.32V332.76H272.4V331.704L276.56 323.8H277.792L273.632 331.704H278.32V328.28H279.44V331.704H280.88ZM289.441 328.888V329.912H286.593V332.76H285.569V329.912H282.721V328.888H285.569V326.04H286.593V328.888H289.441ZM300.77 326.808C301.911 326.808 302.882 327.213 303.682 328.024C304.493 328.835 304.898 329.827 304.898 331C304.898 332.173 304.493 333.165 303.682 333.976C302.882 334.787 301.911 335.192 300.77 335.192C299.351 335.192 298.274 334.605 297.538 333.432V338.2H296.482V327H297.538V328.568C298.274 327.395 299.351 326.808 300.77 326.808ZM298.45 333.256C299.058 333.864 299.805 334.168 300.69 334.168C301.575 334.168 302.322 333.864 302.93 333.256C303.538 332.637 303.842 331.885 303.842 331C303.842 330.115 303.538 329.368 302.93 328.76C302.322 328.141 301.575 327.832 300.69 327.832C299.805 327.832 299.058 328.141 298.45 328.76C297.842 329.368 297.538 330.115 297.538 331C297.538 331.885 297.842 332.637 298.45 333.256ZM313.838 333.992C313.027 334.792 312.035 335.192 310.862 335.192C309.688 335.192 308.691 334.792 307.87 333.992C307.059 333.181 306.654 332.184 306.654 331C306.654 329.816 307.059 328.824 307.87 328.024C308.691 327.213 309.688 326.808 310.862 326.808C312.035 326.808 313.027 327.213 313.838 328.024C314.659 328.824 315.07 329.816 315.07 331C315.07 332.184 314.659 333.181 313.838 333.992ZM308.622 333.256C309.23 333.864 309.976 334.168 310.862 334.168C311.747 334.168 312.494 333.864 313.102 333.256C313.71 332.637 314.014 331.885 314.014 331C314.014 330.115 313.71 329.368 313.102 328.76C312.494 328.141 311.747 327.832 310.862 327.832C309.976 327.832 309.23 328.141 308.622 328.76C308.014 329.368 307.71 330.115 307.71 331C307.71 331.885 308.014 332.637 308.622 333.256ZM323.781 335H322.373L318.373 331.144V335H317.317V327H318.373V330.536L322.181 327H323.621L319.493 330.84L323.781 335ZM331.527 327H332.423V335H331.367V328.84L326.599 335H325.703V327H326.759V333.16L331.527 327Z" fill="white"/>
  <path d="M60.048 372L62.112 368.432H62.144L67.008 360H69.952L62.992 372H60.048ZM62.112 370.256L56.128 360H59.12L63.984 368.368L62.112 370.256ZM70.8529 362.896H80.2609V372H77.5889V363.696L78.8209 364.912H72.1809L73.3329 363.92C73.3862 364.571 73.4289 365.173 73.4609 365.728C73.5035 366.272 73.5249 366.763 73.5249 367.2C73.5249 368.949 73.2635 370.219 72.7409 371.008C72.2289 371.797 71.3969 372.192 70.2449 372.192C69.9249 372.192 69.6155 372.155 69.3169 372.08C69.0289 372.016 68.7462 371.904 68.4689 371.744V369.808C68.6609 369.883 68.8475 369.941 69.0289 369.984C69.2209 370.016 69.3969 370.032 69.5569 370.032C70.1009 370.032 70.4902 369.787 70.7249 369.296C70.9702 368.795 71.0929 367.973 71.0929 366.832C71.0929 366.32 71.0715 365.733 71.0289 365.072C70.9969 364.411 70.9382 363.685 70.8529 362.896ZM92.5573 372.24C91.4372 372.24 90.4559 372.043 89.6132 371.648C88.7706 371.243 88.1146 370.683 87.6452 369.968C87.1866 369.243 86.9572 368.405 86.9572 367.456C86.9572 366.496 87.1866 365.659 87.6452 364.944C88.1146 364.219 88.7706 363.659 89.6132 363.264C90.4559 362.859 91.4372 362.656 92.5573 362.656C93.6772 362.656 94.6586 362.859 95.5012 363.264C96.3439 363.659 96.9999 364.219 97.4692 364.944C97.9386 365.659 98.1733 366.496 98.1733 367.456C98.1733 368.405 97.9386 369.243 97.4692 369.968C96.9999 370.683 96.3439 371.243 95.5012 371.648C94.6586 372.043 93.6772 372.24 92.5573 372.24ZM82.7492 372V362.896H85.4212V372H82.7492ZM84.2532 368.368V366.368H88.6532V368.368H84.2532ZM92.5573 370.208C93.1652 370.208 93.6826 370.096 94.1093 369.872C94.5466 369.648 94.8826 369.333 95.1172 368.928C95.3519 368.512 95.4692 368.021 95.4692 367.456C95.4692 366.88 95.3519 366.389 95.1172 365.984C94.8826 365.568 94.5466 365.248 94.1093 365.024C93.6826 364.8 93.1652 364.688 92.5573 364.688C91.9599 364.688 91.4426 364.8 91.0052 365.024C90.5679 365.248 90.2319 365.568 89.9972 365.984C89.7626 366.389 89.6452 366.88 89.6452 367.456C89.6452 368.021 89.7626 368.512 89.9972 368.928C90.2319 369.333 90.5679 369.648 91.0052 369.872C91.4426 370.096 91.9599 370.208 92.5573 370.208ZM105.782 372.24C104.534 372.24 103.467 372.005 102.582 371.536C101.697 371.056 101.019 370.368 100.55 369.472C100.081 368.576 99.846 367.493 99.846 366.224C99.846 364.336 100.353 362.848 101.366 361.76C102.379 360.672 103.83 360.048 105.718 359.888C106.486 359.824 107.121 359.771 107.622 359.728C108.123 359.685 108.534 359.643 108.854 359.6C109.185 359.547 109.462 359.493 109.686 359.44C109.91 359.376 110.129 359.307 110.342 359.232V361.456C110.118 361.541 109.83 361.621 109.478 361.696C109.137 361.76 108.699 361.813 108.166 361.856C107.643 361.899 106.998 361.941 106.23 361.984C104.833 362.048 103.793 362.432 103.11 363.136C102.427 363.84 102.086 364.853 102.086 366.176V366.608L101.99 366.416C102.203 365.84 102.529 365.344 102.966 364.928C103.403 364.512 103.926 364.197 104.534 363.984C105.153 363.76 105.819 363.648 106.534 363.648C107.462 363.648 108.273 363.824 108.966 364.176C109.659 364.517 110.198 365.003 110.582 365.632C110.977 366.261 111.174 366.997 111.174 367.84C111.174 368.725 110.95 369.499 110.502 370.16C110.054 370.821 109.425 371.333 108.614 371.696C107.814 372.059 106.87 372.24 105.782 372.24ZM105.846 370.208C106.379 370.208 106.843 370.112 107.238 369.92C107.633 369.728 107.937 369.456 108.15 369.104C108.363 368.752 108.47 368.341 108.47 367.872C108.47 367.403 108.363 366.997 108.15 366.656C107.937 366.304 107.633 366.032 107.238 365.84C106.843 365.648 106.379 365.552 105.846 365.552C105.11 365.552 104.459 365.749 103.894 366.144C103.329 366.528 102.902 367.067 102.614 367.76C102.785 368.507 103.158 369.104 103.734 369.552C104.321 369.989 105.025 370.208 105.846 370.208ZM114.558 362.896H123.966V372H121.294V363.696L122.526 364.912H115.886L117.038 363.92C117.092 364.571 117.134 365.173 117.166 365.728C117.209 366.272 117.23 366.763 117.23 367.2C117.23 368.949 116.969 370.219 116.446 371.008C115.934 371.797 115.102 372.192 113.95 372.192C113.63 372.192 113.321 372.155 113.022 372.08C112.734 372.016 112.452 371.904 112.174 371.744V369.808C112.366 369.883 112.553 369.941 112.734 369.984C112.926 370.016 113.102 370.032 113.262 370.032C113.806 370.032 114.196 369.787 114.43 369.296C114.676 368.795 114.798 367.973 114.798 366.832C114.798 366.32 114.777 365.733 114.734 365.072C114.702 364.411 114.644 363.685 114.558 362.896ZM131.591 372.24C130.514 372.24 129.548 372.043 128.695 371.648C127.852 371.243 127.186 370.677 126.695 369.952C126.215 369.227 125.975 368.384 125.975 367.424C125.975 366.475 126.204 365.643 126.663 364.928C127.132 364.213 127.772 363.659 128.583 363.264C129.394 362.859 130.316 362.656 131.351 362.656C132.407 362.656 133.314 362.891 134.071 363.36C134.828 363.819 135.41 364.469 135.815 365.312C136.231 366.155 136.439 367.147 136.439 368.288H128.119V366.512H134.999L133.959 367.152C133.916 366.619 133.783 366.165 133.559 365.792C133.346 365.419 133.052 365.131 132.679 364.928C132.306 364.725 131.868 364.624 131.367 364.624C130.823 364.624 130.348 364.736 129.943 364.96C129.548 365.173 129.239 365.477 129.015 365.872C128.802 366.256 128.695 366.709 128.695 367.232C128.695 367.861 128.834 368.4 129.111 368.848C129.388 369.296 129.794 369.637 130.327 369.872C130.86 370.107 131.506 370.224 132.263 370.224C132.946 370.224 133.634 370.128 134.327 369.936C135.02 369.733 135.644 369.451 136.199 369.088V370.88C135.602 371.307 134.903 371.643 134.103 371.888C133.314 372.123 132.476 372.24 131.591 372.24ZM138.482 362.896H141.138V372H138.482V362.896ZM146.114 362.896H148.77V372H146.114V362.896ZM140.002 366.352H147.154V368.368H140.002V366.352ZM151.259 372V362.896H153.883V370.592L153.227 370.416L158.715 362.896H162.155V372H159.531V364.16L160.187 364.352L154.603 372H151.259ZM164.645 372V362.896H167.269V370.592L166.613 370.416L172.101 362.896H175.541V372H172.917V364.16L173.573 364.352L167.989 372H164.645ZM170.021 362.064C168.986 362.064 168.154 361.813 167.525 361.312C166.896 360.8 166.506 360.059 166.357 359.088H168.453C168.528 359.547 168.698 359.899 168.965 360.144C169.242 360.379 169.594 360.496 170.021 360.496C170.448 360.496 170.794 360.379 171.061 360.144C171.328 359.899 171.504 359.547 171.589 359.088H173.669C173.53 360.059 173.141 360.8 172.501 361.312C171.872 361.813 171.045 362.064 170.021 362.064ZM190.157 362.896V364.944H184.045L185.277 363.728V372H182.605V362.896H190.157ZM194.426 374.88C193.829 374.88 193.29 374.805 192.81 374.656C192.33 374.507 191.877 374.288 191.45 374V372.08C191.898 372.368 192.325 372.576 192.73 372.704C193.136 372.832 193.584 372.896 194.074 372.896C194.512 372.896 194.901 372.795 195.242 372.592C195.584 372.4 195.866 372.053 196.09 371.552L199.882 362.896H202.714L198.17 372.416C197.893 373.013 197.557 373.493 197.162 373.856C196.768 374.219 196.336 374.48 195.866 374.64C195.408 374.8 194.928 374.88 194.426 374.88ZM195.002 371.424L190.986 362.896H193.93L197.61 371.424H195.002ZM204.268 362.896H206.94V365.792L206.828 366.144V368.336L206.94 368.992V374.64H204.268V362.896ZM206.012 367.456C206.193 366.485 206.508 365.643 206.956 364.928C207.415 364.203 207.985 363.643 208.668 363.248C209.361 362.853 210.129 362.656 210.972 362.656C211.868 362.656 212.652 362.859 213.324 363.264C214.007 363.659 214.54 364.219 214.924 364.944C215.308 365.659 215.5 366.496 215.5 367.456C215.5 368.405 215.308 369.243 214.924 369.968C214.54 370.683 214.007 371.243 213.324 371.648C212.652 372.043 211.868 372.24 210.972 372.24C210.119 372.24 209.351 372.043 208.668 371.648C207.996 371.253 207.431 370.699 206.972 369.984C206.513 369.259 206.193 368.416 206.012 367.456ZM212.796 367.456C212.796 366.923 212.684 366.453 212.46 366.048C212.247 365.632 211.948 365.312 211.564 365.088C211.18 364.853 210.737 364.736 210.236 364.736C209.735 364.736 209.26 364.853 208.812 365.088C208.364 365.312 207.969 365.632 207.628 366.048C207.297 366.453 207.036 366.923 206.844 367.456C207.036 367.989 207.297 368.459 207.628 368.864C207.969 369.269 208.364 369.589 208.812 369.824C209.26 370.048 209.735 370.16 210.236 370.16C210.737 370.16 211.18 370.048 211.564 369.824C211.948 369.589 212.247 369.269 212.46 368.864C212.684 368.459 212.796 367.989 212.796 367.456ZM220.049 363.824H222.721V372H220.049V363.824ZM216.433 362.896H226.337V364.944H216.433V362.896ZM229.513 372.144C229.065 372.144 228.691 372 228.393 371.712C228.105 371.424 227.961 371.061 227.961 370.624C227.961 370.187 228.105 369.824 228.393 369.536C228.691 369.248 229.065 369.104 229.513 369.104C229.971 369.104 230.345 369.248 230.633 369.536C230.931 369.824 231.081 370.187 231.081 370.624C231.081 371.061 230.931 371.424 230.633 371.712C230.345 372 229.971 372.144 229.513 372.144ZM229.513 366.48C229.065 366.48 228.691 366.336 228.393 366.048C228.105 365.76 227.961 365.397 227.961 364.96C227.961 364.523 228.105 364.16 228.393 363.872C228.691 363.584 229.065 363.44 229.513 363.44C229.971 363.44 230.345 363.584 230.633 363.872C230.931 364.16 231.081 364.523 231.081 364.96C231.081 365.397 230.931 365.76 230.633 366.048C230.345 366.336 229.971 366.48 229.513 366.48Z" fill="white"/>
  <path d="M280.736 371L279.696 368.248H274.384L273.344 371H272.16L276.464 359.8H277.616L281.92 371H280.736ZM274.784 367.192H279.296L277.04 361.192L274.784 367.192ZM288.664 371.192C286.968 371.192 285.565 370.632 284.456 369.512C283.347 368.392 282.792 367.021 282.792 365.4C282.792 363.779 283.347 362.408 284.456 361.288C285.565 360.168 286.968 359.608 288.664 359.608C289.699 359.608 290.648 359.859 291.512 360.36C292.376 360.851 293.043 361.517 293.512 362.36L292.52 362.936C292.168 362.253 291.645 361.709 290.952 361.304C290.259 360.899 289.496 360.696 288.664 360.696C287.267 360.696 286.125 361.149 285.24 362.056C284.355 362.963 283.912 364.077 283.912 365.4C283.912 366.723 284.355 367.837 285.24 368.744C286.125 369.651 287.267 370.104 288.664 370.104C289.496 370.104 290.259 369.901 290.952 369.496C291.645 369.091 292.168 368.547 292.52 367.864L293.512 368.424C293.053 369.267 292.387 369.939 291.512 370.44C290.648 370.941 289.699 371.192 288.664 371.192ZM295.994 372.6H295.194L301.594 358.2H302.394L295.994 372.6ZM309.118 359.8C310.643 359.8 311.902 360.344 312.894 361.432C313.897 362.509 314.398 363.832 314.398 365.4C314.398 366.968 313.897 368.296 312.894 369.384C311.902 370.461 310.643 371 309.118 371H304.798V359.8H309.118ZM309.118 369.944C310.345 369.944 311.347 369.507 312.126 368.632C312.915 367.757 313.31 366.68 313.31 365.4C313.31 364.12 312.915 363.043 312.126 362.168C311.347 361.293 310.345 360.856 309.118 360.856H305.918V369.944H309.118ZM322.026 371.192C320.33 371.192 318.927 370.632 317.818 369.512C316.708 368.392 316.154 367.021 316.154 365.4C316.154 363.779 316.708 362.408 317.818 361.288C318.927 360.168 320.33 359.608 322.026 359.608C323.06 359.608 324.01 359.859 324.874 360.36C325.738 360.851 326.404 361.517 326.874 362.36L325.882 362.936C325.53 362.253 325.007 361.709 324.314 361.304C323.62 360.899 322.858 360.696 322.026 360.696C320.628 360.696 319.487 361.149 318.602 362.056C317.716 362.963 317.274 364.077 317.274 365.4C317.274 366.723 317.716 367.837 318.602 368.744C319.487 369.651 320.628 370.104 322.026 370.104C322.858 370.104 323.62 369.901 324.314 369.496C325.007 369.091 325.53 368.547 325.882 367.864L326.874 368.424C326.415 369.267 325.748 369.939 324.874 370.44C324.01 370.941 323.06 371.192 322.026 371.192Z" fill="white"/>
</svg>
