<svg width="450" height="545" viewBox="0 0 450 545" fill="none" xmlns="http://www.w3.org/2000/svg">
<path d="M1.1987 360.099L32.7814 501.725C38.2883 526.42 61.3744 543.109 86.5504 540.595L396.173 509.68C425.191 506.782 445.582 479.767 440.414 451.066L399.751 225.238C398.286 217.1 398.861 208.727 401.426 200.866L428.348 118.367C433.251 103.34 430.761 86.8805 421.632 73.9773L387.032 25.0721C376.151 9.69223 357.548 1.73442 338.91 4.48664L220.924 21.9095L42.0449 50.7368C17.814 54.6417 0 75.5564 0 100.1V349.216C0 352.877 0.401977 356.526 1.1987 360.099Z" fill="#C0B7EE"/>
<path d="M36.232 174V162H38.936V171.792L38.168 171.248L45.592 162H48.488L38.68 174H36.232ZM41.96 168.128L43.912 166.384L48.664 174H45.56L41.96 168.128ZM50.0974 164.8L51.4254 165.056L52.7694 164.8V174H50.0974V164.8ZM51.4254 163.856C50.9454 163.856 50.5507 163.733 50.2414 163.488C49.9427 163.232 49.7934 162.896 49.7934 162.48C49.7934 162.053 49.9427 161.717 50.2414 161.472C50.5507 161.216 50.9454 161.088 51.4254 161.088C51.916 161.088 52.3107 161.216 52.6094 161.472C52.908 161.717 53.0574 162.053 53.0574 162.48C53.0574 162.896 52.908 163.232 52.6094 163.488C52.3107 163.733 51.916 163.856 51.4254 163.856ZM56.8329 164.896H66.2409V174H63.5689V165.696L64.8009 166.912H58.1609L59.3129 165.92C59.3662 166.571 59.4089 167.173 59.4409 167.728C59.4835 168.272 59.5049 168.763 59.5049 169.2C59.5049 170.949 59.2435 172.219 58.7209 173.008C58.2089 173.797 57.3769 174.192 56.2249 174.192C55.9049 174.192 55.5955 174.155 55.2969 174.08C55.0089 174.016 54.7262 173.904 54.4489 173.744V171.808C54.6409 171.883 54.8275 171.941 55.0089 171.984C55.2009 172.016 55.3769 172.032 55.5369 172.032C56.0809 172.032 56.4702 171.787 56.7049 171.296C56.9502 170.795 57.0729 169.973 57.0729 168.832C57.0729 168.32 57.0515 167.733 57.0089 167.072C56.9769 166.411 56.9182 165.685 56.8329 164.896ZM68.7292 174V164.896H71.3852V173.312L70.5212 172.08H74.0732C74.5639 172.08 74.9426 171.963 75.2092 171.728C75.4759 171.483 75.6092 171.152 75.6092 170.736C75.6092 170.299 75.4759 169.963 75.2092 169.728C74.9426 169.483 74.5639 169.36 74.0732 169.36H70.5372V167.52H74.4732C75.2519 167.52 75.9239 167.659 76.4892 167.936C77.0652 168.203 77.5132 168.581 77.8332 169.072C78.1532 169.552 78.3132 170.117 78.3132 170.768C78.3132 171.408 78.1532 171.973 77.8332 172.464C77.5132 172.955 77.0706 173.333 76.5052 173.6C75.9399 173.867 75.2732 174 74.5052 174H68.7292ZM80.0999 174V164.896H82.7719V171.84L81.9879 171.568L87.4119 164.896H90.3239L82.4999 174H80.0999ZM87.5399 174L84.8199 169.536L86.7879 168.016L90.5959 174H87.5399ZM91.9861 164.8L93.3141 165.056L94.6581 164.8V174H91.9861V164.8ZM93.3141 163.856C92.8341 163.856 92.4395 163.733 92.1301 163.488C91.8315 163.232 91.6821 162.896 91.6821 162.48C91.6821 162.053 91.8315 161.717 92.1301 161.472C92.4395 161.216 92.8341 161.088 93.3141 161.088C93.8048 161.088 94.1995 161.216 94.4981 161.472C94.7968 161.717 94.9461 162.053 94.9461 162.48C94.9461 162.896 94.7968 163.232 94.4981 163.488C94.1995 163.733 93.8048 163.856 93.3141 163.856ZM107.602 170.288C107.495 171.067 107.191 171.755 106.69 172.352C106.199 172.949 105.564 173.413 104.786 173.744C104.007 174.075 103.138 174.24 102.178 174.24C101.09 174.24 100.13 174.043 99.2976 173.648C98.4763 173.243 97.831 172.677 97.3616 171.952C96.903 171.227 96.6736 170.395 96.6736 169.456C96.6736 168.507 96.903 167.675 97.3616 166.96C97.831 166.235 98.4763 165.669 99.2976 165.264C100.13 164.859 101.09 164.656 102.178 164.656C103.138 164.656 104.007 164.827 104.786 165.168C105.564 165.499 106.199 165.963 106.69 166.56C107.191 167.147 107.495 167.835 107.602 168.624H104.93C104.791 168.005 104.471 167.531 103.97 167.2C103.479 166.859 102.882 166.688 102.178 166.688C101.612 166.688 101.116 166.8 100.69 167.024C100.274 167.237 99.9536 167.552 99.7296 167.968C99.5056 168.373 99.3936 168.869 99.3936 169.456C99.3936 170.032 99.5056 170.528 99.7296 170.944C99.9536 171.349 100.274 171.664 100.69 171.888C101.116 172.101 101.612 172.208 102.178 172.208C102.892 172.208 103.495 172.032 103.986 171.68C104.487 171.328 104.802 170.864 104.93 170.288H107.602ZM112.013 165.824H114.685V174H112.013V165.824ZM108.397 164.896H118.301V166.944H108.397V164.896ZM120.004 174V164.896H122.66V173.312L121.796 172.08H125.348C125.839 172.08 126.218 171.963 126.484 171.728C126.751 171.483 126.884 171.152 126.884 170.736C126.884 170.299 126.751 169.963 126.484 169.728C126.218 169.483 125.839 169.36 125.348 169.36H121.812V167.52H125.748C126.527 167.52 127.199 167.659 127.764 167.936C128.34 168.203 128.788 168.581 129.108 169.072C129.428 169.552 129.588 170.117 129.588 170.768C129.588 171.408 129.428 171.973 129.108 172.464C128.788 172.955 128.346 173.333 127.78 173.6C127.215 173.867 126.548 174 125.78 174H120.004ZM36.008 184.896H38.68V187.792L38.568 188.144V190.336L38.68 190.992V196.64H36.008V184.896ZM37.752 189.456C37.9333 188.485 38.248 187.643 38.696 186.928C39.1547 186.203 39.7253 185.643 40.408 185.248C41.1013 184.853 41.8693 184.656 42.712 184.656C43.608 184.656 44.392 184.859 45.064 185.264C45.7467 185.659 46.28 186.219 46.664 186.944C47.048 187.659 47.24 188.496 47.24 189.456C47.24 190.405 47.048 191.243 46.664 191.968C46.28 192.683 45.7467 193.243 45.064 193.648C44.392 194.043 43.608 194.24 42.712 194.24C41.8587 194.24 41.0907 194.043 40.408 193.648C39.736 193.253 39.1707 192.699 38.712 191.984C38.2533 191.259 37.9333 190.416 37.752 189.456ZM44.536 189.456C44.536 188.923 44.424 188.453 44.2 188.048C43.9867 187.632 43.688 187.312 43.304 187.088C42.92 186.853 42.4773 186.736 41.976 186.736C41.4747 186.736 41 186.853 40.552 187.088C40.104 187.312 39.7093 187.632 39.368 188.048C39.0373 188.453 38.776 188.923 38.584 189.456C38.776 189.989 39.0373 190.459 39.368 190.864C39.7093 191.269 40.104 191.589 40.552 191.824C41 192.048 41.4747 192.16 41.976 192.16C42.4773 192.16 42.92 192.048 43.304 191.824C43.688 191.589 43.9867 191.269 44.2 190.864C44.424 190.459 44.536 189.989 44.536 189.456ZM54.4209 194.24C53.3435 194.24 52.3782 194.043 51.5249 193.648C50.6822 193.243 50.0155 192.677 49.5249 191.952C49.0449 191.227 48.8049 190.384 48.8049 189.424C48.8049 188.475 49.0342 187.643 49.4929 186.928C49.9622 186.213 50.6022 185.659 51.4129 185.264C52.2235 184.859 53.1462 184.656 54.1809 184.656C55.2369 184.656 56.1435 184.891 56.9009 185.36C57.6582 185.819 58.2395 186.469 58.6449 187.312C59.0609 188.155 59.2689 189.147 59.2689 190.288H50.9489V188.512H57.8289L56.7889 189.152C56.7462 188.619 56.6129 188.165 56.3889 187.792C56.1755 187.419 55.8822 187.131 55.5089 186.928C55.1355 186.725 54.6982 186.624 54.1969 186.624C53.6529 186.624 53.1782 186.736 52.7729 186.96C52.3782 187.173 52.0689 187.477 51.8449 187.872C51.6315 188.256 51.5249 188.709 51.5249 189.232C51.5249 189.861 51.6635 190.4 51.9409 190.848C52.2182 191.296 52.6235 191.637 53.1569 191.872C53.6902 192.107 54.3355 192.224 55.0929 192.224C55.7755 192.224 56.4635 192.128 57.1569 191.936C57.8502 191.733 58.4742 191.451 59.0289 191.088V192.88C58.4315 193.307 57.7329 193.643 56.9329 193.888C56.1435 194.123 55.3062 194.24 54.4209 194.24ZM69.6477 194L69.2637 190.672L69.6957 189.456L69.2637 188.256L69.6477 184.896H72.4157L71.8877 189.456L72.4157 194H69.6477ZM70.3517 189.456C70.1811 190.416 69.8664 191.259 69.4077 191.984C68.9597 192.699 68.3891 193.253 67.6957 193.648C67.0131 194.043 66.2451 194.24 65.3917 194.24C64.5064 194.24 63.7224 194.043 63.0397 193.648C62.3571 193.243 61.8237 192.683 61.4397 191.968C61.0664 191.243 60.8797 190.405 60.8797 189.456C60.8797 188.496 61.0664 187.659 61.4397 186.944C61.8237 186.219 62.3571 185.659 63.0397 185.264C63.7224 184.859 64.5064 184.656 65.3917 184.656C66.2451 184.656 67.0131 184.853 67.6957 185.248C68.3891 185.643 68.9651 186.203 69.4237 186.928C69.8824 187.643 70.1917 188.485 70.3517 189.456ZM63.5837 189.456C63.5837 189.989 63.6904 190.459 63.9037 190.864C64.1277 191.269 64.4317 191.589 64.8157 191.824C65.1997 192.048 65.6424 192.16 66.1437 192.16C66.6451 192.16 67.1144 192.048 67.5517 191.824C67.9997 191.589 68.3944 191.269 68.7357 190.864C69.0771 190.459 69.3437 189.989 69.5357 189.456C69.3437 188.923 69.0771 188.453 68.7357 188.048C68.3944 187.632 67.9997 187.312 67.5517 187.088C67.1144 186.853 66.6451 186.736 66.1437 186.736C65.6424 186.736 65.1997 186.853 64.8157 187.088C64.4317 187.312 64.1277 187.632 63.9037 188.048C63.6904 188.453 63.5837 188.923 63.5837 189.456ZM76.2504 184.896H85.6584V194H82.9864V185.696L84.2184 186.912H77.5784L78.7304 185.92C78.7837 186.571 78.8264 187.173 78.8584 187.728C78.901 188.272 78.9224 188.763 78.9224 189.2C78.9224 190.949 78.661 192.219 78.1384 193.008C77.6264 193.797 76.7944 194.192 75.6424 194.192C75.3224 194.192 75.013 194.155 74.7144 194.08C74.4264 194.016 74.1437 193.904 73.8664 193.744V191.808C74.0584 191.883 74.245 191.941 74.4264 191.984C74.6184 192.016 74.7944 192.032 74.9544 192.032C75.4984 192.032 75.8877 191.787 76.1224 191.296C76.3677 190.795 76.4904 189.973 76.4904 188.832C76.4904 188.32 76.469 187.733 76.4264 187.072C76.3944 186.411 76.3357 185.685 76.2504 184.896ZM88.1467 184.8L89.4747 185.056L90.8187 184.8V194H88.1467V184.8ZM89.4747 183.856C88.9947 183.856 88.6001 183.733 88.2907 183.488C87.9921 183.232 87.8427 182.896 87.8427 182.48C87.8427 182.053 87.9921 181.717 88.2907 181.472C88.6001 181.216 88.9947 181.088 89.4747 181.088C89.9654 181.088 90.3601 181.216 90.6587 181.472C90.9574 181.717 91.1067 182.053 91.1067 182.48C91.1067 182.896 90.9574 183.232 90.6587 183.488C90.3601 183.733 89.9654 183.856 89.4747 183.856ZM97.8103 194.24C96.7969 194.24 95.9116 194.112 95.1543 193.856C94.3969 193.589 93.8049 193.211 93.3783 192.72C92.9516 192.219 92.7169 191.632 92.6743 190.96H95.2663C95.3409 191.408 95.5969 191.749 96.0343 191.984C96.4716 192.219 97.0636 192.336 97.8103 192.336C98.5249 192.336 99.0796 192.245 99.4743 192.064C99.8796 191.872 100.082 191.579 100.082 191.184C100.082 190.864 99.9116 190.629 99.5703 190.48C99.2396 190.32 98.7063 190.24 97.9703 190.24H96.2743V188.64H97.9223C98.5836 188.64 99.0689 188.544 99.3783 188.352C99.6983 188.16 99.8583 187.92 99.8583 187.632C99.8583 187.28 99.6716 187.013 99.2983 186.832C98.9356 186.651 98.4449 186.56 97.8263 186.56C97.1436 186.56 96.5943 186.667 96.1783 186.88C95.7623 187.093 95.5169 187.413 95.4423 187.84H92.8663C92.9089 187.253 93.1329 186.72 93.5383 186.24C93.9436 185.76 94.5143 185.376 95.2503 185.088C95.9969 184.8 96.8929 184.656 97.9383 184.656C98.8663 184.656 99.6769 184.768 100.37 184.992C101.064 185.216 101.602 185.525 101.986 185.92C102.37 186.315 102.562 186.768 102.562 187.28C102.562 187.685 102.434 188.059 102.178 188.4C101.933 188.741 101.533 189.013 100.978 189.216C100.434 189.419 99.7196 189.52 98.8343 189.52V189.248C100.104 189.195 101.08 189.349 101.762 189.712C102.456 190.075 102.802 190.629 102.802 191.376C102.802 191.92 102.605 192.411 102.21 192.848C101.826 193.285 101.261 193.627 100.514 193.872C99.7676 194.117 98.8663 194.24 97.8103 194.24ZM110.073 194.24C108.942 194.24 107.95 194.043 107.097 193.648C106.243 193.243 105.577 192.683 105.097 191.968C104.617 191.243 104.377 190.405 104.377 189.456C104.377 188.496 104.617 187.659 105.097 186.944C105.577 186.219 106.243 185.659 107.097 185.264C107.95 184.859 108.942 184.656 110.073 184.656C111.203 184.656 112.195 184.859 113.049 185.264C113.902 185.659 114.563 186.219 115.033 186.944C115.513 187.659 115.753 188.496 115.753 189.456C115.753 190.405 115.513 191.243 115.033 191.968C114.563 192.683 113.902 193.243 113.049 193.648C112.195 194.043 111.203 194.24 110.073 194.24ZM110.073 192.208C110.691 192.208 111.219 192.096 111.657 191.872C112.105 191.648 112.446 191.333 112.681 190.928C112.926 190.512 113.049 190.021 113.049 189.456C113.049 188.88 112.926 188.389 112.681 187.984C112.446 187.568 112.105 187.248 111.657 187.024C111.219 186.8 110.691 186.688 110.073 186.688C109.465 186.688 108.937 186.8 108.489 187.024C108.041 187.248 107.694 187.568 107.449 187.984C107.214 188.389 107.097 188.88 107.097 189.456C107.097 190.021 107.214 190.512 107.449 190.928C107.694 191.333 108.041 191.648 108.489 191.872C108.937 192.096 109.465 192.208 110.073 192.208ZM117.535 194L118.047 189.456L117.535 184.896H124.543C125.417 184.896 126.111 185.104 126.623 185.52C127.135 185.925 127.391 186.48 127.391 187.184C127.391 187.845 127.135 188.384 126.623 188.8C126.111 189.205 125.396 189.445 124.479 189.52L124.671 189.072C125.737 189.104 126.548 189.328 127.103 189.744C127.668 190.149 127.951 190.72 127.951 191.456C127.951 192.245 127.663 192.869 127.087 193.328C126.521 193.776 125.743 194 124.751 194H117.535ZM120.111 193.408L119.087 192.272H123.935C124.393 192.272 124.729 192.181 124.943 192C125.156 191.808 125.263 191.541 125.263 191.2C125.263 190.891 125.145 190.64 124.911 190.448C124.676 190.245 124.292 190.144 123.759 190.144H119.631V188.624H123.407C123.855 188.624 124.18 188.533 124.383 188.352C124.596 188.171 124.703 187.925 124.703 187.616C124.703 187.328 124.607 187.093 124.415 186.912C124.233 186.731 123.935 186.64 123.519 186.64H119.103L120.111 185.504L120.607 189.456L120.111 193.408ZM138.293 194L137.909 190.672L138.341 189.456L137.909 188.256L138.293 184.896H141.061L140.533 189.456L141.061 194H138.293ZM138.997 189.456C138.827 190.416 138.512 191.259 138.053 191.984C137.605 192.699 137.035 193.253 136.341 193.648C135.659 194.043 134.891 194.24 134.037 194.24C133.152 194.24 132.368 194.043 131.685 193.648C131.003 193.243 130.469 192.683 130.085 191.968C129.712 191.243 129.525 190.405 129.525 189.456C129.525 188.496 129.712 187.659 130.085 186.944C130.469 186.219 131.003 185.659 131.685 185.264C132.368 184.859 133.152 184.656 134.037 184.656C134.891 184.656 135.659 184.853 136.341 185.248C137.035 185.643 137.611 186.203 138.069 186.928C138.528 187.643 138.837 188.485 138.997 189.456ZM132.229 189.456C132.229 189.989 132.336 190.459 132.549 190.864C132.773 191.269 133.077 191.589 133.461 191.824C133.845 192.048 134.288 192.16 134.789 192.16C135.291 192.16 135.76 192.048 136.197 191.824C136.645 191.589 137.04 191.269 137.381 190.864C137.723 190.459 137.989 189.989 138.181 189.456C137.989 188.923 137.723 188.453 137.381 188.048C137.04 187.632 136.645 187.312 136.197 187.088C135.76 186.853 135.291 186.736 134.789 186.736C134.288 186.736 133.845 186.853 133.461 187.088C133.077 187.312 132.773 187.632 132.549 188.048C132.336 188.453 132.229 188.923 132.229 189.456ZM143.328 184.896H145.984V194H143.328V184.896ZM150.96 184.896H153.616V194H150.96V184.896ZM144.848 188.352H152V190.368H144.848V188.352ZM156.105 194V184.896H158.729V192.592L158.073 192.416L163.561 184.896H167.001V194H164.377V186.16L165.033 186.352L159.449 194H156.105ZM168.339 194L172.643 188.848L172.627 189.84L168.595 184.896H171.587L174.435 188.32H173.507L176.371 184.896H179.315L175.155 189.888L175.027 188.64L179.555 194H176.515L173.411 190.32H174.387L171.315 194H168.339ZM46.232 204.896V214H43.56V205.696L44.792 206.912H37.448L38.68 205.696V214H36.008V204.896H46.232ZM48.7224 204.896H51.3944V207.792L51.2824 208.144V210.336L51.3944 210.992V216.64H48.7224V204.896ZM50.4664 209.456C50.6477 208.485 50.9624 207.643 51.4104 206.928C51.869 206.203 52.4397 205.643 53.1224 205.248C53.8157 204.853 54.5837 204.656 55.4264 204.656C56.3224 204.656 57.1064 204.859 57.7784 205.264C58.461 205.659 58.9944 206.219 59.3784 206.944C59.7624 207.659 59.9544 208.496 59.9544 209.456C59.9544 210.405 59.7624 211.243 59.3784 211.968C58.9944 212.683 58.461 213.243 57.7784 213.648C57.1064 214.043 56.3224 214.24 55.4264 214.24C54.573 214.24 53.805 214.043 53.1224 213.648C52.4504 213.253 51.885 212.699 51.4264 211.984C50.9677 211.259 50.6477 210.416 50.4664 209.456ZM57.2504 209.456C57.2504 208.923 57.1384 208.453 56.9144 208.048C56.701 207.632 56.4024 207.312 56.0184 207.088C55.6344 206.853 55.1917 206.736 54.6904 206.736C54.189 206.736 53.7144 206.853 53.2664 207.088C52.8184 207.312 52.4237 207.632 52.0824 208.048C51.7517 208.453 51.4904 208.923 51.2984 209.456C51.4904 209.989 51.7517 210.459 52.0824 210.864C52.4237 211.269 52.8184 211.589 53.2664 211.824C53.7144 212.048 54.189 212.16 54.6904 212.16C55.1917 212.16 55.6344 212.048 56.0184 211.824C56.4024 211.589 56.701 211.269 56.9144 210.864C57.1384 210.459 57.2504 209.989 57.2504 209.456ZM67.2152 214.24C66.0846 214.24 65.0926 214.043 64.2392 213.648C63.3859 213.243 62.7192 212.683 62.2392 211.968C61.7592 211.243 61.5192 210.405 61.5192 209.456C61.5192 208.496 61.7592 207.659 62.2392 206.944C62.7192 206.219 63.3859 205.659 64.2392 205.264C65.0926 204.859 66.0846 204.656 67.2152 204.656C68.3459 204.656 69.3379 204.859 70.1912 205.264C71.0446 205.659 71.7059 206.219 72.1753 206.944C72.6552 207.659 72.8952 208.496 72.8952 209.456C72.8952 210.405 72.6552 211.243 72.1753 211.968C71.7059 212.683 71.0446 213.243 70.1912 213.648C69.3379 214.043 68.3459 214.24 67.2152 214.24ZM67.2152 212.208C67.8339 212.208 68.3619 212.096 68.7992 211.872C69.2472 211.648 69.5886 211.333 69.8232 210.928C70.0686 210.512 70.1912 210.021 70.1912 209.456C70.1912 208.88 70.0686 208.389 69.8232 207.984C69.5886 207.568 69.2472 207.248 68.7992 207.024C68.3619 206.8 67.8339 206.688 67.2152 206.688C66.6072 206.688 66.0792 206.8 65.6312 207.024C65.1832 207.248 64.8366 207.568 64.5912 207.984C64.3566 208.389 64.2392 208.88 64.2392 209.456C64.2392 210.021 64.3566 210.512 64.5912 210.928C64.8366 211.333 65.1832 211.648 65.6312 211.872C66.0792 212.096 66.6072 212.208 67.2152 212.208ZM79.9884 214.24C78.9004 214.24 77.935 214.043 77.0924 213.648C76.2604 213.243 75.6097 212.677 75.1404 211.952C74.6817 211.227 74.4524 210.395 74.4524 209.456C74.4524 208.507 74.6817 207.675 75.1404 206.96C75.6097 206.235 76.2604 205.669 77.0924 205.264C77.935 204.859 78.9004 204.656 79.9884 204.656C80.9484 204.656 81.8124 204.816 82.5804 205.136C83.3484 205.456 83.9777 205.899 84.4684 206.464C84.9697 207.019 85.2844 207.669 85.4124 208.416H82.8044C82.6444 207.872 82.3084 207.429 81.7964 207.088C81.2844 206.736 80.6817 206.56 79.9884 206.56C79.391 206.56 78.8737 206.677 78.4364 206.912C77.999 207.136 77.6577 207.467 77.4124 207.904C77.1777 208.331 77.0604 208.848 77.0604 209.456C77.0604 210.053 77.1777 210.571 77.4124 211.008C77.6577 211.435 77.999 211.765 78.4364 212C78.8737 212.224 79.391 212.336 79.9884 212.336C80.6817 212.336 81.2844 212.165 81.7964 211.824C82.3084 211.483 82.6444 211.035 82.8044 210.48H85.4124C85.2844 211.227 84.9697 211.883 84.4684 212.448C83.9777 213.003 83.3484 213.44 82.5804 213.76C81.8124 214.08 80.9484 214.24 79.9884 214.24ZM75.8444 210.272V208.624H81.3484V210.272H75.8444ZM87.3186 214V204.896H89.9906V211.84L89.2066 211.568L94.6306 204.896H97.5426L89.7186 214H87.3186ZM94.7586 214L92.0386 209.536L94.0066 208.016L97.8146 214H94.7586ZM102.037 205.824H104.709V214H102.037V205.824ZM98.4209 204.896H108.325V206.944H98.4209V204.896ZM110.029 204.8L111.357 205.056L112.701 204.8V214H110.029V204.8ZM111.357 203.856C110.877 203.856 110.482 203.733 110.173 203.488C109.874 203.232 109.725 202.896 109.725 202.48C109.725 202.053 109.874 201.717 110.173 201.472C110.482 201.216 110.877 201.088 111.357 201.088C111.847 201.088 112.242 201.216 112.541 201.472C112.839 201.717 112.989 202.053 112.989 202.48C112.989 202.896 112.839 203.232 112.541 203.488C112.242 203.733 111.847 203.856 111.357 203.856ZM114.972 214L115.484 209.456L114.972 204.896H121.98C122.855 204.896 123.548 205.104 124.06 205.52C124.572 205.925 124.828 206.48 124.828 207.184C124.828 207.845 124.572 208.384 124.06 208.8C123.548 209.205 122.833 209.445 121.916 209.52L122.108 209.072C123.175 209.104 123.985 209.328 124.54 209.744C125.105 210.149 125.388 210.72 125.388 211.456C125.388 212.245 125.1 212.869 124.524 213.328C123.959 213.776 123.18 214 122.188 214H114.972ZM117.548 213.408L116.524 212.272H121.372C121.831 212.272 122.167 212.181 122.38 212C122.593 211.808 122.7 211.541 122.7 211.2C122.7 210.891 122.583 210.64 122.348 210.448C122.113 210.245 121.729 210.144 121.196 210.144H117.068V208.624H120.844C121.292 208.624 121.617 208.533 121.82 208.352C122.033 208.171 122.14 207.925 122.14 207.616C122.14 207.328 122.044 207.093 121.852 206.912C121.671 206.731 121.372 206.64 120.956 206.64H116.54L117.548 205.504L118.044 209.456L117.548 213.408ZM35.784 234L36.296 229.456L35.784 224.896H42.792C43.6667 224.896 44.36 225.104 44.872 225.52C45.384 225.925 45.64 226.48 45.64 227.184C45.64 227.845 45.384 228.384 44.872 228.8C44.36 229.205 43.6453 229.445 42.728 229.52L42.92 229.072C43.9867 229.104 44.7973 229.328 45.352 229.744C45.9173 230.149 46.2 230.72 46.2 231.456C46.2 232.245 45.912 232.869 45.336 233.328C44.7707 233.776 43.992 234 43 234H35.784ZM38.36 233.408L37.336 232.272H42.184C42.6427 232.272 42.9787 232.181 43.192 232C43.4053 231.808 43.512 231.541 43.512 231.2C43.512 230.891 43.3947 230.64 43.16 230.448C42.9253 230.245 42.5413 230.144 42.008 230.144H37.88V228.624H41.656C42.104 228.624 42.4293 228.533 42.632 228.352C42.8453 228.171 42.952 227.925 42.952 227.616C42.952 227.328 42.856 227.093 42.664 226.912C42.4827 226.731 42.184 226.64 41.768 226.64H37.352L38.36 225.504L38.856 229.456L38.36 233.408ZM52.3645 230.08H55.1165C55.1805 230.485 55.3565 230.843 55.6445 231.152C55.9432 231.451 56.3378 231.685 56.8285 231.856C57.3298 232.016 57.9058 232.096 58.5565 232.096C59.5058 232.096 60.2525 231.963 60.7965 231.696C61.3512 231.419 61.6285 231.035 61.6285 230.544C61.6285 230.16 61.4685 229.867 61.1485 229.664C60.8392 229.451 60.2578 229.296 59.4045 229.2L56.9885 228.928C55.4312 228.757 54.3005 228.395 53.5965 227.84C52.9032 227.275 52.5565 226.491 52.5565 225.488C52.5565 224.699 52.7858 224.027 53.2445 223.472C53.7138 222.917 54.3698 222.496 55.2125 222.208C56.0552 221.909 57.0472 221.76 58.1885 221.76C59.2978 221.76 60.2845 221.925 61.1485 222.256C62.0125 222.576 62.7005 223.029 63.2125 223.616C63.7245 224.192 64.0018 224.869 64.0445 225.648H61.2925C61.2392 225.296 61.0792 224.992 60.8125 224.736C60.5565 224.469 60.1992 224.267 59.7405 224.128C59.2818 223.979 58.7432 223.904 58.1245 223.904C57.2605 223.904 56.5725 224.032 56.0605 224.288C55.5485 224.544 55.2925 224.907 55.2925 225.376C55.2925 225.739 55.4418 226.021 55.7405 226.224C56.0498 226.416 56.5885 226.56 57.3565 226.656L59.8685 226.96C60.9778 227.077 61.8578 227.269 62.5085 227.536C63.1698 227.792 63.6392 228.139 63.9165 228.576C64.2045 229.013 64.3485 229.568 64.3485 230.24C64.3485 231.04 64.1032 231.744 63.6125 232.352C63.1325 232.949 62.4552 233.413 61.5805 233.744C60.7058 234.075 59.6818 234.24 58.5085 234.24C57.3138 234.24 56.2632 234.069 55.3565 233.728C54.4498 233.376 53.7352 232.891 53.2125 232.272C52.6898 231.643 52.4072 230.912 52.3645 230.08ZM70.2571 234.24C69.4145 234.24 68.6945 234.069 68.0971 233.728C67.5105 233.376 67.0571 232.88 66.7371 232.24C66.4278 231.6 66.2731 230.843 66.2731 229.968V224.896H68.9451V229.568C68.9451 230.379 69.1371 230.997 69.5211 231.424C69.9051 231.84 70.4491 232.048 71.1531 232.048C71.6758 232.048 72.1185 231.941 72.4811 231.728C72.8545 231.504 73.1425 231.184 73.3451 230.768C73.5478 230.352 73.6491 229.867 73.6491 229.312L74.5131 229.776C74.4065 230.715 74.1558 231.52 73.7611 232.192C73.3665 232.853 72.8651 233.36 72.2571 233.712C71.6598 234.064 70.9931 234.24 70.2571 234.24ZM74.2091 234L73.6491 230.544V224.896H76.3211V230.944L76.8811 234H74.2091ZM78.9436 221.68H81.6156V227.792L81.2476 228.512V230.496L81.6156 231.232V234H78.9436V221.68ZM80.6716 229.456C80.8423 228.485 81.157 227.643 81.6156 226.928C82.0743 226.203 82.645 225.643 83.3276 225.248C84.0103 224.853 84.7783 224.656 85.6316 224.656C86.517 224.656 87.301 224.859 87.9836 225.264C88.6663 225.659 89.1996 226.219 89.5836 226.944C89.9676 227.659 90.1596 228.496 90.1596 229.456C90.1596 230.405 89.9676 231.243 89.5836 231.968C89.1996 232.683 88.6663 233.243 87.9836 233.648C87.301 234.043 86.517 234.24 85.6316 234.24C84.7783 234.24 84.0103 234.043 83.3276 233.648C82.645 233.253 82.0743 232.699 81.6156 231.984C81.1676 231.259 80.853 230.416 80.6716 229.456ZM87.4396 229.456C87.4396 228.923 87.3276 228.453 87.1036 228.048C86.8903 227.632 86.5916 227.312 86.2076 227.088C85.8236 226.853 85.3863 226.736 84.8956 226.736C84.3943 226.736 83.9196 226.853 83.4716 227.088C83.0236 227.312 82.629 227.632 82.2876 228.048C81.957 228.453 81.6956 228.923 81.5036 229.456C81.6956 229.989 81.957 230.459 82.2876 230.864C82.629 231.269 83.0236 231.589 83.4716 231.824C83.9196 232.048 84.3943 232.16 84.8956 232.16C85.3863 232.16 85.8236 232.048 86.2076 231.824C86.5916 231.589 86.8903 231.269 87.1036 230.864C87.3276 230.459 87.4396 229.989 87.4396 229.456ZM91.7416 224.896H94.4136L94.9896 228.368V234H92.3176V227.968L91.7416 224.896ZM98.2376 224.656C99.0483 224.656 99.7416 224.832 100.318 225.184C100.894 225.525 101.331 226.016 101.63 226.656C101.939 227.296 102.094 228.059 102.094 228.944V234H99.4216V229.344C99.4216 228.523 99.2403 227.904 98.8776 227.488C98.5256 227.061 98.0083 226.848 97.3256 226.848C96.8456 226.848 96.4296 226.965 96.0776 227.2C95.7256 227.424 95.4536 227.739 95.2616 228.144C95.0803 228.549 94.9896 229.035 94.9896 229.6L94.1096 229.136C94.2163 228.176 94.4616 227.365 94.8456 226.704C95.2296 226.043 95.7096 225.536 96.2856 225.184C96.8723 224.832 97.523 224.656 98.2376 224.656ZM105.326 224.656C106.136 224.656 106.83 224.832 107.406 225.184C107.992 225.525 108.435 226.016 108.734 226.656C109.043 227.296 109.198 228.059 109.198 228.944V234H106.526V229.344C106.526 228.523 106.344 227.904 105.982 227.488C105.63 227.061 105.112 226.848 104.43 226.848C103.95 226.848 103.534 226.965 103.182 227.2C102.83 227.424 102.558 227.739 102.366 228.144C102.184 228.549 102.094 229.035 102.094 229.6L101.214 229.136C101.32 228.176 101.566 227.365 101.95 226.704C102.334 226.043 102.814 225.536 103.39 225.184C103.976 224.832 104.622 224.656 105.326 224.656ZM119.896 234L119.512 230.672L119.944 229.456L119.512 228.256L119.896 224.896H122.664L122.136 229.456L122.664 234H119.896ZM120.6 229.456C120.429 230.416 120.115 231.259 119.656 231.984C119.208 232.699 118.637 233.253 117.944 233.648C117.261 234.043 116.493 234.24 115.64 234.24C114.755 234.24 113.971 234.043 113.288 233.648C112.605 233.243 112.072 232.683 111.688 231.968C111.315 231.243 111.128 230.405 111.128 229.456C111.128 228.496 111.315 227.659 111.688 226.944C112.072 226.219 112.605 225.659 113.288 225.264C113.971 224.859 114.755 224.656 115.64 224.656C116.493 224.656 117.261 224.853 117.944 225.248C118.637 225.643 119.213 226.203 119.672 226.928C120.131 227.643 120.44 228.485 120.6 229.456ZM113.832 229.456C113.832 229.989 113.939 230.459 114.152 230.864C114.376 231.269 114.68 231.589 115.064 231.824C115.448 232.048 115.891 232.16 116.392 232.16C116.893 232.16 117.363 232.048 117.8 231.824C118.248 231.589 118.643 231.269 118.984 230.864C119.325 230.459 119.592 229.989 119.784 229.456C119.592 228.923 119.325 228.453 118.984 228.048C118.643 227.632 118.248 227.312 117.8 227.088C117.363 226.853 116.893 226.736 116.392 226.736C115.891 226.736 115.448 226.853 115.064 227.088C114.68 227.312 114.376 227.632 114.152 228.048C113.939 228.453 113.832 228.923 113.832 229.456ZM124.499 224.896H127.203L127.747 228.176V234H125.075V227.888L124.499 224.896ZM132.179 224.8V227.104C131.901 227.04 131.624 226.992 131.347 226.96C131.069 226.928 130.808 226.912 130.563 226.912C130.029 226.912 129.549 227.024 129.123 227.248C128.696 227.472 128.36 227.819 128.115 228.288C127.869 228.757 127.747 229.349 127.747 230.064L127.187 229.392C127.251 228.741 127.368 228.133 127.539 227.568C127.709 226.992 127.944 226.491 128.243 226.064C128.552 225.627 128.931 225.285 129.379 225.04C129.827 224.784 130.36 224.656 130.979 224.656C131.181 224.656 131.384 224.672 131.587 224.704C131.8 224.725 131.997 224.757 132.179 224.8ZM133.895 224.8L135.223 225.056L136.567 224.8V234H133.895V224.8ZM135.223 223.856C134.743 223.856 134.348 223.733 134.039 223.488C133.74 223.232 133.591 222.896 133.591 222.48C133.591 222.053 133.74 221.717 134.039 221.472C134.348 221.216 134.743 221.088 135.223 221.088C135.714 221.088 136.108 221.216 136.407 221.472C136.706 221.717 136.855 222.053 136.855 222.48C136.855 222.896 136.706 223.232 136.407 223.488C136.108 223.733 135.714 223.856 135.223 223.856ZM138.63 224.896H141.302L141.878 228.368V234H139.206V227.968L138.63 224.896ZM145.35 224.656C146.214 224.656 146.95 224.832 147.558 225.184C148.166 225.525 148.63 226.016 148.95 226.656C149.27 227.296 149.43 228.059 149.43 228.944V234H146.758V229.344C146.758 228.523 146.561 227.904 146.166 227.488C145.772 227.061 145.196 226.848 144.438 226.848C143.926 226.848 143.473 226.965 143.078 227.2C142.694 227.424 142.396 227.739 142.182 228.144C141.98 228.549 141.878 229.035 141.878 229.6L140.998 229.136C141.105 228.176 141.361 227.365 141.766 226.704C142.172 226.043 142.684 225.536 143.302 225.184C143.921 224.832 144.604 224.656 145.35 224.656ZM156.928 234.24C155.851 234.24 154.886 234.043 154.032 233.648C153.19 233.243 152.523 232.677 152.032 231.952C151.552 231.227 151.312 230.384 151.312 229.424C151.312 228.475 151.542 227.643 152 226.928C152.47 226.213 153.11 225.659 153.92 225.264C154.731 224.859 155.654 224.656 156.688 224.656C157.744 224.656 158.651 224.891 159.408 225.36C160.166 225.819 160.747 226.469 161.152 227.312C161.568 228.155 161.776 229.147 161.776 230.288H153.456V228.512H160.336L159.296 229.152C159.254 228.619 159.12 228.165 158.896 227.792C158.683 227.419 158.39 227.131 158.016 226.928C157.643 226.725 157.206 226.624 156.704 226.624C156.16 226.624 155.686 226.736 155.28 226.96C154.886 227.173 154.576 227.477 154.352 227.872C154.139 228.256 154.032 228.709 154.032 229.232C154.032 229.861 154.171 230.4 154.448 230.848C154.726 231.296 155.131 231.637 155.664 231.872C156.198 232.107 156.843 232.224 157.6 232.224C158.283 232.224 158.971 232.128 159.664 231.936C160.358 231.733 160.982 231.451 161.536 231.088V232.88C160.939 233.307 160.24 233.643 159.44 233.888C158.651 234.123 157.814 234.24 156.928 234.24ZM165.291 234.144C164.843 234.144 164.47 234 164.171 233.712C163.883 233.424 163.739 233.061 163.739 232.624C163.739 232.187 163.883 231.824 164.171 231.536C164.47 231.248 164.843 231.104 165.291 231.104C165.75 231.104 166.123 231.248 166.411 231.536C166.71 231.824 166.859 232.187 166.859 232.624C166.859 233.061 166.71 233.424 166.411 233.712C166.123 234 165.75 234.144 165.291 234.144ZM165.291 228.48C164.843 228.48 164.47 228.336 164.171 228.048C163.883 227.76 163.739 227.397 163.739 226.96C163.739 226.523 163.883 226.16 164.171 225.872C164.47 225.584 164.843 225.44 165.291 225.44C165.75 225.44 166.123 225.584 166.411 225.872C166.71 226.16 166.859 226.523 166.859 226.96C166.859 227.397 166.71 227.76 166.411 228.048C166.123 228.336 165.75 228.48 165.291 228.48Z" fill="white"/>
<path d="M251.64 173V171.992L255.672 167.928C256.824 166.776 257.4 165.789 257.4 164.968C257.4 164.253 257.176 163.699 256.728 163.304C256.291 162.899 255.763 162.696 255.144 162.696C253.992 162.696 253.155 163.224 252.632 164.28L251.688 163.72C252.04 163.027 252.52 162.504 253.128 162.152C253.736 161.789 254.408 161.608 255.144 161.608C256.04 161.608 256.824 161.912 257.496 162.52C258.179 163.117 258.52 163.933 258.52 164.968C258.52 165.619 258.339 166.243 257.976 166.84C257.613 167.437 257.101 168.067 256.44 168.728L253.24 171.912H258.76V173H251.64ZM267.566 166.888V167.912H264.718V170.76H263.694V167.912H260.846V166.888H263.694V164.04H264.718V166.888H267.566Z" fill="white"/>
<path d="M39.048 270L41.112 266.432H41.144L46.008 258H48.952L41.992 270H39.048ZM41.112 268.256L35.128 258H38.12L42.984 266.368L41.112 268.256ZM49.8529 260.896H59.2609V270H56.5889V261.696L57.8209 262.912H51.1809L52.3329 261.92C52.3862 262.571 52.4289 263.173 52.4609 263.728C52.5035 264.272 52.5249 264.763 52.5249 265.2C52.5249 266.949 52.2635 268.219 51.7409 269.008C51.2289 269.797 50.3969 270.192 49.2449 270.192C48.9249 270.192 48.6155 270.155 48.3169 270.08C48.0289 270.016 47.7462 269.904 47.4689 269.744V267.808C47.6609 267.883 47.8475 267.941 48.0289 267.984C48.2209 268.016 48.3969 268.032 48.5569 268.032C49.1009 268.032 49.4902 267.787 49.7249 267.296C49.9702 266.795 50.0929 265.973 50.0929 264.832C50.0929 264.32 50.0715 263.733 50.0289 263.072C49.9969 262.411 49.9382 261.685 49.8529 260.896ZM71.5573 270.24C70.4372 270.24 69.4559 270.043 68.6132 269.648C67.7706 269.243 67.1146 268.683 66.6452 267.968C66.1866 267.243 65.9572 266.405 65.9572 265.456C65.9572 264.496 66.1866 263.659 66.6452 262.944C67.1146 262.219 67.7706 261.659 68.6132 261.264C69.4559 260.859 70.4372 260.656 71.5573 260.656C72.6772 260.656 73.6586 260.859 74.5012 261.264C75.3439 261.659 75.9999 262.219 76.4692 262.944C76.9386 263.659 77.1733 264.496 77.1733 265.456C77.1733 266.405 76.9386 267.243 76.4692 267.968C75.9999 268.683 75.3439 269.243 74.5012 269.648C73.6586 270.043 72.6772 270.24 71.5573 270.24ZM61.7492 270V260.896H64.4212V270H61.7492ZM63.2532 266.368V264.368H67.6532V266.368H63.2532ZM71.5573 268.208C72.1652 268.208 72.6826 268.096 73.1093 267.872C73.5466 267.648 73.8826 267.333 74.1172 266.928C74.3519 266.512 74.4692 266.021 74.4692 265.456C74.4692 264.88 74.3519 264.389 74.1172 263.984C73.8826 263.568 73.5466 263.248 73.1093 263.024C72.6826 262.8 72.1652 262.688 71.5573 262.688C70.9599 262.688 70.4426 262.8 70.0052 263.024C69.5679 263.248 69.2319 263.568 68.9972 263.984C68.7626 264.389 68.6452 264.88 68.6452 265.456C68.6452 266.021 68.7626 266.512 68.9972 266.928C69.2319 267.333 69.5679 267.648 70.0052 267.872C70.4426 268.096 70.9599 268.208 71.5573 268.208ZM84.782 270.24C83.534 270.24 82.4673 270.005 81.582 269.536C80.6967 269.056 80.0193 268.368 79.55 267.472C79.0807 266.576 78.846 265.493 78.846 264.224C78.846 262.336 79.3527 260.848 80.366 259.76C81.3793 258.672 82.83 258.048 84.718 257.888C85.486 257.824 86.1207 257.771 86.622 257.728C87.1233 257.685 87.534 257.643 87.854 257.6C88.1847 257.547 88.462 257.493 88.686 257.44C88.91 257.376 89.1287 257.307 89.342 257.232V259.456C89.118 259.541 88.83 259.621 88.478 259.696C88.1367 259.76 87.6993 259.813 87.166 259.856C86.6433 259.899 85.998 259.941 85.23 259.984C83.8327 260.048 82.7927 260.432 82.11 261.136C81.4273 261.84 81.086 262.853 81.086 264.176V264.608L80.99 264.416C81.2033 263.84 81.5287 263.344 81.966 262.928C82.4033 262.512 82.926 262.197 83.534 261.984C84.1527 261.76 84.8193 261.648 85.534 261.648C86.462 261.648 87.2727 261.824 87.966 262.176C88.6593 262.517 89.198 263.003 89.582 263.632C89.9767 264.261 90.174 264.997 90.174 265.84C90.174 266.725 89.95 267.499 89.502 268.16C89.054 268.821 88.4247 269.333 87.614 269.696C86.814 270.059 85.87 270.24 84.782 270.24ZM84.846 268.208C85.3793 268.208 85.8433 268.112 86.238 267.92C86.6327 267.728 86.9367 267.456 87.15 267.104C87.3633 266.752 87.47 266.341 87.47 265.872C87.47 265.403 87.3633 264.997 87.15 264.656C86.9367 264.304 86.6327 264.032 86.238 263.84C85.8433 263.648 85.3793 263.552 84.846 263.552C84.11 263.552 83.4593 263.749 82.894 264.144C82.3287 264.528 81.902 265.067 81.614 265.76C81.7847 266.507 82.158 267.104 82.734 267.552C83.3207 267.989 84.0247 268.208 84.846 268.208ZM93.5585 260.896H102.966V270H100.294V261.696L101.526 262.912H94.8865L96.0385 261.92C96.0918 262.571 96.1345 263.173 96.1665 263.728C96.2092 264.272 96.2305 264.763 96.2305 265.2C96.2305 266.949 95.9692 268.219 95.4465 269.008C94.9345 269.797 94.1025 270.192 92.9505 270.192C92.6305 270.192 92.3212 270.155 92.0225 270.08C91.7345 270.016 91.4518 269.904 91.1745 269.744V267.808C91.3665 267.883 91.5532 267.941 91.7345 267.984C91.9265 268.016 92.1025 268.032 92.2625 268.032C92.8065 268.032 93.1958 267.787 93.4305 267.296C93.6758 266.795 93.7985 265.973 93.7985 264.832C93.7985 264.32 93.7772 263.733 93.7345 263.072C93.7025 262.411 93.6438 261.685 93.5585 260.896ZM110.591 270.24C109.514 270.24 108.548 270.043 107.695 269.648C106.852 269.243 106.186 268.677 105.695 267.952C105.215 267.227 104.975 266.384 104.975 265.424C104.975 264.475 105.204 263.643 105.663 262.928C106.132 262.213 106.772 261.659 107.583 261.264C108.394 260.859 109.316 260.656 110.351 260.656C111.407 260.656 112.314 260.891 113.071 261.36C113.828 261.819 114.41 262.469 114.815 263.312C115.231 264.155 115.439 265.147 115.439 266.288H107.119V264.512H113.999L112.959 265.152C112.916 264.619 112.783 264.165 112.559 263.792C112.346 263.419 112.052 263.131 111.679 262.928C111.306 262.725 110.868 262.624 110.367 262.624C109.823 262.624 109.348 262.736 108.943 262.96C108.548 263.173 108.239 263.477 108.015 263.872C107.802 264.256 107.695 264.709 107.695 265.232C107.695 265.861 107.834 266.4 108.111 266.848C108.388 267.296 108.794 267.637 109.327 267.872C109.86 268.107 110.506 268.224 111.263 268.224C111.946 268.224 112.634 268.128 113.327 267.936C114.02 267.733 114.644 267.451 115.199 267.088V268.88C114.602 269.307 113.903 269.643 113.103 269.888C112.314 270.123 111.476 270.24 110.591 270.24ZM117.482 260.896H120.138V270H117.482V260.896ZM125.114 260.896H127.77V270H125.114V260.896ZM119.002 264.352H126.154V266.368H119.002V264.352ZM130.259 260.8L131.587 261.056L132.931 260.8V270H130.259V260.8ZM131.587 259.856C131.107 259.856 130.712 259.733 130.403 259.488C130.104 259.232 129.955 258.896 129.955 258.48C129.955 258.053 130.104 257.717 130.403 257.472C130.712 257.216 131.107 257.088 131.587 257.088C132.077 257.088 132.472 257.216 132.771 257.472C133.069 257.717 133.219 258.053 133.219 258.48C133.219 258.896 133.069 259.232 132.771 259.488C132.472 259.733 132.077 259.856 131.587 259.856ZM150.224 260.896V270H147.552V261.696L148.784 262.912H141.44L142.672 261.696V270H140V260.896H150.224ZM152.714 260.896H155.386V263.792L155.274 264.144V266.336L155.386 266.992V272.64H152.714V260.896ZM154.458 265.456C154.64 264.485 154.954 263.643 155.402 262.928C155.861 262.203 156.432 261.643 157.114 261.248C157.808 260.853 158.576 260.656 159.418 260.656C160.314 260.656 161.098 260.859 161.77 261.264C162.453 261.659 162.986 262.219 163.37 262.944C163.754 263.659 163.946 264.496 163.946 265.456C163.946 266.405 163.754 267.243 163.37 267.968C162.986 268.683 162.453 269.243 161.77 269.648C161.098 270.043 160.314 270.24 159.418 270.24C158.565 270.24 157.797 270.043 157.114 269.648C156.442 269.253 155.877 268.699 155.418 267.984C154.96 267.259 154.64 266.416 154.458 265.456ZM161.242 265.456C161.242 264.923 161.13 264.453 160.906 264.048C160.693 263.632 160.394 263.312 160.01 263.088C159.626 262.853 159.184 262.736 158.682 262.736C158.181 262.736 157.706 262.853 157.258 263.088C156.81 263.312 156.416 263.632 156.074 264.048C155.744 264.453 155.482 264.923 155.29 265.456C155.482 265.989 155.744 266.459 156.074 266.864C156.416 267.269 156.81 267.589 157.258 267.824C157.706 268.048 158.181 268.16 158.682 268.16C159.184 268.16 159.626 268.048 160.01 267.824C160.394 267.589 160.693 267.269 160.906 266.864C161.13 266.459 161.242 265.989 161.242 265.456ZM171.207 270.24C170.076 270.24 169.084 270.043 168.231 269.648C167.378 269.243 166.711 268.683 166.231 267.968C165.751 267.243 165.511 266.405 165.511 265.456C165.511 264.496 165.751 263.659 166.231 262.944C166.711 262.219 167.378 261.659 168.231 261.264C169.084 260.859 170.076 260.656 171.207 260.656C172.338 260.656 173.33 260.859 174.183 261.264C175.036 261.659 175.698 262.219 176.167 262.944C176.647 263.659 176.887 264.496 176.887 265.456C176.887 266.405 176.647 267.243 176.167 267.968C175.698 268.683 175.036 269.243 174.183 269.648C173.33 270.043 172.338 270.24 171.207 270.24ZM171.207 268.208C171.826 268.208 172.354 268.096 172.791 267.872C173.239 267.648 173.58 267.333 173.815 266.928C174.06 266.512 174.183 266.021 174.183 265.456C174.183 264.88 174.06 264.389 173.815 263.984C173.58 263.568 173.239 263.248 172.791 263.024C172.354 262.8 171.826 262.688 171.207 262.688C170.599 262.688 170.071 262.8 169.623 263.024C169.175 263.248 168.828 263.568 168.583 263.984C168.348 264.389 168.231 264.88 168.231 265.456C168.231 266.021 168.348 266.512 168.583 266.928C168.828 267.333 169.175 267.648 169.623 267.872C170.071 268.096 170.599 268.208 171.207 268.208ZM183.98 270.24C182.892 270.24 181.927 270.043 181.084 269.648C180.252 269.243 179.602 268.677 179.132 267.952C178.674 267.227 178.444 266.395 178.444 265.456C178.444 264.507 178.674 263.675 179.132 262.96C179.602 262.235 180.252 261.669 181.084 261.264C181.927 260.859 182.892 260.656 183.98 260.656C184.94 260.656 185.804 260.816 186.572 261.136C187.34 261.456 187.97 261.899 188.46 262.464C188.962 263.019 189.276 263.669 189.404 264.416H186.796C186.636 263.872 186.3 263.429 185.788 263.088C185.276 262.736 184.674 262.56 183.98 262.56C183.383 262.56 182.866 262.677 182.428 262.912C181.991 263.136 181.65 263.467 181.404 263.904C181.17 264.331 181.052 264.848 181.052 265.456C181.052 266.053 181.17 266.571 181.404 267.008C181.65 267.435 181.991 267.765 182.428 268C182.866 268.224 183.383 268.336 183.98 268.336C184.674 268.336 185.276 268.165 185.788 267.824C186.3 267.483 186.636 267.035 186.796 266.48H189.404C189.276 267.227 188.962 267.883 188.46 268.448C187.97 269.003 187.34 269.44 186.572 269.76C185.804 270.08 184.94 270.24 183.98 270.24ZM179.836 266.272V264.624H185.34V266.272H179.836ZM191.311 270V260.896H193.983V267.84L193.199 267.568L198.623 260.896H201.535L193.711 270H191.311ZM198.751 270L196.031 265.536L197.999 264.016L201.807 270H198.751ZM206.029 261.824H208.701V270H206.029V261.824ZM202.413 260.896H212.317V262.944H202.413V260.896ZM214.02 270V260.896H216.644V268.592L215.988 268.416L221.476 260.896H224.916V270H222.292V262.16L222.948 262.352L217.364 270H214.02ZM228.879 270.144C228.431 270.144 228.057 270 227.759 269.712C227.471 269.424 227.327 269.061 227.327 268.624C227.327 268.187 227.471 267.824 227.759 267.536C228.057 267.248 228.431 267.104 228.879 267.104C229.337 267.104 229.711 267.248 229.999 267.536C230.297 267.824 230.447 268.187 230.447 268.624C230.447 269.061 230.297 269.424 229.999 269.712C229.711 270 229.337 270.144 228.879 270.144ZM228.879 264.48C228.431 264.48 228.057 264.336 227.759 264.048C227.471 263.76 227.327 263.397 227.327 262.96C227.327 262.523 227.471 262.16 227.759 261.872C228.057 261.584 228.431 261.44 228.879 261.44C229.337 261.44 229.711 261.584 229.999 261.872C230.297 262.16 230.447 262.523 230.447 262.96C230.447 263.397 230.297 263.76 229.999 264.048C229.711 264.336 229.337 264.48 228.879 264.48Z" fill="white"/>
<path d="M259.16 269L256.536 264.52H253.4V269H252.28V257.8H256.76C257.688 257.8 258.477 258.131 259.128 258.792C259.789 259.443 260.12 260.232 260.12 261.16C260.12 261.917 259.891 262.595 259.432 263.192C258.984 263.779 258.408 264.173 257.704 264.376L260.44 269H259.16ZM253.4 258.856V263.464H256.76C257.379 263.464 257.907 263.24 258.344 262.792C258.781 262.333 259 261.789 259 261.16C259 260.52 258.781 259.976 258.344 259.528C257.907 259.08 257.379 258.856 256.76 258.856H253.4ZM263.438 259.08C263.288 259.229 263.107 259.304 262.894 259.304C262.68 259.304 262.499 259.229 262.35 259.08C262.2 258.931 262.126 258.749 262.126 258.536C262.126 258.323 262.2 258.141 262.35 257.992C262.499 257.843 262.68 257.768 262.894 257.768C263.107 257.768 263.288 257.843 263.438 257.992C263.587 258.141 263.662 258.323 263.662 258.536C263.662 258.749 263.587 258.931 263.438 259.08ZM262.366 269V261H263.422V269H262.366ZM272.607 269H271.199L267.199 265.144V269H266.143V257.8H267.199V264.536L271.007 261H272.447L268.319 264.84L272.607 269ZM280.436 267.992C279.625 268.792 278.633 269.192 277.46 269.192C276.287 269.192 275.289 268.792 274.468 267.992C273.657 267.181 273.252 266.184 273.252 265C273.252 263.816 273.657 262.824 274.468 262.024C275.289 261.213 276.287 260.808 277.46 260.808C278.633 260.808 279.625 261.213 280.436 262.024C281.257 262.824 281.668 263.816 281.668 265C281.668 266.184 281.257 267.181 280.436 267.992ZM275.22 267.256C275.828 267.864 276.575 268.168 277.46 268.168C278.345 268.168 279.092 267.864 279.7 267.256C280.308 266.637 280.612 265.885 280.612 265C280.612 264.115 280.308 263.368 279.7 262.76C279.092 262.141 278.345 261.832 277.46 261.832C276.575 261.832 275.828 262.141 275.22 262.76C274.612 263.368 274.308 264.115 274.308 265C274.308 265.885 274.612 266.637 275.22 267.256ZM287.999 262.024H285.695V266.872C285.695 267.309 285.78 267.624 285.951 267.816C286.121 267.997 286.377 268.093 286.719 268.104C287.06 268.104 287.487 268.093 287.999 268.072V269C286.879 269.171 286.036 269.091 285.471 268.76C284.916 268.429 284.639 267.8 284.639 266.872V262.024H282.959V261H284.639V259.08L285.695 258.76V261H287.999V262.024ZM296.634 261H297.69V269H296.634V267.432C295.898 268.605 294.821 269.192 293.402 269.192C292.261 269.192 291.285 268.787 290.474 267.976C289.674 267.165 289.274 266.173 289.274 265C289.274 263.827 289.674 262.835 290.474 262.024C291.285 261.213 292.261 260.808 293.402 260.808C294.821 260.808 295.898 261.395 296.634 262.568V261ZM291.242 267.256C291.85 267.864 292.597 268.168 293.482 268.168C294.368 268.168 295.114 267.864 295.722 267.256C296.33 266.637 296.634 265.885 296.634 265C296.634 264.115 296.33 263.368 295.722 262.76C295.114 262.141 294.368 261.832 293.482 261.832C292.597 261.832 291.85 262.141 291.242 262.76C290.634 263.368 290.33 264.115 290.33 265C290.33 265.885 290.634 266.637 291.242 267.256ZM302.166 267.64L301.206 271.24H300.246L300.886 267.64H302.166ZM319.61 257.8V269H318.49V259.496L314.57 266.056H314.41L310.49 259.496V269H309.37V257.8H310.762L314.49 264.04L318.218 257.8H319.61ZM329.367 261H330.423V269H329.367V267.432C328.631 268.605 327.554 269.192 326.135 269.192C324.994 269.192 324.018 268.787 323.207 267.976C322.407 267.165 322.007 266.173 322.007 265C322.007 263.827 322.407 262.835 323.207 262.024C324.018 261.213 324.994 260.808 326.135 260.808C327.554 260.808 328.631 261.395 329.367 262.568V261ZM323.975 267.256C324.583 267.864 325.33 268.168 326.215 268.168C327.1 268.168 327.847 267.864 328.455 267.256C329.063 266.637 329.367 265.885 329.367 265C329.367 264.115 329.063 263.368 328.455 262.76C327.847 262.141 327.1 261.832 326.215 261.832C325.33 261.832 324.583 262.141 323.975 262.76C323.367 263.368 323.063 264.115 323.063 265C323.063 265.885 323.367 266.637 323.975 267.256ZM341.667 260.808C342.563 260.808 343.283 261.096 343.827 261.672C344.381 262.248 344.659 263.027 344.659 264.008V269H343.603V264.008C343.603 263.315 343.421 262.781 343.059 262.408C342.707 262.024 342.237 261.832 341.651 261.832C340.989 261.832 340.451 262.056 340.035 262.504C339.629 262.941 339.427 263.629 339.427 264.568V269H338.371V264.008C338.371 263.304 338.2 262.765 337.859 262.392C337.528 262.019 337.075 261.832 336.499 261.832C335.859 261.832 335.315 262.056 334.867 262.504C334.419 262.952 334.195 263.64 334.195 264.568V269H333.139V261H334.195V262.168C334.771 261.261 335.587 260.808 336.643 260.808C337.795 260.808 338.605 261.293 339.075 262.264C339.651 261.293 340.515 260.808 341.667 260.808ZM354.061 261H355.117V269H354.061V267.432C353.325 268.605 352.248 269.192 350.829 269.192C349.688 269.192 348.712 268.787 347.901 267.976C347.101 267.165 346.701 266.173 346.701 265C346.701 263.827 347.101 262.835 347.901 262.024C348.712 261.213 349.688 260.808 350.829 260.808C352.248 260.808 353.325 261.395 354.061 262.568V261ZM348.669 267.256C349.277 267.864 350.024 268.168 350.909 268.168C351.795 268.168 352.541 267.864 353.149 267.256C353.757 266.637 354.061 265.885 354.061 265C354.061 264.115 353.757 263.368 353.149 262.76C352.541 262.141 351.795 261.832 350.909 261.832C350.024 261.832 349.277 262.141 348.669 262.76C348.061 263.368 347.757 264.115 347.757 265C347.757 265.885 348.061 266.637 348.669 267.256ZM358.665 263.096C358.665 263.459 358.825 263.747 359.145 263.96C359.465 264.173 359.854 264.339 360.313 264.456C360.772 264.573 361.23 264.707 361.689 264.856C362.148 264.995 362.537 265.235 362.857 265.576C363.177 265.907 363.337 266.344 363.337 266.888C363.337 267.571 363.065 268.125 362.521 268.552C361.988 268.979 361.294 269.192 360.441 269.192C359.673 269.192 359.017 269.021 358.473 268.68C357.94 268.339 357.566 267.896 357.353 267.352L358.249 266.824C358.398 267.24 358.665 267.571 359.049 267.816C359.444 268.051 359.908 268.168 360.441 268.168C360.964 268.168 361.401 268.067 361.753 267.864C362.105 267.651 362.281 267.325 362.281 266.888C362.281 266.525 362.121 266.237 361.801 266.024C361.481 265.811 361.092 265.645 360.633 265.528C360.174 265.411 359.716 265.283 359.257 265.144C358.798 264.995 358.409 264.755 358.089 264.424C357.769 264.083 357.609 263.64 357.609 263.096C357.609 262.445 357.865 261.901 358.377 261.464C358.9 261.027 359.556 260.808 360.345 260.808C360.996 260.808 361.566 260.957 362.057 261.256C362.548 261.544 362.91 261.939 363.145 262.44L362.265 262.952C361.956 262.205 361.316 261.832 360.345 261.832C359.886 261.832 359.492 261.944 359.161 262.168C358.83 262.381 358.665 262.691 358.665 263.096ZM369.245 260.808C370.215 260.808 370.978 261.107 371.533 261.704C372.098 262.291 372.381 263.085 372.381 264.088V269H371.325V264.088C371.325 263.373 371.133 262.819 370.749 262.424C370.375 262.029 369.842 261.832 369.149 261.832C368.381 261.832 367.757 262.077 367.277 262.568C366.797 263.048 366.557 263.795 366.557 264.808V269H365.501V257.8H366.557V262.248C367.154 261.288 368.05 260.808 369.245 260.808Z" fill="white"/>
<path d="M35.256 308.448V303.6H37.496L38.648 303.632H47.288L47.944 303.6H51.176V308.448H48.632V306H37.8V308.448H35.256ZM37.832 294H49.08V305.136H46.376V295.152L47.592 296.368H39.288L40.424 295.488C40.488 296.021 40.5307 296.549 40.552 297.072C40.5733 297.595 40.584 298.085 40.584 298.544C40.584 299.845 40.4827 300.949 40.28 301.856C40.0773 302.752 39.7733 303.435 39.368 303.904C38.9627 304.363 38.4613 304.592 37.864 304.592L36.744 303.648C37.192 303.136 37.5227 302.416 37.736 301.488C37.96 300.549 38.072 299.381 38.072 297.984C38.072 297.365 38.0507 296.72 38.008 296.048C37.9653 295.376 37.9067 294.693 37.832 294ZM58.0634 306.24C56.9327 306.24 55.9407 306.043 55.0874 305.648C54.234 305.243 53.5674 304.683 53.0874 303.968C52.6074 303.243 52.3674 302.405 52.3674 301.456C52.3674 300.496 52.6074 299.659 53.0874 298.944C53.5674 298.219 54.234 297.659 55.0874 297.264C55.9407 296.859 56.9327 296.656 58.0634 296.656C59.194 296.656 60.186 296.859 61.0394 297.264C61.8927 297.659 62.554 298.219 63.0234 298.944C63.5034 299.659 63.7434 300.496 63.7434 301.456C63.7434 302.405 63.5034 303.243 63.0234 303.968C62.554 304.683 61.8927 305.243 61.0394 305.648C60.186 306.043 59.194 306.24 58.0634 306.24ZM58.0634 304.208C58.682 304.208 59.21 304.096 59.6474 303.872C60.0954 303.648 60.4367 303.333 60.6714 302.928C60.9167 302.512 61.0394 302.021 61.0394 301.456C61.0394 300.88 60.9167 300.389 60.6714 299.984C60.4367 299.568 60.0954 299.248 59.6474 299.024C59.21 298.8 58.682 298.688 58.0634 298.688C57.4554 298.688 56.9274 298.8 56.4794 299.024C56.0314 299.248 55.6847 299.568 55.4394 299.984C55.2047 300.389 55.0874 300.88 55.0874 301.456C55.0874 302.021 55.2047 302.512 55.4394 302.928C55.6847 303.333 56.0314 303.648 56.4794 303.872C56.9274 304.096 57.4554 304.208 58.0634 304.208ZM76.2285 302.288C76.1218 303.067 75.8178 303.755 75.3165 304.352C74.8258 304.949 74.1912 305.413 73.4125 305.744C72.6338 306.075 71.7645 306.24 70.8045 306.24C69.7165 306.24 68.7565 306.043 67.9245 305.648C67.1032 305.243 66.4578 304.677 65.9885 303.952C65.5298 303.227 65.3005 302.395 65.3005 301.456C65.3005 300.507 65.5298 299.675 65.9885 298.96C66.4578 298.235 67.1032 297.669 67.9245 297.264C68.7565 296.859 69.7165 296.656 70.8045 296.656C71.7645 296.656 72.6338 296.827 73.4125 297.168C74.1912 297.499 74.8258 297.963 75.3165 298.56C75.8178 299.147 76.1218 299.835 76.2285 300.624H73.5565C73.4178 300.005 73.0978 299.531 72.5965 299.2C72.1058 298.859 71.5085 298.688 70.8045 298.688C70.2392 298.688 69.7432 298.8 69.3165 299.024C68.9005 299.237 68.5805 299.552 68.3565 299.968C68.1325 300.373 68.0205 300.869 68.0205 301.456C68.0205 302.032 68.1325 302.528 68.3565 302.944C68.5805 303.349 68.9005 303.664 69.3165 303.888C69.7432 304.101 70.2392 304.208 70.8045 304.208C71.5192 304.208 72.1218 304.032 72.6125 303.68C73.1138 303.328 73.4285 302.864 73.5565 302.288H76.2285ZM77.8959 306L78.4079 301.456L77.8959 296.896H84.9039C85.7785 296.896 86.4719 297.104 86.9839 297.52C87.4959 297.925 87.7519 298.48 87.7519 299.184C87.7519 299.845 87.4959 300.384 86.9839 300.8C86.4719 301.205 85.7572 301.445 84.8399 301.52L85.0319 301.072C86.0985 301.104 86.9092 301.328 87.4639 301.744C88.0292 302.149 88.3119 302.72 88.3119 303.456C88.3119 304.245 88.0239 304.869 87.4479 305.328C86.8825 305.776 86.1039 306 85.1119 306H77.8959ZM80.4719 305.408L79.4479 304.272H84.2959C84.7545 304.272 85.0905 304.181 85.3039 304C85.5172 303.808 85.6239 303.541 85.6239 303.2C85.6239 302.891 85.5065 302.64 85.2719 302.448C85.0372 302.245 84.6532 302.144 84.1199 302.144H79.9919V300.624H83.7679C84.2159 300.624 84.5412 300.533 84.7439 300.352C84.9572 300.171 85.0639 299.925 85.0639 299.616C85.0639 299.328 84.9679 299.093 84.7759 298.912C84.5945 298.731 84.2959 298.64 83.8799 298.64H79.4639L80.4719 297.504L80.9679 301.456L80.4719 305.408ZM90.3186 296.8L91.6466 297.056L92.9906 296.8V306H90.3186V296.8ZM91.6466 295.856C91.1666 295.856 90.772 295.733 90.4626 295.488C90.164 295.232 90.0146 294.896 90.0146 294.48C90.0146 294.053 90.164 293.717 90.4626 293.472C90.772 293.216 91.1666 293.088 91.6466 293.088C92.1373 293.088 92.532 293.216 92.8306 293.472C93.1293 293.717 93.2786 294.053 93.2786 294.48C93.2786 294.896 93.1293 295.232 92.8306 295.488C92.532 295.733 92.1373 295.856 91.6466 295.856ZM107.854 303.984V308.24H105.534V306H97.0221V308.24H94.7021V303.984H97.2461L97.8381 304.032H104.462L104.99 303.984H107.854ZM96.6701 296.896H106.174V305.392H103.502V297.664L104.734 298.896H97.9981L99.0701 297.936C99.1661 298.395 99.2248 298.832 99.2461 299.248C99.2675 299.653 99.2781 300.032 99.2781 300.384C99.2781 301.899 99.0488 303.083 98.5901 303.936C98.1315 304.779 97.4861 305.2 96.6541 305.2L95.5661 304.288C96.4195 303.669 96.8461 302.192 96.8461 299.856C96.8461 299.397 96.8301 298.923 96.7981 298.432C96.7661 297.931 96.7235 297.419 96.6701 296.896ZM111.219 306.144C110.771 306.144 110.398 306 110.099 305.712C109.811 305.424 109.667 305.061 109.667 304.624C109.667 304.187 109.811 303.824 110.099 303.536C110.398 303.248 110.771 303.104 111.219 303.104C111.678 303.104 112.051 303.248 112.339 303.536C112.638 303.824 112.787 304.187 112.787 304.624C112.787 305.061 112.638 305.424 112.339 305.712C112.051 306 111.678 306.144 111.219 306.144ZM111.219 300.48C110.771 300.48 110.398 300.336 110.099 300.048C109.811 299.76 109.667 299.397 109.667 298.96C109.667 298.523 109.811 298.16 110.099 297.872C110.398 297.584 110.771 297.44 111.219 297.44C111.678 297.44 112.051 297.584 112.339 297.872C112.638 298.16 112.787 298.523 112.787 298.96C112.787 299.397 112.638 299.76 112.339 300.048C112.051 300.336 111.678 300.48 111.219 300.48Z" fill="white"/>
<path d="M251.64 305V303.992L255.672 299.928C256.824 298.776 257.4 297.789 257.4 296.968C257.4 296.253 257.176 295.699 256.728 295.304C256.291 294.899 255.763 294.696 255.144 294.696C253.992 294.696 253.155 295.224 252.632 296.28L251.688 295.72C252.04 295.027 252.52 294.504 253.128 294.152C253.736 293.789 254.408 293.608 255.144 293.608C256.04 293.608 256.824 293.912 257.496 294.52C258.179 295.117 258.52 295.933 258.52 296.968C258.52 297.619 258.339 298.243 257.976 298.84C257.613 299.437 257.101 300.067 256.44 300.728L253.24 303.912H258.76V305H251.64ZM267.566 298.888V299.912H264.718V302.76H263.694V299.912H260.846V298.888H263.694V296.04H264.718V298.888H267.566ZM278.895 296.808C280.036 296.808 281.007 297.213 281.807 298.024C282.618 298.835 283.023 299.827 283.023 301C283.023 302.173 282.618 303.165 281.807 303.976C281.007 304.787 280.036 305.192 278.895 305.192C277.476 305.192 276.399 304.605 275.663 303.432V308.2H274.607V297H275.663V298.568C276.399 297.395 277.476 296.808 278.895 296.808ZM276.575 303.256C277.183 303.864 277.93 304.168 278.815 304.168C279.7 304.168 280.447 303.864 281.055 303.256C281.663 302.637 281.967 301.885 281.967 301C281.967 300.115 281.663 299.368 281.055 298.76C280.447 298.141 279.7 297.832 278.815 297.832C277.93 297.832 277.183 298.141 276.575 298.76C275.967 299.368 275.663 300.115 275.663 301C275.663 301.885 275.967 302.637 276.575 303.256ZM291.963 303.992C291.152 304.792 290.16 305.192 288.987 305.192C287.813 305.192 286.816 304.792 285.995 303.992C285.184 303.181 284.779 302.184 284.779 301C284.779 299.816 285.184 298.824 285.995 298.024C286.816 297.213 287.813 296.808 288.987 296.808C290.16 296.808 291.152 297.213 291.963 298.024C292.784 298.824 293.195 299.816 293.195 301C293.195 302.184 292.784 303.181 291.963 303.992ZM286.747 303.256C287.355 303.864 288.101 304.168 288.987 304.168C289.872 304.168 290.619 303.864 291.227 303.256C291.835 302.637 292.139 301.885 292.139 301C292.139 300.115 291.835 299.368 291.227 298.76C290.619 298.141 289.872 297.832 288.987 297.832C288.101 297.832 287.355 298.141 286.747 298.76C286.139 299.368 285.835 300.115 285.835 301C285.835 301.885 286.139 302.637 286.747 303.256ZM301.906 305H300.498L296.498 301.144V305H295.442V297H296.498V300.536L300.306 297H301.746L297.618 300.84L301.906 305ZM309.652 297H310.548V305H309.492V298.84L304.724 305H303.828V297H304.884V303.16L309.652 297Z" fill="white"/>
<path d="M39.048 342L41.112 338.432H41.144L46.008 330H48.952L41.992 342H39.048ZM41.112 340.256L35.128 330H38.12L42.984 338.368L41.112 340.256ZM49.8529 332.896H59.2609V342H56.5889V333.696L57.8209 334.912H51.1809L52.3329 333.92C52.3862 334.571 52.4289 335.173 52.4609 335.728C52.5035 336.272 52.5249 336.763 52.5249 337.2C52.5249 338.949 52.2635 340.219 51.7409 341.008C51.2289 341.797 50.3969 342.192 49.2449 342.192C48.9249 342.192 48.6155 342.155 48.3169 342.08C48.0289 342.016 47.7462 341.904 47.4689 341.744V339.808C47.6609 339.883 47.8475 339.941 48.0289 339.984C48.2209 340.016 48.3969 340.032 48.5569 340.032C49.1009 340.032 49.4902 339.787 49.7249 339.296C49.9702 338.795 50.0929 337.973 50.0929 336.832C50.0929 336.32 50.0715 335.733 50.0289 335.072C49.9969 334.411 49.9382 333.685 49.8529 332.896ZM71.5573 342.24C70.4372 342.24 69.4559 342.043 68.6132 341.648C67.7706 341.243 67.1146 340.683 66.6452 339.968C66.1866 339.243 65.9572 338.405 65.9572 337.456C65.9572 336.496 66.1866 335.659 66.6452 334.944C67.1146 334.219 67.7706 333.659 68.6132 333.264C69.4559 332.859 70.4372 332.656 71.5573 332.656C72.6772 332.656 73.6586 332.859 74.5012 333.264C75.3439 333.659 75.9999 334.219 76.4692 334.944C76.9386 335.659 77.1733 336.496 77.1733 337.456C77.1733 338.405 76.9386 339.243 76.4692 339.968C75.9999 340.683 75.3439 341.243 74.5012 341.648C73.6586 342.043 72.6772 342.24 71.5573 342.24ZM61.7492 342V332.896H64.4212V342H61.7492ZM63.2532 338.368V336.368H67.6532V338.368H63.2532ZM71.5573 340.208C72.1652 340.208 72.6826 340.096 73.1093 339.872C73.5466 339.648 73.8826 339.333 74.1172 338.928C74.3519 338.512 74.4692 338.021 74.4692 337.456C74.4692 336.88 74.3519 336.389 74.1172 335.984C73.8826 335.568 73.5466 335.248 73.1093 335.024C72.6826 334.8 72.1652 334.688 71.5573 334.688C70.9599 334.688 70.4426 334.8 70.0052 335.024C69.5679 335.248 69.2319 335.568 68.9972 335.984C68.7626 336.389 68.6452 336.88 68.6452 337.456C68.6452 338.021 68.7626 338.512 68.9972 338.928C69.2319 339.333 69.5679 339.648 70.0052 339.872C70.4426 340.096 70.9599 340.208 71.5573 340.208ZM84.782 342.24C83.534 342.24 82.4673 342.005 81.582 341.536C80.6967 341.056 80.0193 340.368 79.55 339.472C79.0807 338.576 78.846 337.493 78.846 336.224C78.846 334.336 79.3527 332.848 80.366 331.76C81.3793 330.672 82.83 330.048 84.718 329.888C85.486 329.824 86.1207 329.771 86.622 329.728C87.1233 329.685 87.534 329.643 87.854 329.6C88.1847 329.547 88.462 329.493 88.686 329.44C88.91 329.376 89.1287 329.307 89.342 329.232V331.456C89.118 331.541 88.83 331.621 88.478 331.696C88.1367 331.76 87.6993 331.813 87.166 331.856C86.6433 331.899 85.998 331.941 85.23 331.984C83.8327 332.048 82.7927 332.432 82.11 333.136C81.4273 333.84 81.086 334.853 81.086 336.176V336.608L80.99 336.416C81.2033 335.84 81.5287 335.344 81.966 334.928C82.4033 334.512 82.926 334.197 83.534 333.984C84.1527 333.76 84.8193 333.648 85.534 333.648C86.462 333.648 87.2727 333.824 87.966 334.176C88.6593 334.517 89.198 335.003 89.582 335.632C89.9767 336.261 90.174 336.997 90.174 337.84C90.174 338.725 89.95 339.499 89.502 340.16C89.054 340.821 88.4247 341.333 87.614 341.696C86.814 342.059 85.87 342.24 84.782 342.24ZM84.846 340.208C85.3793 340.208 85.8433 340.112 86.238 339.92C86.6327 339.728 86.9367 339.456 87.15 339.104C87.3633 338.752 87.47 338.341 87.47 337.872C87.47 337.403 87.3633 336.997 87.15 336.656C86.9367 336.304 86.6327 336.032 86.238 335.84C85.8433 335.648 85.3793 335.552 84.846 335.552C84.11 335.552 83.4593 335.749 82.894 336.144C82.3287 336.528 81.902 337.067 81.614 337.76C81.7847 338.507 82.158 339.104 82.734 339.552C83.3207 339.989 84.0247 340.208 84.846 340.208ZM93.5585 332.896H102.966V342H100.294V333.696L101.526 334.912H94.8865L96.0385 333.92C96.0918 334.571 96.1345 335.173 96.1665 335.728C96.2092 336.272 96.2305 336.763 96.2305 337.2C96.2305 338.949 95.9692 340.219 95.4465 341.008C94.9345 341.797 94.1025 342.192 92.9505 342.192C92.6305 342.192 92.3212 342.155 92.0225 342.08C91.7345 342.016 91.4518 341.904 91.1745 341.744V339.808C91.3665 339.883 91.5532 339.941 91.7345 339.984C91.9265 340.016 92.1025 340.032 92.2625 340.032C92.8065 340.032 93.1958 339.787 93.4305 339.296C93.6758 338.795 93.7985 337.973 93.7985 336.832C93.7985 336.32 93.7772 335.733 93.7345 335.072C93.7025 334.411 93.6438 333.685 93.5585 332.896ZM110.591 342.24C109.514 342.24 108.548 342.043 107.695 341.648C106.852 341.243 106.186 340.677 105.695 339.952C105.215 339.227 104.975 338.384 104.975 337.424C104.975 336.475 105.204 335.643 105.663 334.928C106.132 334.213 106.772 333.659 107.583 333.264C108.394 332.859 109.316 332.656 110.351 332.656C111.407 332.656 112.314 332.891 113.071 333.36C113.828 333.819 114.41 334.469 114.815 335.312C115.231 336.155 115.439 337.147 115.439 338.288H107.119V336.512H113.999L112.959 337.152C112.916 336.619 112.783 336.165 112.559 335.792C112.346 335.419 112.052 335.131 111.679 334.928C111.306 334.725 110.868 334.624 110.367 334.624C109.823 334.624 109.348 334.736 108.943 334.96C108.548 335.173 108.239 335.477 108.015 335.872C107.802 336.256 107.695 336.709 107.695 337.232C107.695 337.861 107.834 338.4 108.111 338.848C108.388 339.296 108.794 339.637 109.327 339.872C109.86 340.107 110.506 340.224 111.263 340.224C111.946 340.224 112.634 340.128 113.327 339.936C114.02 339.733 114.644 339.451 115.199 339.088V340.88C114.602 341.307 113.903 341.643 113.103 341.888C112.314 342.123 111.476 342.24 110.591 342.24ZM117.482 332.896H120.138V342H117.482V332.896ZM125.114 332.896H127.77V342H125.114V332.896ZM119.002 336.352H126.154V338.368H119.002V336.352ZM130.259 342V332.896H132.883V340.592L132.227 340.416L137.715 332.896H141.155V342H138.531V334.16L139.187 334.352L133.603 342H130.259ZM143.645 342V332.896H146.269V340.592L145.613 340.416L151.101 332.896H154.541V342H151.917V334.16L152.573 334.352L146.989 342H143.645ZM149.021 332.064C147.986 332.064 147.154 331.813 146.525 331.312C145.896 330.8 145.506 330.059 145.357 329.088H147.453C147.528 329.547 147.698 329.899 147.965 330.144C148.242 330.379 148.594 330.496 149.021 330.496C149.448 330.496 149.794 330.379 150.061 330.144C150.328 329.899 150.504 329.547 150.589 329.088H152.669C152.53 330.059 152.141 330.8 151.501 331.312C150.872 331.813 150.045 332.064 149.021 332.064ZM169.157 332.896V334.944H163.045L164.277 333.728V342H161.605V332.896H169.157ZM173.426 344.88C172.829 344.88 172.29 344.805 171.81 344.656C171.33 344.507 170.877 344.288 170.45 344V342.08C170.898 342.368 171.325 342.576 171.73 342.704C172.136 342.832 172.584 342.896 173.074 342.896C173.512 342.896 173.901 342.795 174.242 342.592C174.584 342.4 174.866 342.053 175.09 341.552L178.882 332.896H181.714L177.17 342.416C176.893 343.013 176.557 343.493 176.162 343.856C175.768 344.219 175.336 344.48 174.866 344.64C174.408 344.8 173.928 344.88 173.426 344.88ZM174.002 341.424L169.986 332.896H172.93L176.61 341.424H174.002ZM183.268 332.896H185.94V335.792L185.828 336.144V338.336L185.94 338.992V344.64H183.268V332.896ZM185.012 337.456C185.193 336.485 185.508 335.643 185.956 334.928C186.415 334.203 186.985 333.643 187.668 333.248C188.361 332.853 189.129 332.656 189.972 332.656C190.868 332.656 191.652 332.859 192.324 333.264C193.007 333.659 193.54 334.219 193.924 334.944C194.308 335.659 194.5 336.496 194.5 337.456C194.5 338.405 194.308 339.243 193.924 339.968C193.54 340.683 193.007 341.243 192.324 341.648C191.652 342.043 190.868 342.24 189.972 342.24C189.119 342.24 188.351 342.043 187.668 341.648C186.996 341.253 186.431 340.699 185.972 339.984C185.513 339.259 185.193 338.416 185.012 337.456ZM191.796 337.456C191.796 336.923 191.684 336.453 191.46 336.048C191.247 335.632 190.948 335.312 190.564 335.088C190.18 334.853 189.737 334.736 189.236 334.736C188.735 334.736 188.26 334.853 187.812 335.088C187.364 335.312 186.969 335.632 186.628 336.048C186.297 336.453 186.036 336.923 185.844 337.456C186.036 337.989 186.297 338.459 186.628 338.864C186.969 339.269 187.364 339.589 187.812 339.824C188.26 340.048 188.735 340.16 189.236 340.16C189.737 340.16 190.18 340.048 190.564 339.824C190.948 339.589 191.247 339.269 191.46 338.864C191.684 338.459 191.796 337.989 191.796 337.456ZM199.049 333.824H201.721V342H199.049V333.824ZM195.433 332.896H205.337V334.944H195.433V332.896ZM208.513 342.144C208.065 342.144 207.691 342 207.393 341.712C207.105 341.424 206.961 341.061 206.961 340.624C206.961 340.187 207.105 339.824 207.393 339.536C207.691 339.248 208.065 339.104 208.513 339.104C208.971 339.104 209.345 339.248 209.633 339.536C209.931 339.824 210.081 340.187 210.081 340.624C210.081 341.061 209.931 341.424 209.633 341.712C209.345 342 208.971 342.144 208.513 342.144ZM208.513 336.48C208.065 336.48 207.691 336.336 207.393 336.048C207.105 335.76 206.961 335.397 206.961 334.96C206.961 334.523 207.105 334.16 207.393 333.872C207.691 333.584 208.065 333.44 208.513 333.44C208.971 333.44 209.345 333.584 209.633 333.872C209.931 334.16 210.081 334.523 210.081 334.96C210.081 335.397 209.931 335.76 209.633 336.048C209.345 336.336 208.971 336.48 208.513 336.48Z" fill="white"/>
<path d="M259.16 341L256.536 336.52H253.4V341H252.28V329.8H256.76C257.688 329.8 258.477 330.131 259.128 330.792C259.789 331.443 260.12 332.232 260.12 333.16C260.12 333.917 259.891 334.595 259.432 335.192C258.984 335.779 258.408 336.173 257.704 336.376L260.44 341H259.16ZM253.4 330.856V335.464H256.76C257.379 335.464 257.907 335.24 258.344 334.792C258.781 334.333 259 333.789 259 333.16C259 332.52 258.781 331.976 258.344 331.528C257.907 331.08 257.379 330.856 256.76 330.856H253.4ZM268.839 333H269.895V341H268.839V339.432C268.103 340.605 267.026 341.192 265.607 341.192C264.466 341.192 263.49 340.787 262.679 339.976C261.879 339.165 261.479 338.173 261.479 337C261.479 335.827 261.879 334.835 262.679 334.024C263.49 333.213 264.466 332.808 265.607 332.808C267.026 332.808 268.103 333.395 268.839 334.568V333ZM263.447 339.256C264.055 339.864 264.802 340.168 265.687 340.168C266.573 340.168 267.319 339.864 267.927 339.256C268.535 338.637 268.839 337.885 268.839 337C268.839 336.115 268.535 335.368 267.927 334.76C267.319 334.141 266.573 333.832 265.687 333.832C264.802 333.832 264.055 334.141 263.447 334.76C262.839 335.368 262.535 336.115 262.535 337C262.535 337.885 262.839 338.637 263.447 339.256ZM279.491 329.8H280.547V341H279.491V339.432C278.755 340.605 277.678 341.192 276.259 341.192C275.118 341.192 274.142 340.787 273.331 339.976C272.531 339.165 272.131 338.173 272.131 337C272.131 335.827 272.531 334.835 273.331 334.024C274.142 333.213 275.118 332.808 276.259 332.808C277.678 332.808 278.755 333.395 279.491 334.568V329.8ZM274.099 339.256C274.707 339.864 275.454 340.168 276.339 340.168C277.225 340.168 277.971 339.864 278.579 339.256C279.187 338.637 279.491 337.885 279.491 337C279.491 336.115 279.187 335.368 278.579 334.76C277.971 334.141 277.225 333.832 276.339 333.832C275.454 333.832 274.707 334.141 274.099 334.76C273.491 335.368 273.187 336.115 273.187 337C273.187 337.885 273.491 338.637 274.099 339.256ZM284.335 331.08C284.186 331.229 284.004 331.304 283.791 331.304C283.578 331.304 283.396 331.229 283.247 331.08C283.098 330.931 283.023 330.749 283.023 330.536C283.023 330.323 283.098 330.141 283.247 329.992C283.396 329.843 283.578 329.768 283.791 329.768C284.004 329.768 284.186 329.843 284.335 329.992C284.484 330.141 284.559 330.323 284.559 330.536C284.559 330.749 284.484 330.931 284.335 331.08ZM283.263 341V333H284.319V341H283.263ZM293.744 339.992C292.933 340.792 291.941 341.192 290.768 341.192C289.595 341.192 288.597 340.792 287.776 339.992C286.965 339.181 286.56 338.184 286.56 337C286.56 335.816 286.965 334.824 287.776 334.024C288.597 333.213 289.595 332.808 290.768 332.808C291.941 332.808 292.933 333.213 293.744 334.024C294.565 334.824 294.976 335.816 294.976 337C294.976 338.184 294.565 339.181 293.744 339.992ZM288.528 339.256C289.136 339.864 289.883 340.168 290.768 340.168C291.653 340.168 292.4 339.864 293.008 339.256C293.616 338.637 293.92 337.885 293.92 337C293.92 336.115 293.616 335.368 293.008 334.76C292.4 334.141 291.653 333.832 290.768 333.832C289.883 333.832 289.136 334.141 288.528 334.76C287.92 335.368 287.616 336.115 287.616 337C287.616 337.885 287.92 338.637 288.528 339.256ZM300.967 332.808C301.938 332.808 302.7 333.107 303.255 333.704C303.82 334.291 304.103 335.085 304.103 336.088V341H303.047V336.088C303.047 335.373 302.855 334.819 302.471 334.424C302.098 334.029 301.564 333.832 300.871 333.832C300.103 333.832 299.479 334.077 298.999 334.568C298.519 335.048 298.279 335.795 298.279 336.808V341H297.223V329.8H298.279V334.248C298.876 333.288 299.772 332.808 300.967 332.808ZM310.321 332.808C311.505 332.808 312.46 333.229 313.185 334.072C313.921 334.904 314.289 335.891 314.289 337.032C314.289 337.149 314.278 337.315 314.257 337.528H307.233C307.34 338.339 307.681 338.984 308.257 339.464C308.844 339.933 309.564 340.168 310.417 340.168C311.025 340.168 311.548 340.045 311.985 339.8C312.433 339.544 312.769 339.213 312.993 338.808L313.921 339.352C313.569 339.917 313.089 340.365 312.481 340.696C311.873 341.027 311.18 341.192 310.401 341.192C309.142 341.192 308.118 340.797 307.329 340.008C306.54 339.219 306.145 338.216 306.145 337C306.145 335.805 306.534 334.808 307.313 334.008C308.092 333.208 309.094 332.808 310.321 332.808ZM310.321 333.832C309.489 333.832 308.79 334.083 308.225 334.584C307.67 335.075 307.34 335.715 307.233 336.504H313.201C313.094 335.661 312.769 335.005 312.225 334.536C311.681 334.067 311.046 333.832 310.321 333.832ZM323.329 333H324.385V341H323.329V339.432C322.593 340.605 321.515 341.192 320.097 341.192C318.955 341.192 317.979 340.787 317.169 339.976C316.369 339.165 315.969 338.173 315.969 337C315.969 335.827 316.369 334.835 317.169 334.024C317.979 333.213 318.955 332.808 320.097 332.808C321.515 332.808 322.593 333.395 323.329 334.568V333ZM317.937 339.256C318.545 339.864 319.291 340.168 320.177 340.168C321.062 340.168 321.809 339.864 322.417 339.256C323.025 338.637 323.329 337.885 323.329 337C323.329 336.115 323.025 335.368 322.417 334.76C321.809 334.141 321.062 333.832 320.177 333.832C319.291 333.832 318.545 334.141 317.937 334.76C317.329 335.368 317.025 336.115 317.025 337C317.025 337.885 317.329 338.637 317.937 339.256ZM333.981 329.8H335.037V341H333.981V339.432C333.245 340.605 332.167 341.192 330.749 341.192C329.607 341.192 328.631 340.787 327.821 339.976C327.021 339.165 326.621 338.173 326.621 337C326.621 335.827 327.021 334.835 327.821 334.024C328.631 333.213 329.607 332.808 330.749 332.808C332.167 332.808 333.245 333.395 333.981 334.568V329.8ZM328.589 339.256C329.197 339.864 329.943 340.168 330.829 340.168C331.714 340.168 332.461 339.864 333.069 339.256C333.677 338.637 333.981 337.885 333.981 337C333.981 336.115 333.677 335.368 333.069 334.76C332.461 334.141 331.714 333.832 330.829 333.832C329.943 333.832 329.197 334.141 328.589 334.76C327.981 335.368 327.677 336.115 327.677 337C327.677 337.885 327.981 338.637 328.589 339.256Z" fill="white"/>
</svg>
