<svg width="450" height="545" viewBox="0 0 450 545" fill="none" xmlns="http://www.w3.org/2000/svg">
<path d="M58.8239 7.19209L47.686 12.6585C31.4217 20.6409 20.748 36.7969 19.7859 54.8889L0.527307 417.043C0.179169 423.589 1.1219 430.141 3.30182 436.323L29.8514 511.626C36.9024 531.624 55.8012 545 77.0064 545H225.907C228.551 545 231.191 544.79 233.802 544.373L375.316 521.743C399.977 517.799 417.946 496.264 417.409 471.296L410.984 172.163C410.836 165.265 412.117 158.41 414.747 152.031L426.302 124.004C438.475 94.4788 420.226 61.2651 388.776 55.7085L89.5528 2.84019C79.1075 0.994662 68.346 2.51874 58.8239 7.19209Z" fill="#C0B7EE"/>
<path d="M25.232 146V134H27.936V143.792L27.168 143.248L34.592 134H37.488L27.68 146H25.232ZM30.96 140.128L32.912 138.384L37.664 146H34.56L30.96 140.128ZM39.0974 136.8L40.4254 137.056L41.7694 136.8V146H39.0974V136.8ZM40.4254 135.856C39.9454 135.856 39.5507 135.733 39.2414 135.488C38.9427 135.232 38.7934 134.896 38.7934 134.48C38.7934 134.053 38.9427 133.717 39.2414 133.472C39.5507 133.216 39.9454 133.088 40.4254 133.088C40.916 133.088 41.3107 133.216 41.6094 133.472C41.908 133.717 42.0574 134.053 42.0574 134.48C42.0574 134.896 41.908 135.232 41.6094 135.488C41.3107 135.733 40.916 135.856 40.4254 135.856ZM45.8329 136.896H55.2409V146H52.5689V137.696L53.8009 138.912H47.1609L48.3129 137.92C48.3662 138.571 48.4089 139.173 48.4409 139.728C48.4835 140.272 48.5049 140.763 48.5049 141.2C48.5049 142.949 48.2435 144.219 47.7209 145.008C47.2089 145.797 46.3769 146.192 45.2249 146.192C44.9049 146.192 44.5955 146.155 44.2969 146.08C44.0089 146.016 43.7262 145.904 43.4489 145.744V143.808C43.6409 143.883 43.8275 143.941 44.0089 143.984C44.2009 144.016 44.3769 144.032 44.5369 144.032C45.0809 144.032 45.4702 143.787 45.7049 143.296C45.9502 142.795 46.0729 141.973 46.0729 140.832C46.0729 140.32 46.0515 139.733 46.0089 139.072C45.9769 138.411 45.9182 137.685 45.8329 136.896ZM57.7292 146V136.896H60.3852V145.312L59.5212 144.08H63.0732C63.5639 144.08 63.9426 143.963 64.2092 143.728C64.4759 143.483 64.6092 143.152 64.6092 142.736C64.6092 142.299 64.4759 141.963 64.2092 141.728C63.9426 141.483 63.5639 141.36 63.0732 141.36H59.5372V139.52H63.4732C64.2519 139.52 64.9239 139.659 65.4892 139.936C66.0652 140.203 66.5132 140.581 66.8332 141.072C67.1532 141.552 67.3132 142.117 67.3132 142.768C67.3132 143.408 67.1532 143.973 66.8332 144.464C66.5132 144.955 66.0706 145.333 65.5052 145.6C64.9399 145.867 64.2732 146 63.5052 146H57.7292ZM69.0999 146V136.896H71.7719V143.84L70.9879 143.568L76.4119 136.896H79.3239L71.4999 146H69.0999ZM76.5399 146L73.8199 141.536L75.7879 140.016L79.5959 146H76.5399ZM80.9861 136.8L82.3141 137.056L83.6581 136.8V146H80.9861V136.8ZM82.3141 135.856C81.8341 135.856 81.4395 135.733 81.1301 135.488C80.8315 135.232 80.6821 134.896 80.6821 134.48C80.6821 134.053 80.8315 133.717 81.1301 133.472C81.4395 133.216 81.8341 133.088 82.3141 133.088C82.8048 133.088 83.1995 133.216 83.4981 133.472C83.7968 133.717 83.9461 134.053 83.9461 134.48C83.9461 134.896 83.7968 135.232 83.4981 135.488C83.1995 135.733 82.8048 135.856 82.3141 135.856ZM96.6016 142.288C96.495 143.067 96.191 143.755 95.6896 144.352C95.199 144.949 94.5643 145.413 93.7856 145.744C93.007 146.075 92.1376 146.24 91.1776 146.24C90.0896 146.24 89.1296 146.043 88.2976 145.648C87.4763 145.243 86.831 144.677 86.3616 143.952C85.903 143.227 85.6736 142.395 85.6736 141.456C85.6736 140.507 85.903 139.675 86.3616 138.96C86.831 138.235 87.4763 137.669 88.2976 137.264C89.1296 136.859 90.0896 136.656 91.1776 136.656C92.1376 136.656 93.007 136.827 93.7856 137.168C94.5643 137.499 95.199 137.963 95.6896 138.56C96.191 139.147 96.495 139.835 96.6016 140.624H93.9296C93.791 140.005 93.471 139.531 92.9696 139.2C92.479 138.859 91.8816 138.688 91.1776 138.688C90.6123 138.688 90.1163 138.8 89.6896 139.024C89.2736 139.237 88.9536 139.552 88.7296 139.968C88.5056 140.373 88.3936 140.869 88.3936 141.456C88.3936 142.032 88.5056 142.528 88.7296 142.944C88.9536 143.349 89.2736 143.664 89.6896 143.888C90.1163 144.101 90.6123 144.208 91.1776 144.208C91.8923 144.208 92.495 144.032 92.9856 143.68C93.487 143.328 93.8016 142.864 93.9296 142.288H96.6016ZM101.013 137.824H103.685V146H101.013V137.824ZM97.3965 136.896H107.301V138.944H97.3965V136.896ZM109.004 146V136.896H111.66V145.312L110.796 144.08H114.348C114.839 144.08 115.218 143.963 115.484 143.728C115.751 143.483 115.884 143.152 115.884 142.736C115.884 142.299 115.751 141.963 115.484 141.728C115.218 141.483 114.839 141.36 114.348 141.36H110.812V139.52H114.748C115.527 139.52 116.199 139.659 116.764 139.936C117.34 140.203 117.788 140.581 118.108 141.072C118.428 141.552 118.588 142.117 118.588 142.768C118.588 143.408 118.428 143.973 118.108 144.464C117.788 144.955 117.346 145.333 116.78 145.6C116.215 145.867 115.548 146 114.78 146H109.004ZM25.008 156.896H27.68V159.792L27.568 160.144V162.336L27.68 162.992V168.64H25.008V156.896ZM26.752 161.456C26.9333 160.485 27.248 159.643 27.696 158.928C28.1547 158.203 28.7253 157.643 29.408 157.248C30.1013 156.853 30.8693 156.656 31.712 156.656C32.608 156.656 33.392 156.859 34.064 157.264C34.7467 157.659 35.28 158.219 35.664 158.944C36.048 159.659 36.24 160.496 36.24 161.456C36.24 162.405 36.048 163.243 35.664 163.968C35.28 164.683 34.7467 165.243 34.064 165.648C33.392 166.043 32.608 166.24 31.712 166.24C30.8587 166.24 30.0907 166.043 29.408 165.648C28.736 165.253 28.1707 164.699 27.712 163.984C27.2533 163.259 26.9333 162.416 26.752 161.456ZM33.536 161.456C33.536 160.923 33.424 160.453 33.2 160.048C32.9867 159.632 32.688 159.312 32.304 159.088C31.92 158.853 31.4773 158.736 30.976 158.736C30.4747 158.736 30 158.853 29.552 159.088C29.104 159.312 28.7093 159.632 28.368 160.048C28.0373 160.453 27.776 160.923 27.584 161.456C27.776 161.989 28.0373 162.459 28.368 162.864C28.7093 163.269 29.104 163.589 29.552 163.824C30 164.048 30.4747 164.16 30.976 164.16C31.4773 164.16 31.92 164.048 32.304 163.824C32.688 163.589 32.9867 163.269 33.2 162.864C33.424 162.459 33.536 161.989 33.536 161.456ZM43.4209 166.24C42.3435 166.24 41.3782 166.043 40.5249 165.648C39.6822 165.243 39.0155 164.677 38.5249 163.952C38.0449 163.227 37.8049 162.384 37.8049 161.424C37.8049 160.475 38.0342 159.643 38.4929 158.928C38.9622 158.213 39.6022 157.659 40.4129 157.264C41.2235 156.859 42.1462 156.656 43.1809 156.656C44.2369 156.656 45.1435 156.891 45.9009 157.36C46.6582 157.819 47.2395 158.469 47.6449 159.312C48.0609 160.155 48.2689 161.147 48.2689 162.288H39.9489V160.512H46.8289L45.7889 161.152C45.7462 160.619 45.6129 160.165 45.3889 159.792C45.1755 159.419 44.8822 159.131 44.5089 158.928C44.1355 158.725 43.6982 158.624 43.1969 158.624C42.6529 158.624 42.1782 158.736 41.7729 158.96C41.3782 159.173 41.0689 159.477 40.8449 159.872C40.6315 160.256 40.5249 160.709 40.5249 161.232C40.5249 161.861 40.6635 162.4 40.9409 162.848C41.2182 163.296 41.6235 163.637 42.1569 163.872C42.6902 164.107 43.3355 164.224 44.0929 164.224C44.7755 164.224 45.4635 164.128 46.1569 163.936C46.8502 163.733 47.4742 163.451 48.0289 163.088V164.88C47.4315 165.307 46.7329 165.643 45.9329 165.888C45.1435 166.123 44.3062 166.24 43.4209 166.24ZM58.6477 166L58.2637 162.672L58.6957 161.456L58.2637 160.256L58.6477 156.896H61.4157L60.8877 161.456L61.4157 166H58.6477ZM59.3517 161.456C59.1811 162.416 58.8664 163.259 58.4077 163.984C57.9597 164.699 57.3891 165.253 56.6957 165.648C56.0131 166.043 55.2451 166.24 54.3917 166.24C53.5064 166.24 52.7224 166.043 52.0397 165.648C51.3571 165.243 50.8237 164.683 50.4397 163.968C50.0664 163.243 49.8797 162.405 49.8797 161.456C49.8797 160.496 50.0664 159.659 50.4397 158.944C50.8237 158.219 51.3571 157.659 52.0397 157.264C52.7224 156.859 53.5064 156.656 54.3917 156.656C55.2451 156.656 56.0131 156.853 56.6957 157.248C57.3891 157.643 57.9651 158.203 58.4237 158.928C58.8824 159.643 59.1917 160.485 59.3517 161.456ZM52.5837 161.456C52.5837 161.989 52.6904 162.459 52.9037 162.864C53.1277 163.269 53.4317 163.589 53.8157 163.824C54.1997 164.048 54.6424 164.16 55.1437 164.16C55.6451 164.16 56.1144 164.048 56.5517 163.824C56.9997 163.589 57.3944 163.269 57.7357 162.864C58.0771 162.459 58.3437 161.989 58.5357 161.456C58.3437 160.923 58.0771 160.453 57.7357 160.048C57.3944 159.632 56.9997 159.312 56.5517 159.088C56.1144 158.853 55.6451 158.736 55.1437 158.736C54.6424 158.736 54.1997 158.853 53.8157 159.088C53.4317 159.312 53.1277 159.632 52.9037 160.048C52.6904 160.453 52.5837 160.923 52.5837 161.456ZM65.2504 156.896H74.6584V166H71.9864V157.696L73.2184 158.912H66.5784L67.7304 157.92C67.7837 158.571 67.8264 159.173 67.8584 159.728C67.901 160.272 67.9224 160.763 67.9224 161.2C67.9224 162.949 67.661 164.219 67.1384 165.008C66.6264 165.797 65.7944 166.192 64.6424 166.192C64.3224 166.192 64.013 166.155 63.7144 166.08C63.4264 166.016 63.1437 165.904 62.8664 165.744V163.808C63.0584 163.883 63.245 163.941 63.4264 163.984C63.6184 164.016 63.7944 164.032 63.9544 164.032C64.4984 164.032 64.8877 163.787 65.1224 163.296C65.3677 162.795 65.4904 161.973 65.4904 160.832C65.4904 160.32 65.469 159.733 65.4264 159.072C65.3944 158.411 65.3357 157.685 65.2504 156.896ZM77.1467 156.8L78.4747 157.056L79.8187 156.8V166H77.1467V156.8ZM78.4747 155.856C77.9947 155.856 77.6001 155.733 77.2907 155.488C76.9921 155.232 76.8427 154.896 76.8427 154.48C76.8427 154.053 76.9921 153.717 77.2907 153.472C77.6001 153.216 77.9947 153.088 78.4747 153.088C78.9654 153.088 79.3601 153.216 79.6587 153.472C79.9574 153.717 80.1067 154.053 80.1067 154.48C80.1067 154.896 79.9574 155.232 79.6587 155.488C79.3601 155.733 78.9654 155.856 78.4747 155.856ZM86.8103 166.24C85.7969 166.24 84.9116 166.112 84.1543 165.856C83.3969 165.589 82.8049 165.211 82.3783 164.72C81.9516 164.219 81.7169 163.632 81.6743 162.96H84.2663C84.3409 163.408 84.5969 163.749 85.0343 163.984C85.4716 164.219 86.0636 164.336 86.8103 164.336C87.5249 164.336 88.0796 164.245 88.4743 164.064C88.8796 163.872 89.0823 163.579 89.0823 163.184C89.0823 162.864 88.9116 162.629 88.5703 162.48C88.2396 162.32 87.7063 162.24 86.9703 162.24H85.2743V160.64H86.9223C87.5836 160.64 88.0689 160.544 88.3783 160.352C88.6983 160.16 88.8583 159.92 88.8583 159.632C88.8583 159.28 88.6716 159.013 88.2983 158.832C87.9356 158.651 87.4449 158.56 86.8263 158.56C86.1436 158.56 85.5943 158.667 85.1783 158.88C84.7623 159.093 84.5169 159.413 84.4423 159.84H81.8663C81.9089 159.253 82.1329 158.72 82.5383 158.24C82.9436 157.76 83.5143 157.376 84.2503 157.088C84.9969 156.8 85.8929 156.656 86.9383 156.656C87.8663 156.656 88.6769 156.768 89.3703 156.992C90.0636 157.216 90.6023 157.525 90.9863 157.92C91.3703 158.315 91.5623 158.768 91.5623 159.28C91.5623 159.685 91.4343 160.059 91.1783 160.4C90.9329 160.741 90.5329 161.013 89.9783 161.216C89.4343 161.419 88.7196 161.52 87.8343 161.52V161.248C89.1036 161.195 90.0796 161.349 90.7623 161.712C91.4556 162.075 91.8023 162.629 91.8023 163.376C91.8023 163.92 91.6049 164.411 91.2103 164.848C90.8263 165.285 90.2609 165.627 89.5143 165.872C88.7676 166.117 87.8663 166.24 86.8103 166.24ZM99.0727 166.24C97.9421 166.24 96.9501 166.043 96.0967 165.648C95.2434 165.243 94.5767 164.683 94.0967 163.968C93.6167 163.243 93.3767 162.405 93.3767 161.456C93.3767 160.496 93.6167 159.659 94.0967 158.944C94.5767 158.219 95.2434 157.659 96.0967 157.264C96.9501 156.859 97.9421 156.656 99.0727 156.656C100.203 156.656 101.195 156.859 102.049 157.264C102.902 157.659 103.563 158.219 104.033 158.944C104.513 159.659 104.753 160.496 104.753 161.456C104.753 162.405 104.513 163.243 104.033 163.968C103.563 164.683 102.902 165.243 102.049 165.648C101.195 166.043 100.203 166.24 99.0727 166.24ZM99.0727 164.208C99.6914 164.208 100.219 164.096 100.657 163.872C101.105 163.648 101.446 163.333 101.681 162.928C101.926 162.512 102.049 162.021 102.049 161.456C102.049 160.88 101.926 160.389 101.681 159.984C101.446 159.568 101.105 159.248 100.657 159.024C100.219 158.8 99.6914 158.688 99.0727 158.688C98.4647 158.688 97.9367 158.8 97.4887 159.024C97.0407 159.248 96.6941 159.568 96.4487 159.984C96.2141 160.389 96.0967 160.88 96.0967 161.456C96.0967 162.021 96.2141 162.512 96.4487 162.928C96.6941 163.333 97.0407 163.648 97.4887 163.872C97.9367 164.096 98.4647 164.208 99.0727 164.208ZM106.535 166L107.047 161.456L106.535 156.896H113.543C114.417 156.896 115.111 157.104 115.623 157.52C116.135 157.925 116.391 158.48 116.391 159.184C116.391 159.845 116.135 160.384 115.623 160.8C115.111 161.205 114.396 161.445 113.479 161.52L113.671 161.072C114.737 161.104 115.548 161.328 116.103 161.744C116.668 162.149 116.951 162.72 116.951 163.456C116.951 164.245 116.663 164.869 116.087 165.328C115.521 165.776 114.743 166 113.751 166H106.535ZM109.111 165.408L108.087 164.272H112.935C113.393 164.272 113.729 164.181 113.943 164C114.156 163.808 114.263 163.541 114.263 163.2C114.263 162.891 114.145 162.64 113.911 162.448C113.676 162.245 113.292 162.144 112.759 162.144H108.631V160.624H112.407C112.855 160.624 113.18 160.533 113.383 160.352C113.596 160.171 113.703 159.925 113.703 159.616C113.703 159.328 113.607 159.093 113.415 158.912C113.233 158.731 112.935 158.64 112.519 158.64H108.103L109.111 157.504L109.607 161.456L109.111 165.408ZM127.293 166L126.909 162.672L127.341 161.456L126.909 160.256L127.293 156.896H130.061L129.533 161.456L130.061 166H127.293ZM127.997 161.456C127.827 162.416 127.512 163.259 127.053 163.984C126.605 164.699 126.035 165.253 125.341 165.648C124.659 166.043 123.891 166.24 123.037 166.24C122.152 166.24 121.368 166.043 120.685 165.648C120.003 165.243 119.469 164.683 119.085 163.968C118.712 163.243 118.525 162.405 118.525 161.456C118.525 160.496 118.712 159.659 119.085 158.944C119.469 158.219 120.003 157.659 120.685 157.264C121.368 156.859 122.152 156.656 123.037 156.656C123.891 156.656 124.659 156.853 125.341 157.248C126.035 157.643 126.611 158.203 127.069 158.928C127.528 159.643 127.837 160.485 127.997 161.456ZM121.229 161.456C121.229 161.989 121.336 162.459 121.549 162.864C121.773 163.269 122.077 163.589 122.461 163.824C122.845 164.048 123.288 164.16 123.789 164.16C124.291 164.16 124.76 164.048 125.197 163.824C125.645 163.589 126.04 163.269 126.381 162.864C126.723 162.459 126.989 161.989 127.181 161.456C126.989 160.923 126.723 160.453 126.381 160.048C126.04 159.632 125.645 159.312 125.197 159.088C124.76 158.853 124.291 158.736 123.789 158.736C123.288 158.736 122.845 158.853 122.461 159.088C122.077 159.312 121.773 159.632 121.549 160.048C121.336 160.453 121.229 160.923 121.229 161.456ZM132.328 156.896H134.984V166H132.328V156.896ZM139.96 156.896H142.616V166H139.96V156.896ZM133.848 160.352H141V162.368H133.848V160.352ZM145.105 166V156.896H147.729V164.592L147.073 164.416L152.561 156.896H156.001V166H153.377V158.16L154.033 158.352L148.449 166H145.105ZM157.339 166L161.643 160.848L161.627 161.84L157.595 156.896H160.587L163.435 160.32H162.507L165.371 156.896H168.315L164.155 161.888L164.027 160.64L168.555 166H165.515L162.411 162.32H163.387L160.315 166H157.339ZM35.232 176.896V186H32.56V177.696L33.792 178.912H26.448L27.68 177.696V186H25.008V176.896H35.232ZM37.7224 176.896H40.3944V179.792L40.2824 180.144V182.336L40.3944 182.992V188.64H37.7224V176.896ZM39.4664 181.456C39.6477 180.485 39.9624 179.643 40.4104 178.928C40.869 178.203 41.4397 177.643 42.1224 177.248C42.8157 176.853 43.5837 176.656 44.4264 176.656C45.3224 176.656 46.1064 176.859 46.7784 177.264C47.461 177.659 47.9944 178.219 48.3784 178.944C48.7624 179.659 48.9544 180.496 48.9544 181.456C48.9544 182.405 48.7624 183.243 48.3784 183.968C47.9944 184.683 47.461 185.243 46.7784 185.648C46.1064 186.043 45.3224 186.24 44.4264 186.24C43.573 186.24 42.805 186.043 42.1224 185.648C41.4504 185.253 40.885 184.699 40.4264 183.984C39.9677 183.259 39.6477 182.416 39.4664 181.456ZM46.2504 181.456C46.2504 180.923 46.1384 180.453 45.9144 180.048C45.701 179.632 45.4024 179.312 45.0184 179.088C44.6344 178.853 44.1917 178.736 43.6904 178.736C43.189 178.736 42.7144 178.853 42.2664 179.088C41.8184 179.312 41.4237 179.632 41.0824 180.048C40.7517 180.453 40.4904 180.923 40.2984 181.456C40.4904 181.989 40.7517 182.459 41.0824 182.864C41.4237 183.269 41.8184 183.589 42.2664 183.824C42.7144 184.048 43.189 184.16 43.6904 184.16C44.1917 184.16 44.6344 184.048 45.0184 183.824C45.4024 183.589 45.701 183.269 45.9144 182.864C46.1384 182.459 46.2504 181.989 46.2504 181.456ZM56.2152 186.24C55.0846 186.24 54.0926 186.043 53.2392 185.648C52.3859 185.243 51.7192 184.683 51.2392 183.968C50.7592 183.243 50.5192 182.405 50.5192 181.456C50.5192 180.496 50.7592 179.659 51.2392 178.944C51.7192 178.219 52.3859 177.659 53.2392 177.264C54.0926 176.859 55.0846 176.656 56.2152 176.656C57.3459 176.656 58.3379 176.859 59.1912 177.264C60.0446 177.659 60.7059 178.219 61.1753 178.944C61.6552 179.659 61.8952 180.496 61.8952 181.456C61.8952 182.405 61.6552 183.243 61.1753 183.968C60.7059 184.683 60.0446 185.243 59.1912 185.648C58.3379 186.043 57.3459 186.24 56.2152 186.24ZM56.2152 184.208C56.8339 184.208 57.3619 184.096 57.7992 183.872C58.2472 183.648 58.5886 183.333 58.8232 182.928C59.0686 182.512 59.1912 182.021 59.1912 181.456C59.1912 180.88 59.0686 180.389 58.8232 179.984C58.5886 179.568 58.2472 179.248 57.7992 179.024C57.3619 178.8 56.8339 178.688 56.2152 178.688C55.6072 178.688 55.0792 178.8 54.6312 179.024C54.1832 179.248 53.8366 179.568 53.5912 179.984C53.3566 180.389 53.2392 180.88 53.2392 181.456C53.2392 182.021 53.3566 182.512 53.5912 182.928C53.8366 183.333 54.1832 183.648 54.6312 183.872C55.0792 184.096 55.6072 184.208 56.2152 184.208ZM68.9884 186.24C67.9004 186.24 66.935 186.043 66.0924 185.648C65.2604 185.243 64.6097 184.677 64.1404 183.952C63.6817 183.227 63.4524 182.395 63.4524 181.456C63.4524 180.507 63.6817 179.675 64.1404 178.96C64.6097 178.235 65.2604 177.669 66.0924 177.264C66.935 176.859 67.9004 176.656 68.9884 176.656C69.9484 176.656 70.8124 176.816 71.5804 177.136C72.3484 177.456 72.9777 177.899 73.4684 178.464C73.9697 179.019 74.2844 179.669 74.4124 180.416H71.8044C71.6444 179.872 71.3084 179.429 70.7964 179.088C70.2844 178.736 69.6817 178.56 68.9884 178.56C68.391 178.56 67.8737 178.677 67.4364 178.912C66.999 179.136 66.6577 179.467 66.4124 179.904C66.1777 180.331 66.0604 180.848 66.0604 181.456C66.0604 182.053 66.1777 182.571 66.4124 183.008C66.6577 183.435 66.999 183.765 67.4364 184C67.8737 184.224 68.391 184.336 68.9884 184.336C69.6817 184.336 70.2844 184.165 70.7964 183.824C71.3084 183.483 71.6444 183.035 71.8044 182.48H74.4124C74.2844 183.227 73.9697 183.883 73.4684 184.448C72.9777 185.003 72.3484 185.44 71.5804 185.76C70.8124 186.08 69.9484 186.24 68.9884 186.24ZM64.8444 182.272V180.624H70.3484V182.272H64.8444ZM76.3186 186V176.896H78.9906V183.84L78.2066 183.568L83.6306 176.896H86.5426L78.7186 186H76.3186ZM83.7586 186L81.0386 181.536L83.0066 180.016L86.8146 186H83.7586ZM91.0369 177.824H93.7089V186H91.0369V177.824ZM87.4209 176.896H97.3249V178.944H87.4209V176.896ZM99.0286 176.8L100.357 177.056L101.701 176.8V186H99.0286V176.8ZM100.357 175.856C99.8766 175.856 99.482 175.733 99.1726 175.488C98.874 175.232 98.7246 174.896 98.7246 174.48C98.7246 174.053 98.874 173.717 99.1726 173.472C99.482 173.216 99.8766 173.088 100.357 173.088C100.847 173.088 101.242 173.216 101.541 173.472C101.839 173.717 101.989 174.053 101.989 174.48C101.989 174.896 101.839 175.232 101.541 175.488C101.242 175.733 100.847 175.856 100.357 175.856ZM103.972 186L104.484 181.456L103.972 176.896H110.98C111.855 176.896 112.548 177.104 113.06 177.52C113.572 177.925 113.828 178.48 113.828 179.184C113.828 179.845 113.572 180.384 113.06 180.8C112.548 181.205 111.833 181.445 110.916 181.52L111.108 181.072C112.175 181.104 112.985 181.328 113.54 181.744C114.105 182.149 114.388 182.72 114.388 183.456C114.388 184.245 114.1 184.869 113.524 185.328C112.959 185.776 112.18 186 111.188 186H103.972ZM106.548 185.408L105.524 184.272H110.372C110.831 184.272 111.167 184.181 111.38 184C111.593 183.808 111.7 183.541 111.7 183.2C111.7 182.891 111.583 182.64 111.348 182.448C111.113 182.245 110.729 182.144 110.196 182.144H106.068V180.624H109.844C110.292 180.624 110.617 180.533 110.82 180.352C111.033 180.171 111.14 179.925 111.14 179.616C111.14 179.328 111.044 179.093 110.852 178.912C110.671 178.731 110.372 178.64 109.956 178.64H105.54L106.548 177.504L107.044 181.456L106.548 185.408ZM24.784 206L25.296 201.456L24.784 196.896H31.792C32.6667 196.896 33.36 197.104 33.872 197.52C34.384 197.925 34.64 198.48 34.64 199.184C34.64 199.845 34.384 200.384 33.872 200.8C33.36 201.205 32.6453 201.445 31.728 201.52L31.92 201.072C32.9867 201.104 33.7973 201.328 34.352 201.744C34.9173 202.149 35.2 202.72 35.2 203.456C35.2 204.245 34.912 204.869 34.336 205.328C33.7707 205.776 32.992 206 32 206H24.784ZM27.36 205.408L26.336 204.272H31.184C31.6427 204.272 31.9787 204.181 32.192 204C32.4053 203.808 32.512 203.541 32.512 203.2C32.512 202.891 32.3947 202.64 32.16 202.448C31.9253 202.245 31.5413 202.144 31.008 202.144H26.88V200.624H30.656C31.104 200.624 31.4293 200.533 31.632 200.352C31.8453 200.171 31.952 199.925 31.952 199.616C31.952 199.328 31.856 199.093 31.664 198.912C31.4827 198.731 31.184 198.64 30.768 198.64H26.352L27.36 197.504L27.856 201.456L27.36 205.408ZM41.3645 202.08H44.1165C44.1805 202.485 44.3565 202.843 44.6445 203.152C44.9432 203.451 45.3378 203.685 45.8285 203.856C46.3298 204.016 46.9058 204.096 47.5565 204.096C48.5058 204.096 49.2525 203.963 49.7965 203.696C50.3512 203.419 50.6285 203.035 50.6285 202.544C50.6285 202.16 50.4685 201.867 50.1485 201.664C49.8392 201.451 49.2578 201.296 48.4045 201.2L45.9885 200.928C44.4312 200.757 43.3005 200.395 42.5965 199.84C41.9032 199.275 41.5565 198.491 41.5565 197.488C41.5565 196.699 41.7858 196.027 42.2445 195.472C42.7138 194.917 43.3698 194.496 44.2125 194.208C45.0552 193.909 46.0472 193.76 47.1885 193.76C48.2978 193.76 49.2845 193.925 50.1485 194.256C51.0125 194.576 51.7005 195.029 52.2125 195.616C52.7245 196.192 53.0018 196.869 53.0445 197.648H50.2925C50.2392 197.296 50.0792 196.992 49.8125 196.736C49.5565 196.469 49.1992 196.267 48.7405 196.128C48.2818 195.979 47.7432 195.904 47.1245 195.904C46.2605 195.904 45.5725 196.032 45.0605 196.288C44.5485 196.544 44.2925 196.907 44.2925 197.376C44.2925 197.739 44.4418 198.021 44.7405 198.224C45.0498 198.416 45.5885 198.56 46.3565 198.656L48.8685 198.96C49.9778 199.077 50.8578 199.269 51.5085 199.536C52.1698 199.792 52.6392 200.139 52.9165 200.576C53.2045 201.013 53.3485 201.568 53.3485 202.24C53.3485 203.04 53.1032 203.744 52.6125 204.352C52.1325 204.949 51.4552 205.413 50.5805 205.744C49.7058 206.075 48.6818 206.24 47.5085 206.24C46.3138 206.24 45.2632 206.069 44.3565 205.728C43.4498 205.376 42.7352 204.891 42.2125 204.272C41.6898 203.643 41.4072 202.912 41.3645 202.08ZM59.2571 206.24C58.4145 206.24 57.6945 206.069 57.0971 205.728C56.5105 205.376 56.0571 204.88 55.7371 204.24C55.4278 203.6 55.2731 202.843 55.2731 201.968V196.896H57.9451V201.568C57.9451 202.379 58.1371 202.997 58.5211 203.424C58.9051 203.84 59.4491 204.048 60.1531 204.048C60.6758 204.048 61.1185 203.941 61.4811 203.728C61.8545 203.504 62.1425 203.184 62.3451 202.768C62.5478 202.352 62.6491 201.867 62.6491 201.312L63.5131 201.776C63.4065 202.715 63.1558 203.52 62.7611 204.192C62.3665 204.853 61.8651 205.36 61.2571 205.712C60.6598 206.064 59.9931 206.24 59.2571 206.24ZM63.2091 206L62.6491 202.544V196.896H65.3211V202.944L65.8811 206H63.2091ZM67.9436 193.68H70.6156V199.792L70.2476 200.512V202.496L70.6156 203.232V206H67.9436V193.68ZM69.6716 201.456C69.8423 200.485 70.157 199.643 70.6156 198.928C71.0743 198.203 71.645 197.643 72.3276 197.248C73.0103 196.853 73.7783 196.656 74.6316 196.656C75.517 196.656 76.301 196.859 76.9836 197.264C77.6663 197.659 78.1996 198.219 78.5836 198.944C78.9676 199.659 79.1596 200.496 79.1596 201.456C79.1596 202.405 78.9676 203.243 78.5836 203.968C78.1996 204.683 77.6663 205.243 76.9836 205.648C76.301 206.043 75.517 206.24 74.6316 206.24C73.7783 206.24 73.0103 206.043 72.3276 205.648C71.645 205.253 71.0743 204.699 70.6156 203.984C70.1676 203.259 69.853 202.416 69.6716 201.456ZM76.4396 201.456C76.4396 200.923 76.3276 200.453 76.1036 200.048C75.8903 199.632 75.5916 199.312 75.2076 199.088C74.8236 198.853 74.3863 198.736 73.8956 198.736C73.3943 198.736 72.9196 198.853 72.4716 199.088C72.0236 199.312 71.629 199.632 71.2876 200.048C70.957 200.453 70.6956 200.923 70.5036 201.456C70.6956 201.989 70.957 202.459 71.2876 202.864C71.629 203.269 72.0236 203.589 72.4716 203.824C72.9196 204.048 73.3943 204.16 73.8956 204.16C74.3863 204.16 74.8236 204.048 75.2076 203.824C75.5916 203.589 75.8903 203.269 76.1036 202.864C76.3276 202.459 76.4396 201.989 76.4396 201.456ZM80.7416 196.896H83.4136L83.9896 200.368V206H81.3176V199.968L80.7416 196.896ZM87.2376 196.656C88.0483 196.656 88.7416 196.832 89.3176 197.184C89.8936 197.525 90.331 198.016 90.6296 198.656C90.939 199.296 91.0936 200.059 91.0936 200.944V206H88.4216V201.344C88.4216 200.523 88.2403 199.904 87.8776 199.488C87.5256 199.061 87.0083 198.848 86.3256 198.848C85.8456 198.848 85.4296 198.965 85.0776 199.2C84.7256 199.424 84.4536 199.739 84.2616 200.144C84.0803 200.549 83.9896 201.035 83.9896 201.6L83.1096 201.136C83.2163 200.176 83.4616 199.365 83.8456 198.704C84.2296 198.043 84.7096 197.536 85.2856 197.184C85.8723 196.832 86.523 196.656 87.2376 196.656ZM94.3256 196.656C95.1363 196.656 95.8296 196.832 96.4056 197.184C96.9923 197.525 97.435 198.016 97.7336 198.656C98.043 199.296 98.1976 200.059 98.1976 200.944V206H95.5256V201.344C95.5256 200.523 95.3443 199.904 94.9816 199.488C94.6296 199.061 94.1123 198.848 93.4296 198.848C92.9496 198.848 92.5336 198.965 92.1816 199.2C91.8296 199.424 91.5576 199.739 91.3656 200.144C91.1843 200.549 91.0936 201.035 91.0936 201.6L90.2136 201.136C90.3203 200.176 90.5656 199.365 90.9496 198.704C91.3336 198.043 91.8136 197.536 92.3896 197.184C92.9763 196.832 93.6216 196.656 94.3256 196.656ZM108.896 206L108.512 202.672L108.944 201.456L108.512 200.256L108.896 196.896H111.664L111.136 201.456L111.664 206H108.896ZM109.6 201.456C109.429 202.416 109.115 203.259 108.656 203.984C108.208 204.699 107.637 205.253 106.944 205.648C106.261 206.043 105.493 206.24 104.64 206.24C103.755 206.24 102.971 206.043 102.288 205.648C101.605 205.243 101.072 204.683 100.688 203.968C100.315 203.243 100.128 202.405 100.128 201.456C100.128 200.496 100.315 199.659 100.688 198.944C101.072 198.219 101.605 197.659 102.288 197.264C102.971 196.859 103.755 196.656 104.64 196.656C105.493 196.656 106.261 196.853 106.944 197.248C107.637 197.643 108.213 198.203 108.672 198.928C109.131 199.643 109.44 200.485 109.6 201.456ZM102.832 201.456C102.832 201.989 102.939 202.459 103.152 202.864C103.376 203.269 103.68 203.589 104.064 203.824C104.448 204.048 104.891 204.16 105.392 204.16C105.893 204.16 106.363 204.048 106.8 203.824C107.248 203.589 107.643 203.269 107.984 202.864C108.325 202.459 108.592 201.989 108.784 201.456C108.592 200.923 108.325 200.453 107.984 200.048C107.643 199.632 107.248 199.312 106.8 199.088C106.363 198.853 105.893 198.736 105.392 198.736C104.891 198.736 104.448 198.853 104.064 199.088C103.68 199.312 103.376 199.632 103.152 200.048C102.939 200.453 102.832 200.923 102.832 201.456ZM113.499 196.896H116.203L116.747 200.176V206H114.075V199.888L113.499 196.896ZM121.179 196.8V199.104C120.901 199.04 120.624 198.992 120.347 198.96C120.069 198.928 119.808 198.912 119.563 198.912C119.029 198.912 118.549 199.024 118.123 199.248C117.696 199.472 117.36 199.819 117.115 200.288C116.869 200.757 116.747 201.349 116.747 202.064L116.187 201.392C116.251 200.741 116.368 200.133 116.539 199.568C116.709 198.992 116.944 198.491 117.243 198.064C117.552 197.627 117.931 197.285 118.379 197.04C118.827 196.784 119.36 196.656 119.979 196.656C120.181 196.656 120.384 196.672 120.587 196.704C120.8 196.725 120.997 196.757 121.179 196.8ZM122.895 196.8L124.223 197.056L125.567 196.8V206H122.895V196.8ZM124.223 195.856C123.743 195.856 123.348 195.733 123.039 195.488C122.74 195.232 122.591 194.896 122.591 194.48C122.591 194.053 122.74 193.717 123.039 193.472C123.348 193.216 123.743 193.088 124.223 193.088C124.714 193.088 125.108 193.216 125.407 193.472C125.706 193.717 125.855 194.053 125.855 194.48C125.855 194.896 125.706 195.232 125.407 195.488C125.108 195.733 124.714 195.856 124.223 195.856ZM127.63 196.896H130.302L130.878 200.368V206H128.206V199.968L127.63 196.896ZM134.35 196.656C135.214 196.656 135.95 196.832 136.558 197.184C137.166 197.525 137.63 198.016 137.95 198.656C138.27 199.296 138.43 200.059 138.43 200.944V206H135.758V201.344C135.758 200.523 135.561 199.904 135.166 199.488C134.772 199.061 134.196 198.848 133.438 198.848C132.926 198.848 132.473 198.965 132.078 199.2C131.694 199.424 131.396 199.739 131.182 200.144C130.98 200.549 130.878 201.035 130.878 201.6L129.998 201.136C130.105 200.176 130.361 199.365 130.766 198.704C131.172 198.043 131.684 197.536 132.302 197.184C132.921 196.832 133.604 196.656 134.35 196.656ZM145.928 206.24C144.851 206.24 143.886 206.043 143.032 205.648C142.19 205.243 141.523 204.677 141.032 203.952C140.552 203.227 140.312 202.384 140.312 201.424C140.312 200.475 140.542 199.643 141 198.928C141.47 198.213 142.11 197.659 142.92 197.264C143.731 196.859 144.654 196.656 145.688 196.656C146.744 196.656 147.651 196.891 148.408 197.36C149.166 197.819 149.747 198.469 150.152 199.312C150.568 200.155 150.776 201.147 150.776 202.288H142.456V200.512H149.336L148.296 201.152C148.254 200.619 148.12 200.165 147.896 199.792C147.683 199.419 147.39 199.131 147.016 198.928C146.643 198.725 146.206 198.624 145.704 198.624C145.16 198.624 144.686 198.736 144.28 198.96C143.886 199.173 143.576 199.477 143.352 199.872C143.139 200.256 143.032 200.709 143.032 201.232C143.032 201.861 143.171 202.4 143.448 202.848C143.726 203.296 144.131 203.637 144.664 203.872C145.198 204.107 145.843 204.224 146.6 204.224C147.283 204.224 147.971 204.128 148.664 203.936C149.358 203.733 149.982 203.451 150.536 203.088V204.88C149.939 205.307 149.24 205.643 148.44 205.888C147.651 206.123 146.814 206.24 145.928 206.24ZM154.291 206.144C153.843 206.144 153.47 206 153.171 205.712C152.883 205.424 152.739 205.061 152.739 204.624C152.739 204.187 152.883 203.824 153.171 203.536C153.47 203.248 153.843 203.104 154.291 203.104C154.75 203.104 155.123 203.248 155.411 203.536C155.71 203.824 155.859 204.187 155.859 204.624C155.859 205.061 155.71 205.424 155.411 205.712C155.123 206 154.75 206.144 154.291 206.144ZM154.291 200.48C153.843 200.48 153.47 200.336 153.171 200.048C152.883 199.76 152.739 199.397 152.739 198.96C152.739 198.523 152.883 198.16 153.171 197.872C153.47 197.584 153.843 197.44 154.291 197.44C154.75 197.44 155.123 197.584 155.411 197.872C155.71 198.16 155.859 198.523 155.859 198.96C155.859 199.397 155.71 199.76 155.411 200.048C155.123 200.336 154.75 200.48 154.291 200.48Z" fill="white"/>
<path d="M243.2 133.8H244.16V145H243.04V135.032L240.528 135.784L240.24 134.824L243.2 133.8ZM250.158 138.312C251.203 138.312 252.088 138.621 252.814 139.24C253.55 139.848 253.918 140.685 253.918 141.752C253.918 142.819 253.55 143.661 252.814 144.28C252.088 144.888 251.203 145.192 250.158 145.192C249.315 145.192 248.563 144.989 247.902 144.584C247.24 144.168 246.792 143.576 246.558 142.808L247.502 142.264C247.662 142.861 247.976 143.32 248.446 143.64C248.926 143.949 249.496 144.104 250.158 144.104C250.926 144.104 251.555 143.901 252.046 143.496C252.547 143.08 252.798 142.499 252.798 141.752C252.798 141.005 252.547 140.429 252.046 140.024C251.555 139.608 250.926 139.4 250.158 139.4H247.118L247.518 133.8H253.518V134.856H248.51L248.27 138.312H250.158ZM262.718 138.888V139.912H259.87V142.76H258.846V139.912H255.998V138.888H258.846V136.04H259.87V138.888H262.718Z" fill="white"/>
<path d="M28.048 242L30.112 238.432H30.144L35.008 230H37.952L30.992 242H28.048ZM30.112 240.256L24.128 230H27.12L31.984 238.368L30.112 240.256ZM38.8529 232.896H48.2609V242H45.5889V233.696L46.8209 234.912H40.1809L41.3329 233.92C41.3862 234.571 41.4289 235.173 41.4609 235.728C41.5035 236.272 41.5249 236.763 41.5249 237.2C41.5249 238.949 41.2635 240.219 40.7409 241.008C40.2289 241.797 39.3969 242.192 38.2449 242.192C37.9249 242.192 37.6155 242.155 37.3169 242.08C37.0289 242.016 36.7462 241.904 36.4689 241.744V239.808C36.6609 239.883 36.8475 239.941 37.0289 239.984C37.2209 240.016 37.3969 240.032 37.5569 240.032C38.1009 240.032 38.4902 239.787 38.7249 239.296C38.9702 238.795 39.0929 237.973 39.0929 236.832C39.0929 236.32 39.0715 235.733 39.0289 235.072C38.9969 234.411 38.9382 233.685 38.8529 232.896ZM60.5573 242.24C59.4372 242.24 58.4559 242.043 57.6132 241.648C56.7706 241.243 56.1146 240.683 55.6452 239.968C55.1866 239.243 54.9572 238.405 54.9572 237.456C54.9572 236.496 55.1866 235.659 55.6452 234.944C56.1146 234.219 56.7706 233.659 57.6132 233.264C58.4559 232.859 59.4372 232.656 60.5573 232.656C61.6772 232.656 62.6586 232.859 63.5012 233.264C64.3439 233.659 64.9999 234.219 65.4692 234.944C65.9386 235.659 66.1733 236.496 66.1733 237.456C66.1733 238.405 65.9386 239.243 65.4692 239.968C64.9999 240.683 64.3439 241.243 63.5012 241.648C62.6586 242.043 61.6772 242.24 60.5573 242.24ZM50.7492 242V232.896H53.4212V242H50.7492ZM52.2532 238.368V236.368H56.6532V238.368H52.2532ZM60.5573 240.208C61.1652 240.208 61.6826 240.096 62.1093 239.872C62.5466 239.648 62.8826 239.333 63.1172 238.928C63.3519 238.512 63.4692 238.021 63.4692 237.456C63.4692 236.88 63.3519 236.389 63.1172 235.984C62.8826 235.568 62.5466 235.248 62.1093 235.024C61.6826 234.8 61.1652 234.688 60.5573 234.688C59.9599 234.688 59.4426 234.8 59.0052 235.024C58.5679 235.248 58.2319 235.568 57.9972 235.984C57.7626 236.389 57.6452 236.88 57.6452 237.456C57.6452 238.021 57.7626 238.512 57.9972 238.928C58.2319 239.333 58.5679 239.648 59.0052 239.872C59.4426 240.096 59.9599 240.208 60.5573 240.208ZM73.782 242.24C72.534 242.24 71.4673 242.005 70.582 241.536C69.6967 241.056 69.0193 240.368 68.55 239.472C68.0807 238.576 67.846 237.493 67.846 236.224C67.846 234.336 68.3527 232.848 69.366 231.76C70.3793 230.672 71.83 230.048 73.718 229.888C74.486 229.824 75.1207 229.771 75.622 229.728C76.1233 229.685 76.534 229.643 76.854 229.6C77.1847 229.547 77.462 229.493 77.686 229.44C77.91 229.376 78.1287 229.307 78.342 229.232V231.456C78.118 231.541 77.83 231.621 77.478 231.696C77.1367 231.76 76.6993 231.813 76.166 231.856C75.6433 231.899 74.998 231.941 74.23 231.984C72.8327 232.048 71.7927 232.432 71.11 233.136C70.4273 233.84 70.086 234.853 70.086 236.176V236.608L69.99 236.416C70.2033 235.84 70.5287 235.344 70.966 234.928C71.4033 234.512 71.926 234.197 72.534 233.984C73.1527 233.76 73.8193 233.648 74.534 233.648C75.462 233.648 76.2727 233.824 76.966 234.176C77.6593 234.517 78.198 235.003 78.582 235.632C78.9767 236.261 79.174 236.997 79.174 237.84C79.174 238.725 78.95 239.499 78.502 240.16C78.054 240.821 77.4247 241.333 76.614 241.696C75.814 242.059 74.87 242.24 73.782 242.24ZM73.846 240.208C74.3793 240.208 74.8433 240.112 75.238 239.92C75.6327 239.728 75.9367 239.456 76.15 239.104C76.3633 238.752 76.47 238.341 76.47 237.872C76.47 237.403 76.3633 236.997 76.15 236.656C75.9367 236.304 75.6327 236.032 75.238 235.84C74.8433 235.648 74.3793 235.552 73.846 235.552C73.11 235.552 72.4593 235.749 71.894 236.144C71.3287 236.528 70.902 237.067 70.614 237.76C70.7847 238.507 71.158 239.104 71.734 239.552C72.3207 239.989 73.0247 240.208 73.846 240.208ZM82.5585 232.896H91.9665V242H89.2945V233.696L90.5265 234.912H83.8865L85.0385 233.92C85.0918 234.571 85.1345 235.173 85.1665 235.728C85.2092 236.272 85.2305 236.763 85.2305 237.2C85.2305 238.949 84.9692 240.219 84.4465 241.008C83.9345 241.797 83.1025 242.192 81.9505 242.192C81.6305 242.192 81.3212 242.155 81.0225 242.08C80.7345 242.016 80.4518 241.904 80.1745 241.744V239.808C80.3665 239.883 80.5532 239.941 80.7345 239.984C80.9265 240.016 81.1025 240.032 81.2625 240.032C81.8065 240.032 82.1958 239.787 82.4305 239.296C82.6758 238.795 82.7985 237.973 82.7985 236.832C82.7985 236.32 82.7772 235.733 82.7345 235.072C82.7025 234.411 82.6438 233.685 82.5585 232.896ZM99.5909 242.24C98.5135 242.24 97.5482 242.043 96.6949 241.648C95.8522 241.243 95.1855 240.677 94.6949 239.952C94.2149 239.227 93.9749 238.384 93.9749 237.424C93.9749 236.475 94.2042 235.643 94.6629 234.928C95.1322 234.213 95.7722 233.659 96.5829 233.264C97.3935 232.859 98.3162 232.656 99.3509 232.656C100.407 232.656 101.314 232.891 102.071 233.36C102.828 233.819 103.41 234.469 103.815 235.312C104.231 236.155 104.439 237.147 104.439 238.288H96.1189V236.512H102.999L101.959 237.152C101.916 236.619 101.783 236.165 101.559 235.792C101.346 235.419 101.052 235.131 100.679 234.928C100.306 234.725 99.8682 234.624 99.3669 234.624C98.8229 234.624 98.3482 234.736 97.9429 234.96C97.5482 235.173 97.2389 235.477 97.0149 235.872C96.8015 236.256 96.6949 236.709 96.6949 237.232C96.6949 237.861 96.8335 238.4 97.1109 238.848C97.3882 239.296 97.7935 239.637 98.3269 239.872C98.8602 240.107 99.5055 240.224 100.263 240.224C100.946 240.224 101.634 240.128 102.327 239.936C103.02 239.733 103.644 239.451 104.199 239.088V240.88C103.602 241.307 102.903 241.643 102.103 241.888C101.314 242.123 100.476 242.24 99.5909 242.24ZM106.482 232.896H109.138V242H106.482V232.896ZM114.114 232.896H116.77V242H114.114V232.896ZM108.002 236.352H115.154V238.368H108.002V236.352ZM119.259 232.8L120.587 233.056L121.931 232.8V242H119.259V232.8ZM120.587 231.856C120.107 231.856 119.712 231.733 119.403 231.488C119.104 231.232 118.955 230.896 118.955 230.48C118.955 230.053 119.104 229.717 119.403 229.472C119.712 229.216 120.107 229.088 120.587 229.088C121.077 229.088 121.472 229.216 121.771 229.472C122.069 229.717 122.219 230.053 122.219 230.48C122.219 230.896 122.069 231.232 121.771 231.488C121.472 231.733 121.077 231.856 120.587 231.856ZM139.224 232.896V242H136.552V233.696L137.784 234.912H130.44L131.672 233.696V242H129V232.896H139.224ZM141.714 232.896H144.386V235.792L144.274 236.144V238.336L144.386 238.992V244.64H141.714V232.896ZM143.458 237.456C143.64 236.485 143.954 235.643 144.402 234.928C144.861 234.203 145.432 233.643 146.114 233.248C146.808 232.853 147.576 232.656 148.418 232.656C149.314 232.656 150.098 232.859 150.77 233.264C151.453 233.659 151.986 234.219 152.37 234.944C152.754 235.659 152.946 236.496 152.946 237.456C152.946 238.405 152.754 239.243 152.37 239.968C151.986 240.683 151.453 241.243 150.77 241.648C150.098 242.043 149.314 242.24 148.418 242.24C147.565 242.24 146.797 242.043 146.114 241.648C145.442 241.253 144.877 240.699 144.418 239.984C143.96 239.259 143.64 238.416 143.458 237.456ZM150.242 237.456C150.242 236.923 150.13 236.453 149.906 236.048C149.693 235.632 149.394 235.312 149.01 235.088C148.626 234.853 148.184 234.736 147.682 234.736C147.181 234.736 146.706 234.853 146.258 235.088C145.81 235.312 145.416 235.632 145.074 236.048C144.744 236.453 144.482 236.923 144.29 237.456C144.482 237.989 144.744 238.459 145.074 238.864C145.416 239.269 145.81 239.589 146.258 239.824C146.706 240.048 147.181 240.16 147.682 240.16C148.184 240.16 148.626 240.048 149.01 239.824C149.394 239.589 149.693 239.269 149.906 238.864C150.13 238.459 150.242 237.989 150.242 237.456ZM160.207 242.24C159.076 242.24 158.084 242.043 157.231 241.648C156.378 241.243 155.711 240.683 155.231 239.968C154.751 239.243 154.511 238.405 154.511 237.456C154.511 236.496 154.751 235.659 155.231 234.944C155.711 234.219 156.378 233.659 157.231 233.264C158.084 232.859 159.076 232.656 160.207 232.656C161.338 232.656 162.33 232.859 163.183 233.264C164.036 233.659 164.698 234.219 165.167 234.944C165.647 235.659 165.887 236.496 165.887 237.456C165.887 238.405 165.647 239.243 165.167 239.968C164.698 240.683 164.036 241.243 163.183 241.648C162.33 242.043 161.338 242.24 160.207 242.24ZM160.207 240.208C160.826 240.208 161.354 240.096 161.791 239.872C162.239 239.648 162.58 239.333 162.815 238.928C163.06 238.512 163.183 238.021 163.183 237.456C163.183 236.88 163.06 236.389 162.815 235.984C162.58 235.568 162.239 235.248 161.791 235.024C161.354 234.8 160.826 234.688 160.207 234.688C159.599 234.688 159.071 234.8 158.623 235.024C158.175 235.248 157.828 235.568 157.583 235.984C157.348 236.389 157.231 236.88 157.231 237.456C157.231 238.021 157.348 238.512 157.583 238.928C157.828 239.333 158.175 239.648 158.623 239.872C159.071 240.096 159.599 240.208 160.207 240.208ZM172.98 242.24C171.892 242.24 170.927 242.043 170.084 241.648C169.252 241.243 168.602 240.677 168.132 239.952C167.674 239.227 167.444 238.395 167.444 237.456C167.444 236.507 167.674 235.675 168.132 234.96C168.602 234.235 169.252 233.669 170.084 233.264C170.927 232.859 171.892 232.656 172.98 232.656C173.94 232.656 174.804 232.816 175.572 233.136C176.34 233.456 176.97 233.899 177.46 234.464C177.962 235.019 178.276 235.669 178.404 236.416H175.796C175.636 235.872 175.3 235.429 174.788 235.088C174.276 234.736 173.674 234.56 172.98 234.56C172.383 234.56 171.866 234.677 171.428 234.912C170.991 235.136 170.65 235.467 170.404 235.904C170.17 236.331 170.052 236.848 170.052 237.456C170.052 238.053 170.17 238.571 170.404 239.008C170.65 239.435 170.991 239.765 171.428 240C171.866 240.224 172.383 240.336 172.98 240.336C173.674 240.336 174.276 240.165 174.788 239.824C175.3 239.483 175.636 239.035 175.796 238.48H178.404C178.276 239.227 177.962 239.883 177.46 240.448C176.97 241.003 176.34 241.44 175.572 241.76C174.804 242.08 173.94 242.24 172.98 242.24ZM168.836 238.272V236.624H174.34V238.272H168.836ZM180.311 242V232.896H182.983V239.84L182.199 239.568L187.623 232.896H190.535L182.711 242H180.311ZM187.751 242L185.031 237.536L186.999 236.016L190.807 242H187.751ZM195.029 233.824H197.701V242H195.029V233.824ZM191.413 232.896H201.317V234.944H191.413V232.896ZM203.02 242V232.896H205.644V240.592L204.988 240.416L210.476 232.896H213.916V242H211.292V234.16L211.948 234.352L206.364 242H203.02ZM217.879 242.144C217.431 242.144 217.057 242 216.759 241.712C216.471 241.424 216.327 241.061 216.327 240.624C216.327 240.187 216.471 239.824 216.759 239.536C217.057 239.248 217.431 239.104 217.879 239.104C218.337 239.104 218.711 239.248 218.999 239.536C219.297 239.824 219.447 240.187 219.447 240.624C219.447 241.061 219.297 241.424 218.999 241.712C218.711 242 218.337 242.144 217.879 242.144ZM217.879 236.48C217.431 236.48 217.057 236.336 216.759 236.048C216.471 235.76 216.327 235.397 216.327 234.96C216.327 234.523 216.471 234.16 216.759 233.872C217.057 233.584 217.431 233.44 217.879 233.44C218.337 233.44 218.711 233.584 218.999 233.872C219.297 234.16 219.447 234.523 219.447 234.96C219.447 235.397 219.297 235.76 218.999 236.048C218.711 236.336 218.337 236.48 217.879 236.48Z" fill="white"/>
<path d="M248 233H249.056V241H248V239.432C247.264 240.605 246.187 241.192 244.768 241.192C243.627 241.192 242.651 240.787 241.84 239.976C241.04 239.165 240.64 238.173 240.64 237C240.64 235.827 241.04 234.835 241.84 234.024C242.651 233.213 243.627 232.808 244.768 232.808C246.187 232.808 247.264 233.395 248 234.568V233ZM242.608 239.256C243.216 239.864 243.963 240.168 244.848 240.168C245.733 240.168 246.48 239.864 247.088 239.256C247.696 238.637 248 237.885 248 237C248 236.115 247.696 235.368 247.088 234.76C246.48 234.141 245.733 233.832 244.848 233.832C243.963 233.832 243.216 234.141 242.608 234.76C242 235.368 241.696 236.115 241.696 237C241.696 237.885 242 238.637 242.608 239.256ZM253.052 231.72V230.792H257.212V231.72H253.052ZM257.596 233H258.492V241H257.436V234.84L252.668 241H251.772V233H252.828V239.16L257.596 233ZM267.925 239.976H269.045V243.144H267.989V241H261.461V243.144H260.405V239.976H261.381C261.925 239.261 262.197 238.253 262.197 236.952V233H267.925V239.976ZM262.661 239.976H266.869V234.024H263.253V236.952C263.253 238.179 263.056 239.187 262.661 239.976ZM274.506 232.808C275.69 232.808 276.645 233.229 277.37 234.072C278.106 234.904 278.474 235.891 278.474 237.032C278.474 237.149 278.463 237.315 278.442 237.528H271.418C271.525 238.339 271.866 238.984 272.442 239.464C273.029 239.933 273.749 240.168 274.602 240.168C275.21 240.168 275.733 240.045 276.17 239.8C276.618 239.544 276.954 239.213 277.178 238.808L278.106 239.352C277.754 239.917 277.274 240.365 276.666 240.696C276.058 241.027 275.365 241.192 274.586 241.192C273.327 241.192 272.303 240.797 271.514 240.008C270.725 239.219 270.33 238.216 270.33 237C270.33 235.805 270.719 234.808 271.498 234.008C272.277 233.208 273.279 232.808 274.506 232.808ZM274.506 233.832C273.674 233.832 272.975 234.083 272.41 234.584C271.855 235.075 271.525 235.715 271.418 236.504H277.386C277.279 235.661 276.954 235.005 276.41 234.536C275.866 234.067 275.231 233.832 274.506 233.832ZM286.298 233H287.354V241H286.298V237.512H281.69V241H280.634V233H281.69V236.488H286.298V233ZM295.827 233V234.024H292.995V241H291.939V234.024H289.107V233H295.827ZM303.418 233H304.314V241H303.258V234.84L298.49 241H297.594V233H298.65V239.16L303.418 233ZM313.491 241H312.083L308.083 237.144V241H307.027V233H308.083V236.536L311.891 233H313.331L309.203 236.84L313.491 241ZM321.496 233H322.552V241H321.496V239.432C320.76 240.605 319.683 241.192 318.264 241.192C317.123 241.192 316.147 240.787 315.336 239.976C314.536 239.165 314.136 238.173 314.136 237C314.136 235.827 314.536 234.835 315.336 234.024C316.147 233.213 317.123 232.808 318.264 232.808C319.683 232.808 320.76 233.395 321.496 234.568V233ZM316.104 239.256C316.712 239.864 317.459 240.168 318.344 240.168C319.23 240.168 319.976 239.864 320.584 239.256C321.192 238.637 321.496 237.885 321.496 237C321.496 236.115 321.192 235.368 320.584 234.76C319.976 234.141 319.23 233.832 318.344 233.832C317.459 233.832 316.712 234.141 316.104 234.76C315.496 235.368 315.192 236.115 315.192 237C315.192 237.885 315.496 238.637 316.104 239.256ZM244.8 261.192C243.776 261.192 242.896 260.952 242.16 260.472C241.435 259.981 240.928 259.309 240.64 258.456L241.6 257.896C241.803 258.589 242.176 259.133 242.72 259.528C243.264 259.912 243.963 260.104 244.816 260.104C245.648 260.104 246.293 259.923 246.752 259.56C247.221 259.187 247.456 258.696 247.456 258.088C247.456 257.501 247.243 257.059 246.816 256.76C246.389 256.461 245.685 256.152 244.704 255.832C243.541 255.448 242.773 255.139 242.4 254.904C241.547 254.392 241.12 253.651 241.12 252.68C241.12 251.731 241.451 250.984 242.112 250.44C242.773 249.885 243.589 249.608 244.56 249.608C245.435 249.608 246.192 249.837 246.832 250.296C247.472 250.744 247.947 251.32 248.256 252.024L247.312 252.552C246.8 251.315 245.883 250.696 244.56 250.696C243.867 250.696 243.307 250.867 242.88 251.208C242.453 251.549 242.24 252.024 242.24 252.632C242.24 253.187 242.432 253.603 242.816 253.88C243.2 254.157 243.835 254.44 244.72 254.728C245.125 254.867 245.413 254.968 245.584 255.032C245.765 255.085 246.021 255.181 246.352 255.32C246.693 255.448 246.944 255.565 247.104 255.672C247.264 255.768 247.456 255.907 247.68 256.088C247.915 256.259 248.08 256.435 248.176 256.616C248.283 256.787 248.373 257 248.448 257.256C248.533 257.501 248.576 257.768 248.576 258.056C248.576 259.005 248.229 259.768 247.536 260.344C246.843 260.909 245.931 261.192 244.8 261.192ZM256.451 253H257.507V261H256.451V259.752C255.853 260.712 254.957 261.192 253.763 261.192C252.792 261.192 252.024 260.899 251.459 260.312C250.904 259.715 250.627 258.915 250.627 257.912V253H251.683V257.912C251.683 258.627 251.869 259.181 252.243 259.576C252.627 259.971 253.165 260.168 253.859 260.168C254.627 260.168 255.251 259.928 255.731 259.448C256.211 258.957 256.451 258.205 256.451 257.192V253ZM264.509 252.808C265.65 252.808 266.621 253.213 267.421 254.024C268.231 254.835 268.637 255.827 268.637 257C268.637 258.173 268.231 259.165 267.421 259.976C266.621 260.787 265.65 261.192 264.509 261.192C263.09 261.192 262.013 260.605 261.277 259.432V261H260.221V249.8H261.277V254.568C262.013 253.395 263.09 252.808 264.509 252.808ZM262.189 259.256C262.797 259.864 263.543 260.168 264.429 260.168C265.314 260.168 266.061 259.864 266.669 259.256C267.277 258.637 267.581 257.885 267.581 257C267.581 256.115 267.277 255.368 266.669 254.76C266.061 254.141 265.314 253.832 264.429 253.832C263.543 253.832 262.797 254.141 262.189 254.76C261.581 255.368 261.277 256.115 261.277 257C261.277 257.885 261.581 258.637 262.189 259.256ZM279.401 252.808C280.297 252.808 281.017 253.096 281.561 253.672C282.115 254.248 282.393 255.027 282.393 256.008V261H281.337V256.008C281.337 255.315 281.155 254.781 280.793 254.408C280.441 254.024 279.971 253.832 279.385 253.832C278.723 253.832 278.185 254.056 277.769 254.504C277.363 254.941 277.161 255.629 277.161 256.568V261H276.105V256.008C276.105 255.304 275.934 254.765 275.593 254.392C275.262 254.019 274.809 253.832 274.233 253.832C273.593 253.832 273.049 254.056 272.601 254.504C272.153 254.952 271.929 255.64 271.929 256.568V261H270.873V253H271.929V254.168C272.505 253.261 273.321 252.808 274.377 252.808C275.529 252.808 276.339 253.293 276.809 254.264C277.385 253.293 278.249 252.808 279.401 252.808ZM291.795 253H292.851V261H291.795V259.432C291.059 260.605 289.982 261.192 288.563 261.192C287.422 261.192 286.446 260.787 285.635 259.976C284.835 259.165 284.435 258.173 284.435 257C284.435 255.827 284.835 254.835 285.635 254.024C286.446 253.213 287.422 252.808 288.563 252.808C289.982 252.808 291.059 253.395 291.795 254.568V253ZM286.403 259.256C287.011 259.864 287.758 260.168 288.643 260.168C289.528 260.168 290.275 259.864 290.883 259.256C291.491 258.637 291.795 257.885 291.795 257C291.795 256.115 291.491 255.368 290.883 254.76C290.275 254.141 289.528 253.832 288.643 253.832C287.758 253.832 287.011 254.141 286.403 254.76C285.795 255.368 285.491 256.115 285.491 257C285.491 257.885 285.795 258.637 286.403 259.256ZM296.623 254.328C297.114 253.357 297.956 252.872 299.151 252.872V253.896C298.426 253.896 297.823 254.109 297.343 254.536C296.863 254.963 296.623 255.635 296.623 256.552V261H295.567V253H296.623V254.328ZM302.15 251.08C302.001 251.229 301.819 251.304 301.606 251.304C301.393 251.304 301.211 251.229 301.062 251.08C300.913 250.931 300.838 250.749 300.838 250.536C300.838 250.323 300.913 250.141 301.062 249.992C301.211 249.843 301.393 249.768 301.606 249.768C301.819 249.768 302.001 249.843 302.15 249.992C302.299 250.141 302.374 250.323 302.374 250.536C302.374 250.749 302.299 250.931 302.15 251.08ZM301.078 261V253H302.134V261H301.078ZM308.599 252.808C309.57 252.808 310.332 253.107 310.887 253.704C311.452 254.291 311.735 255.085 311.735 256.088V261H310.679V256.088C310.679 255.373 310.487 254.819 310.103 254.424C309.73 254.029 309.196 253.832 308.503 253.832C307.735 253.832 307.111 254.077 306.631 254.568C306.151 255.048 305.911 255.795 305.911 256.808V261H304.855V253H305.911V254.248C306.508 253.288 307.404 252.808 308.599 252.808ZM317.953 252.808C319.137 252.808 320.092 253.229 320.817 254.072C321.553 254.904 321.921 255.891 321.921 257.032C321.921 257.149 321.91 257.315 321.889 257.528H314.865C314.972 258.339 315.313 258.984 315.889 259.464C316.476 259.933 317.196 260.168 318.049 260.168C318.657 260.168 319.18 260.045 319.617 259.8C320.065 259.544 320.401 259.213 320.625 258.808L321.553 259.352C321.201 259.917 320.721 260.365 320.113 260.696C319.505 261.027 318.812 261.192 318.033 261.192C316.774 261.192 315.75 260.797 314.961 260.008C314.172 259.219 313.777 258.216 313.777 257C313.777 255.805 314.166 254.808 314.945 254.008C315.724 253.208 316.726 252.808 317.953 252.808ZM317.953 253.832C317.121 253.832 316.422 254.083 315.857 254.584C315.302 255.075 314.972 255.715 314.865 256.504H320.833C320.726 255.661 320.401 255.005 319.857 254.536C319.313 254.067 318.678 253.832 317.953 253.832ZM244.816 272.808C246 272.808 246.955 273.229 247.68 274.072C248.416 274.904 248.784 275.891 248.784 277.032C248.784 277.149 248.773 277.315 248.752 277.528H241.728C241.835 278.339 242.176 278.984 242.752 279.464C243.339 279.933 244.059 280.168 244.912 280.168C245.52 280.168 246.043 280.045 246.48 279.8C246.928 279.544 247.264 279.213 247.488 278.808L248.416 279.352C248.064 279.917 247.584 280.365 246.976 280.696C246.368 281.027 245.675 281.192 244.896 281.192C243.637 281.192 242.613 280.797 241.824 280.008C241.035 279.219 240.64 278.216 240.64 277C240.64 275.805 241.029 274.808 241.808 274.008C242.587 273.208 243.589 272.808 244.816 272.808ZM244.816 273.832C243.984 273.832 243.285 274.083 242.72 274.584C242.165 275.075 241.835 275.715 241.728 276.504H247.696C247.589 275.661 247.264 275.005 246.72 274.536C246.176 274.067 245.541 273.832 244.816 273.832ZM257.824 269.8H258.88V281H257.824V279.432C257.088 280.605 256.01 281.192 254.592 281.192C253.45 281.192 252.474 280.787 251.664 279.976C250.864 279.165 250.464 278.173 250.464 277C250.464 275.827 250.864 274.835 251.664 274.024C252.474 273.213 253.45 272.808 254.592 272.808C256.01 272.808 257.088 273.395 257.824 274.568V269.8ZM252.432 279.256C253.04 279.864 253.786 280.168 254.672 280.168C255.557 280.168 256.304 279.864 256.912 279.256C257.52 278.637 257.824 277.885 257.824 277C257.824 276.115 257.52 275.368 256.912 274.76C256.304 274.141 255.557 273.832 254.672 273.832C253.786 273.832 253.04 274.141 252.432 274.76C251.824 275.368 251.52 276.115 251.52 277C251.52 277.885 251.824 278.637 252.432 279.256ZM267.228 273H268.284V281H267.228V279.752C266.63 280.712 265.734 281.192 264.54 281.192C263.569 281.192 262.801 280.899 262.236 280.312C261.681 279.715 261.404 278.915 261.404 277.912V273H262.46V277.912C262.46 278.627 262.646 279.181 263.02 279.576C263.404 279.971 263.942 280.168 264.636 280.168C265.404 280.168 266.028 279.928 266.508 279.448C266.988 278.957 267.228 278.205 267.228 277.192V273ZM274.726 281.192C273.52 281.192 272.518 280.792 271.718 279.992C270.918 279.181 270.518 278.184 270.518 277C270.518 275.816 270.918 274.824 271.718 274.024C272.518 273.213 273.52 272.808 274.726 272.808C275.515 272.808 276.224 273 276.854 273.384C277.483 273.757 277.942 274.264 278.23 274.904L277.366 275.4C277.152 274.92 276.806 274.541 276.326 274.264C275.856 273.976 275.323 273.832 274.726 273.832C273.84 273.832 273.094 274.141 272.486 274.76C271.878 275.368 271.574 276.115 271.574 277C271.574 277.885 271.878 278.637 272.486 279.256C273.094 279.864 273.84 280.168 274.726 280.168C275.323 280.168 275.856 280.029 276.326 279.752C276.795 279.464 277.163 279.08 277.43 278.6L278.31 279.112C277.979 279.752 277.494 280.259 276.854 280.632C276.214 281.005 275.504 281.192 274.726 281.192ZM287.107 273H288.163V281H287.107V279.432C286.371 280.605 285.294 281.192 283.875 281.192C282.734 281.192 281.758 280.787 280.947 279.976C280.147 279.165 279.747 278.173 279.747 277C279.747 275.827 280.147 274.835 280.947 274.024C281.758 273.213 282.734 272.808 283.875 272.808C285.294 272.808 286.371 273.395 287.107 274.568V273ZM281.715 279.256C282.323 279.864 283.07 280.168 283.955 280.168C284.841 280.168 285.587 279.864 286.195 279.256C286.803 278.637 287.107 277.885 287.107 277C287.107 276.115 286.803 275.368 286.195 274.76C285.587 274.141 284.841 273.832 283.955 273.832C283.07 273.832 282.323 274.141 281.715 274.76C281.107 275.368 280.803 276.115 280.803 277C280.803 277.885 281.107 278.637 281.715 279.256ZM295.119 274.024H292.815V278.872C292.815 279.309 292.901 279.624 293.071 279.816C293.242 279.997 293.498 280.093 293.839 280.104C294.181 280.104 294.607 280.093 295.119 280.072V281C293.999 281.171 293.157 281.091 292.591 280.76C292.037 280.429 291.759 279.8 291.759 278.872V274.024H290.079V273H291.759V271.08L292.815 270.76V273H295.119V274.024ZM298.431 271.08C298.282 271.229 298.101 271.304 297.887 271.304C297.674 271.304 297.493 271.229 297.343 271.08C297.194 270.931 297.119 270.749 297.119 270.536C297.119 270.323 297.194 270.141 297.343 269.992C297.493 269.843 297.674 269.768 297.887 269.768C298.101 269.768 298.282 269.843 298.431 269.992C298.581 270.141 298.655 270.323 298.655 270.536C298.655 270.749 298.581 270.931 298.431 271.08ZM297.359 281V273H298.415V281H297.359ZM307.84 279.992C307.03 280.792 306.038 281.192 304.864 281.192C303.691 281.192 302.694 280.792 301.872 279.992C301.062 279.181 300.656 278.184 300.656 277C300.656 275.816 301.062 274.824 301.872 274.024C302.694 273.213 303.691 272.808 304.864 272.808C306.038 272.808 307.03 273.213 307.84 274.024C308.662 274.824 309.072 275.816 309.072 277C309.072 278.184 308.662 279.181 307.84 279.992ZM302.624 279.256C303.232 279.864 303.979 280.168 304.864 280.168C305.75 280.168 306.496 279.864 307.104 279.256C307.712 278.637 308.016 277.885 308.016 277C308.016 276.115 307.712 275.368 307.104 274.76C306.496 274.141 305.75 273.832 304.864 273.832C303.979 273.832 303.232 274.141 302.624 274.76C302.016 275.368 301.712 276.115 301.712 277C301.712 277.885 302.016 278.637 302.624 279.256ZM315.063 272.808C316.034 272.808 316.797 273.107 317.351 273.704C317.917 274.291 318.199 275.085 318.199 276.088V281H317.143V276.088C317.143 275.373 316.951 274.819 316.567 274.424C316.194 274.029 315.661 273.832 314.967 273.832C314.199 273.832 313.575 274.077 313.095 274.568C312.615 275.048 312.375 275.795 312.375 276.808V281H311.319V273H312.375V274.248C312.973 273.288 313.869 272.808 315.063 272.808ZM322.481 279.64L321.521 283.24H320.561L321.201 279.64H322.481ZM333.253 281.192C332.048 281.192 331.045 280.792 330.245 279.992C329.445 279.181 329.045 278.184 329.045 277C329.045 275.816 329.445 274.824 330.245 274.024C331.045 273.213 332.048 272.808 333.253 272.808C334.042 272.808 334.752 273 335.381 273.384C336.01 273.757 336.469 274.264 336.757 274.904L335.893 275.4C335.68 274.92 335.333 274.541 334.853 274.264C334.384 273.976 333.85 273.832 333.253 273.832C332.368 273.832 331.621 274.141 331.013 274.76C330.405 275.368 330.101 276.115 330.101 277C330.101 277.885 330.405 278.637 331.013 279.256C331.621 279.864 332.368 280.168 333.253 280.168C333.85 280.168 334.384 280.029 334.853 279.752C335.322 279.464 335.69 279.08 335.957 278.6L336.837 279.112C336.506 279.752 336.021 280.259 335.381 280.632C334.741 281.005 334.032 281.192 333.253 281.192ZM345.635 273H346.691V281H345.635V279.432C344.899 280.605 343.822 281.192 342.403 281.192C341.262 281.192 340.286 280.787 339.475 279.976C338.675 279.165 338.275 278.173 338.275 277C338.275 275.827 338.675 274.835 339.475 274.024C340.286 273.213 341.262 272.808 342.403 272.808C343.822 272.808 344.899 273.395 345.635 274.568V273ZM340.243 279.256C340.851 279.864 341.598 280.168 342.483 280.168C343.368 280.168 344.115 279.864 344.723 279.256C345.331 278.637 345.635 277.885 345.635 277C345.635 276.115 345.331 275.368 344.723 274.76C344.115 274.141 343.368 273.832 342.483 273.832C341.598 273.832 340.851 274.141 340.243 274.76C339.635 275.368 339.331 276.115 339.331 277C339.331 277.885 339.635 278.637 340.243 279.256ZM350.687 271.72V270.792H354.847V271.72H350.687ZM355.231 273H356.127V281H355.071V274.84L350.303 281H349.407V273H350.463V279.16L355.231 273ZM364.6 273V274.024H361.768V281H360.712V274.024H357.88V273H364.6ZM244.8 301.192C243.776 301.192 242.896 300.952 242.16 300.472C241.435 299.981 240.928 299.309 240.64 298.456L241.6 297.896C241.803 298.589 242.176 299.133 242.72 299.528C243.264 299.912 243.963 300.104 244.816 300.104C245.648 300.104 246.293 299.923 246.752 299.56C247.221 299.187 247.456 298.696 247.456 298.088C247.456 297.501 247.243 297.059 246.816 296.76C246.389 296.461 245.685 296.152 244.704 295.832C243.541 295.448 242.773 295.139 242.4 294.904C241.547 294.392 241.12 293.651 241.12 292.68C241.12 291.731 241.451 290.984 242.112 290.44C242.773 289.885 243.589 289.608 244.56 289.608C245.435 289.608 246.192 289.837 246.832 290.296C247.472 290.744 247.947 291.32 248.256 292.024L247.312 292.552C246.8 291.315 245.883 290.696 244.56 290.696C243.867 290.696 243.307 290.867 242.88 291.208C242.453 291.549 242.24 292.024 242.24 292.632C242.24 293.187 242.432 293.603 242.816 293.88C243.2 294.157 243.835 294.44 244.72 294.728C245.125 294.867 245.413 294.968 245.584 295.032C245.765 295.085 246.021 295.181 246.352 295.32C246.693 295.448 246.944 295.565 247.104 295.672C247.264 295.768 247.456 295.907 247.68 296.088C247.915 296.259 248.08 296.435 248.176 296.616C248.283 296.787 248.373 297 248.448 297.256C248.533 297.501 248.576 297.768 248.576 298.056C248.576 299.005 248.229 299.768 247.536 300.344C246.843 300.909 245.931 301.192 244.8 301.192ZM257.855 293H258.911V301H257.855V299.432C257.119 300.605 256.042 301.192 254.623 301.192C253.482 301.192 252.506 300.787 251.695 299.976C250.895 299.165 250.495 298.173 250.495 297C250.495 295.827 250.895 294.835 251.695 294.024C252.506 293.213 253.482 292.808 254.623 292.808C256.042 292.808 257.119 293.395 257.855 294.568V293ZM252.463 299.256C253.071 299.864 253.818 300.168 254.703 300.168C255.588 300.168 256.335 299.864 256.943 299.256C257.551 298.637 257.855 297.885 257.855 297C257.855 296.115 257.551 295.368 256.943 294.76C256.335 294.141 255.588 293.832 254.703 293.832C253.818 293.832 253.071 294.141 252.463 294.76C251.855 295.368 251.551 296.115 251.551 297C251.551 297.885 251.855 298.637 252.463 299.256ZM268.091 301H266.683L262.683 297.144V301H261.627V289.8H262.683V296.536L266.491 293H267.931L263.803 296.84L268.091 301ZM276.096 293H277.152V301H276.096V299.432C275.36 300.605 274.283 301.192 272.864 301.192C271.723 301.192 270.747 300.787 269.936 299.976C269.136 299.165 268.736 298.173 268.736 297C268.736 295.827 269.136 294.835 269.936 294.024C270.747 293.213 271.723 292.808 272.864 292.808C274.283 292.808 275.36 293.395 276.096 294.568V293ZM270.704 299.256C271.312 299.864 272.059 300.168 272.944 300.168C273.83 300.168 274.576 299.864 275.184 299.256C275.792 298.637 276.096 297.885 276.096 297C276.096 296.115 275.792 295.368 275.184 294.76C274.576 294.141 273.83 293.832 272.944 293.832C272.059 293.832 271.312 294.141 270.704 294.76C270.096 295.368 269.792 296.115 269.792 297C269.792 297.885 270.096 298.637 270.704 299.256ZM283.612 292.808C284.583 292.808 285.345 293.107 285.9 293.704C286.465 294.291 286.748 295.085 286.748 296.088V301H285.692V296.088C285.692 295.373 285.5 294.819 285.116 294.424C284.743 294.029 284.209 293.832 283.516 293.832C282.748 293.832 282.124 294.077 281.644 294.568C281.164 295.048 280.924 295.795 280.924 296.808V301H279.868V293H280.924V294.248C281.521 293.288 282.417 292.808 283.612 292.808ZM296.15 293H297.206V301H296.15V299.432C295.414 300.605 294.337 301.192 292.918 301.192C291.777 301.192 290.801 300.787 289.99 299.976C289.19 299.165 288.79 298.173 288.79 297C288.79 295.827 289.19 294.835 289.99 294.024C290.801 293.213 291.777 292.808 292.918 292.808C294.337 292.808 295.414 293.395 296.15 294.568V293ZM290.758 299.256C291.366 299.864 292.113 300.168 292.998 300.168C293.883 300.168 294.63 299.864 295.238 299.256C295.846 298.637 296.15 297.885 296.15 297C296.15 296.115 295.846 295.368 295.238 294.76C294.63 294.141 293.883 293.832 292.998 293.832C292.113 293.832 291.366 294.141 290.758 294.76C290.15 295.368 289.846 296.115 289.846 297C289.846 297.885 290.15 298.637 290.758 299.256Z" fill="white"/>
<path d="M24.256 340.448V335.6H26.496L27.648 335.632H36.288L36.944 335.6H40.176V340.448H37.632V338H26.8V340.448H24.256ZM26.832 326H38.08V337.136H35.376V327.152L36.592 328.368H28.288L29.424 327.488C29.488 328.021 29.5307 328.549 29.552 329.072C29.5733 329.595 29.584 330.085 29.584 330.544C29.584 331.845 29.4827 332.949 29.28 333.856C29.0773 334.752 28.7733 335.435 28.368 335.904C27.9627 336.363 27.4613 336.592 26.864 336.592L25.744 335.648C26.192 335.136 26.5227 334.416 26.736 333.488C26.96 332.549 27.072 331.381 27.072 329.984C27.072 329.365 27.0507 328.72 27.008 328.048C26.9653 327.376 26.9067 326.693 26.832 326ZM47.0634 338.24C45.9327 338.24 44.9407 338.043 44.0874 337.648C43.234 337.243 42.5674 336.683 42.0874 335.968C41.6074 335.243 41.3674 334.405 41.3674 333.456C41.3674 332.496 41.6074 331.659 42.0874 330.944C42.5674 330.219 43.234 329.659 44.0874 329.264C44.9407 328.859 45.9327 328.656 47.0634 328.656C48.194 328.656 49.186 328.859 50.0394 329.264C50.8927 329.659 51.554 330.219 52.0234 330.944C52.5034 331.659 52.7434 332.496 52.7434 333.456C52.7434 334.405 52.5034 335.243 52.0234 335.968C51.554 336.683 50.8927 337.243 50.0394 337.648C49.186 338.043 48.194 338.24 47.0634 338.24ZM47.0634 336.208C47.682 336.208 48.21 336.096 48.6474 335.872C49.0954 335.648 49.4367 335.333 49.6714 334.928C49.9167 334.512 50.0394 334.021 50.0394 333.456C50.0394 332.88 49.9167 332.389 49.6714 331.984C49.4367 331.568 49.0954 331.248 48.6474 331.024C48.21 330.8 47.682 330.688 47.0634 330.688C46.4554 330.688 45.9274 330.8 45.4794 331.024C45.0314 331.248 44.6847 331.568 44.4394 331.984C44.2047 332.389 44.0874 332.88 44.0874 333.456C44.0874 334.021 44.2047 334.512 44.4394 334.928C44.6847 335.333 45.0314 335.648 45.4794 335.872C45.9274 336.096 46.4554 336.208 47.0634 336.208ZM65.2285 334.288C65.1218 335.067 64.8178 335.755 64.3165 336.352C63.8258 336.949 63.1912 337.413 62.4125 337.744C61.6338 338.075 60.7645 338.24 59.8045 338.24C58.7165 338.24 57.7565 338.043 56.9245 337.648C56.1032 337.243 55.4578 336.677 54.9885 335.952C54.5298 335.227 54.3005 334.395 54.3005 333.456C54.3005 332.507 54.5298 331.675 54.9885 330.96C55.4578 330.235 56.1032 329.669 56.9245 329.264C57.7565 328.859 58.7165 328.656 59.8045 328.656C60.7645 328.656 61.6338 328.827 62.4125 329.168C63.1912 329.499 63.8258 329.963 64.3165 330.56C64.8178 331.147 65.1218 331.835 65.2285 332.624H62.5565C62.4178 332.005 62.0978 331.531 61.5965 331.2C61.1058 330.859 60.5085 330.688 59.8045 330.688C59.2392 330.688 58.7432 330.8 58.3165 331.024C57.9005 331.237 57.5805 331.552 57.3565 331.968C57.1325 332.373 57.0205 332.869 57.0205 333.456C57.0205 334.032 57.1325 334.528 57.3565 334.944C57.5805 335.349 57.9005 335.664 58.3165 335.888C58.7432 336.101 59.2392 336.208 59.8045 336.208C60.5192 336.208 61.1218 336.032 61.6125 335.68C62.1138 335.328 62.4285 334.864 62.5565 334.288H65.2285ZM66.8959 338L67.4079 333.456L66.8959 328.896H73.9039C74.7785 328.896 75.4719 329.104 75.9839 329.52C76.4959 329.925 76.7519 330.48 76.7519 331.184C76.7519 331.845 76.4959 332.384 75.9839 332.8C75.4719 333.205 74.7572 333.445 73.8399 333.52L74.0319 333.072C75.0985 333.104 75.9092 333.328 76.4639 333.744C77.0292 334.149 77.3119 334.72 77.3119 335.456C77.3119 336.245 77.0239 336.869 76.4479 337.328C75.8825 337.776 75.1039 338 74.1119 338H66.8959ZM69.4719 337.408L68.4479 336.272H73.2959C73.7545 336.272 74.0905 336.181 74.3039 336C74.5172 335.808 74.6239 335.541 74.6239 335.2C74.6239 334.891 74.5065 334.64 74.2719 334.448C74.0372 334.245 73.6532 334.144 73.1199 334.144H68.9919V332.624H72.7679C73.2159 332.624 73.5412 332.533 73.7439 332.352C73.9572 332.171 74.0639 331.925 74.0639 331.616C74.0639 331.328 73.9679 331.093 73.7759 330.912C73.5945 330.731 73.2959 330.64 72.8799 330.64H68.4639L69.4719 329.504L69.9679 333.456L69.4719 337.408ZM79.3186 328.8L80.6466 329.056L81.9906 328.8V338H79.3186V328.8ZM80.6466 327.856C80.1666 327.856 79.772 327.733 79.4626 327.488C79.164 327.232 79.0146 326.896 79.0146 326.48C79.0146 326.053 79.164 325.717 79.4626 325.472C79.772 325.216 80.1666 325.088 80.6466 325.088C81.1373 325.088 81.532 325.216 81.8306 325.472C82.1293 325.717 82.2786 326.053 82.2786 326.48C82.2786 326.896 82.1293 327.232 81.8306 327.488C81.532 327.733 81.1373 327.856 80.6466 327.856ZM96.8541 335.984V340.24H94.5341V338H86.0221V340.24H83.7021V335.984H86.2461L86.8381 336.032H93.4621L93.9901 335.984H96.8541ZM85.6701 328.896H95.1741V337.392H92.5021V329.664L93.7341 330.896H86.9981L88.0701 329.936C88.1661 330.395 88.2248 330.832 88.2461 331.248C88.2675 331.653 88.2781 332.032 88.2781 332.384C88.2781 333.899 88.0488 335.083 87.5901 335.936C87.1315 336.779 86.4861 337.2 85.6541 337.2L84.5661 336.288C85.4195 335.669 85.8461 334.192 85.8461 331.856C85.8461 331.397 85.8301 330.923 85.7981 330.432C85.7661 329.931 85.7235 329.419 85.6701 328.896ZM100.219 338.144C99.7714 338.144 99.398 338 99.0994 337.712C98.8114 337.424 98.6674 337.061 98.6674 336.624C98.6674 336.187 98.8114 335.824 99.0994 335.536C99.398 335.248 99.7714 335.104 100.219 335.104C100.678 335.104 101.051 335.248 101.339 335.536C101.638 335.824 101.787 336.187 101.787 336.624C101.787 337.061 101.638 337.424 101.339 337.712C101.051 338 100.678 338.144 100.219 338.144ZM100.219 332.48C99.7714 332.48 99.398 332.336 99.0994 332.048C98.8114 331.76 98.6674 331.397 98.6674 330.96C98.6674 330.523 98.8114 330.16 99.0994 329.872C99.398 329.584 99.7714 329.44 100.219 329.44C100.678 329.44 101.051 329.584 101.339 329.872C101.638 330.16 101.787 330.523 101.787 330.96C101.787 331.397 101.638 331.76 101.339 332.048C101.051 332.336 100.678 332.48 100.219 332.48Z" fill="white"/>
<path d="M244.752 330.456C245.648 330.573 246.384 330.92 246.96 331.496C247.547 332.061 247.84 332.813 247.84 333.752C247.84 334.819 247.472 335.661 246.736 336.28C246.011 336.888 245.125 337.192 244.08 337.192C243.248 337.192 242.507 337 241.856 336.616C241.205 336.232 240.747 335.683 240.48 334.968L241.408 334.424C241.589 334.979 241.915 335.4 242.384 335.688C242.853 335.965 243.419 336.104 244.08 336.104C244.848 336.104 245.477 335.901 245.968 335.496C246.469 335.08 246.72 334.499 246.72 333.752C246.72 333.005 246.469 332.429 245.968 332.024C245.477 331.608 244.848 331.4 244.08 331.4V331.384L244.064 331.4H243.76L243.28 330.664L246.064 326.856H240.8V325.8H247.36V326.856L244.752 330.456ZM256.644 330.888V331.912H253.796V334.76H252.772V331.912H249.924V330.888H252.772V328.04H253.796V330.888H256.644ZM267.973 328.808C269.114 328.808 270.085 329.213 270.885 330.024C271.696 330.835 272.101 331.827 272.101 333C272.101 334.173 271.696 335.165 270.885 335.976C270.085 336.787 269.114 337.192 267.973 337.192C266.554 337.192 265.477 336.605 264.741 335.432V340.2H263.685V329H264.741V330.568C265.477 329.395 266.554 328.808 267.973 328.808ZM265.653 335.256C266.261 335.864 267.008 336.168 267.893 336.168C268.778 336.168 269.525 335.864 270.133 335.256C270.741 334.637 271.045 333.885 271.045 333C271.045 332.115 270.741 331.368 270.133 330.76C269.525 330.141 268.778 329.832 267.893 329.832C267.008 329.832 266.261 330.141 265.653 330.76C265.045 331.368 264.741 332.115 264.741 333C264.741 333.885 265.045 334.637 265.653 335.256ZM281.041 335.992C280.23 336.792 279.238 337.192 278.065 337.192C276.892 337.192 275.894 336.792 275.073 335.992C274.262 335.181 273.857 334.184 273.857 333C273.857 331.816 274.262 330.824 275.073 330.024C275.894 329.213 276.892 328.808 278.065 328.808C279.238 328.808 280.23 329.213 281.041 330.024C281.862 330.824 282.273 331.816 282.273 333C282.273 334.184 281.862 335.181 281.041 335.992ZM275.825 335.256C276.433 335.864 277.18 336.168 278.065 336.168C278.95 336.168 279.697 335.864 280.305 335.256C280.913 334.637 281.217 333.885 281.217 333C281.217 332.115 280.913 331.368 280.305 330.76C279.697 330.141 278.95 329.832 278.065 329.832C277.18 329.832 276.433 330.141 275.825 330.76C275.217 331.368 274.913 332.115 274.913 333C274.913 333.885 275.217 334.637 275.825 335.256ZM290.984 337H289.576L285.576 333.144V337H284.52V329H285.576V332.536L289.384 329H290.824L286.696 332.84L290.984 337ZM298.73 329H299.626V337H298.57V330.84L293.802 337H292.906V329H293.962V335.16L298.73 329Z" fill="white"/>
<path d="M28.048 374L30.112 370.432H30.144L35.008 362H37.952L30.992 374H28.048ZM30.112 372.256L24.128 362H27.12L31.984 370.368L30.112 372.256ZM38.8529 364.896H48.2609V374H45.5889V365.696L46.8209 366.912H40.1809L41.3329 365.92C41.3862 366.571 41.4289 367.173 41.4609 367.728C41.5035 368.272 41.5249 368.763 41.5249 369.2C41.5249 370.949 41.2635 372.219 40.7409 373.008C40.2289 373.797 39.3969 374.192 38.2449 374.192C37.9249 374.192 37.6155 374.155 37.3169 374.08C37.0289 374.016 36.7462 373.904 36.4689 373.744V371.808C36.6609 371.883 36.8475 371.941 37.0289 371.984C37.2209 372.016 37.3969 372.032 37.5569 372.032C38.1009 372.032 38.4902 371.787 38.7249 371.296C38.9702 370.795 39.0929 369.973 39.0929 368.832C39.0929 368.32 39.0715 367.733 39.0289 367.072C38.9969 366.411 38.9382 365.685 38.8529 364.896ZM60.5573 374.24C59.4372 374.24 58.4559 374.043 57.6132 373.648C56.7706 373.243 56.1146 372.683 55.6452 371.968C55.1866 371.243 54.9572 370.405 54.9572 369.456C54.9572 368.496 55.1866 367.659 55.6452 366.944C56.1146 366.219 56.7706 365.659 57.6132 365.264C58.4559 364.859 59.4372 364.656 60.5573 364.656C61.6772 364.656 62.6586 364.859 63.5012 365.264C64.3439 365.659 64.9999 366.219 65.4692 366.944C65.9386 367.659 66.1733 368.496 66.1733 369.456C66.1733 370.405 65.9386 371.243 65.4692 371.968C64.9999 372.683 64.3439 373.243 63.5012 373.648C62.6586 374.043 61.6772 374.24 60.5573 374.24ZM50.7492 374V364.896H53.4212V374H50.7492ZM52.2532 370.368V368.368H56.6532V370.368H52.2532ZM60.5573 372.208C61.1652 372.208 61.6826 372.096 62.1093 371.872C62.5466 371.648 62.8826 371.333 63.1172 370.928C63.3519 370.512 63.4692 370.021 63.4692 369.456C63.4692 368.88 63.3519 368.389 63.1172 367.984C62.8826 367.568 62.5466 367.248 62.1093 367.024C61.6826 366.8 61.1652 366.688 60.5573 366.688C59.9599 366.688 59.4426 366.8 59.0052 367.024C58.5679 367.248 58.2319 367.568 57.9972 367.984C57.7626 368.389 57.6452 368.88 57.6452 369.456C57.6452 370.021 57.7626 370.512 57.9972 370.928C58.2319 371.333 58.5679 371.648 59.0052 371.872C59.4426 372.096 59.9599 372.208 60.5573 372.208ZM73.782 374.24C72.534 374.24 71.4673 374.005 70.582 373.536C69.6967 373.056 69.0193 372.368 68.55 371.472C68.0807 370.576 67.846 369.493 67.846 368.224C67.846 366.336 68.3527 364.848 69.366 363.76C70.3793 362.672 71.83 362.048 73.718 361.888C74.486 361.824 75.1207 361.771 75.622 361.728C76.1233 361.685 76.534 361.643 76.854 361.6C77.1847 361.547 77.462 361.493 77.686 361.44C77.91 361.376 78.1287 361.307 78.342 361.232V363.456C78.118 363.541 77.83 363.621 77.478 363.696C77.1367 363.76 76.6993 363.813 76.166 363.856C75.6433 363.899 74.998 363.941 74.23 363.984C72.8327 364.048 71.7927 364.432 71.11 365.136C70.4273 365.84 70.086 366.853 70.086 368.176V368.608L69.99 368.416C70.2033 367.84 70.5287 367.344 70.966 366.928C71.4033 366.512 71.926 366.197 72.534 365.984C73.1527 365.76 73.8193 365.648 74.534 365.648C75.462 365.648 76.2727 365.824 76.966 366.176C77.6593 366.517 78.198 367.003 78.582 367.632C78.9767 368.261 79.174 368.997 79.174 369.84C79.174 370.725 78.95 371.499 78.502 372.16C78.054 372.821 77.4247 373.333 76.614 373.696C75.814 374.059 74.87 374.24 73.782 374.24ZM73.846 372.208C74.3793 372.208 74.8433 372.112 75.238 371.92C75.6327 371.728 75.9367 371.456 76.15 371.104C76.3633 370.752 76.47 370.341 76.47 369.872C76.47 369.403 76.3633 368.997 76.15 368.656C75.9367 368.304 75.6327 368.032 75.238 367.84C74.8433 367.648 74.3793 367.552 73.846 367.552C73.11 367.552 72.4593 367.749 71.894 368.144C71.3287 368.528 70.902 369.067 70.614 369.76C70.7847 370.507 71.158 371.104 71.734 371.552C72.3207 371.989 73.0247 372.208 73.846 372.208ZM82.5585 364.896H91.9665V374H89.2945V365.696L90.5265 366.912H83.8865L85.0385 365.92C85.0918 366.571 85.1345 367.173 85.1665 367.728C85.2092 368.272 85.2305 368.763 85.2305 369.2C85.2305 370.949 84.9692 372.219 84.4465 373.008C83.9345 373.797 83.1025 374.192 81.9505 374.192C81.6305 374.192 81.3212 374.155 81.0225 374.08C80.7345 374.016 80.4518 373.904 80.1745 373.744V371.808C80.3665 371.883 80.5532 371.941 80.7345 371.984C80.9265 372.016 81.1025 372.032 81.2625 372.032C81.8065 372.032 82.1958 371.787 82.4305 371.296C82.6758 370.795 82.7985 369.973 82.7985 368.832C82.7985 368.32 82.7772 367.733 82.7345 367.072C82.7025 366.411 82.6438 365.685 82.5585 364.896ZM99.5909 374.24C98.5135 374.24 97.5482 374.043 96.6949 373.648C95.8522 373.243 95.1855 372.677 94.6949 371.952C94.2149 371.227 93.9749 370.384 93.9749 369.424C93.9749 368.475 94.2042 367.643 94.6629 366.928C95.1322 366.213 95.7722 365.659 96.5829 365.264C97.3935 364.859 98.3162 364.656 99.3509 364.656C100.407 364.656 101.314 364.891 102.071 365.36C102.828 365.819 103.41 366.469 103.815 367.312C104.231 368.155 104.439 369.147 104.439 370.288H96.1189V368.512H102.999L101.959 369.152C101.916 368.619 101.783 368.165 101.559 367.792C101.346 367.419 101.052 367.131 100.679 366.928C100.306 366.725 99.8682 366.624 99.3669 366.624C98.8229 366.624 98.3482 366.736 97.9429 366.96C97.5482 367.173 97.2389 367.477 97.0149 367.872C96.8015 368.256 96.6949 368.709 96.6949 369.232C96.6949 369.861 96.8335 370.4 97.1109 370.848C97.3882 371.296 97.7935 371.637 98.3269 371.872C98.8602 372.107 99.5055 372.224 100.263 372.224C100.946 372.224 101.634 372.128 102.327 371.936C103.02 371.733 103.644 371.451 104.199 371.088V372.88C103.602 373.307 102.903 373.643 102.103 373.888C101.314 374.123 100.476 374.24 99.5909 374.24ZM106.482 364.896H109.138V374H106.482V364.896ZM114.114 364.896H116.77V374H114.114V364.896ZM108.002 368.352H115.154V370.368H108.002V368.352ZM119.259 374V364.896H121.883V372.592L121.227 372.416L126.715 364.896H130.155V374H127.531V366.16L128.187 366.352L122.603 374H119.259ZM132.645 374V364.896H135.269V372.592L134.613 372.416L140.101 364.896H143.541V374H140.917V366.16L141.573 366.352L135.989 374H132.645ZM138.021 364.064C136.986 364.064 136.154 363.813 135.525 363.312C134.896 362.8 134.506 362.059 134.357 361.088H136.453C136.528 361.547 136.698 361.899 136.965 362.144C137.242 362.379 137.594 362.496 138.021 362.496C138.448 362.496 138.794 362.379 139.061 362.144C139.328 361.899 139.504 361.547 139.589 361.088H141.669C141.53 362.059 141.141 362.8 140.501 363.312C139.872 363.813 139.045 364.064 138.021 364.064ZM158.157 364.896V366.944H152.045L153.277 365.728V374H150.605V364.896H158.157ZM162.426 376.88C161.829 376.88 161.29 376.805 160.81 376.656C160.33 376.507 159.877 376.288 159.45 376V374.08C159.898 374.368 160.325 374.576 160.73 374.704C161.136 374.832 161.584 374.896 162.074 374.896C162.512 374.896 162.901 374.795 163.242 374.592C163.584 374.4 163.866 374.053 164.09 373.552L167.882 364.896H170.714L166.17 374.416C165.893 375.013 165.557 375.493 165.162 375.856C164.768 376.219 164.336 376.48 163.866 376.64C163.408 376.8 162.928 376.88 162.426 376.88ZM163.002 373.424L158.986 364.896H161.93L165.61 373.424H163.002ZM172.268 364.896H174.94V367.792L174.828 368.144V370.336L174.94 370.992V376.64H172.268V364.896ZM174.012 369.456C174.193 368.485 174.508 367.643 174.956 366.928C175.415 366.203 175.985 365.643 176.668 365.248C177.361 364.853 178.129 364.656 178.972 364.656C179.868 364.656 180.652 364.859 181.324 365.264C182.007 365.659 182.54 366.219 182.924 366.944C183.308 367.659 183.5 368.496 183.5 369.456C183.5 370.405 183.308 371.243 182.924 371.968C182.54 372.683 182.007 373.243 181.324 373.648C180.652 374.043 179.868 374.24 178.972 374.24C178.119 374.24 177.351 374.043 176.668 373.648C175.996 373.253 175.431 372.699 174.972 371.984C174.513 371.259 174.193 370.416 174.012 369.456ZM180.796 369.456C180.796 368.923 180.684 368.453 180.46 368.048C180.247 367.632 179.948 367.312 179.564 367.088C179.18 366.853 178.737 366.736 178.236 366.736C177.735 366.736 177.26 366.853 176.812 367.088C176.364 367.312 175.969 367.632 175.628 368.048C175.297 368.453 175.036 368.923 174.844 369.456C175.036 369.989 175.297 370.459 175.628 370.864C175.969 371.269 176.364 371.589 176.812 371.824C177.26 372.048 177.735 372.16 178.236 372.16C178.737 372.16 179.18 372.048 179.564 371.824C179.948 371.589 180.247 371.269 180.46 370.864C180.684 370.459 180.796 369.989 180.796 369.456ZM188.049 365.824H190.721V374H188.049V365.824ZM184.433 364.896H194.337V366.944H184.433V364.896ZM197.513 374.144C197.065 374.144 196.691 374 196.393 373.712C196.105 373.424 195.961 373.061 195.961 372.624C195.961 372.187 196.105 371.824 196.393 371.536C196.691 371.248 197.065 371.104 197.513 371.104C197.971 371.104 198.345 371.248 198.633 371.536C198.931 371.824 199.081 372.187 199.081 372.624C199.081 373.061 198.931 373.424 198.633 373.712C198.345 374 197.971 374.144 197.513 374.144ZM197.513 368.48C197.065 368.48 196.691 368.336 196.393 368.048C196.105 367.76 195.961 367.397 195.961 366.96C195.961 366.523 196.105 366.16 196.393 365.872C196.691 365.584 197.065 365.44 197.513 365.44C197.971 365.44 198.345 365.584 198.633 365.872C198.931 366.16 199.081 366.523 199.081 366.96C199.081 367.397 198.931 367.76 198.633 368.048C198.345 368.336 197.971 368.48 197.513 368.48Z" fill="white"/>
<path d="M242.4 371.944H247.52V373H241.28V361.8H242.4V371.944ZM252.734 364.808C253.918 364.808 254.872 365.229 255.598 366.072C256.334 366.904 256.702 367.891 256.702 369.032C256.702 369.149 256.691 369.315 256.67 369.528H249.646C249.752 370.339 250.094 370.984 250.67 371.464C251.256 371.933 251.976 372.168 252.83 372.168C253.438 372.168 253.96 372.045 254.398 371.8C254.846 371.544 255.182 371.213 255.406 370.808L256.334 371.352C255.982 371.917 255.502 372.365 254.894 372.696C254.286 373.027 253.592 373.192 252.814 373.192C251.555 373.192 250.531 372.797 249.742 372.008C248.952 371.219 248.558 370.216 248.558 369C248.558 367.805 248.947 366.808 249.726 366.008C250.504 365.208 251.507 364.808 252.734 364.808ZM252.734 365.832C251.902 365.832 251.203 366.083 250.638 366.584C250.083 367.075 249.752 367.715 249.646 368.504H255.614C255.507 367.661 255.182 367.005 254.638 366.536C254.094 366.067 253.459 365.832 252.734 365.832ZM263.149 364.808C264.291 364.808 265.261 365.213 266.061 366.024C266.872 366.835 267.277 367.827 267.277 369C267.277 370.173 266.872 371.165 266.061 371.976C265.261 372.787 264.291 373.192 263.149 373.192C261.731 373.192 260.653 372.605 259.917 371.432V373H258.861V361.8H259.917V366.568C260.653 365.395 261.731 364.808 263.149 364.808ZM260.829 371.256C261.437 371.864 262.184 372.168 263.069 372.168C263.955 372.168 264.701 371.864 265.309 371.256C265.917 370.637 266.221 369.885 266.221 369C266.221 368.115 265.917 367.368 265.309 366.76C264.701 366.141 263.955 365.832 263.069 365.832C262.184 365.832 261.437 366.141 260.829 366.76C260.221 367.368 259.917 368.115 259.917 369C259.917 369.885 260.221 370.637 260.829 371.256ZM276.393 365H277.449V373H276.393V371.432C275.657 372.605 274.58 373.192 273.161 373.192C272.02 373.192 271.044 372.787 270.233 371.976C269.433 371.165 269.033 370.173 269.033 369C269.033 367.827 269.433 366.835 270.233 366.024C271.044 365.213 272.02 364.808 273.161 364.808C274.58 364.808 275.657 365.395 276.393 366.568V365ZM271.001 371.256C271.609 371.864 272.356 372.168 273.241 372.168C274.126 372.168 274.873 371.864 275.481 371.256C276.089 370.637 276.393 369.885 276.393 369C276.393 368.115 276.089 367.368 275.481 366.76C274.873 366.141 274.126 365.832 273.241 365.832C272.356 365.832 271.609 366.141 271.001 366.76C270.393 367.368 270.089 368.115 270.089 369C270.089 369.885 270.393 370.637 271.001 371.256ZM283.909 364.808C284.88 364.808 285.642 365.107 286.197 365.704C286.762 366.291 287.045 367.085 287.045 368.088V373H285.989V368.088C285.989 367.373 285.797 366.819 285.413 366.424C285.04 366.029 284.506 365.832 283.813 365.832C283.045 365.832 282.421 366.077 281.941 366.568C281.461 367.048 281.221 367.795 281.221 368.808V373H280.165V365H281.221V366.248C281.818 365.288 282.714 364.808 283.909 364.808ZM296.271 371.992C295.46 372.792 294.468 373.192 293.295 373.192C292.122 373.192 291.124 372.792 290.303 371.992C289.492 371.181 289.087 370.184 289.087 369C289.087 367.816 289.492 366.824 290.303 366.024C291.124 365.213 292.122 364.808 293.295 364.808C294.468 364.808 295.46 365.213 296.271 366.024C297.092 366.824 297.503 367.816 297.503 369C297.503 370.184 297.092 371.181 296.271 371.992ZM291.055 371.256C291.663 371.864 292.41 372.168 293.295 372.168C294.18 372.168 294.927 371.864 295.535 371.256C296.143 370.637 296.447 369.885 296.447 369C296.447 368.115 296.143 367.368 295.535 366.76C294.927 366.141 294.18 365.832 293.295 365.832C292.41 365.832 291.663 366.141 291.055 366.76C290.447 367.368 290.143 368.115 290.143 369C290.143 369.885 290.447 370.637 291.055 371.256ZM303.494 364.808C304.465 364.808 305.227 365.107 305.782 365.704C306.347 366.291 306.63 367.085 306.63 368.088V373H305.574V368.088C305.574 367.373 305.382 366.819 304.998 366.424C304.625 366.029 304.091 365.832 303.398 365.832C302.63 365.832 302.006 366.077 301.526 366.568C301.046 367.048 300.806 367.795 300.806 368.808V373H299.75V365H300.806V366.248C301.403 365.288 302.299 364.808 303.494 364.808ZM320.992 361.8H322.112V373H320.992V367.768H314.912V373H313.792V361.8H314.912V366.712H320.992V361.8ZM331.867 365H332.923V373H331.867V371.432C331.131 372.605 330.054 373.192 328.635 373.192C327.494 373.192 326.518 372.787 325.707 371.976C324.907 371.165 324.507 370.173 324.507 369C324.507 367.827 324.907 366.835 325.707 366.024C326.518 365.213 327.494 364.808 328.635 364.808C330.054 364.808 331.131 365.395 331.867 366.568V365ZM326.475 371.256C327.083 371.864 327.83 372.168 328.715 372.168C329.6 372.168 330.347 371.864 330.955 371.256C331.563 370.637 331.867 369.885 331.867 369C331.867 368.115 331.563 367.368 330.955 366.76C330.347 366.141 329.6 365.832 328.715 365.832C327.83 365.832 327.083 366.141 326.475 366.76C325.867 367.368 325.563 368.115 325.563 369C325.563 369.885 325.867 370.637 326.475 371.256ZM339.383 364.808C340.353 364.808 341.116 365.107 341.671 365.704C342.236 366.291 342.519 367.085 342.519 368.088V373H341.463V368.088C341.463 367.373 341.271 366.819 340.887 366.424C340.513 366.029 339.98 365.832 339.287 365.832C338.519 365.832 337.895 366.077 337.415 366.568C336.935 367.048 336.695 367.795 336.695 368.808V373H335.639V365H336.695V366.248C337.292 365.288 338.188 364.808 339.383 364.808ZM351.745 371.992C350.934 372.792 349.942 373.192 348.769 373.192C347.595 373.192 346.598 372.792 345.777 371.992C344.966 371.181 344.561 370.184 344.561 369C344.561 367.816 344.966 366.824 345.777 366.024C346.598 365.213 347.595 364.808 348.769 364.808C349.942 364.808 350.934 365.213 351.745 366.024C352.566 366.824 352.977 367.816 352.977 369C352.977 370.184 352.566 371.181 351.745 371.992ZM346.529 371.256C347.137 371.864 347.883 372.168 348.769 372.168C349.654 372.168 350.401 371.864 351.009 371.256C351.617 370.637 351.921 369.885 351.921 369C351.921 368.115 351.617 367.368 351.009 366.76C350.401 366.141 349.654 365.832 348.769 365.832C347.883 365.832 347.137 366.141 346.529 366.76C345.921 367.368 345.617 368.115 345.617 369C345.617 369.885 345.921 370.637 346.529 371.256ZM360.671 365H361.791L358.511 373H357.231L353.951 365H355.071L357.871 371.896L360.671 365ZM366.931 364.808C368.115 364.808 369.07 365.229 369.795 366.072C370.531 366.904 370.899 367.891 370.899 369.032C370.899 369.149 370.888 369.315 370.867 369.528H363.843C363.95 370.339 364.291 370.984 364.867 371.464C365.454 371.933 366.174 372.168 367.027 372.168C367.635 372.168 368.158 372.045 368.595 371.8C369.043 371.544 369.379 371.213 369.603 370.808L370.531 371.352C370.179 371.917 369.699 372.365 369.091 372.696C368.483 373.027 367.79 373.192 367.011 373.192C365.752 373.192 364.728 372.797 363.939 372.008C363.15 371.219 362.755 370.216 362.755 369C362.755 367.805 363.144 366.808 363.923 366.008C364.702 365.208 365.704 364.808 366.931 364.808ZM366.931 365.832C366.099 365.832 365.4 366.083 364.835 366.584C364.28 367.075 363.95 367.715 363.843 368.504H369.811C369.704 367.661 369.379 367.005 368.835 366.536C368.291 366.067 367.656 365.832 366.931 365.832ZM374.115 366.328C374.605 365.357 375.448 364.872 376.643 364.872V365.896C375.917 365.896 375.315 366.109 374.835 366.536C374.355 366.963 374.115 367.635 374.115 368.552V373H373.059V365H374.115V366.328Z" fill="white"/>
</svg>
