<svg width="451" height="545" viewBox="0 0 451 545" fill="none" xmlns="http://www.w3.org/2000/svg">
<path d="M58.9372 7.19233L47.7992 12.6588C31.535 20.6411 20.8613 36.7972 19.8992 54.8891L0.640589 417.043C0.29245 423.59 1.23518 430.141 3.4151 436.324L29.9647 511.626C37.0157 531.624 55.9145 545 77.1196 545H226.02C228.664 545 231.304 544.79 233.915 544.373L375.43 521.743C400.09 517.799 418.059 496.264 417.523 471.297L411.097 172.163C410.949 165.265 412.23 158.41 414.861 152.031L426.416 124.004C438.589 94.479 420.339 61.2654 388.89 55.7088L89.6661 2.84043C79.2208 0.994906 68.4593 2.51898 58.9372 7.19233Z" fill="#C0B7EE"/>
<path d="M25.3453 146V134H28.0493V143.792L27.2813 143.248L34.7053 134H37.6013L27.7933 146H25.3453ZM31.0733 140.128L33.0253 138.384L37.7773 146H34.6733L31.0733 140.128ZM39.2107 136.8L40.5387 137.056L41.8827 136.8V146H39.2107V136.8ZM40.5387 135.856C40.0587 135.856 39.664 135.734 39.3547 135.488C39.056 135.232 38.9067 134.896 38.9067 134.48C38.9067 134.054 39.056 133.718 39.3547 133.472C39.664 133.216 40.0587 133.088 40.5387 133.088C41.0293 133.088 41.424 133.216 41.7227 133.472C42.0213 133.718 42.1707 134.054 42.1707 134.48C42.1707 134.896 42.0213 135.232 41.7227 135.488C41.424 135.734 41.0293 135.856 40.5387 135.856ZM45.9462 136.896H55.3542V146H52.6822V137.696L53.9142 138.912H47.2742L48.4262 137.92C48.4795 138.571 48.5222 139.174 48.5542 139.728C48.5968 140.272 48.6182 140.763 48.6182 141.2C48.6182 142.95 48.3568 144.219 47.8342 145.008C47.3222 145.798 46.4902 146.192 45.3382 146.192C45.0182 146.192 44.7088 146.155 44.4102 146.08C44.1222 146.016 43.8395 145.904 43.5622 145.744V143.808C43.7542 143.883 43.9408 143.942 44.1222 143.984C44.3142 144.016 44.4902 144.032 44.6502 144.032C45.1942 144.032 45.5835 143.787 45.8182 143.296C46.0635 142.795 46.1862 141.974 46.1862 140.832C46.1862 140.32 46.1648 139.734 46.1222 139.072C46.0902 138.411 46.0315 137.686 45.9462 136.896ZM57.8425 146V136.896H60.4985V145.312L59.6345 144.08H63.1865C63.6772 144.08 64.0559 143.963 64.3225 143.728C64.5892 143.483 64.7225 143.152 64.7225 142.736C64.7225 142.299 64.5892 141.963 64.3225 141.728C64.0559 141.483 63.6772 141.36 63.1865 141.36H59.6505V139.52H63.5865C64.3652 139.52 65.0372 139.659 65.6025 139.936C66.1785 140.203 66.6265 140.582 66.9465 141.072C67.2665 141.552 67.4265 142.118 67.4265 142.768C67.4265 143.408 67.2665 143.974 66.9465 144.464C66.6265 144.955 66.1839 145.334 65.6185 145.6C65.0532 145.867 64.3865 146 63.6185 146H57.8425ZM69.2132 146V136.896H71.8852V143.84L71.1012 143.568L76.5252 136.896H79.4372L71.6132 146H69.2132ZM76.6532 146L73.9332 141.536L75.9012 140.016L79.7092 146H76.6532ZM81.0994 136.8L82.4274 137.056L83.7714 136.8V146H81.0994V136.8ZM82.4274 135.856C81.9474 135.856 81.5527 135.734 81.2434 135.488C80.9447 135.232 80.7954 134.896 80.7954 134.48C80.7954 134.054 80.9447 133.718 81.2434 133.472C81.5527 133.216 81.9474 133.088 82.4274 133.088C82.9181 133.088 83.3127 133.216 83.6114 133.472C83.9101 133.718 84.0594 134.054 84.0594 134.48C84.0594 134.896 83.9101 135.232 83.6114 135.488C83.3127 135.734 82.9181 135.856 82.4274 135.856ZM96.7149 142.288C96.6082 143.067 96.3042 143.755 95.8029 144.352C95.3122 144.95 94.6776 145.414 93.8989 145.744C93.1202 146.075 92.2509 146.24 91.2909 146.24C90.2029 146.24 89.2429 146.043 88.4109 145.648C87.5896 145.243 86.9442 144.678 86.4749 143.952C86.0162 143.227 85.7869 142.395 85.7869 141.456C85.7869 140.507 86.0162 139.675 86.4749 138.96C86.9442 138.235 87.5896 137.67 88.4109 137.264C89.2429 136.859 90.2029 136.656 91.2909 136.656C92.2509 136.656 93.1202 136.827 93.8989 137.168C94.6776 137.499 95.3122 137.963 95.8029 138.56C96.3042 139.147 96.6082 139.835 96.7149 140.624H94.0429C93.9042 140.006 93.5842 139.531 93.0829 139.2C92.5922 138.859 91.9949 138.688 91.2909 138.688C90.7256 138.688 90.2296 138.8 89.8029 139.024C89.3869 139.238 89.0669 139.552 88.8429 139.968C88.6189 140.374 88.5069 140.87 88.5069 141.456C88.5069 142.032 88.6189 142.528 88.8429 142.944C89.0669 143.35 89.3869 143.664 89.8029 143.888C90.2296 144.102 90.7256 144.208 91.2909 144.208C92.0056 144.208 92.6082 144.032 93.0989 143.68C93.6002 143.328 93.9149 142.864 94.0429 142.288H96.7149ZM101.126 137.824H103.798V146H101.126V137.824ZM97.5098 136.896H107.414V138.944H97.5098V136.896ZM109.118 146V136.896H111.774V145.312L110.91 144.08H114.462C114.952 144.08 115.331 143.963 115.598 143.728C115.864 143.483 115.998 143.152 115.998 142.736C115.998 142.299 115.864 141.963 115.598 141.728C115.331 141.483 114.952 141.36 114.462 141.36H110.926V139.52H114.862C115.64 139.52 116.312 139.659 116.878 139.936C117.454 140.203 117.902 140.582 118.222 141.072C118.542 141.552 118.702 142.118 118.702 142.768C118.702 143.408 118.542 143.974 118.222 144.464C117.902 144.955 117.459 145.334 116.894 145.6C116.328 145.867 115.662 146 114.894 146H109.118ZM25.1213 156.896H27.7933V159.792L27.6813 160.144V162.336L27.7933 162.992V168.64H25.1213V156.896ZM26.8653 161.456C27.0466 160.486 27.3613 159.643 27.8093 158.928C28.2679 158.203 28.8386 157.643 29.5213 157.248C30.2146 156.854 30.9826 156.656 31.8253 156.656C32.7213 156.656 33.5053 156.859 34.1773 157.264C34.8599 157.659 35.3933 158.219 35.7773 158.944C36.1613 159.659 36.3533 160.496 36.3533 161.456C36.3533 162.406 36.1613 163.243 35.7773 163.968C35.3933 164.683 34.8599 165.243 34.1773 165.648C33.5053 166.043 32.7213 166.24 31.8253 166.24C30.9719 166.24 30.2039 166.043 29.5213 165.648C28.8493 165.254 28.2839 164.699 27.8253 163.984C27.3666 163.259 27.0466 162.416 26.8653 161.456ZM33.6493 161.456C33.6493 160.923 33.5373 160.454 33.3133 160.048C33.0999 159.632 32.8013 159.312 32.4173 159.088C32.0333 158.854 31.5906 158.736 31.0893 158.736C30.5879 158.736 30.1133 158.854 29.6653 159.088C29.2173 159.312 28.8226 159.632 28.4813 160.048C28.1506 160.454 27.8893 160.923 27.6973 161.456C27.8893 161.99 28.1506 162.459 28.4813 162.864C28.8226 163.27 29.2173 163.59 29.6653 163.824C30.1133 164.048 30.5879 164.16 31.0893 164.16C31.5906 164.16 32.0333 164.048 32.4173 163.824C32.8013 163.59 33.0999 163.27 33.3133 162.864C33.5373 162.459 33.6493 161.99 33.6493 161.456ZM43.5342 166.24C42.4568 166.24 41.4915 166.043 40.6382 165.648C39.7955 165.243 39.1288 164.678 38.6382 163.952C38.1582 163.227 37.9182 162.384 37.9182 161.424C37.9182 160.475 38.1475 159.643 38.6062 158.928C39.0755 158.214 39.7155 157.659 40.5262 157.264C41.3368 156.859 42.2595 156.656 43.2942 156.656C44.3502 156.656 45.2568 156.891 46.0142 157.36C46.7715 157.819 47.3528 158.47 47.7582 159.312C48.1742 160.155 48.3822 161.147 48.3822 162.288H40.0622V160.512H46.9422L45.9022 161.152C45.8595 160.619 45.7262 160.166 45.5022 159.792C45.2888 159.419 44.9955 159.131 44.6222 158.928C44.2488 158.726 43.8115 158.624 43.3102 158.624C42.7662 158.624 42.2915 158.736 41.8862 158.96C41.4915 159.174 41.1822 159.478 40.9582 159.872C40.7448 160.256 40.6382 160.71 40.6382 161.232C40.6382 161.862 40.7768 162.4 41.0542 162.848C41.3315 163.296 41.7368 163.638 42.2702 163.872C42.8035 164.107 43.4488 164.224 44.2062 164.224C44.8888 164.224 45.5768 164.128 46.2702 163.936C46.9635 163.734 47.5875 163.451 48.1422 163.088V164.88C47.5448 165.307 46.8462 165.643 46.0462 165.888C45.2568 166.123 44.4195 166.24 43.5342 166.24ZM58.761 166L58.377 162.672L58.809 161.456L58.377 160.256L58.761 156.896H61.529L61.001 161.456L61.529 166H58.761ZM59.465 161.456C59.2944 162.416 58.9797 163.259 58.521 163.984C58.073 164.699 57.5024 165.254 56.809 165.648C56.1264 166.043 55.3584 166.24 54.505 166.24C53.6197 166.24 52.8357 166.043 52.153 165.648C51.4704 165.243 50.937 164.683 50.553 163.968C50.1797 163.243 49.993 162.406 49.993 161.456C49.993 160.496 50.1797 159.659 50.553 158.944C50.937 158.219 51.4704 157.659 52.153 157.264C52.8357 156.859 53.6197 156.656 54.505 156.656C55.3584 156.656 56.1264 156.854 56.809 157.248C57.5024 157.643 58.0784 158.203 58.537 158.928C58.9957 159.643 59.305 160.486 59.465 161.456ZM52.697 161.456C52.697 161.99 52.8037 162.459 53.017 162.864C53.241 163.27 53.545 163.59 53.929 163.824C54.313 164.048 54.7557 164.16 55.257 164.16C55.7584 164.16 56.2277 164.048 56.665 163.824C57.113 163.59 57.5077 163.27 57.849 162.864C58.1904 162.459 58.457 161.99 58.649 161.456C58.457 160.923 58.1904 160.454 57.849 160.048C57.5077 159.632 57.113 159.312 56.665 159.088C56.2277 158.854 55.7584 158.736 55.257 158.736C54.7557 158.736 54.313 158.854 53.929 159.088C53.545 159.312 53.241 159.632 53.017 160.048C52.8037 160.454 52.697 160.923 52.697 161.456ZM65.3637 156.896H74.7717V166H72.0997V157.696L73.3317 158.912H66.6917L67.8437 157.92C67.897 158.571 67.9397 159.174 67.9717 159.728C68.0143 160.272 68.0357 160.763 68.0357 161.2C68.0357 162.95 67.7743 164.219 67.2517 165.008C66.7397 165.798 65.9077 166.192 64.7557 166.192C64.4357 166.192 64.1263 166.155 63.8277 166.08C63.5397 166.016 63.257 165.904 62.9797 165.744V163.808C63.1717 163.883 63.3583 163.942 63.5397 163.984C63.7317 164.016 63.9077 164.032 64.0677 164.032C64.6117 164.032 65.001 163.787 65.2357 163.296C65.481 162.795 65.6037 161.974 65.6037 160.832C65.6037 160.32 65.5823 159.734 65.5397 159.072C65.5077 158.411 65.449 157.686 65.3637 156.896ZM77.26 156.8L78.588 157.056L79.932 156.8V166H77.26V156.8ZM78.588 155.856C78.108 155.856 77.7134 155.734 77.404 155.488C77.1054 155.232 76.956 154.896 76.956 154.48C76.956 154.054 77.1054 153.718 77.404 153.472C77.7134 153.216 78.108 153.088 78.588 153.088C79.0787 153.088 79.4734 153.216 79.772 153.472C80.0707 153.718 80.22 154.054 80.22 154.48C80.22 154.896 80.0707 155.232 79.772 155.488C79.4734 155.734 79.0787 155.856 78.588 155.856ZM86.9235 166.24C85.9102 166.24 85.0249 166.112 84.2675 165.856C83.5102 165.59 82.9182 165.211 82.4915 164.72C82.0649 164.219 81.8302 163.632 81.7875 162.96H84.3795C84.4542 163.408 84.7102 163.75 85.1475 163.984C85.5849 164.219 86.1769 164.336 86.9235 164.336C87.6382 164.336 88.1929 164.246 88.5875 164.064C88.9929 163.872 89.1955 163.579 89.1955 163.184C89.1955 162.864 89.0249 162.63 88.6835 162.48C88.3529 162.32 87.8195 162.24 87.0835 162.24H85.3875V160.64H87.0355C87.6969 160.64 88.1822 160.544 88.4915 160.352C88.8115 160.16 88.9715 159.92 88.9715 159.632C88.9715 159.28 88.7849 159.014 88.4115 158.832C88.0489 158.651 87.5582 158.56 86.9395 158.56C86.2569 158.56 85.7075 158.667 85.2915 158.88C84.8755 159.094 84.6302 159.414 84.5555 159.84H81.9795C82.0222 159.254 82.2462 158.72 82.6515 158.24C83.0569 157.76 83.6275 157.376 84.3635 157.088C85.1102 156.8 86.0062 156.656 87.0515 156.656C87.9795 156.656 88.7902 156.768 89.4835 156.992C90.1769 157.216 90.7155 157.526 91.0995 157.92C91.4835 158.315 91.6755 158.768 91.6755 159.28C91.6755 159.686 91.5475 160.059 91.2915 160.4C91.0462 160.742 90.6462 161.014 90.0915 161.216C89.5475 161.419 88.8329 161.52 87.9475 161.52V161.248C89.2169 161.195 90.1929 161.35 90.8755 161.712C91.5689 162.075 91.9155 162.63 91.9155 163.376C91.9155 163.92 91.7182 164.411 91.3235 164.848C90.9395 165.286 90.3742 165.627 89.6275 165.872C88.8809 166.118 87.9795 166.24 86.9235 166.24ZM99.186 166.24C98.0554 166.24 97.0634 166.043 96.21 165.648C95.3567 165.243 94.69 164.683 94.21 163.968C93.73 163.243 93.49 162.406 93.49 161.456C93.49 160.496 93.73 159.659 94.21 158.944C94.69 158.219 95.3567 157.659 96.21 157.264C97.0634 156.859 98.0554 156.656 99.186 156.656C100.317 156.656 101.309 156.859 102.162 157.264C103.015 157.659 103.677 158.219 104.146 158.944C104.626 159.659 104.866 160.496 104.866 161.456C104.866 162.406 104.626 163.243 104.146 163.968C103.677 164.683 103.015 165.243 102.162 165.648C101.309 166.043 100.317 166.24 99.186 166.24ZM99.186 164.208C99.8047 164.208 100.333 164.096 100.77 163.872C101.218 163.648 101.559 163.334 101.794 162.928C102.039 162.512 102.162 162.022 102.162 161.456C102.162 160.88 102.039 160.39 101.794 159.984C101.559 159.568 101.218 159.248 100.77 159.024C100.333 158.8 99.8047 158.688 99.186 158.688C98.578 158.688 98.05 158.8 97.602 159.024C97.154 159.248 96.8074 159.568 96.562 159.984C96.3274 160.39 96.21 160.88 96.21 161.456C96.21 162.022 96.3274 162.512 96.562 162.928C96.8074 163.334 97.154 163.648 97.602 163.872C98.05 164.096 98.578 164.208 99.186 164.208ZM106.648 166L107.16 161.456L106.648 156.896H113.656C114.531 156.896 115.224 157.104 115.736 157.52C116.248 157.926 116.504 158.48 116.504 159.184C116.504 159.846 116.248 160.384 115.736 160.8C115.224 161.206 114.509 161.446 113.592 161.52L113.784 161.072C114.851 161.104 115.661 161.328 116.216 161.744C116.781 162.15 117.064 162.72 117.064 163.456C117.064 164.246 116.776 164.87 116.2 165.328C115.635 165.776 114.856 166 113.864 166H106.648ZM109.224 165.408L108.2 164.272H113.048C113.507 164.272 113.843 164.182 114.056 164C114.269 163.808 114.376 163.542 114.376 163.2C114.376 162.891 114.259 162.64 114.024 162.448C113.789 162.246 113.405 162.144 112.872 162.144H108.744V160.624H112.52C112.968 160.624 113.293 160.534 113.496 160.352C113.709 160.171 113.816 159.926 113.816 159.616C113.816 159.328 113.72 159.094 113.528 158.912C113.347 158.731 113.048 158.64 112.632 158.64H108.216L109.224 157.504L109.72 161.456L109.224 165.408ZM127.407 166L127.023 162.672L127.455 161.456L127.023 160.256L127.407 156.896H130.175L129.647 161.456L130.175 166H127.407ZM128.111 161.456C127.94 162.416 127.625 163.259 127.167 163.984C126.719 164.699 126.148 165.254 125.455 165.648C124.772 166.043 124.004 166.24 123.151 166.24C122.265 166.24 121.481 166.043 120.799 165.648C120.116 165.243 119.583 164.683 119.199 163.968C118.825 163.243 118.639 162.406 118.639 161.456C118.639 160.496 118.825 159.659 119.199 158.944C119.583 158.219 120.116 157.659 120.799 157.264C121.481 156.859 122.265 156.656 123.151 156.656C124.004 156.656 124.772 156.854 125.455 157.248C126.148 157.643 126.724 158.203 127.183 158.928C127.641 159.643 127.951 160.486 128.111 161.456ZM121.343 161.456C121.343 161.99 121.449 162.459 121.663 162.864C121.887 163.27 122.191 163.59 122.575 163.824C122.959 164.048 123.401 164.16 123.903 164.16C124.404 164.16 124.873 164.048 125.311 163.824C125.759 163.59 126.153 163.27 126.495 162.864C126.836 162.459 127.103 161.99 127.295 161.456C127.103 160.923 126.836 160.454 126.495 160.048C126.153 159.632 125.759 159.312 125.311 159.088C124.873 158.854 124.404 158.736 123.903 158.736C123.401 158.736 122.959 158.854 122.575 159.088C122.191 159.312 121.887 159.632 121.663 160.048C121.449 160.454 121.343 160.923 121.343 161.456ZM132.441 156.896H135.097V166H132.441V156.896ZM140.073 156.896H142.729V166H140.073V156.896ZM133.961 160.352H141.113V162.368H133.961V160.352ZM145.218 166V156.896H147.842V164.592L147.186 164.416L152.674 156.896H156.114V166H153.49V158.16L154.146 158.352L148.562 166H145.218ZM157.452 166L161.756 160.848L161.74 161.84L157.708 156.896H160.7L163.548 160.32H162.62L165.484 156.896H168.428L164.268 161.888L164.14 160.64L168.668 166H165.628L162.524 162.32H163.5L160.428 166H157.452ZM35.3453 176.896V186H32.6733V177.696L33.9053 178.912H26.5613L27.7933 177.696V186H25.1213V176.896H35.3453ZM37.8357 176.896H40.5077V179.792L40.3957 180.144V182.336L40.5077 182.992V188.64H37.8357V176.896ZM39.5797 181.456C39.761 180.486 40.0757 179.643 40.5237 178.928C40.9823 178.203 41.553 177.643 42.2357 177.248C42.929 176.854 43.697 176.656 44.5397 176.656C45.4357 176.656 46.2197 176.859 46.8917 177.264C47.5743 177.659 48.1077 178.219 48.4917 178.944C48.8757 179.659 49.0677 180.496 49.0677 181.456C49.0677 182.406 48.8757 183.243 48.4917 183.968C48.1077 184.683 47.5743 185.243 46.8917 185.648C46.2197 186.043 45.4357 186.24 44.5397 186.24C43.6863 186.24 42.9183 186.043 42.2357 185.648C41.5637 185.254 40.9983 184.699 40.5397 183.984C40.081 183.259 39.761 182.416 39.5797 181.456ZM46.3637 181.456C46.3637 180.923 46.2517 180.454 46.0277 180.048C45.8143 179.632 45.5157 179.312 45.1317 179.088C44.7477 178.854 44.305 178.736 43.8037 178.736C43.3023 178.736 42.8277 178.854 42.3797 179.088C41.9317 179.312 41.537 179.632 41.1957 180.048C40.865 180.454 40.6037 180.923 40.4117 181.456C40.6037 181.99 40.865 182.459 41.1957 182.864C41.537 183.27 41.9317 183.59 42.3797 183.824C42.8277 184.048 43.3023 184.16 43.8037 184.16C44.305 184.16 44.7477 184.048 45.1317 183.824C45.5157 183.59 45.8143 183.27 46.0277 182.864C46.2517 182.459 46.3637 181.99 46.3637 181.456ZM56.3285 186.24C55.1979 186.24 54.2059 186.043 53.3525 185.648C52.4992 185.243 51.8325 184.683 51.3525 183.968C50.8725 183.243 50.6325 182.406 50.6325 181.456C50.6325 180.496 50.8725 179.659 51.3525 178.944C51.8325 178.219 52.4992 177.659 53.3525 177.264C54.2059 176.859 55.1979 176.656 56.3285 176.656C57.4592 176.656 58.4512 176.859 59.3045 177.264C60.1579 177.659 60.8192 178.219 61.2885 178.944C61.7685 179.659 62.0085 180.496 62.0085 181.456C62.0085 182.406 61.7685 183.243 61.2885 183.968C60.8192 184.683 60.1579 185.243 59.3045 185.648C58.4512 186.043 57.4592 186.24 56.3285 186.24ZM56.3285 184.208C56.9472 184.208 57.4752 184.096 57.9125 183.872C58.3605 183.648 58.7019 183.334 58.9365 182.928C59.1819 182.512 59.3045 182.022 59.3045 181.456C59.3045 180.88 59.1819 180.39 58.9365 179.984C58.7019 179.568 58.3605 179.248 57.9125 179.024C57.4752 178.8 56.9472 178.688 56.3285 178.688C55.7205 178.688 55.1925 178.8 54.7445 179.024C54.2965 179.248 53.9499 179.568 53.7045 179.984C53.4699 180.39 53.3525 180.88 53.3525 181.456C53.3525 182.022 53.4699 182.512 53.7045 182.928C53.9499 183.334 54.2965 183.648 54.7445 183.872C55.1925 184.096 55.7205 184.208 56.3285 184.208ZM69.1817 186.24C68.1043 186.24 67.139 186.043 66.2857 185.648C65.443 185.243 64.7763 184.678 64.2857 183.952C63.8057 183.227 63.5657 182.384 63.5657 181.424C63.5657 180.475 63.795 179.643 64.2537 178.928C64.723 178.214 65.363 177.659 66.1737 177.264C66.9843 176.859 67.907 176.656 68.9417 176.656C69.9977 176.656 70.9043 176.891 71.6617 177.36C72.419 177.819 73.0003 178.47 73.4057 179.312C73.8217 180.155 74.0297 181.147 74.0297 182.288H65.7097V180.512H72.5897L71.5497 181.152C71.507 180.619 71.3737 180.166 71.1497 179.792C70.9363 179.419 70.643 179.131 70.2697 178.928C69.8963 178.726 69.459 178.624 68.9577 178.624C68.4137 178.624 67.939 178.736 67.5337 178.96C67.139 179.174 66.8297 179.478 66.6057 179.872C66.3923 180.256 66.2857 180.71 66.2857 181.232C66.2857 181.862 66.4243 182.4 66.7017 182.848C66.979 183.296 67.3843 183.638 67.9177 183.872C68.451 184.107 69.0963 184.224 69.8537 184.224C70.5363 184.224 71.2243 184.128 71.9177 183.936C72.611 183.734 73.235 183.451 73.7897 183.088V184.88C73.1923 185.307 72.4937 185.643 71.6937 185.888C70.9043 186.123 70.067 186.24 69.1817 186.24ZM76.0725 186V176.896H78.7445V183.84L77.9605 183.568L83.3845 176.896H86.2965L78.4725 186H76.0725ZM83.5125 186L80.7925 181.536L82.7605 180.016L86.5685 186H83.5125ZM90.7908 177.824H93.4628V186H90.7908V177.824ZM87.1748 176.896H97.0788V178.944H87.1748V176.896ZM98.7825 176.8L100.111 177.056L101.455 176.8V186H98.7825V176.8ZM100.111 175.856C99.6305 175.856 99.2359 175.734 98.9265 175.488C98.6279 175.232 98.4785 174.896 98.4785 174.48C98.4785 174.054 98.6279 173.718 98.9265 173.472C99.2359 173.216 99.6305 173.088 100.111 173.088C100.601 173.088 100.996 173.216 101.295 173.472C101.593 173.718 101.743 174.054 101.743 174.48C101.743 174.896 101.593 175.232 101.295 175.488C100.996 175.734 100.601 175.856 100.111 175.856ZM103.726 186L104.238 181.456L103.726 176.896H110.734C111.609 176.896 112.302 177.104 112.814 177.52C113.326 177.926 113.582 178.48 113.582 179.184C113.582 179.846 113.326 180.384 112.814 180.8C112.302 181.206 111.587 181.446 110.67 181.52L110.862 181.072C111.929 181.104 112.739 181.328 113.294 181.744C113.859 182.15 114.142 182.72 114.142 183.456C114.142 184.246 113.854 184.87 113.278 185.328C112.713 185.776 111.934 186 110.942 186H103.726ZM106.302 185.408L105.278 184.272H110.126C110.585 184.272 110.921 184.182 111.134 184C111.347 183.808 111.454 183.542 111.454 183.2C111.454 182.891 111.337 182.64 111.102 182.448C110.867 182.246 110.483 182.144 109.95 182.144H105.822V180.624H109.598C110.046 180.624 110.371 180.534 110.574 180.352C110.787 180.171 110.894 179.926 110.894 179.616C110.894 179.328 110.798 179.094 110.606 178.912C110.425 178.731 110.126 178.64 109.71 178.64H105.294L106.302 177.504L106.798 181.456L106.302 185.408ZM24.8973 206L25.4093 201.456L24.8973 196.896H31.9053C32.7799 196.896 33.4733 197.104 33.9853 197.52C34.4973 197.926 34.7533 198.48 34.7533 199.184C34.7533 199.846 34.4973 200.384 33.9853 200.8C33.4733 201.206 32.7586 201.446 31.8413 201.52L32.0333 201.072C33.0999 201.104 33.9106 201.328 34.4653 201.744C35.0306 202.15 35.3133 202.72 35.3133 203.456C35.3133 204.246 35.0253 204.87 34.4493 205.328C33.8839 205.776 33.1053 206 32.1133 206H24.8973ZM27.4733 205.408L26.4493 204.272H31.2973C31.7559 204.272 32.0919 204.182 32.3053 204C32.5186 203.808 32.6253 203.542 32.6253 203.2C32.6253 202.891 32.5079 202.64 32.2733 202.448C32.0386 202.246 31.6546 202.144 31.1213 202.144H26.9933V200.624H30.7693C31.2173 200.624 31.5426 200.534 31.7453 200.352C31.9586 200.171 32.0653 199.926 32.0653 199.616C32.0653 199.328 31.9693 199.094 31.7773 198.912C31.5959 198.731 31.2973 198.64 30.8813 198.64H26.4653L27.4733 197.504L27.9693 201.456L27.4733 205.408ZM41.4778 202.08H44.2298C44.2938 202.486 44.4698 202.843 44.7578 203.152C45.0564 203.451 45.4511 203.686 45.9418 203.856C46.4431 204.016 47.0191 204.096 47.6698 204.096C48.6191 204.096 49.3658 203.963 49.9098 203.696C50.4644 203.419 50.7418 203.035 50.7418 202.544C50.7418 202.16 50.5818 201.867 50.2618 201.664C49.9524 201.451 49.3711 201.296 48.5178 201.2L46.1018 200.928C44.5444 200.758 43.4138 200.395 42.7098 199.84C42.0164 199.275 41.6698 198.491 41.6698 197.488C41.6698 196.699 41.8991 196.027 42.3578 195.472C42.8271 194.918 43.4831 194.496 44.3258 194.208C45.1684 193.91 46.1604 193.76 47.3018 193.76C48.4111 193.76 49.3978 193.926 50.2618 194.256C51.1258 194.576 51.8138 195.03 52.3258 195.616C52.8378 196.192 53.1151 196.87 53.1578 197.648H50.4058C50.3524 197.296 50.1924 196.992 49.9258 196.736C49.6698 196.47 49.3124 196.267 48.8538 196.128C48.3951 195.979 47.8564 195.904 47.2378 195.904C46.3738 195.904 45.6858 196.032 45.1738 196.288C44.6618 196.544 44.4058 196.907 44.4058 197.376C44.4058 197.739 44.5551 198.022 44.8538 198.224C45.1631 198.416 45.7018 198.56 46.4698 198.656L48.9818 198.96C50.0911 199.078 50.9711 199.27 51.6218 199.536C52.2831 199.792 52.7524 200.139 53.0298 200.576C53.3178 201.014 53.4618 201.568 53.4618 202.24C53.4618 203.04 53.2164 203.744 52.7258 204.352C52.2458 204.95 51.5684 205.414 50.6938 205.744C49.8191 206.075 48.7951 206.24 47.6218 206.24C46.4271 206.24 45.3764 206.07 44.4698 205.728C43.5631 205.376 42.8484 204.891 42.3258 204.272C41.8031 203.643 41.5204 202.912 41.4778 202.08ZM59.3704 206.24C58.5277 206.24 57.8077 206.07 57.2104 205.728C56.6237 205.376 56.1704 204.88 55.8504 204.24C55.5411 203.6 55.3864 202.843 55.3864 201.968V196.896H58.0584V201.568C58.0584 202.379 58.2504 202.998 58.6344 203.424C59.0184 203.84 59.5624 204.048 60.2664 204.048C60.7891 204.048 61.2317 203.942 61.5944 203.728C61.9677 203.504 62.2557 203.184 62.4584 202.768C62.6611 202.352 62.7624 201.867 62.7624 201.312L63.6264 201.776C63.5197 202.715 63.2691 203.52 62.8744 204.192C62.4797 204.854 61.9784 205.36 61.3704 205.712C60.7731 206.064 60.1064 206.24 59.3704 206.24ZM63.3224 206L62.7624 202.544V196.896H65.4344V202.944L65.9944 206H63.3224ZM68.0569 193.68H70.7289V199.792L70.3609 200.512V202.496L70.7289 203.232V206H68.0569V193.68ZM69.7849 201.456C69.9556 200.486 70.2702 199.643 70.7289 198.928C71.1876 198.203 71.7582 197.643 72.4409 197.248C73.1236 196.854 73.8916 196.656 74.7449 196.656C75.6302 196.656 76.4142 196.859 77.0969 197.264C77.7796 197.659 78.3129 198.219 78.6969 198.944C79.0809 199.659 79.2729 200.496 79.2729 201.456C79.2729 202.406 79.0809 203.243 78.6969 203.968C78.3129 204.683 77.7796 205.243 77.0969 205.648C76.4142 206.043 75.6302 206.24 74.7449 206.24C73.8916 206.24 73.1236 206.043 72.4409 205.648C71.7582 205.254 71.1876 204.699 70.7289 203.984C70.2809 203.259 69.9662 202.416 69.7849 201.456ZM76.5529 201.456C76.5529 200.923 76.4409 200.454 76.2169 200.048C76.0036 199.632 75.7049 199.312 75.3209 199.088C74.9369 198.854 74.4996 198.736 74.0089 198.736C73.5076 198.736 73.0329 198.854 72.5849 199.088C72.1369 199.312 71.7422 199.632 71.4009 200.048C71.0702 200.454 70.8089 200.923 70.6169 201.456C70.8089 201.99 71.0702 202.459 71.4009 202.864C71.7422 203.27 72.1369 203.59 72.5849 203.824C73.0329 204.048 73.5076 204.16 74.0089 204.16C74.4996 204.16 74.9369 204.048 75.3209 203.824C75.7049 203.59 76.0036 203.27 76.2169 202.864C76.4409 202.459 76.5529 201.99 76.5529 201.456ZM80.8549 196.896H83.5269L84.1029 200.368V206H81.4309V199.968L80.8549 196.896ZM87.3509 196.656C88.1616 196.656 88.8549 196.832 89.4309 197.184C90.0069 197.526 90.4442 198.016 90.7429 198.656C91.0522 199.296 91.2069 200.059 91.2069 200.944V206H88.5349V201.344C88.5349 200.523 88.3536 199.904 87.9909 199.488C87.6389 199.062 87.1216 198.848 86.4389 198.848C85.9589 198.848 85.5429 198.966 85.1909 199.2C84.8389 199.424 84.5669 199.739 84.3749 200.144C84.1936 200.55 84.1029 201.035 84.1029 201.6L83.2229 201.136C83.3296 200.176 83.5749 199.366 83.9589 198.704C84.3429 198.043 84.8229 197.536 85.3989 197.184C85.9856 196.832 86.6362 196.656 87.3509 196.656ZM94.4389 196.656C95.2496 196.656 95.9429 196.832 96.5189 197.184C97.1056 197.526 97.5482 198.016 97.8469 198.656C98.1562 199.296 98.3109 200.059 98.3109 200.944V206H95.6389V201.344C95.6389 200.523 95.4576 199.904 95.0949 199.488C94.7429 199.062 94.2256 198.848 93.5429 198.848C93.0629 198.848 92.6469 198.966 92.2949 199.2C91.9429 199.424 91.6709 199.739 91.4789 200.144C91.2976 200.55 91.2069 201.035 91.2069 201.6L90.3269 201.136C90.4336 200.176 90.6789 199.366 91.0629 198.704C91.4469 198.043 91.9269 197.536 92.5029 197.184C93.0896 196.832 93.7349 196.656 94.4389 196.656ZM109.009 206L108.625 202.672L109.057 201.456L108.625 200.256L109.009 196.896H111.777L111.249 201.456L111.777 206H109.009ZM109.713 201.456C109.542 202.416 109.228 203.259 108.769 203.984C108.321 204.699 107.75 205.254 107.057 205.648C106.374 206.043 105.606 206.24 104.753 206.24C103.868 206.24 103.084 206.043 102.401 205.648C101.718 205.243 101.185 204.683 100.801 203.968C100.428 203.243 100.241 202.406 100.241 201.456C100.241 200.496 100.428 199.659 100.801 198.944C101.185 198.219 101.718 197.659 102.401 197.264C103.084 196.859 103.868 196.656 104.753 196.656C105.606 196.656 106.374 196.854 107.057 197.248C107.75 197.643 108.326 198.203 108.785 198.928C109.244 199.643 109.553 200.486 109.713 201.456ZM102.945 201.456C102.945 201.99 103.052 202.459 103.265 202.864C103.489 203.27 103.793 203.59 104.177 203.824C104.561 204.048 105.004 204.16 105.505 204.16C106.006 204.16 106.476 204.048 106.913 203.824C107.361 203.59 107.756 203.27 108.097 202.864C108.438 202.459 108.705 201.99 108.897 201.456C108.705 200.923 108.438 200.454 108.097 200.048C107.756 199.632 107.361 199.312 106.913 199.088C106.476 198.854 106.006 198.736 105.505 198.736C105.004 198.736 104.561 198.854 104.177 199.088C103.793 199.312 103.489 199.632 103.265 200.048C103.052 200.454 102.945 200.923 102.945 201.456ZM113.612 196.896H116.316L116.86 200.176V206H114.188V199.888L113.612 196.896ZM121.292 196.8V199.104C121.014 199.04 120.737 198.992 120.46 198.96C120.182 198.928 119.921 198.912 119.676 198.912C119.142 198.912 118.662 199.024 118.236 199.248C117.809 199.472 117.473 199.819 117.228 200.288C116.982 200.758 116.86 201.35 116.86 202.064L116.3 201.392C116.364 200.742 116.481 200.134 116.652 199.568C116.822 198.992 117.057 198.491 117.356 198.064C117.665 197.627 118.044 197.286 118.492 197.04C118.94 196.784 119.473 196.656 120.092 196.656C120.294 196.656 120.497 196.672 120.7 196.704C120.913 196.726 121.11 196.758 121.292 196.8ZM123.008 196.8L124.336 197.056L125.68 196.8V206H123.008V196.8ZM124.336 195.856C123.856 195.856 123.461 195.734 123.152 195.488C122.853 195.232 122.704 194.896 122.704 194.48C122.704 194.054 122.853 193.718 123.152 193.472C123.461 193.216 123.856 193.088 124.336 193.088C124.827 193.088 125.221 193.216 125.52 193.472C125.819 193.718 125.968 194.054 125.968 194.48C125.968 194.896 125.819 195.232 125.52 195.488C125.221 195.734 124.827 195.856 124.336 195.856ZM127.744 196.896H130.416L130.992 200.368V206H128.32V199.968L127.744 196.896ZM134.464 196.656C135.328 196.656 136.064 196.832 136.672 197.184C137.28 197.526 137.744 198.016 138.064 198.656C138.384 199.296 138.544 200.059 138.544 200.944V206H135.872V201.344C135.872 200.523 135.674 199.904 135.28 199.488C134.885 199.062 134.309 198.848 133.552 198.848C133.04 198.848 132.586 198.966 132.192 199.2C131.808 199.424 131.509 199.739 131.296 200.144C131.093 200.55 130.992 201.035 130.992 201.6L130.112 201.136C130.218 200.176 130.474 199.366 130.88 198.704C131.285 198.043 131.797 197.536 132.416 197.184C133.034 196.832 133.717 196.656 134.464 196.656ZM146.042 206.24C144.964 206.24 143.999 206.043 143.146 205.648C142.303 205.243 141.636 204.678 141.146 203.952C140.666 203.227 140.426 202.384 140.426 201.424C140.426 200.475 140.655 199.643 141.114 198.928C141.583 198.214 142.223 197.659 143.034 197.264C143.844 196.859 144.767 196.656 145.802 196.656C146.858 196.656 147.764 196.891 148.522 197.36C149.279 197.819 149.86 198.47 150.266 199.312C150.682 200.155 150.89 201.147 150.89 202.288H142.57V200.512H149.45L148.41 201.152C148.367 200.619 148.234 200.166 148.01 199.792C147.796 199.419 147.503 199.131 147.13 198.928C146.756 198.726 146.319 198.624 145.818 198.624C145.274 198.624 144.799 198.736 144.394 198.96C143.999 199.174 143.69 199.478 143.466 199.872C143.252 200.256 143.146 200.71 143.146 201.232C143.146 201.862 143.284 202.4 143.562 202.848C143.839 203.296 144.244 203.638 144.778 203.872C145.311 204.107 145.956 204.224 146.714 204.224C147.396 204.224 148.084 204.128 148.778 203.936C149.471 203.734 150.095 203.451 150.65 203.088V204.88C150.052 205.307 149.354 205.643 148.554 205.888C147.764 206.123 146.927 206.24 146.042 206.24ZM154.405 206.144C153.957 206.144 153.583 206 153.285 205.712C152.997 205.424 152.853 205.062 152.853 204.624C152.853 204.187 152.997 203.824 153.285 203.536C153.583 203.248 153.957 203.104 154.405 203.104C154.863 203.104 155.237 203.248 155.525 203.536C155.823 203.824 155.973 204.187 155.973 204.624C155.973 205.062 155.823 205.424 155.525 205.712C155.237 206 154.863 206.144 154.405 206.144ZM154.405 200.48C153.957 200.48 153.583 200.336 153.285 200.048C152.997 199.76 152.853 199.398 152.853 198.96C152.853 198.523 152.997 198.16 153.285 197.872C153.583 197.584 153.957 197.44 154.405 197.44C154.863 197.44 155.237 197.584 155.525 197.872C155.823 198.16 155.973 198.523 155.973 198.96C155.973 199.398 155.823 199.76 155.525 200.048C155.237 200.336 154.863 200.48 154.405 200.48Z" fill="white"/>
<path d="M243.313 133.8H244.273V145H243.153V135.032L240.641 135.784L240.353 134.824L243.313 133.8ZM250.271 138.312C251.316 138.312 252.201 138.622 252.927 139.24C253.663 139.848 254.031 140.686 254.031 141.752C254.031 142.819 253.663 143.662 252.927 144.28C252.201 144.888 251.316 145.192 250.271 145.192C249.428 145.192 248.676 144.99 248.015 144.584C247.353 144.168 246.905 143.576 246.671 142.808L247.615 142.264C247.775 142.862 248.089 143.32 248.559 143.64C249.039 143.95 249.609 144.104 250.271 144.104C251.039 144.104 251.668 143.902 252.159 143.496C252.66 143.08 252.911 142.499 252.911 141.752C252.911 141.006 252.66 140.43 252.159 140.024C251.668 139.608 251.039 139.4 250.271 139.4H247.231L247.631 133.8H253.631V134.856H248.623L248.383 138.312H250.271ZM262.831 138.888V139.912H259.983V142.76H258.959V139.912H256.111V138.888H258.959V136.04H259.983V138.888H262.831Z" fill="white"/>
<path d="M28.1613 242L30.2253 238.432H30.2573L35.1213 230H38.0653L31.1053 242H28.1613ZM30.2253 240.256L24.2413 230H27.2333L32.0973 238.368L30.2253 240.256ZM38.9662 232.896H48.3742V242H45.7022V233.696L46.9342 234.912H40.2942L41.4462 233.92C41.4995 234.571 41.5422 235.174 41.5742 235.728C41.6168 236.272 41.6382 236.763 41.6382 237.2C41.6382 238.95 41.3768 240.219 40.8542 241.008C40.3422 241.798 39.5102 242.192 38.3582 242.192C38.0382 242.192 37.7288 242.155 37.4302 242.08C37.1422 242.016 36.8595 241.904 36.5822 241.744V239.808C36.7742 239.883 36.9608 239.942 37.1422 239.984C37.3342 240.016 37.5102 240.032 37.6702 240.032C38.2142 240.032 38.6035 239.787 38.8382 239.296C39.0835 238.795 39.2062 237.974 39.2062 236.832C39.2062 236.32 39.1848 235.734 39.1422 235.072C39.1102 234.411 39.0515 233.686 38.9662 232.896ZM60.6705 242.24C59.5505 242.24 58.5692 242.043 57.7265 241.648C56.8839 241.243 56.2279 240.683 55.7585 239.968C55.2999 239.243 55.0705 238.406 55.0705 237.456C55.0705 236.496 55.2999 235.659 55.7585 234.944C56.2279 234.219 56.8839 233.659 57.7265 233.264C58.5692 232.859 59.5505 232.656 60.6705 232.656C61.7905 232.656 62.7719 232.859 63.6145 233.264C64.4572 233.659 65.1132 234.219 65.5825 234.944C66.0519 235.659 66.2865 236.496 66.2865 237.456C66.2865 238.406 66.0519 239.243 65.5825 239.968C65.1132 240.683 64.4572 241.243 63.6145 241.648C62.7719 242.043 61.7905 242.24 60.6705 242.24ZM50.8625 242V232.896H53.5345V242H50.8625ZM52.3665 238.368V236.368H56.7665V238.368H52.3665ZM60.6705 240.208C61.2785 240.208 61.7959 240.096 62.2225 239.872C62.6599 239.648 62.9959 239.334 63.2305 238.928C63.4652 238.512 63.5825 238.022 63.5825 237.456C63.5825 236.88 63.4652 236.39 63.2305 235.984C62.9959 235.568 62.6599 235.248 62.2225 235.024C61.7959 234.8 61.2785 234.688 60.6705 234.688C60.0732 234.688 59.5559 234.8 59.1185 235.024C58.6812 235.248 58.3452 235.568 58.1105 235.984C57.8759 236.39 57.7585 236.88 57.7585 237.456C57.7585 238.022 57.8759 238.512 58.1105 238.928C58.3452 239.334 58.6812 239.648 59.1185 239.872C59.5559 240.096 60.0732 240.208 60.6705 240.208ZM73.8953 242.24C72.6473 242.24 71.5806 242.006 70.6953 241.536C69.8099 241.056 69.1326 240.368 68.6633 239.472C68.1939 238.576 67.9593 237.494 67.9593 236.224C67.9593 234.336 68.4659 232.848 69.4793 231.76C70.4926 230.672 71.9433 230.048 73.8313 229.888C74.5993 229.824 75.2339 229.771 75.7353 229.728C76.2366 229.686 76.6473 229.643 76.9673 229.6C77.2979 229.547 77.5753 229.494 77.7993 229.44C78.0233 229.376 78.2419 229.307 78.4553 229.232V231.456C78.2313 231.542 77.9433 231.622 77.5913 231.696C77.2499 231.76 76.8126 231.814 76.2793 231.856C75.7566 231.899 75.1113 231.942 74.3433 231.984C72.9459 232.048 71.9059 232.432 71.2233 233.136C70.5406 233.84 70.1993 234.854 70.1993 236.176V236.608L70.1033 236.416C70.3166 235.84 70.6419 235.344 71.0793 234.928C71.5166 234.512 72.0393 234.198 72.6473 233.984C73.2659 233.76 73.9326 233.648 74.6473 233.648C75.5753 233.648 76.3859 233.824 77.0793 234.176C77.7726 234.518 78.3113 235.003 78.6953 235.632C79.0899 236.262 79.2873 236.998 79.2873 237.84C79.2873 238.726 79.0633 239.499 78.6153 240.16C78.1673 240.822 77.5379 241.334 76.7273 241.696C75.9273 242.059 74.9833 242.24 73.8953 242.24ZM73.9593 240.208C74.4926 240.208 74.9566 240.112 75.3513 239.92C75.7459 239.728 76.0499 239.456 76.2633 239.104C76.4766 238.752 76.5833 238.342 76.5833 237.872C76.5833 237.403 76.4766 236.998 76.2633 236.656C76.0499 236.304 75.7459 236.032 75.3513 235.84C74.9566 235.648 74.4926 235.552 73.9593 235.552C73.2233 235.552 72.5726 235.75 72.0073 236.144C71.4419 236.528 71.0153 237.067 70.7273 237.76C70.8979 238.507 71.2713 239.104 71.8473 239.552C72.4339 239.99 73.1379 240.208 73.9593 240.208ZM82.6718 232.896H92.0798V242H89.4078V233.696L90.6398 234.912H83.9998L85.1518 233.92C85.2051 234.571 85.2478 235.174 85.2798 235.728C85.3224 236.272 85.3438 236.763 85.3438 237.2C85.3438 238.95 85.0824 240.219 84.5598 241.008C84.0478 241.798 83.2158 242.192 82.0638 242.192C81.7438 242.192 81.4344 242.155 81.1358 242.08C80.8478 242.016 80.5651 241.904 80.2878 241.744V239.808C80.4798 239.883 80.6664 239.942 80.8478 239.984C81.0398 240.016 81.2158 240.032 81.3758 240.032C81.9198 240.032 82.3091 239.787 82.5438 239.296C82.7891 238.795 82.9118 237.974 82.9118 236.832C82.9118 236.32 82.8904 235.734 82.8478 235.072C82.8158 234.411 82.7571 233.686 82.6718 232.896ZM99.7042 242.24C98.6268 242.24 97.6615 242.043 96.8082 241.648C95.9655 241.243 95.2988 240.678 94.8082 239.952C94.3282 239.227 94.0882 238.384 94.0882 237.424C94.0882 236.475 94.3175 235.643 94.7762 234.928C95.2455 234.214 95.8855 233.659 96.6962 233.264C97.5068 232.859 98.4295 232.656 99.4642 232.656C100.52 232.656 101.427 232.891 102.184 233.36C102.941 233.819 103.523 234.47 103.928 235.312C104.344 236.155 104.552 237.147 104.552 238.288H96.2322V236.512H103.112L102.072 237.152C102.029 236.619 101.896 236.166 101.672 235.792C101.459 235.419 101.165 235.131 100.792 234.928C100.419 234.726 99.9815 234.624 99.4802 234.624C98.9362 234.624 98.4615 234.736 98.0562 234.96C97.6615 235.174 97.3522 235.478 97.1282 235.872C96.9148 236.256 96.8082 236.71 96.8082 237.232C96.8082 237.862 96.9468 238.4 97.2242 238.848C97.5015 239.296 97.9068 239.638 98.4402 239.872C98.9735 240.107 99.6188 240.224 100.376 240.224C101.059 240.224 101.747 240.128 102.44 239.936C103.133 239.734 103.757 239.451 104.312 239.088V240.88C103.715 241.307 103.016 241.643 102.216 241.888C101.427 242.123 100.589 242.24 99.7042 242.24ZM106.595 232.896H109.251V242H106.595V232.896ZM114.227 232.896H116.883V242H114.227V232.896ZM108.115 236.352H115.267V238.368H108.115V236.352ZM119.372 232.8L120.7 233.056L122.044 232.8V242H119.372V232.8ZM120.7 231.856C120.22 231.856 119.825 231.734 119.516 231.488C119.217 231.232 119.068 230.896 119.068 230.48C119.068 230.054 119.217 229.718 119.516 229.472C119.825 229.216 120.22 229.088 120.7 229.088C121.191 229.088 121.585 229.216 121.884 229.472C122.183 229.718 122.332 230.054 122.332 230.48C122.332 230.896 122.183 231.232 121.884 231.488C121.585 231.734 121.191 231.856 120.7 231.856ZM139.337 232.896V242H136.665V233.696L137.897 234.912H130.553L131.785 233.696V242H129.113V232.896H139.337ZM141.828 232.896H144.5V235.792L144.388 236.144V238.336L144.5 238.992V244.64H141.828V232.896ZM143.572 237.456C143.753 236.486 144.068 235.643 144.516 234.928C144.974 234.203 145.545 233.643 146.228 233.248C146.921 232.854 147.689 232.656 148.532 232.656C149.428 232.656 150.212 232.859 150.884 233.264C151.566 233.659 152.1 234.219 152.484 234.944C152.868 235.659 153.06 236.496 153.06 237.456C153.06 238.406 152.868 239.243 152.484 239.968C152.1 240.683 151.566 241.243 150.884 241.648C150.212 242.043 149.428 242.24 148.532 242.24C147.678 242.24 146.91 242.043 146.228 241.648C145.556 241.254 144.99 240.699 144.532 239.984C144.073 239.259 143.753 238.416 143.572 237.456ZM150.356 237.456C150.356 236.923 150.244 236.454 150.02 236.048C149.806 235.632 149.508 235.312 149.124 235.088C148.74 234.854 148.297 234.736 147.796 234.736C147.294 234.736 146.82 234.854 146.372 235.088C145.924 235.312 145.529 235.632 145.188 236.048C144.857 236.454 144.596 236.923 144.404 237.456C144.596 237.99 144.857 238.459 145.188 238.864C145.529 239.27 145.924 239.59 146.372 239.824C146.82 240.048 147.294 240.16 147.796 240.16C148.297 240.16 148.74 240.048 149.124 239.824C149.508 239.59 149.806 239.27 150.02 238.864C150.244 238.459 150.356 237.99 150.356 237.456ZM160.32 242.24C159.19 242.24 158.198 242.043 157.344 241.648C156.491 241.243 155.824 240.683 155.344 239.968C154.864 239.243 154.624 238.406 154.624 237.456C154.624 236.496 154.864 235.659 155.344 234.944C155.824 234.219 156.491 233.659 157.344 233.264C158.198 232.859 159.19 232.656 160.32 232.656C161.451 232.656 162.443 232.859 163.296 233.264C164.15 233.659 164.811 234.219 165.28 234.944C165.76 235.659 166 236.496 166 237.456C166 238.406 165.76 239.243 165.28 239.968C164.811 240.683 164.15 241.243 163.296 241.648C162.443 242.043 161.451 242.24 160.32 242.24ZM160.32 240.208C160.939 240.208 161.467 240.096 161.904 239.872C162.352 239.648 162.694 239.334 162.928 238.928C163.174 238.512 163.296 238.022 163.296 237.456C163.296 236.88 163.174 236.39 162.928 235.984C162.694 235.568 162.352 235.248 161.904 235.024C161.467 234.8 160.939 234.688 160.32 234.688C159.712 234.688 159.184 234.8 158.736 235.024C158.288 235.248 157.942 235.568 157.696 235.984C157.462 236.39 157.344 236.88 157.344 237.456C157.344 238.022 157.462 238.512 157.696 238.928C157.942 239.334 158.288 239.648 158.736 239.872C159.184 240.096 159.712 240.208 160.32 240.208ZM173.174 242.24C172.096 242.24 171.131 242.043 170.278 241.648C169.435 241.243 168.768 240.678 168.278 239.952C167.798 239.227 167.558 238.384 167.558 237.424C167.558 236.475 167.787 235.643 168.246 234.928C168.715 234.214 169.355 233.659 170.166 233.264C170.976 232.859 171.899 232.656 172.934 232.656C173.99 232.656 174.896 232.891 175.654 233.36C176.411 233.819 176.992 234.47 177.398 235.312C177.814 236.155 178.022 237.147 178.022 238.288H169.702V236.512H176.582L175.542 237.152C175.499 236.619 175.366 236.166 175.142 235.792C174.928 235.419 174.635 235.131 174.262 234.928C173.888 234.726 173.451 234.624 172.95 234.624C172.406 234.624 171.931 234.736 171.526 234.96C171.131 235.174 170.822 235.478 170.598 235.872C170.384 236.256 170.278 236.71 170.278 237.232C170.278 237.862 170.416 238.4 170.694 238.848C170.971 239.296 171.376 239.638 171.91 239.872C172.443 240.107 173.088 240.224 173.846 240.224C174.528 240.224 175.216 240.128 175.91 239.936C176.603 239.734 177.227 239.451 177.782 239.088V240.88C177.184 241.307 176.486 241.643 175.686 241.888C174.896 242.123 174.059 242.24 173.174 242.24ZM180.064 242V232.896H182.736V239.84L181.952 239.568L187.376 232.896H190.288L182.464 242H180.064ZM187.504 242L184.784 237.536L186.752 236.016L190.56 242H187.504ZM194.783 233.824H197.455V242H194.783V233.824ZM191.167 232.896H201.071V234.944H191.167V232.896ZM202.774 242V232.896H205.398V240.592L204.742 240.416L210.23 232.896H213.67V242H211.046V234.16L211.702 234.352L206.118 242H202.774ZM217.633 242.144C217.185 242.144 216.811 242 216.513 241.712C216.225 241.424 216.081 241.062 216.081 240.624C216.081 240.187 216.225 239.824 216.513 239.536C216.811 239.248 217.185 239.104 217.633 239.104C218.091 239.104 218.465 239.248 218.753 239.536C219.051 239.824 219.201 240.187 219.201 240.624C219.201 241.062 219.051 241.424 218.753 241.712C218.465 242 218.091 242.144 217.633 242.144ZM217.633 236.48C217.185 236.48 216.811 236.336 216.513 236.048C216.225 235.76 216.081 235.398 216.081 234.96C216.081 234.523 216.225 234.16 216.513 233.872C216.811 233.584 217.185 233.44 217.633 233.44C218.091 233.44 218.465 233.584 218.753 233.872C219.051 234.16 219.201 234.523 219.201 234.96C219.201 235.398 219.051 235.76 218.753 236.048C218.465 236.336 218.091 236.48 217.633 236.48Z" fill="white"/>
<path d="M248.113 233H249.169V241H248.113V239.432C247.377 240.606 246.3 241.192 244.881 241.192C243.74 241.192 242.764 240.787 241.953 239.976C241.153 239.166 240.753 238.174 240.753 237C240.753 235.827 241.153 234.835 241.953 234.024C242.764 233.214 243.74 232.808 244.881 232.808C246.3 232.808 247.377 233.395 248.113 234.568V233ZM242.721 239.256C243.329 239.864 244.076 240.168 244.961 240.168C245.847 240.168 246.593 239.864 247.201 239.256C247.809 238.638 248.113 237.886 248.113 237C248.113 236.115 247.809 235.368 247.201 234.76C246.593 234.142 245.847 233.832 244.961 233.832C244.076 233.832 243.329 234.142 242.721 234.76C242.113 235.368 241.809 236.115 241.809 237C241.809 237.886 242.113 238.638 242.721 239.256ZM253.165 231.72V230.792H257.325V231.72H253.165ZM257.709 233H258.605V241H257.549V234.84L252.781 241H251.885V233H252.941V239.16L257.709 233ZM268.038 239.976H269.158V243.144H268.102V241H261.574V243.144H260.518V239.976H261.494C262.038 239.262 262.31 238.254 262.31 236.952V233H268.038V239.976ZM262.774 239.976H266.982V234.024H263.366V236.952C263.366 238.179 263.169 239.187 262.774 239.976ZM274.619 232.808C275.803 232.808 276.758 233.23 277.483 234.072C278.219 234.904 278.587 235.891 278.587 237.032C278.587 237.15 278.577 237.315 278.555 237.528H271.531C271.638 238.339 271.979 238.984 272.555 239.464C273.142 239.934 273.862 240.168 274.715 240.168C275.323 240.168 275.846 240.046 276.283 239.8C276.731 239.544 277.067 239.214 277.291 238.808L278.219 239.352C277.867 239.918 277.387 240.366 276.779 240.696C276.171 241.027 275.478 241.192 274.699 241.192C273.441 241.192 272.417 240.798 271.627 240.008C270.838 239.219 270.443 238.216 270.443 237C270.443 235.806 270.833 234.808 271.611 234.008C272.39 233.208 273.393 232.808 274.619 232.808ZM274.619 233.832C273.787 233.832 273.089 234.083 272.523 234.584C271.969 235.075 271.638 235.715 271.531 236.504H277.499C277.393 235.662 277.067 235.006 276.523 234.536C275.979 234.067 275.345 233.832 274.619 233.832ZM286.411 233H287.467V241H286.411V237.512H281.803V241H280.747V233H281.803V236.488H286.411V233ZM295.94 233V234.024H293.108V241H292.052V234.024H289.22V233H295.94ZM303.531 233H304.427V241H303.371V234.84L298.603 241H297.707V233H298.763V239.16L303.531 233ZM313.604 241H312.196L308.196 237.144V241H307.14V233H308.196V236.536L312.004 233H313.444L309.316 236.84L313.604 241ZM321.61 233H322.666V241H321.61V239.432C320.874 240.606 319.796 241.192 318.378 241.192C317.236 241.192 316.26 240.787 315.45 239.976C314.65 239.166 314.25 238.174 314.25 237C314.25 235.827 314.65 234.835 315.45 234.024C316.26 233.214 317.236 232.808 318.378 232.808C319.796 232.808 320.874 233.395 321.61 234.568V233ZM316.218 239.256C316.826 239.864 317.572 240.168 318.458 240.168C319.343 240.168 320.09 239.864 320.698 239.256C321.306 238.638 321.61 237.886 321.61 237C321.61 236.115 321.306 235.368 320.698 234.76C320.09 234.142 319.343 233.832 318.458 233.832C317.572 233.832 316.826 234.142 316.218 234.76C315.61 235.368 315.306 236.115 315.306 237C315.306 237.886 315.61 238.638 316.218 239.256ZM244.913 261.192C243.889 261.192 243.009 260.952 242.273 260.472C241.548 259.982 241.041 259.31 240.753 258.456L241.713 257.896C241.916 258.59 242.289 259.134 242.833 259.528C243.377 259.912 244.076 260.104 244.929 260.104C245.761 260.104 246.407 259.923 246.865 259.56C247.335 259.187 247.569 258.696 247.569 258.088C247.569 257.502 247.356 257.059 246.929 256.76C246.503 256.462 245.799 256.152 244.817 255.832C243.655 255.448 242.887 255.139 242.513 254.904C241.66 254.392 241.233 253.651 241.233 252.68C241.233 251.731 241.564 250.984 242.225 250.44C242.887 249.886 243.703 249.608 244.673 249.608C245.548 249.608 246.305 249.838 246.945 250.296C247.585 250.744 248.06 251.32 248.369 252.024L247.425 252.552C246.913 251.315 245.996 250.696 244.673 250.696C243.98 250.696 243.42 250.867 242.993 251.208C242.567 251.55 242.353 252.024 242.353 252.632C242.353 253.187 242.545 253.603 242.929 253.88C243.313 254.158 243.948 254.44 244.833 254.728C245.239 254.867 245.527 254.968 245.697 255.032C245.879 255.086 246.135 255.182 246.465 255.32C246.807 255.448 247.057 255.566 247.217 255.672C247.377 255.768 247.569 255.907 247.793 256.088C248.028 256.259 248.193 256.435 248.289 256.616C248.396 256.787 248.487 257 248.561 257.256C248.647 257.502 248.689 257.768 248.689 258.056C248.689 259.006 248.343 259.768 247.649 260.344C246.956 260.91 246.044 261.192 244.913 261.192ZM256.564 253H257.62V261H256.564V259.752C255.967 260.712 255.071 261.192 253.876 261.192C252.905 261.192 252.137 260.899 251.572 260.312C251.017 259.715 250.74 258.915 250.74 257.912V253H251.796V257.912C251.796 258.627 251.983 259.182 252.356 259.576C252.74 259.971 253.279 260.168 253.972 260.168C254.74 260.168 255.364 259.928 255.844 259.448C256.324 258.958 256.564 258.206 256.564 257.192V253ZM264.622 252.808C265.763 252.808 266.734 253.214 267.534 254.024C268.345 254.835 268.75 255.827 268.75 257C268.75 258.174 268.345 259.166 267.534 259.976C266.734 260.787 265.763 261.192 264.622 261.192C263.203 261.192 262.126 260.606 261.39 259.432V261H260.334V249.8H261.39V254.568C262.126 253.395 263.203 252.808 264.622 252.808ZM262.302 259.256C262.91 259.864 263.657 260.168 264.542 260.168C265.427 260.168 266.174 259.864 266.782 259.256C267.39 258.638 267.694 257.886 267.694 257C267.694 256.115 267.39 255.368 266.782 254.76C266.174 254.142 265.427 253.832 264.542 253.832C263.657 253.832 262.91 254.142 262.302 254.76C261.694 255.368 261.39 256.115 261.39 257C261.39 257.886 261.694 258.638 262.302 259.256ZM279.514 252.808C280.41 252.808 281.13 253.096 281.674 253.672C282.228 254.248 282.506 255.027 282.506 256.008V261H281.45V256.008C281.45 255.315 281.268 254.782 280.906 254.408C280.554 254.024 280.084 253.832 279.498 253.832C278.836 253.832 278.298 254.056 277.882 254.504C277.476 254.942 277.274 255.63 277.274 256.568V261H276.218V256.008C276.218 255.304 276.047 254.766 275.706 254.392C275.375 254.019 274.922 253.832 274.346 253.832C273.706 253.832 273.162 254.056 272.714 254.504C272.266 254.952 272.042 255.64 272.042 256.568V261H270.986V253H272.042V254.168C272.618 253.262 273.434 252.808 274.49 252.808C275.642 252.808 276.452 253.294 276.922 254.264C277.498 253.294 278.362 252.808 279.514 252.808ZM291.908 253H292.964V261H291.908V259.432C291.172 260.606 290.095 261.192 288.676 261.192C287.535 261.192 286.559 260.787 285.748 259.976C284.948 259.166 284.548 258.174 284.548 257C284.548 255.827 284.948 254.835 285.748 254.024C286.559 253.214 287.535 252.808 288.676 252.808C290.095 252.808 291.172 253.395 291.908 254.568V253ZM286.516 259.256C287.124 259.864 287.871 260.168 288.756 260.168C289.642 260.168 290.388 259.864 290.996 259.256C291.604 258.638 291.908 257.886 291.908 257C291.908 256.115 291.604 255.368 290.996 254.76C290.388 254.142 289.642 253.832 288.756 253.832C287.871 253.832 287.124 254.142 286.516 254.76C285.908 255.368 285.604 256.115 285.604 257C285.604 257.886 285.908 258.638 286.516 259.256ZM296.736 254.328C297.227 253.358 298.069 252.872 299.264 252.872V253.896C298.539 253.896 297.936 254.11 297.456 254.536C296.976 254.963 296.736 255.635 296.736 256.552V261H295.68V253H296.736V254.328ZM302.263 251.08C302.114 251.23 301.933 251.304 301.719 251.304C301.506 251.304 301.325 251.23 301.175 251.08C301.026 250.931 300.951 250.75 300.951 250.536C300.951 250.323 301.026 250.142 301.175 249.992C301.325 249.843 301.506 249.768 301.719 249.768C301.933 249.768 302.114 249.843 302.263 249.992C302.413 250.142 302.487 250.323 302.487 250.536C302.487 250.75 302.413 250.931 302.263 251.08ZM301.191 261V253H302.247V261H301.191ZM308.712 252.808C309.683 252.808 310.446 253.107 311 253.704C311.566 254.291 311.848 255.086 311.848 256.088V261H310.792V256.088C310.792 255.374 310.6 254.819 310.216 254.424C309.843 254.03 309.31 253.832 308.616 253.832C307.848 253.832 307.224 254.078 306.744 254.568C306.264 255.048 306.024 255.795 306.024 256.808V261H304.968V253H306.024V254.248C306.622 253.288 307.518 252.808 308.712 252.808ZM318.066 252.808C319.25 252.808 320.205 253.23 320.93 254.072C321.666 254.904 322.034 255.891 322.034 257.032C322.034 257.15 322.023 257.315 322.002 257.528H314.978C315.085 258.339 315.426 258.984 316.002 259.464C316.589 259.934 317.309 260.168 318.162 260.168C318.77 260.168 319.293 260.046 319.73 259.8C320.178 259.544 320.514 259.214 320.738 258.808L321.666 259.352C321.314 259.918 320.834 260.366 320.226 260.696C319.618 261.027 318.925 261.192 318.146 261.192C316.887 261.192 315.863 260.798 315.074 260.008C314.285 259.219 313.89 258.216 313.89 257C313.89 255.806 314.279 254.808 315.058 254.008C315.837 253.208 316.839 252.808 318.066 252.808ZM318.066 253.832C317.234 253.832 316.535 254.083 315.97 254.584C315.415 255.075 315.085 255.715 314.978 256.504H320.946C320.839 255.662 320.514 255.006 319.97 254.536C319.426 254.067 318.791 253.832 318.066 253.832ZM244.929 272.808C246.113 272.808 247.068 273.23 247.793 274.072C248.529 274.904 248.897 275.891 248.897 277.032C248.897 277.15 248.887 277.315 248.865 277.528H241.841C241.948 278.339 242.289 278.984 242.865 279.464C243.452 279.934 244.172 280.168 245.025 280.168C245.633 280.168 246.156 280.046 246.593 279.8C247.041 279.544 247.377 279.214 247.601 278.808L248.529 279.352C248.177 279.918 247.697 280.366 247.089 280.696C246.481 281.027 245.788 281.192 245.009 281.192C243.751 281.192 242.727 280.798 241.937 280.008C241.148 279.219 240.753 278.216 240.753 277C240.753 275.806 241.143 274.808 241.921 274.008C242.7 273.208 243.703 272.808 244.929 272.808ZM244.929 273.832C244.097 273.832 243.399 274.083 242.833 274.584C242.279 275.075 241.948 275.715 241.841 276.504H247.809C247.703 275.662 247.377 275.006 246.833 274.536C246.289 274.067 245.655 273.832 244.929 273.832ZM257.937 269.8H258.993V281H257.937V279.432C257.201 280.606 256.124 281.192 254.705 281.192C253.564 281.192 252.588 280.787 251.777 279.976C250.977 279.166 250.577 278.174 250.577 277C250.577 275.827 250.977 274.835 251.777 274.024C252.588 273.214 253.564 272.808 254.705 272.808C256.124 272.808 257.201 273.395 257.937 274.568V269.8ZM252.545 279.256C253.153 279.864 253.9 280.168 254.785 280.168C255.67 280.168 256.417 279.864 257.025 279.256C257.633 278.638 257.937 277.886 257.937 277C257.937 276.115 257.633 275.368 257.025 274.76C256.417 274.142 255.67 273.832 254.785 273.832C253.9 273.832 253.153 274.142 252.545 274.76C251.937 275.368 251.633 276.115 251.633 277C251.633 277.886 251.937 278.638 252.545 279.256ZM267.341 273H268.397V281H267.341V279.752C266.744 280.712 265.848 281.192 264.653 281.192C263.682 281.192 262.914 280.899 262.349 280.312C261.794 279.715 261.517 278.915 261.517 277.912V273H262.573V277.912C262.573 278.627 262.76 279.182 263.133 279.576C263.517 279.971 264.056 280.168 264.749 280.168C265.517 280.168 266.141 279.928 266.621 279.448C267.101 278.958 267.341 278.206 267.341 277.192V273ZM274.839 281.192C273.633 281.192 272.631 280.792 271.831 279.992C271.031 279.182 270.631 278.184 270.631 277C270.631 275.816 271.031 274.824 271.831 274.024C272.631 273.214 273.633 272.808 274.839 272.808C275.628 272.808 276.337 273 276.967 273.384C277.596 273.758 278.055 274.264 278.343 274.904L277.479 275.4C277.265 274.92 276.919 274.542 276.439 274.264C275.969 273.976 275.436 273.832 274.839 273.832C273.953 273.832 273.207 274.142 272.599 274.76C271.991 275.368 271.687 276.115 271.687 277C271.687 277.886 271.991 278.638 272.599 279.256C273.207 279.864 273.953 280.168 274.839 280.168C275.436 280.168 275.969 280.03 276.439 279.752C276.908 279.464 277.276 279.08 277.543 278.6L278.423 279.112C278.092 279.752 277.607 280.259 276.967 280.632C276.327 281.006 275.617 281.192 274.839 281.192ZM287.221 273H288.277V281H287.221V279.432C286.485 280.606 285.407 281.192 283.989 281.192C282.847 281.192 281.871 280.787 281.061 279.976C280.261 279.166 279.861 278.174 279.861 277C279.861 275.827 280.261 274.835 281.061 274.024C281.871 273.214 282.847 272.808 283.989 272.808C285.407 272.808 286.485 273.395 287.221 274.568V273ZM281.829 279.256C282.437 279.864 283.183 280.168 284.069 280.168C284.954 280.168 285.701 279.864 286.309 279.256C286.917 278.638 287.221 277.886 287.221 277C287.221 276.115 286.917 275.368 286.309 274.76C285.701 274.142 284.954 273.832 284.069 273.832C283.183 273.832 282.437 274.142 281.829 274.76C281.221 275.368 280.917 276.115 280.917 277C280.917 277.886 281.221 278.638 281.829 279.256ZM295.233 274.024H292.929V278.872C292.929 279.31 293.014 279.624 293.185 279.816C293.355 279.998 293.611 280.094 293.953 280.104C294.294 280.104 294.721 280.094 295.233 280.072V281C294.113 281.171 293.27 281.091 292.705 280.76C292.15 280.43 291.873 279.8 291.873 278.872V274.024H290.193V273H291.873V271.08L292.929 270.76V273H295.233V274.024ZM298.545 271.08C298.395 271.23 298.214 271.304 298.001 271.304C297.787 271.304 297.606 271.23 297.457 271.08C297.307 270.931 297.233 270.75 297.233 270.536C297.233 270.323 297.307 270.142 297.457 269.992C297.606 269.843 297.787 269.768 298.001 269.768C298.214 269.768 298.395 269.843 298.545 269.992C298.694 270.142 298.769 270.323 298.769 270.536C298.769 270.75 298.694 270.931 298.545 271.08ZM297.473 281V273H298.529V281H297.473ZM307.954 279.992C307.143 280.792 306.151 281.192 304.978 281.192C303.804 281.192 302.807 280.792 301.986 279.992C301.175 279.182 300.77 278.184 300.77 277C300.77 275.816 301.175 274.824 301.986 274.024C302.807 273.214 303.804 272.808 304.978 272.808C306.151 272.808 307.143 273.214 307.954 274.024C308.775 274.824 309.186 275.816 309.186 277C309.186 278.184 308.775 279.182 307.954 279.992ZM302.738 279.256C303.346 279.864 304.092 280.168 304.978 280.168C305.863 280.168 306.61 279.864 307.218 279.256C307.826 278.638 308.13 277.886 308.13 277C308.13 276.115 307.826 275.368 307.218 274.76C306.61 274.142 305.863 273.832 304.978 273.832C304.092 273.832 303.346 274.142 302.738 274.76C302.13 275.368 301.826 276.115 301.826 277C301.826 277.886 302.13 278.638 302.738 279.256ZM315.177 272.808C316.147 272.808 316.91 273.107 317.465 273.704C318.03 274.291 318.313 275.086 318.313 276.088V281H317.257V276.088C317.257 275.374 317.065 274.819 316.681 274.424C316.307 274.03 315.774 273.832 315.081 273.832C314.313 273.832 313.689 274.078 313.209 274.568C312.729 275.048 312.489 275.795 312.489 276.808V281H311.433V273H312.489V274.248C313.086 273.288 313.982 272.808 315.177 272.808ZM322.595 279.64L321.635 283.24H320.675L321.315 279.64H322.595ZM333.366 281.192C332.161 281.192 331.158 280.792 330.358 279.992C329.558 279.182 329.158 278.184 329.158 277C329.158 275.816 329.558 274.824 330.358 274.024C331.158 273.214 332.161 272.808 333.366 272.808C334.156 272.808 334.865 273 335.494 273.384C336.124 273.758 336.582 274.264 336.87 274.904L336.006 275.4C335.793 274.92 335.446 274.542 334.966 274.264C334.497 273.976 333.964 273.832 333.366 273.832C332.481 273.832 331.734 274.142 331.126 274.76C330.518 275.368 330.214 276.115 330.214 277C330.214 277.886 330.518 278.638 331.126 279.256C331.734 279.864 332.481 280.168 333.366 280.168C333.964 280.168 334.497 280.03 334.966 279.752C335.436 279.464 335.804 279.08 336.07 278.6L336.95 279.112C336.62 279.752 336.134 280.259 335.494 280.632C334.854 281.006 334.145 281.192 333.366 281.192ZM345.748 273H346.804V281H345.748V279.432C345.012 280.606 343.935 281.192 342.516 281.192C341.375 281.192 340.399 280.787 339.588 279.976C338.788 279.166 338.388 278.174 338.388 277C338.388 275.827 338.788 274.835 339.588 274.024C340.399 273.214 341.375 272.808 342.516 272.808C343.935 272.808 345.012 273.395 345.748 274.568V273ZM340.356 279.256C340.964 279.864 341.711 280.168 342.596 280.168C343.482 280.168 344.228 279.864 344.836 279.256C345.444 278.638 345.748 277.886 345.748 277C345.748 276.115 345.444 275.368 344.836 274.76C344.228 274.142 343.482 273.832 342.596 273.832C341.711 273.832 340.964 274.142 340.356 274.76C339.748 275.368 339.444 276.115 339.444 277C339.444 277.886 339.748 278.638 340.356 279.256ZM350.8 271.72V270.792H354.96V271.72H350.8ZM355.344 273H356.24V281H355.184V274.84L350.416 281H349.52V273H350.576V279.16L355.344 273ZM364.713 273V274.024H361.881V281H360.825V274.024H357.993V273H364.713ZM244.913 301.192C243.889 301.192 243.009 300.952 242.273 300.472C241.548 299.982 241.041 299.31 240.753 298.456L241.713 297.896C241.916 298.59 242.289 299.134 242.833 299.528C243.377 299.912 244.076 300.104 244.929 300.104C245.761 300.104 246.407 299.923 246.865 299.56C247.335 299.187 247.569 298.696 247.569 298.088C247.569 297.502 247.356 297.059 246.929 296.76C246.503 296.462 245.799 296.152 244.817 295.832C243.655 295.448 242.887 295.139 242.513 294.904C241.66 294.392 241.233 293.651 241.233 292.68C241.233 291.731 241.564 290.984 242.225 290.44C242.887 289.886 243.703 289.608 244.673 289.608C245.548 289.608 246.305 289.838 246.945 290.296C247.585 290.744 248.06 291.32 248.369 292.024L247.425 292.552C246.913 291.315 245.996 290.696 244.673 290.696C243.98 290.696 243.42 290.867 242.993 291.208C242.567 291.55 242.353 292.024 242.353 292.632C242.353 293.187 242.545 293.603 242.929 293.88C243.313 294.158 243.948 294.44 244.833 294.728C245.239 294.867 245.527 294.968 245.697 295.032C245.879 295.086 246.135 295.182 246.465 295.32C246.807 295.448 247.057 295.566 247.217 295.672C247.377 295.768 247.569 295.907 247.793 296.088C248.028 296.259 248.193 296.435 248.289 296.616C248.396 296.787 248.487 297 248.561 297.256C248.647 297.502 248.689 297.768 248.689 298.056C248.689 299.006 248.343 299.768 247.649 300.344C246.956 300.91 246.044 301.192 244.913 301.192ZM257.968 293H259.024V301H257.968V299.432C257.232 300.606 256.155 301.192 254.736 301.192C253.595 301.192 252.619 300.787 251.808 299.976C251.008 299.166 250.608 298.174 250.608 297C250.608 295.827 251.008 294.835 251.808 294.024C252.619 293.214 253.595 292.808 254.736 292.808C256.155 292.808 257.232 293.395 257.968 294.568V293ZM252.576 299.256C253.184 299.864 253.931 300.168 254.816 300.168C255.702 300.168 256.448 299.864 257.056 299.256C257.664 298.638 257.968 297.886 257.968 297C257.968 296.115 257.664 295.368 257.056 294.76C256.448 294.142 255.702 293.832 254.816 293.832C253.931 293.832 253.184 294.142 252.576 294.76C251.968 295.368 251.664 296.115 251.664 297C251.664 297.886 251.968 298.638 252.576 299.256ZM268.204 301H266.796L262.796 297.144V301H261.74V289.8H262.796V296.536L266.604 293H268.044L263.916 296.84L268.204 301ZM276.21 293H277.266V301H276.21V299.432C275.474 300.606 274.396 301.192 272.978 301.192C271.836 301.192 270.86 300.787 270.05 299.976C269.25 299.166 268.85 298.174 268.85 297C268.85 295.827 269.25 294.835 270.05 294.024C270.86 293.214 271.836 292.808 272.978 292.808C274.396 292.808 275.474 293.395 276.21 294.568V293ZM270.818 299.256C271.426 299.864 272.172 300.168 273.058 300.168C273.943 300.168 274.69 299.864 275.298 299.256C275.906 298.638 276.21 297.886 276.21 297C276.21 296.115 275.906 295.368 275.298 294.76C274.69 294.142 273.943 293.832 273.058 293.832C272.172 293.832 271.426 294.142 270.818 294.76C270.21 295.368 269.906 296.115 269.906 297C269.906 297.886 270.21 298.638 270.818 299.256ZM283.725 292.808C284.696 292.808 285.459 293.107 286.013 293.704C286.579 294.291 286.861 295.086 286.861 296.088V301H285.805V296.088C285.805 295.374 285.613 294.819 285.229 294.424C284.856 294.03 284.323 293.832 283.629 293.832C282.861 293.832 282.237 294.078 281.757 294.568C281.277 295.048 281.037 295.795 281.037 296.808V301H279.981V293H281.037V294.248C281.635 293.288 282.531 292.808 283.725 292.808ZM296.263 293H297.319V301H296.263V299.432C295.527 300.606 294.45 301.192 293.031 301.192C291.89 301.192 290.914 300.787 290.103 299.976C289.303 299.166 288.903 298.174 288.903 297C288.903 295.827 289.303 294.835 290.103 294.024C290.914 293.214 291.89 292.808 293.031 292.808C294.45 292.808 295.527 293.395 296.263 294.568V293ZM290.871 299.256C291.479 299.864 292.226 300.168 293.111 300.168C293.997 300.168 294.743 299.864 295.351 299.256C295.959 298.638 296.263 297.886 296.263 297C296.263 296.115 295.959 295.368 295.351 294.76C294.743 294.142 293.997 293.832 293.111 293.832C292.226 293.832 291.479 294.142 290.871 294.76C290.263 295.368 289.959 296.115 289.959 297C289.959 297.886 290.263 298.638 290.871 299.256Z" fill="white"/>
<path d="M24.3693 340.448V335.6H26.6093L27.7613 335.632H36.4013L37.0573 335.6H40.2893V340.448H37.7453V338H26.9133V340.448H24.3693ZM26.9453 326H38.1933V337.136H35.4893V327.152L36.7053 328.368H28.4013L29.5373 327.488C29.6013 328.022 29.6439 328.55 29.6653 329.072C29.6866 329.595 29.6973 330.086 29.6973 330.544C29.6973 331.846 29.5959 332.95 29.3933 333.856C29.1906 334.752 28.8866 335.435 28.4813 335.904C28.0759 336.363 27.5746 336.592 26.9773 336.592L25.8573 335.648C26.3053 335.136 26.6359 334.416 26.8493 333.488C27.0733 332.55 27.1853 331.382 27.1853 329.984C27.1853 329.366 27.1639 328.72 27.1213 328.048C27.0786 327.376 27.0199 326.694 26.9453 326ZM47.1767 338.24C46.046 338.24 45.054 338.043 44.2007 337.648C43.3473 337.243 42.6807 336.683 42.2007 335.968C41.7207 335.243 41.4807 334.406 41.4807 333.456C41.4807 332.496 41.7207 331.659 42.2007 330.944C42.6807 330.219 43.3473 329.659 44.2007 329.264C45.054 328.859 46.046 328.656 47.1767 328.656C48.3073 328.656 49.2993 328.859 50.1527 329.264C51.006 329.659 51.6673 330.219 52.1367 330.944C52.6167 331.659 52.8567 332.496 52.8567 333.456C52.8567 334.406 52.6167 335.243 52.1367 335.968C51.6673 336.683 51.006 337.243 50.1527 337.648C49.2993 338.043 48.3073 338.24 47.1767 338.24ZM47.1767 336.208C47.7953 336.208 48.3233 336.096 48.7607 335.872C49.2087 335.648 49.55 335.334 49.7847 334.928C50.03 334.512 50.1527 334.022 50.1527 333.456C50.1527 332.88 50.03 332.39 49.7847 331.984C49.55 331.568 49.2087 331.248 48.7607 331.024C48.3233 330.8 47.7953 330.688 47.1767 330.688C46.5687 330.688 46.0407 330.8 45.5927 331.024C45.1447 331.248 44.798 331.568 44.5527 331.984C44.318 332.39 44.2007 332.88 44.2007 333.456C44.2007 334.022 44.318 334.512 44.5527 334.928C44.798 335.334 45.1447 335.648 45.5927 335.872C46.0407 336.096 46.5687 336.208 47.1767 336.208ZM65.3418 334.288C65.2351 335.067 64.9311 335.755 64.4298 336.352C63.9391 336.95 63.3044 337.414 62.5258 337.744C61.7471 338.075 60.8778 338.24 59.9178 338.24C58.8298 338.24 57.8698 338.043 57.0378 337.648C56.2164 337.243 55.5711 336.678 55.1018 335.952C54.6431 335.227 54.4138 334.395 54.4138 333.456C54.4138 332.507 54.6431 331.675 55.1018 330.96C55.5711 330.235 56.2164 329.67 57.0378 329.264C57.8698 328.859 58.8298 328.656 59.9178 328.656C60.8778 328.656 61.7471 328.827 62.5258 329.168C63.3044 329.499 63.9391 329.963 64.4298 330.56C64.9311 331.147 65.2351 331.835 65.3418 332.624H62.6698C62.5311 332.006 62.2111 331.531 61.7098 331.2C61.2191 330.859 60.6218 330.688 59.9178 330.688C59.3524 330.688 58.8564 330.8 58.4298 331.024C58.0138 331.238 57.6938 331.552 57.4698 331.968C57.2458 332.374 57.1338 332.87 57.1338 333.456C57.1338 334.032 57.2458 334.528 57.4698 334.944C57.6938 335.35 58.0138 335.664 58.4298 335.888C58.8564 336.102 59.3524 336.208 59.9178 336.208C60.6324 336.208 61.2351 336.032 61.7258 335.68C62.2271 335.328 62.5418 334.864 62.6698 334.288H65.3418ZM67.0092 338L67.5212 333.456L67.0092 328.896H74.0172C74.8918 328.896 75.5852 329.104 76.0972 329.52C76.6092 329.926 76.8652 330.48 76.8652 331.184C76.8652 331.846 76.6092 332.384 76.0972 332.8C75.5852 333.206 74.8705 333.446 73.9532 333.52L74.1452 333.072C75.2118 333.104 76.0225 333.328 76.5772 333.744C77.1425 334.15 77.4252 334.72 77.4252 335.456C77.4252 336.246 77.1372 336.87 76.5612 337.328C75.9958 337.776 75.2172 338 74.2252 338H67.0092ZM69.5852 337.408L68.5612 336.272H73.4092C73.8678 336.272 74.2038 336.182 74.4172 336C74.6305 335.808 74.7372 335.542 74.7372 335.2C74.7372 334.891 74.6198 334.64 74.3852 334.448C74.1505 334.246 73.7665 334.144 73.2332 334.144H69.1052V332.624H72.8812C73.3292 332.624 73.6545 332.534 73.8572 332.352C74.0705 332.171 74.1772 331.926 74.1772 331.616C74.1772 331.328 74.0812 331.094 73.8892 330.912C73.7078 330.731 73.4092 330.64 72.9932 330.64H68.5772L69.5852 329.504L70.0812 333.456L69.5852 337.408ZM79.4319 328.8L80.7599 329.056L82.1039 328.8V338H79.4319V328.8ZM80.7599 327.856C80.2799 327.856 79.8852 327.734 79.5759 327.488C79.2772 327.232 79.1279 326.896 79.1279 326.48C79.1279 326.054 79.2772 325.718 79.5759 325.472C79.8852 325.216 80.2799 325.088 80.7599 325.088C81.2506 325.088 81.6452 325.216 81.9439 325.472C82.2426 325.718 82.3919 326.054 82.3919 326.48C82.3919 326.896 82.2426 327.232 81.9439 327.488C81.6452 327.734 81.2506 327.856 80.7599 327.856ZM96.9674 335.984V340.24H94.6474V338H86.1354V340.24H83.8154V335.984H86.3594L86.9514 336.032H93.5754L94.1034 335.984H96.9674ZM85.7834 328.896H95.2874V337.392H92.6154V329.664L93.8474 330.896H87.1114L88.1834 329.936C88.2794 330.395 88.3381 330.832 88.3594 331.248C88.3807 331.654 88.3914 332.032 88.3914 332.384C88.3914 333.899 88.1621 335.083 87.7034 335.936C87.2447 336.779 86.5994 337.2 85.7674 337.2L84.6794 336.288C85.5327 335.67 85.9594 334.192 85.9594 331.856C85.9594 331.398 85.9434 330.923 85.9114 330.432C85.8794 329.931 85.8367 329.419 85.7834 328.896ZM100.333 338.144C99.8847 338.144 99.5113 338 99.2127 337.712C98.9247 337.424 98.7807 337.062 98.7807 336.624C98.7807 336.187 98.9247 335.824 99.2127 335.536C99.5113 335.248 99.8847 335.104 100.333 335.104C100.791 335.104 101.165 335.248 101.453 335.536C101.751 335.824 101.901 336.187 101.901 336.624C101.901 337.062 101.751 337.424 101.453 337.712C101.165 338 100.791 338.144 100.333 338.144ZM100.333 332.48C99.8847 332.48 99.5113 332.336 99.2127 332.048C98.9247 331.76 98.7807 331.398 98.7807 330.96C98.7807 330.523 98.9247 330.16 99.2127 329.872C99.5113 329.584 99.8847 329.44 100.333 329.44C100.791 329.44 101.165 329.584 101.453 329.872C101.751 330.16 101.901 330.523 101.901 330.96C101.901 331.398 101.751 331.76 101.453 332.048C101.165 332.336 100.791 332.48 100.333 332.48Z" fill="white"/>
<path d="M244.865 330.456C245.761 330.574 246.497 330.92 247.073 331.496C247.66 332.062 247.953 332.814 247.953 333.752C247.953 334.819 247.585 335.662 246.849 336.28C246.124 336.888 245.239 337.192 244.193 337.192C243.361 337.192 242.62 337 241.969 336.616C241.319 336.232 240.86 335.683 240.593 334.968L241.521 334.424C241.703 334.979 242.028 335.4 242.497 335.688C242.967 335.966 243.532 336.104 244.193 336.104C244.961 336.104 245.591 335.902 246.081 335.496C246.583 335.08 246.833 334.499 246.833 333.752C246.833 333.006 246.583 332.43 246.081 332.024C245.591 331.608 244.961 331.4 244.193 331.4V331.384L244.177 331.4H243.873L243.393 330.664L246.177 326.856H240.913V325.8H247.473V326.856L244.865 330.456ZM256.758 330.888V331.912H253.91V334.76H252.886V331.912H250.038V330.888H252.886V328.04H253.91V330.888H256.758ZM268.086 328.808C269.228 328.808 270.198 329.214 270.998 330.024C271.809 330.835 272.214 331.827 272.214 333C272.214 334.174 271.809 335.166 270.998 335.976C270.198 336.787 269.228 337.192 268.086 337.192C266.668 337.192 265.59 336.606 264.854 335.432V340.2H263.798V329H264.854V330.568C265.59 329.395 266.668 328.808 268.086 328.808ZM265.766 335.256C266.374 335.864 267.121 336.168 268.006 336.168C268.892 336.168 269.638 335.864 270.246 335.256C270.854 334.638 271.158 333.886 271.158 333C271.158 332.115 270.854 331.368 270.246 330.76C269.638 330.142 268.892 329.832 268.006 329.832C267.121 329.832 266.374 330.142 265.766 330.76C265.158 331.368 264.854 332.115 264.854 333C264.854 333.886 265.158 334.638 265.766 335.256ZM281.154 335.992C280.343 336.792 279.351 337.192 278.178 337.192C277.005 337.192 276.007 336.792 275.186 335.992C274.375 335.182 273.97 334.184 273.97 333C273.97 331.816 274.375 330.824 275.186 330.024C276.007 329.214 277.005 328.808 278.178 328.808C279.351 328.808 280.343 329.214 281.154 330.024C281.975 330.824 282.386 331.816 282.386 333C282.386 334.184 281.975 335.182 281.154 335.992ZM275.938 335.256C276.546 335.864 277.293 336.168 278.178 336.168C279.063 336.168 279.81 335.864 280.418 335.256C281.026 334.638 281.33 333.886 281.33 333C281.33 332.115 281.026 331.368 280.418 330.76C279.81 330.142 279.063 329.832 278.178 329.832C277.293 329.832 276.546 330.142 275.938 330.76C275.33 331.368 275.026 332.115 275.026 333C275.026 333.886 275.33 334.638 275.938 335.256ZM291.097 337H289.689L285.689 333.144V337H284.633V329H285.689V332.536L289.497 329H290.937L286.809 332.84L291.097 337ZM298.844 329H299.74V337H298.684V330.84L293.916 337H293.02V329H294.076V335.16L298.844 329Z" fill="white"/>
<path d="M28.1613 374L30.2253 370.432H30.2573L35.1213 362H38.0653L31.1053 374H28.1613ZM30.2253 372.256L24.2413 362H27.2333L32.0973 370.368L30.2253 372.256ZM38.9662 364.896H48.3742V374H45.7022V365.696L46.9342 366.912H40.2942L41.4462 365.92C41.4995 366.571 41.5422 367.174 41.5742 367.728C41.6168 368.272 41.6382 368.763 41.6382 369.2C41.6382 370.95 41.3768 372.219 40.8542 373.008C40.3422 373.798 39.5102 374.192 38.3582 374.192C38.0382 374.192 37.7288 374.155 37.4302 374.08C37.1422 374.016 36.8595 373.904 36.5822 373.744V371.808C36.7742 371.883 36.9608 371.942 37.1422 371.984C37.3342 372.016 37.5102 372.032 37.6702 372.032C38.2142 372.032 38.6035 371.787 38.8382 371.296C39.0835 370.795 39.2062 369.974 39.2062 368.832C39.2062 368.32 39.1848 367.734 39.1422 367.072C39.1102 366.411 39.0515 365.686 38.9662 364.896ZM60.6705 374.24C59.5505 374.24 58.5692 374.043 57.7265 373.648C56.8839 373.243 56.2279 372.683 55.7585 371.968C55.2999 371.243 55.0705 370.406 55.0705 369.456C55.0705 368.496 55.2999 367.659 55.7585 366.944C56.2279 366.219 56.8839 365.659 57.7265 365.264C58.5692 364.859 59.5505 364.656 60.6705 364.656C61.7905 364.656 62.7719 364.859 63.6145 365.264C64.4572 365.659 65.1132 366.219 65.5825 366.944C66.0519 367.659 66.2865 368.496 66.2865 369.456C66.2865 370.406 66.0519 371.243 65.5825 371.968C65.1132 372.683 64.4572 373.243 63.6145 373.648C62.7719 374.043 61.7905 374.24 60.6705 374.24ZM50.8625 374V364.896H53.5345V374H50.8625ZM52.3665 370.368V368.368H56.7665V370.368H52.3665ZM60.6705 372.208C61.2785 372.208 61.7959 372.096 62.2225 371.872C62.6599 371.648 62.9959 371.334 63.2305 370.928C63.4652 370.512 63.5825 370.022 63.5825 369.456C63.5825 368.88 63.4652 368.39 63.2305 367.984C62.9959 367.568 62.6599 367.248 62.2225 367.024C61.7959 366.8 61.2785 366.688 60.6705 366.688C60.0732 366.688 59.5559 366.8 59.1185 367.024C58.6812 367.248 58.3452 367.568 58.1105 367.984C57.8759 368.39 57.7585 368.88 57.7585 369.456C57.7585 370.022 57.8759 370.512 58.1105 370.928C58.3452 371.334 58.6812 371.648 59.1185 371.872C59.5559 372.096 60.0732 372.208 60.6705 372.208ZM73.8953 374.24C72.6473 374.24 71.5806 374.006 70.6953 373.536C69.8099 373.056 69.1326 372.368 68.6633 371.472C68.1939 370.576 67.9593 369.494 67.9593 368.224C67.9593 366.336 68.4659 364.848 69.4793 363.76C70.4926 362.672 71.9433 362.048 73.8313 361.888C74.5993 361.824 75.2339 361.771 75.7353 361.728C76.2366 361.686 76.6473 361.643 76.9673 361.6C77.2979 361.547 77.5753 361.494 77.7993 361.44C78.0233 361.376 78.2419 361.307 78.4553 361.232V363.456C78.2313 363.542 77.9433 363.622 77.5913 363.696C77.2499 363.76 76.8126 363.814 76.2793 363.856C75.7566 363.899 75.1113 363.942 74.3433 363.984C72.9459 364.048 71.9059 364.432 71.2233 365.136C70.5406 365.84 70.1993 366.854 70.1993 368.176V368.608L70.1033 368.416C70.3166 367.84 70.6419 367.344 71.0793 366.928C71.5166 366.512 72.0393 366.198 72.6473 365.984C73.2659 365.76 73.9326 365.648 74.6473 365.648C75.5753 365.648 76.3859 365.824 77.0793 366.176C77.7726 366.518 78.3113 367.003 78.6953 367.632C79.0899 368.262 79.2873 368.998 79.2873 369.84C79.2873 370.726 79.0633 371.499 78.6153 372.16C78.1673 372.822 77.5379 373.334 76.7273 373.696C75.9273 374.059 74.9833 374.24 73.8953 374.24ZM73.9593 372.208C74.4926 372.208 74.9566 372.112 75.3513 371.92C75.7459 371.728 76.0499 371.456 76.2633 371.104C76.4766 370.752 76.5833 370.342 76.5833 369.872C76.5833 369.403 76.4766 368.998 76.2633 368.656C76.0499 368.304 75.7459 368.032 75.3513 367.84C74.9566 367.648 74.4926 367.552 73.9593 367.552C73.2233 367.552 72.5726 367.75 72.0073 368.144C71.4419 368.528 71.0153 369.067 70.7273 369.76C70.8979 370.507 71.2713 371.104 71.8473 371.552C72.4339 371.99 73.1379 372.208 73.9593 372.208ZM82.6718 364.896H92.0798V374H89.4078V365.696L90.6398 366.912H83.9998L85.1518 365.92C85.2051 366.571 85.2478 367.174 85.2798 367.728C85.3224 368.272 85.3438 368.763 85.3438 369.2C85.3438 370.95 85.0824 372.219 84.5598 373.008C84.0478 373.798 83.2158 374.192 82.0638 374.192C81.7438 374.192 81.4344 374.155 81.1358 374.08C80.8478 374.016 80.5651 373.904 80.2878 373.744V371.808C80.4798 371.883 80.6664 371.942 80.8478 371.984C81.0398 372.016 81.2158 372.032 81.3758 372.032C81.9198 372.032 82.3091 371.787 82.5438 371.296C82.7891 370.795 82.9118 369.974 82.9118 368.832C82.9118 368.32 82.8904 367.734 82.8478 367.072C82.8158 366.411 82.7571 365.686 82.6718 364.896ZM99.7042 374.24C98.6268 374.24 97.6615 374.043 96.8082 373.648C95.9655 373.243 95.2988 372.678 94.8082 371.952C94.3282 371.227 94.0882 370.384 94.0882 369.424C94.0882 368.475 94.3175 367.643 94.7762 366.928C95.2455 366.214 95.8855 365.659 96.6962 365.264C97.5068 364.859 98.4295 364.656 99.4642 364.656C100.52 364.656 101.427 364.891 102.184 365.36C102.941 365.819 103.523 366.47 103.928 367.312C104.344 368.155 104.552 369.147 104.552 370.288H96.2322V368.512H103.112L102.072 369.152C102.029 368.619 101.896 368.166 101.672 367.792C101.459 367.419 101.165 367.131 100.792 366.928C100.419 366.726 99.9815 366.624 99.4802 366.624C98.9362 366.624 98.4615 366.736 98.0562 366.96C97.6615 367.174 97.3522 367.478 97.1282 367.872C96.9148 368.256 96.8082 368.71 96.8082 369.232C96.8082 369.862 96.9468 370.4 97.2242 370.848C97.5015 371.296 97.9068 371.638 98.4402 371.872C98.9735 372.107 99.6188 372.224 100.376 372.224C101.059 372.224 101.747 372.128 102.44 371.936C103.133 371.734 103.757 371.451 104.312 371.088V372.88C103.715 373.307 103.016 373.643 102.216 373.888C101.427 374.123 100.589 374.24 99.7042 374.24ZM106.595 364.896H109.251V374H106.595V364.896ZM114.227 364.896H116.883V374H114.227V364.896ZM108.115 368.352H115.267V370.368H108.115V368.352ZM119.372 374V364.896H121.996V372.592L121.34 372.416L126.828 364.896H130.268V374H127.644V366.16L128.3 366.352L122.716 374H119.372ZM132.758 374V364.896H135.382V372.592L134.726 372.416L140.214 364.896H143.654V374H141.03V366.16L141.686 366.352L136.102 374H132.758ZM138.134 364.064C137.099 364.064 136.267 363.814 135.638 363.312C135.009 362.8 134.619 362.059 134.47 361.088H136.566C136.641 361.547 136.811 361.899 137.078 362.144C137.355 362.379 137.707 362.496 138.134 362.496C138.561 362.496 138.907 362.379 139.174 362.144C139.441 361.899 139.617 361.547 139.702 361.088H141.782C141.643 362.059 141.254 362.8 140.614 363.312C139.985 363.814 139.158 364.064 138.134 364.064ZM158.27 364.896V366.944H152.158L153.39 365.728V374H150.718V364.896H158.27ZM162.54 376.88C161.942 376.88 161.404 376.806 160.924 376.656C160.444 376.507 159.99 376.288 159.564 376V374.08C160.012 374.368 160.438 374.576 160.844 374.704C161.249 374.832 161.697 374.896 162.188 374.896C162.625 374.896 163.014 374.795 163.356 374.592C163.697 374.4 163.98 374.054 164.204 373.552L167.996 364.896H170.828L166.284 374.416C166.006 375.014 165.67 375.494 165.276 375.856C164.881 376.219 164.449 376.48 163.98 376.64C163.521 376.8 163.041 376.88 162.54 376.88ZM163.116 373.424L159.1 364.896H162.044L165.724 373.424H163.116ZM172.381 364.896H175.053V367.792L174.941 368.144V370.336L175.053 370.992V376.64H172.381V364.896ZM174.125 369.456C174.307 368.486 174.621 367.643 175.069 366.928C175.528 366.203 176.099 365.643 176.781 365.248C177.475 364.854 178.243 364.656 179.085 364.656C179.981 364.656 180.765 364.859 181.437 365.264C182.12 365.659 182.653 366.219 183.037 366.944C183.421 367.659 183.613 368.496 183.613 369.456C183.613 370.406 183.421 371.243 183.037 371.968C182.653 372.683 182.12 373.243 181.437 373.648C180.765 374.043 179.981 374.24 179.085 374.24C178.232 374.24 177.464 374.043 176.781 373.648C176.109 373.254 175.544 372.699 175.085 371.984C174.627 371.259 174.307 370.416 174.125 369.456ZM180.909 369.456C180.909 368.923 180.797 368.454 180.573 368.048C180.36 367.632 180.061 367.312 179.677 367.088C179.293 366.854 178.851 366.736 178.349 366.736C177.848 366.736 177.373 366.854 176.925 367.088C176.477 367.312 176.083 367.632 175.741 368.048C175.411 368.454 175.149 368.923 174.957 369.456C175.149 369.99 175.411 370.459 175.741 370.864C176.083 371.27 176.477 371.59 176.925 371.824C177.373 372.048 177.848 372.16 178.349 372.16C178.851 372.16 179.293 372.048 179.677 371.824C180.061 371.59 180.36 371.27 180.573 370.864C180.797 370.459 180.909 369.99 180.909 369.456ZM188.162 365.824H190.834V374H188.162V365.824ZM184.546 364.896H194.45V366.944H184.546V364.896ZM197.626 374.144C197.178 374.144 196.804 374 196.506 373.712C196.218 373.424 196.074 373.062 196.074 372.624C196.074 372.187 196.218 371.824 196.506 371.536C196.804 371.248 197.178 371.104 197.626 371.104C198.084 371.104 198.458 371.248 198.746 371.536C199.044 371.824 199.194 372.187 199.194 372.624C199.194 373.062 199.044 373.424 198.746 373.712C198.458 374 198.084 374.144 197.626 374.144ZM197.626 368.48C197.178 368.48 196.804 368.336 196.506 368.048C196.218 367.76 196.074 367.398 196.074 366.96C196.074 366.523 196.218 366.16 196.506 365.872C196.804 365.584 197.178 365.44 197.626 365.44C198.084 365.44 198.458 365.584 198.746 365.872C199.044 366.16 199.194 366.523 199.194 366.96C199.194 367.398 199.044 367.76 198.746 368.048C198.458 368.336 198.084 368.48 197.626 368.48Z" fill="white"/>
<path d="M242.513 371.944H247.633V373H241.393V361.8H242.513V371.944ZM252.847 364.808C254.031 364.808 254.985 365.23 255.711 366.072C256.447 366.904 256.815 367.891 256.815 369.032C256.815 369.15 256.804 369.315 256.783 369.528H249.759C249.865 370.339 250.207 370.984 250.783 371.464C251.369 371.934 252.089 372.168 252.943 372.168C253.551 372.168 254.073 372.046 254.511 371.8C254.959 371.544 255.295 371.214 255.519 370.808L256.447 371.352C256.095 371.918 255.615 372.366 255.007 372.696C254.399 373.027 253.705 373.192 252.927 373.192C251.668 373.192 250.644 372.798 249.855 372.008C249.065 371.219 248.671 370.216 248.671 369C248.671 367.806 249.06 366.808 249.839 366.008C250.617 365.208 251.62 364.808 252.847 364.808ZM252.847 365.832C252.015 365.832 251.316 366.083 250.751 366.584C250.196 367.075 249.865 367.715 249.759 368.504H255.727C255.62 367.662 255.295 367.006 254.751 366.536C254.207 366.067 253.572 365.832 252.847 365.832ZM263.263 364.808C264.404 364.808 265.375 365.214 266.175 366.024C266.985 366.835 267.391 367.827 267.391 369C267.391 370.174 266.985 371.166 266.175 371.976C265.375 372.787 264.404 373.192 263.263 373.192C261.844 373.192 260.767 372.606 260.031 371.432V373H258.975V361.8H260.031V366.568C260.767 365.395 261.844 364.808 263.263 364.808ZM260.943 371.256C261.551 371.864 262.297 372.168 263.183 372.168C264.068 372.168 264.815 371.864 265.423 371.256C266.031 370.638 266.335 369.886 266.335 369C266.335 368.115 266.031 367.368 265.423 366.76C264.815 366.142 264.068 365.832 263.183 365.832C262.297 365.832 261.551 366.142 260.943 366.76C260.335 367.368 260.031 368.115 260.031 369C260.031 369.886 260.335 370.638 260.943 371.256ZM276.506 365H277.562V373H276.506V371.432C275.77 372.606 274.693 373.192 273.274 373.192C272.133 373.192 271.157 372.787 270.346 371.976C269.546 371.166 269.146 370.174 269.146 369C269.146 367.827 269.546 366.835 270.346 366.024C271.157 365.214 272.133 364.808 273.274 364.808C274.693 364.808 275.77 365.395 276.506 366.568V365ZM271.114 371.256C271.722 371.864 272.469 372.168 273.354 372.168C274.24 372.168 274.986 371.864 275.594 371.256C276.202 370.638 276.506 369.886 276.506 369C276.506 368.115 276.202 367.368 275.594 366.76C274.986 366.142 274.24 365.832 273.354 365.832C272.469 365.832 271.722 366.142 271.114 366.76C270.506 367.368 270.202 368.115 270.202 369C270.202 369.886 270.506 370.638 271.114 371.256ZM284.022 364.808C284.993 364.808 285.756 365.107 286.31 365.704C286.876 366.291 287.158 367.086 287.158 368.088V373H286.102V368.088C286.102 367.374 285.91 366.819 285.526 366.424C285.153 366.03 284.62 365.832 283.926 365.832C283.158 365.832 282.534 366.078 282.054 366.568C281.574 367.048 281.334 367.795 281.334 368.808V373H280.278V365H281.334V366.248C281.932 365.288 282.828 364.808 284.022 364.808ZM296.384 371.992C295.573 372.792 294.581 373.192 293.408 373.192C292.235 373.192 291.237 372.792 290.416 371.992C289.605 371.182 289.2 370.184 289.2 369C289.2 367.816 289.605 366.824 290.416 366.024C291.237 365.214 292.235 364.808 293.408 364.808C294.581 364.808 295.573 365.214 296.384 366.024C297.205 366.824 297.616 367.816 297.616 369C297.616 370.184 297.205 371.182 296.384 371.992ZM291.168 371.256C291.776 371.864 292.523 372.168 293.408 372.168C294.293 372.168 295.04 371.864 295.648 371.256C296.256 370.638 296.56 369.886 296.56 369C296.56 368.115 296.256 367.368 295.648 366.76C295.04 366.142 294.293 365.832 293.408 365.832C292.523 365.832 291.776 366.142 291.168 366.76C290.56 367.368 290.256 368.115 290.256 369C290.256 369.886 290.56 370.638 291.168 371.256ZM303.607 364.808C304.578 364.808 305.341 365.107 305.895 365.704C306.461 366.291 306.743 367.086 306.743 368.088V373H305.687V368.088C305.687 367.374 305.495 366.819 305.111 366.424C304.738 366.03 304.205 365.832 303.511 365.832C302.743 365.832 302.119 366.078 301.639 366.568C301.159 367.048 300.919 367.795 300.919 368.808V373H299.863V365H300.919V366.248C301.517 365.288 302.413 364.808 303.607 364.808ZM321.105 361.8H322.225V373H321.105V367.768H315.025V373H313.905V361.8H315.025V366.712H321.105V361.8ZM331.98 365H333.036V373H331.98V371.432C331.244 372.606 330.167 373.192 328.748 373.192C327.607 373.192 326.631 372.787 325.82 371.976C325.02 371.166 324.62 370.174 324.62 369C324.62 367.827 325.02 366.835 325.82 366.024C326.631 365.214 327.607 364.808 328.748 364.808C330.167 364.808 331.244 365.395 331.98 366.568V365ZM326.588 371.256C327.196 371.864 327.943 372.168 328.828 372.168C329.713 372.168 330.46 371.864 331.068 371.256C331.676 370.638 331.98 369.886 331.98 369C331.98 368.115 331.676 367.368 331.068 366.76C330.46 366.142 329.713 365.832 328.828 365.832C327.943 365.832 327.196 366.142 326.588 366.76C325.98 367.368 325.676 368.115 325.676 369C325.676 369.886 325.98 370.638 326.588 371.256ZM339.496 364.808C340.467 364.808 341.229 365.107 341.784 365.704C342.349 366.291 342.632 367.086 342.632 368.088V373H341.576V368.088C341.576 367.374 341.384 366.819 341 366.424C340.627 366.03 340.093 365.832 339.4 365.832C338.632 365.832 338.008 366.078 337.528 366.568C337.048 367.048 336.808 367.795 336.808 368.808V373H335.752V365H336.808V366.248C337.405 365.288 338.301 364.808 339.496 364.808ZM351.858 371.992C351.047 372.792 350.055 373.192 348.882 373.192C347.709 373.192 346.711 372.792 345.89 371.992C345.079 371.182 344.674 370.184 344.674 369C344.674 367.816 345.079 366.824 345.89 366.024C346.711 365.214 347.709 364.808 348.882 364.808C350.055 364.808 351.047 365.214 351.858 366.024C352.679 366.824 353.09 367.816 353.09 369C353.09 370.184 352.679 371.182 351.858 371.992ZM346.642 371.256C347.25 371.864 347.997 372.168 348.882 372.168C349.767 372.168 350.514 371.864 351.122 371.256C351.73 370.638 352.034 369.886 352.034 369C352.034 368.115 351.73 367.368 351.122 366.76C350.514 366.142 349.767 365.832 348.882 365.832C347.997 365.832 347.25 366.142 346.642 366.76C346.034 367.368 345.73 368.115 345.73 369C345.73 369.886 346.034 370.638 346.642 371.256ZM360.785 365H361.905L358.625 373H357.345L354.065 365H355.185L357.985 371.896L360.785 365ZM367.044 364.808C368.228 364.808 369.183 365.23 369.908 366.072C370.644 366.904 371.012 367.891 371.012 369.032C371.012 369.15 371.002 369.315 370.98 369.528H363.956C364.063 370.339 364.404 370.984 364.98 371.464C365.567 371.934 366.287 372.168 367.14 372.168C367.748 372.168 368.271 372.046 368.708 371.8C369.156 371.544 369.492 371.214 369.716 370.808L370.644 371.352C370.292 371.918 369.812 372.366 369.204 372.696C368.596 373.027 367.903 373.192 367.124 373.192C365.866 373.192 364.842 372.798 364.052 372.008C363.263 371.219 362.868 370.216 362.868 369C362.868 367.806 363.258 366.808 364.036 366.008C364.815 365.208 365.818 364.808 367.044 364.808ZM367.044 365.832C366.212 365.832 365.514 366.083 364.948 366.584C364.394 367.075 364.063 367.715 363.956 368.504H369.924C369.818 367.662 369.492 367.006 368.948 366.536C368.404 366.067 367.77 365.832 367.044 365.832ZM374.228 366.328C374.719 365.358 375.561 364.872 376.756 364.872V365.896C376.031 365.896 375.428 366.11 374.948 366.536C374.468 366.963 374.228 367.635 374.228 368.552V373H373.172V365H374.228V366.328Z" fill="white"/>
</svg>
