<svg xmlns="http://www.w3.org/2000/svg" width="173" height="40" viewBox="0 0 173 40" fill="none">
  <path d="M73.5865 1L56.3051 17.5079V1.08466H47.5V39H56.3051V28.5132L62.5854 22.6296L73.9472 39H85.5L69.5341 16.1429L84.7256 1H73.5865Z" fill="white"/>
  <path d="M119.597 1L102.305 17.5079V1.08466H93.5V39H102.305V28.5132L108.585 22.6296L119.947 39H131.5L115.534 16.1429L130.726 1H119.597Z" fill="white"/>
  <path d="M40.3602 11.0757C39.754 8.66114 38.4817 6.45476 36.6814 4.69601C34.881 2.93726 32.6214 1.69335 30.1477 1.09928C24.1399 -0.366427 17.8547 -0.366427 11.8469 1.09928C9.37326 1.69335 7.11363 2.93726 5.31327 4.69601C3.51291 6.45476 2.2406 8.66114 1.63444 11.0757C0.121852 16.9337 0.121852 23.0663 1.63444 28.9243C2.24147 31.3402 3.51539 33.5475 5.31776 35.3063C7.12013 37.0652 9.38201 38.3083 11.8576 38.9007C17.8654 40.3664 24.1506 40.3664 30.1585 38.9007C32.6321 38.3067 34.8917 37.0627 36.6921 35.304C38.4924 33.5452 39.7648 31.3389 40.3709 28.9243C41.88 23.0655 41.8763 16.9328 40.3602 11.0757ZM31.7032 26.8306C31.4795 27.7062 31.0159 28.5059 30.3621 29.144C29.7082 29.782 28.8888 30.2345 27.9915 30.4527C23.4143 31.5761 18.6232 31.5761 14.046 30.4527C13.1488 30.2345 12.3293 29.782 11.6755 29.144C11.0216 28.5059 10.558 27.7062 10.3343 26.8306C9.17594 22.347 9.17594 17.653 10.3343 13.1694C10.5544 12.299 11.0116 11.5028 11.6575 10.8652C12.3033 10.2276 13.1138 9.7722 14.0031 9.54729C18.5803 8.4239 23.3714 8.4239 27.9486 9.54729C28.8459 9.76555 29.6653 10.218 30.3192 10.856C30.973 11.4941 31.4366 12.2938 31.6603 13.1694C32.8328 17.6495 32.8475 22.3436 31.7032 26.8306Z" fill="white"/>
  <path d="M171.365 11.0757C170.759 8.66114 169.487 6.45476 167.686 4.69601C165.885 2.93726 163.626 1.69335 161.152 1.09928C155.143 -0.366427 148.857 -0.366427 142.848 1.09928C140.374 1.69335 138.115 2.93726 136.314 4.69601C134.513 6.45476 133.241 8.66114 132.635 11.0757C131.122 16.9337 131.122 23.0663 132.635 28.9243C133.241 31.3389 134.513 33.5452 136.314 35.304C138.115 37.0627 140.374 38.3067 142.848 38.9007C148.857 40.3664 155.143 40.3664 161.152 38.9007C163.626 38.3067 165.885 37.0627 167.686 35.304C169.487 33.5452 170.759 31.3389 171.365 28.9243C172.878 23.0663 172.878 16.9337 171.365 11.0757ZM162.675 26.8306C162.451 27.7062 161.988 28.5059 161.334 29.144C160.68 29.782 159.86 30.2345 158.963 30.4527C154.385 31.5761 149.593 31.5761 145.016 30.4527C144.118 30.2345 143.299 29.782 142.645 29.144C141.991 28.5059 141.527 27.7062 141.303 26.8306C140.145 22.347 140.145 17.653 141.303 13.1694C141.527 12.2938 141.991 11.4941 142.645 10.856C143.299 10.218 144.118 9.76555 145.016 9.54729C149.593 8.4239 154.385 8.4239 158.963 9.54729C159.86 9.76555 160.68 10.218 161.334 10.856C161.988 11.4941 162.451 12.2938 162.675 13.1694C163.834 17.653 163.834 22.347 162.675 26.8306Z" fill="white"/>
</svg>