<svg xmlns="http://www.w3.org/2000/svg" width="256" height="23" viewBox="0 0 256 23" fill="none">
  <path d="M18.7782 22.5027H12.5775C12.1105 22.3716 11.7408 21.3391 11.7365 21.3093C11.6315 20.6823 11.5467 19.8162 11.539 19.1628L11.5085 17.6112C11.4884 16.1918 11.2426 14.8328 10.7652 14.3593C10.2925 13.8873 9.4004 13.6479 8.09597 13.6479H6.31934V22.5027H0.5V0.275879H9.36886C10.0526 0.275879 10.818 0.321299 11.5895 0.489839C12.7171 0.731102 13.8736 1.23315 14.8498 2.24337C15.8682 3.27234 16.4754 4.70257 16.6868 6.13445C16.741 6.50215 16.7669 6.45431 16.7669 6.81971C16.7669 8.71856 16.4415 10.3044 15.1124 11.1584C15.0759 11.1815 16.054 11.5434 16.6477 12.6202C17.0584 13.3658 17.1738 14.7351 17.1738 15.8304C17.1738 16.4442 17.2168 17.0002 17.3077 17.608C17.5409 19.1727 17.8862 21.8516 18.7782 22.5027ZM11.3368 7.19698C11.3368 6.50585 11.0704 5.81804 10.5297 5.33654C9.95012 4.78894 8.88288 4.57281 7.50891 4.57281H6.31934V9.72227H7.50891C7.95355 9.72227 9.0195 9.58371 9.0195 9.58371C9.6009 9.487 10.1317 9.43546 10.5286 9.0758C10.9974 8.63257 11.3355 8.11381 11.3368 7.19698Z" fill="white"/>
  <path d="M37.0533 15.675H25.7995C25.7995 16.4789 26.1026 17.5511 26.7462 18.1862C27.0843 18.5209 27.7594 18.9238 28.9772 18.9238C29.1111 18.9238 30.0577 18.8896 30.7344 18.5209C31.0728 18.3206 31.4437 17.985 31.6793 17.5158H36.8513C36.6146 18.3539 36.1412 19.5249 35.0255 20.5971C33.9113 21.6693 32.1525 22.6733 28.8744 22.6733C26.8807 22.6733 24.4807 22.2385 22.622 20.3973C21.6423 19.4259 20.3916 17.5842 20.3916 14.7374C20.3916 12.2255 21.3372 10.2173 22.6547 8.9436C23.9053 7.73843 25.8669 6.76904 28.8405 6.76904C30.5977 6.76904 32.8632 7.13534 34.6547 8.80938C36.7834 10.8192 37.0533 13.4308 37.0533 15.1062V15.675ZM32.0859 12.5955C31.9503 12.0249 31.612 11.3898 31.2064 10.9876C30.497 10.2843 29.5153 10.1831 28.976 10.1831C28.0626 10.1831 27.353 10.4187 26.7795 10.9876C26.4072 11.3897 26.0696 11.9246 25.9683 12.5955H32.0859Z" fill="white"/>
  <path d="M52.0544 21.6419C50.4647 22.7222 48.6849 22.7222 47.2626 22.7222C44.3368 22.7222 42.4193 21.4894 41.3433 20.457C39.931 19.0899 39.0234 17.0915 39.0234 14.8921C39.0234 12.6922 39.931 10.5943 41.4439 9.12824C42.8575 7.79395 44.9421 6.86182 47.4979 6.86182C48.439 6.86182 50.1947 7.16674 51.2999 7.94093L50.0766 11.6132C49.566 11.3606 49.3471 11.1929 48.2035 11.1929C46.9255 11.1929 45.8991 11.6935 45.3608 12.2265C44.6209 12.9596 44.3177 13.9268 44.3177 14.7933C44.3177 15.6261 44.6204 16.5917 45.2596 17.2918C45.7633 17.8256 46.8581 18.4248 48.2374 18.4248C49.01 18.4248 49.5565 18.3515 50.5286 17.7724L52.0544 21.6419Z" fill="white"/>
  <path d="M71.7107 14.7593C71.7107 16.7592 71.0391 18.6592 69.3905 20.2585C67.4053 22.1898 65.0847 22.7237 62.6642 22.7237C60.478 22.7237 58.057 22.2905 55.9712 20.2585C54.3232 18.6592 53.6504 16.7592 53.6504 14.7593C53.6504 12.0947 54.8615 10.3613 55.9712 9.29572C57.2154 8.09604 59.4003 6.82861 62.6642 6.82861C65.9929 6.82861 68.1463 8.12896 69.3905 9.29572C70.5004 10.3613 71.7107 12.0946 71.7107 14.7593ZM66.5645 14.7618C66.5645 13.8607 66.1486 12.7724 65.3902 12.0207C64.7081 11.3828 63.6465 10.9303 62.6999 10.9303C61.7139 10.9303 60.6532 11.3833 59.9709 12.0207C59.213 12.7339 58.7961 13.7861 58.7961 14.7618C58.7961 15.7758 59.2882 16.7527 59.9709 17.4285C60.6911 18.1411 61.677 18.5542 62.6999 18.5542C63.6855 18.5542 64.6707 18.1411 65.3902 17.4285C66.1486 16.7154 66.5645 15.7393 66.5645 14.7618Z" fill="white"/>
  <path d="M91.7468 7.32861L83.9096 22.2233H80.2455L72.4766 7.32861H78.4964L82.0945 15.3783L85.7604 7.32861H91.7468Z" fill="white"/>
  <path d="M109.192 15.675H97.9384C97.9384 16.4789 98.2419 17.5511 98.8842 18.1862C99.222 18.5209 99.8971 18.9238 101.116 18.9238C101.251 18.9238 102.197 18.8896 102.873 18.5209C103.211 18.3206 103.582 17.985 103.818 17.5158H108.989C108.753 18.3539 108.279 19.5249 107.164 20.5971C106.049 21.6693 104.291 22.6733 101.013 22.6733C99.0185 22.6733 96.6197 22.2385 94.7597 20.3973C93.7799 19.4259 92.5293 17.5842 92.5293 14.7374C92.5293 12.2255 93.476 10.2173 94.7942 8.9436C96.0442 7.73843 98.0046 6.76904 100.979 6.76904C102.736 6.76904 105.002 7.13534 106.792 8.80938C108.921 10.8192 109.192 13.4308 109.192 15.1062V15.675ZM104.224 12.5955C104.087 12.0249 103.75 11.3898 103.344 10.9876C102.636 10.2843 101.655 10.1831 101.114 10.1831C100.202 10.1831 99.4918 10.4187 98.917 10.9876C98.5463 11.3897 98.2074 11.9246 98.1056 12.5955H104.224Z" fill="white"/>
  <path d="M123.546 7.32997L122.865 12.0204C122.433 11.8337 121.64 11.6084 120.637 11.6665C119.932 11.7086 119.236 11.7615 118.463 12.4609C117.319 13.4933 117.252 15.0596 117.252 15.8586V22.2237H111.871V7.32997H117.252L117.346 9.59537C117.831 8.6182 118.564 8.09574 119.371 7.69512C120.178 7.26261 120.991 7.09521 122.001 7.09521C122.135 7.09521 122.827 7.09521 123.546 7.32997Z" fill="white"/>
  <path d="M155.402 0.274902V13.037C155.402 15.3692 155.301 17.8034 152.879 20.2352C150.996 22.1338 148.642 23 145.481 23C141.95 23 139.427 21.8013 138.048 20.3342C136.099 18.2341 135.863 15.4033 135.863 13.0368V0.274902H141.681V13.4376C141.681 14.3699 141.714 15.8029 142.824 16.8696C143.496 17.5022 144.572 17.9359 145.581 17.9359C146.591 17.9359 147.633 17.5352 148.272 16.9707C149.617 15.8029 149.582 14.1692 149.582 12.9373V0.274902H155.402Z" fill="white"/>
  <path d="M168.462 14.1946L175.401 22.2238H168.792L165.083 17.4631L164.04 18.4756V22.2238H158.66V0H164.04V12.6923L169.117 7.32746H175.562L168.462 14.1946Z" fill="white"/>
  <path d="M189.192 7.32997L188.51 12.0204C188.08 11.8337 187.287 11.6084 186.283 11.6665C185.578 11.7086 184.883 11.7615 184.108 12.4609C182.964 13.4933 182.897 15.0596 182.897 15.8586V22.2237H177.518V7.32997H182.897L182.992 9.59537C183.477 8.6182 184.21 8.09574 185.016 7.69512C185.824 7.26261 186.638 7.09521 187.645 7.09521C187.78 7.09521 188.473 7.09521 189.192 7.32997Z" fill="white"/>
  <path d="M208.314 7.32887V22.224H202.934L202.671 20.9199C201.483 22.2571 199.739 22.7238 198.261 22.7238C196.647 22.7238 194.662 22.2557 192.845 20.3591C191.399 18.8244 190.692 17.1247 190.692 14.8926C190.692 12.0948 191.803 10.1278 193.013 8.92815C194.291 7.66213 196.276 6.82861 198.427 6.82861C200.849 6.82861 202.146 7.99704 202.717 8.53557L202.934 7.32875H208.314V7.32887ZM203.209 14.7583C203.209 14.0025 202.991 12.9965 202.083 12.1346C201.54 11.6304 200.705 11.0915 199.471 11.0915C198.746 11.0915 197.766 11.3424 196.932 12.1346C196.133 12.8888 195.77 13.9319 195.77 14.7583C195.77 15.6916 196.169 16.699 196.896 17.3833C197.512 17.9575 198.527 18.4624 199.509 18.4624C200.452 18.4624 201.394 18.0649 202.12 17.3472C202.629 16.8435 203.209 16.0525 203.209 14.7583Z" fill="white"/>
  <path d="M211.649 5.99558V2.95166H217.029V5.99558H211.649ZM211.649 22.2231V7.32846H217.029V22.2231H211.649Z" fill="white"/>
  <path d="M236.344 12.7594V22.2237H230.963V14.6941C230.963 13.8267 230.996 12.5271 230.29 11.7938C229.785 11.2612 229.112 11.1609 228.574 11.1609C227.734 11.1609 227.028 11.4603 226.59 11.8598C226.053 12.361 225.717 13.3263 225.717 14.2265V22.223H220.335V7.3285H225.717L225.877 8.99437C227.167 7.3285 229.18 6.99512 230.492 6.99512C232.038 6.99512 233.687 7.36269 234.931 8.59542C236.209 9.85991 236.344 11.1282 236.344 12.7594Z" fill="white"/>
  <path d="M255.5 15.675H244.245C244.245 16.4789 244.551 17.5511 245.193 18.1862C245.532 18.5209 246.206 18.9238 247.423 18.9238C247.557 18.9238 248.505 18.8896 249.181 18.5209C249.519 18.3206 249.891 17.985 250.127 17.5158H255.298C255.061 18.3539 254.588 19.5249 253.474 20.5971C252.358 21.6693 250.599 22.6733 247.322 22.6733C245.329 22.6733 242.928 22.2385 241.069 20.3973C240.089 19.4259 238.838 17.5842 238.838 14.7374C238.838 12.2255 239.784 10.2173 241.103 8.9436C242.353 7.73843 244.314 6.76904 247.288 6.76904C249.045 6.76904 251.31 7.13534 253.1 8.80938C255.23 10.8192 255.5 13.4308 255.5 15.1062V15.675ZM250.533 12.5955C250.396 12.0249 250.059 11.3898 249.653 10.9876C248.944 10.2843 247.963 10.1831 247.423 10.1831C246.511 10.1831 245.8 10.4187 245.225 10.9876C244.854 11.3897 244.515 11.9246 244.414 12.5955H250.533Z" fill="white"/>
  <path d="M155.402 0.270996H149.582V3.31492H155.402V0.270996Z" fill="#FFC400"/>
  <path d="M6.31934 19.4556H0.5V22.4992H6.31934V19.4556Z" fill="#005BAA"/>
</svg>