<svg xmlns="http://www.w3.org/2000/svg" width="24" height="25" viewBox="0 0 24 25" fill="none">
  <path d="M4.58426 8.11528C4.58692 7.62921 4.77507 7.16475 5.10625 6.82669L11.0956 0.712946C12.1854 -0.39959 14.0076 0.418946 14.0021 2.01859L13.9315 22.3956C13.9259 24.0214 12.0468 24.8138 10.9799 23.6401L5.01884 17.0832C4.71047 16.744 4.53945 16.2915 4.54202 15.8215L4.58426 8.11528Z" fill="black"/>
  <path d="M0 8.68456C0 8.09722 0.451473 7.62109 1.00839 7.62109H2.62182C3.17874 7.62109 3.63021 8.09722 3.63021 8.68456V15.0654C3.63021 15.6527 3.17874 16.1288 2.62182 16.1288H1.00839C0.451473 16.1288 0 15.6527 0 15.0654V8.68456Z" fill="black"/>
  <mask id="mask0_5231_2608" style="mask-type:alpha" maskUnits="userSpaceOnUse" x="12" y="9" width="6" height="6">
    <path fill-rule="evenodd" clip-rule="evenodd" d="M14.9236 14.8528C16.3716 14.8528 17.5454 13.6148 17.5454 12.0878C17.5454 10.5607 16.3716 9.32275 14.9236 9.32275C13.4756 9.32275 12.3018 10.5607 12.3018 12.0878C12.3018 13.6148 13.4756 14.8528 14.9236 14.8528ZM14.974 14.002C15.9486 14.002 16.7387 13.1688 16.7387 12.1409C16.7387 11.1131 15.9486 10.2799 14.974 10.2799C13.9994 10.2799 13.2093 11.1131 13.2093 12.1409C13.2093 13.1688 13.9994 14.002 14.974 14.002Z" fill="black"/>
  </mask>
  <g mask="url(#mask0_5231_2608)">
    <path d="M14.9229 1.66577H19.7631V21.6589H14.9229V1.66577Z" fill="black"/>
  </g>
  <mask id="mask1_5231_2608" style="mask-type:alpha" maskUnits="userSpaceOnUse" x="14" y="1" width="8" height="21">
    <path d="M14.9248 1.66577H21.5802V21.6589H14.9248V1.66577Z" fill="black"/>
  </mask>
  <g mask="url(#mask1_5231_2608)">
    <path fill-rule="evenodd" clip-rule="evenodd" d="M14.9748 18.1497C18.1214 18.1497 20.6722 15.4596 20.6722 12.1412C20.6722 8.8227 18.1214 6.13257 14.9748 6.13257C11.8282 6.13257 9.27734 8.8227 9.27734 12.1412C9.27734 15.4596 11.8282 18.1497 14.9748 18.1497ZM14.9243 16.9799C17.4862 16.9799 19.5629 14.7897 19.5629 12.088C19.5629 9.38623 17.4862 7.19603 14.9243 7.19603C12.3625 7.19603 10.2857 9.38623 10.2857 12.088C10.2857 14.7897 12.3625 16.9799 14.9243 16.9799Z" fill="black"/>
  </g>
  <mask id="mask2_5231_2608" style="mask-type:alpha" maskUnits="userSpaceOnUse" x="14" y="2" width="10" height="21">
    <path d="M14.9248 2.09131H24.0003V22.0845H14.9248V2.09131Z" fill="black"/>
  </mask>
  <g mask="url(#mask2_5231_2608)">
    <path fill-rule="evenodd" clip-rule="evenodd" d="M15.3284 21.2336C20.1179 21.2336 24.0006 17.1627 24.0006 12.141C24.0006 7.11925 20.1179 3.04834 15.3284 3.04834C10.5389 3.04834 6.65625 7.11925 6.65625 12.141C6.65625 17.1627 10.5389 21.2336 15.3284 21.2336ZM15.3788 20.2765C19.5279 20.2765 22.8914 16.7531 22.8914 12.4068C22.8914 8.06055 19.5279 4.53719 15.3788 4.53719C11.2298 4.53719 7.86632 8.06055 7.86632 12.4068C7.86632 16.7531 11.2298 20.2765 15.3788 20.2765Z" fill="black"/>
  </g>
</svg>