<svg xmlns="http://www.w3.org/2000/svg" width="24" height="24" viewBox="0 0 24 24" fill="none">
  <path d="M4.75379 7.91484C4.75656 7.42877 4.95167 6.96431 5.29512 6.62625L11.5063 0.512506C12.6366 -0.60003 14.5262 0.218506 14.5205 1.81815L14.4474 22.1951C14.4415 23.821 12.4928 24.6133 11.3863 23.4397L5.20448 16.8827C4.88468 16.5435 4.70732 16.091 4.70999 15.6211L4.75379 7.91484Z" fill="black"/>
  <path d="M0 8.48412C0 7.89678 0.468199 7.42065 1.04575 7.42065H2.71895C3.29651 7.42065 3.76471 7.89678 3.76471 8.48412V14.8649C3.76471 15.4523 3.29651 15.9284 2.71895 15.9284H1.04575C0.468199 15.9284 0 15.4523 0 14.8649V8.48412Z" fill="black"/>
  <path fill-rule="evenodd" clip-rule="evenodd" d="M23.8018 8.52693C24.0673 8.79688 24.0673 9.23455 23.8018 9.50451L17.8411 15.5663C17.5756 15.8362 17.1452 15.8362 16.8798 15.5663C16.6143 15.2963 16.6143 14.8586 16.8798 14.5887L22.8405 8.52693C23.106 8.25698 23.5364 8.25698 23.8018 8.52693Z" fill="black"/>
  <path fill-rule="evenodd" clip-rule="evenodd" d="M23.8009 15.5663C23.5355 15.8362 23.1051 15.8362 22.8396 15.5663L16.8788 9.50451C16.6134 9.23455 16.6134 8.79688 16.8788 8.52693C17.1443 8.25697 17.5747 8.25697 17.8401 8.52693L23.8009 14.5887C24.0664 14.8586 24.0664 15.2963 23.8009 15.5663Z" fill="black"/>
</svg>