<svg xmlns="http://www.w3.org/2000/svg" width="39" height="38" viewBox="0 0 39 38" fill="none">
  <path d="M27.347 0H11.4171C4.49761 0 0.372559 4.123 0.372559 11.039V26.942C0.372559 33.877 4.49761 38 11.4171 38H27.328C34.2474 38 38.3725 33.877 38.3725 26.961V11.039C38.3915 4.123 34.2664 0 27.347 0ZM19.382 26.372C15.314 26.372 12.0064 23.066 12.0064 19C12.0064 14.934 15.314 11.628 19.382 11.628C23.4501 11.628 26.7577 14.934 26.7577 19C26.7577 23.066 23.4501 26.372 19.382 26.372ZM30.6356 9.272C30.5406 9.5 30.4075 9.709 30.2364 9.899C30.0463 10.07 29.8372 10.203 29.6091 10.298C29.381 10.393 29.1339 10.45 28.8868 10.45C28.3735 10.45 27.8983 10.26 27.5371 9.899C27.366 9.709 27.2329 9.5 27.1379 9.272C27.0428 9.044 26.9858 8.797 26.9858 8.55C26.9858 8.303 27.0428 8.056 27.1379 7.828C27.2329 7.581 27.366 7.391 27.5371 7.201C27.9743 6.764 28.6396 6.555 29.2479 6.688C29.381 6.707 29.4951 6.745 29.6091 6.802C29.7232 6.84 29.8372 6.897 29.9513 6.973C30.0463 7.03 30.1414 7.125 30.2364 7.201C30.4075 7.391 30.5406 7.581 30.6356 7.828C30.7307 8.056 30.7877 8.303 30.7877 8.55C30.7877 8.797 30.7307 9.044 30.6356 9.272Z" fill="white"/>
</svg>
