<svg xmlns="http://www.w3.org/2000/svg" width="39" height="38" viewBox="0 0 39 38" fill="none">
  <path fill-rule="evenodd" clip-rule="evenodd" d="M10.3726 0C4.84971 0 0.372559 4.47715 0.372559 10V28C0.372559 33.5228 4.84971 38 10.3726 38H15.3726V25.2143H10.3726V19.0522L15.3726 19.0523C14.3726 13.9171 14.8726 3.64672 27.3726 6.72794V11.5417C24.9071 11.5417 23.5469 11.5417 22.7963 12.2181C21.8726 13.0508 21.8726 14.9083 21.8726 19.0523H27.3726L26.3726 24.7009H21.8726V38H28.3726C33.8954 38 38.3726 33.5228 38.3726 28V10C38.3726 4.47715 33.8954 0 28.3726 0H10.3726Z" fill="white"/>
</svg>
