<svg xmlns="http://www.w3.org/2000/svg" width="39" height="39" viewBox="0 0 39 39" fill="none">
  <path fill-rule="evenodd" clip-rule="evenodd" d="M10.3452 0.0546875C4.82237 0.0546875 0.345215 4.53184 0.345215 10.0547V28.0547C0.345215 33.5775 4.82237 38.0547 10.3452 38.0547H28.3452C33.8681 38.0547 38.3452 33.5775 38.3452 28.0547V10.0547C38.3452 4.53184 33.8681 0.0546875 28.3452 0.0546875H10.3452ZM11.4077 10.7149C13.0646 10.7149 14.4077 9.33545 14.4077 7.63382C14.4077 5.93218 13.0646 4.55273 11.4077 4.55273C9.75086 4.55273 8.40771 5.93218 8.40771 7.63382C8.40771 9.33545 9.75086 10.7149 11.4077 10.7149ZM8.65771 13.5449C8.65771 12.9926 9.10543 12.5449 9.65771 12.5449H14.062C14.6143 12.5449 15.062 12.9926 15.062 13.5449V29.0044C15.062 29.5567 14.6143 30.0044 14.062 30.0044H9.65771C9.10543 30.0044 8.65771 29.5567 8.65771 29.0044V13.5449ZM17.2808 12.5449C16.7285 12.5449 16.2808 12.9926 16.2808 13.5449V29.0044C16.2808 29.5567 16.7285 30.0044 17.2808 30.0044H21.4077C21.96 30.0044 22.4077 29.5567 22.4077 29.0044V19.7922C22.8933 17.6012 25.1234 16.2446 26.7181 17.7427C26.9497 17.9602 26.9903 18.2869 27.0308 18.6648V29.2284C27.0308 29.7807 27.4785 30.2284 28.0308 30.2284H32.0933C32.6455 30.2284 33.0933 29.7807 33.0933 29.2284V17.3771C33.0933 17.3169 33.0826 17.2593 33.0632 17.2059C32.727 12.7425 26.6 10.3578 22.4077 13.6056V13.5449C22.4077 12.9926 21.96 12.5449 21.4077 12.5449H17.2808Z" fill="white"/>
</svg>
