<svg xmlns="http://www.w3.org/2000/svg" width="39" height="38" viewBox="0 0 39 38" fill="none">
  <path fill-rule="evenodd" clip-rule="evenodd" d="M10.3726 0C4.84971 0 0.372559 4.47715 0.372559 10V28C0.372559 33.5228 4.84971 38 10.3726 38H28.3726C33.8954 38 38.3726 33.5228 38.3726 28V10C38.3726 4.47715 33.8954 0 28.3726 0H10.3726ZM20.0055 25.7264C20.106 25.3366 20.1064 24.921 20.1173 14.4738C20.1229 9.10882 20.1173 3.59375 20.1173 3.59375H22.6884C24.8211 3.59375 25.1769 3.59375 25.2368 3.72683C25.2488 3.75348 25.2489 3.78546 25.249 3.82384C25.2494 3.95037 25.2769 4.26101 25.3099 4.51411C25.343 4.76722 25.3912 5.07291 25.4169 5.19343C25.4427 5.31396 25.5223 5.59993 25.5939 5.82892C25.6655 6.05792 25.8354 6.48418 25.9716 6.77615C26.1077 7.06808 26.3208 7.46253 26.4451 7.65269C26.5694 7.84281 26.7833 8.14026 26.9206 8.31378C27.0579 8.48724 27.3378 8.78877 27.5428 8.98384C27.7476 9.17896 28.0881 9.46616 28.2993 9.62205C28.5106 9.77799 28.933 10.0332 29.2381 10.1893C29.5433 10.3453 29.9657 10.5313 30.177 10.6026C30.3882 10.6739 30.7597 10.7736 31.0026 10.8243C31.2455 10.8748 31.6007 10.9264 31.7921 10.9388C31.9834 10.9512 32.4173 10.9788 32.4173 10.9788V13.6309V16.2735C32.4173 16.2735 31.3932 16.1921 31.1584 16.1679C30.9237 16.1437 30.5589 16.0941 30.3476 16.0576C30.1364 16.0212 29.7367 15.9328 29.4594 15.8613C29.1821 15.7896 28.7501 15.6602 28.4993 15.5736C28.2485 15.4869 27.8047 15.308 27.5131 15.176C27.2214 15.0439 26.7894 14.8262 26.5529 14.6922C26.3165 14.5582 25.9349 14.3235 25.7049 14.1708C25.4751 14.0181 25.2782 13.8931 25.2675 13.8931C25.2569 13.8931 25.2482 16.4253 25.2482 19.5202C25.2482 23.112 25.232 25.3115 25.2036 25.6012C25.1791 25.8508 25.111 26.3016 25.0523 26.6029C24.9936 26.9042 24.861 27.4115 24.7575 27.7303C24.6541 28.049 24.4664 28.5322 24.3404 28.804C24.2144 29.0758 24.0001 29.4855 23.8641 29.7144C23.7281 29.9432 23.4798 30.3178 23.3123 30.5468C23.1448 30.7757 22.8158 31.1679 22.5811 31.4182C22.3464 31.6686 21.9623 32.0322 21.7276 32.2263C21.4929 32.4204 21.1162 32.7035 20.8905 32.8556C20.6648 33.0076 20.2039 33.2693 19.8663 33.4371C19.5287 33.605 19.0221 33.8203 18.7404 33.9157C18.4588 34.0111 18.0401 34.1307 17.8099 34.1815C17.5798 34.2323 17.1479 34.3032 16.85 34.339C16.5522 34.3748 16.0753 34.4041 15.7901 34.4041C15.5049 34.4041 15.0727 34.3834 14.8297 34.3581C14.5866 34.3329 14.1957 34.2725 13.961 34.2239C13.7263 34.1754 13.367 34.0864 13.1625 34.0262C12.9581 33.966 12.6008 33.8406 12.3686 33.7477C12.1363 33.6547 11.7851 33.496 11.5881 33.3948C11.3911 33.2937 11.0695 33.112 10.8736 32.9911C10.6776 32.8702 10.3231 32.6229 10.0857 32.4415C9.84842 32.2601 9.46342 31.9224 9.23021 31.691C8.997 31.4597 8.66154 31.0929 8.4847 30.876C8.30791 30.6591 8.02439 30.2646 7.85467 29.9995C7.68496 29.7343 7.44932 29.3236 7.33103 29.0869C7.21273 28.8501 7.03944 28.4554 6.94598 28.2099C6.85248 27.9644 6.71845 27.5528 6.64804 27.2954C6.57767 27.0379 6.47602 26.5746 6.42221 26.2658C6.33763 25.7809 6.32448 25.5612 6.32576 24.6526C6.32683 23.8586 6.34527 23.4937 6.401 23.1643C6.44158 22.9243 6.52164 22.5382 6.57886 22.3063C6.63609 22.0744 6.75207 21.6791 6.83657 21.4279C6.92106 21.1767 7.10221 20.7345 7.23911 20.4452C7.376 20.1559 7.59692 19.7418 7.73002 19.5248C7.86316 19.3079 8.07982 18.9831 8.21147 18.8031C8.34311 18.623 8.6047 18.2995 8.79272 18.0841C8.98079 17.8687 9.34445 17.5083 9.60092 17.2832C9.85739 17.0581 10.2688 16.7359 10.5151 16.5673C10.7614 16.3987 11.2054 16.1346 11.5018 15.9804C11.7982 15.8261 12.2311 15.6271 12.4639 15.5381C12.6968 15.4491 13.0983 15.3193 13.3563 15.2498C13.6144 15.1803 14.0288 15.0882 14.2773 15.0453C14.6234 14.9855 14.9711 14.928 15.7555 14.9279C16.3188 14.9278 17.035 15.0197 17.035 15.0197C17.035 15.0197 17.0122 15.1033 17.0122 17.7068C17.0122 19.1768 17.0363 20.4391 17.0363 20.4391C17.0455 20.4538 16.9992 20.4322 16.9344 20.4021C16.8669 20.3708 16.7793 20.3301 16.7134 20.3113C16.5844 20.2744 16.2563 20.2325 15.9845 20.2181C15.6822 20.2021 15.3536 20.2124 15.1386 20.2447C14.9452 20.2737 14.6395 20.3466 14.4593 20.4067C14.2791 20.4667 13.9882 20.5882 13.8128 20.6768C13.6375 20.7653 13.3494 20.9482 13.1727 21.0832C12.9961 21.2182 12.7349 21.4572 12.5925 21.6141C12.4501 21.7711 12.243 22.0394 12.1324 22.2104C12.0217 22.3813 11.8736 22.6516 11.8032 22.8111C11.7328 22.9706 11.6265 23.2826 11.567 23.5043C11.4882 23.7981 11.4524 24.0621 11.4352 24.4773C11.4174 24.9095 11.4289 25.1409 11.4832 25.4359C11.5225 25.6497 11.6107 25.9824 11.6792 26.1752C11.7477 26.3679 11.8718 26.6528 11.955 26.8082C12.0382 26.9637 12.1868 27.2029 12.2852 27.3399C12.3837 27.4769 12.5935 27.7188 12.7515 27.8774C12.9096 28.036 13.1736 28.2587 13.3384 28.3721C13.5031 28.4856 13.749 28.6294 13.8847 28.6916C14.0206 28.7538 14.2373 28.8428 14.3664 28.8893C14.4955 28.9358 14.7293 29.0019 14.8859 29.0361C15.0426 29.0704 15.324 29.1115 15.5112 29.1276C15.7107 29.1447 16.0257 29.1343 16.2719 29.1026C16.503 29.0728 16.8457 28.9992 17.0335 28.9391C17.2213 28.8789 17.5264 28.7525 17.7116 28.658C17.8967 28.5636 18.1656 28.4001 18.309 28.2948C18.4524 28.1894 18.6995 27.969 18.858 27.8049C19.0166 27.6409 19.2436 27.362 19.3627 27.1853C19.4817 27.0085 19.6465 26.7138 19.729 26.5304C19.8115 26.347 19.9301 26.0072 19.9925 25.7754C19.997 25.7586 20.0014 25.7425 20.0055 25.7264Z" fill="white"/>
</svg>
