<svg xmlns="http://www.w3.org/2000/svg" width="39" height="39" viewBox="0 0 39 39" fill="none">
  <path fill-rule="evenodd" clip-rule="evenodd" d="M10.3452 0.0546875C4.82237 0.0546875 0.345215 4.53184 0.345215 10.0547V28.0547C0.345215 33.5775 4.82237 38.0547 10.3452 38.0547H15.3452V25.269H10.3452V19.1068L15.3452 19.107C14.3452 13.9718 14.8452 3.70141 27.3452 6.78263V11.5963C24.8798 11.5963 23.5195 11.5963 22.769 12.2728C21.8452 13.1055 21.8452 14.963 21.8452 19.107H27.3452L26.3452 24.7556H21.8452V38.0547H28.3452C33.8681 38.0547 38.3452 33.5775 38.3452 28.0547V10.0547C38.3452 4.53184 33.8681 0.0546875 28.3452 0.0546875H10.3452Z" fill="white"/>
</svg>
