<svg xmlns="http://www.w3.org/2000/svg" width="39" height="38" viewBox="0 0 39 38" fill="none">
  <path fill-rule="evenodd" clip-rule="evenodd" d="M10.3726 0C4.84971 0 0.372559 4.47715 0.372559 10V28C0.372559 33.5228 4.84971 38 10.3726 38H28.3726C33.8954 38 38.3726 33.5228 38.3726 28V10C38.3726 4.47715 33.8954 0 28.3726 0H10.3726ZM11.4351 10.6602C13.0919 10.6602 14.4351 9.28076 14.4351 7.57913C14.4351 5.87749 13.0919 4.49805 11.4351 4.49805C9.7782 4.49805 8.43506 5.87749 8.43506 7.57913C8.43506 9.28076 9.7782 10.6602 11.4351 10.6602ZM8.68506 13.4902C8.68506 12.9379 9.13277 12.4902 9.68506 12.4902H14.0894C14.6416 12.4902 15.0894 12.9379 15.0894 13.4902V28.9497C15.0894 29.502 14.6416 29.9497 14.0894 29.9497H9.68506C9.13277 29.9497 8.68506 29.502 8.68506 28.9497V13.4902ZM17.3081 12.4902C16.7558 12.4902 16.3081 12.9379 16.3081 13.4902V28.9497C16.3081 29.502 16.7558 29.9497 17.3081 29.9497H21.4351C21.9873 29.9497 22.4351 29.502 22.4351 28.9497V19.7375C22.9206 17.5465 25.1508 16.1899 26.7455 17.688C26.9771 17.9056 27.0177 18.2323 27.0581 18.6101V29.1737C27.0581 29.726 27.5058 30.1737 28.0581 30.1737H32.1206C32.6729 30.1737 33.1206 29.726 33.1206 29.1737V17.3224C33.1206 17.2622 33.11 17.2046 33.0905 17.1512C32.7544 12.6879 26.6273 10.3031 22.4351 13.5509V13.4902C22.4351 12.9379 21.9873 12.4902 21.4351 12.4902H17.3081Z" fill="white"/>
</svg>
