<svg xmlns="http://www.w3.org/2000/svg" width="39" height="39" viewBox="0 0 39 39" fill="none">
  <path fill-rule="evenodd" clip-rule="evenodd" d="M10.3452 0.0546875C4.82237 0.0546875 0.345215 4.53184 0.345215 10.0547V28.0547C0.345215 33.5775 4.82237 38.0547 10.3452 38.0547H28.3452C33.8681 38.0547 38.3452 33.5775 38.3452 28.0547V10.0547C38.3452 4.53184 33.8681 0.0546875 28.3452 0.0546875H10.3452ZM19.9782 25.781C20.0787 25.3913 20.0791 24.9757 20.09 14.5285C20.0956 9.16351 20.09 3.64844 20.09 3.64844H22.6611C24.7938 3.64844 25.1496 3.64844 25.2094 3.78152C25.2214 3.80816 25.2215 3.84014 25.2217 3.87853C25.2221 4.00506 25.2495 4.3157 25.2826 4.5688C25.3157 4.8219 25.3638 5.1276 25.3896 5.24812C25.4153 5.36864 25.495 5.65461 25.5665 5.88361C25.6381 6.11261 25.808 6.53887 25.9442 6.83084C26.0804 7.12277 26.2935 7.51721 26.4177 7.70738C26.542 7.8975 26.756 8.19495 26.8933 8.36846C27.0306 8.54193 27.3105 8.84346 27.5154 9.03853C27.7203 9.23365 28.0607 9.52085 28.272 9.67674C28.4832 9.83268 28.9057 10.0879 29.2108 10.2439C29.5159 10.4 29.9384 10.586 30.1496 10.6573C30.3608 10.7286 30.7324 10.8283 30.9753 10.879C31.2181 10.9295 31.5734 10.9811 31.7647 10.9935C31.956 11.0059 32.39 11.0335 32.39 11.0335V13.6856V16.3282C32.39 16.3282 31.3658 16.2467 31.1311 16.2225C30.8964 16.1984 30.5315 16.1487 30.3203 16.1123C30.1091 16.0759 29.7094 15.9875 29.4321 15.9159C29.1548 15.8443 28.7227 15.7149 28.4719 15.6283C28.2211 15.5416 27.7773 15.3627 27.4857 15.2307C27.1941 15.0986 26.762 14.8809 26.5256 14.7469C26.2891 14.6129 25.9075 14.3782 25.6776 14.2255C25.4477 14.0728 25.2509 13.9478 25.2402 13.9478C25.2295 13.9478 25.2208 16.4799 25.2208 19.5749C25.2208 23.1667 25.2047 25.3662 25.1763 25.6559C25.1517 25.9055 25.0837 26.3562 25.025 26.6576C24.9663 26.9589 24.8336 27.4662 24.7302 27.785C24.6268 28.1037 24.4391 28.5869 24.3131 28.8587C24.1871 29.1305 23.9727 29.5402 23.8367 29.7691C23.7008 29.9979 23.4525 30.3725 23.285 30.6015C23.1175 30.8304 22.7884 31.2226 22.5537 31.4729C22.319 31.7233 21.935 32.0869 21.7002 32.281C21.4655 32.4751 21.0889 32.7582 20.8632 32.9103C20.6375 33.0622 20.1766 33.324 19.839 33.4918C19.5014 33.6597 18.9947 33.875 18.7131 33.9704C18.4315 34.0658 18.0127 34.1854 17.7826 34.2362C17.5525 34.287 17.1205 34.3579 16.8227 34.3937C16.5249 34.4295 16.0479 34.4587 15.7627 34.4587C15.4775 34.4587 15.0454 34.4381 14.8023 34.4128C14.5593 34.3876 14.1684 34.3272 13.9337 34.2786C13.699 34.2301 13.3396 34.1411 13.1352 34.0809C12.9307 34.0207 12.5734 33.8953 12.3412 33.8023C12.109 33.7094 11.7578 33.5507 11.5608 33.4495C11.3637 33.3484 11.0422 33.1667 10.8462 33.0458C10.6502 32.9249 10.2957 32.6776 10.0584 32.4962C9.82108 32.3148 9.43608 31.977 9.20287 31.7457C8.96966 31.5144 8.6342 31.1476 8.45736 30.9307C8.28057 30.7137 7.99704 30.3193 7.82733 30.0541C7.65762 29.789 7.42197 29.3783 7.30368 29.1415C7.18539 28.9047 7.01209 28.5101 6.91864 28.2646C6.82514 28.019 6.6911 27.6075 6.62069 27.3501C6.55032 27.0926 6.44867 26.6293 6.39486 26.3205C6.31028 25.8355 6.29714 25.6159 6.29842 24.7073C6.29949 23.9132 6.31792 23.5484 6.37365 23.219C6.41424 22.979 6.49429 22.5929 6.55152 22.361C6.60874 22.1291 6.72473 21.7338 6.80922 21.4826C6.89372 21.2314 7.07487 20.7891 7.21176 20.4999C7.34866 20.2106 7.56958 19.7965 7.70268 19.5795C7.83582 19.3626 8.05247 19.0378 8.18412 18.8578C8.31577 18.6777 8.57736 18.3542 8.76538 18.1388C8.95344 17.9234 9.31711 17.563 9.57357 17.3379C9.83004 17.1128 10.2414 16.7906 10.4877 16.622C10.7341 16.4534 11.1781 16.1893 11.4745 16.0351C11.7709 15.8808 12.2038 15.6818 12.4366 15.5928C12.6694 15.5037 13.071 15.374 13.329 15.3045C13.587 15.235 14.0015 15.1429 14.25 15.1C14.596 15.0401 14.9437 14.9827 15.7281 14.9826C16.2914 14.9825 17.0076 15.0744 17.0076 15.0744C17.0076 15.0744 16.9848 15.1579 16.9848 17.7615C16.9848 19.2315 17.009 20.4937 17.009 20.4937C17.0182 20.5084 16.9719 20.4869 16.907 20.4568C16.8395 20.4255 16.7519 20.3848 16.6861 20.366C16.557 20.3291 16.229 20.2871 15.9571 20.2728C15.6548 20.2568 15.3263 20.2671 15.1112 20.2994C14.9178 20.3284 14.6122 20.4013 14.432 20.4614C14.2518 20.5214 13.9609 20.6429 13.7855 20.7315C13.6101 20.82 13.3221 21.0029 13.1454 21.1379C12.9687 21.2729 12.7076 21.5118 12.5652 21.6688C12.4228 21.8258 12.2157 22.0941 12.1051 22.2651C11.9944 22.436 11.8463 22.7063 11.7759 22.8658C11.7055 23.0253 11.5992 23.3373 11.5396 23.559C11.4608 23.8528 11.4251 24.1168 11.4079 24.532C11.39 24.9642 11.4016 25.1955 11.4558 25.4905C11.4952 25.7044 11.5834 26.0371 11.6519 26.2299C11.7204 26.4226 11.8444 26.7075 11.9276 26.8629C12.0108 27.0183 12.1594 27.2576 12.2579 27.3946C12.3563 27.5316 12.5661 27.7734 12.7242 27.932C12.8822 28.0907 13.1463 28.3133 13.311 28.4268C13.4757 28.5403 13.7216 28.6841 13.8574 28.7463C13.9932 28.8085 14.21 28.8975 14.3391 28.944C14.4681 28.9905 14.7019 29.0566 14.8586 29.0908C15.0152 29.1251 15.2966 29.1662 15.4839 29.1823C15.6834 29.1993 15.9983 29.189 16.2446 29.1573C16.4757 29.1275 16.8184 29.0539 17.0062 28.9938C17.1939 28.9336 17.499 28.8072 17.6842 28.7127C17.8694 28.6183 18.1382 28.4548 18.2817 28.3495C18.4251 28.2441 18.6721 28.0236 18.8307 27.8596C18.9892 27.6956 19.2163 27.4167 19.3353 27.24C19.4543 27.0632 19.6192 26.7685 19.7017 26.5851C19.7842 26.4017 19.9028 26.0619 19.9652 25.8301C19.9697 25.8133 19.974 25.7972 19.9782 25.781Z" fill="white"/>
</svg>
