<svg xmlns="http://www.w3.org/2000/svg" width="39" height="39" viewBox="0 0 39 39" fill="none">
  <path d="M27.3197 0.0546875H11.3897C4.47027 0.0546875 0.345215 4.17769 0.345215 11.0937V26.9967C0.345215 33.9317 4.47027 38.0547 11.3897 38.0547H27.3006C34.2201 38.0547 38.3452 33.9317 38.3452 27.0157V11.0937C38.3642 4.17769 34.2391 0.0546875 27.3197 0.0546875ZM19.3547 26.4267C15.2867 26.4267 11.979 23.1207 11.979 19.0547C11.979 14.9887 15.2867 11.6827 19.3547 11.6827C23.4227 11.6827 26.7304 14.9887 26.7304 19.0547C26.7304 23.1207 23.4227 26.4267 19.3547 26.4267ZM30.6083 9.32669C30.5132 9.55469 30.3802 9.76369 30.2091 9.95369C30.019 10.1247 29.8099 10.2577 29.5818 10.3527C29.3537 10.4477 29.1065 10.5047 28.8594 10.5047C28.3462 10.5047 27.8709 10.3147 27.5098 9.95369C27.3387 9.76369 27.2056 9.55469 27.1106 9.32669C27.0155 9.09869 26.9585 8.85169 26.9585 8.60469C26.9585 8.35769 27.0155 8.11069 27.1106 7.88269C27.2056 7.63569 27.3387 7.44569 27.5098 7.25569C27.947 6.81869 28.6123 6.60969 29.2206 6.74269C29.3537 6.76169 29.4677 6.79969 29.5818 6.85669C29.6958 6.89469 29.8099 6.95169 29.924 7.02769C30.019 7.08469 30.114 7.17969 30.2091 7.25569C30.3802 7.44569 30.5132 7.63569 30.6083 7.88269C30.7033 8.11069 30.7604 8.35769 30.7604 8.60469C30.7604 8.85169 30.7033 9.09869 30.6083 9.32669Z" fill="white"/>
</svg>
